M48
;Layer_Color=9474304
;FILE_FORMAT=4:4
METRIC,LZ
;TYPE=PLATED
T01F00S00C0.3000
T02F00S00C0.9000
T03F00S00C0.9906
T04F00S00C1.2000
T05F00S00C2.5908
;TYPE=NON_PLATED
T06F00S00C3.0000
T07F00S00C3.4000
T08F00S00C4.0894
%
T01
X001985Y000197
Y00039596
Y00059492
Y00082
Y001025
Y0012275
X00197398Y0014504
Y00164511
X00199749Y00177618
X00197319Y00207313
X00198769Y00227064
X00199088Y00251219
X00197398Y00272806
X0019875Y0028875
X0017325Y0029325
X0014181Y00284131
X00145Y0025875
X00162241Y00252927
X00173298Y00198403
X00163147Y00176603
X0014125Y0018375
X00141448Y001322
X00173896Y00122689
X0026368Y00123116
X00264698Y000827
X00266198Y0004195
X003705Y000625
X0037075Y000715
X00382Y001005
X0040125Y001715
X00365948Y00182904
X00376Y00219328
X00377Y00239
X0038275Y0029825
X00263198Y0028995
X00265138Y0023845
X00263638Y00206172
X00263581Y00165117
X00482441Y00197504
X00503698Y002577
X00516198
X00517Y00066
X005038Y00066286
X005755Y001045
X00593663Y00168455
X00675997Y00206928
X00696948Y0025895
X00711448Y002592
X007693Y00300655
X0078825Y0016875
X00756Y001155
X0070975Y0006675
X006975
X0089125
X009055Y00067
X00868175Y00202041
X00891698Y0025845
X00905948Y002587
X0057575Y003005
X00594236Y00363649
X00674253Y00398419
X00696597Y00456001
X00708948Y004557
X007695Y0049525
X007885Y0056125
X0086975Y00597
X00891698Y006507
X00905448
X007705Y0069375
X00710448Y006507
X00697448Y0065095
X0067275Y005945
X00593302Y00561071
X0057525Y00498
X00576043Y00695004
X00788676Y00362459
X00868Y003995
X00892448Y0045695
X00904698
X00516198Y004562
X00503948Y0045645
X00484263Y00389829
X0040125Y003895
X003995Y00407
X00390796Y0042204
X00400274Y00365196
X00263619Y00372608
X00263448Y0033145
X00197398Y00332493
X001985Y00353
X00198347Y00377978
X001985Y0039772
Y0041575
X0019731Y0043744
X001985Y00457408
Y00477304
Y004972
X00253085Y005235
X00264086Y00467551
X00263233Y00425034
X0019875Y0031
X0017575Y0031325
X0038175Y00497
X00400864Y00561597
X00393272Y00595156
X00388Y00612
X00381608Y00628586
X00381457Y00693015
X00501948Y0064995
X00515198
X00481868Y00594845
X0011125Y00569
X003375Y007585
X0035Y0074775
X00326615Y00775997
X00400186Y00758923
X0048075Y0079175
X00594358Y00758354
X00674144Y0079928
X00788928Y00758788
X0086925Y007985
T02
X00128Y0069
X00052
T03
X00209198Y00615375
X00234198
X00259198
Y00760375
X00209198
T04
X00109698Y0001875
Y0004415
Y0006955
Y0009495
Y0012035
Y0014575
Y0017115
Y0019655
Y0022195
Y0024735
Y0027275
Y0029815
X0004975Y002861
Y002607
Y002353
Y002099
Y001845
Y001591
X00287498Y0017115
Y0014575
Y0012035
Y0009495
Y0006955
Y0004415
Y0001875
Y0019655
Y0022195
Y0024735
Y0027275
Y0029815
Y0032355
Y0034895
Y0037435
Y0039975
Y0042515
Y0045055
Y0047595
Y0050135
X00109698
Y0047595
Y0045055
Y0042515
Y0039975
Y0037435
Y0034895
Y0032355
X0004975Y003115
Y003369
Y003623
Y003877
Y004131
Y004385
Y004639
T05
X00179198Y00690375
X00289198
T06
X00509717Y00103406
X00484217Y00167156
X00509717Y00298656
X00703217Y00299156
X00677225Y00167821
X00702725Y00104071
X00897688Y00104156
X00872187Y00167906
X00897688Y0029916
X00872187Y0036291
X00898008Y00497826
X00872507Y00561576
X00897688Y00694016
X0070299Y00694164
X00676756Y00560663
X00702256Y00496913
X00677717Y00362906
X00484217Y00362406
X00509717Y00496406
X00484217Y00560156
X00508887Y00693736
X00483387Y00757486
X0067749Y00757914
X00872187Y00757766
T07
X00039388Y0003977
X00960788
X00039388Y0081065
X00960788
T08
X00457717Y00128156
X00650725Y00128821
X00845687Y00128906
Y0032391
X00651217Y00323906
X00650256Y00521663
X00846008Y00522576
X00457717Y00521156
X00457717Y00323406
X00456887Y00718486
X0065099Y00718914
X00845687Y00718766
M30
