M48
;Layer_Color=9474304
;FILE_FORMAT=4:4
METRIC,LZ
;TYPE=PLATED
T01F00S00C0.3000
T02F00S00C0.9000
T03F00S00C0.9906
T04F00S00C1.2000
T05F00S00C2.5908
;TYPE=NON_PLATED
T06F00S00C3.0000
T07F00S00C3.4000
T08F00S00C4.0894
%
T01
X0020525Y000297
Y00049596
Y00069492
Y00092
Y001125
Y0013275
X00204148Y0015504
Y00174511
X00206499Y00187618
X00204069Y00217313
X00205519Y00237064
X00205839Y00261219
X00204148Y00282806
X002055Y0029875
X0018Y0030325
X00147448Y00294131
X0015175Y0026875
X00168991Y00262927
X00180049Y00208403
X00169897Y00186603
X00148Y0019375
X00148198Y001422
X00180646Y00132689
X0027043Y00133116
X00271448Y000927
X00272948Y0005195
X0037725Y000725
X003775Y000815
X0038875Y001105
X00408Y001815
X00372698Y00192904
X0038275Y00229328
X0038375Y00249
X003895Y0030825
X00269948Y0029995
X00271888Y0024845
X00270388Y00216172
X00270331Y00175117
X00489191Y00207504
X00510448Y002677
X00522948
X0052375Y00076
X0051055Y00076286
X0058225Y001145
X00600413Y00178455
X00682747Y00216928
X00703698Y0026895
X00718198Y002692
X0077605Y00310655
X00795Y0017875
X0076275Y001255
X007165Y0007675
X0070425
X00898
X0091225Y00077
X00874925Y00212041
X00898448Y0026845
X00912698Y002687
X005825Y003105
X00600986Y00373649
X00681003Y00408419
X00703347Y00466001
X00715698Y004657
X0077625Y0050525
X0079525Y0057125
X008765Y00607
X00898448Y006607
X00912198
X0077725Y0070375
X00717198Y006607
X00704198Y0066095
X006795Y006045
X00600052Y00571071
X00582Y00508
X00582793Y00705004
X00795426Y00372459
X0087475Y004095
X00899198Y0046695
X00911448
X00522948Y004662
X00510698Y0046645
X00491013Y00399829
X00408Y003995
X0040625Y00417
X00397546Y0043204
X00407024Y00375196
X00270369Y00382608
X00270198Y0034145
X00204148Y00342493
X0020525Y00363
Y00387825
Y0040772
Y00427616
Y0044625
Y00467408
Y00487304
Y005072
X00259835Y005335
X00270836Y00477551
X00269983Y00435034
X002055Y0032
X001825Y0032325
X003885Y00507
X00407614Y00571597
X00400022Y00605156
X0039475Y00622
X00388358Y00638586
X00388207Y00703015
X00508698Y0065995
X00521948
X00488618Y00604845
X00118Y00579
X00343268Y00768495
X0035675Y0075775
X00333365Y00785997
X00406936Y00768923
X004875Y0080175
X00601108Y00768354
X00680894Y0080928
X00795678Y00768788
X00876Y008085
T02
X00040335Y0070038
X00116335
T03
X00190948Y00625375
X00215948
X00240948
Y00770375
X00190948
T04
X00116448Y0002875
Y0005415
Y0007955
Y0010495
Y0013035
Y0015575
Y0018115
Y0020655
Y0023195
Y0025735
Y0028275
Y0030815
X000565Y002961
Y002707
Y002453
Y002199
Y001945
Y001691
X00294248Y0018115
Y0015575
Y0013035
Y0010495
Y0007955
Y0005415
Y0002875
Y0020655
Y0023195
Y0025735
Y0028275
Y0030815
Y0033355
Y0035895
Y0038435
Y0040975
Y0043515
Y0046055
Y0048595
Y0051135
X00116448
Y0048595
Y0046055
Y0043515
Y0040975
Y0038435
Y0035895
Y0033355
X000565Y003215
Y003469
Y003723
Y003977
Y004231
Y004485
Y004739
T05
X00160948Y00700375
X00270948
T06
X00516467Y00113406
X00490967Y00177156
X00516467Y00308656
X00709967Y00309156
X00683975Y00177821
X00709475Y00114071
X00904437Y00114156
X00878937Y00177906
X00904437Y0030916
X00878937Y0037291
X00904758Y00507826
X00879257Y00571576
X00904437Y00704016
X0070974Y00704164
X00683506Y00570663
X00709006Y00506913
X00684467Y00372906
X00490967Y00372406
X00516467Y00506406
X00490967Y00570156
X00515637Y00703736
X00490137Y00767486
X0068424Y00767914
X00878937Y00767766
T07
X00046138Y0004977
X00967538
X00046138Y0082065
X00967538
T08
X00464467Y00138156
X00657475Y00138821
X00852437Y00138906
Y0033391
X00657967Y00333906
X00657006Y00531663
X00852757Y00532576
X00464467Y00531156
X00464467Y00333406
X00463637Y00728486
X0065774Y00728914
X00852437Y00728766
M30
