G04*
G04 #@! TF.GenerationSoftware,Altium Limited,Altium Designer,26.5.0 (11)*
G04*
G04 Layer_Physical_Order=2*
G04 Layer_Color=16711680*
G04 Board_Origin=72964651|65651580*
%FSLAX44Y44*%
%MOMM*%
G71*
G04*
G04 #@! TF.SameCoordinates,0E16F24D-C74D-4210-9216-EA7F7333114A*
G04*
G04*
G04 #@! TF.FilePolarity,Positive*
G04*
G01*
G75*
%ADD32C,1.4986*%
%ADD34C,0.2540*%
%ADD35C,4.0894*%
%ADD36C,3.0000*%
%ADD38C,3.0988*%
%ADD39C,1.4080*%
%ADD40C,0.6000*%
%ADD41R,2.5000X2.5500*%
%ADD42R,0.8200X1.8000*%
%ADD43C,0.1800*%
%ADD44R,1.5080X1.5080*%
G36*
X966318Y852686D02*
X968858Y852686D01*
X968858Y852686D01*
X968858Y852686D01*
X971362Y852599D01*
X971499Y852593D01*
X974120Y852248D01*
X976700Y851676D01*
X979221Y850881D01*
X981663Y849870D01*
X984008Y848649D01*
X986237Y847229D01*
X988334Y845620D01*
X990282Y843835D01*
X992068Y841886D01*
X993677Y839789D01*
X995097Y837560D01*
X996318Y835215D01*
X997329Y832773D01*
X998124Y830252D01*
X998696Y827672D01*
X999041Y825051D01*
X999047Y824914D01*
X999134Y822410D01*
X999134Y822410D01*
X999134Y822408D01*
Y48010D01*
X999149Y47828D01*
X999041Y45360D01*
X998695Y42731D01*
X998121Y40142D01*
X997323Y37612D01*
X996308Y35162D01*
X995084Y32810D01*
X993659Y30573D01*
X992045Y28469D01*
X990253Y26514D01*
X988298Y24722D01*
X986193Y23108D01*
X983957Y21683D01*
X981604Y20458D01*
X979154Y19443D01*
X976625Y18646D01*
X974036Y18072D01*
X971406Y17726D01*
X968939Y17618D01*
X968757Y17632D01*
X306438D01*
X304328Y18670D01*
X304328Y20172D01*
Y38830D01*
X284168D01*
Y20172D01*
X284168Y18670D01*
X282058Y17632D01*
X128638D01*
X126528Y18670D01*
X126528Y20172D01*
Y38830D01*
X106368D01*
Y20172D01*
X106368Y18670D01*
X104258Y17632D01*
X39079D01*
X38897Y17618D01*
X36644Y17729D01*
X34233Y18086D01*
X31868Y18679D01*
X29573Y19500D01*
X27369Y20542D01*
X25278Y21795D01*
X23320Y23248D01*
X21514Y24885D01*
X19877Y26691D01*
X18425Y28649D01*
X17171Y30740D01*
X16129Y32944D01*
X15308Y35239D01*
X14715Y37603D01*
X14367Y39954D01*
X14261Y42450D01*
X14261Y44989D01*
X14261Y822450D01*
X14247Y822630D01*
X14354Y825087D01*
X14698Y827704D01*
X15270Y830281D01*
X16064Y832799D01*
X17074Y835238D01*
X18293Y837579D01*
X19711Y839806D01*
X21318Y841900D01*
X23101Y843846D01*
X25048Y845629D01*
X27142Y847236D01*
X29368Y848655D01*
X31710Y849874D01*
X34149Y850884D01*
X36666Y851678D01*
X39243Y852249D01*
X41861Y852594D01*
X41994Y852599D01*
X44498Y852686D01*
Y852686D01*
X44499Y852687D01*
X966318Y852686D01*
D02*
G37*
%LPC*%
G36*
X967538Y844489D02*
X965201Y844374D01*
X962887Y844031D01*
X960618Y843462D01*
X958415Y842674D01*
X956300Y841674D01*
X954294Y840471D01*
X952415Y839078D01*
X950681Y837506D01*
X949110Y835773D01*
X947717Y833894D01*
X946514Y831887D01*
X945514Y829773D01*
X944726Y827570D01*
X944157Y825301D01*
X943814Y822987D01*
X943699Y820650D01*
X943814Y818313D01*
X944157Y815999D01*
X944726Y813730D01*
X945514Y811527D01*
X946514Y809412D01*
X947717Y807406D01*
X949110Y805527D01*
X950681Y803793D01*
X952415Y802222D01*
X954294Y800829D01*
X956300Y799626D01*
X958415Y798626D01*
X960618Y797838D01*
X962887Y797269D01*
X965201Y796926D01*
X967538Y796811D01*
X969874Y796926D01*
X972189Y797269D01*
X974458Y797838D01*
X976661Y798626D01*
X978775Y799626D01*
X980782Y800829D01*
X982661Y802222D01*
X984394Y803793D01*
X985965Y805527D01*
X987359Y807406D01*
X988562Y809412D01*
X989562Y811527D01*
X990350Y813730D01*
X990919Y815999D01*
X991262Y818313D01*
X991377Y820650D01*
X991262Y822987D01*
X990919Y825301D01*
X990350Y827570D01*
X989562Y829773D01*
X988562Y831887D01*
X987359Y833894D01*
X985965Y835773D01*
X984394Y837506D01*
X982661Y839078D01*
X980782Y840471D01*
X978775Y841674D01*
X976661Y842674D01*
X974458Y843462D01*
X972189Y844031D01*
X969874Y844374D01*
X967538Y844489D01*
D02*
G37*
G36*
X46138D02*
X43801Y844374D01*
X41487Y844031D01*
X39218Y843462D01*
X37015Y842674D01*
X34900Y841674D01*
X32894Y840471D01*
X31015Y839078D01*
X29281Y837506D01*
X27710Y835773D01*
X26317Y833894D01*
X25114Y831887D01*
X24114Y829773D01*
X23326Y827570D01*
X22757Y825301D01*
X22414Y822987D01*
X22299Y820650D01*
X22414Y818313D01*
X22757Y815999D01*
X23326Y813730D01*
X24114Y811527D01*
X25114Y809412D01*
X26317Y807406D01*
X27710Y805527D01*
X29281Y803793D01*
X31015Y802222D01*
X32894Y800829D01*
X34900Y799626D01*
X37015Y798626D01*
X39218Y797838D01*
X41487Y797269D01*
X43801Y796926D01*
X46138Y796811D01*
X48474Y796926D01*
X50789Y797269D01*
X53058Y797838D01*
X55261Y798626D01*
X57375Y799626D01*
X59382Y800829D01*
X61261Y802222D01*
X62994Y803793D01*
X64566Y805527D01*
X65959Y807406D01*
X67162Y809412D01*
X68162Y811527D01*
X68950Y813730D01*
X69518Y815999D01*
X69862Y818313D01*
X69977Y820650D01*
X69862Y822987D01*
X69518Y825301D01*
X68950Y827570D01*
X68162Y829773D01*
X67162Y831887D01*
X65959Y833894D01*
X64566Y835773D01*
X62994Y837506D01*
X61261Y839078D01*
X59382Y840471D01*
X57375Y841674D01*
X55261Y842674D01*
X53058Y843462D01*
X50789Y844031D01*
X48474Y844374D01*
X46138Y844489D01*
D02*
G37*
G36*
X241605Y780408D02*
X240290D01*
X238986Y780236D01*
X237716Y779896D01*
X236501Y779393D01*
X235362Y778735D01*
X234318Y777934D01*
X233388Y777004D01*
X232588Y775961D01*
X231930Y774822D01*
X231427Y773607D01*
X231086Y772337D01*
X230915Y771033D01*
Y769717D01*
X231086Y768413D01*
X231427Y767143D01*
X231930Y765928D01*
X232588Y764789D01*
X233388Y763746D01*
X234318Y762816D01*
X235362Y762015D01*
X236501Y761357D01*
X237716Y760854D01*
X238986Y760514D01*
X240290Y760342D01*
X241605D01*
X242909Y760514D01*
X244179Y760854D01*
X245395Y761357D01*
X246534Y762015D01*
X247577Y762816D01*
X248507Y763746D01*
X249308Y764789D01*
X249965Y765928D01*
X250469Y767143D01*
X250809Y768413D01*
X250981Y769717D01*
Y771033D01*
X250809Y772337D01*
X250469Y773607D01*
X249965Y774822D01*
X249308Y775961D01*
X248507Y777004D01*
X247577Y777934D01*
X246534Y778735D01*
X245395Y779393D01*
X244179Y779896D01*
X242909Y780236D01*
X241605Y780408D01*
D02*
G37*
G36*
X893477Y818056D02*
X863397D01*
Y787476D01*
X864880D01*
X865719Y784936D01*
X865176Y784534D01*
X863599Y783104D01*
X862170Y781527D01*
X860902Y779817D01*
X859807Y777991D01*
X858897Y776067D01*
X858180Y774063D01*
X857663Y771998D01*
X857350Y769892D01*
X857246Y767766D01*
X857350Y765640D01*
X857663Y763534D01*
X858180Y761469D01*
X858813Y759699D01*
X858214Y758503D01*
X857040Y757451D01*
X854971Y757723D01*
X852437Y757834D01*
X849904Y757723D01*
X847390Y757392D01*
X844914Y756843D01*
X842496Y756081D01*
X840153Y755110D01*
X837904Y753939D01*
X835765Y752577D01*
X833753Y751033D01*
X831883Y749320D01*
X830170Y747450D01*
X828627Y745439D01*
X827264Y743300D01*
X826093Y741051D01*
X825123Y738708D01*
X824360Y736289D01*
X823811Y733814D01*
X823480Y731300D01*
X823370Y728766D01*
X823480Y726233D01*
X823811Y723718D01*
X824360Y721243D01*
X825123Y718824D01*
X826093Y716481D01*
X827264Y714232D01*
X828627Y712094D01*
X830170Y710082D01*
X831883Y708212D01*
X833753Y706499D01*
X835765Y704955D01*
X837904Y703593D01*
X840153Y702422D01*
X842496Y701451D01*
X844914Y700689D01*
X847390Y700140D01*
X849904Y699809D01*
X852437Y699698D01*
X854971Y699809D01*
X857485Y700140D01*
X859961Y700689D01*
X862379Y701451D01*
X864722Y702422D01*
X866971Y703593D01*
X869110Y704955D01*
X871122Y706499D01*
X872991Y708212D01*
X874705Y710082D01*
X876248Y712094D01*
X877611Y714232D01*
X878782Y716481D01*
X879752Y718824D01*
X880515Y721243D01*
X881064Y723718D01*
X881395Y726233D01*
X881505Y728766D01*
X881395Y731300D01*
X881064Y733814D01*
X880515Y736289D01*
X879752Y738708D01*
X878782Y741051D01*
X877611Y743300D01*
X877416Y743606D01*
X878852Y746079D01*
X878937Y746075D01*
X881064Y746179D01*
X883169Y746491D01*
X885234Y747009D01*
X887238Y747726D01*
X889163Y748636D01*
X890989Y749730D01*
X892698Y750998D01*
X894276Y752428D01*
X895705Y754005D01*
X896973Y755715D01*
X898068Y757541D01*
X898978Y759465D01*
X899695Y761469D01*
X900212Y763534D01*
X900525Y765640D01*
X900629Y767766D01*
X900525Y769892D01*
X900212Y771998D01*
X899695Y774063D01*
X898978Y776067D01*
X898068Y777991D01*
X896973Y779817D01*
X895705Y781527D01*
X894276Y783104D01*
X892698Y784534D01*
X892156Y784936D01*
X892995Y787476D01*
X893477D01*
Y818056D01*
D02*
G37*
G36*
X698780Y818204D02*
X668700D01*
Y787624D01*
X670183D01*
X671022Y785084D01*
X670479Y784682D01*
X668902Y783252D01*
X667473Y781675D01*
X666205Y779965D01*
X665110Y778139D01*
X664200Y776215D01*
X663483Y774211D01*
X662966Y772146D01*
X662653Y770040D01*
X662549Y767914D01*
X662653Y765788D01*
X662966Y763682D01*
X663483Y761617D01*
X664200Y759613D01*
X664627Y758710D01*
X662982Y756524D01*
X662916Y756488D01*
X662614Y756554D01*
X660186Y756874D01*
X657740Y756981D01*
X655294Y756874D01*
X652867Y756554D01*
X650476Y756024D01*
X648141Y755288D01*
X645879Y754351D01*
X643707Y753221D01*
X641642Y751905D01*
X639699Y750415D01*
X637894Y748760D01*
X636240Y746955D01*
X634749Y745013D01*
X633810Y743538D01*
X631287Y744185D01*
X631270Y744195D01*
Y748450D01*
X631152Y749348D01*
X630805Y750184D01*
X630254Y750903D01*
X625203Y755953D01*
X624485Y756505D01*
X623648Y756852D01*
X622750Y756970D01*
X622225D01*
Y765040D01*
X608945D01*
Y765040D01*
X607225D01*
X606602Y767580D01*
X606648Y767808D01*
Y768899D01*
X606435Y769970D01*
X606017Y770978D01*
X605411Y771885D01*
X604639Y772657D01*
X603732Y773263D01*
X602724Y773681D01*
X601653Y773894D01*
X600562D01*
X599492Y773681D01*
X598483Y773263D01*
X597576Y772657D01*
X596804Y771885D01*
X596198Y770978D01*
X595780Y769970D01*
X595568Y768899D01*
Y767808D01*
X595613Y767580D01*
X595282Y767026D01*
X593945Y765040D01*
X593945Y765040D01*
X593945Y765040D01*
Y746562D01*
X592835D01*
X592172Y746475D01*
X591554Y746219D01*
X591023Y745811D01*
X590616Y745281D01*
X590360Y744663D01*
X590273Y744000D01*
Y709500D01*
X590360Y708837D01*
X590616Y708219D01*
X591023Y707688D01*
X591554Y707281D01*
X592172Y707025D01*
X592835Y706938D01*
X593945D01*
Y688460D01*
X596756D01*
Y653665D01*
X596830Y652918D01*
X597048Y652200D01*
X597402Y651538D01*
X597878Y650958D01*
X611006Y637829D01*
Y568040D01*
X608195D01*
Y568040D01*
X606475D01*
X605592Y570525D01*
Y571617D01*
X605379Y572687D01*
X604961Y573695D01*
X604355Y574603D01*
X603583Y575374D01*
X602676Y575980D01*
X601668Y576398D01*
X600597Y576611D01*
X599506D01*
X598436Y576398D01*
X597428Y575980D01*
X596520Y575374D01*
X595749Y574603D01*
X595142Y573695D01*
X594725Y572687D01*
X594512Y571617D01*
Y570525D01*
X593195Y568040D01*
X593195D01*
Y549562D01*
X592085D01*
X591422Y549475D01*
X590804Y549219D01*
X590273Y548812D01*
X589866Y548281D01*
X589610Y547663D01*
X589523Y547000D01*
Y512500D01*
X589610Y511837D01*
X589866Y511219D01*
X590273Y510688D01*
X590804Y510281D01*
X591422Y510025D01*
X592085Y509938D01*
X593195D01*
Y491460D01*
X596006D01*
Y472915D01*
X596080Y472168D01*
X596298Y471450D01*
X596652Y470788D01*
X597128Y470208D01*
X612119Y455216D01*
Y370740D01*
X609308D01*
Y370740D01*
X607588D01*
X606526Y373103D01*
Y374194D01*
X606313Y375265D01*
X605896Y376273D01*
X605289Y377180D01*
X604518Y377952D01*
X603610Y378558D01*
X602602Y378976D01*
X601532Y379189D01*
X600440D01*
X599370Y378976D01*
X598362Y378558D01*
X597454Y377952D01*
X596683Y377180D01*
X596077Y376273D01*
X595659Y375265D01*
X595446Y374194D01*
Y373103D01*
X594308Y370740D01*
X594308D01*
Y352262D01*
X593198D01*
X592535Y352174D01*
X591917Y351918D01*
X591386Y351511D01*
X590979Y350981D01*
X590723Y350363D01*
X590636Y349700D01*
Y315200D01*
X590723Y314537D01*
X590979Y313919D01*
X591386Y313388D01*
X591917Y312981D01*
X592535Y312725D01*
X593198Y312638D01*
X594308D01*
Y294160D01*
X596922D01*
Y261750D01*
X596995Y261003D01*
X597213Y260285D01*
X597567Y259623D01*
X598043Y259043D01*
X611946Y245139D01*
Y175540D01*
X608695D01*
Y175540D01*
X606975D01*
X605953Y177910D01*
Y179001D01*
X605740Y180071D01*
X605323Y181079D01*
X604716Y181987D01*
X603945Y182758D01*
X603037Y183365D01*
X602029Y183782D01*
X600959Y183995D01*
X599868D01*
X598797Y183782D01*
X597789Y183365D01*
X596882Y182758D01*
X596110Y181987D01*
X595504Y181079D01*
X595086Y180071D01*
X594873Y179001D01*
Y177910D01*
X593695Y175540D01*
X593695D01*
Y157062D01*
X592585D01*
X591922Y156975D01*
X591304Y156719D01*
X590773Y156312D01*
X590366Y155781D01*
X590110Y155163D01*
X590023Y154500D01*
Y120000D01*
X590110Y119337D01*
X590366Y118719D01*
X590773Y118188D01*
X591304Y117781D01*
X591922Y117525D01*
X592585Y117438D01*
X593695D01*
Y98960D01*
X593695D01*
X594506Y96420D01*
X590664Y92578D01*
X567836D01*
X549078Y111336D01*
Y189287D01*
X549005Y190034D01*
X548787Y190752D01*
X548433Y191414D01*
X547957Y191994D01*
X497360Y242591D01*
Y293785D01*
X499095Y294608D01*
X499901Y294674D01*
X501129Y293318D01*
X502706Y291888D01*
X504260Y290736D01*
X504282Y290420D01*
X503134Y288196D01*
X502177D01*
Y257616D01*
X532257D01*
Y288196D01*
X529801D01*
X528653Y290420D01*
X528675Y290736D01*
X530228Y291888D01*
X531806Y293318D01*
X533235Y294895D01*
X534503Y296605D01*
X535598Y298431D01*
X536508Y300355D01*
X537225Y302359D01*
X537742Y304424D01*
X538055Y306530D01*
X538159Y308656D01*
X538055Y310782D01*
X537742Y312888D01*
X537225Y314953D01*
X536508Y316957D01*
X535598Y318881D01*
X534503Y320707D01*
X533235Y322417D01*
X531806Y323994D01*
X530228Y325424D01*
X528519Y326692D01*
X526693Y327786D01*
X524768Y328696D01*
X522764Y329413D01*
X520699Y329931D01*
X518594Y330243D01*
X516467Y330348D01*
X514341Y330243D01*
X512973Y330040D01*
X511770Y332141D01*
X511720Y332379D01*
X521957Y342617D01*
X522433Y343197D01*
X522787Y343859D01*
X523005Y344577D01*
X523078Y345324D01*
Y437985D01*
X523005Y438732D01*
X522787Y439450D01*
X522433Y440112D01*
X521957Y440692D01*
X509630Y453019D01*
X510602Y455366D01*
X532257D01*
Y485946D01*
X529801D01*
X528653Y488170D01*
X528675Y488486D01*
X530228Y489638D01*
X531806Y491068D01*
X533235Y492645D01*
X534503Y494355D01*
X535598Y496181D01*
X536508Y498105D01*
X537225Y500109D01*
X537742Y502174D01*
X538054Y504280D01*
X538159Y506406D01*
X538054Y508532D01*
X537742Y510638D01*
X537225Y512703D01*
X536508Y514707D01*
X535598Y516631D01*
X534503Y518457D01*
X533235Y520167D01*
X531806Y521744D01*
X530228Y523174D01*
X528519Y524442D01*
X526693Y525536D01*
X524768Y526446D01*
X522764Y527164D01*
X520699Y527681D01*
X518594Y527993D01*
X516467Y528097D01*
X514341Y527993D01*
X512973Y527790D01*
X511770Y529891D01*
X511720Y530130D01*
X516610Y535019D01*
X517086Y535600D01*
X517440Y536261D01*
X517658Y536980D01*
X517731Y537727D01*
Y635356D01*
X517658Y636103D01*
X517440Y636821D01*
X517086Y637483D01*
X516610Y638063D01*
X504324Y650349D01*
X505295Y652696D01*
X531427D01*
Y683276D01*
X528971D01*
X527823Y685500D01*
X527845Y685816D01*
X529398Y686968D01*
X530976Y688398D01*
X532405Y689975D01*
X533673Y691685D01*
X534768Y693511D01*
X535678Y695435D01*
X536395Y697439D01*
X536912Y699504D01*
X537225Y701610D01*
X537329Y703736D01*
X537225Y705862D01*
X536912Y707968D01*
X536395Y710033D01*
X535678Y712037D01*
X534768Y713961D01*
X533673Y715787D01*
X532405Y717497D01*
X530976Y719074D01*
X529398Y720504D01*
X527689Y721772D01*
X525863Y722866D01*
X523938Y723776D01*
X521934Y724493D01*
X519869Y725011D01*
X517764Y725323D01*
X515637Y725427D01*
X513511Y725323D01*
X511406Y725011D01*
X509341Y724493D01*
X507337Y723776D01*
X505412Y722866D01*
X503586Y721772D01*
X501876Y720504D01*
X500299Y719074D01*
X498870Y717497D01*
X497602Y715787D01*
X496507Y713961D01*
X495597Y712037D01*
X494880Y710033D01*
X494363Y707968D01*
X494050Y705862D01*
X493946Y703736D01*
X494050Y701610D01*
X494363Y699504D01*
X494880Y697439D01*
X495597Y695435D01*
X496507Y693511D01*
X497602Y691685D01*
X498870Y689975D01*
X500299Y688398D01*
X501876Y686968D01*
X503430Y685816D01*
X503452Y685500D01*
X502304Y683276D01*
X501347D01*
Y656644D01*
X499001Y655672D01*
X457080Y697593D01*
X458352Y699913D01*
X458590Y699860D01*
X461104Y699529D01*
X463637Y699418D01*
X466171Y699529D01*
X468685Y699860D01*
X471161Y700409D01*
X473579Y701171D01*
X475922Y702142D01*
X478171Y703313D01*
X480310Y704675D01*
X482322Y706219D01*
X484191Y707932D01*
X485905Y709802D01*
X487448Y711814D01*
X488811Y713952D01*
X489982Y716201D01*
X490952Y718544D01*
X491715Y720963D01*
X492263Y723438D01*
X492594Y725953D01*
X492705Y728486D01*
X492594Y731020D01*
X492263Y733534D01*
X491715Y736009D01*
X490952Y738428D01*
X489982Y740771D01*
X488811Y743020D01*
X488616Y743326D01*
X490052Y745799D01*
X490137Y745795D01*
X492264Y745899D01*
X494369Y746211D01*
X496434Y746729D01*
X498438Y747446D01*
X500363Y748356D01*
X502189Y749450D01*
X503898Y750718D01*
X505476Y752148D01*
X506905Y753725D01*
X508173Y755435D01*
X509268Y757261D01*
X510178Y759185D01*
X510895Y761189D01*
X511412Y763254D01*
X511725Y765360D01*
X511829Y767486D01*
X511725Y769612D01*
X511412Y771718D01*
X510895Y773783D01*
X510178Y775787D01*
X509268Y777711D01*
X508173Y779537D01*
X506905Y781247D01*
X505476Y782824D01*
X503898Y784254D01*
X503356Y784656D01*
X504195Y787196D01*
X504677D01*
Y817776D01*
X474597D01*
Y787196D01*
X476080D01*
X476919Y784656D01*
X476376Y784254D01*
X474799Y782824D01*
X473370Y781247D01*
X472102Y779537D01*
X471007Y777711D01*
X470097Y775787D01*
X469380Y773783D01*
X468863Y771718D01*
X468550Y769612D01*
X468446Y767486D01*
X468550Y765360D01*
X468863Y763254D01*
X469380Y761189D01*
X470013Y759419D01*
X469414Y758223D01*
X468240Y757171D01*
X466171Y757443D01*
X463637Y757554D01*
X461104Y757443D01*
X458590Y757112D01*
X456114Y756563D01*
X453696Y755801D01*
X451353Y754830D01*
X449104Y753659D01*
X446965Y752297D01*
X444953Y750753D01*
X443083Y749040D01*
X441370Y747170D01*
X439827Y745159D01*
X439696Y744953D01*
X437156Y745694D01*
Y748673D01*
X437082Y749419D01*
X436865Y750138D01*
X436511Y750800D01*
X436035Y751380D01*
X431207Y756207D01*
X430627Y756683D01*
X429965Y757037D01*
X429247Y757255D01*
X428500Y757328D01*
X428225D01*
Y765040D01*
X414945D01*
Y765040D01*
X413225D01*
X412514Y766716D01*
X412318Y767580D01*
X412476Y768377D01*
Y769469D01*
X412263Y770539D01*
X411846Y771547D01*
X411239Y772455D01*
X410468Y773226D01*
X409560Y773832D01*
X408552Y774250D01*
X407482Y774463D01*
X406390D01*
X405320Y774250D01*
X404312Y773832D01*
X403405Y773226D01*
X402633Y772455D01*
X402027Y771547D01*
X401609Y770539D01*
X401396Y769469D01*
Y768377D01*
X401555Y767580D01*
X401440Y767073D01*
X399984Y765064D01*
X399945Y765040D01*
Y746562D01*
X398835D01*
X398172Y746475D01*
X397554Y746219D01*
X397023Y745811D01*
X396616Y745281D01*
X396360Y744663D01*
X396273Y744000D01*
Y709500D01*
X396360Y708837D01*
X396616Y708219D01*
X397023Y707688D01*
X397554Y707281D01*
X398172Y707025D01*
X398835Y706938D01*
X399945D01*
Y688460D01*
X402756D01*
Y682250D01*
X402830Y681503D01*
X403048Y680785D01*
X403402Y680123D01*
X403878Y679543D01*
X418369Y665051D01*
Y567990D01*
X415558D01*
Y567990D01*
X413838D01*
X413050Y570530D01*
X413154Y571052D01*
Y572143D01*
X412941Y573213D01*
X412523Y574221D01*
X411917Y575129D01*
X411145Y575900D01*
X410238Y576507D01*
X409230Y576924D01*
X408159Y577137D01*
X407068D01*
X405998Y576924D01*
X404990Y576507D01*
X404082Y575900D01*
X403311Y575129D01*
X402704Y574221D01*
X402287Y573213D01*
X402074Y572143D01*
Y571052D01*
X402178Y570530D01*
X401880Y569982D01*
X400558Y567990D01*
X400558Y567990D01*
X400558Y567990D01*
Y549512D01*
X399448D01*
X398785Y549425D01*
X398167Y549169D01*
X397636Y548761D01*
X397229Y548231D01*
X396973Y547613D01*
X396886Y546950D01*
Y512450D01*
X396973Y511787D01*
X397229Y511169D01*
X397636Y510638D01*
X398167Y510231D01*
X398785Y509975D01*
X399448Y509888D01*
X400558D01*
Y491410D01*
X403280D01*
Y487750D01*
X403399Y486852D01*
X403745Y486015D01*
X404296Y485297D01*
X418865Y470728D01*
Y370790D01*
X415695D01*
Y370790D01*
X413975D01*
X412535Y372733D01*
X412248Y373330D01*
X412351Y373580D01*
X412564Y374651D01*
Y375742D01*
X412351Y376812D01*
X411934Y377821D01*
X411328Y378728D01*
X410556Y379500D01*
X409649Y380106D01*
X408640Y380523D01*
X407570Y380736D01*
X406479D01*
X405408Y380523D01*
X404400Y380106D01*
X403493Y379500D01*
X402721Y378728D01*
X402115Y377821D01*
X401697Y376812D01*
X401484Y375742D01*
Y374651D01*
X401697Y373580D01*
X401801Y373330D01*
X400695Y370790D01*
X400695D01*
Y352312D01*
X399585D01*
X398922Y352225D01*
X398304Y351969D01*
X397773Y351562D01*
X397366Y351031D01*
X397110Y350413D01*
X397023Y349750D01*
Y315250D01*
X397110Y314587D01*
X397366Y313969D01*
X397773Y313438D01*
X398304Y313031D01*
X398922Y312775D01*
X399585Y312688D01*
X400695D01*
Y294210D01*
X403422D01*
Y289500D01*
X403495Y288753D01*
X403713Y288035D01*
X404067Y287373D01*
X404543Y286793D01*
X418869Y272466D01*
Y175490D01*
X416058D01*
Y175490D01*
X414338D01*
X412535Y177269D01*
X412423Y177605D01*
X412344Y178030D01*
X412910Y178876D01*
X413327Y179884D01*
X413540Y180954D01*
Y182046D01*
X413327Y183116D01*
X412910Y184124D01*
X412303Y185032D01*
X411531Y185803D01*
X410624Y186409D01*
X409616Y186827D01*
X408546Y187040D01*
X407454D01*
X406384Y186827D01*
X405376Y186409D01*
X404468Y185803D01*
X403697Y185032D01*
X403091Y184124D01*
X402673Y183116D01*
X402460Y182046D01*
Y180954D01*
X402673Y179884D01*
X403091Y178876D01*
X403656Y178030D01*
X403577Y177605D01*
X402877Y175490D01*
X401058D01*
Y157012D01*
X399948D01*
X399285Y156924D01*
X398667Y156669D01*
X398136Y156261D01*
X397729Y155731D01*
X397473Y155113D01*
X397386Y154450D01*
Y119950D01*
X397473Y119287D01*
X397729Y118669D01*
X398136Y118138D01*
X398667Y117731D01*
X399285Y117475D01*
X399948Y117388D01*
X401058D01*
Y98910D01*
X401058D01*
X401625Y97540D01*
X389414Y85329D01*
X381506D01*
X381031Y85803D01*
X380124Y86410D01*
X379116Y86827D01*
X378046Y87040D01*
X376954D01*
X375884Y86827D01*
X374876Y86410D01*
X373969Y85803D01*
X373197Y85032D01*
X372590Y84124D01*
X372173Y83116D01*
X371960Y82046D01*
Y80954D01*
X372173Y79884D01*
X372590Y78876D01*
X373197Y77969D01*
X373969Y77197D01*
X374876Y76591D01*
X375884Y76173D01*
X376954Y75960D01*
X378046D01*
X379116Y76173D01*
X380124Y76591D01*
X381031Y77197D01*
X381506Y77672D01*
X391000D01*
X391747Y77745D01*
X392465Y77963D01*
X393127Y78317D01*
X393707Y78793D01*
X410405Y95491D01*
X410881Y96071D01*
X411235Y96733D01*
X411453Y97451D01*
X411526Y98198D01*
Y98910D01*
X414338D01*
Y98910D01*
X416058D01*
Y98910D01*
X421428D01*
Y110450D01*
X422698D01*
Y111720D01*
X429338D01*
Y117388D01*
X430448D01*
X431111Y117475D01*
X431729Y117731D01*
X432259Y118138D01*
X432667Y118669D01*
X432923Y119287D01*
X433010Y119950D01*
Y154450D01*
X432923Y155113D01*
X432667Y155731D01*
X432259Y156261D01*
X431729Y156669D01*
X431111Y156924D01*
X430448Y157012D01*
X429338D01*
Y175490D01*
X426526D01*
Y274052D01*
X426453Y274799D01*
X426235Y275517D01*
X425881Y276179D01*
X425405Y276759D01*
X411078Y291086D01*
Y294210D01*
X413975D01*
Y294210D01*
X415695D01*
Y294210D01*
X421065D01*
Y305750D01*
X422335D01*
Y307020D01*
X428975D01*
Y312688D01*
X430085D01*
X430748Y312775D01*
X431366Y313031D01*
X431896Y313438D01*
X432304Y313969D01*
X432560Y314587D01*
X432647Y315250D01*
Y349750D01*
X432560Y350413D01*
X432304Y351031D01*
X431896Y351562D01*
X431366Y351969D01*
X430748Y352225D01*
X430085Y352312D01*
X428975D01*
Y370790D01*
X425805D01*
Y472165D01*
X425686Y473063D01*
X425340Y473900D01*
X424788Y474618D01*
X410537Y488870D01*
X410986Y491410D01*
X413838D01*
Y491410D01*
X415558D01*
Y491410D01*
X420928D01*
Y502950D01*
X422198D01*
Y504220D01*
X428838D01*
Y509888D01*
X429948D01*
X430611Y509975D01*
X431229Y510231D01*
X431759Y510638D01*
X432167Y511169D01*
X432422Y511787D01*
X432510Y512450D01*
Y546950D01*
X432422Y547613D01*
X432167Y548231D01*
X431759Y548761D01*
X431229Y549169D01*
X430611Y549425D01*
X429948Y549512D01*
X428838D01*
Y567990D01*
X426026D01*
Y666637D01*
X425953Y667384D01*
X425735Y668102D01*
X425381Y668764D01*
X424905Y669344D01*
X410413Y683836D01*
Y688460D01*
X413225D01*
Y688460D01*
X414945D01*
Y688460D01*
X420315D01*
Y700000D01*
X421585D01*
Y701270D01*
X428225D01*
Y706938D01*
X429335D01*
X429998Y707025D01*
X430616Y707281D01*
X431146Y707688D01*
X431554Y708219D01*
X431694Y708558D01*
X433030Y709171D01*
X434320Y709525D01*
X510074Y633770D01*
Y585027D01*
X508340Y584204D01*
X507534Y584139D01*
X506306Y585494D01*
X504728Y586924D01*
X504186Y587326D01*
X505025Y589866D01*
X505507D01*
Y620446D01*
X475427D01*
Y589866D01*
X476910D01*
X477749Y587326D01*
X477206Y586924D01*
X475629Y585494D01*
X474200Y583917D01*
X472932Y582207D01*
X471837Y580381D01*
X470927Y578457D01*
X470210Y576453D01*
X469693Y574388D01*
X469380Y572282D01*
X469276Y570156D01*
X469380Y568030D01*
X469693Y565924D01*
X470210Y563859D01*
X470843Y562089D01*
X470244Y560893D01*
X469070Y559841D01*
X467001Y560113D01*
X464467Y560224D01*
X461934Y560113D01*
X459420Y559782D01*
X456944Y559233D01*
X454526Y558471D01*
X452183Y557500D01*
X449934Y556329D01*
X447795Y554967D01*
X445783Y553423D01*
X443913Y551710D01*
X442200Y549840D01*
X440657Y547828D01*
X439294Y545690D01*
X438123Y543441D01*
X437153Y541098D01*
X436390Y538679D01*
X435841Y536204D01*
X435510Y533689D01*
X435400Y531156D01*
X435510Y528623D01*
X435841Y526109D01*
X436390Y523633D01*
X437153Y521214D01*
X438123Y518871D01*
X439294Y516622D01*
X440657Y514483D01*
X442200Y512472D01*
X443913Y510602D01*
X445783Y508889D01*
X447795Y507345D01*
X449934Y505983D01*
X452183Y504812D01*
X454526Y503841D01*
X456944Y503079D01*
X459420Y502530D01*
X461934Y502199D01*
X464467Y502088D01*
X467001Y502199D01*
X469515Y502530D01*
X471991Y503079D01*
X474409Y503841D01*
X476752Y504812D01*
X479001Y505983D01*
X481140Y507345D01*
X483152Y508889D01*
X485021Y510602D01*
X486735Y512472D01*
X487164Y513031D01*
X489704Y512169D01*
Y463703D01*
X489777Y462956D01*
X489995Y462238D01*
X490349Y461576D01*
X490825Y460996D01*
X515421Y436399D01*
Y346909D01*
X495360Y326848D01*
X493041Y328121D01*
X493093Y328358D01*
X493424Y330873D01*
X493535Y333406D01*
X493424Y335939D01*
X493093Y338454D01*
X492545Y340929D01*
X491782Y343348D01*
X490812Y345690D01*
X489641Y347940D01*
X489446Y348246D01*
X490882Y350719D01*
X490967Y350714D01*
X493094Y350819D01*
X495199Y351131D01*
X497264Y351649D01*
X499268Y352366D01*
X501193Y353276D01*
X503019Y354370D01*
X504728Y355638D01*
X506306Y357068D01*
X507735Y358645D01*
X509003Y360355D01*
X510098Y362181D01*
X511008Y364105D01*
X511725Y366109D01*
X512242Y368174D01*
X512554Y370280D01*
X512659Y372406D01*
X512554Y374532D01*
X512242Y376638D01*
X511725Y378703D01*
X511008Y380707D01*
X510098Y382631D01*
X509003Y384457D01*
X507735Y386167D01*
X506306Y387744D01*
X504728Y389174D01*
X504186Y389576D01*
X505025Y392116D01*
X505507D01*
Y422696D01*
X475427D01*
Y392116D01*
X476910D01*
X477749Y389576D01*
X477206Y389174D01*
X475629Y387744D01*
X474200Y386167D01*
X472932Y384457D01*
X471837Y382631D01*
X470927Y380707D01*
X470210Y378703D01*
X469693Y376638D01*
X469380Y374532D01*
X469276Y372406D01*
X469380Y370280D01*
X469693Y368174D01*
X470210Y366109D01*
X470843Y364339D01*
X470244Y363143D01*
X469070Y362091D01*
X467001Y362363D01*
X464467Y362474D01*
X461934Y362363D01*
X459420Y362032D01*
X456944Y361483D01*
X454526Y360721D01*
X452183Y359750D01*
X449934Y358579D01*
X447795Y357217D01*
X445783Y355673D01*
X443913Y353960D01*
X442200Y352090D01*
X440657Y350079D01*
X439294Y347940D01*
X438123Y345690D01*
X437153Y343348D01*
X436390Y340929D01*
X435841Y338454D01*
X435510Y335939D01*
X435400Y333406D01*
X435510Y330873D01*
X435841Y328358D01*
X436390Y325883D01*
X437153Y323464D01*
X438123Y321121D01*
X439294Y318872D01*
X440657Y316733D01*
X442200Y314722D01*
X443913Y312852D01*
X445783Y311139D01*
X447795Y309595D01*
X449934Y308233D01*
X452183Y307062D01*
X454526Y306091D01*
X456944Y305329D01*
X459420Y304780D01*
X461934Y304449D01*
X464467Y304338D01*
X467001Y304449D01*
X469515Y304780D01*
X471991Y305329D01*
X474409Y306091D01*
X476752Y307062D01*
X479001Y308233D01*
X481140Y309595D01*
X483152Y311139D01*
X485021Y312852D01*
X486735Y314722D01*
X487164Y315281D01*
X489704Y314419D01*
Y241005D01*
X489777Y240258D01*
X489995Y239540D01*
X490349Y238878D01*
X490825Y238298D01*
X499330Y229793D01*
X498358Y227446D01*
X475427D01*
Y196866D01*
X476910D01*
X477749Y194326D01*
X477206Y193924D01*
X475629Y192494D01*
X474200Y190917D01*
X472932Y189207D01*
X471837Y187381D01*
X470927Y185457D01*
X470210Y183453D01*
X469693Y181388D01*
X469380Y179282D01*
X469276Y177156D01*
X469380Y175030D01*
X469693Y172924D01*
X470210Y170859D01*
X470822Y169149D01*
X470435Y168284D01*
X469053Y166876D01*
X467251Y167113D01*
X464717Y167224D01*
X462184Y167113D01*
X459670Y166782D01*
X457194Y166233D01*
X454776Y165471D01*
X452433Y164500D01*
X450184Y163329D01*
X448045Y161967D01*
X446033Y160423D01*
X444164Y158710D01*
X442450Y156840D01*
X440907Y154829D01*
X439544Y152690D01*
X438373Y150441D01*
X437403Y148098D01*
X436640Y145679D01*
X436091Y143203D01*
X435760Y140689D01*
X435650Y138156D01*
X435760Y135623D01*
X436091Y133108D01*
X436640Y130633D01*
X437403Y128214D01*
X438373Y125871D01*
X439544Y123622D01*
X440907Y121483D01*
X442450Y119472D01*
X444164Y117602D01*
X446033Y115889D01*
X448045Y114345D01*
X450184Y112983D01*
X452433Y111812D01*
X454776Y110841D01*
X457194Y110079D01*
X459670Y109530D01*
X462184Y109199D01*
X464717Y109088D01*
X467251Y109199D01*
X469765Y109530D01*
X472241Y110079D01*
X474659Y110841D01*
X477002Y111812D01*
X479251Y112983D01*
X481390Y114345D01*
X483402Y115889D01*
X485271Y117602D01*
X486984Y119472D01*
X488528Y121483D01*
X489891Y123622D01*
X491062Y125871D01*
X492032Y128214D01*
X492795Y130633D01*
X493344Y133108D01*
X493675Y135623D01*
X493785Y138156D01*
X493675Y140689D01*
X493344Y143203D01*
X492795Y145679D01*
X492032Y148098D01*
X491062Y150441D01*
X489891Y152690D01*
X489704Y152984D01*
X490781Y155099D01*
X491130Y155472D01*
X493093Y155569D01*
X495199Y155881D01*
X497264Y156398D01*
X499268Y157116D01*
X501193Y158026D01*
X503018Y159120D01*
X504728Y160388D01*
X506306Y161818D01*
X507735Y163395D01*
X509003Y165105D01*
X510098Y166931D01*
X511008Y168855D01*
X511725Y170859D01*
X512242Y172924D01*
X512554Y175030D01*
X512659Y177156D01*
X512554Y179282D01*
X512242Y181388D01*
X511725Y183453D01*
X511008Y185457D01*
X510098Y187381D01*
X509003Y189207D01*
X507735Y190917D01*
X506306Y192494D01*
X504728Y193924D01*
X504186Y194326D01*
X505025Y196866D01*
X505507D01*
Y220297D01*
X507854Y221269D01*
X541422Y187701D01*
Y109750D01*
X541495Y109003D01*
X541713Y108285D01*
X542067Y107623D01*
X542543Y107043D01*
X563543Y86043D01*
X564123Y85567D01*
X564785Y85213D01*
X565503Y84995D01*
X566250Y84922D01*
X592250D01*
X592997Y84995D01*
X593715Y85213D01*
X594377Y85567D01*
X594957Y86043D01*
X603042Y94128D01*
X603518Y94708D01*
X603872Y95370D01*
X604090Y96088D01*
X604163Y96835D01*
Y98960D01*
X606975D01*
Y98960D01*
X608695D01*
Y98960D01*
X614065D01*
Y110500D01*
X615335D01*
Y111770D01*
X621975D01*
Y117438D01*
X623085D01*
X623748Y117525D01*
X624366Y117781D01*
X624896Y118188D01*
X625304Y118719D01*
X625560Y119337D01*
X625647Y120000D01*
Y154500D01*
X625560Y155163D01*
X625304Y155781D01*
X624896Y156312D01*
X624366Y156719D01*
X623748Y156975D01*
X623085Y157062D01*
X621975D01*
Y175540D01*
X619603D01*
Y246725D01*
X619530Y247472D01*
X619312Y248190D01*
X618958Y248852D01*
X618482Y249432D01*
X604578Y263336D01*
Y294160D01*
X607588D01*
Y294160D01*
X609308D01*
Y294160D01*
X614678D01*
Y305700D01*
X615948D01*
Y306970D01*
X622588D01*
Y312638D01*
X623698D01*
X624361Y312725D01*
X624979Y312981D01*
X625509Y313388D01*
X625917Y313919D01*
X626172Y314537D01*
X626260Y315200D01*
Y349700D01*
X626172Y350363D01*
X625917Y350981D01*
X625509Y351511D01*
X624979Y351918D01*
X624361Y352174D01*
X623698Y352262D01*
X622588D01*
Y370740D01*
X619776D01*
Y456802D01*
X619703Y457549D01*
X619485Y458267D01*
X619131Y458929D01*
X618655Y459509D01*
X603663Y474501D01*
Y491460D01*
X606475D01*
Y491460D01*
X608195D01*
Y491460D01*
X613565D01*
Y503000D01*
X614835D01*
Y504270D01*
X621475D01*
Y509938D01*
X622585D01*
X623248Y510025D01*
X623866Y510281D01*
X624396Y510688D01*
X624804Y511219D01*
X625060Y511837D01*
X625147Y512500D01*
Y547000D01*
X625060Y547663D01*
X624804Y548281D01*
X624396Y548812D01*
X623866Y549219D01*
X623248Y549475D01*
X622585Y549562D01*
X621475D01*
Y568040D01*
X618663D01*
Y639415D01*
X618590Y640162D01*
X618372Y640880D01*
X618018Y641542D01*
X617542Y642122D01*
X604413Y655251D01*
Y688460D01*
X607225D01*
Y688460D01*
X608945D01*
Y688460D01*
X614315D01*
Y700000D01*
X615585D01*
Y701270D01*
X622225D01*
Y704784D01*
X624622Y705633D01*
X624795Y705215D01*
X625347Y704496D01*
X702602Y627242D01*
Y585549D01*
X700915Y584734D01*
X700062Y584658D01*
X698844Y586001D01*
X697267Y587431D01*
X696724Y587833D01*
X697564Y590373D01*
X698046D01*
Y620953D01*
X667966D01*
Y590373D01*
X669448D01*
X670287Y587833D01*
X669745Y587431D01*
X668168Y586001D01*
X666738Y584424D01*
X665470Y582714D01*
X664376Y580888D01*
X663466Y578964D01*
X662749Y576960D01*
X662231Y574895D01*
X661919Y572789D01*
X661815Y570663D01*
X661919Y568537D01*
X662231Y566431D01*
X662749Y564366D01*
X663382Y562596D01*
X662782Y561400D01*
X661609Y560348D01*
X659539Y560620D01*
X657006Y560731D01*
X654473Y560620D01*
X651958Y560289D01*
X649483Y559740D01*
X647064Y558978D01*
X644722Y558007D01*
X642472Y556836D01*
X640333Y555474D01*
X638322Y553930D01*
X636452Y552217D01*
X634739Y550347D01*
X633195Y548335D01*
X631833Y546197D01*
X630662Y543947D01*
X629691Y541605D01*
X628929Y539186D01*
X628380Y536711D01*
X628049Y534196D01*
X627938Y531663D01*
X628049Y529129D01*
X628380Y526615D01*
X628929Y524140D01*
X629691Y521721D01*
X630662Y519378D01*
X631833Y517129D01*
X633195Y514990D01*
X634739Y512979D01*
X636452Y511109D01*
X638322Y509396D01*
X640333Y507852D01*
X642472Y506490D01*
X644722Y505319D01*
X647064Y504348D01*
X649483Y503586D01*
X651958Y503037D01*
X654473Y502706D01*
X657006Y502595D01*
X659539Y502706D01*
X662054Y503037D01*
X664529Y503586D01*
X666948Y504348D01*
X668240Y504884D01*
X670780Y503490D01*
Y467500D01*
X670899Y466602D01*
X671245Y465765D01*
X671796Y465047D01*
X712530Y424313D01*
Y351034D01*
X688865Y327369D01*
X686545Y328642D01*
X686593Y328858D01*
X686925Y331372D01*
X687035Y333906D01*
X686925Y336439D01*
X686593Y338954D01*
X686045Y341429D01*
X685282Y343848D01*
X684312Y346190D01*
X683141Y348440D01*
X682945Y348746D01*
X684382Y351219D01*
X684467Y351214D01*
X686593Y351319D01*
X688699Y351631D01*
X690764Y352149D01*
X692768Y352866D01*
X694693Y353776D01*
X696518Y354870D01*
X698228Y356138D01*
X699806Y357568D01*
X701235Y359145D01*
X702503Y360855D01*
X703598Y362681D01*
X704508Y364605D01*
X705225Y366609D01*
X705742Y368674D01*
X706054Y370780D01*
X706159Y372906D01*
X706054Y375032D01*
X705742Y377138D01*
X705225Y379203D01*
X704508Y381207D01*
X703598Y383131D01*
X702503Y384957D01*
X701235Y386667D01*
X699806Y388244D01*
X698228Y389674D01*
X697686Y390076D01*
X698525Y392616D01*
X699007D01*
Y423196D01*
X668927D01*
Y392616D01*
X670410D01*
X671249Y390076D01*
X670706Y389674D01*
X669129Y388244D01*
X667700Y386667D01*
X666432Y384957D01*
X665337Y383131D01*
X664427Y381207D01*
X663710Y379203D01*
X663193Y377138D01*
X662880Y375032D01*
X662776Y372906D01*
X662880Y370780D01*
X663193Y368674D01*
X663710Y366609D01*
X664343Y364839D01*
X663744Y363643D01*
X662570Y362591D01*
X660501Y362863D01*
X657967Y362974D01*
X655434Y362863D01*
X652920Y362532D01*
X650444Y361983D01*
X648026Y361221D01*
X645683Y360250D01*
X643434Y359079D01*
X641295Y357717D01*
X639283Y356173D01*
X637413Y354460D01*
X635700Y352590D01*
X634157Y350578D01*
X632794Y348440D01*
X631623Y346190D01*
X630653Y343848D01*
X629890Y341429D01*
X629341Y338954D01*
X629010Y336439D01*
X628900Y333906D01*
X629010Y331372D01*
X629341Y328858D01*
X629890Y326383D01*
X630653Y323964D01*
X631623Y321621D01*
X632794Y319372D01*
X634157Y317233D01*
X635700Y315222D01*
X637413Y313352D01*
X639283Y311639D01*
X641295Y310095D01*
X643434Y308733D01*
X645683Y307562D01*
X648026Y306591D01*
X650444Y305829D01*
X652920Y305280D01*
X655434Y304949D01*
X657967Y304838D01*
X660501Y304949D01*
X663015Y305280D01*
X665491Y305829D01*
X667909Y306591D01*
X667990Y306625D01*
X670530Y304928D01*
Y276250D01*
X670648Y275352D01*
X670995Y274515D01*
X671547Y273797D01*
X703070Y242273D01*
Y192707D01*
X701384Y191892D01*
X700530Y191816D01*
X699313Y193159D01*
X697736Y194589D01*
X697193Y194991D01*
X698032Y197531D01*
X698515D01*
Y228111D01*
X668435D01*
Y197531D01*
X669917D01*
X670756Y194991D01*
X670214Y194589D01*
X668637Y193159D01*
X667207Y191582D01*
X665939Y189872D01*
X664845Y188046D01*
X663934Y186122D01*
X663217Y184118D01*
X662700Y182053D01*
X662388Y179947D01*
X662283Y177821D01*
X662388Y175695D01*
X662700Y173589D01*
X663217Y171525D01*
X663851Y169755D01*
X663251Y168558D01*
X662077Y167506D01*
X660008Y167778D01*
X657475Y167889D01*
X654941Y167778D01*
X652427Y167447D01*
X649951Y166898D01*
X647533Y166136D01*
X645190Y165166D01*
X642941Y163995D01*
X640802Y162632D01*
X638790Y161088D01*
X636921Y159375D01*
X635208Y157506D01*
X633664Y155494D01*
X632301Y153355D01*
X631130Y151106D01*
X630160Y148763D01*
X629398Y146344D01*
X628849Y143869D01*
X628518Y141355D01*
X628407Y138821D01*
X628518Y136288D01*
X628849Y133774D01*
X629398Y131298D01*
X630160Y128879D01*
X631130Y126537D01*
X632301Y124287D01*
X633664Y122149D01*
X635208Y120137D01*
X636921Y118267D01*
X638790Y116554D01*
X640802Y115010D01*
X642941Y113648D01*
X645190Y112477D01*
X647533Y111507D01*
X649951Y110744D01*
X652427Y110195D01*
X654941Y109864D01*
X657475Y109754D01*
X660008Y109864D01*
X662522Y110195D01*
X664998Y110744D01*
X667417Y111507D01*
X669759Y112477D01*
X672009Y113648D01*
X674147Y115010D01*
X676159Y116554D01*
X678029Y118267D01*
X679742Y120137D01*
X681286Y122149D01*
X682648Y124287D01*
X683819Y126537D01*
X684789Y128879D01*
X685552Y131298D01*
X686101Y133774D01*
X686432Y136288D01*
X686542Y138821D01*
X686432Y141355D01*
X686101Y143869D01*
X685552Y146344D01*
X684789Y148763D01*
X683819Y151106D01*
X682648Y153355D01*
X682453Y153661D01*
X683889Y156134D01*
X683975Y156130D01*
X686101Y156234D01*
X688206Y156546D01*
X690272Y157064D01*
X692276Y157781D01*
X694200Y158691D01*
X696026Y159785D01*
X697736Y161054D01*
X699313Y162483D01*
X700530Y163826D01*
X701384Y163750D01*
X703070Y162935D01*
Y157710D01*
X703188Y156812D01*
X703535Y155975D01*
X704087Y155257D01*
X752185Y107158D01*
X752904Y106606D01*
X753741Y106260D01*
X754639Y106141D01*
X754639Y106142D01*
X788558D01*
Y98910D01*
X801838D01*
Y98910D01*
X803558D01*
Y98910D01*
X808928D01*
Y110450D01*
X810198D01*
Y111720D01*
X816838D01*
Y117388D01*
X817948D01*
X818611Y117475D01*
X819229Y117731D01*
X819759Y118138D01*
X820166Y118669D01*
X820423Y119287D01*
X820510Y119950D01*
Y154450D01*
X820423Y155113D01*
X820166Y155731D01*
X819759Y156261D01*
X819229Y156669D01*
X818611Y156924D01*
X817948Y157012D01*
X816838D01*
Y175490D01*
X814026D01*
Y265552D01*
X813953Y266299D01*
X813735Y267017D01*
X813381Y267679D01*
X812905Y268259D01*
X798776Y282388D01*
Y294160D01*
X801588D01*
Y294160D01*
X803308D01*
Y294160D01*
X808678D01*
Y305700D01*
X809948D01*
Y306970D01*
X816588D01*
Y312638D01*
X817698D01*
X818361Y312725D01*
X818979Y312981D01*
X819509Y313388D01*
X819917Y313919D01*
X820173Y314537D01*
X820260Y315200D01*
Y349700D01*
X820173Y350363D01*
X819917Y350981D01*
X819509Y351511D01*
X818979Y351918D01*
X818361Y352174D01*
X817698Y352262D01*
X816588D01*
Y370740D01*
X813418D01*
Y391302D01*
X813299Y392200D01*
X812953Y393037D01*
X812401Y393756D01*
X798418Y407739D01*
Y491410D01*
X801588D01*
Y491410D01*
X803308D01*
Y491410D01*
X808678D01*
Y502950D01*
X809948D01*
Y504220D01*
X816588D01*
Y509888D01*
X817698D01*
X818361Y509975D01*
X818979Y510231D01*
X819509Y510638D01*
X819917Y511169D01*
X820173Y511787D01*
X820260Y512450D01*
Y546950D01*
X820173Y547613D01*
X819917Y548231D01*
X819509Y548761D01*
X818979Y549169D01*
X818361Y549425D01*
X817698Y549512D01*
X816588D01*
Y567990D01*
X813418D01*
Y644802D01*
X813299Y645700D01*
X812953Y646537D01*
X812401Y647256D01*
X798668Y660989D01*
Y688410D01*
X801838D01*
Y688410D01*
X803558D01*
Y688410D01*
X808928D01*
Y699950D01*
X810198D01*
Y701220D01*
X816838D01*
Y706888D01*
X817948D01*
X818611Y706975D01*
X819229Y707231D01*
X819759Y707638D01*
X820166Y708169D01*
X820423Y708787D01*
X820510Y709450D01*
Y743950D01*
X820423Y744613D01*
X820166Y745231D01*
X819759Y745761D01*
X819229Y746169D01*
X818611Y746424D01*
X817948Y746512D01*
X816838D01*
Y764990D01*
X803558D01*
Y764990D01*
X801838D01*
X801076Y767530D01*
X801218Y768242D01*
Y769333D01*
X801005Y770404D01*
X800587Y771412D01*
X799981Y772319D01*
X799209Y773091D01*
X798302Y773697D01*
X797294Y774115D01*
X796224Y774328D01*
X795132D01*
X794062Y774115D01*
X793054Y773697D01*
X792146Y773091D01*
X791375Y772319D01*
X790768Y771412D01*
X790351Y770404D01*
X790138Y769333D01*
Y768242D01*
X790280Y767530D01*
X789937Y766649D01*
X788634Y765003D01*
X788609Y764990D01*
X788558D01*
Y746512D01*
X787448D01*
X786785Y746424D01*
X786167Y746169D01*
X785636Y745761D01*
X785229Y745231D01*
X784973Y744613D01*
X784886Y743950D01*
Y709450D01*
X784973Y708787D01*
X785229Y708169D01*
X785636Y707638D01*
X786167Y707231D01*
X786785Y706975D01*
X787448Y706888D01*
X788558D01*
Y688410D01*
X791728D01*
Y659552D01*
X791846Y658654D01*
X792193Y657817D01*
X792744Y657099D01*
X806478Y643365D01*
Y567990D01*
X803308D01*
Y567990D01*
X801588D01*
X800755Y570530D01*
X800790Y570704D01*
Y571796D01*
X800577Y572866D01*
X800160Y573874D01*
X799553Y574782D01*
X798782Y575553D01*
X797874Y576160D01*
X796866Y576577D01*
X795796Y576790D01*
X794704D01*
X793634Y576577D01*
X792626Y576160D01*
X791719Y575553D01*
X790947Y574782D01*
X790340Y573874D01*
X789923Y572866D01*
X789710Y571796D01*
Y570704D01*
X789745Y570530D01*
X788308Y567990D01*
X788308D01*
Y549512D01*
X787198D01*
X786535Y549425D01*
X785917Y549169D01*
X785386Y548761D01*
X784979Y548231D01*
X784723Y547613D01*
X784636Y546950D01*
Y512450D01*
X784723Y511787D01*
X784979Y511169D01*
X785386Y510638D01*
X785917Y510231D01*
X786535Y509975D01*
X787198Y509888D01*
X788308D01*
Y491410D01*
X791478D01*
Y406302D01*
X791596Y405404D01*
X791943Y404567D01*
X792494Y403849D01*
X806478Y389865D01*
Y370740D01*
X803308D01*
Y370740D01*
X803020D01*
X800966Y373004D01*
X800753Y374075D01*
X800335Y375083D01*
X799729Y375990D01*
X798958Y376762D01*
X798050Y377368D01*
X797042Y377786D01*
X795972Y377999D01*
X794880D01*
X793810Y377786D01*
X792802Y377368D01*
X791894Y376762D01*
X791123Y375990D01*
X790517Y375083D01*
X790099Y374075D01*
X789886Y373004D01*
Y371913D01*
X788308Y370740D01*
X788308D01*
Y352262D01*
X787198D01*
X786535Y352174D01*
X785917Y351918D01*
X785386Y351511D01*
X784979Y350981D01*
X784723Y350363D01*
X784636Y349700D01*
Y315200D01*
X784723Y314537D01*
X784979Y313919D01*
X785386Y313388D01*
X785917Y312981D01*
X786535Y312725D01*
X787198Y312638D01*
X788308D01*
Y294160D01*
X791119D01*
Y280802D01*
X791193Y280055D01*
X791411Y279337D01*
X791765Y278675D01*
X792241Y278095D01*
X806369Y263966D01*
Y175490D01*
X803558D01*
Y175490D01*
X801838D01*
X800505Y178030D01*
X800540Y178204D01*
Y179296D01*
X800327Y180366D01*
X799909Y181374D01*
X799303Y182282D01*
X798531Y183053D01*
X797624Y183659D01*
X796616Y184077D01*
X795546Y184290D01*
X794454D01*
X793384Y184077D01*
X792376Y183659D01*
X791468Y183053D01*
X790697Y182282D01*
X790090Y181374D01*
X789673Y180366D01*
X789460Y179296D01*
Y178204D01*
X789495Y178030D01*
X788558Y175490D01*
X788558D01*
Y157012D01*
X787448D01*
X786785Y156924D01*
X786167Y156669D01*
X785636Y156261D01*
X785229Y155731D01*
X784973Y155113D01*
X784886Y154450D01*
Y119950D01*
X784973Y119287D01*
X785229Y118669D01*
X785636Y118138D01*
X786167Y117731D01*
X786785Y117475D01*
X787448Y117388D01*
X788558D01*
Y113081D01*
X756076D01*
X710010Y159147D01*
Y243710D01*
X709892Y244608D01*
X709545Y245445D01*
X708993Y246164D01*
X699388Y255769D01*
X700360Y258116D01*
X725757D01*
Y288696D01*
X723066D01*
X722114Y290920D01*
X722141Y291236D01*
X723716Y292404D01*
X725292Y293832D01*
X726720Y295408D01*
X727987Y297116D01*
X729080Y298940D01*
X729989Y300863D01*
X730706Y302865D01*
X731223Y304928D01*
X731535Y307032D01*
X731639Y309156D01*
X731535Y311280D01*
X731223Y313384D01*
X730706Y315447D01*
X729989Y317449D01*
X729080Y319372D01*
X727987Y321196D01*
X726720Y322904D01*
X725292Y324480D01*
X723716Y325908D01*
X722007Y327175D01*
X720183Y328269D01*
X718261Y329178D01*
X716258Y329894D01*
X714195Y330411D01*
X712092Y330723D01*
X709967Y330827D01*
X707843Y330723D01*
X705740Y330411D01*
X705170Y330268D01*
X703871Y332561D01*
X718453Y347144D01*
X719005Y347862D01*
X719352Y348699D01*
X719470Y349597D01*
Y425750D01*
X719351Y426648D01*
X719005Y427485D01*
X718453Y428204D01*
X677720Y468937D01*
Y505128D01*
X685573Y512981D01*
X687866Y511682D01*
X687731Y511145D01*
X687419Y509039D01*
X687315Y506913D01*
X687419Y504787D01*
X687731Y502681D01*
X688249Y500616D01*
X688966Y498612D01*
X689876Y496688D01*
X690970Y494862D01*
X692238Y493152D01*
X693668Y491575D01*
X695245Y490145D01*
X696799Y488993D01*
X696821Y488677D01*
X695673Y486453D01*
X694716D01*
Y455873D01*
X724796D01*
Y486453D01*
X722339D01*
X721191Y488677D01*
X721213Y488993D01*
X722767Y490145D01*
X724344Y491575D01*
X725774Y493152D01*
X727042Y494862D01*
X728136Y496688D01*
X729046Y498612D01*
X729763Y500616D01*
X730281Y502681D01*
X730593Y504787D01*
X730697Y506913D01*
X730593Y509039D01*
X730281Y511145D01*
X729763Y513210D01*
X729046Y515214D01*
X728136Y517138D01*
X727042Y518964D01*
X725774Y520674D01*
X724344Y522251D01*
X722767Y523681D01*
X721057Y524949D01*
X719231Y526043D01*
X717307Y526953D01*
X715303Y527670D01*
X713238Y528188D01*
X711132Y528500D01*
X709006Y528604D01*
X706880Y528500D01*
X704774Y528188D01*
X704237Y528053D01*
X702938Y530346D01*
X708525Y535933D01*
X709076Y536652D01*
X709423Y537489D01*
X709541Y538387D01*
Y628679D01*
X709423Y629577D01*
X709076Y630414D01*
X708525Y631132D01*
X631270Y708387D01*
Y713633D01*
X631287Y713643D01*
X633810Y714290D01*
X634749Y712816D01*
X636240Y710873D01*
X637894Y709068D01*
X639699Y707414D01*
X641642Y705923D01*
X643707Y704608D01*
X645879Y703477D01*
X648141Y702540D01*
X650476Y701804D01*
X652867Y701274D01*
X655294Y700954D01*
X657740Y700847D01*
X660186Y700954D01*
X662614Y701274D01*
X665005Y701804D01*
X667340Y702540D01*
X669602Y703477D01*
X671774Y704608D01*
X673839Y705923D01*
X675781Y707414D01*
X677587Y709068D01*
X679241Y710873D01*
X680731Y712816D01*
X682047Y714881D01*
X683177Y717053D01*
X684115Y719315D01*
X684851Y721650D01*
X685381Y724040D01*
X685700Y726468D01*
X685807Y728914D01*
X685700Y731360D01*
X685381Y733788D01*
X684851Y736178D01*
X684115Y738513D01*
X683177Y740776D01*
X682047Y742947D01*
X681469Y743855D01*
X681661Y744593D01*
X682931Y746287D01*
X684240Y746223D01*
X686367Y746327D01*
X688472Y746639D01*
X690537Y747157D01*
X692541Y747874D01*
X694466Y748784D01*
X696292Y749878D01*
X698001Y751146D01*
X699579Y752576D01*
X701008Y754153D01*
X702276Y755863D01*
X703371Y757689D01*
X704281Y759613D01*
X704998Y761617D01*
X705515Y763682D01*
X705827Y765788D01*
X705932Y767914D01*
X705827Y770040D01*
X705515Y772146D01*
X704998Y774211D01*
X704281Y776215D01*
X703371Y778139D01*
X702276Y779965D01*
X701008Y781675D01*
X699579Y783252D01*
X698001Y784682D01*
X697459Y785084D01*
X698298Y787624D01*
X698780D01*
Y818204D01*
D02*
G37*
G36*
X117089Y709960D02*
X115581D01*
X114092Y709724D01*
X112657Y709258D01*
X111314Y708574D01*
X110094Y707687D01*
X109028Y706621D01*
X108141Y705401D01*
X107457Y704057D01*
X106991Y702623D01*
X106755Y701134D01*
Y699626D01*
X106991Y698137D01*
X107404Y696864D01*
X100628Y690087D01*
X100152Y689507D01*
X99798Y688845D01*
X99580Y688127D01*
X99506Y687380D01*
Y593665D01*
X99580Y592918D01*
X99798Y592200D01*
X100152Y591538D01*
X100628Y590958D01*
X112460Y579126D01*
Y578454D01*
X112673Y577384D01*
X113090Y576376D01*
X113697Y575468D01*
X114468Y574697D01*
X115376Y574090D01*
X116384Y573673D01*
X117454Y573460D01*
X118546D01*
X119616Y573673D01*
X120624Y574090D01*
X121531Y574697D01*
X122303Y575468D01*
X122909Y576376D01*
X123327Y577384D01*
X123540Y578454D01*
Y579546D01*
X123327Y580616D01*
X122909Y581624D01*
X122303Y582532D01*
X121531Y583303D01*
X120624Y583909D01*
X119616Y584327D01*
X118546Y584540D01*
X117874D01*
X107163Y595251D01*
Y685794D01*
X112819Y691450D01*
X114092Y691036D01*
X115581Y690800D01*
X117089D01*
X118578Y691036D01*
X120012Y691502D01*
X121356Y692187D01*
X122576Y693073D01*
X123642Y694139D01*
X124528Y695359D01*
X125213Y696703D01*
X125679Y698137D01*
X125915Y699626D01*
Y701134D01*
X125679Y702623D01*
X125213Y704057D01*
X124528Y705401D01*
X123642Y706621D01*
X122576Y707687D01*
X121356Y708574D01*
X120012Y709258D01*
X118578Y709724D01*
X117089Y709960D01*
D02*
G37*
G36*
X41089D02*
X39581D01*
X38091Y709724D01*
X36657Y709258D01*
X35314Y708574D01*
X34094Y707687D01*
X33028Y706621D01*
X32141Y705401D01*
X31457Y704057D01*
X30991Y702623D01*
X30755Y701134D01*
Y699626D01*
X30991Y698137D01*
X31457Y696703D01*
X32141Y695359D01*
X33028Y694139D01*
X34094Y693073D01*
X35314Y692187D01*
X36657Y691502D01*
X38091Y691036D01*
X39581Y690800D01*
X41089D01*
X42578Y691036D01*
X44012Y691502D01*
X45356Y692187D01*
X46576Y693073D01*
X47642Y694139D01*
X48528Y695359D01*
X49213Y696703D01*
X49679Y698137D01*
X49915Y699626D01*
Y701134D01*
X49679Y702623D01*
X49213Y704057D01*
X48528Y705401D01*
X47642Y706621D01*
X46576Y707687D01*
X45356Y708574D01*
X44012Y709258D01*
X42578Y709724D01*
X41089Y709960D01*
D02*
G37*
G36*
X622225Y698730D02*
X616855D01*
Y688460D01*
X622225D01*
Y698730D01*
D02*
G37*
G36*
X428225Y698730D02*
X422855D01*
Y688460D01*
X428225D01*
Y698730D01*
D02*
G37*
G36*
X816838Y698680D02*
X811468D01*
Y688410D01*
X816838D01*
Y698680D01*
D02*
G37*
G36*
X271960Y718409D02*
X269935D01*
X267922Y718182D01*
X265947Y717731D01*
X264035Y717063D01*
X262210Y716184D01*
X260495Y715106D01*
X258912Y713843D01*
X257479Y712411D01*
X256217Y710827D01*
X255139Y709112D01*
X254260Y707287D01*
X253591Y705375D01*
X253140Y703401D01*
X252914Y701388D01*
Y699362D01*
X253140Y697349D01*
X253591Y695375D01*
X254260Y693463D01*
X255139Y691638D01*
X256217Y689923D01*
X257479Y688339D01*
X258912Y686907D01*
X260495Y685644D01*
X262210Y684566D01*
X264035Y683688D01*
X265947Y683018D01*
X267922Y682568D01*
X269935Y682341D01*
X271960D01*
X273973Y682568D01*
X275948Y683018D01*
X277860Y683688D01*
X279685Y684566D01*
X281400Y685644D01*
X282983Y686907D01*
X284416Y688339D01*
X285679Y689923D01*
X286756Y691638D01*
X287635Y693463D01*
X288304Y695375D01*
X288755Y697349D01*
X288982Y699362D01*
Y701388D01*
X288755Y703401D01*
X288304Y705375D01*
X287635Y707287D01*
X286756Y709112D01*
X285679Y710827D01*
X284416Y712411D01*
X282983Y713843D01*
X281400Y715106D01*
X279685Y716184D01*
X277860Y717063D01*
X275948Y717731D01*
X273973Y718182D01*
X271960Y718409D01*
D02*
G37*
G36*
X161960D02*
X159935D01*
X157922Y718182D01*
X155947Y717731D01*
X154036Y717063D01*
X152211Y716184D01*
X150495Y715106D01*
X148912Y713843D01*
X147479Y712411D01*
X146217Y710827D01*
X145139Y709112D01*
X144260Y707287D01*
X143591Y705375D01*
X143140Y703401D01*
X142914Y701388D01*
Y699362D01*
X143140Y697349D01*
X143591Y695375D01*
X144260Y693463D01*
X145139Y691638D01*
X146217Y689923D01*
X147479Y688339D01*
X148912Y686907D01*
X150495Y685644D01*
X152211Y684566D01*
X154036Y683688D01*
X155947Y683018D01*
X157922Y682568D01*
X159935Y682341D01*
X161960D01*
X163973Y682568D01*
X165948Y683018D01*
X167860Y683688D01*
X169685Y684566D01*
X171400Y685644D01*
X172983Y686907D01*
X174416Y688339D01*
X175679Y689923D01*
X176756Y691638D01*
X177635Y693463D01*
X178304Y695375D01*
X178755Y697349D01*
X178982Y699362D01*
Y701388D01*
X178755Y703401D01*
X178304Y705375D01*
X177635Y707287D01*
X176756Y709112D01*
X175679Y710827D01*
X174416Y712411D01*
X172983Y713843D01*
X171400Y715106D01*
X169685Y716184D01*
X167860Y717063D01*
X165948Y717731D01*
X163973Y718182D01*
X161960Y718409D01*
D02*
G37*
G36*
X709740Y725856D02*
X707614Y725751D01*
X705509Y725439D01*
X703444Y724921D01*
X701439Y724204D01*
X699515Y723294D01*
X697689Y722200D01*
X695980Y720932D01*
X694402Y719502D01*
X692973Y717925D01*
X691705Y716215D01*
X690610Y714389D01*
X689700Y712465D01*
X688983Y710461D01*
X688466Y708396D01*
X688153Y706290D01*
X688049Y704164D01*
X688153Y702038D01*
X688466Y699932D01*
X688983Y697867D01*
X689700Y695863D01*
X690610Y693939D01*
X691705Y692113D01*
X692973Y690403D01*
X694402Y688826D01*
X695980Y687396D01*
X697533Y686244D01*
X697555Y685928D01*
X696407Y683704D01*
X695450D01*
Y653124D01*
X725530D01*
Y683704D01*
X723074D01*
X721926Y685928D01*
X721948Y686244D01*
X723501Y687396D01*
X725079Y688826D01*
X726508Y690403D01*
X727776Y692113D01*
X728871Y693939D01*
X729781Y695863D01*
X730498Y697867D01*
X731015Y699932D01*
X731327Y702038D01*
X731432Y704164D01*
X731327Y706290D01*
X731015Y708396D01*
X730498Y710461D01*
X729781Y712465D01*
X728871Y714389D01*
X727776Y716215D01*
X726508Y717925D01*
X725079Y719502D01*
X723501Y720932D01*
X721792Y722200D01*
X719966Y723294D01*
X718041Y724204D01*
X716037Y724921D01*
X713972Y725439D01*
X711867Y725751D01*
X709740Y725856D01*
D02*
G37*
G36*
X904437Y725707D02*
X902311Y725603D01*
X900206Y725291D01*
X898141Y724773D01*
X896136Y724056D01*
X894212Y723146D01*
X892386Y722052D01*
X890676Y720784D01*
X889099Y719354D01*
X887670Y717777D01*
X886402Y716067D01*
X885307Y714241D01*
X884397Y712317D01*
X883680Y710313D01*
X883163Y708248D01*
X882850Y706142D01*
X882746Y704016D01*
X882850Y701890D01*
X883163Y699784D01*
X883680Y697719D01*
X884397Y695715D01*
X885307Y693791D01*
X886402Y691965D01*
X887670Y690255D01*
X889099Y688678D01*
X890676Y687248D01*
X892230Y686096D01*
X892252Y685780D01*
X891104Y683556D01*
X890147D01*
Y652976D01*
X920227D01*
Y683556D01*
X917771D01*
X916623Y685780D01*
X916645Y686096D01*
X918198Y687248D01*
X919776Y688678D01*
X921205Y690255D01*
X922473Y691965D01*
X923568Y693791D01*
X924478Y695715D01*
X925195Y697719D01*
X925712Y699784D01*
X926024Y701890D01*
X926129Y704016D01*
X926024Y706142D01*
X925712Y708248D01*
X925195Y710313D01*
X924478Y712317D01*
X923568Y714241D01*
X922473Y716067D01*
X921205Y717777D01*
X919776Y719354D01*
X918198Y720784D01*
X916489Y722052D01*
X914663Y723146D01*
X912738Y724056D01*
X910734Y724773D01*
X908669Y725291D01*
X906564Y725603D01*
X904437Y725707D01*
D02*
G37*
G36*
X217218Y635327D02*
Y626645D01*
X225900D01*
X225809Y627337D01*
X225469Y628607D01*
X224965Y629822D01*
X224308Y630961D01*
X223507Y632005D01*
X222577Y632934D01*
X221534Y633735D01*
X220395Y634393D01*
X219179Y634896D01*
X217909Y635236D01*
X217218Y635327D01*
D02*
G37*
G36*
X214678D02*
X213986Y635236D01*
X212716Y634896D01*
X211501Y634393D01*
X210362Y633735D01*
X209318Y632934D01*
X208388Y632005D01*
X207588Y630961D01*
X206930Y629822D01*
X206427Y628607D01*
X206086Y627337D01*
X205995Y626645D01*
X214678D01*
Y635327D01*
D02*
G37*
G36*
X225900Y624105D02*
X217218D01*
Y615423D01*
X217909Y615514D01*
X219179Y615854D01*
X220395Y616357D01*
X221534Y617015D01*
X222577Y617816D01*
X223507Y618746D01*
X224308Y619789D01*
X224965Y620928D01*
X225469Y622143D01*
X225809Y623414D01*
X225900Y624105D01*
D02*
G37*
G36*
X214678D02*
X205995D01*
X206086Y623414D01*
X206427Y622143D01*
X206930Y620928D01*
X207588Y619789D01*
X208388Y618746D01*
X209318Y617816D01*
X210362Y617015D01*
X211501Y616357D01*
X212716Y615854D01*
X213986Y615514D01*
X214678Y615423D01*
Y624105D01*
D02*
G37*
G36*
X893798Y621866D02*
X863717D01*
Y591286D01*
X865200D01*
X866039Y588746D01*
X865497Y588344D01*
X863919Y586914D01*
X862490Y585337D01*
X861222Y583627D01*
X860127Y581801D01*
X859217Y579877D01*
X858500Y577873D01*
X857983Y575808D01*
X857670Y573702D01*
X857566Y571576D01*
X857670Y569450D01*
X857983Y567344D01*
X858500Y565279D01*
X859133Y563509D01*
X858534Y562313D01*
X857360Y561261D01*
X855291Y561533D01*
X852757Y561644D01*
X850224Y561533D01*
X847710Y561202D01*
X845234Y560653D01*
X842816Y559891D01*
X840473Y558920D01*
X838224Y557749D01*
X836085Y556387D01*
X834073Y554843D01*
X832204Y553130D01*
X830490Y551260D01*
X828947Y549249D01*
X827584Y547110D01*
X826413Y544861D01*
X825443Y542518D01*
X824680Y540099D01*
X824131Y537624D01*
X823800Y535109D01*
X823690Y532576D01*
X823800Y530043D01*
X824131Y527528D01*
X824680Y525053D01*
X825443Y522634D01*
X826413Y520291D01*
X827584Y518042D01*
X828947Y515904D01*
X830490Y513892D01*
X832204Y512022D01*
X834073Y510309D01*
X836085Y508765D01*
X838224Y507403D01*
X840473Y506232D01*
X842816Y505261D01*
X845234Y504499D01*
X847710Y503950D01*
X850224Y503619D01*
X852757Y503508D01*
X855291Y503619D01*
X857805Y503950D01*
X860281Y504499D01*
X862699Y505261D01*
X865042Y506232D01*
X867291Y507403D01*
X869430Y508765D01*
X871442Y510309D01*
X873311Y512022D01*
X875025Y513892D01*
X876568Y515904D01*
X877931Y518042D01*
X879102Y520291D01*
X880072Y522634D01*
X880835Y525053D01*
X881384Y527528D01*
X881714Y530043D01*
X881825Y532576D01*
X881714Y535109D01*
X881384Y537624D01*
X880835Y540099D01*
X880072Y542518D01*
X879102Y544861D01*
X877931Y547110D01*
X877736Y547416D01*
X879172Y549889D01*
X879257Y549884D01*
X881384Y549989D01*
X883489Y550301D01*
X885554Y550819D01*
X887558Y551536D01*
X889483Y552446D01*
X891309Y553540D01*
X893018Y554808D01*
X894596Y556238D01*
X896025Y557815D01*
X897293Y559525D01*
X898388Y561351D01*
X899298Y563275D01*
X900015Y565279D01*
X900532Y567344D01*
X900844Y569450D01*
X900949Y571576D01*
X900844Y573702D01*
X900532Y575808D01*
X900015Y577873D01*
X899298Y579877D01*
X898388Y581801D01*
X897293Y583627D01*
X896025Y585337D01*
X894596Y586914D01*
X893018Y588344D01*
X892476Y588746D01*
X893315Y591286D01*
X893798D01*
Y621866D01*
D02*
G37*
G36*
X333911Y791537D02*
X332820D01*
X331749Y791324D01*
X330741Y790906D01*
X329834Y790300D01*
X329062Y789528D01*
X328456Y788621D01*
X328038Y787613D01*
X327825Y786542D01*
Y785871D01*
X292793Y750839D01*
X292317Y750258D01*
X291963Y749597D01*
X291745Y748878D01*
X291672Y748131D01*
Y570751D01*
X259961Y539040D01*
X259289D01*
X258219Y538827D01*
X257211Y538410D01*
X256303Y537803D01*
X255532Y537032D01*
X254925Y536124D01*
X254508Y535116D01*
X254295Y534046D01*
Y532954D01*
X254508Y531884D01*
X254925Y530876D01*
X255532Y529968D01*
X256303Y529197D01*
X257211Y528591D01*
X258219Y528173D01*
X259289Y527960D01*
X260380D01*
X261451Y528173D01*
X262459Y528591D01*
X263366Y529197D01*
X264138Y529968D01*
X264744Y530876D01*
X265162Y531884D01*
X265375Y532954D01*
Y533626D01*
X298207Y566458D01*
X298683Y567038D01*
X299037Y567700D01*
X299255Y568418D01*
X299328Y569165D01*
Y746546D01*
X333239Y780457D01*
X333911D01*
X334981Y780669D01*
X335989Y781087D01*
X336897Y781693D01*
X337668Y782465D01*
X338275Y783372D01*
X338692Y784381D01*
X338905Y785451D01*
Y786542D01*
X338692Y787613D01*
X338275Y788621D01*
X337668Y789528D01*
X336897Y790300D01*
X335989Y790906D01*
X334981Y791324D01*
X333911Y791537D01*
D02*
G37*
G36*
X126528Y521430D02*
X106368D01*
Y501270D01*
X126528D01*
Y521430D01*
D02*
G37*
G36*
X621475Y501730D02*
X616105D01*
Y491460D01*
X621475D01*
Y501730D01*
D02*
G37*
G36*
X816588Y501680D02*
X811218D01*
Y491410D01*
X816588D01*
Y501680D01*
D02*
G37*
G36*
X428838Y501680D02*
X423468D01*
Y491410D01*
X428838D01*
Y501680D01*
D02*
G37*
G36*
X126528Y496030D02*
X106368D01*
Y475870D01*
X126528D01*
Y496030D01*
D02*
G37*
G36*
X55230Y483980D02*
X46420D01*
Y475170D01*
X55230D01*
Y483980D01*
D02*
G37*
G36*
Y472630D02*
X46420D01*
Y463820D01*
X55230D01*
Y472630D01*
D02*
G37*
G36*
X126528Y470630D02*
X117718D01*
Y461820D01*
X126528D01*
Y470630D01*
D02*
G37*
G36*
X343814Y774035D02*
X342723D01*
X341652Y773822D01*
X340644Y773404D01*
X339737Y772798D01*
X338965Y772027D01*
X338359Y771119D01*
X337941Y770111D01*
X337728Y769041D01*
Y768369D01*
X303543Y734184D01*
X303067Y733604D01*
X302713Y732942D01*
X302495Y732224D01*
X302421Y731477D01*
Y521430D01*
X284168D01*
Y515178D01*
X281415D01*
X280668Y515105D01*
X279950Y514887D01*
X279288Y514533D01*
X278708Y514057D01*
X210543Y445892D01*
X210067Y445312D01*
X209713Y444650D01*
X209495Y443932D01*
X209422Y443185D01*
Y386001D01*
X144741Y321320D01*
X144265Y320740D01*
X143911Y320078D01*
X143693Y319360D01*
X143619Y318613D01*
Y298137D01*
X143145Y297663D01*
X142538Y296755D01*
X142121Y295747D01*
X141908Y294677D01*
Y293585D01*
X142121Y292515D01*
X142538Y291507D01*
X143145Y290599D01*
X143916Y289828D01*
X144824Y289222D01*
X145832Y288804D01*
X146902Y288591D01*
X147993D01*
X149064Y288804D01*
X150072Y289222D01*
X150979Y289828D01*
X151751Y290599D01*
X152357Y291507D01*
X152775Y292515D01*
X152988Y293585D01*
Y294677D01*
X152775Y295747D01*
X152357Y296755D01*
X151751Y297663D01*
X151276Y298137D01*
Y317027D01*
X215957Y381708D01*
X216433Y382288D01*
X216787Y382950D01*
X217005Y383668D01*
X217078Y384415D01*
Y441599D01*
X264664Y489184D01*
X265364Y489010D01*
X267018Y487947D01*
X267007Y487836D01*
Y481557D01*
X266533Y481082D01*
X265926Y480175D01*
X265509Y479167D01*
X265296Y478096D01*
Y477005D01*
X265509Y475935D01*
X265926Y474926D01*
X266533Y474019D01*
X267304Y473247D01*
X267762Y470689D01*
X267633Y470131D01*
X230628Y433126D01*
X230152Y432546D01*
X229798Y431884D01*
X229580Y431166D01*
X229506Y430419D01*
Y280671D01*
X148126Y199290D01*
X147454D01*
X146384Y199077D01*
X145376Y198659D01*
X144468Y198053D01*
X143697Y197281D01*
X143090Y196374D01*
X142673Y195366D01*
X142460Y194296D01*
Y193204D01*
X142673Y192134D01*
X143090Y191126D01*
X143697Y190219D01*
X144468Y189447D01*
X145376Y188841D01*
X146384Y188423D01*
X147454Y188210D01*
X148546D01*
X149616Y188423D01*
X150624Y188841D01*
X151531Y189447D01*
X152303Y190219D01*
X152909Y191126D01*
X153327Y192134D01*
X153540Y193204D01*
Y193876D01*
X236042Y276378D01*
X236518Y276958D01*
X236872Y277620D01*
X237090Y278338D01*
X237163Y279085D01*
Y428833D01*
X263808Y455478D01*
X266155Y454506D01*
Y439040D01*
X265680Y438565D01*
X265074Y437658D01*
X264656Y436650D01*
X264443Y435579D01*
Y434488D01*
X264656Y433418D01*
X265074Y432410D01*
X265680Y431502D01*
X266452Y430731D01*
X267359Y430124D01*
X268367Y429707D01*
X269438Y429494D01*
X270529D01*
X271599Y429707D01*
X272607Y430124D01*
X273515Y430731D01*
X274286Y431502D01*
X274893Y432410D01*
X275310Y433418D01*
X275523Y434488D01*
Y435579D01*
X275310Y436650D01*
X274893Y437658D01*
X274286Y438565D01*
X273812Y439040D01*
Y458297D01*
X281821Y466307D01*
X284168Y465335D01*
Y461820D01*
X294248D01*
X304328D01*
Y470218D01*
X304723Y470543D01*
X319542Y485362D01*
X320018Y485942D01*
X320372Y486604D01*
X320590Y487322D01*
X320663Y488069D01*
Y716249D01*
X356624Y752210D01*
X357296D01*
X358366Y752423D01*
X359374Y752840D01*
X360281Y753447D01*
X361053Y754219D01*
X361659Y755126D01*
X362077Y756134D01*
X362290Y757204D01*
Y758296D01*
X362077Y759366D01*
X361659Y760374D01*
X361053Y761282D01*
X360281Y762053D01*
X359374Y762660D01*
X358366Y763077D01*
X357296Y763290D01*
X356204D01*
X355134Y763077D01*
X354126Y762660D01*
X353218Y762053D01*
X352447Y761282D01*
X351841Y760374D01*
X351423Y759366D01*
X351210Y758296D01*
Y757624D01*
X314128Y720542D01*
X313652Y719962D01*
X313298Y719300D01*
X313080Y718582D01*
X313006Y717835D01*
Y489655D01*
X306674Y483323D01*
X304328Y484295D01*
Y496030D01*
X305550Y496463D01*
X306212Y496817D01*
X306792Y497293D01*
X308957Y499458D01*
X309433Y500038D01*
X309787Y500700D01*
X310005Y501418D01*
X310078Y502165D01*
Y729891D01*
X343142Y762955D01*
X343814D01*
X344884Y763168D01*
X345892Y763586D01*
X346800Y764192D01*
X347571Y764963D01*
X348178Y765871D01*
X348595Y766879D01*
X348808Y767949D01*
Y769041D01*
X348595Y770111D01*
X348178Y771119D01*
X347571Y772027D01*
X346800Y772798D01*
X345892Y773404D01*
X344884Y773822D01*
X343814Y774035D01*
D02*
G37*
G36*
X115178Y470630D02*
X106368D01*
Y461820D01*
X115178D01*
Y470630D01*
D02*
G37*
G36*
X904758Y529518D02*
X902631Y529413D01*
X900526Y529101D01*
X898461Y528583D01*
X896457Y527866D01*
X894532Y526956D01*
X892706Y525862D01*
X890996Y524594D01*
X889419Y523164D01*
X887990Y521587D01*
X886722Y519877D01*
X885627Y518051D01*
X884717Y516127D01*
X884000Y514123D01*
X883483Y512058D01*
X883170Y509952D01*
X883066Y507826D01*
X883170Y505700D01*
X883483Y503594D01*
X884000Y501529D01*
X884717Y499525D01*
X885627Y497601D01*
X886722Y495775D01*
X887990Y494065D01*
X889419Y492488D01*
X890996Y491058D01*
X892550Y489906D01*
X892572Y489590D01*
X891424Y487366D01*
X890468D01*
Y456786D01*
X920547D01*
Y487366D01*
X918091D01*
X916943Y489590D01*
X916965Y489906D01*
X918518Y491058D01*
X920096Y492488D01*
X921525Y494065D01*
X922793Y495775D01*
X923888Y497601D01*
X924798Y499525D01*
X925515Y501529D01*
X926032Y503594D01*
X926345Y505700D01*
X926449Y507826D01*
X926345Y509952D01*
X926032Y512058D01*
X925515Y514123D01*
X924798Y516127D01*
X923888Y518051D01*
X922793Y519877D01*
X921525Y521587D01*
X920096Y523164D01*
X918518Y524594D01*
X916809Y525862D01*
X914983Y526956D01*
X913058Y527866D01*
X911054Y528583D01*
X908989Y529101D01*
X906884Y529413D01*
X904758Y529518D01*
D02*
G37*
G36*
X304328Y459280D02*
X295518D01*
Y450470D01*
X304328D01*
Y459280D01*
D02*
G37*
G36*
X292978D02*
X284168D01*
Y450470D01*
X292978D01*
Y459280D01*
D02*
G37*
G36*
X126528D02*
X117718D01*
Y450470D01*
X126528D01*
Y459280D01*
D02*
G37*
G36*
X115178D02*
X106368D01*
Y450470D01*
X115178D01*
Y459280D01*
D02*
G37*
G36*
X126528Y445230D02*
X106368D01*
Y425070D01*
X126528D01*
Y445230D01*
D02*
G37*
G36*
X388904Y644126D02*
X387812D01*
X386742Y643913D01*
X385734Y643495D01*
X384827Y642889D01*
X384055Y642117D01*
X383449Y641210D01*
X383031Y640202D01*
X382818Y639131D01*
Y638460D01*
X331133Y586775D01*
X330657Y586195D01*
X330303Y585533D01*
X330085Y584814D01*
X330012Y584068D01*
Y430460D01*
X306674Y407123D01*
X304328Y408095D01*
Y419830D01*
X287661D01*
X286689Y422177D01*
X289582Y425070D01*
X304328D01*
Y445230D01*
X284168D01*
Y430484D01*
X247043Y393359D01*
X246567Y392779D01*
X246213Y392117D01*
X245995Y391399D01*
X245922Y390652D01*
Y242086D01*
X150896Y147060D01*
X150822Y147109D01*
X149814Y147527D01*
X148743Y147740D01*
X147652D01*
X146582Y147527D01*
X145574Y147109D01*
X144666Y146503D01*
X143895Y145731D01*
X143288Y144824D01*
X142871Y143816D01*
X142658Y142746D01*
Y141654D01*
X142871Y140584D01*
X143288Y139576D01*
X143895Y138668D01*
X144666Y137897D01*
X145574Y137290D01*
X146582Y136873D01*
X147652Y136660D01*
X148743D01*
X149814Y136873D01*
X150822Y137290D01*
X151729Y137897D01*
X152501Y138668D01*
X152781Y139088D01*
X152846Y139094D01*
X153564Y139312D01*
X154226Y139666D01*
X154806Y140142D01*
X252457Y237793D01*
X252933Y238373D01*
X253287Y239035D01*
X253505Y239753D01*
X253578Y240500D01*
Y389066D01*
X281821Y417309D01*
X284168Y416337D01*
Y401655D01*
X284033Y401583D01*
X283453Y401107D01*
X270494Y388148D01*
X269823D01*
X268753Y387935D01*
X267745Y387518D01*
X266837Y386912D01*
X266066Y386140D01*
X265459Y385233D01*
X265042Y384224D01*
X264829Y383154D01*
Y382063D01*
X265042Y380993D01*
X265459Y379984D01*
X266066Y379077D01*
X266837Y378305D01*
X267745Y377699D01*
X268753Y377281D01*
X269823Y377068D01*
X270914D01*
X271985Y377281D01*
X272993Y377699D01*
X273900Y378305D01*
X274672Y379077D01*
X275278Y379984D01*
X275696Y380993D01*
X275909Y382063D01*
Y382734D01*
X281821Y388647D01*
X284168Y387675D01*
Y374270D01*
X283003Y373483D01*
X282423Y373007D01*
X267491Y358075D01*
X267015Y357495D01*
X266661Y356833D01*
X266443Y356115D01*
X266369Y355368D01*
Y345456D01*
X265895Y344981D01*
X265288Y344074D01*
X264871Y343066D01*
X264658Y341996D01*
Y340904D01*
X264871Y339834D01*
X265288Y338826D01*
X265895Y337918D01*
X266666Y337147D01*
X267574Y336540D01*
X267708Y336485D01*
X268439Y334245D01*
X268387Y333572D01*
X267241Y332425D01*
X266765Y331845D01*
X266411Y331183D01*
X266193Y330465D01*
X266119Y329718D01*
Y303956D01*
X265645Y303481D01*
X265038Y302574D01*
X264621Y301566D01*
X264408Y300495D01*
Y299404D01*
X264621Y298334D01*
X265038Y297326D01*
X265645Y296418D01*
X266416Y295647D01*
X267324Y295040D01*
X268332Y294623D01*
X269402Y294410D01*
X270494D01*
X271564Y294623D01*
X272572Y295040D01*
X273479Y295647D01*
X274251Y296418D01*
X274857Y297326D01*
X275275Y298334D01*
X275488Y299404D01*
Y300495D01*
X275275Y301566D01*
X274857Y302574D01*
X274251Y303481D01*
X273776Y303956D01*
Y328132D01*
X281821Y336177D01*
X284168Y335205D01*
Y334820D01*
X294248D01*
X304328D01*
Y341072D01*
X308216D01*
X308963Y341145D01*
X309681Y341363D01*
X310343Y341717D01*
X310923Y342193D01*
X346707Y377977D01*
X347183Y378557D01*
X347537Y379219D01*
X347755Y379937D01*
X347828Y380684D01*
Y547548D01*
X399897Y599616D01*
X400568D01*
X401638Y599829D01*
X402647Y600247D01*
X403554Y600853D01*
X404326Y601624D01*
X404932Y602532D01*
X405350Y603540D01*
X405562Y604610D01*
Y605702D01*
X405350Y606772D01*
X404932Y607780D01*
X404326Y608688D01*
X403554Y609459D01*
X402647Y610065D01*
X401638Y610483D01*
X400568Y610696D01*
X399477D01*
X398406Y610483D01*
X397398Y610065D01*
X396491Y609459D01*
X395719Y608688D01*
X395113Y607780D01*
X394695Y606772D01*
X394482Y605702D01*
Y605030D01*
X345095Y555643D01*
X342748Y556615D01*
Y564584D01*
X394624Y616460D01*
X395296D01*
X396366Y616673D01*
X397374Y617090D01*
X398282Y617697D01*
X399053Y618469D01*
X399659Y619376D01*
X400077Y620384D01*
X400290Y621454D01*
Y622546D01*
X400077Y623616D01*
X399659Y624624D01*
X399053Y625532D01*
X398282Y626303D01*
X397374Y626909D01*
X396366Y627327D01*
X395296Y627540D01*
X394204D01*
X393134Y627327D01*
X392126Y626909D01*
X391218Y626303D01*
X390447Y625532D01*
X389841Y624624D01*
X389423Y623616D01*
X389210Y622546D01*
Y621874D01*
X340015Y572679D01*
X337668Y573651D01*
Y582482D01*
X388232Y633046D01*
X388904D01*
X389974Y633259D01*
X390982Y633676D01*
X391890Y634282D01*
X392661Y635054D01*
X393268Y635961D01*
X393685Y636970D01*
X393898Y638040D01*
Y639131D01*
X393685Y640202D01*
X393268Y641210D01*
X392661Y642117D01*
X391890Y642889D01*
X390982Y643495D01*
X389974Y643913D01*
X388904Y644126D01*
D02*
G37*
G36*
X126528Y419830D02*
X106368D01*
Y399670D01*
X126528D01*
Y419830D01*
D02*
G37*
G36*
Y394430D02*
X106368D01*
Y374270D01*
X126528D01*
Y394430D01*
D02*
G37*
G36*
X893477Y423200D02*
X863397D01*
Y392620D01*
X864880D01*
X865719Y390080D01*
X865176Y389678D01*
X863599Y388248D01*
X862170Y386671D01*
X860902Y384961D01*
X859807Y383135D01*
X858897Y381211D01*
X858180Y379207D01*
X857663Y377142D01*
X857350Y375036D01*
X857246Y372910D01*
X857350Y370784D01*
X857663Y368678D01*
X858180Y366613D01*
X858813Y364843D01*
X858214Y363647D01*
X857040Y362594D01*
X854971Y362867D01*
X852437Y362977D01*
X849904Y362867D01*
X847390Y362536D01*
X844914Y361987D01*
X842496Y361225D01*
X840153Y360254D01*
X837904Y359083D01*
X835765Y357721D01*
X833753Y356177D01*
X831883Y354464D01*
X830170Y352594D01*
X828627Y350582D01*
X827264Y348444D01*
X826093Y346194D01*
X825123Y343852D01*
X824360Y341433D01*
X823811Y338957D01*
X823480Y336443D01*
X823370Y333910D01*
X823480Y331376D01*
X823811Y328862D01*
X824360Y326387D01*
X825123Y323968D01*
X826093Y321625D01*
X827264Y319376D01*
X828627Y317237D01*
X830170Y315226D01*
X831883Y313356D01*
X833753Y311643D01*
X835765Y310099D01*
X837904Y308736D01*
X840153Y307566D01*
X842496Y306595D01*
X844914Y305833D01*
X847390Y305284D01*
X849904Y304953D01*
X852437Y304842D01*
X854971Y304953D01*
X857485Y305284D01*
X859961Y305833D01*
X862379Y306595D01*
X864722Y307566D01*
X866971Y308736D01*
X869110Y310099D01*
X871122Y311643D01*
X872991Y313356D01*
X874705Y315226D01*
X876248Y317237D01*
X877611Y319376D01*
X878782Y321625D01*
X879752Y323968D01*
X880515Y326387D01*
X881064Y328862D01*
X881395Y331376D01*
X881505Y333910D01*
X881395Y336443D01*
X881064Y338957D01*
X880515Y341433D01*
X879752Y343852D01*
X878782Y346194D01*
X877611Y348444D01*
X877416Y348750D01*
X878852Y351223D01*
X878937Y351218D01*
X881064Y351323D01*
X883169Y351635D01*
X885234Y352152D01*
X887238Y352870D01*
X889163Y353780D01*
X890989Y354874D01*
X892698Y356142D01*
X894276Y357572D01*
X895705Y359149D01*
X896973Y360859D01*
X898068Y362685D01*
X898978Y364609D01*
X899695Y366613D01*
X900212Y368678D01*
X900525Y370784D01*
X900629Y372910D01*
X900525Y375036D01*
X900212Y377142D01*
X899695Y379207D01*
X898978Y381211D01*
X898068Y383135D01*
X896973Y384961D01*
X895705Y386671D01*
X894276Y388248D01*
X892698Y389678D01*
X892156Y390080D01*
X892995Y392620D01*
X893477D01*
Y423200D01*
D02*
G37*
G36*
X126528Y369030D02*
X106368D01*
Y348870D01*
X126528D01*
Y369030D01*
D02*
G37*
G36*
Y343630D02*
X117718D01*
Y334820D01*
X126528D01*
Y343630D01*
D02*
G37*
G36*
X115178D02*
X106368D01*
Y334820D01*
X115178D01*
Y343630D01*
D02*
G37*
G36*
X304328Y332280D02*
X295518D01*
Y323470D01*
X304328D01*
Y332280D01*
D02*
G37*
G36*
X292978D02*
X284168D01*
Y323470D01*
X292978D01*
Y332280D01*
D02*
G37*
G36*
X126528D02*
X117718D01*
Y323470D01*
X126528D01*
Y332280D01*
D02*
G37*
G36*
X115178D02*
X106368D01*
Y323470D01*
X115178D01*
Y332280D01*
D02*
G37*
G36*
X304328Y318230D02*
X284168D01*
Y298070D01*
X304328D01*
Y318230D01*
D02*
G37*
G36*
X126528D02*
X106368D01*
Y298070D01*
X126528D01*
Y318230D01*
D02*
G37*
G36*
X55230Y306180D02*
X46420D01*
Y297370D01*
X55230D01*
Y306180D01*
D02*
G37*
G36*
X428975Y304480D02*
X423605D01*
Y294210D01*
X428975D01*
Y304480D01*
D02*
G37*
G36*
X816588Y304430D02*
X811218D01*
Y294160D01*
X816588D01*
Y304430D01*
D02*
G37*
G36*
X622588Y304430D02*
X617218D01*
Y294160D01*
X622588D01*
Y304430D01*
D02*
G37*
G36*
X55230Y294830D02*
X46420D01*
Y286020D01*
X55230D01*
Y294830D01*
D02*
G37*
G36*
X398091Y437580D02*
X397000D01*
X395930Y437367D01*
X394921Y436950D01*
X394014Y436343D01*
X393242Y435572D01*
X392636Y434664D01*
X392219Y433656D01*
X392006Y432586D01*
Y431914D01*
X354543Y394451D01*
X354067Y393871D01*
X353713Y393209D01*
X353495Y392491D01*
X353422Y391744D01*
Y306588D01*
X320362Y273528D01*
X304328D01*
Y292830D01*
X284168D01*
Y272971D01*
X284003Y272883D01*
X283423Y272407D01*
X269181Y258165D01*
X268705Y257585D01*
X268351Y256923D01*
X268133Y256205D01*
X268059Y255458D01*
Y252456D01*
X267585Y251981D01*
X266978Y251074D01*
X266561Y250066D01*
X266348Y248995D01*
Y247904D01*
X266561Y246834D01*
X266978Y245826D01*
X267585Y244918D01*
X268356Y244147D01*
X269264Y243540D01*
X270272Y243123D01*
X271342Y242910D01*
X272433D01*
X273504Y243123D01*
X274512Y243540D01*
X275419Y244147D01*
X276191Y244918D01*
X276797Y245826D01*
X277215Y246834D01*
X277428Y247904D01*
Y248995D01*
X277215Y250066D01*
X276797Y251074D01*
X276191Y251981D01*
X275716Y252456D01*
Y253872D01*
X281821Y259977D01*
X284168Y259005D01*
Y247270D01*
X283003Y246483D01*
X282423Y246007D01*
X267681Y231265D01*
X267205Y230685D01*
X266851Y230023D01*
X266633Y229305D01*
X266559Y228558D01*
Y220178D01*
X266085Y219703D01*
X265478Y218796D01*
X265061Y217787D01*
X264848Y216717D01*
Y215626D01*
X265061Y214556D01*
X265478Y213547D01*
X266085Y212640D01*
X266856Y211868D01*
X267608Y211366D01*
X267783Y211170D01*
X268291Y208695D01*
X268223Y208389D01*
X267624Y207790D01*
X267148Y207210D01*
X266794Y206548D01*
X266576Y205830D01*
X266502Y205083D01*
Y179123D01*
X266028Y178648D01*
X265421Y177741D01*
X265004Y176733D01*
X264791Y175662D01*
Y174571D01*
X265004Y173501D01*
X265421Y172493D01*
X266028Y171585D01*
X266799Y170814D01*
X267707Y170207D01*
X268715Y169790D01*
X269785Y169577D01*
X270877D01*
X271947Y169790D01*
X272955Y170207D01*
X273862Y170814D01*
X274634Y171585D01*
X275240Y172493D01*
X275658Y173501D01*
X275871Y174571D01*
Y175662D01*
X275658Y176733D01*
X275240Y177741D01*
X274634Y178648D01*
X274159Y179123D01*
Y203497D01*
X281821Y211159D01*
X284168Y210187D01*
Y207820D01*
X294248D01*
X304328D01*
Y215422D01*
X324998D01*
X325745Y215495D01*
X326463Y215713D01*
X327125Y216067D01*
X327705Y216543D01*
X372957Y261795D01*
X373433Y262375D01*
X373787Y263037D01*
X374005Y263755D01*
X374078Y264502D01*
Y360164D01*
X407874Y393960D01*
X408546D01*
X409616Y394173D01*
X410624Y394590D01*
X411531Y395197D01*
X412303Y395969D01*
X412910Y396876D01*
X413327Y397884D01*
X413540Y398954D01*
Y400046D01*
X413327Y401116D01*
X412910Y402124D01*
X412303Y403032D01*
X411531Y403803D01*
X410624Y404409D01*
X409616Y404827D01*
X408546Y405040D01*
X407454D01*
X406384Y404827D01*
X405376Y404409D01*
X404468Y403803D01*
X403697Y403032D01*
X403091Y402124D01*
X402673Y401116D01*
X402460Y400046D01*
Y399374D01*
X370425Y367339D01*
X368078Y368311D01*
Y373414D01*
X406124Y411460D01*
X406796D01*
X407866Y411673D01*
X408874Y412090D01*
X409781Y412697D01*
X410553Y413469D01*
X411160Y414376D01*
X411577Y415384D01*
X411790Y416454D01*
Y417546D01*
X411577Y418616D01*
X411160Y419624D01*
X410553Y420532D01*
X409781Y421303D01*
X408874Y421909D01*
X407866Y422327D01*
X406796Y422540D01*
X405704D01*
X404634Y422327D01*
X403626Y421909D01*
X402718Y421303D01*
X401947Y420532D01*
X401340Y419624D01*
X400923Y418616D01*
X400710Y417546D01*
Y416874D01*
X363618Y379783D01*
X361078Y380835D01*
Y390159D01*
X397420Y426500D01*
X398091D01*
X399162Y426713D01*
X400170Y427131D01*
X401077Y427737D01*
X401849Y428508D01*
X402455Y429416D01*
X402873Y430424D01*
X403086Y431494D01*
Y432586D01*
X402873Y433656D01*
X402455Y434664D01*
X401849Y435572D01*
X401077Y436343D01*
X400170Y436950D01*
X399162Y437367D01*
X398091Y437580D01*
D02*
G37*
G36*
X904437Y330851D02*
X902311Y330747D01*
X900206Y330435D01*
X898141Y329917D01*
X896136Y329200D01*
X894212Y328290D01*
X892386Y327196D01*
X890676Y325928D01*
X889099Y324498D01*
X887670Y322921D01*
X886402Y321211D01*
X885307Y319385D01*
X884397Y317461D01*
X883680Y315457D01*
X883163Y313392D01*
X882850Y311286D01*
X882746Y309160D01*
X882850Y307034D01*
X883163Y304928D01*
X883680Y302863D01*
X884397Y300859D01*
X885307Y298935D01*
X886402Y297109D01*
X887670Y295399D01*
X889099Y293822D01*
X890676Y292392D01*
X892230Y291240D01*
X892252Y290924D01*
X891104Y288700D01*
X890147D01*
Y258120D01*
X920227D01*
Y288700D01*
X917771D01*
X916623Y290924D01*
X916645Y291240D01*
X918198Y292392D01*
X919776Y293822D01*
X921205Y295399D01*
X922473Y297109D01*
X923568Y298935D01*
X924478Y300859D01*
X925195Y302863D01*
X925712Y304928D01*
X926024Y307034D01*
X926129Y309160D01*
X926024Y311286D01*
X925712Y313392D01*
X925195Y315457D01*
X924478Y317461D01*
X923568Y319385D01*
X922473Y321211D01*
X921205Y322921D01*
X919776Y324498D01*
X918198Y325928D01*
X916489Y327196D01*
X914663Y328290D01*
X912738Y329200D01*
X910734Y329917D01*
X908669Y330435D01*
X906564Y330747D01*
X904437Y330851D01*
D02*
G37*
G36*
X191605Y780408D02*
X190290D01*
X188986Y780236D01*
X187716Y779896D01*
X186501Y779393D01*
X185362Y778735D01*
X184318Y777934D01*
X183388Y777004D01*
X182588Y775961D01*
X181930Y774822D01*
X181427Y773607D01*
X181086Y772337D01*
X180915Y771033D01*
Y769717D01*
X181086Y768413D01*
X181427Y767143D01*
X181930Y765928D01*
X182588Y764789D01*
X183388Y763746D01*
X184318Y762816D01*
X185362Y762015D01*
X186501Y761357D01*
X187119Y761101D01*
Y709052D01*
X187193Y708306D01*
X187411Y707587D01*
X187764Y706925D01*
X188241Y706345D01*
X255672Y638914D01*
Y598152D01*
X193688Y536168D01*
X108090D01*
X107343Y536095D01*
X106625Y535877D01*
X105963Y535523D01*
X105383Y535047D01*
X93543Y523207D01*
X93067Y522627D01*
X92713Y521965D01*
X92495Y521247D01*
X92422Y520500D01*
Y276250D01*
X92495Y275503D01*
X92713Y274785D01*
X93067Y274123D01*
X93543Y273543D01*
X101043Y266043D01*
X101623Y265567D01*
X102285Y265213D01*
X103003Y264995D01*
X103750Y264922D01*
X106368D01*
Y255695D01*
X104021Y254723D01*
X84328Y274415D01*
Y524414D01*
X101336Y541422D01*
X186000D01*
X186747Y541495D01*
X187465Y541713D01*
X188127Y542067D01*
X188707Y542543D01*
X243655Y597491D01*
X244131Y598071D01*
X244485Y598732D01*
X244702Y599451D01*
X244776Y600198D01*
Y616101D01*
X245395Y616357D01*
X246534Y617015D01*
X247577Y617816D01*
X248507Y618746D01*
X249308Y619789D01*
X249965Y620928D01*
X250469Y622143D01*
X250809Y623414D01*
X250981Y624717D01*
Y626033D01*
X250809Y627337D01*
X250469Y628607D01*
X249965Y629822D01*
X249308Y630961D01*
X248507Y632005D01*
X247577Y632934D01*
X246534Y633735D01*
X245395Y634393D01*
X244179Y634896D01*
X242909Y635236D01*
X241605Y635408D01*
X240290D01*
X238986Y635236D01*
X237716Y634896D01*
X236501Y634393D01*
X235362Y633735D01*
X234318Y632934D01*
X233388Y632005D01*
X232588Y630961D01*
X231930Y629822D01*
X231427Y628607D01*
X231086Y627337D01*
X230915Y626033D01*
Y624717D01*
X231086Y623414D01*
X231427Y622143D01*
X231930Y620928D01*
X232588Y619789D01*
X233388Y618746D01*
X234318Y617816D01*
X235362Y617015D01*
X236501Y616357D01*
X237119Y616101D01*
Y601783D01*
X184414Y549078D01*
X99750D01*
X99003Y549005D01*
X98285Y548787D01*
X97623Y548433D01*
X97043Y547957D01*
X77793Y528707D01*
X77317Y528127D01*
X76963Y527465D01*
X76745Y526747D01*
X76672Y526000D01*
Y272830D01*
X76745Y272083D01*
X76963Y271364D01*
X77317Y270703D01*
X77793Y270123D01*
X104431Y243485D01*
X104623Y243293D01*
X105383Y242501D01*
X106130Y241196D01*
X106368Y240055D01*
Y221870D01*
X126528D01*
Y239631D01*
X126528Y242030D01*
X129009Y242171D01*
X152064D01*
X152811Y242245D01*
X153529Y242463D01*
X154191Y242817D01*
X154771Y243293D01*
X168865Y257387D01*
X169537D01*
X170607Y257600D01*
X171615Y258018D01*
X172523Y258624D01*
X173294Y259396D01*
X173901Y260303D01*
X174318Y261311D01*
X174531Y262381D01*
Y263473D01*
X174318Y264543D01*
X173901Y265551D01*
X173294Y266459D01*
X172523Y267230D01*
X171615Y267836D01*
X170607Y268254D01*
X169537Y268467D01*
X168446D01*
X167375Y268254D01*
X166367Y267836D01*
X165460Y267230D01*
X164688Y266459D01*
X164082Y265551D01*
X163664Y264543D01*
X163451Y263473D01*
Y262801D01*
X150478Y249828D01*
X126528D01*
Y264922D01*
X147744D01*
X148218Y264447D01*
X149126Y263841D01*
X150134Y263423D01*
X151204Y263210D01*
X152296D01*
X153366Y263423D01*
X154374Y263841D01*
X155281Y264447D01*
X156053Y265219D01*
X156659Y266126D01*
X157077Y267134D01*
X157290Y268204D01*
Y269296D01*
X157077Y270366D01*
X156659Y271374D01*
X156053Y272281D01*
X155281Y273053D01*
X154374Y273659D01*
X153366Y274077D01*
X152296Y274290D01*
X151204D01*
X150134Y274077D01*
X149126Y273659D01*
X148218Y273053D01*
X147744Y272578D01*
X129030D01*
X126528Y272670D01*
X126528Y275119D01*
Y292830D01*
X106368D01*
Y275138D01*
X103828Y274086D01*
X100078Y277836D01*
Y518914D01*
X109676Y528512D01*
X195274D01*
X196021Y528585D01*
X196739Y528803D01*
X197401Y529157D01*
X197981Y529633D01*
X262207Y593859D01*
X262683Y594439D01*
X263037Y595101D01*
X263255Y595819D01*
X263328Y596566D01*
Y640500D01*
X263255Y641247D01*
X263037Y641965D01*
X262683Y642627D01*
X262207Y643207D01*
X194776Y710638D01*
Y761101D01*
X195395Y761357D01*
X196534Y762015D01*
X197577Y762816D01*
X198507Y763746D01*
X199308Y764789D01*
X199965Y765928D01*
X200469Y767143D01*
X200809Y768413D01*
X200981Y769717D01*
Y771033D01*
X200809Y772337D01*
X200469Y773607D01*
X199965Y774822D01*
X199308Y775961D01*
X198507Y777004D01*
X197577Y777934D01*
X196534Y778735D01*
X195395Y779393D01*
X194179Y779896D01*
X192909Y780236D01*
X191605Y780408D01*
D02*
G37*
G36*
X126528Y216630D02*
X117718D01*
Y207820D01*
X126528D01*
Y216630D01*
D02*
G37*
G36*
X115178D02*
X106368D01*
Y207820D01*
X115178D01*
Y216630D01*
D02*
G37*
G36*
X304328Y205280D02*
X295518D01*
Y196470D01*
X304328D01*
Y205280D01*
D02*
G37*
G36*
X292978D02*
X284168D01*
Y196470D01*
X292978D01*
Y205280D01*
D02*
G37*
G36*
X126528D02*
X117718D01*
Y196470D01*
X126528D01*
Y205280D01*
D02*
G37*
G36*
X115178D02*
X106368D01*
Y196470D01*
X115178D01*
Y205280D01*
D02*
G37*
G36*
X304328Y191230D02*
X284168D01*
Y171070D01*
X304328D01*
Y191230D01*
D02*
G37*
G36*
X893477Y228196D02*
X863397D01*
Y197616D01*
X864880D01*
X865719Y195076D01*
X865176Y194674D01*
X863599Y193244D01*
X862170Y191667D01*
X860902Y189957D01*
X859807Y188131D01*
X858897Y186207D01*
X858180Y184203D01*
X857663Y182138D01*
X857350Y180032D01*
X857246Y177906D01*
X857350Y175780D01*
X857663Y173674D01*
X858180Y171609D01*
X858813Y169839D01*
X858214Y168643D01*
X857040Y167591D01*
X854971Y167863D01*
X852437Y167974D01*
X849904Y167863D01*
X847390Y167532D01*
X844914Y166983D01*
X842496Y166221D01*
X840153Y165250D01*
X837904Y164079D01*
X835765Y162717D01*
X833753Y161173D01*
X831883Y159460D01*
X830170Y157590D01*
X828627Y155579D01*
X827264Y153440D01*
X826093Y151191D01*
X825123Y148848D01*
X824360Y146429D01*
X823811Y143954D01*
X823480Y141440D01*
X823370Y138906D01*
X823480Y136373D01*
X823811Y133858D01*
X824360Y131383D01*
X825123Y128964D01*
X826093Y126622D01*
X827264Y124372D01*
X828627Y122233D01*
X830170Y120222D01*
X831883Y118352D01*
X833753Y116639D01*
X835765Y115095D01*
X837904Y113733D01*
X840153Y112562D01*
X842496Y111591D01*
X844914Y110829D01*
X847390Y110280D01*
X849904Y109949D01*
X852437Y109838D01*
X854971Y109949D01*
X857485Y110280D01*
X859961Y110829D01*
X862379Y111591D01*
X864722Y112562D01*
X866971Y113733D01*
X869110Y115095D01*
X871122Y116639D01*
X872991Y118352D01*
X874705Y120222D01*
X876248Y122233D01*
X877611Y124372D01*
X878782Y126622D01*
X879752Y128964D01*
X880515Y131383D01*
X881064Y133858D01*
X881395Y136373D01*
X881505Y138906D01*
X881395Y141440D01*
X881064Y143954D01*
X880515Y146429D01*
X879752Y148848D01*
X878782Y151191D01*
X877611Y153440D01*
X877416Y153746D01*
X878852Y156219D01*
X878937Y156215D01*
X881064Y156319D01*
X883169Y156631D01*
X885234Y157149D01*
X887238Y157866D01*
X889163Y158776D01*
X890989Y159870D01*
X892698Y161138D01*
X894276Y162568D01*
X895705Y164145D01*
X896973Y165855D01*
X898068Y167681D01*
X898978Y169605D01*
X899695Y171609D01*
X900212Y173674D01*
X900525Y175780D01*
X900629Y177906D01*
X900525Y180032D01*
X900212Y182138D01*
X899695Y184203D01*
X898978Y186207D01*
X898068Y188131D01*
X896973Y189957D01*
X895705Y191667D01*
X894276Y193244D01*
X892698Y194674D01*
X892156Y195076D01*
X892995Y197616D01*
X893477D01*
Y228196D01*
D02*
G37*
G36*
X66580Y179180D02*
X46420D01*
Y159020D01*
X66580D01*
Y179180D01*
D02*
G37*
G36*
X191605Y635408D02*
X190290D01*
X188986Y635236D01*
X187716Y634896D01*
X186501Y634393D01*
X185362Y633735D01*
X184318Y632934D01*
X183388Y632005D01*
X182588Y630961D01*
X181930Y629822D01*
X181427Y628607D01*
X181086Y627337D01*
X180915Y626033D01*
Y624717D01*
X181086Y623414D01*
X181427Y622143D01*
X181930Y620928D01*
X182588Y619789D01*
X183388Y618746D01*
X184318Y617816D01*
X185362Y617015D01*
X186501Y616357D01*
X187119Y616101D01*
Y573033D01*
X174664Y560578D01*
X93250D01*
X92503Y560505D01*
X91785Y560287D01*
X91123Y559933D01*
X90543Y559457D01*
X66043Y534957D01*
X65567Y534377D01*
X65213Y533715D01*
X64995Y532997D01*
X64922Y532250D01*
Y483980D01*
X57770D01*
Y473900D01*
Y463820D01*
X64922D01*
Y458580D01*
X46420D01*
Y438420D01*
X64922D01*
Y433180D01*
X46420D01*
Y413020D01*
X64922D01*
Y407780D01*
X46420D01*
Y387620D01*
X64922D01*
Y382380D01*
X46420D01*
Y362220D01*
X64922D01*
Y356980D01*
X46420D01*
Y336820D01*
X64922D01*
Y331580D01*
X46420D01*
Y311420D01*
X64922D01*
Y306180D01*
X57770D01*
Y296100D01*
Y286020D01*
X64922D01*
Y280780D01*
X46420D01*
Y260620D01*
X64922D01*
Y255380D01*
X46420D01*
Y235220D01*
X64922D01*
Y229980D01*
X46420D01*
Y209820D01*
X64922D01*
Y204750D01*
X64767Y204580D01*
X46420D01*
Y184420D01*
X66580D01*
Y198187D01*
X68927Y199159D01*
X100993Y167093D01*
X101573Y166617D01*
X102235Y166263D01*
X102953Y166045D01*
X103700Y165971D01*
X103886D01*
X106368Y165830D01*
X106368Y163431D01*
Y145670D01*
X126528D01*
Y163431D01*
X126528Y165830D01*
X129009Y165971D01*
X153094D01*
X153841Y166045D01*
X154559Y166263D01*
X155221Y166617D01*
X155801Y167093D01*
X169771Y181063D01*
X170443D01*
X171513Y181276D01*
X172521Y181694D01*
X173428Y182300D01*
X174200Y183072D01*
X174806Y183979D01*
X175224Y184987D01*
X175437Y186057D01*
Y187149D01*
X175224Y188219D01*
X174806Y189227D01*
X174200Y190135D01*
X173428Y190906D01*
X172521Y191513D01*
X171513Y191930D01*
X170443Y192143D01*
X169351D01*
X168281Y191930D01*
X167273Y191513D01*
X166365Y190906D01*
X165594Y190135D01*
X164987Y189227D01*
X164570Y188219D01*
X164357Y187149D01*
Y186477D01*
X151508Y173628D01*
X126528D01*
Y191230D01*
X106368D01*
Y176138D01*
X103828Y175086D01*
X72578Y206336D01*
Y530664D01*
X94836Y552922D01*
X176250D01*
X176997Y552995D01*
X177715Y553213D01*
X178377Y553567D01*
X178957Y554043D01*
X193655Y568741D01*
X194131Y569321D01*
X194485Y569982D01*
X194702Y570701D01*
X194776Y571448D01*
Y616101D01*
X195395Y616357D01*
X196534Y617015D01*
X197577Y617816D01*
X198507Y618746D01*
X199308Y619789D01*
X199965Y620928D01*
X200469Y622143D01*
X200809Y623414D01*
X200981Y624717D01*
Y626033D01*
X200809Y627337D01*
X200469Y628607D01*
X199965Y629822D01*
X199308Y630961D01*
X198507Y632005D01*
X197577Y632934D01*
X196534Y633735D01*
X195395Y634393D01*
X194179Y634896D01*
X192909Y635236D01*
X191605Y635408D01*
D02*
G37*
G36*
X384296Y254540D02*
X383204D01*
X382134Y254327D01*
X381126Y253909D01*
X380219Y253303D01*
X379447Y252532D01*
X378840Y251624D01*
X378423Y250616D01*
X378210Y249546D01*
Y248874D01*
X333043Y203707D01*
X332567Y203127D01*
X332213Y202465D01*
X331995Y201747D01*
X331922Y201000D01*
Y159588D01*
X317862Y145528D01*
X306809D01*
X304328Y145670D01*
X304328Y148068D01*
Y165830D01*
X284168D01*
Y148068D01*
X284168Y145670D01*
X281687Y145528D01*
X279014D01*
X278267Y145455D01*
X277549Y145237D01*
X276887Y144883D01*
X276307Y144407D01*
X270556Y138656D01*
X269884D01*
X268814Y138443D01*
X267806Y138025D01*
X266898Y137419D01*
X266127Y136647D01*
X265520Y135740D01*
X265103Y134732D01*
X264890Y133661D01*
Y132570D01*
X265103Y131500D01*
X265520Y130492D01*
X266127Y129584D01*
X266898Y128813D01*
X267806Y128206D01*
X268814Y127789D01*
X269884Y127576D01*
X270975D01*
X272046Y127789D01*
X273054Y128206D01*
X273961Y128813D01*
X274733Y129584D01*
X275339Y130492D01*
X275757Y131500D01*
X275970Y132570D01*
Y133242D01*
X280600Y137872D01*
X284168D01*
Y122245D01*
X283930Y121104D01*
X283183Y119799D01*
X282423Y119007D01*
X282230Y118815D01*
X268741Y105325D01*
X268265Y104745D01*
X267911Y104083D01*
X267693Y103365D01*
X267619Y102618D01*
Y96706D01*
X267145Y96231D01*
X266538Y95324D01*
X266121Y94316D01*
X265908Y93245D01*
Y92154D01*
X266121Y91084D01*
X266538Y90076D01*
X267145Y89168D01*
X267916Y88397D01*
X268824Y87790D01*
X269832Y87373D01*
X270902Y87160D01*
X271954Y84620D01*
X270241Y82907D01*
X269765Y82327D01*
X269411Y81665D01*
X269193Y80947D01*
X269119Y80200D01*
Y55956D01*
X268645Y55481D01*
X268038Y54574D01*
X267621Y53566D01*
X267408Y52495D01*
Y51404D01*
X267621Y50334D01*
X268038Y49326D01*
X268645Y48418D01*
X269416Y47647D01*
X270324Y47040D01*
X271332Y46623D01*
X272402Y46410D01*
X273493D01*
X274564Y46623D01*
X275572Y47040D01*
X276479Y47647D01*
X277251Y48418D01*
X277857Y49326D01*
X278275Y50334D01*
X278488Y51404D01*
Y52495D01*
X278275Y53566D01*
X277857Y54574D01*
X277251Y55481D01*
X276776Y55956D01*
Y78614D01*
X281821Y83659D01*
X284168Y82687D01*
Y80820D01*
X294248D01*
X304328D01*
Y89630D01*
X306809Y89771D01*
X346348D01*
X347095Y89845D01*
X347813Y90063D01*
X348475Y90417D01*
X349055Y90893D01*
X375405Y117243D01*
X375881Y117823D01*
X376235Y118485D01*
X376453Y119203D01*
X376526Y119950D01*
Y188898D01*
X377001Y189373D01*
X377607Y190280D01*
X378025Y191288D01*
X378238Y192358D01*
Y193450D01*
X378025Y194520D01*
X377607Y195528D01*
X377001Y196436D01*
X376229Y197207D01*
X375322Y197814D01*
X374314Y198231D01*
X373243Y198444D01*
X372152D01*
X371082Y198231D01*
X370074Y197814D01*
X369166Y197207D01*
X368395Y196436D01*
X367788Y195528D01*
X367371Y194520D01*
X367158Y193450D01*
Y192358D01*
X367371Y191288D01*
X367788Y190280D01*
X368395Y189373D01*
X368869Y188898D01*
Y121536D01*
X344762Y97428D01*
X304328D01*
Y112472D01*
X331298D01*
X332045Y112545D01*
X332763Y112763D01*
X333425Y113117D01*
X334005Y113593D01*
X358457Y138045D01*
X358933Y138625D01*
X359287Y139287D01*
X359505Y140005D01*
X359578Y140752D01*
Y200743D01*
X382624Y223789D01*
X383296D01*
X384366Y224001D01*
X385374Y224419D01*
X386282Y225025D01*
X387053Y225797D01*
X387659Y226704D01*
X388077Y227712D01*
X388290Y228783D01*
Y229874D01*
X388077Y230944D01*
X387659Y231953D01*
X387053Y232860D01*
X386282Y233632D01*
X385374Y234238D01*
X384366Y234655D01*
X383296Y234868D01*
X382204D01*
X381134Y234655D01*
X380126Y234238D01*
X379218Y233632D01*
X378447Y232860D01*
X377840Y231953D01*
X377423Y230944D01*
X377210Y229874D01*
Y229203D01*
X353043Y205035D01*
X352567Y204455D01*
X352213Y203794D01*
X351995Y203075D01*
X351922Y202328D01*
Y142338D01*
X329712Y120128D01*
X306809D01*
X304328Y120270D01*
X304328Y122668D01*
Y137872D01*
X319448D01*
X320195Y137945D01*
X320913Y138163D01*
X321575Y138517D01*
X322155Y138993D01*
X338457Y155295D01*
X338933Y155875D01*
X339287Y156537D01*
X339505Y157255D01*
X339578Y158002D01*
Y199414D01*
X383624Y243460D01*
X384296D01*
X385366Y243673D01*
X386374Y244090D01*
X387281Y244697D01*
X388053Y245469D01*
X388660Y246376D01*
X389077Y247384D01*
X389290Y248454D01*
Y249546D01*
X389077Y250616D01*
X388660Y251624D01*
X388053Y252532D01*
X387281Y253303D01*
X386374Y253909D01*
X385366Y254327D01*
X384296Y254540D01*
D02*
G37*
G36*
X126528Y140430D02*
X106368D01*
Y120270D01*
X126528D01*
Y140430D01*
D02*
G37*
G36*
X621975Y109230D02*
X616605D01*
Y98960D01*
X621975D01*
Y109230D01*
D02*
G37*
G36*
X816838Y109180D02*
X811468D01*
Y98910D01*
X816838D01*
Y109180D01*
D02*
G37*
G36*
X429338D02*
X423968D01*
Y98910D01*
X429338D01*
Y109180D01*
D02*
G37*
G36*
X126528Y115030D02*
X106368D01*
Y94870D01*
X126528D01*
Y115030D01*
D02*
G37*
G36*
Y89630D02*
X117718D01*
Y80820D01*
X126528D01*
Y89630D01*
D02*
G37*
G36*
X115178D02*
X106368D01*
Y80820D01*
X115178D01*
Y89630D01*
D02*
G37*
G36*
X304328Y78280D02*
X295518D01*
Y69470D01*
X304328D01*
Y78280D01*
D02*
G37*
G36*
X292978D02*
X284168D01*
Y69470D01*
X292978D01*
Y78280D01*
D02*
G37*
G36*
X126528D02*
X117718D01*
Y69470D01*
X126528D01*
Y78280D01*
D02*
G37*
G36*
X115178D02*
X106368D01*
Y69470D01*
X115178D01*
Y78280D01*
D02*
G37*
G36*
X904437Y135848D02*
X902311Y135743D01*
X900206Y135431D01*
X898141Y134914D01*
X896136Y134196D01*
X894212Y133286D01*
X892386Y132192D01*
X890676Y130924D01*
X889099Y129494D01*
X887670Y127917D01*
X886402Y126207D01*
X885307Y124381D01*
X884397Y122457D01*
X883680Y120453D01*
X883163Y118388D01*
X882850Y116282D01*
X882746Y114156D01*
X882850Y112030D01*
X883163Y109924D01*
X883680Y107859D01*
X884397Y105855D01*
X885307Y103931D01*
X886402Y102105D01*
X887670Y100395D01*
X889099Y98818D01*
X890676Y97388D01*
X892230Y96236D01*
X892252Y95920D01*
X891104Y93696D01*
X890147D01*
Y63116D01*
X920227D01*
Y93696D01*
X917771D01*
X916623Y95920D01*
X916645Y96236D01*
X918198Y97388D01*
X919776Y98818D01*
X921205Y100395D01*
X922473Y102105D01*
X923568Y103931D01*
X924478Y105855D01*
X925195Y107859D01*
X925712Y109924D01*
X926024Y112030D01*
X926129Y114156D01*
X926024Y116282D01*
X925712Y118388D01*
X925195Y120453D01*
X924478Y122457D01*
X923568Y124381D01*
X922473Y126207D01*
X921205Y127917D01*
X919776Y129494D01*
X918198Y130924D01*
X916489Y132192D01*
X914663Y133286D01*
X912738Y134196D01*
X910734Y134914D01*
X908669Y135431D01*
X906564Y135743D01*
X904437Y135848D01*
D02*
G37*
G36*
X709475Y135763D02*
X707349Y135658D01*
X705243Y135346D01*
X703178Y134829D01*
X701174Y134111D01*
X699249Y133201D01*
X697424Y132107D01*
X695714Y130839D01*
X694137Y129409D01*
X692707Y127832D01*
X691439Y126122D01*
X690345Y124297D01*
X689435Y122372D01*
X688717Y120368D01*
X688200Y118303D01*
X687888Y116197D01*
X687783Y114071D01*
X687888Y111945D01*
X688200Y109839D01*
X688717Y107774D01*
X689435Y105770D01*
X690345Y103846D01*
X691439Y102020D01*
X692707Y100310D01*
X694137Y98733D01*
X695714Y97303D01*
X697268Y96151D01*
X697289Y95836D01*
X696142Y93611D01*
X695185D01*
Y63031D01*
X725265D01*
Y93611D01*
X722808D01*
X721660Y95836D01*
X721682Y96151D01*
X723236Y97303D01*
X724813Y98733D01*
X726243Y100310D01*
X727511Y102020D01*
X728605Y103846D01*
X729515Y105770D01*
X730232Y107774D01*
X730750Y109839D01*
X731062Y111945D01*
X731166Y114071D01*
X731062Y116197D01*
X730750Y118303D01*
X730232Y120368D01*
X729515Y122372D01*
X728605Y124297D01*
X727511Y126122D01*
X726243Y127832D01*
X724813Y129409D01*
X723236Y130839D01*
X721526Y132107D01*
X719700Y133201D01*
X717776Y134111D01*
X715771Y134829D01*
X713707Y135346D01*
X711601Y135658D01*
X709475Y135763D01*
D02*
G37*
G36*
X516467Y135098D02*
X514341Y134993D01*
X512236Y134681D01*
X510171Y134163D01*
X508166Y133446D01*
X506242Y132536D01*
X504416Y131442D01*
X502706Y130174D01*
X501129Y128744D01*
X499700Y127167D01*
X498432Y125457D01*
X497337Y123631D01*
X496427Y121707D01*
X495710Y119703D01*
X495193Y117638D01*
X494880Y115532D01*
X494776Y113406D01*
X494880Y111280D01*
X495193Y109174D01*
X495710Y107109D01*
X496427Y105105D01*
X497337Y103181D01*
X498432Y101355D01*
X499700Y99645D01*
X501129Y98068D01*
X502706Y96638D01*
X504260Y95486D01*
X504282Y95170D01*
X503134Y92946D01*
X502177D01*
Y62366D01*
X532257D01*
Y92946D01*
X529801D01*
X528653Y95170D01*
X528675Y95486D01*
X530228Y96638D01*
X531806Y98068D01*
X533235Y99645D01*
X534503Y101355D01*
X535598Y103181D01*
X536508Y105105D01*
X537225Y107109D01*
X537742Y109174D01*
X538054Y111280D01*
X538159Y113406D01*
X538054Y115532D01*
X537742Y117638D01*
X537225Y119703D01*
X536508Y121707D01*
X535598Y123631D01*
X534503Y125457D01*
X533235Y127167D01*
X531806Y128744D01*
X530228Y130174D01*
X528519Y131442D01*
X526693Y132536D01*
X524768Y133446D01*
X522764Y134163D01*
X520699Y134681D01*
X518594Y134993D01*
X516467Y135098D01*
D02*
G37*
G36*
X304328Y64230D02*
X284168D01*
Y44070D01*
X304328D01*
Y64230D01*
D02*
G37*
G36*
X126528D02*
X106368D01*
Y44070D01*
X126528D01*
Y64230D01*
D02*
G37*
G36*
X967538Y73609D02*
X965201Y73494D01*
X962887Y73151D01*
X960618Y72582D01*
X958415Y71794D01*
X956300Y70794D01*
X954294Y69591D01*
X952415Y68197D01*
X950681Y66626D01*
X949110Y64893D01*
X947717Y63014D01*
X946514Y61007D01*
X945514Y58893D01*
X944726Y56690D01*
X944157Y54421D01*
X943814Y52106D01*
X943699Y49770D01*
X943814Y47433D01*
X944157Y45119D01*
X944726Y42850D01*
X945514Y40647D01*
X946514Y38532D01*
X947717Y36526D01*
X949110Y34647D01*
X950681Y32913D01*
X952415Y31342D01*
X954294Y29949D01*
X956300Y28746D01*
X958415Y27746D01*
X960618Y26958D01*
X962887Y26389D01*
X965201Y26046D01*
X967538Y25931D01*
X969874Y26046D01*
X972189Y26389D01*
X974458Y26958D01*
X976661Y27746D01*
X978775Y28746D01*
X980782Y29949D01*
X982661Y31342D01*
X984394Y32913D01*
X985965Y34647D01*
X987359Y36526D01*
X988562Y38532D01*
X989562Y40647D01*
X990350Y42850D01*
X990919Y45119D01*
X991262Y47433D01*
X991377Y49770D01*
X991262Y52106D01*
X990919Y54421D01*
X990350Y56690D01*
X989562Y58893D01*
X988562Y61007D01*
X987359Y63014D01*
X985965Y64893D01*
X984394Y66626D01*
X982661Y68197D01*
X980782Y69591D01*
X978775Y70794D01*
X976661Y71794D01*
X974458Y72582D01*
X972189Y73151D01*
X969874Y73494D01*
X967538Y73609D01*
D02*
G37*
G36*
X46138D02*
X43801Y73494D01*
X41487Y73151D01*
X39218Y72582D01*
X37015Y71794D01*
X34901Y70794D01*
X32894Y69591D01*
X31015Y68197D01*
X29282Y66626D01*
X27710Y64893D01*
X26317Y63014D01*
X25114Y61007D01*
X24114Y58893D01*
X23326Y56690D01*
X22757Y54421D01*
X22414Y52106D01*
X22299Y49770D01*
X22414Y47433D01*
X22757Y45119D01*
X23326Y42850D01*
X24114Y40647D01*
X25114Y38532D01*
X26317Y36526D01*
X27710Y34647D01*
X29282Y32913D01*
X31015Y31342D01*
X32894Y29949D01*
X34901Y28746D01*
X37015Y27746D01*
X39218Y26958D01*
X41487Y26389D01*
X43801Y26046D01*
X46138Y25931D01*
X48475Y26046D01*
X50789Y26389D01*
X53058Y26958D01*
X55261Y27746D01*
X57376Y28746D01*
X59382Y29949D01*
X61261Y31342D01*
X62995Y32913D01*
X64566Y34647D01*
X65959Y36526D01*
X67162Y38532D01*
X68162Y40647D01*
X68950Y42850D01*
X69519Y45119D01*
X69862Y47433D01*
X69977Y49770D01*
X69862Y52106D01*
X69519Y54421D01*
X68950Y56690D01*
X68162Y58893D01*
X67162Y61007D01*
X65959Y63014D01*
X64566Y64893D01*
X62995Y66626D01*
X61261Y68197D01*
X59382Y69591D01*
X57376Y70794D01*
X55261Y71794D01*
X53058Y72582D01*
X50789Y73151D01*
X48475Y73494D01*
X46138Y73609D01*
D02*
G37*
%LPD*%
D32*
X190948Y625375D02*
D03*
X215948D02*
D03*
X240948D02*
D03*
X190948Y770375D02*
D03*
X240948D02*
D03*
D34*
X336188Y79550D02*
X343238Y72500D01*
X294248Y79550D02*
X336188D01*
X343238Y72500D02*
X377250D01*
X306250Y731477D02*
X343268Y768495D01*
X306250Y502165D02*
Y731477D01*
X304085Y500000D02*
X306250Y502165D01*
X259835Y533500D02*
X295500Y569165D01*
Y748131D02*
X333365Y785997D01*
X295500Y569165D02*
Y748131D01*
X68750Y204750D02*
X103700Y169800D01*
X68750Y204750D02*
Y532250D01*
X103700Y169800D02*
X153094D01*
X370250Y361750D02*
X408000Y399500D01*
X370250Y264502D02*
Y361750D01*
X103335Y687380D02*
X120084Y704130D01*
X103335Y593665D02*
Y687380D01*
X545250Y109750D02*
Y189287D01*
X493532Y241005D02*
X545250Y189287D01*
X493532Y241005D02*
Y319606D01*
X519250Y345324D01*
Y437985D01*
X493532Y463703D02*
X519250Y437985D01*
X493532Y463703D02*
Y517356D01*
X513903Y537727D01*
Y635356D01*
X422198Y556450D02*
Y666637D01*
X406585Y682250D02*
X422198Y666637D01*
X407250Y289500D02*
X422698Y274052D01*
Y163950D02*
Y274052D01*
X335750Y201000D02*
X383750Y249000D01*
X335750Y158002D02*
Y201000D01*
X355750Y140752D02*
Y202328D01*
X382750Y229328D01*
X319448Y141700D02*
X335750Y158002D01*
X331298Y116300D02*
X355750Y140752D01*
X316835Y488069D02*
Y717835D01*
X356750Y757750D01*
X333840Y584068D02*
X388358Y638586D01*
X333840Y428874D02*
Y584068D01*
X344000Y549134D02*
X400022Y605156D01*
X338920Y566170D02*
X394750Y622000D01*
X344000Y380684D02*
Y549134D01*
X306048Y370300D02*
X338920Y403172D01*
X308216Y344900D02*
X344000Y380684D01*
X338920Y403172D02*
Y566170D01*
X303366Y398400D02*
X333840Y428874D01*
X357250Y305002D02*
Y391744D01*
X397546Y432040D01*
X321948Y269700D02*
X357250Y305002D01*
X364250Y375000D02*
X406250Y417000D01*
X315298Y243300D02*
X364250Y292252D01*
Y375000D01*
X324998Y219250D02*
X370250Y264502D01*
X285130Y344900D02*
X308216D01*
X284498Y219250D02*
X324998D01*
X270331Y205083D02*
X284498Y219250D01*
X270331Y175117D02*
Y205083D01*
X270836Y487836D02*
X283000Y500000D01*
X270836Y477551D02*
Y487836D01*
X283000Y500000D02*
X304085D01*
X233335Y430419D02*
X282596Y479680D01*
X269983Y459883D02*
X283350Y473250D01*
X287978Y479680D02*
X294248Y485950D01*
X269983Y435034D02*
Y459883D01*
X233335Y279085D02*
Y430419D01*
X282596Y479680D02*
X287978D01*
X283350Y473250D02*
X302016D01*
X566250Y88750D02*
X592250D01*
X600335Y96835D01*
Y110500D01*
X545250Y109750D02*
X566250Y88750D01*
X433327Y715931D02*
X513903Y635356D01*
X148000Y193750D02*
X233335Y279085D01*
X99750Y545250D02*
X186000D01*
X240948Y600198D01*
X80500Y526000D02*
X99750Y545250D01*
X190948Y709052D02*
X259500Y640500D01*
Y596566D02*
Y640500D01*
X195274Y532340D02*
X259500Y596566D01*
X240948Y600198D02*
Y625375D01*
X96250Y276250D02*
Y520500D01*
X108090Y532340D01*
X195274D01*
X80500Y272830D02*
Y526000D01*
X68750Y532250D02*
X93250Y556750D01*
X176250D01*
X190948Y571448D01*
X103335Y593665D02*
X118000Y579000D01*
X80500Y272830D02*
X107330Y246000D01*
X795000Y164148D02*
Y178750D01*
Y164148D02*
X795198Y163950D01*
X600986Y359238D02*
Y373649D01*
X600948Y359200D02*
X600986Y359238D01*
X600335Y164000D02*
X600413Y164078D01*
Y178455D01*
X391000Y81500D02*
X407698Y98198D01*
X377500Y81500D02*
X391000D01*
X407250Y305665D02*
X407335Y305750D01*
X407250Y289500D02*
Y305665D01*
X599835Y556500D02*
X600052Y556717D01*
Y571071D01*
X795426Y359678D02*
Y372459D01*
X794948Y359200D02*
X795426Y359678D01*
X795250Y556752D02*
Y571250D01*
X794948Y556450D02*
X795250Y556752D01*
X795198Y753450D02*
X795678Y753930D01*
Y768788D01*
X600585Y753500D02*
X601108Y754023D01*
Y768354D01*
X406585Y753500D02*
X406936Y753851D01*
Y768923D01*
X407614Y556866D02*
Y571597D01*
X407198Y556450D02*
X407614Y556866D01*
X407024Y359561D02*
X407335Y359250D01*
X407024Y359561D02*
Y375196D01*
X407698Y163950D02*
X408000Y164252D01*
Y181500D01*
X407698Y98198D02*
Y110450D01*
X147448Y318613D02*
X213250Y384415D01*
X147448Y294131D02*
Y318613D01*
X213250Y384415D02*
Y443185D01*
X281415Y511350D01*
X294248D01*
X103750Y268750D02*
X151750D01*
X96250Y276250D02*
X103750Y268750D01*
X190948Y709052D02*
Y770375D01*
X148847Y142849D02*
X152099D01*
X249750Y240500D02*
Y390652D01*
X148198Y142200D02*
X148847Y142849D01*
X152099D02*
X249750Y240500D01*
X153094Y169800D02*
X169897Y186603D01*
X107330Y246000D02*
X152064D01*
X168991Y262927D01*
X190948Y571448D02*
Y625375D01*
X249750Y390652D02*
X294248Y435150D01*
X794948Y280802D02*
Y305700D01*
Y280802D02*
X810198Y265552D01*
Y163950D02*
Y265552D01*
X600750Y261750D02*
X615775Y246725D01*
Y164123D02*
Y246725D01*
X600750Y261750D02*
Y305502D01*
X600585Y653665D02*
Y700000D01*
Y653665D02*
X614835Y639415D01*
Y556500D02*
Y639415D01*
X599835Y472915D02*
Y503000D01*
Y472915D02*
X615948Y456802D01*
Y359200D02*
Y456802D01*
X421585Y753500D02*
X428500D01*
X433327Y715931D02*
Y748673D01*
X428500Y753500D02*
X433327Y748673D01*
X600750Y305502D02*
X600948Y305700D01*
X302016Y473250D02*
X316835Y488069D01*
X406585Y682250D02*
Y700000D01*
X615775Y164123D02*
X615948Y163950D01*
X286160Y398400D02*
X303366D01*
X270369Y382608D02*
X286160Y398400D01*
X285130Y370300D02*
X306048D01*
X270198Y355368D02*
X285130Y370300D01*
X270198Y341450D02*
Y355368D01*
X269948Y329718D02*
X285130Y344900D01*
X269948Y299950D02*
Y329718D01*
X286130Y269700D02*
X321948D01*
X271888Y255458D02*
X286130Y269700D01*
X271888Y248450D02*
Y255458D01*
X270388Y228558D02*
X285130Y243300D01*
X270388Y216172D02*
Y228558D01*
X285130Y243300D02*
X315298D01*
X285130Y116300D02*
X331298D01*
X346348Y93600D02*
X372698Y119950D01*
Y192904D01*
X279014Y141700D02*
X319448D01*
X270430Y133116D02*
X279014Y141700D01*
X271448Y102618D02*
X285130Y116300D01*
X271448Y92700D02*
Y102618D01*
X286348Y93600D02*
X346348D01*
X272948Y80200D02*
X286348Y93600D01*
X272948Y51950D02*
Y80200D01*
D35*
X657740Y728914D02*
D03*
X852437Y728766D02*
D03*
X464467Y138156D02*
D03*
X657475Y138821D02*
D03*
X852437Y138906D02*
D03*
X464467Y333406D02*
D03*
X657967Y333906D02*
D03*
X852437Y333910D02*
D03*
X464467Y531156D02*
D03*
X657006Y531663D02*
D03*
X852757Y532576D02*
D03*
X463637Y728486D02*
D03*
D36*
X684240Y767914D02*
D03*
X709740Y704164D02*
D03*
X904437Y704016D02*
D03*
X878937Y767766D02*
D03*
X516467Y113406D02*
D03*
X490967Y177156D02*
D03*
X709475Y114071D02*
D03*
X683975Y177821D02*
D03*
X878937Y177906D02*
D03*
X904437Y114156D02*
D03*
X490967Y372406D02*
D03*
X516467Y308656D02*
D03*
X709967Y309156D02*
D03*
X684467Y372906D02*
D03*
X904437Y309160D02*
D03*
X878937Y372910D02*
D03*
X490967Y570156D02*
D03*
X516467Y506406D02*
D03*
X683506Y570663D02*
D03*
X709006Y506913D02*
D03*
X879257Y571576D02*
D03*
X904758Y507826D02*
D03*
X515637Y703736D02*
D03*
X490137Y767486D02*
D03*
D38*
X160948Y700375D02*
D03*
X270948D02*
D03*
D39*
X40335Y700380D02*
D03*
X116335D02*
D03*
D40*
X377250Y72500D02*
D03*
X205250Y446250D02*
D03*
X408000Y399500D02*
D03*
X383750Y249000D02*
D03*
X382750Y229328D02*
D03*
X489191Y207504D02*
D03*
X372698Y192904D02*
D03*
X333365Y785997D02*
D03*
X356750Y757750D02*
D03*
X388358Y638586D02*
D03*
X491013Y399829D02*
D03*
X397546Y432040D02*
D03*
X406250Y417000D02*
D03*
X876000Y808500D02*
D03*
X680894Y809280D02*
D03*
X487500Y801750D02*
D03*
X343268Y768495D02*
D03*
X488618Y604845D02*
D03*
X400022Y605156D02*
D03*
X394750Y622000D02*
D03*
X270836Y477551D02*
D03*
X204069Y217313D02*
D03*
X205839Y261219D02*
D03*
X118000Y579000D02*
D03*
X795000Y178750D02*
D03*
X762750Y125500D02*
D03*
X600986Y373649D02*
D03*
X582500Y310500D02*
D03*
X600413Y178455D02*
D03*
X582250Y114500D02*
D03*
X377500Y81500D02*
D03*
X600052Y571071D02*
D03*
X582000Y508000D02*
D03*
X776050Y310655D02*
D03*
X795426Y372459D02*
D03*
X776250Y505250D02*
D03*
X795250Y571250D02*
D03*
X795678Y768788D02*
D03*
X777250Y703750D02*
D03*
X601108Y768354D02*
D03*
X582793Y705004D02*
D03*
X406936Y768923D02*
D03*
X388207Y703015D02*
D03*
X407614Y571597D02*
D03*
X388500Y507000D02*
D03*
X407024Y375196D02*
D03*
X389500Y308250D02*
D03*
X408000Y181500D02*
D03*
X388750Y110500D02*
D03*
X269983Y435034D02*
D03*
X151750Y268750D02*
D03*
X180646Y132689D02*
D03*
X182500Y323250D02*
D03*
X180000Y303250D02*
D03*
X180049Y208403D02*
D03*
X206499Y187618D02*
D03*
X168991Y262927D02*
D03*
X148000Y193750D02*
D03*
X169897Y186603D02*
D03*
X205250Y92000D02*
D03*
X912250Y77000D02*
D03*
X898000Y76750D02*
D03*
X716500D02*
D03*
X704250D02*
D03*
X523750Y76000D02*
D03*
X510550Y76286D02*
D03*
X874925Y212041D02*
D03*
X682747Y216928D02*
D03*
X876500Y607000D02*
D03*
X679500Y604500D02*
D03*
X874750Y409500D02*
D03*
X681003Y408419D02*
D03*
X147448Y294131D02*
D03*
X148198Y142200D02*
D03*
X259835Y533500D02*
D03*
X510698Y466450D02*
D03*
X271888Y248450D02*
D03*
X271448Y92700D02*
D03*
X272948Y51950D02*
D03*
X270369Y382608D02*
D03*
X270331Y175117D02*
D03*
X270198Y341450D02*
D03*
X269948Y299950D02*
D03*
X270388Y216172D02*
D03*
X270430Y133116D02*
D03*
X205519Y237064D02*
D03*
X205250Y387825D02*
D03*
Y363000D02*
D03*
Y507200D02*
D03*
Y487304D02*
D03*
Y467408D02*
D03*
X205500Y298750D02*
D03*
X204148Y282806D02*
D03*
X205500Y320000D02*
D03*
X205250Y427616D02*
D03*
Y407720D02*
D03*
X204148Y342493D02*
D03*
Y174511D02*
D03*
Y155040D02*
D03*
X205250Y132750D02*
D03*
Y112500D02*
D03*
Y69492D02*
D03*
Y49596D02*
D03*
Y29700D02*
D03*
X912198Y660700D02*
D03*
X898448D02*
D03*
X717198D02*
D03*
X704198Y660950D02*
D03*
X521948Y659950D02*
D03*
X508698D02*
D03*
X911448Y466950D02*
D03*
X899198D02*
D03*
X715698Y465700D02*
D03*
X703347Y466001D02*
D03*
X522948Y466200D02*
D03*
Y267700D02*
D03*
X510448D02*
D03*
X703698Y268950D02*
D03*
X718198Y269200D02*
D03*
X898448Y268450D02*
D03*
X912698Y268700D02*
D03*
D41*
X683740Y802914D02*
D03*
X710490Y668414D02*
D03*
X878437Y802766D02*
D03*
X905187Y668266D02*
D03*
X490467Y212156D02*
D03*
X517217Y77656D02*
D03*
X683475Y212821D02*
D03*
X710225Y78321D02*
D03*
X878437Y212906D02*
D03*
X905187Y78406D02*
D03*
X490467Y407406D02*
D03*
X517217Y272906D02*
D03*
X683967Y407906D02*
D03*
X710717Y273406D02*
D03*
X878437Y407910D02*
D03*
X905187Y273410D02*
D03*
X517217Y470656D02*
D03*
X490467Y605156D02*
D03*
X683006Y605663D02*
D03*
X709756Y471163D02*
D03*
X878757Y606576D02*
D03*
X905508Y472076D02*
D03*
X489637Y802486D02*
D03*
X516387Y667986D02*
D03*
D42*
X810198Y163950D02*
D03*
X795198D02*
D03*
Y110450D02*
D03*
X810198D02*
D03*
X422698D02*
D03*
X407698D02*
D03*
Y163950D02*
D03*
X422698D02*
D03*
X422335Y359250D02*
D03*
X407335D02*
D03*
Y305750D02*
D03*
X422335D02*
D03*
X422198Y502950D02*
D03*
X407198D02*
D03*
Y556450D02*
D03*
X422198D02*
D03*
X421585Y753500D02*
D03*
X406585D02*
D03*
Y700000D02*
D03*
X421585D02*
D03*
X615335Y110500D02*
D03*
X600335D02*
D03*
Y164000D02*
D03*
X615335D02*
D03*
X615948Y359200D02*
D03*
X600948D02*
D03*
Y305700D02*
D03*
X615948D02*
D03*
X614835Y503000D02*
D03*
X599835D02*
D03*
Y556500D02*
D03*
X614835D02*
D03*
X615585Y753500D02*
D03*
X600585D02*
D03*
Y700000D02*
D03*
X615585D02*
D03*
X809948Y305700D02*
D03*
X794948D02*
D03*
Y359200D02*
D03*
X809948D02*
D03*
Y556450D02*
D03*
X794948D02*
D03*
Y502950D02*
D03*
X809948D02*
D03*
X810198Y699950D02*
D03*
X795198D02*
D03*
Y753450D02*
D03*
X810198D02*
D03*
D43*
X674000Y276250D02*
X706540Y243710D01*
Y157710D02*
Y243710D01*
Y157710D02*
X754639Y109611D01*
Y109611D02*
X794359D01*
X674000Y276250D02*
Y307597D01*
X716000Y349597D01*
Y425750D01*
X674250Y467500D02*
Y506565D01*
Y467500D02*
X716000Y425750D01*
X627800Y706950D02*
X706071Y628679D01*
Y538387D02*
Y628679D01*
X627800Y706950D02*
Y748450D01*
X674250Y506565D02*
X706071Y538387D01*
X406750Y487750D02*
X422335Y472165D01*
Y359250D02*
Y472165D01*
X794359Y109611D02*
X795198Y110450D01*
X406750Y502502D02*
X407198Y502950D01*
X406750Y487750D02*
Y502502D01*
X794948Y406302D02*
Y502950D01*
X809948Y359200D02*
Y391302D01*
X794948Y406302D02*
X809948Y391302D01*
X795198Y659552D02*
X809948Y644802D01*
X795198Y659552D02*
Y699950D01*
X809948Y556450D02*
Y644802D01*
X622750Y753500D02*
X627800Y748450D01*
X615585Y753500D02*
X622750D01*
D44*
X116448Y28750D02*
D03*
Y54150D02*
D03*
Y79550D02*
D03*
Y130350D02*
D03*
Y104950D02*
D03*
Y333550D02*
D03*
Y308150D02*
D03*
Y460550D02*
D03*
Y358950D02*
D03*
Y409750D02*
D03*
Y435150D02*
D03*
Y384350D02*
D03*
Y485950D02*
D03*
Y511350D02*
D03*
Y206550D02*
D03*
Y231950D02*
D03*
Y282750D02*
D03*
Y257350D02*
D03*
Y155750D02*
D03*
Y181150D02*
D03*
X294248Y28750D02*
D03*
Y79550D02*
D03*
Y104950D02*
D03*
Y130350D02*
D03*
Y155750D02*
D03*
Y54150D02*
D03*
Y308150D02*
D03*
Y384350D02*
D03*
Y282750D02*
D03*
Y435150D02*
D03*
Y409750D02*
D03*
Y358950D02*
D03*
Y333550D02*
D03*
Y257350D02*
D03*
Y231950D02*
D03*
Y206550D02*
D03*
Y181150D02*
D03*
Y511350D02*
D03*
Y485950D02*
D03*
Y460550D02*
D03*
X56500Y473900D02*
D03*
Y448500D02*
D03*
Y423100D02*
D03*
Y372300D02*
D03*
Y397700D02*
D03*
Y194500D02*
D03*
Y296100D02*
D03*
Y270700D02*
D03*
Y219900D02*
D03*
Y245300D02*
D03*
Y346900D02*
D03*
Y321500D02*
D03*
Y169100D02*
D03*
M02*
