G04*
G04 #@! TF.GenerationSoftware,Altium Limited,Altium Designer,26.5.0 (11)*
G04*
G04 Layer_Color=32768*
G04 Board_Origin=73230399|66045281*
%FSLAX44Y44*%
%MOMM*%
G71*
G04*
G04 #@! TF.SameCoordinates,D8E93972-0857-4CFD-BA1B-23267FE283D4*
G04*
G04*
G04 #@! TF.FilePolarity,Positive*
G04*
G01*
G75*
%ADD12C,0.5080*%
%ADD34C,0.2540*%
%ADD51C,0.9000*%
%ADD52C,0.4000*%
D12*
X1376478Y43710D02*
X1776478D01*
X1376478Y128960D02*
X1778278D01*
X1376478Y-6290D02*
Y129120D01*
X1706478Y88960D02*
Y128960D01*
X1778278Y-6630D02*
Y128960D01*
X1376478Y88960D02*
X1776478D01*
X1376478Y-6290D02*
X1776478D01*
D34*
X1391476Y13710D02*
X1386478D01*
Y28705D01*
X1391476D01*
X1398974Y13710D02*
Y28705D01*
X1408971Y13710D01*
Y28705D01*
X1416468Y13710D02*
X1421467D01*
X1423966Y16209D01*
Y21207D01*
X1421467Y23707D01*
X1416468D01*
X1413969Y21207D01*
Y16209D01*
X1416468Y13710D01*
X1443959Y28705D02*
Y18708D01*
X1448958Y13710D01*
X1453956Y18708D01*
Y28705D01*
X1461454Y23707D02*
X1466452D01*
X1468951Y21207D01*
Y13710D01*
X1461454D01*
X1458954Y16209D01*
X1461454Y18708D01*
X1468951D01*
X1473950Y23707D02*
Y13710D01*
Y18708D01*
X1476449Y21207D01*
X1478948Y23707D01*
X1481447D01*
X1488945Y13710D02*
X1493943D01*
X1491444D01*
Y23707D01*
X1488945D01*
X1503940D02*
X1508938D01*
X1511437Y21207D01*
Y13710D01*
X1503940D01*
X1501441Y16209D01*
X1503940Y18708D01*
X1511437D01*
X1518935Y26206D02*
Y23707D01*
X1516436D01*
X1521434D01*
X1518935D01*
Y16209D01*
X1521434Y13710D01*
X1528932D02*
X1533930D01*
X1531431D01*
Y23707D01*
X1528932D01*
X1543927Y13710D02*
X1548925D01*
X1551425Y16209D01*
Y21207D01*
X1548925Y23707D01*
X1543927D01*
X1541428Y21207D01*
Y16209D01*
X1543927Y13710D01*
X1556423D02*
Y23707D01*
X1563920D01*
X1566420Y21207D01*
Y13710D01*
X1571418D02*
X1578916D01*
X1581415Y16209D01*
X1578916Y18708D01*
X1573917D01*
X1571418Y21207D01*
X1573917Y23707D01*
X1581415D01*
X1586413Y13710D02*
X1591411D01*
Y28705D01*
X1586413D01*
X1726478Y98960D02*
Y113955D01*
X1733975D01*
X1736475Y111456D01*
Y106458D01*
X1733975Y103958D01*
X1726478D01*
X1741473Y98960D02*
X1746471D01*
X1743972D01*
Y113955D01*
X1741473Y111456D01*
X1386478Y98960D02*
Y113955D01*
X1391476Y108957D01*
X1396475Y113955D01*
Y98960D01*
X1403972Y108957D02*
X1408971D01*
X1411470Y106458D01*
Y98960D01*
X1403972D01*
X1401473Y101459D01*
X1403972Y103958D01*
X1411470D01*
X1426465Y108957D02*
X1418967D01*
X1416468Y106458D01*
Y101459D01*
X1418967Y98960D01*
X1426465D01*
X1431463Y108957D02*
Y98960D01*
Y103958D01*
X1433963Y106458D01*
X1436462Y108957D01*
X1438961D01*
X1448958Y98960D02*
X1453956D01*
X1456455Y101459D01*
Y106458D01*
X1453956Y108957D01*
X1448958D01*
X1446458Y106458D01*
Y101459D01*
X1448958Y98960D01*
X1461454D02*
Y113955D01*
X1468951D01*
X1471450Y111456D01*
Y106458D01*
X1468951Y103958D01*
X1461454D01*
X1476449Y98960D02*
X1481447D01*
X1478948D01*
Y113955D01*
X1476449D01*
X1491444Y108957D02*
X1496442D01*
X1498941Y106458D01*
Y98960D01*
X1491444D01*
X1488945Y101459D01*
X1491444Y103958D01*
X1498941D01*
X1503940Y108957D02*
Y101459D01*
X1506439Y98960D01*
X1513937D01*
Y96461D01*
X1511437Y93961D01*
X1508938D01*
X1513937Y98960D02*
Y108957D01*
X1518935Y106458D02*
X1528932D01*
X1533930Y113955D02*
Y98960D01*
Y106458D01*
X1543927D01*
Y113955D01*
Y98960D01*
X1548925Y113955D02*
Y98960D01*
X1553924Y103958D01*
X1558922Y98960D01*
Y113955D01*
X1386478Y53710D02*
Y68705D01*
X1391476Y63707D01*
X1396475Y68705D01*
Y53710D01*
X1403972Y63707D02*
X1408971D01*
X1411470Y61207D01*
Y53710D01*
X1403972D01*
X1401473Y56209D01*
X1403972Y58708D01*
X1411470D01*
X1426465Y63707D02*
X1418967D01*
X1416468Y61207D01*
Y56209D01*
X1418967Y53710D01*
X1426465D01*
X1431463Y63707D02*
Y53710D01*
Y58708D01*
X1433963Y61207D01*
X1436462Y63707D01*
X1438961D01*
X1448958Y53710D02*
X1453956D01*
X1456455Y56209D01*
Y61207D01*
X1453956Y63707D01*
X1448958D01*
X1446458Y61207D01*
Y56209D01*
X1448958Y53710D01*
X1461454D02*
Y68705D01*
X1468951D01*
X1471450Y66206D01*
Y61207D01*
X1468951Y58708D01*
X1461454D01*
X1476449Y53710D02*
X1481447D01*
X1478948D01*
Y68705D01*
X1476449D01*
X1491444Y63707D02*
X1496442D01*
X1498941Y61207D01*
Y53710D01*
X1491444D01*
X1488945Y56209D01*
X1491444Y58708D01*
X1498941D01*
X1503940Y63707D02*
Y56209D01*
X1506439Y53710D01*
X1513937D01*
Y51211D01*
X1511437Y48712D01*
X1508938D01*
X1513937Y53710D02*
Y63707D01*
X1377525Y828269D02*
X1375025Y830769D01*
X1370027D01*
X1367528Y828269D01*
Y818273D01*
X1370027Y815773D01*
X1375025D01*
X1377525Y818273D01*
Y823271D01*
X1372526D01*
X1382523Y830769D02*
Y815773D01*
X1390021D01*
X1392520Y818273D01*
Y820772D01*
X1390021Y823271D01*
X1382523D01*
X1390021D01*
X1392520Y825770D01*
Y828269D01*
X1390021Y830769D01*
X1382523D01*
X1397518Y815773D02*
Y830769D01*
X1405016D01*
X1407515Y828269D01*
Y823271D01*
X1405016Y820772D01*
X1397518D01*
X1427508Y823271D02*
X1437505D01*
X1457499Y830769D02*
Y815773D01*
X1464996D01*
X1467496Y818273D01*
Y820772D01*
X1464996Y823271D01*
X1457499D01*
X1464996D01*
X1467496Y825770D01*
Y828269D01*
X1464996Y830769D01*
X1457499D01*
X1474993Y815773D02*
X1479991D01*
X1482491Y818273D01*
Y823271D01*
X1479991Y825770D01*
X1474993D01*
X1472494Y823271D01*
Y818273D01*
X1474993Y815773D01*
X1489988Y828269D02*
Y825770D01*
X1487489D01*
X1492487D01*
X1489988D01*
Y818273D01*
X1492487Y815773D01*
X1502484Y828269D02*
Y825770D01*
X1499985D01*
X1504983D01*
X1502484D01*
Y818273D01*
X1504983Y815773D01*
X1514980D02*
X1519978D01*
X1522478Y818273D01*
Y823271D01*
X1519978Y825770D01*
X1514980D01*
X1512481Y823271D01*
Y818273D01*
X1514980Y815773D01*
X1527476D02*
Y825770D01*
X1529975D01*
X1532475Y823271D01*
Y815773D01*
Y823271D01*
X1534974Y825770D01*
X1537473Y823271D01*
Y815773D01*
X1557466D02*
Y830769D01*
X1564964D01*
X1567463Y828269D01*
Y823271D01*
X1564964Y820772D01*
X1557466D01*
X1574961Y825770D02*
X1579959D01*
X1582458Y823271D01*
Y815773D01*
X1574961D01*
X1572462Y818273D01*
X1574961Y820772D01*
X1582458D01*
X1587457Y815773D02*
X1594954D01*
X1597453Y818273D01*
X1594954Y820772D01*
X1589956D01*
X1587457Y823271D01*
X1589956Y825770D01*
X1597453D01*
X1604951Y828269D02*
Y825770D01*
X1602452D01*
X1607450D01*
X1604951D01*
Y818273D01*
X1607450Y815773D01*
X1622445D02*
X1617447D01*
X1614948Y818273D01*
Y823271D01*
X1617447Y825770D01*
X1622445D01*
X1624944Y823271D01*
Y820772D01*
X1614948D01*
X1857528Y935620D02*
Y950615D01*
X1862526Y945617D01*
X1867525Y950615D01*
Y935620D01*
X1872523D02*
X1877521D01*
X1875022D01*
Y945617D01*
X1872523D01*
X1885019Y935620D02*
Y945617D01*
X1892517D01*
X1895016Y943117D01*
Y935620D01*
X1900014D02*
X1905013D01*
X1902513D01*
Y945617D01*
X1900014D01*
X1912510Y935620D02*
Y945617D01*
X1915009D01*
X1917509Y943117D01*
Y935620D01*
Y943117D01*
X1920008Y945617D01*
X1922507Y943117D01*
Y935620D01*
X1927505Y945617D02*
Y938119D01*
X1930004Y935620D01*
X1937502D01*
Y945617D01*
X1942500Y935620D02*
Y945617D01*
X1945000D01*
X1947499Y943117D01*
Y935620D01*
Y943117D01*
X1949998Y945617D01*
X1952497Y943117D01*
Y935620D01*
X1972491Y950615D02*
X1982487D01*
X1977489D01*
Y935620D01*
X1987486Y950615D02*
Y935620D01*
Y943117D01*
X1989985Y945617D01*
X1994983D01*
X1997483Y943117D01*
Y935620D01*
X2002481Y945617D02*
Y935620D01*
Y940618D01*
X2004980Y943117D01*
X2007479Y945617D01*
X2009978D01*
X2019975Y935620D02*
X2024974D01*
X2027473Y938119D01*
Y943117D01*
X2024974Y945617D01*
X2019975D01*
X2017476Y943117D01*
Y938119D01*
X2019975Y935620D01*
X2032471Y945617D02*
Y938119D01*
X2034970Y935620D01*
X2042468D01*
Y945617D01*
X2052465Y930621D02*
X2054964D01*
X2057463Y933121D01*
Y945617D01*
X2049966D01*
X2047466Y943117D01*
Y938119D01*
X2049966Y935620D01*
X2057463D01*
X2062462Y950615D02*
Y935620D01*
Y943117D01*
X2064961Y945617D01*
X2069959D01*
X2072458Y943117D01*
Y935620D01*
X2092452Y950615D02*
Y935620D01*
Y943117D01*
X2102449D01*
Y950615D01*
Y935620D01*
X2109946D02*
X2114944D01*
X2117444Y938119D01*
Y943117D01*
X2114944Y945617D01*
X2109946D01*
X2107447Y943117D01*
Y938119D01*
X2109946Y935620D01*
X2122442D02*
X2127440D01*
X2124941D01*
Y950615D01*
X2122442D01*
X2142436Y935620D02*
X2137437D01*
X2134938Y938119D01*
Y943117D01*
X2137437Y945617D01*
X2142436D01*
X2144935Y943117D01*
Y940618D01*
X2134938D01*
X2164928Y950615D02*
Y940618D01*
X2169927Y935620D01*
X2174925Y940618D01*
Y950615D01*
X2179924D02*
X2184922D01*
X2182423D01*
Y935620D01*
X2179924D01*
X2184922D01*
X2192419D02*
Y945617D01*
X2197418Y950615D01*
X2202416Y945617D01*
Y935620D01*
Y943117D01*
X2192419D01*
X2207415Y945617D02*
X2209914D01*
Y943117D01*
X2207415D01*
Y945617D01*
Y938119D02*
X2209914D01*
Y935620D01*
X2207415D01*
Y938119D01*
X2234906Y948116D02*
X2237405Y950615D01*
X2242403D01*
X2244902Y948116D01*
Y938119D01*
X2242403Y935620D01*
X2237405D01*
X2234906Y938119D01*
Y948116D01*
X2249901Y935620D02*
Y938119D01*
X2252400D01*
Y935620D01*
X2249901D01*
X2272394Y950615D02*
X2267395Y948116D01*
X2262397Y943117D01*
Y938119D01*
X2264896Y935620D01*
X2269894D01*
X2272394Y938119D01*
Y940618D01*
X2269894Y943117D01*
X2262397D01*
X2277392Y935620D02*
Y945617D01*
X2279891D01*
X2282390Y943117D01*
Y935620D01*
Y943117D01*
X2284890Y945617D01*
X2287389Y943117D01*
Y935620D01*
X2292387D02*
Y945617D01*
X2294886D01*
X2297386Y943117D01*
Y935620D01*
Y943117D01*
X2299885Y945617D01*
X2302384Y943117D01*
Y935620D01*
X2327376D02*
X2322377Y940618D01*
Y945617D01*
X2327376Y950615D01*
X2344870Y935620D02*
X2334873D01*
X2344870Y945617D01*
Y948116D01*
X2342371Y950615D01*
X2337372D01*
X2334873Y948116D01*
X2349868D02*
X2352368Y950615D01*
X2357366D01*
X2359865Y948116D01*
Y945617D01*
X2357366Y943117D01*
X2354867D01*
X2357366D01*
X2359865Y940618D01*
Y938119D01*
X2357366Y935620D01*
X2352368D01*
X2349868Y938119D01*
X2364864Y935620D02*
Y938119D01*
X2367363D01*
Y935620D01*
X2364864D01*
X2387356Y950615D02*
X2382358Y948116D01*
X2377360Y943117D01*
Y938119D01*
X2379859Y935620D01*
X2384857D01*
X2387356Y938119D01*
Y940618D01*
X2384857Y943117D01*
X2377360D01*
X2402352Y935620D02*
X2392355D01*
X2402352Y945617D01*
Y948116D01*
X2399852Y950615D01*
X2394854D01*
X2392355Y948116D01*
X2407350Y935620D02*
Y945617D01*
X2409849D01*
X2412348Y943117D01*
Y935620D01*
Y943117D01*
X2414848Y945617D01*
X2417347Y943117D01*
Y935620D01*
X2422345D02*
X2427343D01*
X2424844D01*
Y945617D01*
X2422345D01*
X2434841Y935620D02*
X2439839D01*
X2437340D01*
Y950615D01*
X2434841D01*
X2447337Y935620D02*
X2452335Y940618D01*
Y945617D01*
X2447337Y950615D01*
X2479827Y935620D02*
X2474828Y940618D01*
Y945617D01*
X2479827Y950615D01*
X2487324Y930621D02*
Y945617D01*
X2494822D01*
X2497321Y943117D01*
Y938119D01*
X2494822Y935620D01*
X2487324D01*
X2504818Y945617D02*
X2509817D01*
X2512316Y943117D01*
Y935620D01*
X2504818D01*
X2502319Y938119D01*
X2504818Y940618D01*
X2512316D01*
X2527311Y950615D02*
Y935620D01*
X2519814D01*
X2517314Y938119D01*
Y943117D01*
X2519814Y945617D01*
X2527311D01*
X2532310Y935620D02*
X2537308Y940618D01*
Y945617D01*
X2532310Y950615D01*
X2559801Y935620D02*
X2569797Y945617D01*
X2589791Y948116D02*
X2592290Y950615D01*
X2597289D01*
X2599788Y948116D01*
Y938119D01*
X2597289Y935620D01*
X2592290D01*
X2589791Y938119D01*
Y948116D01*
X2604786Y935620D02*
Y938119D01*
X2607285D01*
Y935620D01*
X2604786D01*
X2617282Y948116D02*
X2619781Y950615D01*
X2624779D01*
X2627279Y948116D01*
Y945617D01*
X2624779Y943117D01*
X2622280D01*
X2624779D01*
X2627279Y940618D01*
Y938119D01*
X2624779Y935620D01*
X2619781D01*
X2617282Y938119D01*
X2632277Y935620D02*
Y945617D01*
X2634776D01*
X2637275Y943117D01*
Y935620D01*
Y943117D01*
X2639775Y945617D01*
X2642274Y943117D01*
Y935620D01*
X2647272D02*
Y945617D01*
X2649771D01*
X2652271Y943117D01*
Y935620D01*
Y943117D01*
X2654770Y945617D01*
X2657269Y943117D01*
Y935620D01*
X2682261D02*
X2677263Y940618D01*
Y945617D01*
X2682261Y950615D01*
X2689759Y935620D02*
X2694757D01*
X2692258D01*
Y950615D01*
X2689759Y948116D01*
X2702255Y935620D02*
X2707253D01*
X2704754D01*
Y950615D01*
X2702255Y948116D01*
X2714750Y935620D02*
Y938119D01*
X2717249D01*
Y935620D01*
X2714750D01*
X2727246Y948116D02*
X2729745Y950615D01*
X2734744D01*
X2737243Y948116D01*
Y945617D01*
X2734744Y943117D01*
X2737243Y940618D01*
Y938119D01*
X2734744Y935620D01*
X2729745D01*
X2727246Y938119D01*
Y940618D01*
X2729745Y943117D01*
X2727246Y945617D01*
Y948116D01*
X2729745Y943117D02*
X2734744D01*
X2742242Y935620D02*
Y945617D01*
X2744741D01*
X2747240Y943117D01*
Y935620D01*
Y943117D01*
X2749739Y945617D01*
X2752238Y943117D01*
Y935620D01*
X2757237D02*
X2762235D01*
X2759736D01*
Y945617D01*
X2757237D01*
X2769733Y935620D02*
X2774731D01*
X2772232D01*
Y950615D01*
X2769733D01*
X2782229Y935620D02*
X2787227Y940618D01*
Y945617D01*
X2782229Y950615D01*
X2814718Y935620D02*
X2809720Y940618D01*
Y945617D01*
X2814718Y950615D01*
X2822216D02*
Y935620D01*
X2829713D01*
X2832213Y938119D01*
Y948116D01*
X2829713Y950615D01*
X2822216D01*
X2837211Y945617D02*
Y935620D01*
Y940618D01*
X2839710Y943117D01*
X2842209Y945617D01*
X2844708D01*
X2852206Y935620D02*
X2857204D01*
X2854705D01*
Y945617D01*
X2852206D01*
X2864702Y935620D02*
X2869700D01*
X2867201D01*
Y950615D01*
X2864702D01*
X2877198Y935620D02*
X2882196D01*
X2879697D01*
Y950615D01*
X2877198D01*
X2889694Y935620D02*
X2894692Y940618D01*
Y945617D01*
X2889694Y950615D01*
X1377525Y1038080D02*
X1375025Y1040579D01*
X1370027D01*
X1367528Y1038080D01*
Y1028083D01*
X1370027Y1025584D01*
X1375025D01*
X1377525Y1028083D01*
Y1033081D01*
X1372526D01*
X1382523Y1040579D02*
X1392520D01*
X1387521D01*
Y1025584D01*
X1405016Y1040579D02*
X1400017D01*
X1397518Y1038080D01*
Y1028083D01*
X1400017Y1025584D01*
X1405016D01*
X1407515Y1028083D01*
Y1038080D01*
X1405016Y1040579D01*
X1427508Y1033081D02*
X1437505D01*
X1457499Y1040579D02*
X1467496D01*
X1462497D01*
Y1025584D01*
X1474993D02*
X1479991D01*
X1482491Y1028083D01*
Y1033081D01*
X1479991Y1035581D01*
X1474993D01*
X1472494Y1033081D01*
Y1028083D01*
X1474993Y1025584D01*
X1487489Y1020585D02*
Y1035581D01*
X1494987D01*
X1497486Y1033081D01*
Y1028083D01*
X1494987Y1025584D01*
X1487489D01*
X1524977Y1040579D02*
X1519978D01*
X1517479Y1038080D01*
Y1028083D01*
X1519978Y1025584D01*
X1524977D01*
X1527476Y1028083D01*
Y1038080D01*
X1524977Y1040579D01*
X1532475Y1035581D02*
X1537473Y1025584D01*
X1542471Y1035581D01*
X1554967Y1025584D02*
X1549969D01*
X1547470Y1028083D01*
Y1033081D01*
X1549969Y1035581D01*
X1554967D01*
X1557466Y1033081D01*
Y1030582D01*
X1547470D01*
X1562465Y1035581D02*
Y1025584D01*
Y1030582D01*
X1564964Y1033081D01*
X1567463Y1035581D01*
X1569962D01*
X1577460Y1025584D02*
X1582458D01*
X1579959D01*
Y1040579D01*
X1577460D01*
X1592455Y1035581D02*
X1597453D01*
X1599953Y1033081D01*
Y1025584D01*
X1592455D01*
X1589956Y1028083D01*
X1592455Y1030582D01*
X1599953D01*
X1604951Y1035581D02*
Y1028083D01*
X1607450Y1025584D01*
X1614948D01*
Y1023085D01*
X1612449Y1020585D01*
X1609949D01*
X1614948Y1025584D02*
Y1035581D01*
X1377525Y999779D02*
X1375025Y1002278D01*
X1370027D01*
X1367528Y999779D01*
Y989782D01*
X1370027Y987283D01*
X1375025D01*
X1377525Y989782D01*
Y994781D01*
X1372526D01*
X1382523Y1002278D02*
X1392520D01*
X1387521D01*
Y987283D01*
X1397518D02*
Y1002278D01*
X1405016D01*
X1407515Y999779D01*
Y994781D01*
X1405016Y992282D01*
X1397518D01*
X1427508Y994781D02*
X1437505D01*
X1457499Y1002278D02*
X1467496D01*
X1462497D01*
Y987283D01*
X1474993D02*
X1479991D01*
X1482491Y989782D01*
Y994781D01*
X1479991Y997280D01*
X1474993D01*
X1472494Y994781D01*
Y989782D01*
X1474993Y987283D01*
X1487489Y982285D02*
Y997280D01*
X1494987D01*
X1497486Y994781D01*
Y989782D01*
X1494987Y987283D01*
X1487489D01*
X1517479D02*
Y1002278D01*
X1524977D01*
X1527476Y999779D01*
Y994781D01*
X1524977Y992282D01*
X1517479D01*
X1534974Y997280D02*
X1539972D01*
X1542471Y994781D01*
Y987283D01*
X1534974D01*
X1532475Y989782D01*
X1534974Y992282D01*
X1542471D01*
X1547470Y987283D02*
X1554967D01*
X1557466Y989782D01*
X1554967Y992282D01*
X1549969D01*
X1547470Y994781D01*
X1549969Y997280D01*
X1557466D01*
X1564964Y999779D02*
Y997280D01*
X1562465D01*
X1567463D01*
X1564964D01*
Y989782D01*
X1567463Y987283D01*
X1582458D02*
X1577460D01*
X1574961Y989782D01*
Y994781D01*
X1577460Y997280D01*
X1582458D01*
X1584957Y994781D01*
Y992282D01*
X1574961D01*
X1377525Y961479D02*
X1375025Y963978D01*
X1370027D01*
X1367528Y961479D01*
Y951482D01*
X1370027Y948982D01*
X1375025D01*
X1377525Y951482D01*
Y956480D01*
X1372526D01*
X1382523Y963978D02*
X1392520D01*
X1387521D01*
Y948982D01*
X1407515Y961479D02*
X1405016Y963978D01*
X1400017D01*
X1397518Y961479D01*
Y958979D01*
X1400017Y956480D01*
X1405016D01*
X1407515Y953981D01*
Y951482D01*
X1405016Y948982D01*
X1400017D01*
X1397518Y951482D01*
X1427508Y956480D02*
X1437505D01*
X1457499Y963978D02*
X1467496D01*
X1462497D01*
Y948982D01*
X1474993D02*
X1479991D01*
X1482491Y951482D01*
Y956480D01*
X1479991Y958979D01*
X1474993D01*
X1472494Y956480D01*
Y951482D01*
X1474993Y948982D01*
X1487489Y943984D02*
Y958979D01*
X1494987D01*
X1497486Y956480D01*
Y951482D01*
X1494987Y948982D01*
X1487489D01*
X1527476Y961479D02*
X1524977Y963978D01*
X1519978D01*
X1517479Y961479D01*
Y958979D01*
X1519978Y956480D01*
X1524977D01*
X1527476Y953981D01*
Y951482D01*
X1524977Y948982D01*
X1519978D01*
X1517479Y951482D01*
X1534974Y948982D02*
X1539972D01*
X1542471Y951482D01*
Y956480D01*
X1539972Y958979D01*
X1534974D01*
X1532475Y956480D01*
Y951482D01*
X1534974Y948982D01*
X1547470D02*
X1552468D01*
X1549969D01*
Y963978D01*
X1547470D01*
X1569962D02*
Y948982D01*
X1562465D01*
X1559966Y951482D01*
Y956480D01*
X1562465Y958979D01*
X1569962D01*
X1582458Y948982D02*
X1577460D01*
X1574961Y951482D01*
Y956480D01*
X1577460Y958979D01*
X1582458D01*
X1584957Y956480D01*
Y953981D01*
X1574961D01*
X1589956Y958979D02*
Y948982D01*
Y953981D01*
X1592455Y956480D01*
X1594954Y958979D01*
X1597453D01*
X1377525Y928176D02*
X1375025Y930675D01*
X1370027D01*
X1367528Y928176D01*
Y918179D01*
X1370027Y915680D01*
X1375025D01*
X1377525Y918179D01*
Y923178D01*
X1372526D01*
X1382523Y930675D02*
X1392520D01*
X1387521D01*
Y915680D01*
X1397518Y930675D02*
Y915680D01*
X1407515D01*
X1427508Y923178D02*
X1437505D01*
X1457499Y930675D02*
Y915680D01*
X1467496D01*
X1472494D02*
X1477492D01*
X1474993D01*
Y930675D01*
X1472494Y928176D01*
X1504983Y915680D02*
X1499985Y920679D01*
Y925677D01*
X1504983Y930675D01*
X1512481Y915680D02*
Y930675D01*
X1519978D01*
X1522478Y928176D01*
Y923178D01*
X1519978Y920679D01*
X1512481D01*
X1529975Y915680D02*
X1534974D01*
X1537473Y918179D01*
Y923178D01*
X1534974Y925677D01*
X1529975D01*
X1527476Y923178D01*
Y918179D01*
X1529975Y915680D01*
X1542471D02*
X1549969D01*
X1552468Y918179D01*
X1549969Y920679D01*
X1544970D01*
X1542471Y923178D01*
X1544970Y925677D01*
X1552468D01*
X1557466Y915680D02*
X1562465D01*
X1559966D01*
Y925677D01*
X1557466D01*
X1572462Y928176D02*
Y925677D01*
X1569962D01*
X1574961D01*
X1572462D01*
Y918179D01*
X1574961Y915680D01*
X1582458D02*
X1587457D01*
X1584957D01*
Y925677D01*
X1582458D01*
X1594954D02*
X1599953Y915680D01*
X1604951Y925677D01*
X1617447Y915680D02*
X1612449D01*
X1609949Y918179D01*
Y923178D01*
X1612449Y925677D01*
X1617447D01*
X1619946Y923178D01*
Y920679D01*
X1609949D01*
X1624945Y915680D02*
X1629943Y920679D01*
Y925677D01*
X1624945Y930675D01*
X1377525Y861572D02*
X1375025Y864071D01*
X1370027D01*
X1367528Y861572D01*
Y851575D01*
X1370027Y849076D01*
X1375025D01*
X1377525Y851575D01*
Y856573D01*
X1372526D01*
X1382523Y864071D02*
Y849076D01*
X1390021D01*
X1392520Y851575D01*
Y854074D01*
X1390021Y856573D01*
X1382523D01*
X1390021D01*
X1392520Y859072D01*
Y861572D01*
X1390021Y864071D01*
X1382523D01*
X1407515Y861572D02*
X1405016Y864071D01*
X1400017D01*
X1397518Y861572D01*
Y859072D01*
X1400017Y856573D01*
X1405016D01*
X1407515Y854074D01*
Y851575D01*
X1405016Y849076D01*
X1400017D01*
X1397518Y851575D01*
X1427508Y856573D02*
X1437505D01*
X1457499Y864071D02*
Y849076D01*
X1464996D01*
X1467496Y851575D01*
Y854074D01*
X1464996Y856573D01*
X1457499D01*
X1464996D01*
X1467496Y859072D01*
Y861572D01*
X1464996Y864071D01*
X1457499D01*
X1474993Y849076D02*
X1479991D01*
X1482491Y851575D01*
Y856573D01*
X1479991Y859072D01*
X1474993D01*
X1472494Y856573D01*
Y851575D01*
X1474993Y849076D01*
X1489988Y861572D02*
Y859072D01*
X1487489D01*
X1492487D01*
X1489988D01*
Y851575D01*
X1492487Y849076D01*
X1502484Y861572D02*
Y859072D01*
X1499985D01*
X1504983D01*
X1502484D01*
Y851575D01*
X1504983Y849076D01*
X1514980D02*
X1519978D01*
X1522478Y851575D01*
Y856573D01*
X1519978Y859072D01*
X1514980D01*
X1512481Y856573D01*
Y851575D01*
X1514980Y849076D01*
X1527476D02*
Y859072D01*
X1529975D01*
X1532475Y856573D01*
Y849076D01*
Y856573D01*
X1534974Y859072D01*
X1537473Y856573D01*
Y849076D01*
X1567463Y861572D02*
X1564964Y864071D01*
X1559966D01*
X1557466Y861572D01*
Y859072D01*
X1559966Y856573D01*
X1564964D01*
X1567463Y854074D01*
Y851575D01*
X1564964Y849076D01*
X1559966D01*
X1557466Y851575D01*
X1574961Y849076D02*
X1579959D01*
X1582458Y851575D01*
Y856573D01*
X1579959Y859072D01*
X1574961D01*
X1572462Y856573D01*
Y851575D01*
X1574961Y849076D01*
X1587457D02*
X1592455D01*
X1589956D01*
Y864071D01*
X1587457D01*
X1609949D02*
Y849076D01*
X1602452D01*
X1599953Y851575D01*
Y856573D01*
X1602452Y859072D01*
X1609949D01*
X1622445Y849076D02*
X1617447D01*
X1614948Y851575D01*
Y856573D01*
X1617447Y859072D01*
X1622445D01*
X1624944Y856573D01*
Y854074D01*
X1614948D01*
X1629943Y859072D02*
Y849076D01*
Y854074D01*
X1632442Y856573D01*
X1634941Y859072D01*
X1637440D01*
X1377525Y789969D02*
X1375025Y792468D01*
X1370027D01*
X1367528Y789969D01*
Y779972D01*
X1370027Y777473D01*
X1375025D01*
X1377525Y779972D01*
Y784970D01*
X1372526D01*
X1382523Y792468D02*
Y777473D01*
X1390021D01*
X1392520Y779972D01*
Y782471D01*
X1390021Y784970D01*
X1382523D01*
X1390021D01*
X1392520Y787469D01*
Y789969D01*
X1390021Y792468D01*
X1382523D01*
X1405016D02*
X1400017D01*
X1397518Y789969D01*
Y779972D01*
X1400017Y777473D01*
X1405016D01*
X1407515Y779972D01*
Y789969D01*
X1405016Y792468D01*
X1427508Y784970D02*
X1437505D01*
X1457499Y792468D02*
Y777473D01*
X1464996D01*
X1467496Y779972D01*
Y782471D01*
X1464996Y784970D01*
X1457499D01*
X1464996D01*
X1467496Y787469D01*
Y789969D01*
X1464996Y792468D01*
X1457499D01*
X1474993Y777473D02*
X1479991D01*
X1482491Y779972D01*
Y784970D01*
X1479991Y787469D01*
X1474993D01*
X1472494Y784970D01*
Y779972D01*
X1474993Y777473D01*
X1489988Y789969D02*
Y787469D01*
X1487489D01*
X1492487D01*
X1489988D01*
Y779972D01*
X1492487Y777473D01*
X1502484Y789969D02*
Y787469D01*
X1499985D01*
X1504983D01*
X1502484D01*
Y779972D01*
X1504983Y777473D01*
X1514980D02*
X1519978D01*
X1522478Y779972D01*
Y784970D01*
X1519978Y787469D01*
X1514980D01*
X1512481Y784970D01*
Y779972D01*
X1514980Y777473D01*
X1527476D02*
Y787469D01*
X1529975D01*
X1532475Y784970D01*
Y777473D01*
Y784970D01*
X1534974Y787469D01*
X1537473Y784970D01*
Y777473D01*
X1564964Y792468D02*
X1559966D01*
X1557466Y789969D01*
Y779972D01*
X1559966Y777473D01*
X1564964D01*
X1567463Y779972D01*
Y789969D01*
X1564964Y792468D01*
X1572462Y787469D02*
X1577460Y777473D01*
X1582458Y787469D01*
X1594954Y777473D02*
X1589956D01*
X1587457Y779972D01*
Y784970D01*
X1589956Y787469D01*
X1594954D01*
X1597453Y784970D01*
Y782471D01*
X1587457D01*
X1602452Y787469D02*
Y777473D01*
Y782471D01*
X1604951Y784970D01*
X1607450Y787469D01*
X1609949D01*
X1617447Y777473D02*
X1622445D01*
X1619946D01*
Y792468D01*
X1617447D01*
X1632442Y787469D02*
X1637440D01*
X1639940Y784970D01*
Y777473D01*
X1632442D01*
X1629943Y779972D01*
X1632442Y782471D01*
X1639940D01*
X1644938Y787469D02*
Y779972D01*
X1647437Y777473D01*
X1654935D01*
Y774974D01*
X1652436Y772474D01*
X1649937D01*
X1654935Y777473D02*
Y787469D01*
X1377525Y751668D02*
X1375025Y754167D01*
X1370027D01*
X1367528Y751668D01*
Y741671D01*
X1370027Y739172D01*
X1375025D01*
X1377525Y741671D01*
Y746670D01*
X1372526D01*
X1382523Y739172D02*
Y754167D01*
X1387521Y749169D01*
X1392520Y754167D01*
Y739172D01*
X1397518Y751668D02*
X1400017Y754167D01*
X1405016D01*
X1407515Y751668D01*
Y749169D01*
X1405016Y746670D01*
X1402516D01*
X1405016D01*
X1407515Y744171D01*
Y741671D01*
X1405016Y739172D01*
X1400017D01*
X1397518Y741671D01*
X1427508Y746670D02*
X1437505D01*
X1457499Y739172D02*
Y754167D01*
X1462497Y749169D01*
X1467496Y754167D01*
Y739172D01*
X1474993Y749169D02*
X1479991D01*
X1482491Y746670D01*
Y739172D01*
X1474993D01*
X1472494Y741671D01*
X1474993Y744171D01*
X1482491D01*
X1487489Y739172D02*
Y749169D01*
X1494987D01*
X1497486Y746670D01*
Y739172D01*
X1502484Y749169D02*
Y741671D01*
X1504983Y739172D01*
X1512481D01*
Y749169D01*
X1519978Y739172D02*
Y751668D01*
Y746670D01*
X1517479D01*
X1522478D01*
X1519978D01*
Y751668D01*
X1522478Y754167D01*
X1532475Y749169D02*
X1537473D01*
X1539972Y746670D01*
Y739172D01*
X1532475D01*
X1529975Y741671D01*
X1532475Y744171D01*
X1539972D01*
X1554967Y749169D02*
X1547470D01*
X1544970Y746670D01*
Y741671D01*
X1547470Y739172D01*
X1554967D01*
X1562465Y751668D02*
Y749169D01*
X1559966D01*
X1564964D01*
X1562465D01*
Y741671D01*
X1564964Y739172D01*
X1572462Y749169D02*
Y741671D01*
X1574961Y739172D01*
X1582458D01*
Y749169D01*
X1587457D02*
Y739172D01*
Y744171D01*
X1589956Y746670D01*
X1592455Y749169D01*
X1594954D01*
X1602452Y739172D02*
X1607450D01*
X1604951D01*
Y749169D01*
X1602452D01*
X1614948Y739172D02*
Y749169D01*
X1622445D01*
X1624944Y746670D01*
Y739172D01*
X1634941Y734174D02*
X1637440D01*
X1639940Y736673D01*
Y749169D01*
X1632442D01*
X1629943Y746670D01*
Y741671D01*
X1632442Y739172D01*
X1639940D01*
X1659933D02*
Y754167D01*
X1669930Y739172D01*
Y754167D01*
X1677428Y739172D02*
X1682426D01*
X1684925Y741671D01*
Y746670D01*
X1682426Y749169D01*
X1677428D01*
X1674928Y746670D01*
Y741671D01*
X1677428Y739172D01*
X1692423Y751668D02*
Y749169D01*
X1689924D01*
X1694922D01*
X1692423D01*
Y741671D01*
X1694922Y739172D01*
X1709917D02*
X1704919D01*
X1702419Y741671D01*
Y746670D01*
X1704919Y749169D01*
X1709917D01*
X1712416Y746670D01*
Y744171D01*
X1702419D01*
X1717415Y739172D02*
X1724912D01*
X1727411Y741671D01*
X1724912Y744171D01*
X1719914D01*
X1717415Y746670D01*
X1719914Y749169D01*
X1727411D01*
X1377525Y718366D02*
X1375025Y720865D01*
X1370027D01*
X1367528Y718366D01*
Y708369D01*
X1370027Y705870D01*
X1375025D01*
X1377525Y708369D01*
Y713367D01*
X1372526D01*
X1382523Y705870D02*
Y720865D01*
X1387521Y715867D01*
X1392520Y720865D01*
Y705870D01*
X1407515D02*
X1397518D01*
X1407515Y715867D01*
Y718366D01*
X1405016Y720865D01*
X1400017D01*
X1397518Y718366D01*
X1412513D02*
X1415013Y720865D01*
X1420011D01*
X1422510Y718366D01*
Y715867D01*
X1420011Y713367D01*
X1422510Y710868D01*
Y708369D01*
X1420011Y705870D01*
X1415013D01*
X1412513Y708369D01*
Y710868D01*
X1415013Y713367D01*
X1412513Y715867D01*
Y718366D01*
X1415013Y713367D02*
X1420011D01*
X1442504D02*
X1452500D01*
X1472494Y720865D02*
Y705870D01*
X1479991D01*
X1482491Y708369D01*
Y710868D01*
X1479991Y713367D01*
X1472494D01*
X1479991D01*
X1482491Y715867D01*
Y718366D01*
X1479991Y720865D01*
X1472494D01*
X1489988Y705870D02*
X1494987D01*
X1497486Y708369D01*
Y713367D01*
X1494987Y715867D01*
X1489988D01*
X1487489Y713367D01*
Y708369D01*
X1489988Y705870D01*
X1504983Y715867D02*
X1509982D01*
X1512481Y713367D01*
Y705870D01*
X1504983D01*
X1502484Y708369D01*
X1504983Y710868D01*
X1512481D01*
X1517479Y715867D02*
Y705870D01*
Y710868D01*
X1519978Y713367D01*
X1522478Y715867D01*
X1524977D01*
X1542471Y720865D02*
Y705870D01*
X1534974D01*
X1532475Y708369D01*
Y713367D01*
X1534974Y715867D01*
X1542471D01*
X1569962Y720865D02*
X1564964D01*
X1562465Y718366D01*
Y708369D01*
X1564964Y705870D01*
X1569962D01*
X1572462Y708369D01*
Y718366D01*
X1569962Y720865D01*
X1577460Y715867D02*
Y708369D01*
X1579959Y705870D01*
X1587457D01*
Y715867D01*
X1594954Y718366D02*
Y715867D01*
X1592455D01*
X1597453D01*
X1594954D01*
Y708369D01*
X1597453Y705870D01*
X1604951D02*
X1609949D01*
X1607450D01*
Y720865D01*
X1604951D01*
X1617447Y705870D02*
X1622445D01*
X1619946D01*
Y715867D01*
X1617447D01*
X1629943Y705870D02*
Y715867D01*
X1637440D01*
X1639940Y713367D01*
Y705870D01*
X1652436D02*
X1647437D01*
X1644938Y708369D01*
Y713367D01*
X1647437Y715867D01*
X1652436D01*
X1654935Y713367D01*
Y710868D01*
X1644938D01*
X1857528Y1016460D02*
Y1031455D01*
X1862526Y1026457D01*
X1867525Y1031455D01*
Y1016460D01*
X1872523D02*
X1877521D01*
X1875022D01*
Y1026457D01*
X1872523D01*
X1885019Y1016460D02*
Y1026457D01*
X1892517D01*
X1895016Y1023958D01*
Y1016460D01*
X1900014D02*
X1905013D01*
X1902513D01*
Y1026457D01*
X1900014D01*
X1912510Y1016460D02*
Y1026457D01*
X1915009D01*
X1917509Y1023958D01*
Y1016460D01*
Y1023958D01*
X1920008Y1026457D01*
X1922507Y1023958D01*
Y1016460D01*
X1927505Y1026457D02*
Y1018959D01*
X1930004Y1016460D01*
X1937502D01*
Y1026457D01*
X1942500Y1016460D02*
Y1026457D01*
X1945000D01*
X1947499Y1023958D01*
Y1016460D01*
Y1023958D01*
X1949998Y1026457D01*
X1952497Y1023958D01*
Y1016460D01*
X1972491Y1031455D02*
X1982487D01*
X1977489D01*
Y1016460D01*
X1987486Y1026457D02*
Y1016460D01*
Y1021458D01*
X1989985Y1023958D01*
X1992484Y1026457D01*
X1994983D01*
X2004980D02*
X2009978D01*
X2012478Y1023958D01*
Y1016460D01*
X2004980D01*
X2002481Y1018959D01*
X2004980Y1021458D01*
X2012478D01*
X2027473Y1026457D02*
X2019975D01*
X2017476Y1023958D01*
Y1018959D01*
X2019975Y1016460D01*
X2027473D01*
X2032471D02*
Y1031455D01*
Y1021458D02*
X2039969Y1026457D01*
X2032471Y1021458D02*
X2039969Y1016460D01*
X2047466Y1026457D02*
X2049966D01*
Y1023958D01*
X2047466D01*
Y1026457D01*
Y1018959D02*
X2049966D01*
Y1016460D01*
X2047466D01*
Y1018959D01*
X2074957Y1028956D02*
X2077457Y1031455D01*
X2082455D01*
X2084954Y1028956D01*
Y1018959D01*
X2082455Y1016460D01*
X2077457D01*
X2074957Y1018959D01*
Y1028956D01*
X2089953Y1016460D02*
Y1018959D01*
X2092452D01*
Y1016460D01*
X2089953D01*
X2102449D02*
X2107447D01*
X2104948D01*
Y1031455D01*
X2102449Y1028956D01*
X2114945D02*
X2117444Y1031455D01*
X2122442D01*
X2124941Y1028956D01*
Y1026457D01*
X2122442Y1023958D01*
X2124941Y1021458D01*
Y1018959D01*
X2122442Y1016460D01*
X2117444D01*
X2114945Y1018959D01*
Y1021458D01*
X2117444Y1023958D01*
X2114945Y1026457D01*
Y1028956D01*
X2117444Y1023958D02*
X2122442D01*
X2129940Y1016460D02*
Y1026457D01*
X2132439D01*
X2134938Y1023958D01*
Y1016460D01*
Y1023958D01*
X2137437Y1026457D01*
X2139937Y1023958D01*
Y1016460D01*
X2144935D02*
Y1026457D01*
X2147434D01*
X2149933Y1023958D01*
Y1016460D01*
Y1023958D01*
X2152432Y1026457D01*
X2154932Y1023958D01*
Y1016460D01*
X1857528Y976460D02*
Y991455D01*
X1862526Y986457D01*
X1867525Y991455D01*
Y976460D01*
X1872523D02*
X1877521D01*
X1875022D01*
Y986457D01*
X1872523D01*
X1885019Y976460D02*
Y986457D01*
X1892517D01*
X1895016Y983958D01*
Y976460D01*
X1900014D02*
X1905013D01*
X1902513D01*
Y986457D01*
X1900014D01*
X1912510Y976460D02*
Y986457D01*
X1915009D01*
X1917509Y983958D01*
Y976460D01*
Y983958D01*
X1920008Y986457D01*
X1922507Y983958D01*
Y976460D01*
X1927505Y986457D02*
Y978959D01*
X1930004Y976460D01*
X1937502D01*
Y986457D01*
X1942500Y976460D02*
Y986457D01*
X1945000D01*
X1947499Y983958D01*
Y976460D01*
Y983958D01*
X1949998Y986457D01*
X1952497Y983958D01*
Y976460D01*
X1982487Y988956D02*
X1979988Y991455D01*
X1974990D01*
X1972491Y988956D01*
Y978959D01*
X1974990Y976460D01*
X1979988D01*
X1982487Y978959D01*
X1987486Y976460D02*
X1992484D01*
X1989985D01*
Y991455D01*
X1987486D01*
X2007479Y976460D02*
X2002481D01*
X1999982Y978959D01*
Y983958D01*
X2002481Y986457D01*
X2007479D01*
X2009978Y983958D01*
Y981458D01*
X1999982D01*
X2017476Y986457D02*
X2022475D01*
X2024974Y983958D01*
Y976460D01*
X2017476D01*
X2014977Y978959D01*
X2017476Y981458D01*
X2024974D01*
X2029972Y986457D02*
Y976460D01*
Y981458D01*
X2032471Y983958D01*
X2034971Y986457D01*
X2037470D01*
X2047466D02*
X2052465D01*
X2054964Y983958D01*
Y976460D01*
X2047466D01*
X2044967Y978959D01*
X2047466Y981458D01*
X2054964D01*
X2059962Y976460D02*
Y986457D01*
X2067460D01*
X2069959Y983958D01*
Y976460D01*
X2084954Y986457D02*
X2077457D01*
X2074957Y983958D01*
Y978959D01*
X2077457Y976460D01*
X2084954D01*
X2097450D02*
X2092452D01*
X2089953Y978959D01*
Y983958D01*
X2092452Y986457D01*
X2097450D01*
X2099949Y983958D01*
Y981458D01*
X2089953D01*
X2104948Y986457D02*
X2107447D01*
Y983958D01*
X2104948D01*
Y986457D01*
Y978959D02*
X2107447D01*
Y976460D01*
X2104948D01*
Y978959D01*
X2132439Y988956D02*
X2134938Y991455D01*
X2139937D01*
X2142436Y988956D01*
Y978959D01*
X2139937Y976460D01*
X2134938D01*
X2132439Y978959D01*
Y988956D01*
X2147434Y976460D02*
Y978959D01*
X2149933D01*
Y976460D01*
X2147434D01*
X2169927D02*
X2159930D01*
X2169927Y986457D01*
Y988956D01*
X2167428Y991455D01*
X2162429D01*
X2159930Y988956D01*
X2184922Y991455D02*
X2174925D01*
Y983958D01*
X2179924Y986457D01*
X2182423D01*
X2184922Y983958D01*
Y978959D01*
X2182423Y976460D01*
X2177424D01*
X2174925Y978959D01*
X2197418Y976460D02*
Y991455D01*
X2189920Y983958D01*
X2199917D01*
X2204915Y976460D02*
Y986457D01*
X2207415D01*
X2209914Y983958D01*
Y976460D01*
Y983958D01*
X2212413Y986457D01*
X2214912Y983958D01*
Y976460D01*
X2219911D02*
Y986457D01*
X2222410D01*
X2224909Y983958D01*
Y976460D01*
Y983958D01*
X2227408Y986457D01*
X2229907Y983958D01*
Y976460D01*
X1857528Y911455D02*
Y896460D01*
X1865025D01*
X1867525Y898959D01*
Y908956D01*
X1865025Y911455D01*
X1857528D01*
X1872523Y906457D02*
Y896460D01*
Y901458D01*
X1875022Y903958D01*
X1877521Y906457D01*
X1880021D01*
X1887518Y896460D02*
X1892517D01*
X1890017D01*
Y906457D01*
X1887518D01*
X1900014Y896460D02*
X1905013D01*
X1902513D01*
Y911455D01*
X1900014D01*
X1912510Y896460D02*
X1917509D01*
X1915009D01*
Y911455D01*
X1912510D01*
X1925006Y896460D02*
X1930004D01*
X1927505D01*
Y906457D01*
X1925006D01*
X1937502Y896460D02*
Y906457D01*
X1945000D01*
X1947499Y903958D01*
Y896460D01*
X1957496Y891461D02*
X1959995D01*
X1962494Y893961D01*
Y906457D01*
X1954996D01*
X1952497Y903958D01*
Y898959D01*
X1954996Y896460D01*
X1962494D01*
X1967492Y906457D02*
X1969991D01*
Y903958D01*
X1967492D01*
Y906457D01*
Y898959D02*
X1969991D01*
Y896460D01*
X1967492D01*
Y898959D01*
X1994983Y911455D02*
Y896460D01*
X2004980D01*
X2009979D02*
X2014977D01*
X2012478D01*
Y911455D01*
X2009979Y908956D01*
X2022475Y903958D02*
X2032471D01*
X2037470Y911455D02*
Y896460D01*
X2047466D01*
X2062462D02*
X2052465D01*
X2062462Y906457D01*
Y908956D01*
X2059962Y911455D01*
X2054964D01*
X2052465Y908956D01*
X1377525Y894874D02*
X1375025Y897373D01*
X1370027D01*
X1367528Y894874D01*
Y884877D01*
X1370027Y882378D01*
X1375025D01*
X1377525Y884877D01*
Y889876D01*
X1372526D01*
X1382523Y897373D02*
Y882378D01*
X1390021D01*
X1392520Y884877D01*
Y887376D01*
X1390021Y889876D01*
X1382523D01*
X1390021D01*
X1392520Y892375D01*
Y894874D01*
X1390021Y897373D01*
X1382523D01*
X1397518D02*
Y882378D01*
X1407515D01*
X1442504Y889876D02*
X1452500D01*
X1472494Y897373D02*
Y882378D01*
X1482491D01*
X1497486D02*
X1487489D01*
X1497486Y892375D01*
Y894874D01*
X1494987Y897373D01*
X1489988D01*
X1487489Y894874D01*
X1522478Y882378D02*
X1517479Y887376D01*
Y892375D01*
X1522478Y897373D01*
X1529975Y882378D02*
Y897373D01*
X1537473D01*
X1539972Y894874D01*
Y889876D01*
X1537473Y887376D01*
X1529975D01*
X1547470Y882378D02*
X1552468D01*
X1554967Y884877D01*
Y889876D01*
X1552468Y892375D01*
X1547470D01*
X1544970Y889876D01*
Y884877D01*
X1547470Y882378D01*
X1559966D02*
X1567463D01*
X1569962Y884877D01*
X1567463Y887376D01*
X1562465D01*
X1559966Y889876D01*
X1562465Y892375D01*
X1569962D01*
X1574961Y882378D02*
X1579959D01*
X1577460D01*
Y892375D01*
X1574961D01*
X1589956Y894874D02*
Y892375D01*
X1587457D01*
X1592455D01*
X1589956D01*
Y884877D01*
X1592455Y882378D01*
X1599953D02*
X1604951D01*
X1602452D01*
Y892375D01*
X1599953D01*
X1612449D02*
X1617447Y882378D01*
X1622445Y892375D01*
X1634941Y882378D02*
X1629943D01*
X1627444Y884877D01*
Y889876D01*
X1629943Y892375D01*
X1634941D01*
X1637440Y889876D01*
Y887376D01*
X1627444D01*
X1642439Y882378D02*
X1647437Y887376D01*
Y892375D01*
X1642439Y897373D01*
D51*
X1366528Y1144620D02*
Y1174610D01*
X1376525Y1164613D01*
X1386521Y1174610D01*
Y1144620D01*
X1396518D02*
Y1164613D01*
X1406515Y1174610D01*
X1416512Y1164613D01*
Y1144620D01*
Y1159615D01*
X1396518D01*
X1426508Y1144620D02*
Y1174610D01*
X1446502Y1144620D01*
Y1174610D01*
X1456499D02*
Y1149618D01*
X1461497Y1144620D01*
X1471494D01*
X1476492Y1149618D01*
Y1174610D01*
X1506483D02*
X1486489D01*
Y1159615D01*
X1496486D01*
X1486489D01*
Y1144620D01*
X1516479D02*
Y1164613D01*
X1526476Y1174610D01*
X1536473Y1164613D01*
Y1144620D01*
Y1159615D01*
X1516479D01*
X1566463Y1169612D02*
X1561465Y1174610D01*
X1551468D01*
X1546470Y1169612D01*
Y1149618D01*
X1551468Y1144620D01*
X1561465D01*
X1566463Y1149618D01*
X1576460Y1174610D02*
X1596453D01*
X1586457D01*
Y1144620D01*
X1606450Y1174610D02*
Y1149618D01*
X1611449Y1144620D01*
X1621445D01*
X1626444Y1149618D01*
Y1174610D01*
X1636440Y1144620D02*
Y1174610D01*
X1651436D01*
X1656434Y1169612D01*
Y1159615D01*
X1651436Y1154617D01*
X1636440D01*
X1646437D02*
X1656434Y1144620D01*
X1666431Y1174610D02*
X1676427D01*
X1671429D01*
Y1144620D01*
X1666431D01*
X1676427D01*
X1691423D02*
Y1174610D01*
X1711416Y1144620D01*
Y1174610D01*
X1741407Y1169612D02*
X1736408Y1174610D01*
X1726411D01*
X1721413Y1169612D01*
Y1149618D01*
X1726411Y1144620D01*
X1736408D01*
X1741407Y1149618D01*
Y1159615D01*
X1731410D01*
X1781393Y1144620D02*
Y1174610D01*
X1801387Y1144620D01*
Y1174610D01*
X1826379D02*
X1816382D01*
X1811384Y1169612D01*
Y1149618D01*
X1816382Y1144620D01*
X1826379D01*
X1831377Y1149618D01*
Y1169612D01*
X1826379Y1174610D01*
X1841374D02*
X1861368D01*
X1851371D01*
Y1144620D01*
X1891358Y1174610D02*
X1871364D01*
Y1144620D01*
X1891358D01*
X1871364Y1159615D02*
X1881361D01*
X1921348Y1169612D02*
X1916350Y1174610D01*
X1906353D01*
X1901355Y1169612D01*
Y1164613D01*
X1906353Y1159615D01*
X1916350D01*
X1921348Y1154617D01*
Y1149618D01*
X1916350Y1144620D01*
X1906353D01*
X1901355Y1149618D01*
D52*
X1377525Y1075377D02*
X1367528D01*
Y1067879D01*
X1372526D01*
X1367528D01*
Y1060382D01*
X1382523Y1075377D02*
X1387521D01*
X1385022D01*
Y1060382D01*
X1382523D01*
X1387521D01*
X1395019Y1075377D02*
Y1060382D01*
X1405016D01*
X1420011Y1075377D02*
X1410014D01*
Y1060382D01*
X1420011D01*
X1410014Y1067879D02*
X1415013D01*
X1435006Y1072878D02*
X1432507Y1075377D01*
X1427508D01*
X1425009Y1072878D01*
Y1070379D01*
X1427508Y1067879D01*
X1432507D01*
X1435006Y1065380D01*
Y1062881D01*
X1432507Y1060382D01*
X1427508D01*
X1425009Y1062881D01*
X1857528Y1081455D02*
Y1066460D01*
X1865025D01*
X1867525Y1068959D01*
Y1071458D01*
X1865025Y1073958D01*
X1857528D01*
X1865025D01*
X1867525Y1076457D01*
Y1078956D01*
X1865025Y1081455D01*
X1857528D01*
X1880021D02*
X1875022D01*
X1872523Y1078956D01*
Y1068959D01*
X1875022Y1066460D01*
X1880021D01*
X1882520Y1068959D01*
Y1078956D01*
X1880021Y1081455D01*
X1887518Y1066460D02*
Y1076457D01*
X1892517Y1081455D01*
X1897515Y1076457D01*
Y1066460D01*
Y1073958D01*
X1887518D01*
X1902513Y1066460D02*
Y1081455D01*
X1910011D01*
X1912510Y1078956D01*
Y1073958D01*
X1910011Y1071458D01*
X1902513D01*
X1907512D02*
X1912510Y1066460D01*
X1917509Y1081455D02*
Y1066460D01*
X1925006D01*
X1927505Y1068959D01*
Y1078956D01*
X1925006Y1081455D01*
X1917509D01*
X1947499D02*
X1952497D01*
X1949998D01*
Y1066460D01*
X1947499D01*
X1952497D01*
X1959995D02*
Y1081455D01*
X1969991Y1066460D01*
Y1081455D01*
X1984987D02*
X1974990D01*
Y1073958D01*
X1979988D01*
X1974990D01*
Y1066460D01*
X1997483Y1081455D02*
X1992484D01*
X1989985Y1078956D01*
Y1068959D01*
X1992484Y1066460D01*
X1997483D01*
X1999982Y1068959D01*
Y1078956D01*
X1997483Y1081455D01*
M02*
