G04*
G04 #@! TF.GenerationSoftware,Altium Limited,Altium Designer,26.5.0 (11)*
G04*
G04 Layer_Color=2752767*
G04 Board_Origin=73230399|66045281*
%FSLAX44Y44*%
%MOMM*%
G71*
G04*
G04 #@! TF.SameCoordinates,D8E93972-0857-4CFD-BA1B-23267FE283D4*
G04*
G04*
G04 #@! TF.FilePolarity,Positive*
G04*
G01*
G75*
%ADD13C,0.1270*%
%ADD34C,0.2540*%
%ADD54C,0.3810*%
%ADD55C,0.4064*%
D13*
X463237Y718486D02*
G03*
X463237Y718486I-6350J0D01*
G01*
X852357Y522576D02*
G03*
X852357Y522576I-6350J0D01*
G01*
X656606Y521663D02*
G03*
X656606Y521663I-6350J0D01*
G01*
X464067Y521156D02*
G03*
X464067Y521156I-6350J0D01*
G01*
X852037Y323910D02*
G03*
X852037Y323910I-6350J0D01*
G01*
X657567Y323906D02*
G03*
X657567Y323906I-6350J0D01*
G01*
X464067Y323406D02*
G03*
X464067Y323406I-6350J0D01*
G01*
X852037Y128906D02*
G03*
X852037Y128906I-6350J0D01*
G01*
X657075Y128821D02*
G03*
X657075Y128821I-6350J0D01*
G01*
X464067Y128156D02*
G03*
X464067Y128156I-6350J0D01*
G01*
X852037Y718766D02*
G03*
X852037Y718766I-6350J0D01*
G01*
X657340Y718914D02*
G03*
X657340Y718914I-6350J0D01*
G01*
X902773Y255525D02*
X905948Y252350D01*
X899598Y255525D02*
X902773D01*
X899598D02*
X902773Y258700D01*
X899598Y261875D02*
X902773Y258700D01*
X899598Y261875D02*
X902773D01*
X905948Y265050D01*
X909123Y261875D01*
X912298D01*
X909123Y258700D02*
X912298Y261875D01*
X909123Y258700D02*
X912298Y255525D01*
X909123D02*
X912298D01*
X905948Y252350D02*
X909123Y255525D01*
X888523Y255275D02*
X891698Y252100D01*
X885348Y255275D02*
X888523D01*
X885348D02*
X888523Y258450D01*
X885348Y261625D02*
X888523Y258450D01*
X885348Y261625D02*
X888523D01*
X891698Y264800D01*
X894873Y261625D01*
X898048D01*
X894873Y258450D02*
X898048Y261625D01*
X894873Y258450D02*
X898048Y255275D01*
X894873D02*
X898048D01*
X891698Y252100D02*
X894873Y255275D01*
X708273Y256025D02*
X711448Y252850D01*
X705098Y256025D02*
X708273D01*
X705098D02*
X708273Y259200D01*
X705098Y262375D02*
X708273Y259200D01*
X705098Y262375D02*
X708273D01*
X711448Y265550D01*
X714623Y262375D01*
X717798D01*
X714623Y259200D02*
X717798Y262375D01*
X714623Y259200D02*
X717798Y256025D01*
X714623D02*
X717798D01*
X711448Y252850D02*
X714623Y256025D01*
X693773Y255775D02*
X696948Y252600D01*
X690598Y255775D02*
X693773D01*
X690598D02*
X693773Y258950D01*
X690598Y262125D02*
X693773Y258950D01*
X690598Y262125D02*
X693773D01*
X696948Y265300D01*
X700123Y262125D01*
X703298D01*
X700123Y258950D02*
X703298Y262125D01*
X700123Y258950D02*
X703298Y255775D01*
X700123D02*
X703298D01*
X696948Y252600D02*
X700123Y255775D01*
X500523Y254525D02*
X503698Y251350D01*
X497348Y254525D02*
X500523D01*
X497348D02*
X500523Y257700D01*
X497348Y260875D02*
X500523Y257700D01*
X497348Y260875D02*
X500523D01*
X503698Y264050D01*
X506873Y260875D01*
X510048D01*
X506873Y257700D02*
X510048Y260875D01*
X506873Y257700D02*
X510048Y254525D01*
X506873D02*
X510048D01*
X503698Y251350D02*
X506873Y254525D01*
X513023D02*
X516198Y251350D01*
X509848Y254525D02*
X513023D01*
X509848D02*
X513023Y257700D01*
X509848Y260875D02*
X513023Y257700D01*
X509848Y260875D02*
X513023D01*
X516198Y264050D01*
X519373Y260875D01*
X522548D01*
X519373Y257700D02*
X522548Y260875D01*
X519373Y257700D02*
X522548Y254525D01*
X519373D02*
X522548D01*
X516198Y251350D02*
X519373Y254525D01*
X513023Y453025D02*
X516198Y449850D01*
X509848Y453025D02*
X513023D01*
X509848D02*
X513023Y456200D01*
X509848Y459375D02*
X513023Y456200D01*
X509848Y459375D02*
X513023D01*
X516198Y462550D01*
X519373Y459375D01*
X522548D01*
X519373Y456200D02*
X522548Y459375D01*
X519373Y456200D02*
X522548Y453025D01*
X519373D02*
X522548D01*
X516198Y449850D02*
X519373Y453025D01*
X693422Y452826D02*
X696597Y449650D01*
X690247Y452826D02*
X693422D01*
X690247D02*
X693422Y456001D01*
X690247Y459175D02*
X693422Y456001D01*
X690247Y459175D02*
X693422D01*
X696597Y462351D01*
X699772Y459175D01*
X702947D01*
X699772Y456001D02*
X702947Y459175D01*
X699772Y456001D02*
X702947Y452826D01*
X699772D02*
X702947D01*
X696597Y449650D02*
X699772Y452826D01*
X705773Y452525D02*
X708948Y449350D01*
X702598Y452525D02*
X705773D01*
X702598D02*
X705773Y455700D01*
X702598Y458875D02*
X705773Y455700D01*
X702598Y458875D02*
X705773D01*
X708948Y462050D01*
X712123Y458875D01*
X715298D01*
X712123Y455700D02*
X715298Y458875D01*
X712123Y455700D02*
X715298Y452525D01*
X712123D02*
X715298D01*
X708948Y449350D02*
X712123Y452525D01*
X889273Y453775D02*
X892448Y450600D01*
X886098Y453775D02*
X889273D01*
X886098D02*
X889273Y456950D01*
X886098Y460125D02*
X889273Y456950D01*
X886098Y460125D02*
X889273D01*
X892448Y463300D01*
X895623Y460125D01*
X898798D01*
X895623Y456950D02*
X898798Y460125D01*
X895623Y456950D02*
X898798Y453775D01*
X895623D02*
X898798D01*
X892448Y450600D02*
X895623Y453775D01*
X901523D02*
X904698Y450600D01*
X898348Y453775D02*
X901523D01*
X898348D02*
X901523Y456950D01*
X898348Y460125D02*
X901523Y456950D01*
X898348Y460125D02*
X901523D01*
X904698Y463300D01*
X907873Y460125D01*
X911048D01*
X907873Y456950D02*
X911048Y460125D01*
X907873Y456950D02*
X911048Y453775D01*
X907873D02*
X911048D01*
X904698Y450600D02*
X907873Y453775D01*
X498773Y646775D02*
X501948Y643600D01*
X495598Y646775D02*
X498773D01*
X495598D02*
X498773Y649950D01*
X495598Y653125D02*
X498773Y649950D01*
X495598Y653125D02*
X498773D01*
X501948Y656300D01*
X505123Y653125D01*
X508298D01*
X505123Y649950D02*
X508298Y653125D01*
X505123Y649950D02*
X508298Y646775D01*
X505123D02*
X508298D01*
X501948Y643600D02*
X505123Y646775D01*
X512023D02*
X515198Y643600D01*
X508848Y646775D02*
X512023D01*
X508848D02*
X512023Y649950D01*
X508848Y653125D02*
X512023Y649950D01*
X508848Y653125D02*
X512023D01*
X515198Y656300D01*
X518373Y653125D01*
X521548D01*
X518373Y649950D02*
X521548Y653125D01*
X518373Y649950D02*
X521548Y646775D01*
X518373D02*
X521548D01*
X515198Y643600D02*
X518373Y646775D01*
X694273Y647775D02*
X697448Y644600D01*
X691098Y647775D02*
X694273D01*
X691098D02*
X694273Y650950D01*
X691098Y654125D02*
X694273Y650950D01*
X691098Y654125D02*
X694273D01*
X697448Y657300D01*
X700623Y654125D01*
X703798D01*
X700623Y650950D02*
X703798Y654125D01*
X700623Y650950D02*
X703798Y647775D01*
X700623D02*
X703798D01*
X697448Y644600D02*
X700623Y647775D01*
X707273Y647525D02*
X710448Y644350D01*
X704098Y647525D02*
X707273D01*
X704098D02*
X707273Y650700D01*
X704098Y653875D02*
X707273Y650700D01*
X704098Y653875D02*
X707273D01*
X710448Y657050D01*
X713623Y653875D01*
X716798D01*
X713623Y650700D02*
X716798Y653875D01*
X713623Y650700D02*
X716798Y647525D01*
X713623D02*
X716798D01*
X710448Y644350D02*
X713623Y647525D01*
X888523D02*
X891698Y644350D01*
X885348Y647525D02*
X888523D01*
X885348D02*
X888523Y650700D01*
X885348Y653875D02*
X888523Y650700D01*
X885348Y653875D02*
X888523D01*
X891698Y657050D01*
X894873Y653875D01*
X898048D01*
X894873Y650700D02*
X898048Y653875D01*
X894873Y650700D02*
X898048Y647525D01*
X894873D02*
X898048D01*
X891698Y644350D02*
X894873Y647525D01*
X902273D02*
X905448Y644350D01*
X899098Y647525D02*
X902273D01*
X899098D02*
X902273Y650700D01*
X899098Y653875D02*
X902273Y650700D01*
X899098Y653875D02*
X902273D01*
X905448Y657050D01*
X908623Y653875D01*
X911798D01*
X908623Y650700D02*
X911798Y653875D01*
X908623Y650700D02*
X911798Y647525D01*
X908623D02*
X911798D01*
X905448Y644350D02*
X908623Y647525D01*
X195325Y16525D02*
X198500Y13350D01*
X192150Y16525D02*
X195325D01*
X192150D02*
X195325Y19700D01*
X192150Y22875D02*
X195325Y19700D01*
X192150Y22875D02*
X195325D01*
X198500Y26050D01*
X201675Y22875D01*
X204850D01*
X201675Y19700D02*
X204850Y22875D01*
X201675Y19700D02*
X204850Y16525D01*
X201675D02*
X204850D01*
X198500Y13350D02*
X201675Y16525D01*
X195325Y36421D02*
X198500Y33246D01*
X192150Y36421D02*
X195325D01*
X192150D02*
X195325Y39596D01*
X192150Y42771D02*
X195325Y39596D01*
X192150Y42771D02*
X195325D01*
X198500Y45946D01*
X201675Y42771D01*
X204850D01*
X201675Y39596D02*
X204850Y42771D01*
X201675Y39596D02*
X204850Y36421D01*
X201675D02*
X204850D01*
X198500Y33246D02*
X201675Y36421D01*
X195325Y56316D02*
X198500Y53141D01*
X192150Y56316D02*
X195325D01*
X192150D02*
X195325Y59492D01*
X192150Y62667D02*
X195325Y59492D01*
X192150Y62667D02*
X195325D01*
X198500Y65841D01*
X201675Y62667D01*
X204850D01*
X201675Y59492D02*
X204850Y62667D01*
X201675Y59492D02*
X204850Y56316D01*
X201675D02*
X204850D01*
X198500Y53141D02*
X201675Y56316D01*
X195325Y99325D02*
X198500Y96150D01*
X192150Y99325D02*
X195325D01*
X192150D02*
X195325Y102500D01*
X192150Y105675D02*
X195325Y102500D01*
X192150Y105675D02*
X195325D01*
X198500Y108850D01*
X201675Y105675D01*
X204850D01*
X201675Y102500D02*
X204850Y105675D01*
X201675Y102500D02*
X204850Y99325D01*
X201675D02*
X204850D01*
X198500Y96150D02*
X201675Y99325D01*
X195325Y119575D02*
X198500Y116400D01*
X192150Y119575D02*
X195325D01*
X192150D02*
X195325Y122750D01*
X192150Y125925D02*
X195325Y122750D01*
X192150Y125925D02*
X195325D01*
X198500Y129100D01*
X201675Y125925D01*
X204850D01*
X201675Y122750D02*
X204850Y125925D01*
X201675Y122750D02*
X204850Y119575D01*
X201675D02*
X204850D01*
X198500Y116400D02*
X201675Y119575D01*
X194223Y141865D02*
X197398Y138690D01*
X191048Y141865D02*
X194223D01*
X191048D02*
X194223Y145040D01*
X191048Y148215D02*
X194223Y145040D01*
X191048Y148215D02*
X194223D01*
X197398Y151390D01*
X200573Y148215D01*
X203748D01*
X200573Y145040D02*
X203748Y148215D01*
X200573Y145040D02*
X203748Y141865D01*
X200573D02*
X203748D01*
X197398Y138690D02*
X200573Y141865D01*
X194223Y161336D02*
X197398Y158161D01*
X191048Y161336D02*
X194223D01*
X191048D02*
X194223Y164511D01*
X191048Y167686D02*
X194223Y164511D01*
X191048Y167686D02*
X194223D01*
X197398Y170861D01*
X200573Y167686D01*
X203748D01*
X200573Y164511D02*
X203748Y167686D01*
X200573Y164511D02*
X203748Y161336D01*
X200573D02*
X203748D01*
X197398Y158161D02*
X200573Y161336D01*
X194223Y329318D02*
X197398Y326143D01*
X191048Y329318D02*
X194223D01*
X191048D02*
X194223Y332493D01*
X191048Y335668D02*
X194223Y332493D01*
X191048Y335668D02*
X194223D01*
X197398Y338843D01*
X200573Y335668D01*
X203748D01*
X200573Y332493D02*
X203748Y335668D01*
X200573Y332493D02*
X203748Y329318D01*
X200573D02*
X203748D01*
X197398Y326143D02*
X200573Y329318D01*
X195575Y306825D02*
X198750Y303650D01*
X192400Y306825D02*
X195575D01*
X192400D02*
X195575Y310000D01*
X192400Y313175D02*
X195575Y310000D01*
X192400Y313175D02*
X195575D01*
X198750Y316350D01*
X201925Y313175D01*
X205100D01*
X201925Y310000D02*
X205100Y313175D01*
X201925Y310000D02*
X205100Y306825D01*
X201925D02*
X205100D01*
X198750Y303650D02*
X201925Y306825D01*
X194223Y269631D02*
X197398Y266455D01*
X191048Y269631D02*
X194223D01*
X191048D02*
X194223Y272806D01*
X191048Y275980D02*
X194223Y272806D01*
X191048Y275980D02*
X194223D01*
X197398Y279156D01*
X200573Y275980D01*
X203748D01*
X200573Y272806D02*
X203748Y275980D01*
X200573Y272806D02*
X203748Y269631D01*
X200573D02*
X203748D01*
X197398Y266455D02*
X200573Y269631D01*
X195575Y285575D02*
X198750Y282400D01*
X192400Y285575D02*
X195575D01*
X192400D02*
X195575Y288750D01*
X192400Y291925D02*
X195575Y288750D01*
X192400Y291925D02*
X195575D01*
X198750Y295100D01*
X201925Y291925D01*
X205100D01*
X201925Y288750D02*
X205100Y291925D01*
X201925Y288750D02*
X205100Y285575D01*
X201925D02*
X205100D01*
X198750Y282400D02*
X201925Y285575D01*
X195325Y454233D02*
X198500Y451058D01*
X192150Y454233D02*
X195325D01*
X192150D02*
X195325Y457408D01*
X192150Y460583D02*
X195325Y457408D01*
X192150Y460583D02*
X195325D01*
X198500Y463758D01*
X201675Y460583D01*
X204850D01*
X201675Y457408D02*
X204850Y460583D01*
X201675Y457408D02*
X204850Y454233D01*
X201675D02*
X204850D01*
X198500Y451058D02*
X201675Y454233D01*
X195325Y474129D02*
X198500Y470954D01*
X192150Y474129D02*
X195325D01*
X192150D02*
X195325Y477304D01*
X192150Y480479D02*
X195325Y477304D01*
X192150Y480479D02*
X195325D01*
X198500Y483654D01*
X201675Y480479D01*
X204850D01*
X201675Y477304D02*
X204850Y480479D01*
X201675Y477304D02*
X204850Y474129D01*
X201675D02*
X204850D01*
X198500Y470954D02*
X201675Y474129D01*
X195325Y494025D02*
X198500Y490849D01*
X192150Y494025D02*
X195325D01*
X192150D02*
X195325Y497200D01*
X192150Y500374D02*
X195325Y497200D01*
X192150Y500374D02*
X195325D01*
X198500Y503549D01*
X201675Y500374D01*
X204850D01*
X201675Y497200D02*
X204850Y500374D01*
X201675Y497200D02*
X204850Y494025D01*
X201675D02*
X204850D01*
X198500Y490849D02*
X201675Y494025D01*
X195325Y349825D02*
X198500Y346650D01*
X192150Y349825D02*
X195325D01*
X192150D02*
X195325Y353000D01*
X192150Y356175D02*
X195325Y353000D01*
X192150Y356175D02*
X195325D01*
X198500Y359350D01*
X201675Y356175D01*
X204850D01*
X201675Y353000D02*
X204850Y356175D01*
X201675Y353000D02*
X204850Y349825D01*
X201675D02*
X204850D01*
X198500Y346650D02*
X201675Y349825D01*
X195594Y223889D02*
X198769Y220714D01*
X192419Y223889D02*
X195594D01*
X192419D02*
X195594Y227064D01*
X192419Y230239D02*
X195594Y227064D01*
X192419Y230239D02*
X195594D01*
X198769Y233414D01*
X201944Y230239D01*
X205119D01*
X201944Y227064D02*
X205119Y230239D01*
X201944Y227064D02*
X205119Y223889D01*
X201944D02*
X205119D01*
X198769Y220714D02*
X201944Y223889D01*
X260505Y119941D02*
X263680Y116766D01*
X257330Y119941D02*
X260505D01*
X257330D02*
X260505Y123116D01*
X257330Y126291D02*
X260505Y123116D01*
X257330Y126291D02*
X260505D01*
X263680Y129466D01*
X266855Y126291D01*
X270030D01*
X266855Y123116D02*
X270030Y126291D01*
X266855Y123116D02*
X270030Y119941D01*
X266855D02*
X270030D01*
X263680Y116766D02*
X266855Y119941D01*
X260463Y202997D02*
X263638Y199822D01*
X257288Y202997D02*
X260463D01*
X257288D02*
X260463Y206172D01*
X257288Y209347D02*
X260463Y206172D01*
X257288Y209347D02*
X260463D01*
X263638Y212522D01*
X266813Y209347D01*
X269988D01*
X266813Y206172D02*
X269988Y209347D01*
X266813Y206172D02*
X269988Y202997D01*
X266813D02*
X269988D01*
X263638Y199822D02*
X266813Y202997D01*
X260023Y286775D02*
X263198Y283600D01*
X256848Y286775D02*
X260023D01*
X256848D02*
X260023Y289950D01*
X256848Y293125D02*
X260023Y289950D01*
X256848Y293125D02*
X260023D01*
X263198Y296300D01*
X266373Y293125D01*
X269548D01*
X266373Y289950D02*
X269548Y293125D01*
X266373Y289950D02*
X269548Y286775D01*
X266373D02*
X269548D01*
X263198Y283600D02*
X266373Y286775D01*
X260273Y328275D02*
X263448Y325100D01*
X257098Y328275D02*
X260273D01*
X257098D02*
X260273Y331450D01*
X257098Y334625D02*
X260273Y331450D01*
X257098Y334625D02*
X260273D01*
X263448Y337800D01*
X266623Y334625D01*
X269798D01*
X266623Y331450D02*
X269798Y334625D01*
X266623Y331450D02*
X269798Y328275D01*
X266623D02*
X269798D01*
X263448Y325100D02*
X266623Y328275D01*
X260406Y161942D02*
X263581Y158767D01*
X257231Y161942D02*
X260406D01*
X257231D02*
X260406Y165117D01*
X257231Y168292D02*
X260406Y165117D01*
X257231Y168292D02*
X260406D01*
X263581Y171467D01*
X266756Y168292D01*
X269931D01*
X266756Y165117D02*
X269931Y168292D01*
X266756Y165117D02*
X269931Y161942D01*
X266756D02*
X269931D01*
X263581Y158767D02*
X266756Y161942D01*
X260444Y369433D02*
X263619Y366258D01*
X257269Y369433D02*
X260444D01*
X257269D02*
X260444Y372608D01*
X257269Y375783D02*
X260444Y372608D01*
X257269Y375783D02*
X260444D01*
X263619Y378958D01*
X266794Y375783D01*
X269969D01*
X266794Y372608D02*
X269969Y375783D01*
X266794Y372608D02*
X269969Y369433D01*
X266794D02*
X269969D01*
X263619Y366258D02*
X266794Y369433D01*
X263023Y38775D02*
X266198Y35600D01*
X259848Y38775D02*
X263023D01*
X259848D02*
X263023Y41950D01*
X259848Y45125D02*
X263023Y41950D01*
X259848Y45125D02*
X263023D01*
X266198Y48300D01*
X269373Y45125D01*
X272548D01*
X269373Y41950D02*
X272548Y45125D01*
X269373Y41950D02*
X272548Y38775D01*
X269373D02*
X272548D01*
X266198Y35600D02*
X269373Y38775D01*
X261523Y79525D02*
X264698Y76350D01*
X258348Y79525D02*
X261523D01*
X258348D02*
X261523Y82700D01*
X258348Y85875D02*
X261523Y82700D01*
X258348Y85875D02*
X261523D01*
X264698Y89050D01*
X267873Y85875D01*
X271048D01*
X267873Y82700D02*
X271048Y85875D01*
X267873Y82700D02*
X271048Y79525D01*
X267873D02*
X271048D01*
X264698Y76350D02*
X267873Y79525D01*
X261963Y235275D02*
X265138Y232100D01*
X258788Y235275D02*
X261963D01*
X258788D02*
X261963Y238450D01*
X258788Y241625D02*
X261963Y238450D01*
X258788Y241625D02*
X261963D01*
X265138Y244800D01*
X268313Y241625D01*
X271488D01*
X268313Y238450D02*
X271488Y241625D01*
X268313Y238450D02*
X271488Y235275D01*
X268313D02*
X271488D01*
X265138Y232100D02*
X268313Y235275D01*
X500773Y453275D02*
X503948Y450100D01*
X497598Y453275D02*
X500773D01*
X497598D02*
X500773Y456450D01*
X497598Y459625D02*
X500773Y456450D01*
X497598Y459625D02*
X500773D01*
X503948Y462800D01*
X507123Y459625D01*
X510298D01*
X507123Y456450D02*
X510298Y459625D01*
X507123Y456450D02*
X510298Y453275D01*
X507123D02*
X510298D01*
X503948Y450100D02*
X507123Y453275D01*
X138273Y129025D02*
X141448Y125850D01*
X135098Y129025D02*
X138273D01*
X135098D02*
X138273Y132200D01*
X135098Y135375D02*
X138273Y132200D01*
X135098Y135375D02*
X138273D01*
X141448Y138550D01*
X144623Y135375D01*
X147798D01*
X144623Y132200D02*
X147798Y135375D01*
X144623Y132200D02*
X147798Y129025D01*
X144623D02*
X147798D01*
X141448Y125850D02*
X144623Y129025D01*
X671078Y395244D02*
X674253Y392069D01*
X667903Y395244D02*
X671078D01*
X667903D02*
X671078Y398419D01*
X667903Y401594D02*
X671078Y398419D01*
X667903Y401594D02*
X671078D01*
X674253Y404769D01*
X677428Y401594D01*
X680603D01*
X677428Y398419D02*
X680603Y401594D01*
X677428Y398419D02*
X680603Y395244D01*
X677428D02*
X680603D01*
X674253Y392069D02*
X677428Y395244D01*
X864825Y396325D02*
X868000Y393150D01*
X861650Y396325D02*
X864825D01*
X861650D02*
X864825Y399500D01*
X861650Y402675D02*
X864825Y399500D01*
X861650Y402675D02*
X864825D01*
X868000Y405850D01*
X871175Y402675D01*
X874350D01*
X871175Y399500D02*
X874350Y402675D01*
X871175Y399500D02*
X874350Y396325D01*
X871175D02*
X874350D01*
X868000Y393150D02*
X871175Y396325D01*
X669575Y591325D02*
X672750Y588150D01*
X666400Y591325D02*
X669575D01*
X666400D02*
X669575Y594500D01*
X666400Y597675D02*
X669575Y594500D01*
X666400Y597675D02*
X669575D01*
X672750Y600850D01*
X675925Y597675D01*
X679100D01*
X675925Y594500D02*
X679100Y597675D01*
X675925Y594500D02*
X679100Y591325D01*
X675925D02*
X679100D01*
X672750Y588150D02*
X675925Y591325D01*
X866575Y593825D02*
X869750Y590650D01*
X863400Y593825D02*
X866575D01*
X863400D02*
X866575Y597000D01*
X863400Y600175D02*
X866575Y597000D01*
X863400Y600175D02*
X866575D01*
X869750Y603350D01*
X872925Y600175D01*
X876100D01*
X872925Y597000D02*
X876100Y600175D01*
X872925Y597000D02*
X876100Y593825D01*
X872925D02*
X876100D01*
X869750Y590650D02*
X872925Y593825D01*
X672822Y203752D02*
X675997Y200578D01*
X669648Y203752D02*
X672822D01*
X669648D02*
X672822Y206928D01*
X669648Y210103D02*
X672822Y206928D01*
X669648Y210103D02*
X672822D01*
X675997Y213277D01*
X679173Y210103D01*
X682347D01*
X679173Y206928D02*
X682347Y210103D01*
X679173Y206928D02*
X682347Y203752D01*
X679173D02*
X682347D01*
X675997Y200578D02*
X679173Y203752D01*
X865000Y198866D02*
X868175Y195691D01*
X861825Y198866D02*
X865000D01*
X861825D02*
X865000Y202041D01*
X861825Y205216D02*
X865000Y202041D01*
X861825Y205216D02*
X865000D01*
X868175Y208391D01*
X871350Y205216D01*
X874525D01*
X871350Y202041D02*
X874525Y205216D01*
X871350Y202041D02*
X874525Y198866D01*
X871350D02*
X874525D01*
X868175Y195691D02*
X871350Y198866D01*
X500625Y63111D02*
X503800Y59936D01*
X497450Y63111D02*
X500625D01*
X497450D02*
X500625Y66286D01*
X497450Y69461D02*
X500625Y66286D01*
X497450Y69461D02*
X500625D01*
X503800Y72636D01*
X506975Y69461D01*
X510150D01*
X506975Y66286D02*
X510150Y69461D01*
X506975Y66286D02*
X510150Y63111D01*
X506975D02*
X510150D01*
X503800Y59936D02*
X506975Y63111D01*
X513825Y62825D02*
X517000Y59650D01*
X510650Y62825D02*
X513825D01*
X510650D02*
X513825Y66000D01*
X510650Y69175D02*
X513825Y66000D01*
X510650Y69175D02*
X513825D01*
X517000Y72350D01*
X520175Y69175D01*
X523350D01*
X520175Y66000D02*
X523350Y69175D01*
X520175Y66000D02*
X523350Y62825D01*
X520175D02*
X523350D01*
X517000Y59650D02*
X520175Y62825D01*
X694325Y63575D02*
X697500Y60400D01*
X691150Y63575D02*
X694325D01*
X691150D02*
X694325Y66750D01*
X691150Y69925D02*
X694325Y66750D01*
X691150Y69925D02*
X694325D01*
X697500Y73100D01*
X700675Y69925D01*
X703850D01*
X700675Y66750D02*
X703850Y69925D01*
X700675Y66750D02*
X703850Y63575D01*
X700675D02*
X703850D01*
X697500Y60400D02*
X700675Y63575D01*
X706575D02*
X709750Y60400D01*
X703400Y63575D02*
X706575D01*
X703400D02*
X706575Y66750D01*
X703400Y69925D02*
X706575Y66750D01*
X703400Y69925D02*
X706575D01*
X709750Y73100D01*
X712925Y69925D01*
X716100D01*
X712925Y66750D02*
X716100Y69925D01*
X712925Y66750D02*
X716100Y63575D01*
X712925D02*
X716100D01*
X709750Y60400D02*
X712925Y63575D01*
X888075D02*
X891250Y60400D01*
X884900Y63575D02*
X888075D01*
X884900D02*
X888075Y66750D01*
X884900Y69925D02*
X888075Y66750D01*
X884900Y69925D02*
X888075D01*
X891250Y73100D01*
X894425Y69925D01*
X897600D01*
X894425Y66750D02*
X897600Y69925D01*
X894425Y66750D02*
X897600Y63575D01*
X894425D02*
X897600D01*
X891250Y60400D02*
X894425Y63575D01*
X902325Y63825D02*
X905500Y60650D01*
X899150Y63825D02*
X902325D01*
X899150D02*
X902325Y67000D01*
X899150Y70175D02*
X902325Y67000D01*
X899150Y70175D02*
X902325D01*
X905500Y73350D01*
X908675Y70175D01*
X911850D01*
X908675Y67000D02*
X911850Y70175D01*
X908675Y67000D02*
X911850Y63825D01*
X908675D02*
X911850D01*
X905500Y60650D02*
X908675Y63825D01*
X195325Y78825D02*
X198500Y75650D01*
X192150Y78825D02*
X195325D01*
X192150D02*
X195325Y82000D01*
X192150Y85175D02*
X195325Y82000D01*
X192150Y85175D02*
X195325D01*
X198500Y88350D01*
X201675Y85175D01*
X204850D01*
X201675Y82000D02*
X204850Y85175D01*
X201675Y82000D02*
X204850Y78825D01*
X201675D02*
X204850D01*
X198500Y75650D02*
X201675Y78825D01*
X159972Y173428D02*
X163147Y170253D01*
X156797Y173428D02*
X159972D01*
X156797D02*
X159972Y176603D01*
X156797Y179778D02*
X159972Y176603D01*
X156797Y179778D02*
X159972D01*
X163147Y182953D01*
X166322Y179778D01*
X169497D01*
X166322Y176603D02*
X169497Y179778D01*
X166322Y176603D02*
X169497Y173428D01*
X166322D02*
X169497D01*
X163147Y170253D02*
X166322Y173428D01*
X138075Y180575D02*
X141250Y177400D01*
X134900Y180575D02*
X138075D01*
X134900D02*
X138075Y183750D01*
X134900Y186925D02*
X138075Y183750D01*
X134900Y186925D02*
X138075D01*
X141250Y190100D01*
X144425Y186925D01*
X147600D01*
X144425Y183750D02*
X147600Y186925D01*
X144425Y183750D02*
X147600Y180575D01*
X144425D02*
X147600D01*
X141250Y177400D02*
X144425Y180575D01*
X159066Y249752D02*
X162241Y246577D01*
X155891Y249752D02*
X159066D01*
X155891D02*
X159066Y252927D01*
X155891Y256102D02*
X159066Y252927D01*
X155891Y256102D02*
X159066D01*
X162241Y259277D01*
X165416Y256102D01*
X168591D01*
X165416Y252927D02*
X168591Y256102D01*
X165416Y252927D02*
X168591Y249752D01*
X165416D02*
X168591D01*
X162241Y246577D02*
X165416Y249752D01*
X196574Y174443D02*
X199749Y171268D01*
X193399Y174443D02*
X196574D01*
X193399D02*
X196574Y177618D01*
X193399Y180793D02*
X196574Y177618D01*
X193399Y180793D02*
X196574D01*
X199749Y183968D01*
X202924Y180793D01*
X206099D01*
X202924Y177618D02*
X206099Y180793D01*
X202924Y177618D02*
X206099Y174443D01*
X202924D02*
X206099D01*
X199749Y171268D02*
X202924Y174443D01*
X170124Y195228D02*
X173298Y192053D01*
X166949Y195228D02*
X170124D01*
X166949D02*
X170124Y198403D01*
X166949Y201578D02*
X170124Y198403D01*
X166949Y201578D02*
X170124D01*
X173298Y204753D01*
X176474Y201578D01*
X179648D01*
X176474Y198403D02*
X179648Y201578D01*
X176474Y198403D02*
X179648Y195228D01*
X176474D02*
X179648D01*
X173298Y192053D02*
X176474Y195228D01*
X170075Y290075D02*
X173250Y286900D01*
X166900Y290075D02*
X170075D01*
X166900D02*
X170075Y293250D01*
X166900Y296425D02*
X170075Y293250D01*
X166900Y296425D02*
X170075D01*
X173250Y299600D01*
X176425Y296425D01*
X179600D01*
X176425Y293250D02*
X179600Y296425D01*
X176425Y293250D02*
X179600Y290075D01*
X176425D02*
X179600D01*
X173250Y286900D02*
X176425Y290075D01*
X172575Y310075D02*
X175750Y306900D01*
X169400Y310075D02*
X172575D01*
X169400D02*
X172575Y313250D01*
X169400Y316425D02*
X172575Y313250D01*
X169400Y316425D02*
X172575D01*
X175750Y319600D01*
X178925Y316425D01*
X182100D01*
X178925Y313250D02*
X182100Y316425D01*
X178925Y313250D02*
X182100Y310075D01*
X178925D02*
X182100D01*
X175750Y306900D02*
X178925Y310075D01*
X170721Y119514D02*
X173896Y116339D01*
X167546Y119514D02*
X170721D01*
X167546D02*
X170721Y122689D01*
X167546Y125864D02*
X170721Y122689D01*
X167546Y125864D02*
X170721D01*
X173896Y129039D01*
X177071Y125864D01*
X180246D01*
X177071Y122689D02*
X180246Y125864D01*
X177071Y122689D02*
X180246Y119514D01*
X177071D02*
X180246D01*
X173896Y116339D02*
X177071Y119514D01*
X141825Y255575D02*
X145000Y252400D01*
X138650Y255575D02*
X141825D01*
X138650D02*
X141825Y258750D01*
X138650Y261925D02*
X141825Y258750D01*
X138650Y261925D02*
X141825D01*
X145000Y265100D01*
X148175Y261925D01*
X151350D01*
X148175Y258750D02*
X151350Y261925D01*
X148175Y258750D02*
X151350Y255575D01*
X148175D02*
X151350D01*
X145000Y252400D02*
X148175Y255575D01*
X260058Y421859D02*
X263233Y418684D01*
X256883Y421859D02*
X260058D01*
X256883D02*
X260058Y425034D01*
X256883Y428209D02*
X260058Y425034D01*
X256883Y428209D02*
X260058D01*
X263233Y431384D01*
X266408Y428209D01*
X269583D01*
X266408Y425034D02*
X269583Y428209D01*
X266408Y425034D02*
X269583Y421859D01*
X266408D02*
X269583D01*
X263233Y418684D02*
X266408Y421859D01*
X378825Y97325D02*
X382000Y94150D01*
X375650Y97325D02*
X378825D01*
X375650D02*
X378825Y100500D01*
X375650Y103675D02*
X378825Y100500D01*
X375650Y103675D02*
X378825D01*
X382000Y106850D01*
X385175Y103675D01*
X388350D01*
X385175Y100500D02*
X388350Y103675D01*
X385175Y100500D02*
X388350Y97325D01*
X385175D02*
X388350D01*
X382000Y94150D02*
X385175Y97325D01*
X398075Y168325D02*
X401250Y165150D01*
X394900Y168325D02*
X398075D01*
X394900D02*
X398075Y171500D01*
X394900Y174675D02*
X398075Y171500D01*
X394900Y174675D02*
X398075D01*
X401250Y177850D01*
X404425Y174675D01*
X407600D01*
X404425Y171500D02*
X407600Y174675D01*
X404425Y171500D02*
X407600Y168325D01*
X404425D02*
X407600D01*
X401250Y165150D02*
X404425Y168325D01*
X379575Y295075D02*
X382750Y291900D01*
X376400Y295075D02*
X379575D01*
X376400D02*
X379575Y298250D01*
X376400Y301425D02*
X379575Y298250D01*
X376400Y301425D02*
X379575D01*
X382750Y304600D01*
X385925Y301425D01*
X389100D01*
X385925Y298250D02*
X389100Y301425D01*
X385925Y298250D02*
X389100Y295075D01*
X385925D02*
X389100D01*
X382750Y291900D02*
X385925Y295075D01*
X397099Y362021D02*
X400274Y358846D01*
X393924Y362021D02*
X397099D01*
X393924D02*
X397099Y365196D01*
X393924Y368371D02*
X397099Y365196D01*
X393924Y368371D02*
X397099D01*
X400274Y371546D01*
X403449Y368371D01*
X406624D01*
X403449Y365196D02*
X406624Y368371D01*
X403449Y365196D02*
X406624Y362021D01*
X403449D02*
X406624D01*
X400274Y358846D02*
X403449Y362021D01*
X378575Y493825D02*
X381750Y490650D01*
X375400Y493825D02*
X378575D01*
X375400D02*
X378575Y497000D01*
X375400Y500175D02*
X378575Y497000D01*
X375400Y500175D02*
X378575D01*
X381750Y503350D01*
X384925Y500175D01*
X388100D01*
X384925Y497000D02*
X388100Y500175D01*
X384925Y497000D02*
X388100Y493825D01*
X384925D02*
X388100D01*
X381750Y490650D02*
X384925Y493825D01*
X397689Y558422D02*
X400864Y555247D01*
X394514Y558422D02*
X397689D01*
X394514D02*
X397689Y561597D01*
X394514Y564772D02*
X397689Y561597D01*
X394514Y564772D02*
X397689D01*
X400864Y567947D01*
X404039Y564772D01*
X407214D01*
X404039Y561597D02*
X407214Y564772D01*
X404039Y561597D02*
X407214Y558422D01*
X404039D02*
X407214D01*
X400864Y555247D02*
X404039Y558422D01*
X378282Y689840D02*
X381457Y686665D01*
X375107Y689840D02*
X378282D01*
X375107D02*
X378282Y693015D01*
X375107Y696190D02*
X378282Y693015D01*
X375107Y696190D02*
X378282D01*
X381457Y699365D01*
X384632Y696190D01*
X387807D01*
X384632Y693015D02*
X387807Y696190D01*
X384632Y693015D02*
X387807Y689840D01*
X384632D02*
X387807D01*
X381457Y686665D02*
X384632Y689840D01*
X397011Y755748D02*
X400186Y752573D01*
X393836Y755748D02*
X397011D01*
X393836D02*
X397011Y758923D01*
X393836Y762098D02*
X397011Y758923D01*
X393836Y762098D02*
X397011D01*
X400186Y765273D01*
X403361Y762098D01*
X406536D01*
X403361Y758923D02*
X406536Y762098D01*
X403361Y758923D02*
X406536Y755748D01*
X403361D02*
X406536D01*
X400186Y752573D02*
X403361Y755748D01*
X572868Y691829D02*
X576043Y688654D01*
X569693Y691829D02*
X572868D01*
X569693D02*
X572868Y695004D01*
X569693Y698179D02*
X572868Y695004D01*
X569693Y698179D02*
X572868D01*
X576043Y701354D01*
X579218Y698179D01*
X582393D01*
X579218Y695004D02*
X582393Y698179D01*
X579218Y695004D02*
X582393Y691829D01*
X579218D02*
X582393D01*
X576043Y688654D02*
X579218Y691829D01*
X591183Y755179D02*
X594358Y752004D01*
X588008Y755179D02*
X591183D01*
X588008D02*
X591183Y758354D01*
X588008Y761529D02*
X591183Y758354D01*
X588008Y761529D02*
X591183D01*
X594358Y764704D01*
X597533Y761529D01*
X600708D01*
X597533Y758354D02*
X600708Y761529D01*
X597533Y758354D02*
X600708Y755179D01*
X597533D02*
X600708D01*
X594358Y752004D02*
X597533Y755179D01*
X767325Y690575D02*
X770500Y687400D01*
X764150Y690575D02*
X767325D01*
X764150D02*
X767325Y693750D01*
X764150Y696925D02*
X767325Y693750D01*
X764150Y696925D02*
X767325D01*
X770500Y700100D01*
X773675Y696925D01*
X776850D01*
X773675Y693750D02*
X776850Y696925D01*
X773675Y693750D02*
X776850Y690575D01*
X773675D02*
X776850D01*
X770500Y687400D02*
X773675Y690575D01*
X785753Y755613D02*
X788928Y752438D01*
X782578Y755613D02*
X785753D01*
X782578D02*
X785753Y758788D01*
X782578Y761963D02*
X785753Y758788D01*
X782578Y761963D02*
X785753D01*
X788928Y765138D01*
X792103Y761963D01*
X795278D01*
X792103Y758788D02*
X795278Y761963D01*
X792103Y758788D02*
X795278Y755613D01*
X792103D02*
X795278D01*
X788928Y752438D02*
X792103Y755613D01*
X785325Y558075D02*
X788500Y554900D01*
X782150Y558075D02*
X785325D01*
X782150D02*
X785325Y561250D01*
X782150Y564425D02*
X785325Y561250D01*
X782150Y564425D02*
X785325D01*
X788500Y567600D01*
X791675Y564425D01*
X794850D01*
X791675Y561250D02*
X794850Y564425D01*
X791675Y561250D02*
X794850Y558075D01*
X791675D02*
X794850D01*
X788500Y554900D02*
X791675Y558075D01*
X766325Y492075D02*
X769500Y488900D01*
X763150Y492075D02*
X766325D01*
X763150D02*
X766325Y495250D01*
X763150Y498425D02*
X766325Y495250D01*
X763150Y498425D02*
X766325D01*
X769500Y501600D01*
X772675Y498425D01*
X775850D01*
X772675Y495250D02*
X775850Y498425D01*
X772675Y495250D02*
X775850Y492075D01*
X772675D02*
X775850D01*
X769500Y488900D02*
X772675Y492075D01*
X785501Y359284D02*
X788676Y356109D01*
X782326Y359284D02*
X785501D01*
X782326D02*
X785501Y362459D01*
X782326Y365634D02*
X785501Y362459D01*
X782326Y365634D02*
X785501D01*
X788676Y368809D01*
X791851Y365634D01*
X795026D01*
X791851Y362459D02*
X795026Y365634D01*
X791851Y362459D02*
X795026Y359284D01*
X791851D02*
X795026D01*
X788676Y356109D02*
X791851Y359284D01*
X766125Y297480D02*
X769300Y294305D01*
X762950Y297480D02*
X766125D01*
X762950D02*
X766125Y300655D01*
X762950Y303830D02*
X766125Y300655D01*
X762950Y303830D02*
X766125D01*
X769300Y307005D01*
X772475Y303830D01*
X775650D01*
X772475Y300655D02*
X775650Y303830D01*
X772475Y300655D02*
X775650Y297480D01*
X772475D02*
X775650D01*
X769300Y294305D02*
X772475Y297480D01*
X572075Y494825D02*
X575250Y491650D01*
X568900Y494825D02*
X572075D01*
X568900D02*
X572075Y498000D01*
X568900Y501175D02*
X572075Y498000D01*
X568900Y501175D02*
X572075D01*
X575250Y504350D01*
X578425Y501175D01*
X581600D01*
X578425Y498000D02*
X581600Y501175D01*
X578425Y498000D02*
X581600Y494825D01*
X578425D02*
X581600D01*
X575250Y491650D02*
X578425Y494825D01*
X590127Y557896D02*
X593302Y554721D01*
X586952Y557896D02*
X590127D01*
X586952D02*
X590127Y561071D01*
X586952Y564246D02*
X590127Y561071D01*
X586952Y564246D02*
X590127D01*
X593302Y567421D01*
X596477Y564246D01*
X599652D01*
X596477Y561071D02*
X599652Y564246D01*
X596477Y561071D02*
X599652Y557896D01*
X596477D02*
X599652D01*
X593302Y554721D02*
X596477Y557896D01*
X367575Y68325D02*
X370750Y65150D01*
X364400Y68325D02*
X367575D01*
X364400D02*
X367575Y71500D01*
X364400Y74675D02*
X367575Y71500D01*
X364400Y74675D02*
X367575D01*
X370750Y77850D01*
X373925Y74675D01*
X377100D01*
X373925Y71500D02*
X377100Y74675D01*
X373925Y71500D02*
X377100Y68325D01*
X373925D02*
X377100D01*
X370750Y65150D02*
X373925Y68325D01*
X572325Y101325D02*
X575500Y98150D01*
X569150Y101325D02*
X572325D01*
X569150D02*
X572325Y104500D01*
X569150Y107675D02*
X572325Y104500D01*
X569150Y107675D02*
X572325D01*
X575500Y110850D01*
X578675Y107675D01*
X581850D01*
X578675Y104500D02*
X581850Y107675D01*
X578675Y104500D02*
X581850Y101325D01*
X578675D02*
X581850D01*
X575500Y98150D02*
X578675Y101325D01*
X590488Y165280D02*
X593663Y162105D01*
X587313Y165280D02*
X590488D01*
X587313D02*
X590488Y168455D01*
X587313Y171630D02*
X590488Y168455D01*
X587313Y171630D02*
X590488D01*
X593663Y174805D01*
X596838Y171630D01*
X600013D01*
X596838Y168455D02*
X600013Y171630D01*
X596838Y168455D02*
X600013Y165280D01*
X596838D02*
X600013D01*
X593663Y162105D02*
X596838Y165280D01*
X572575Y297325D02*
X575750Y294150D01*
X569400Y297325D02*
X572575D01*
X569400D02*
X572575Y300500D01*
X569400Y303675D02*
X572575Y300500D01*
X569400Y303675D02*
X572575D01*
X575750Y306850D01*
X578925Y303675D01*
X582100D01*
X578925Y300500D02*
X582100Y303675D01*
X578925Y300500D02*
X582100Y297325D01*
X578925D02*
X582100D01*
X575750Y294150D02*
X578925Y297325D01*
X591061Y360474D02*
X594236Y357299D01*
X587886Y360474D02*
X591061D01*
X587886D02*
X591061Y363649D01*
X587886Y366824D02*
X591061Y363649D01*
X587886Y366824D02*
X591061D01*
X594236Y369999D01*
X597411Y366824D01*
X600586D01*
X597411Y363649D02*
X600586Y366824D01*
X597411Y363649D02*
X600586Y360474D01*
X597411D02*
X600586D01*
X594236Y357299D02*
X597411Y360474D01*
X752825Y112325D02*
X756000Y109150D01*
X749650Y112325D02*
X752825D01*
X749650D02*
X752825Y115500D01*
X749650Y118675D02*
X752825Y115500D01*
X749650Y118675D02*
X752825D01*
X756000Y121850D01*
X759175Y118675D01*
X762350D01*
X759175Y115500D02*
X762350Y118675D01*
X759175Y115500D02*
X762350Y112325D01*
X759175D02*
X762350D01*
X756000Y109150D02*
X759175Y112325D01*
X785075Y165575D02*
X788250Y162400D01*
X781900Y165575D02*
X785075D01*
X781900D02*
X785075Y168750D01*
X781900Y171925D02*
X785075Y168750D01*
X781900Y171925D02*
X785075D01*
X788250Y175100D01*
X791425Y171925D01*
X794600D01*
X791425Y168750D02*
X794600Y171925D01*
X791425Y168750D02*
X794600Y165575D01*
X791425D02*
X794600D01*
X788250Y162400D02*
X791425Y165575D01*
X108075Y565825D02*
X111250Y562650D01*
X104900Y565825D02*
X108075D01*
X104900D02*
X108075Y569000D01*
X104900Y572175D02*
X108075Y569000D01*
X104900Y572175D02*
X108075D01*
X111250Y575350D01*
X114425Y572175D01*
X117600D01*
X114425Y569000D02*
X117600Y572175D01*
X114425Y569000D02*
X117600Y565825D01*
X114425D02*
X117600D01*
X111250Y562650D02*
X114425Y565825D01*
X195914Y248044D02*
X199088Y244869D01*
X192738Y248044D02*
X195914D01*
X192738D02*
X195914Y251219D01*
X192738Y254394D02*
X195914Y251219D01*
X192738Y254394D02*
X195914D01*
X199088Y257569D01*
X202264Y254394D01*
X205438D01*
X202264Y251219D02*
X205438Y254394D01*
X202264Y251219D02*
X205438Y248044D01*
X202264D02*
X205438D01*
X199088Y244869D02*
X202264Y248044D01*
X194144Y204138D02*
X197319Y200963D01*
X190969Y204138D02*
X194144D01*
X190969D02*
X194144Y207313D01*
X190969Y210488D02*
X194144Y207313D01*
X190969Y210488D02*
X194144D01*
X197319Y213663D01*
X200494Y210488D01*
X203669D01*
X200494Y207313D02*
X203669Y210488D01*
X200494Y207313D02*
X203669Y204138D01*
X200494D02*
X203669D01*
X197319Y200963D02*
X200494Y204138D01*
X384825Y608825D02*
X388000Y605650D01*
X381650Y608825D02*
X384825D01*
X381650D02*
X384825Y612000D01*
X381650Y615175D02*
X384825Y612000D01*
X381650Y615175D02*
X384825D01*
X388000Y618350D01*
X391175Y615175D01*
X394350D01*
X391175Y612000D02*
X394350Y615175D01*
X391175Y612000D02*
X394350Y608825D01*
X391175D02*
X394350D01*
X388000Y605650D02*
X391175Y608825D01*
X390097Y591981D02*
X393272Y588806D01*
X386922Y591981D02*
X390097D01*
X386922D02*
X390097Y595156D01*
X386922Y598331D02*
X390097Y595156D01*
X386922Y598331D02*
X390097D01*
X393272Y601506D01*
X396447Y598331D01*
X399622D01*
X396447Y595156D02*
X399622Y598331D01*
X396447Y595156D02*
X399622Y591981D01*
X396447D02*
X399622D01*
X393272Y588806D02*
X396447Y591981D01*
X478693Y591670D02*
X481868Y588495D01*
X475518Y591670D02*
X478693D01*
X475518D02*
X478693Y594845D01*
X475518Y598020D02*
X478693Y594845D01*
X475518Y598020D02*
X478693D01*
X481868Y601195D01*
X485043Y598020D01*
X488218D01*
X485043Y594845D02*
X488218Y598020D01*
X485043Y594845D02*
X488218Y591670D01*
X485043D02*
X488218D01*
X481868Y588495D02*
X485043Y591670D01*
X477575Y788575D02*
X480750Y785400D01*
X474400Y788575D02*
X477575D01*
X474400D02*
X477575Y791750D01*
X474400Y794925D02*
X477575Y791750D01*
X474400Y794925D02*
X477575D01*
X480750Y798100D01*
X483925Y794925D01*
X487100D01*
X483925Y791750D02*
X487100Y794925D01*
X483925Y791750D02*
X487100Y788575D01*
X483925D02*
X487100D01*
X480750Y785400D02*
X483925Y788575D01*
X670969Y796105D02*
X674144Y792930D01*
X667794Y796105D02*
X670969D01*
X667794D02*
X670969Y799280D01*
X667794Y802455D02*
X670969Y799280D01*
X667794Y802455D02*
X670969D01*
X674144Y805630D01*
X677319Y802455D01*
X680494D01*
X677319Y799280D02*
X680494Y802455D01*
X677319Y799280D02*
X680494Y796105D01*
X677319D02*
X680494D01*
X674144Y792930D02*
X677319Y796105D01*
X866075Y795325D02*
X869250Y792150D01*
X862900Y795325D02*
X866075D01*
X862900D02*
X866075Y798500D01*
X862900Y801675D02*
X866075Y798500D01*
X862900Y801675D02*
X866075D01*
X869250Y804850D01*
X872425Y801675D01*
X875600D01*
X872425Y798500D02*
X875600Y801675D01*
X872425Y798500D02*
X875600Y795325D01*
X872425D02*
X875600D01*
X869250Y792150D02*
X872425Y795325D01*
X396325Y403825D02*
X399500Y400650D01*
X393150Y403825D02*
X396325D01*
X393150D02*
X396325Y407000D01*
X393150Y410175D02*
X396325Y407000D01*
X393150Y410175D02*
X396325D01*
X399500Y413350D01*
X402675Y410175D01*
X405850D01*
X402675Y407000D02*
X405850Y410175D01*
X402675Y407000D02*
X405850Y403825D01*
X402675D02*
X405850D01*
X399500Y400650D02*
X402675Y403825D01*
X387621Y418865D02*
X390796Y415690D01*
X384446Y418865D02*
X387621D01*
X384446D02*
X387621Y422040D01*
X384446Y425215D02*
X387621Y422040D01*
X384446Y425215D02*
X387621D01*
X390796Y428390D01*
X393971Y425215D01*
X397146D01*
X393971Y422040D02*
X397146Y425215D01*
X393971Y422040D02*
X397146Y418865D01*
X393971D02*
X397146D01*
X390796Y415690D02*
X393971Y418865D01*
X481088Y386654D02*
X484263Y383479D01*
X477913Y386654D02*
X481088D01*
X477913D02*
X481088Y389829D01*
X477913Y393004D02*
X481088Y389829D01*
X477913Y393004D02*
X481088D01*
X484263Y396179D01*
X487438Y393004D01*
X490613D01*
X487438Y389829D02*
X490613Y393004D01*
X487438Y389829D02*
X490613Y386654D01*
X487438D02*
X490613D01*
X484263Y383479D02*
X487438Y386654D01*
X378433Y625411D02*
X381608Y622236D01*
X375258Y625411D02*
X378433D01*
X375258D02*
X378433Y628586D01*
X375258Y631761D02*
X378433Y628586D01*
X375258Y631761D02*
X378433D01*
X381608Y634936D01*
X384783Y631761D01*
X387958D01*
X384783Y628586D02*
X387958Y631761D01*
X384783Y628586D02*
X387958Y625411D01*
X384783D02*
X387958D01*
X381608Y622236D02*
X384783Y625411D01*
X346825Y744575D02*
X350000Y741400D01*
X343650Y744575D02*
X346825D01*
X343650D02*
X346825Y747750D01*
X343650Y750925D02*
X346825Y747750D01*
X343650Y750925D02*
X346825D01*
X350000Y754100D01*
X353175Y750925D01*
X356350D01*
X353175Y747750D02*
X356350Y750925D01*
X353175Y747750D02*
X356350Y744575D01*
X353175D02*
X356350D01*
X350000Y741400D02*
X353175Y744575D01*
X323440Y772822D02*
X326615Y769647D01*
X320265Y772822D02*
X323440D01*
X320265D02*
X323440Y775997D01*
X320265Y779172D02*
X323440Y775997D01*
X320265Y779172D02*
X323440D01*
X326615Y782347D01*
X329790Y779172D01*
X332965D01*
X329790Y775997D02*
X332965Y779172D01*
X329790Y775997D02*
X332965Y772822D01*
X329790D02*
X332965D01*
X326615Y769647D02*
X329790Y772822D01*
X362773Y179729D02*
X365948Y176554D01*
X359598Y179729D02*
X362773D01*
X359598D02*
X362773Y182904D01*
X359598Y186079D02*
X362773Y182904D01*
X359598Y186079D02*
X362773D01*
X365948Y189254D01*
X369123Y186079D01*
X372298D01*
X369123Y182904D02*
X372298Y186079D01*
X369123Y182904D02*
X372298Y179729D01*
X369123D02*
X372298D01*
X365948Y176554D02*
X369123Y179729D01*
X479266Y194329D02*
X482441Y191154D01*
X476091Y194329D02*
X479266D01*
X476091D02*
X479266Y197504D01*
X476091Y200679D02*
X479266Y197504D01*
X476091Y200679D02*
X479266D01*
X482441Y203854D01*
X485616Y200679D01*
X488791D01*
X485616Y197504D02*
X488791Y200679D01*
X485616Y197504D02*
X488791Y194329D01*
X485616D02*
X488791D01*
X482441Y191154D02*
X485616Y194329D01*
X372825Y216153D02*
X376000Y212978D01*
X369650Y216153D02*
X372825D01*
X369650D02*
X372825Y219328D01*
X369650Y222503D02*
X372825Y219328D01*
X369650Y222503D02*
X372825D01*
X376000Y225678D01*
X379175Y222503D01*
X382350D01*
X379175Y219328D02*
X382350Y222503D01*
X379175Y219328D02*
X382350Y216153D01*
X379175D02*
X382350D01*
X376000Y212978D02*
X379175Y216153D01*
X373825Y235825D02*
X377000Y232650D01*
X370650Y235825D02*
X373825D01*
X370650D02*
X373825Y239000D01*
X370650Y242175D02*
X373825Y239000D01*
X370650Y242175D02*
X373825D01*
X377000Y245350D01*
X380175Y242175D01*
X383350D01*
X380175Y239000D02*
X383350Y242175D01*
X380175Y239000D02*
X383350Y235825D01*
X380175D02*
X383350D01*
X377000Y232650D02*
X380175Y235825D01*
X398075Y386325D02*
X401250Y383150D01*
X394900Y386325D02*
X398075D01*
X394900D02*
X398075Y389500D01*
X394900Y392675D02*
X398075Y389500D01*
X394900Y392675D02*
X398075D01*
X401250Y395850D01*
X404425Y392675D01*
X407600D01*
X404425Y389500D02*
X407600Y392675D01*
X404425Y389500D02*
X407600Y386325D01*
X404425D02*
X407600D01*
X401250Y383150D02*
X404425Y386325D01*
X367325Y59325D02*
X370500Y56150D01*
X364150Y59325D02*
X367325D01*
X364150D02*
X367325Y62500D01*
X364150Y65675D02*
X367325Y62500D01*
X364150Y65675D02*
X367325D01*
X370500Y68850D01*
X373675Y65675D01*
X376850D01*
X373675Y62500D02*
X376850Y65675D01*
X373675Y62500D02*
X376850Y59325D01*
X373675D02*
X376850D01*
X370500Y56150D02*
X373675Y59325D01*
X249910Y520325D02*
X253085Y517150D01*
X246735Y520325D02*
X249910D01*
X246735D02*
X249910Y523500D01*
X246735Y526675D02*
X249910Y523500D01*
X246735Y526675D02*
X249910D01*
X253085Y529850D01*
X256260Y526675D01*
X259435D01*
X256260Y523500D02*
X259435Y526675D01*
X256260Y523500D02*
X259435Y520325D01*
X256260D02*
X259435D01*
X253085Y517150D02*
X256260Y520325D01*
X260911Y464376D02*
X264086Y461201D01*
X257736Y464376D02*
X260911D01*
X257736D02*
X260911Y467551D01*
X257736Y470726D02*
X260911Y467551D01*
X257736Y470726D02*
X260911D01*
X264086Y473901D01*
X267261Y470726D01*
X270436D01*
X267261Y467551D02*
X270436Y470726D01*
X267261Y467551D02*
X270436Y464376D01*
X267261D02*
X270436D01*
X264086Y461201D02*
X267261Y464376D01*
X195172Y374803D02*
X198347Y371628D01*
X191997Y374803D02*
X195172D01*
X191997D02*
X195172Y377978D01*
X191997Y381153D02*
X195172Y377978D01*
X191997Y381153D02*
X195172D01*
X198347Y384328D01*
X201522Y381153D01*
X204697D01*
X201522Y377978D02*
X204697Y381153D01*
X201522Y377978D02*
X204697Y374803D01*
X201522D02*
X204697D01*
X198347Y371628D02*
X201522Y374803D01*
X195325Y394545D02*
X198500Y391370D01*
X192150Y394545D02*
X195325D01*
X192150D02*
X195325Y397720D01*
X192150Y400895D02*
X195325Y397720D01*
X192150Y400895D02*
X195325D01*
X198500Y404070D01*
X201675Y400895D01*
X204850D01*
X201675Y397720D02*
X204850Y400895D01*
X201675Y397720D02*
X204850Y394545D01*
X201675D02*
X204850D01*
X198500Y391370D02*
X201675Y394545D01*
X194135Y434265D02*
X197310Y431090D01*
X190960Y434265D02*
X194135D01*
X190960D02*
X194135Y437440D01*
X190960Y440615D02*
X194135Y437440D01*
X190960Y440615D02*
X194135D01*
X197310Y443790D01*
X200485Y440615D01*
X203660D01*
X200485Y437440D02*
X203660Y440615D01*
X200485Y437440D02*
X203660Y434265D01*
X200485D02*
X203660D01*
X197310Y431090D02*
X200485Y434265D01*
X195325Y412575D02*
X198500Y409400D01*
X192150Y412575D02*
X195325D01*
X192150D02*
X195325Y415750D01*
X192150Y418925D02*
X195325Y415750D01*
X192150Y418925D02*
X195325D01*
X198500Y422100D01*
X201675Y418925D01*
X204850D01*
X201675Y415750D02*
X204850Y418925D01*
X201675Y415750D02*
X204850Y412575D01*
X201675D02*
X204850D01*
X198500Y409400D02*
X201675Y412575D01*
X138635Y280956D02*
X141810Y277781D01*
X135460Y280956D02*
X138635D01*
X135460D02*
X138635Y284131D01*
X135460Y287306D02*
X138635Y284131D01*
X135460Y287306D02*
X138635D01*
X141810Y290481D01*
X144985Y287306D01*
X148160D01*
X144985Y284131D02*
X148160Y287306D01*
X144985Y284131D02*
X148160Y280956D01*
X144985D02*
X148160D01*
X141810Y277781D02*
X144985Y280956D01*
X334325Y755325D02*
X337500Y752150D01*
X331150Y755325D02*
X334325D01*
X331150D02*
X334325Y758500D01*
X331150Y761675D02*
X334325Y758500D01*
X331150Y761675D02*
X334325D01*
X337500Y764850D01*
X340675Y761675D01*
X343850D01*
X340675Y758500D02*
X343850Y761675D01*
X340675Y758500D02*
X343850Y755325D01*
X340675D02*
X343850D01*
X337500Y752150D02*
X340675Y755325D01*
X477037Y751136D02*
X489737D01*
Y763836D01*
X477037D02*
X489737D01*
X477037Y751136D02*
Y763836D01*
X502537Y687386D02*
X515238D01*
Y700086D01*
X502537D02*
X515238D01*
X502537Y687386D02*
Y700086D01*
X891657Y491476D02*
X904358D01*
Y504176D01*
X891657D02*
X904358D01*
X891657Y491476D02*
Y504176D01*
X866157Y555226D02*
X878857D01*
Y567926D01*
X866157D02*
X878857D01*
X866157Y555226D02*
Y567926D01*
X695906Y490563D02*
X708606D01*
Y503263D01*
X695906D02*
X708606D01*
X695906Y490563D02*
Y503263D01*
X670406Y554313D02*
X683106D01*
Y567013D01*
X670406D02*
X683106D01*
X670406Y554313D02*
Y567013D01*
X503367Y490056D02*
X516067D01*
Y502756D01*
X503367D02*
X516067D01*
X503367Y490056D02*
Y502756D01*
X477867Y553806D02*
X490567D01*
Y566506D01*
X477867D02*
X490567D01*
X477867Y553806D02*
Y566506D01*
X865837Y356560D02*
X878537D01*
Y369260D01*
X865837D02*
X878537D01*
X865837Y356560D02*
Y369260D01*
X891338Y292810D02*
X904037D01*
Y305510D01*
X891338D02*
X904037D01*
X891338Y292810D02*
Y305510D01*
X671367Y356556D02*
X684067D01*
Y369256D01*
X671367D02*
X684067D01*
X671367Y356556D02*
Y369256D01*
X696867Y292806D02*
X709567D01*
Y305506D01*
X696867D02*
X709567D01*
X696867Y292806D02*
Y305506D01*
X503367Y292306D02*
X516067D01*
Y305006D01*
X503367D02*
X516067D01*
X503367Y292306D02*
Y305006D01*
X477867Y356056D02*
X490567D01*
Y368756D01*
X477867D02*
X490567D01*
X477867Y356056D02*
Y368756D01*
X891338Y97806D02*
X904037D01*
Y110506D01*
X891338D02*
X904037D01*
X891338Y97806D02*
Y110506D01*
X865837Y161556D02*
X878537D01*
Y174256D01*
X865837D02*
X878537D01*
X865837Y161556D02*
Y174256D01*
X670875Y161471D02*
X683575D01*
Y174171D01*
X670875D02*
X683575D01*
X670875Y161471D02*
Y174171D01*
X696375Y97721D02*
X709075D01*
Y110421D01*
X696375D02*
X709075D01*
X696375Y97721D02*
Y110421D01*
X477867Y160806D02*
X490567D01*
Y173506D01*
X477867D02*
X490567D01*
X477867Y160806D02*
Y173506D01*
X503367Y97056D02*
X516067D01*
Y109756D01*
X503367D02*
X516067D01*
X503367Y97056D02*
Y109756D01*
X43400Y152750D02*
Y155925D01*
X46575Y159100D01*
X43400Y162275D02*
X46575Y159100D01*
X43400Y162275D02*
Y165450D01*
X46575D01*
X49750Y162275D01*
X52925Y165450D01*
X56100D01*
Y162275D02*
Y165450D01*
X52925Y159100D02*
X56100Y162275D01*
X52925Y159100D02*
X56100Y155925D01*
Y152750D02*
Y155925D01*
X52925Y152750D02*
X56100D01*
X49750Y155925D02*
X52925Y152750D01*
X46575D02*
X49750Y155925D01*
X43400Y152750D02*
X46575D01*
X43400Y305150D02*
Y308325D01*
X46575Y311500D01*
X43400Y314675D02*
X46575Y311500D01*
X43400Y314675D02*
Y317850D01*
X46575D01*
X49750Y314675D01*
X52925Y317850D01*
X56100D01*
Y314675D02*
Y317850D01*
X52925Y311500D02*
X56100Y314675D01*
X52925Y311500D02*
X56100Y308325D01*
Y305150D02*
Y308325D01*
X52925Y305150D02*
X56100D01*
X49750Y308325D02*
X52925Y305150D01*
X46575D02*
X49750Y308325D01*
X43400Y305150D02*
X46575D01*
X43400Y330550D02*
Y333725D01*
X46575Y336900D01*
X43400Y340075D02*
X46575Y336900D01*
X43400Y340075D02*
Y343250D01*
X46575D01*
X49750Y340075D01*
X52925Y343250D01*
X56100D01*
Y340075D02*
Y343250D01*
X52925Y336900D02*
X56100Y340075D01*
X52925Y336900D02*
X56100Y333725D01*
Y330550D02*
Y333725D01*
X52925Y330550D02*
X56100D01*
X49750Y333725D02*
X52925Y330550D01*
X46575D02*
X49750Y333725D01*
X43400Y330550D02*
X46575D01*
X43400Y228950D02*
Y232125D01*
X46575Y235300D01*
X43400Y238475D02*
X46575Y235300D01*
X43400Y238475D02*
Y241650D01*
X46575D01*
X49750Y238475D01*
X52925Y241650D01*
X56100D01*
Y238475D02*
Y241650D01*
X52925Y235300D02*
X56100Y238475D01*
X52925Y235300D02*
X56100Y232125D01*
Y228950D02*
Y232125D01*
X52925Y228950D02*
X56100D01*
X49750Y232125D02*
X52925Y228950D01*
X46575D02*
X49750Y232125D01*
X43400Y228950D02*
X46575D01*
X43400Y203550D02*
Y206725D01*
X46575Y209900D01*
X43400Y213075D02*
X46575Y209900D01*
X43400Y213075D02*
Y216250D01*
X46575D01*
X49750Y213075D01*
X52925Y216250D01*
X56100D01*
Y213075D02*
Y216250D01*
X52925Y209900D02*
X56100Y213075D01*
X52925Y209900D02*
X56100Y206725D01*
Y203550D02*
Y206725D01*
X52925Y203550D02*
X56100D01*
X49750Y206725D02*
X52925Y203550D01*
X46575D02*
X49750Y206725D01*
X43400Y203550D02*
X46575D01*
X43400Y254350D02*
Y257525D01*
X46575Y260700D01*
X43400Y263875D02*
X46575Y260700D01*
X43400Y263875D02*
Y267050D01*
X46575D01*
X49750Y263875D01*
X52925Y267050D01*
X56100D01*
Y263875D02*
Y267050D01*
X52925Y260700D02*
X56100Y263875D01*
X52925Y260700D02*
X56100Y257525D01*
Y254350D02*
Y257525D01*
X52925Y254350D02*
X56100D01*
X49750Y257525D02*
X52925Y254350D01*
X46575D02*
X49750Y257525D01*
X43400Y254350D02*
X46575D01*
X43400Y279750D02*
Y282925D01*
X46575Y286100D01*
X43400Y289275D02*
X46575Y286100D01*
X43400Y289275D02*
Y292450D01*
X46575D01*
X49750Y289275D01*
X52925Y292450D01*
X56100D01*
Y289275D02*
Y292450D01*
X52925Y286100D02*
X56100Y289275D01*
X52925Y286100D02*
X56100Y282925D01*
Y279750D02*
Y282925D01*
X52925Y279750D02*
X56100D01*
X49750Y282925D02*
X52925Y279750D01*
X46575D02*
X49750Y282925D01*
X43400Y279750D02*
X46575D01*
X43400Y178150D02*
Y181325D01*
X46575Y184500D01*
X43400Y187675D02*
X46575Y184500D01*
X43400Y187675D02*
Y190850D01*
X46575D01*
X49750Y187675D01*
X52925Y190850D01*
X56100D01*
Y187675D02*
Y190850D01*
X52925Y184500D02*
X56100Y187675D01*
X52925Y184500D02*
X56100Y181325D01*
Y178150D02*
Y181325D01*
X52925Y178150D02*
X56100D01*
X49750Y181325D02*
X52925Y178150D01*
X46575D02*
X49750Y181325D01*
X43400Y178150D02*
X46575D01*
X43400Y381350D02*
Y384525D01*
X46575Y387700D01*
X43400Y390875D02*
X46575Y387700D01*
X43400Y390875D02*
Y394050D01*
X46575D01*
X49750Y390875D01*
X52925Y394050D01*
X56100D01*
Y390875D02*
Y394050D01*
X52925Y387700D02*
X56100Y390875D01*
X52925Y387700D02*
X56100Y384525D01*
Y381350D02*
Y384525D01*
X52925Y381350D02*
X56100D01*
X49750Y384525D02*
X52925Y381350D01*
X46575D02*
X49750Y384525D01*
X43400Y381350D02*
X46575D01*
X43400Y355950D02*
Y359125D01*
X46575Y362300D01*
X43400Y365475D02*
X46575Y362300D01*
X43400Y365475D02*
Y368650D01*
X46575D01*
X49750Y365475D01*
X52925Y368650D01*
X56100D01*
Y365475D02*
Y368650D01*
X52925Y362300D02*
X56100Y365475D01*
X52925Y362300D02*
X56100Y359125D01*
Y355950D02*
Y359125D01*
X52925Y355950D02*
X56100D01*
X49750Y359125D02*
X52925Y355950D01*
X46575D02*
X49750Y359125D01*
X43400Y355950D02*
X46575D01*
X43400Y406750D02*
Y409925D01*
X46575Y413100D01*
X43400Y416275D02*
X46575Y413100D01*
X43400Y416275D02*
Y419450D01*
X46575D01*
X49750Y416275D01*
X52925Y419450D01*
X56100D01*
Y416275D02*
Y419450D01*
X52925Y413100D02*
X56100Y416275D01*
X52925Y413100D02*
X56100Y409925D01*
Y406750D02*
Y409925D01*
X52925Y406750D02*
X56100D01*
X49750Y409925D02*
X52925Y406750D01*
X46575D02*
X49750Y409925D01*
X43400Y406750D02*
X46575D01*
X43400Y432150D02*
Y435325D01*
X46575Y438500D01*
X43400Y441675D02*
X46575Y438500D01*
X43400Y441675D02*
Y444850D01*
X46575D01*
X49750Y441675D01*
X52925Y444850D01*
X56100D01*
Y441675D02*
Y444850D01*
X52925Y438500D02*
X56100Y441675D01*
X52925Y438500D02*
X56100Y435325D01*
Y432150D02*
Y435325D01*
X52925Y432150D02*
X56100D01*
X49750Y435325D02*
X52925Y432150D01*
X46575D02*
X49750Y435325D01*
X43400Y432150D02*
X46575D01*
X43400Y457550D02*
Y460725D01*
X46575Y463900D01*
X43400Y467075D02*
X46575Y463900D01*
X43400Y467075D02*
Y470250D01*
X46575D01*
X49750Y467075D01*
X52925Y470250D01*
X56100D01*
Y467075D02*
Y470250D01*
X52925Y463900D02*
X56100Y467075D01*
X52925Y463900D02*
X56100Y460725D01*
Y457550D02*
Y460725D01*
X52925Y457550D02*
X56100D01*
X49750Y460725D02*
X52925Y457550D01*
X46575D02*
X49750Y460725D01*
X43400Y457550D02*
X46575D01*
X121650Y686825D02*
X124825D01*
X121650D02*
Y693175D01*
X124825D01*
Y696350D01*
X131175D01*
Y693175D02*
Y696350D01*
Y693175D02*
X134350D01*
Y686825D02*
Y693175D01*
X131175Y686825D02*
X134350D01*
X131175Y683650D02*
Y686825D01*
X124825Y683650D02*
X131175D01*
X124825D02*
Y686825D01*
X45650D02*
X48825D01*
X45650D02*
Y693175D01*
X48825D01*
Y696350D01*
X55175D01*
Y693175D02*
Y696350D01*
Y693175D02*
X58350D01*
Y686825D02*
Y693175D01*
X55175Y686825D02*
X58350D01*
X55175Y683650D02*
Y686825D01*
X48825Y683650D02*
X55175D01*
X48825D02*
Y686825D01*
X289198Y684025D02*
X295548Y696725D01*
X282848D02*
X295548D01*
X282848D02*
X289198Y684025D01*
X179198D02*
X185548Y696725D01*
X172848D02*
X185548D01*
X172848D02*
X179198Y684025D01*
X252848Y760375D02*
X259198Y754025D01*
X265548Y760375D01*
X259198Y766725D02*
X265548Y760375D01*
X252848D02*
X259198Y766725D01*
X202848Y760375D02*
X209198Y754025D01*
X215548Y760375D01*
X209198Y766725D02*
X215548Y760375D01*
X202848D02*
X209198Y766725D01*
X252848Y615375D02*
X259198Y609025D01*
X265548Y615375D01*
X259198Y621725D02*
X265548Y615375D01*
X252848D02*
X259198Y621725D01*
X227848Y615375D02*
X234198Y609025D01*
X240548Y615375D01*
X234198Y621725D02*
X240548Y615375D01*
X227848D02*
X234198Y621725D01*
X202848Y615375D02*
X209198Y609025D01*
X215548Y615375D01*
X209198Y621725D02*
X215548Y615375D01*
X202848D02*
X209198Y621725D01*
X33038Y33420D02*
X39388Y36595D01*
X45738Y33420D01*
X42563Y39770D02*
X45738Y33420D01*
X42563Y39770D02*
X45738Y46120D01*
X39388Y42945D02*
X45738Y46120D01*
X33038D02*
X39388Y42945D01*
X33038Y46120D02*
X36213Y39770D01*
X33038Y33420D02*
X36213Y39770D01*
X33038Y804300D02*
X39388Y807475D01*
X45738Y804300D01*
X42563Y810650D02*
X45738Y804300D01*
X42563Y810650D02*
X45738Y817000D01*
X39388Y813825D02*
X45738Y817000D01*
X33038D02*
X39388Y813825D01*
X33038Y817000D02*
X36213Y810650D01*
X33038Y804300D02*
X36213Y810650D01*
X954438Y804300D02*
X960788Y807475D01*
X967138Y804300D01*
X963963Y810650D02*
X967138Y804300D01*
X963963Y810650D02*
X967138Y817000D01*
X960788Y813825D02*
X967138Y817000D01*
X954438D02*
X960788Y813825D01*
X954438Y817000D02*
X957613Y810650D01*
X954438Y804300D02*
X957613Y810650D01*
X954438Y33420D02*
X960788Y36595D01*
X967138Y33420D01*
X963963Y39770D02*
X967138Y33420D01*
X963963Y39770D02*
X967138Y46120D01*
X960788Y42945D02*
X967138Y46120D01*
X954438D02*
X960788Y42945D01*
X954438Y46120D02*
X957613Y39770D01*
X954438Y33420D02*
X957613Y39770D01*
X281148Y444200D02*
Y447375D01*
X284323Y450550D01*
X281148Y453725D02*
X284323Y450550D01*
X281148Y453725D02*
Y456900D01*
X284323D01*
X287498Y453725D01*
X290673Y456900D01*
X293848D01*
Y453725D02*
Y456900D01*
X290673Y450550D02*
X293848Y453725D01*
X290673Y450550D02*
X293848Y447375D01*
Y444200D02*
Y447375D01*
X290673Y444200D02*
X293848D01*
X287498Y447375D02*
X290673Y444200D01*
X284323D02*
X287498Y447375D01*
X281148Y444200D02*
X284323D01*
X281148Y469600D02*
Y472775D01*
X284323Y475950D01*
X281148Y479125D02*
X284323Y475950D01*
X281148Y479125D02*
Y482300D01*
X284323D01*
X287498Y479125D01*
X290673Y482300D01*
X293848D01*
Y479125D02*
Y482300D01*
X290673Y475950D02*
X293848Y479125D01*
X290673Y475950D02*
X293848Y472775D01*
Y469600D02*
Y472775D01*
X290673Y469600D02*
X293848D01*
X287498Y472775D02*
X290673Y469600D01*
X284323D02*
X287498Y472775D01*
X281148Y469600D02*
X284323D01*
X281148Y495000D02*
Y498175D01*
X284323Y501350D01*
X281148Y504525D02*
X284323Y501350D01*
X281148Y504525D02*
Y507700D01*
X284323D01*
X287498Y504525D01*
X290673Y507700D01*
X293848D01*
Y504525D02*
Y507700D01*
X290673Y501350D02*
X293848Y504525D01*
X290673Y501350D02*
X293848Y498175D01*
Y495000D02*
Y498175D01*
X290673Y495000D02*
X293848D01*
X287498Y498175D02*
X290673Y495000D01*
X284323D02*
X287498Y498175D01*
X281148Y495000D02*
X284323D01*
X281148Y164800D02*
Y167975D01*
X284323Y171150D01*
X281148Y174325D02*
X284323Y171150D01*
X281148Y174325D02*
Y177500D01*
X284323D01*
X287498Y174325D01*
X290673Y177500D01*
X293848D01*
Y174325D02*
Y177500D01*
X290673Y171150D02*
X293848Y174325D01*
X290673Y171150D02*
X293848Y167975D01*
Y164800D02*
Y167975D01*
X290673Y164800D02*
X293848D01*
X287498Y167975D02*
X290673Y164800D01*
X284323D02*
X287498Y167975D01*
X281148Y164800D02*
X284323D01*
X281148Y190200D02*
Y193375D01*
X284323Y196550D01*
X281148Y199725D02*
X284323Y196550D01*
X281148Y199725D02*
Y202900D01*
X284323D01*
X287498Y199725D01*
X290673Y202900D01*
X293848D01*
Y199725D02*
Y202900D01*
X290673Y196550D02*
X293848Y199725D01*
X290673Y196550D02*
X293848Y193375D01*
Y190200D02*
Y193375D01*
X290673Y190200D02*
X293848D01*
X287498Y193375D02*
X290673Y190200D01*
X284323D02*
X287498Y193375D01*
X281148Y190200D02*
X284323D01*
X281148Y215600D02*
Y218775D01*
X284323Y221950D01*
X281148Y225125D02*
X284323Y221950D01*
X281148Y225125D02*
Y228300D01*
X284323D01*
X287498Y225125D01*
X290673Y228300D01*
X293848D01*
Y225125D02*
Y228300D01*
X290673Y221950D02*
X293848Y225125D01*
X290673Y221950D02*
X293848Y218775D01*
Y215600D02*
Y218775D01*
X290673Y215600D02*
X293848D01*
X287498Y218775D02*
X290673Y215600D01*
X284323D02*
X287498Y218775D01*
X281148Y215600D02*
X284323D01*
X281148Y241000D02*
Y244175D01*
X284323Y247350D01*
X281148Y250525D02*
X284323Y247350D01*
X281148Y250525D02*
Y253700D01*
X284323D01*
X287498Y250525D01*
X290673Y253700D01*
X293848D01*
Y250525D02*
Y253700D01*
X290673Y247350D02*
X293848Y250525D01*
X290673Y247350D02*
X293848Y244175D01*
Y241000D02*
Y244175D01*
X290673Y241000D02*
X293848D01*
X287498Y244175D02*
X290673Y241000D01*
X284323D02*
X287498Y244175D01*
X281148Y241000D02*
X284323D01*
X281148Y317200D02*
Y320375D01*
X284323Y323550D01*
X281148Y326725D02*
X284323Y323550D01*
X281148Y326725D02*
Y329900D01*
X284323D01*
X287498Y326725D01*
X290673Y329900D01*
X293848D01*
Y326725D02*
Y329900D01*
X290673Y323550D02*
X293848Y326725D01*
X290673Y323550D02*
X293848Y320375D01*
Y317200D02*
Y320375D01*
X290673Y317200D02*
X293848D01*
X287498Y320375D02*
X290673Y317200D01*
X284323D02*
X287498Y320375D01*
X281148Y317200D02*
X284323D01*
X281148Y342600D02*
Y345775D01*
X284323Y348950D01*
X281148Y352125D02*
X284323Y348950D01*
X281148Y352125D02*
Y355300D01*
X284323D01*
X287498Y352125D01*
X290673Y355300D01*
X293848D01*
Y352125D02*
Y355300D01*
X290673Y348950D02*
X293848Y352125D01*
X290673Y348950D02*
X293848Y345775D01*
Y342600D02*
Y345775D01*
X290673Y342600D02*
X293848D01*
X287498Y345775D02*
X290673Y342600D01*
X284323D02*
X287498Y345775D01*
X281148Y342600D02*
X284323D01*
X281148Y393400D02*
Y396575D01*
X284323Y399750D01*
X281148Y402925D02*
X284323Y399750D01*
X281148Y402925D02*
Y406100D01*
X284323D01*
X287498Y402925D01*
X290673Y406100D01*
X293848D01*
Y402925D02*
Y406100D01*
X290673Y399750D02*
X293848Y402925D01*
X290673Y399750D02*
X293848Y396575D01*
Y393400D02*
Y396575D01*
X290673Y393400D02*
X293848D01*
X287498Y396575D02*
X290673Y393400D01*
X284323D02*
X287498Y396575D01*
X281148Y393400D02*
X284323D01*
X281148Y418800D02*
Y421975D01*
X284323Y425150D01*
X281148Y428325D02*
X284323Y425150D01*
X281148Y428325D02*
Y431500D01*
X284323D01*
X287498Y428325D01*
X290673Y431500D01*
X293848D01*
Y428325D02*
Y431500D01*
X290673Y425150D02*
X293848Y428325D01*
X290673Y425150D02*
X293848Y421975D01*
Y418800D02*
Y421975D01*
X290673Y418800D02*
X293848D01*
X287498Y421975D02*
X290673Y418800D01*
X284323D02*
X287498Y421975D01*
X281148Y418800D02*
X284323D01*
X281148Y266400D02*
Y269575D01*
X284323Y272750D01*
X281148Y275925D02*
X284323Y272750D01*
X281148Y275925D02*
Y279100D01*
X284323D01*
X287498Y275925D01*
X290673Y279100D01*
X293848D01*
Y275925D02*
Y279100D01*
X290673Y272750D02*
X293848Y275925D01*
X290673Y272750D02*
X293848Y269575D01*
Y266400D02*
Y269575D01*
X290673Y266400D02*
X293848D01*
X287498Y269575D02*
X290673Y266400D01*
X284323D02*
X287498Y269575D01*
X281148Y266400D02*
X284323D01*
X281148Y368000D02*
Y371175D01*
X284323Y374350D01*
X281148Y377525D02*
X284323Y374350D01*
X281148Y377525D02*
Y380700D01*
X284323D01*
X287498Y377525D01*
X290673Y380700D01*
X293848D01*
Y377525D02*
Y380700D01*
X290673Y374350D02*
X293848Y377525D01*
X290673Y374350D02*
X293848Y371175D01*
Y368000D02*
Y371175D01*
X290673Y368000D02*
X293848D01*
X287498Y371175D02*
X290673Y368000D01*
X284323D02*
X287498Y371175D01*
X281148Y368000D02*
X284323D01*
X281148Y291800D02*
Y294975D01*
X284323Y298150D01*
X281148Y301325D02*
X284323Y298150D01*
X281148Y301325D02*
Y304500D01*
X284323D01*
X287498Y301325D01*
X290673Y304500D01*
X293848D01*
Y301325D02*
Y304500D01*
X290673Y298150D02*
X293848Y301325D01*
X290673Y298150D02*
X293848Y294975D01*
Y291800D02*
Y294975D01*
X290673Y291800D02*
X293848D01*
X287498Y294975D02*
X290673Y291800D01*
X284323D02*
X287498Y294975D01*
X281148Y291800D02*
X284323D01*
X281148Y37800D02*
Y40975D01*
X284323Y44150D01*
X281148Y47325D02*
X284323Y44150D01*
X281148Y47325D02*
Y50500D01*
X284323D01*
X287498Y47325D01*
X290673Y50500D01*
X293848D01*
Y47325D02*
Y50500D01*
X290673Y44150D02*
X293848Y47325D01*
X290673Y44150D02*
X293848Y40975D01*
Y37800D02*
Y40975D01*
X290673Y37800D02*
X293848D01*
X287498Y40975D02*
X290673Y37800D01*
X284323D02*
X287498Y40975D01*
X281148Y37800D02*
X284323D01*
X281148Y139400D02*
Y142575D01*
X284323Y145750D01*
X281148Y148925D02*
X284323Y145750D01*
X281148Y148925D02*
Y152100D01*
X284323D01*
X287498Y148925D01*
X290673Y152100D01*
X293848D01*
Y148925D02*
Y152100D01*
X290673Y145750D02*
X293848Y148925D01*
X290673Y145750D02*
X293848Y142575D01*
Y139400D02*
Y142575D01*
X290673Y139400D02*
X293848D01*
X287498Y142575D02*
X290673Y139400D01*
X284323D02*
X287498Y142575D01*
X281148Y139400D02*
X284323D01*
X281148Y114000D02*
Y117175D01*
X284323Y120350D01*
X281148Y123525D02*
X284323Y120350D01*
X281148Y123525D02*
Y126700D01*
X284323D01*
X287498Y123525D01*
X290673Y126700D01*
X293848D01*
Y123525D02*
Y126700D01*
X290673Y120350D02*
X293848Y123525D01*
X290673Y120350D02*
X293848Y117175D01*
Y114000D02*
Y117175D01*
X290673Y114000D02*
X293848D01*
X287498Y117175D02*
X290673Y114000D01*
X284323D02*
X287498Y117175D01*
X281148Y114000D02*
X284323D01*
X281148Y88600D02*
Y91775D01*
X284323Y94950D01*
X281148Y98125D02*
X284323Y94950D01*
X281148Y98125D02*
Y101300D01*
X284323D01*
X287498Y98125D01*
X290673Y101300D01*
X293848D01*
Y98125D02*
Y101300D01*
X290673Y94950D02*
X293848Y98125D01*
X290673Y94950D02*
X293848Y91775D01*
Y88600D02*
Y91775D01*
X290673Y88600D02*
X293848D01*
X287498Y91775D02*
X290673Y88600D01*
X284323D02*
X287498Y91775D01*
X281148Y88600D02*
X284323D01*
X281148Y63200D02*
Y66375D01*
X284323Y69550D01*
X281148Y72725D02*
X284323Y69550D01*
X281148Y72725D02*
Y75900D01*
X284323D01*
X287498Y72725D01*
X290673Y75900D01*
X293848D01*
Y72725D02*
Y75900D01*
X290673Y69550D02*
X293848Y72725D01*
X290673Y69550D02*
X293848Y66375D01*
Y63200D02*
Y66375D01*
X290673Y63200D02*
X293848D01*
X287498Y66375D02*
X290673Y63200D01*
X284323D02*
X287498Y66375D01*
X281148Y63200D02*
X284323D01*
X281148Y12400D02*
Y15575D01*
X284323Y18750D01*
X281148Y21925D02*
X284323Y18750D01*
X281148Y21925D02*
Y25100D01*
X284323D01*
X287498Y21925D01*
X290673Y25100D01*
X293848D01*
Y21925D02*
Y25100D01*
X290673Y18750D02*
X293848Y21925D01*
X290673Y18750D02*
X293848Y15575D01*
Y12400D02*
Y15575D01*
X290673Y12400D02*
X293848D01*
X287498Y15575D02*
X290673Y12400D01*
X284323D02*
X287498Y15575D01*
X281148Y12400D02*
X284323D01*
X103348Y164800D02*
Y167975D01*
X106523Y171150D01*
X103348Y174325D02*
X106523Y171150D01*
X103348Y174325D02*
Y177500D01*
X106523D01*
X109698Y174325D01*
X112873Y177500D01*
X116048D01*
Y174325D02*
Y177500D01*
X112873Y171150D02*
X116048Y174325D01*
X112873Y171150D02*
X116048Y167975D01*
Y164800D02*
Y167975D01*
X112873Y164800D02*
X116048D01*
X109698Y167975D02*
X112873Y164800D01*
X106523D02*
X109698Y167975D01*
X103348Y164800D02*
X106523D01*
X103348Y139400D02*
Y142575D01*
X106523Y145750D01*
X103348Y148925D02*
X106523Y145750D01*
X103348Y148925D02*
Y152100D01*
X106523D01*
X109698Y148925D01*
X112873Y152100D01*
X116048D01*
Y148925D02*
Y152100D01*
X112873Y145750D02*
X116048Y148925D01*
X112873Y145750D02*
X116048Y142575D01*
Y139400D02*
Y142575D01*
X112873Y139400D02*
X116048D01*
X109698Y142575D02*
X112873Y139400D01*
X106523D02*
X109698Y142575D01*
X103348Y139400D02*
X106523D01*
X103348Y241000D02*
Y244175D01*
X106523Y247350D01*
X103348Y250525D02*
X106523Y247350D01*
X103348Y250525D02*
Y253700D01*
X106523D01*
X109698Y250525D01*
X112873Y253700D01*
X116048D01*
Y250525D02*
Y253700D01*
X112873Y247350D02*
X116048Y250525D01*
X112873Y247350D02*
X116048Y244175D01*
Y241000D02*
Y244175D01*
X112873Y241000D02*
X116048D01*
X109698Y244175D02*
X112873Y241000D01*
X106523D02*
X109698Y244175D01*
X103348Y241000D02*
X106523D01*
X103348Y266400D02*
Y269575D01*
X106523Y272750D01*
X103348Y275925D02*
X106523Y272750D01*
X103348Y275925D02*
Y279100D01*
X106523D01*
X109698Y275925D01*
X112873Y279100D01*
X116048D01*
Y275925D02*
Y279100D01*
X112873Y272750D02*
X116048Y275925D01*
X112873Y272750D02*
X116048Y269575D01*
Y266400D02*
Y269575D01*
X112873Y266400D02*
X116048D01*
X109698Y269575D02*
X112873Y266400D01*
X106523D02*
X109698Y269575D01*
X103348Y266400D02*
X106523D01*
X103348Y215600D02*
Y218775D01*
X106523Y221950D01*
X103348Y225125D02*
X106523Y221950D01*
X103348Y225125D02*
Y228300D01*
X106523D01*
X109698Y225125D01*
X112873Y228300D01*
X116048D01*
Y225125D02*
Y228300D01*
X112873Y221950D02*
X116048Y225125D01*
X112873Y221950D02*
X116048Y218775D01*
Y215600D02*
Y218775D01*
X112873Y215600D02*
X116048D01*
X109698Y218775D02*
X112873Y215600D01*
X106523D02*
X109698Y218775D01*
X103348Y215600D02*
X106523D01*
X103348Y190200D02*
Y193375D01*
X106523Y196550D01*
X103348Y199725D02*
X106523Y196550D01*
X103348Y199725D02*
Y202900D01*
X106523D01*
X109698Y199725D01*
X112873Y202900D01*
X116048D01*
Y199725D02*
Y202900D01*
X112873Y196550D02*
X116048Y199725D01*
X112873Y196550D02*
X116048Y193375D01*
Y190200D02*
Y193375D01*
X112873Y190200D02*
X116048D01*
X109698Y193375D02*
X112873Y190200D01*
X106523D02*
X109698Y193375D01*
X103348Y190200D02*
X106523D01*
X103348Y495000D02*
Y498175D01*
X106523Y501350D01*
X103348Y504525D02*
X106523Y501350D01*
X103348Y504525D02*
Y507700D01*
X106523D01*
X109698Y504525D01*
X112873Y507700D01*
X116048D01*
Y504525D02*
Y507700D01*
X112873Y501350D02*
X116048Y504525D01*
X112873Y501350D02*
X116048Y498175D01*
Y495000D02*
Y498175D01*
X112873Y495000D02*
X116048D01*
X109698Y498175D02*
X112873Y495000D01*
X106523D02*
X109698Y498175D01*
X103348Y495000D02*
X106523D01*
X103348Y469600D02*
Y472775D01*
X106523Y475950D01*
X103348Y479125D02*
X106523Y475950D01*
X103348Y479125D02*
Y482300D01*
X106523D01*
X109698Y479125D01*
X112873Y482300D01*
X116048D01*
Y479125D02*
Y482300D01*
X112873Y475950D02*
X116048Y479125D01*
X112873Y475950D02*
X116048Y472775D01*
Y469600D02*
Y472775D01*
X112873Y469600D02*
X116048D01*
X109698Y472775D02*
X112873Y469600D01*
X106523D02*
X109698Y472775D01*
X103348Y469600D02*
X106523D01*
X103348Y368000D02*
Y371175D01*
X106523Y374350D01*
X103348Y377525D02*
X106523Y374350D01*
X103348Y377525D02*
Y380700D01*
X106523D01*
X109698Y377525D01*
X112873Y380700D01*
X116048D01*
Y377525D02*
Y380700D01*
X112873Y374350D02*
X116048Y377525D01*
X112873Y374350D02*
X116048Y371175D01*
Y368000D02*
Y371175D01*
X112873Y368000D02*
X116048D01*
X109698Y371175D02*
X112873Y368000D01*
X106523D02*
X109698Y371175D01*
X103348Y368000D02*
X106523D01*
X103348Y418800D02*
Y421975D01*
X106523Y425150D01*
X103348Y428325D02*
X106523Y425150D01*
X103348Y428325D02*
Y431500D01*
X106523D01*
X109698Y428325D01*
X112873Y431500D01*
X116048D01*
Y428325D02*
Y431500D01*
X112873Y425150D02*
X116048Y428325D01*
X112873Y425150D02*
X116048Y421975D01*
Y418800D02*
Y421975D01*
X112873Y418800D02*
X116048D01*
X109698Y421975D02*
X112873Y418800D01*
X106523D02*
X109698Y421975D01*
X103348Y418800D02*
X106523D01*
X103348Y393400D02*
Y396575D01*
X106523Y399750D01*
X103348Y402925D02*
X106523Y399750D01*
X103348Y402925D02*
Y406100D01*
X106523D01*
X109698Y402925D01*
X112873Y406100D01*
X116048D01*
Y402925D02*
Y406100D01*
X112873Y399750D02*
X116048Y402925D01*
X112873Y399750D02*
X116048Y396575D01*
Y393400D02*
Y396575D01*
X112873Y393400D02*
X116048D01*
X109698Y396575D02*
X112873Y393400D01*
X106523D02*
X109698Y396575D01*
X103348Y393400D02*
X106523D01*
X103348Y342600D02*
Y345775D01*
X106523Y348950D01*
X103348Y352125D02*
X106523Y348950D01*
X103348Y352125D02*
Y355300D01*
X106523D01*
X109698Y352125D01*
X112873Y355300D01*
X116048D01*
Y352125D02*
Y355300D01*
X112873Y348950D02*
X116048Y352125D01*
X112873Y348950D02*
X116048Y345775D01*
Y342600D02*
Y345775D01*
X112873Y342600D02*
X116048D01*
X109698Y345775D02*
X112873Y342600D01*
X106523D02*
X109698Y345775D01*
X103348Y342600D02*
X106523D01*
X103348Y444200D02*
Y447375D01*
X106523Y450550D01*
X103348Y453725D02*
X106523Y450550D01*
X103348Y453725D02*
Y456900D01*
X106523D01*
X109698Y453725D01*
X112873Y456900D01*
X116048D01*
Y453725D02*
Y456900D01*
X112873Y450550D02*
X116048Y453725D01*
X112873Y450550D02*
X116048Y447375D01*
Y444200D02*
Y447375D01*
X112873Y444200D02*
X116048D01*
X109698Y447375D02*
X112873Y444200D01*
X106523D02*
X109698Y447375D01*
X103348Y444200D02*
X106523D01*
X103348Y291800D02*
Y294975D01*
X106523Y298150D01*
X103348Y301325D02*
X106523Y298150D01*
X103348Y301325D02*
Y304500D01*
X106523D01*
X109698Y301325D01*
X112873Y304500D01*
X116048D01*
Y301325D02*
Y304500D01*
X112873Y298150D02*
X116048Y301325D01*
X112873Y298150D02*
X116048Y294975D01*
Y291800D02*
Y294975D01*
X112873Y291800D02*
X116048D01*
X109698Y294975D02*
X112873Y291800D01*
X106523D02*
X109698Y294975D01*
X103348Y291800D02*
X106523D01*
X103348Y317200D02*
Y320375D01*
X106523Y323550D01*
X103348Y326725D02*
X106523Y323550D01*
X103348Y326725D02*
Y329900D01*
X106523D01*
X109698Y326725D01*
X112873Y329900D01*
X116048D01*
Y326725D02*
Y329900D01*
X112873Y323550D02*
X116048Y326725D01*
X112873Y323550D02*
X116048Y320375D01*
Y317200D02*
Y320375D01*
X112873Y317200D02*
X116048D01*
X109698Y320375D02*
X112873Y317200D01*
X106523D02*
X109698Y320375D01*
X103348Y317200D02*
X106523D01*
X103348Y88600D02*
Y91775D01*
X106523Y94950D01*
X103348Y98125D02*
X106523Y94950D01*
X103348Y98125D02*
Y101300D01*
X106523D01*
X109698Y98125D01*
X112873Y101300D01*
X116048D01*
Y98125D02*
Y101300D01*
X112873Y94950D02*
X116048Y98125D01*
X112873Y94950D02*
X116048Y91775D01*
Y88600D02*
Y91775D01*
X112873Y88600D02*
X116048D01*
X109698Y91775D02*
X112873Y88600D01*
X106523D02*
X109698Y91775D01*
X103348Y88600D02*
X106523D01*
X103348Y114000D02*
Y117175D01*
X106523Y120350D01*
X103348Y123525D02*
X106523Y120350D01*
X103348Y123525D02*
Y126700D01*
X106523D01*
X109698Y123525D01*
X112873Y126700D01*
X116048D01*
Y123525D02*
Y126700D01*
X112873Y120350D02*
X116048Y123525D01*
X112873Y120350D02*
X116048Y117175D01*
Y114000D02*
Y117175D01*
X112873Y114000D02*
X116048D01*
X109698Y117175D02*
X112873Y114000D01*
X106523D02*
X109698Y117175D01*
X103348Y114000D02*
X106523D01*
X103348Y63200D02*
Y66375D01*
X106523Y69550D01*
X103348Y72725D02*
X106523Y69550D01*
X103348Y72725D02*
Y75900D01*
X106523D01*
X109698Y72725D01*
X112873Y75900D01*
X116048D01*
Y72725D02*
Y75900D01*
X112873Y69550D02*
X116048Y72725D01*
X112873Y69550D02*
X116048Y66375D01*
Y63200D02*
Y66375D01*
X112873Y63200D02*
X116048D01*
X109698Y66375D02*
X112873Y63200D01*
X106523D02*
X109698Y66375D01*
X103348Y63200D02*
X106523D01*
X103348Y37800D02*
Y40975D01*
X106523Y44150D01*
X103348Y47325D02*
X106523Y44150D01*
X103348Y47325D02*
Y50500D01*
X106523D01*
X109698Y47325D01*
X112873Y50500D01*
X116048D01*
Y47325D02*
Y50500D01*
X112873Y44150D02*
X116048Y47325D01*
X112873Y44150D02*
X116048Y40975D01*
Y37800D02*
Y40975D01*
X112873Y37800D02*
X116048D01*
X109698Y40975D02*
X112873Y37800D01*
X106523D02*
X109698Y40975D01*
X103348Y37800D02*
X106523D01*
X103348Y12400D02*
Y15575D01*
X106523Y18750D01*
X103348Y21925D02*
X106523Y18750D01*
X103348Y21925D02*
Y25100D01*
X106523D01*
X109698Y21925D01*
X112873Y25100D01*
X116048D01*
Y21925D02*
Y25100D01*
X112873Y18750D02*
X116048Y21925D01*
X112873Y18750D02*
X116048Y15575D01*
Y12400D02*
Y15575D01*
X112873Y12400D02*
X116048D01*
X109698Y15575D02*
X112873Y12400D01*
X106523D02*
X109698Y15575D01*
X103348Y12400D02*
X106523D01*
X865837Y751416D02*
X878537D01*
Y764116D01*
X865837D02*
X878537D01*
X865837Y751416D02*
Y764116D01*
X891338Y687666D02*
X904037D01*
Y700366D01*
X891338D02*
X904037D01*
X891338Y687666D02*
Y700366D01*
X696640Y687814D02*
X709340D01*
Y700514D01*
X696640D02*
X709340D01*
X696640Y687814D02*
Y700514D01*
X671140Y751564D02*
X683840D01*
Y764264D01*
X671140D02*
X683840D01*
X671140Y751564D02*
Y764264D01*
D34*
X1353908Y334667D02*
G03*
X1353908Y334667I-8467J0D01*
G01*
X1336975Y482833D02*
X1341208D01*
X1336975D02*
Y491300D01*
X1341208D01*
Y495533D01*
X1349675D01*
Y491300D02*
Y495533D01*
Y491300D02*
X1353908D01*
Y482833D02*
Y491300D01*
X1349675Y482833D02*
X1353908D01*
X1349675Y478600D02*
Y482833D01*
X1341208Y478600D02*
X1349675D01*
X1341208D02*
Y482833D01*
X1345442Y440500D02*
X1353908Y457433D01*
X1336975D02*
X1353908D01*
X1336975D02*
X1345442Y440500D01*
X1336975Y402400D02*
X1345442Y406633D01*
X1353908Y402400D01*
X1349675Y410867D02*
X1353908Y402400D01*
X1349675Y410867D02*
X1353908Y419333D01*
X1345442Y415100D02*
X1353908Y419333D01*
X1336975D02*
X1345442Y415100D01*
X1336975Y419333D02*
X1341208Y410867D01*
X1336975Y402400D02*
X1341208Y410867D01*
X1336975Y372767D02*
X1345442Y364300D01*
X1353908Y372767D01*
X1345442Y381233D02*
X1353908Y372767D01*
X1336975D02*
X1345442Y381233D01*
X1336975Y288100D02*
X1353908D01*
Y305033D01*
X1336975D02*
X1353908D01*
X1336975Y288100D02*
Y305033D01*
Y250000D02*
Y254233D01*
X1341208Y258467D01*
X1336975Y262700D02*
X1341208Y258467D01*
X1336975Y262700D02*
Y266933D01*
X1341208D01*
X1345442Y262700D01*
X1349675Y266933D01*
X1353908D01*
Y262700D02*
Y266933D01*
X1349675Y258467D02*
X1353908Y262700D01*
X1349675Y258467D02*
X1353908Y254233D01*
Y250000D02*
Y254233D01*
X1349675Y250000D02*
X1353908D01*
X1345442Y254233D02*
X1349675Y250000D01*
X1341208D02*
X1345442Y254233D01*
X1336975Y250000D02*
X1341208D01*
Y216133D02*
X1345442Y211900D01*
X1336975Y216133D02*
X1341208D01*
X1336975D02*
X1341208Y220367D01*
X1336975Y224600D02*
X1341208Y220367D01*
X1336975Y224600D02*
X1341208D01*
X1345442Y228833D01*
X1349675Y224600D01*
X1353908D01*
X1349675Y220367D02*
X1353908Y224600D01*
X1349675Y220367D02*
X1353908Y216133D01*
X1349675D02*
X1353908D01*
X1345442Y211900D02*
X1349675Y216133D01*
X2962690Y488757D02*
X2955072D01*
X2952533Y486217D01*
Y481139D01*
X2955072Y478600D01*
X2962690D01*
X2967768D02*
X2972846D01*
X2970307D01*
Y493835D01*
X2967768Y491296D01*
X2988081Y478600D02*
Y493835D01*
X2980464Y486217D01*
X2990620D01*
X2995699Y478600D02*
X3000777D01*
X2998238D01*
Y493835D01*
X2995699Y491296D01*
X3008395Y493835D02*
Y478600D01*
Y486217D01*
X3010934Y488757D01*
X3016012D01*
X3018551Y486217D01*
Y478600D01*
X3023630Y481139D02*
X3026169Y478600D01*
X3031247D01*
X3033787Y481139D01*
Y491296D01*
X3031247Y493835D01*
X3026169D01*
X3023630Y491296D01*
Y488757D01*
X3026169Y486217D01*
X3033787D01*
X3038865Y491296D02*
X3041404Y493835D01*
X3046483D01*
X3049022Y491296D01*
Y481139D01*
X3046483Y478600D01*
X3041404D01*
X3038865Y481139D01*
Y491296D01*
X2962690Y450657D02*
X2955072D01*
X2952533Y448117D01*
Y443039D01*
X2955072Y440500D01*
X2962690D01*
X2967768Y453196D02*
X2970307Y455735D01*
X2975385D01*
X2977924Y453196D01*
Y450657D01*
X2975385Y448117D01*
X2972846D01*
X2975385D01*
X2977924Y445578D01*
Y443039D01*
X2975385Y440500D01*
X2970307D01*
X2967768Y443039D01*
X2983003Y440500D02*
X2988081D01*
X2985542D01*
Y455735D01*
X2983003Y453196D01*
X2995699D02*
X2998238Y455735D01*
X3003316D01*
X3005855Y453196D01*
Y443039D01*
X3003316Y440500D01*
X2998238D01*
X2995699Y443039D01*
Y453196D01*
X3010934Y455735D02*
Y440500D01*
Y448117D01*
X3013473Y450657D01*
X3018551D01*
X3021091Y448117D01*
Y440500D01*
X3036326D02*
X3026169D01*
X3036326Y450657D01*
Y453196D01*
X3033787Y455735D01*
X3028708D01*
X3026169Y453196D01*
X3051561Y455735D02*
X3041404D01*
Y448117D01*
X3046483Y450657D01*
X3049022D01*
X3051561Y448117D01*
Y443039D01*
X3049022Y440500D01*
X3043943D01*
X3041404Y443039D01*
X3056639D02*
X3059178Y440500D01*
X3064257D01*
X3066796Y443039D01*
Y453196D01*
X3064257Y455735D01*
X3059178D01*
X3056639Y453196D01*
Y450657D01*
X3059178Y448117D01*
X3066796D01*
X3071874Y440500D02*
Y450657D01*
X3074413D01*
X3076953Y448117D01*
Y440500D01*
Y448117D01*
X3079492Y450657D01*
X3082031Y448117D01*
Y440500D01*
X3087109Y448117D02*
X3097266D01*
X3102344Y440500D02*
X3107423D01*
X3104883D01*
Y455735D01*
X3102344Y453196D01*
X3115040Y435422D02*
Y450657D01*
X3122658D01*
X3125197Y448117D01*
Y443039D01*
X3122658Y440500D01*
X3115040D01*
X3130275Y453196D02*
X3132815Y455735D01*
X3137893D01*
X3140432Y453196D01*
Y443039D01*
X3137893Y440500D01*
X3132815D01*
X3130275Y443039D01*
Y453196D01*
X2962690Y412557D02*
X2955072D01*
X2952533Y410018D01*
Y404939D01*
X2955072Y402400D01*
X2962690D01*
X2967768Y415096D02*
X2970307Y417635D01*
X2975385D01*
X2977924Y415096D01*
Y404939D01*
X2975385Y402400D01*
X2970307D01*
X2967768Y404939D01*
Y415096D01*
X2983003Y417635D02*
Y402400D01*
Y410018D01*
X2985542Y412557D01*
X2990620D01*
X2993159Y410018D01*
Y402400D01*
X2998238D02*
Y412557D01*
X3005855D01*
X3008395Y410018D01*
Y402400D01*
X3013473Y415096D02*
X3016012Y417635D01*
X3021091D01*
X3023630Y415096D01*
Y412557D01*
X3021091Y410018D01*
X3018551D01*
X3021091D01*
X3023630Y407478D01*
Y404939D01*
X3021091Y402400D01*
X3016012D01*
X3013473Y404939D01*
X3036326Y402400D02*
Y417635D01*
X3028708Y410018D01*
X3038865D01*
X3043943Y415096D02*
X3046483Y417635D01*
X3051561D01*
X3054100Y415096D01*
Y404939D01*
X3051561Y402400D01*
X3046483D01*
X3043943Y404939D01*
Y415096D01*
X2957611Y364300D02*
X2952533Y369378D01*
Y374457D01*
X2957611Y379535D01*
X2965229Y364300D02*
Y379535D01*
X2970307Y374457D01*
X2975385Y379535D01*
Y364300D01*
X2980464D02*
X2985542D01*
X2983003D01*
Y374457D01*
X2980464D01*
X2993159D02*
X3003316Y364300D01*
X2998238Y369378D01*
X3003316Y374457D01*
X2993159Y364300D01*
X3016012D02*
X3010934D01*
X3008395Y366839D01*
Y371917D01*
X3010934Y374457D01*
X3016012D01*
X3018551Y371917D01*
Y369378D01*
X3008395D01*
X3033787Y379535D02*
Y364300D01*
X3026169D01*
X3023630Y366839D01*
Y371917D01*
X3026169Y374457D01*
X3033787D01*
X3038865Y364300D02*
X3043943Y369378D01*
Y374457D01*
X3038865Y379535D01*
X2962690Y336357D02*
X2955072D01*
X2952533Y333817D01*
Y328739D01*
X2955072Y326200D01*
X2962690D01*
X2975385D02*
Y341435D01*
X2967768Y333817D01*
X2977924D01*
X2983003Y338896D02*
X2985542Y341435D01*
X2990620D01*
X2993159Y338896D01*
Y328739D01*
X2990620Y326200D01*
X2985542D01*
X2983003Y328739D01*
Y338896D01*
X2998238Y328739D02*
X3000777Y326200D01*
X3005855D01*
X3008395Y328739D01*
Y338896D01*
X3005855Y341435D01*
X3000777D01*
X2998238Y338896D01*
Y336357D01*
X3000777Y333817D01*
X3008395D01*
X3013473Y341435D02*
Y326200D01*
Y333817D01*
X3016012Y336357D01*
X3021091D01*
X3023630Y333817D01*
Y326200D01*
X3028708D02*
Y336357D01*
X3036326D01*
X3038865Y333817D01*
Y326200D01*
X3051561D02*
Y341435D01*
X3043943Y333817D01*
X3054100D01*
X3059178Y338896D02*
X3061718Y341435D01*
X3066796D01*
X3069335Y338896D01*
Y328739D01*
X3066796Y326200D01*
X3061718D01*
X3059178Y328739D01*
Y338896D01*
X3074413Y328739D02*
X3076953Y326200D01*
X3082031D01*
X3084570Y328739D01*
Y338896D01*
X3082031Y341435D01*
X3076953D01*
X3074413Y338896D01*
Y336357D01*
X3076953Y333817D01*
X3084570D01*
X2962690Y298257D02*
X2955072D01*
X2952533Y295718D01*
Y290639D01*
X2955072Y288100D01*
X2962690D01*
X2967768Y300796D02*
X2970307Y303335D01*
X2975385D01*
X2977924Y300796D01*
Y298257D01*
X2975385Y295718D01*
X2972846D01*
X2975385D01*
X2977924Y293178D01*
Y290639D01*
X2975385Y288100D01*
X2970307D01*
X2967768Y290639D01*
X2983003Y300796D02*
X2985542Y303335D01*
X2990620D01*
X2993159Y300796D01*
Y290639D01*
X2990620Y288100D01*
X2985542D01*
X2983003Y290639D01*
Y300796D01*
X2998238D02*
X3000777Y303335D01*
X3005855D01*
X3008395Y300796D01*
Y290639D01*
X3005855Y288100D01*
X3000777D01*
X2998238Y290639D01*
Y300796D01*
X3013473Y303335D02*
Y288100D01*
Y295718D01*
X3016012Y298257D01*
X3021091D01*
X3023630Y295718D01*
Y288100D01*
X3028708D02*
Y298257D01*
X3036326D01*
X3038865Y295718D01*
Y288100D01*
X3043943Y300796D02*
X3046483Y303335D01*
X3051561D01*
X3054100Y300796D01*
Y298257D01*
X3051561Y295718D01*
X3049022D01*
X3051561D01*
X3054100Y293178D01*
Y290639D01*
X3051561Y288100D01*
X3046483D01*
X3043943Y290639D01*
X3059178Y300796D02*
X3061718Y303335D01*
X3066796D01*
X3069335Y300796D01*
Y290639D01*
X3066796Y288100D01*
X3061718D01*
X3059178Y290639D01*
Y300796D01*
X3074413D02*
X3076953Y303335D01*
X3082031D01*
X3084570Y300796D01*
Y290639D01*
X3082031Y288100D01*
X3076953D01*
X3074413Y290639D01*
Y300796D01*
X2957611Y250000D02*
X2952533Y255078D01*
Y260157D01*
X2957611Y265235D01*
X2965229Y250000D02*
Y265235D01*
X2970307Y260157D01*
X2975385Y265235D01*
Y250000D01*
X2980464D02*
X2985542D01*
X2983003D01*
Y260157D01*
X2980464D01*
X2993159D02*
X3003316Y250000D01*
X2998238Y255078D01*
X3003316Y260157D01*
X2993159Y250000D01*
X3016012D02*
X3010934D01*
X3008395Y252539D01*
Y257617D01*
X3010934Y260157D01*
X3016012D01*
X3018551Y257617D01*
Y255078D01*
X3008395D01*
X3033787Y265235D02*
Y250000D01*
X3026169D01*
X3023630Y252539D01*
Y257617D01*
X3026169Y260157D01*
X3033787D01*
X3038865Y250000D02*
X3043943Y255078D01*
Y260157D01*
X3038865Y265235D01*
X2957611Y211900D02*
X2952533Y216978D01*
Y222057D01*
X2957611Y227135D01*
X2965229Y211900D02*
Y227135D01*
X2970307Y222057D01*
X2975385Y227135D01*
Y211900D01*
X2980464D02*
X2985542D01*
X2983003D01*
Y222057D01*
X2980464D01*
X2993159D02*
X3003316Y211900D01*
X2998238Y216978D01*
X3003316Y222057D01*
X2993159Y211900D01*
X3016012D02*
X3010934D01*
X3008395Y214439D01*
Y219517D01*
X3010934Y222057D01*
X3016012D01*
X3018551Y219517D01*
Y216978D01*
X3008395D01*
X3033787Y227135D02*
Y211900D01*
X3026169D01*
X3023630Y214439D01*
Y219517D01*
X3026169Y222057D01*
X3033787D01*
X3038865Y211900D02*
X3043943Y216978D01*
Y222057D01*
X3038865Y227135D01*
X2763100Y478600D02*
Y493835D01*
X2770717D01*
X2773257Y491296D01*
Y486217D01*
X2770717Y483678D01*
X2763100D01*
X2768178D02*
X2773257Y478600D01*
X2780874D02*
X2785953D01*
X2788492Y481139D01*
Y486217D01*
X2785953Y488757D01*
X2780874D01*
X2778335Y486217D01*
Y481139D01*
X2780874Y478600D01*
X2793570Y488757D02*
Y481139D01*
X2796109Y478600D01*
X2803727D01*
Y488757D01*
X2808805Y478600D02*
Y488757D01*
X2816423D01*
X2818962Y486217D01*
Y478600D01*
X2834197Y493835D02*
Y478600D01*
X2826580D01*
X2824041Y481139D01*
Y486217D01*
X2826580Y488757D01*
X2834197D01*
X2846893Y478600D02*
X2841815D01*
X2839276Y481139D01*
Y486217D01*
X2841815Y488757D01*
X2846893D01*
X2849432Y486217D01*
Y483678D01*
X2839276D01*
X2864667Y493835D02*
Y478600D01*
X2857050D01*
X2854510Y481139D01*
Y486217D01*
X2857050Y488757D01*
X2864667D01*
X2763100Y440500D02*
Y455735D01*
X2770717D01*
X2773257Y453196D01*
Y448117D01*
X2770717Y445578D01*
X2763100D01*
X2768178D02*
X2773257Y440500D01*
X2780874D02*
X2785953D01*
X2788492Y443039D01*
Y448117D01*
X2785953Y450657D01*
X2780874D01*
X2778335Y448117D01*
Y443039D01*
X2780874Y440500D01*
X2793570Y450657D02*
Y443039D01*
X2796109Y440500D01*
X2803727D01*
Y450657D01*
X2808805Y440500D02*
Y450657D01*
X2816423D01*
X2818962Y448117D01*
Y440500D01*
X2834197Y455735D02*
Y440500D01*
X2826580D01*
X2824041Y443039D01*
Y448117D01*
X2826580Y450657D01*
X2834197D01*
X2846893Y440500D02*
X2841815D01*
X2839276Y443039D01*
Y448117D01*
X2841815Y450657D01*
X2846893D01*
X2849432Y448117D01*
Y445578D01*
X2839276D01*
X2864667Y455735D02*
Y440500D01*
X2857050D01*
X2854510Y443039D01*
Y448117D01*
X2857050Y450657D01*
X2864667D01*
X2763100Y402400D02*
Y417635D01*
X2770717D01*
X2773257Y415096D01*
Y410018D01*
X2770717Y407478D01*
X2763100D01*
X2768178D02*
X2773257Y402400D01*
X2780874D02*
X2785953D01*
X2788492Y404939D01*
Y410018D01*
X2785953Y412557D01*
X2780874D01*
X2778335Y410018D01*
Y404939D01*
X2780874Y402400D01*
X2793570Y412557D02*
Y404939D01*
X2796109Y402400D01*
X2803727D01*
Y412557D01*
X2808805Y402400D02*
Y412557D01*
X2816423D01*
X2818962Y410018D01*
Y402400D01*
X2834197Y417635D02*
Y402400D01*
X2826580D01*
X2824041Y404939D01*
Y410018D01*
X2826580Y412557D01*
X2834197D01*
X2846893Y402400D02*
X2841815D01*
X2839276Y404939D01*
Y410018D01*
X2841815Y412557D01*
X2846893D01*
X2849432Y410018D01*
Y407478D01*
X2839276D01*
X2864667Y417635D02*
Y402400D01*
X2857050D01*
X2854510Y404939D01*
Y410018D01*
X2857050Y412557D01*
X2864667D01*
X2763100Y364300D02*
Y379535D01*
X2770717D01*
X2773257Y376996D01*
Y371917D01*
X2770717Y369378D01*
X2763100D01*
X2768178D02*
X2773257Y364300D01*
X2780874D02*
X2785953D01*
X2788492Y366839D01*
Y371917D01*
X2785953Y374457D01*
X2780874D01*
X2778335Y371917D01*
Y366839D01*
X2780874Y364300D01*
X2793570Y374457D02*
Y366839D01*
X2796109Y364300D01*
X2803727D01*
Y374457D01*
X2808805Y364300D02*
Y374457D01*
X2816423D01*
X2818962Y371917D01*
Y364300D01*
X2834197Y379535D02*
Y364300D01*
X2826580D01*
X2824041Y366839D01*
Y371917D01*
X2826580Y374457D01*
X2834197D01*
X2846893Y364300D02*
X2841815D01*
X2839276Y366839D01*
Y371917D01*
X2841815Y374457D01*
X2846893D01*
X2849432Y371917D01*
Y369378D01*
X2839276D01*
X2864667Y379535D02*
Y364300D01*
X2857050D01*
X2854510Y366839D01*
Y371917D01*
X2857050Y374457D01*
X2864667D01*
X2763100Y326200D02*
Y341435D01*
X2770717D01*
X2773257Y338896D01*
Y333817D01*
X2770717Y331278D01*
X2763100D01*
X2768178D02*
X2773257Y326200D01*
X2780874D02*
X2785953D01*
X2788492Y328739D01*
Y333817D01*
X2785953Y336357D01*
X2780874D01*
X2778335Y333817D01*
Y328739D01*
X2780874Y326200D01*
X2793570Y336357D02*
Y328739D01*
X2796109Y326200D01*
X2803727D01*
Y336357D01*
X2808805Y326200D02*
Y336357D01*
X2816423D01*
X2818962Y333817D01*
Y326200D01*
X2834197Y341435D02*
Y326200D01*
X2826580D01*
X2824041Y328739D01*
Y333817D01*
X2826580Y336357D01*
X2834197D01*
X2846893Y326200D02*
X2841815D01*
X2839276Y328739D01*
Y333817D01*
X2841815Y336357D01*
X2846893D01*
X2849432Y333817D01*
Y331278D01*
X2839276D01*
X2864667Y341435D02*
Y326200D01*
X2857050D01*
X2854510Y328739D01*
Y333817D01*
X2857050Y336357D01*
X2864667D01*
X2763100Y288100D02*
Y303335D01*
X2770717D01*
X2773257Y300796D01*
Y295718D01*
X2770717Y293178D01*
X2763100D01*
X2768178D02*
X2773257Y288100D01*
X2780874D02*
X2785953D01*
X2788492Y290639D01*
Y295718D01*
X2785953Y298257D01*
X2780874D01*
X2778335Y295718D01*
Y290639D01*
X2780874Y288100D01*
X2793570Y298257D02*
Y290639D01*
X2796109Y288100D01*
X2803727D01*
Y298257D01*
X2808805Y288100D02*
Y298257D01*
X2816423D01*
X2818962Y295718D01*
Y288100D01*
X2834197Y303335D02*
Y288100D01*
X2826580D01*
X2824041Y290639D01*
Y295718D01*
X2826580Y298257D01*
X2834197D01*
X2846893Y288100D02*
X2841815D01*
X2839276Y290639D01*
Y295718D01*
X2841815Y298257D01*
X2846893D01*
X2849432Y295718D01*
Y293178D01*
X2839276D01*
X2864667Y303335D02*
Y288100D01*
X2857050D01*
X2854510Y290639D01*
Y295718D01*
X2857050Y298257D01*
X2864667D01*
X2763100Y250000D02*
Y265235D01*
X2770717D01*
X2773257Y262696D01*
Y257617D01*
X2770717Y255078D01*
X2763100D01*
X2768178D02*
X2773257Y250000D01*
X2780874D02*
X2785953D01*
X2788492Y252539D01*
Y257617D01*
X2785953Y260157D01*
X2780874D01*
X2778335Y257617D01*
Y252539D01*
X2780874Y250000D01*
X2793570Y260157D02*
Y252539D01*
X2796109Y250000D01*
X2803727D01*
Y260157D01*
X2808805Y250000D02*
Y260157D01*
X2816423D01*
X2818962Y257617D01*
Y250000D01*
X2834197Y265235D02*
Y250000D01*
X2826580D01*
X2824041Y252539D01*
Y257617D01*
X2826580Y260157D01*
X2834197D01*
X2846893Y250000D02*
X2841815D01*
X2839276Y252539D01*
Y257617D01*
X2841815Y260157D01*
X2846893D01*
X2849432Y257617D01*
Y255078D01*
X2839276D01*
X2864667Y265235D02*
Y250000D01*
X2857050D01*
X2854510Y252539D01*
Y257617D01*
X2857050Y260157D01*
X2864667D01*
X2763100Y211900D02*
Y227135D01*
X2770717D01*
X2773257Y224596D01*
Y219517D01*
X2770717Y216978D01*
X2763100D01*
X2768178D02*
X2773257Y211900D01*
X2780874D02*
X2785953D01*
X2788492Y214439D01*
Y219517D01*
X2785953Y222057D01*
X2780874D01*
X2778335Y219517D01*
Y214439D01*
X2780874Y211900D01*
X2793570Y222057D02*
Y214439D01*
X2796109Y211900D01*
X2803727D01*
Y222057D01*
X2808805Y211900D02*
Y222057D01*
X2816423D01*
X2818962Y219517D01*
Y211900D01*
X2834197Y227135D02*
Y211900D01*
X2826580D01*
X2824041Y214439D01*
Y219517D01*
X2826580Y222057D01*
X2834197D01*
X2846893Y211900D02*
X2841815D01*
X2839276Y214439D01*
Y219517D01*
X2841815Y222057D01*
X2846893D01*
X2849432Y219517D01*
Y216978D01*
X2839276D01*
X2864667Y227135D02*
Y211900D01*
X2857050D01*
X2854510Y214439D01*
Y219517D01*
X2857050Y222057D01*
X2864667D01*
X2613279Y478600D02*
Y493835D01*
X2620896D01*
X2623435Y491296D01*
Y486217D01*
X2620896Y483678D01*
X2613279D01*
X2631053Y488757D02*
X2636131D01*
X2638670Y486217D01*
Y478600D01*
X2631053D01*
X2628513Y481139D01*
X2631053Y483678D01*
X2638670D01*
X2653905Y493835D02*
Y478600D01*
X2646288D01*
X2643749Y481139D01*
Y486217D01*
X2646288Y488757D01*
X2653905D01*
X2613279Y440500D02*
Y455735D01*
X2620896D01*
X2623435Y453196D01*
Y448117D01*
X2620896Y445578D01*
X2613279D01*
X2631053Y450657D02*
X2636131D01*
X2638670Y448117D01*
Y440500D01*
X2631053D01*
X2628513Y443039D01*
X2631053Y445578D01*
X2638670D01*
X2653905Y455735D02*
Y440500D01*
X2646288D01*
X2643749Y443039D01*
Y448117D01*
X2646288Y450657D01*
X2653905D01*
X2613279Y402400D02*
Y417635D01*
X2620896D01*
X2623435Y415096D01*
Y410018D01*
X2620896Y407478D01*
X2613279D01*
X2631053Y412557D02*
X2636131D01*
X2638670Y410018D01*
Y402400D01*
X2631053D01*
X2628513Y404939D01*
X2631053Y407478D01*
X2638670D01*
X2653905Y417635D02*
Y402400D01*
X2646288D01*
X2643749Y404939D01*
Y410018D01*
X2646288Y412557D01*
X2653905D01*
X2613279Y364300D02*
Y379535D01*
X2620896D01*
X2623435Y376996D01*
Y371917D01*
X2620896Y369378D01*
X2613279D01*
X2631053Y374457D02*
X2636131D01*
X2638670Y371917D01*
Y364300D01*
X2631053D01*
X2628513Y366839D01*
X2631053Y369378D01*
X2638670D01*
X2653905Y379535D02*
Y364300D01*
X2646288D01*
X2643749Y366839D01*
Y371917D01*
X2646288Y374457D01*
X2653905D01*
X2613279Y326200D02*
Y341435D01*
X2620896D01*
X2623435Y338896D01*
Y333817D01*
X2620896Y331278D01*
X2613279D01*
X2631053Y336357D02*
X2636131D01*
X2638670Y333817D01*
Y326200D01*
X2631053D01*
X2628513Y328739D01*
X2631053Y331278D01*
X2638670D01*
X2653905Y341435D02*
Y326200D01*
X2646288D01*
X2643749Y328739D01*
Y333817D01*
X2646288Y336357D01*
X2653905D01*
X2613279Y288100D02*
Y303335D01*
X2620896D01*
X2623435Y300796D01*
Y295718D01*
X2620896Y293178D01*
X2613279D01*
X2631053Y298257D02*
X2636131D01*
X2638670Y295718D01*
Y288100D01*
X2631053D01*
X2628513Y290639D01*
X2631053Y293178D01*
X2638670D01*
X2653905Y303335D02*
Y288100D01*
X2646288D01*
X2643749Y290639D01*
Y295718D01*
X2646288Y298257D01*
X2653905D01*
X2613279Y250000D02*
Y265235D01*
X2620896D01*
X2623435Y262696D01*
Y257617D01*
X2620896Y255078D01*
X2613279D01*
X2631053Y260157D02*
X2636131D01*
X2638670Y257617D01*
Y250000D01*
X2631053D01*
X2628513Y252539D01*
X2631053Y255078D01*
X2638670D01*
X2653905Y265235D02*
Y250000D01*
X2646288D01*
X2643749Y252539D01*
Y257617D01*
X2646288Y260157D01*
X2653905D01*
X2613279Y227135D02*
Y216978D01*
X2618357Y211900D01*
X2623435Y216978D01*
Y227135D01*
X2628513Y211900D02*
X2633592D01*
X2631053D01*
Y222057D01*
X2628513D01*
X2643749D02*
X2648827D01*
X2651366Y219517D01*
Y211900D01*
X2643749D01*
X2641209Y214439D01*
X2643749Y216978D01*
X2651366D01*
X2232393Y493835D02*
X2242549D01*
X2237471D01*
Y478600D01*
X2250167D02*
X2255245D01*
X2257784Y481139D01*
Y486217D01*
X2255245Y488757D01*
X2250167D01*
X2247628Y486217D01*
Y481139D01*
X2250167Y478600D01*
X2262863Y473522D02*
Y488757D01*
X2270480D01*
X2273020Y486217D01*
Y481139D01*
X2270480Y478600D01*
X2262863D01*
X2293333Y493835D02*
Y478600D01*
X2303490D01*
X2311107Y488757D02*
X2316186D01*
X2318725Y486217D01*
Y478600D01*
X2311107D01*
X2308568Y481139D01*
X2311107Y483678D01*
X2318725D01*
X2323803Y488757D02*
Y481139D01*
X2326342Y478600D01*
X2333960D01*
Y476061D01*
X2331421Y473522D01*
X2328882D01*
X2333960Y478600D02*
Y488757D01*
X2346656Y478600D02*
X2341577D01*
X2339038Y481139D01*
Y486217D01*
X2341577Y488757D01*
X2346656D01*
X2349195Y486217D01*
Y483678D01*
X2339038D01*
X2354273Y488757D02*
Y478600D01*
Y483678D01*
X2356812Y486217D01*
X2359352Y488757D01*
X2361891D01*
X2384743Y486217D02*
X2394900D01*
X2415214Y493835D02*
Y478600D01*
X2422831D01*
X2425370Y481139D01*
Y483678D01*
X2422831Y486217D01*
X2415214D01*
X2422831D01*
X2425370Y488757D01*
Y491296D01*
X2422831Y493835D01*
X2415214D01*
X2432988Y478600D02*
X2438066D01*
X2440605Y481139D01*
Y486217D01*
X2438066Y488757D01*
X2432988D01*
X2430449Y486217D01*
Y481139D01*
X2432988Y478600D01*
X2448223Y491296D02*
Y488757D01*
X2445684D01*
X2450762D01*
X2448223D01*
Y481139D01*
X2450762Y478600D01*
X2460919Y491296D02*
Y488757D01*
X2458380D01*
X2463458D01*
X2460919D01*
Y481139D01*
X2463458Y478600D01*
X2473615D02*
X2478693D01*
X2481232Y481139D01*
Y486217D01*
X2478693Y488757D01*
X2473615D01*
X2471075Y486217D01*
Y481139D01*
X2473615Y478600D01*
X2486310D02*
Y488757D01*
X2488850D01*
X2491389Y486217D01*
Y478600D01*
Y486217D01*
X2493928Y488757D01*
X2496467Y486217D01*
Y478600D01*
X2516781Y493835D02*
Y478600D01*
X2526937D01*
X2534555Y488757D02*
X2539633D01*
X2542173Y486217D01*
Y478600D01*
X2534555D01*
X2532016Y481139D01*
X2534555Y483678D01*
X2542173D01*
X2547251Y488757D02*
Y481139D01*
X2549790Y478600D01*
X2557408D01*
Y476061D01*
X2554868Y473522D01*
X2552329D01*
X2557408Y478600D02*
Y488757D01*
X2570103Y478600D02*
X2565025D01*
X2562486Y481139D01*
Y486217D01*
X2565025Y488757D01*
X2570103D01*
X2572643Y486217D01*
Y483678D01*
X2562486D01*
X2577721Y488757D02*
Y478600D01*
Y483678D01*
X2580260Y486217D01*
X2582799Y488757D01*
X2585338D01*
X2232393Y455735D02*
X2242549D01*
X2237471D01*
Y440500D01*
X2250167D02*
X2255245D01*
X2257784Y443039D01*
Y448117D01*
X2255245Y450657D01*
X2250167D01*
X2247628Y448117D01*
Y443039D01*
X2250167Y440500D01*
X2262863Y435422D02*
Y450657D01*
X2270480D01*
X2273020Y448117D01*
Y443039D01*
X2270480Y440500D01*
X2262863D01*
X2293333Y455735D02*
Y440500D01*
X2303490D01*
X2311107Y450657D02*
X2316186D01*
X2318725Y448117D01*
Y440500D01*
X2311107D01*
X2308568Y443039D01*
X2311107Y445578D01*
X2318725D01*
X2323803Y450657D02*
Y443039D01*
X2326342Y440500D01*
X2333960D01*
Y437961D01*
X2331421Y435422D01*
X2328882D01*
X2333960Y440500D02*
Y450657D01*
X2346656Y440500D02*
X2341577D01*
X2339038Y443039D01*
Y448117D01*
X2341577Y450657D01*
X2346656D01*
X2349195Y448117D01*
Y445578D01*
X2339038D01*
X2354273Y450657D02*
Y440500D01*
Y445578D01*
X2356812Y448117D01*
X2359352Y450657D01*
X2361891D01*
X2384743Y448117D02*
X2394900D01*
X2415214Y455735D02*
Y440500D01*
X2422831D01*
X2425370Y443039D01*
Y445578D01*
X2422831Y448117D01*
X2415214D01*
X2422831D01*
X2425370Y450657D01*
Y453196D01*
X2422831Y455735D01*
X2415214D01*
X2432988Y440500D02*
X2438066D01*
X2440605Y443039D01*
Y448117D01*
X2438066Y450657D01*
X2432988D01*
X2430449Y448117D01*
Y443039D01*
X2432988Y440500D01*
X2448223Y453196D02*
Y450657D01*
X2445684D01*
X2450762D01*
X2448223D01*
Y443039D01*
X2450762Y440500D01*
X2460919Y453196D02*
Y450657D01*
X2458380D01*
X2463458D01*
X2460919D01*
Y443039D01*
X2463458Y440500D01*
X2473615D02*
X2478693D01*
X2481232Y443039D01*
Y448117D01*
X2478693Y450657D01*
X2473615D01*
X2471075Y448117D01*
Y443039D01*
X2473615Y440500D01*
X2486310D02*
Y450657D01*
X2488850D01*
X2491389Y448117D01*
Y440500D01*
Y448117D01*
X2493928Y450657D01*
X2496467Y448117D01*
Y440500D01*
X2516781Y455735D02*
Y440500D01*
X2526937D01*
X2534555Y450657D02*
X2539633D01*
X2542173Y448117D01*
Y440500D01*
X2534555D01*
X2532016Y443039D01*
X2534555Y445578D01*
X2542173D01*
X2547251Y450657D02*
Y443039D01*
X2549790Y440500D01*
X2557408D01*
Y437961D01*
X2554868Y435422D01*
X2552329D01*
X2557408Y440500D02*
Y450657D01*
X2570103Y440500D02*
X2565025D01*
X2562486Y443039D01*
Y448117D01*
X2565025Y450657D01*
X2570103D01*
X2572643Y448117D01*
Y445578D01*
X2562486D01*
X2577721Y450657D02*
Y440500D01*
Y445578D01*
X2580260Y448117D01*
X2582799Y450657D01*
X2585338D01*
X2232393Y417635D02*
X2242549D01*
X2237471D01*
Y402400D01*
X2250167D02*
X2255245D01*
X2257784Y404939D01*
Y410018D01*
X2255245Y412557D01*
X2250167D01*
X2247628Y410018D01*
Y404939D01*
X2250167Y402400D01*
X2262863Y397322D02*
Y412557D01*
X2270480D01*
X2273020Y410018D01*
Y404939D01*
X2270480Y402400D01*
X2262863D01*
X2293333Y417635D02*
Y402400D01*
X2303490D01*
X2311107Y412557D02*
X2316186D01*
X2318725Y410018D01*
Y402400D01*
X2311107D01*
X2308568Y404939D01*
X2311107Y407478D01*
X2318725D01*
X2323803Y412557D02*
Y404939D01*
X2326342Y402400D01*
X2333960D01*
Y399861D01*
X2331421Y397322D01*
X2328882D01*
X2333960Y402400D02*
Y412557D01*
X2346656Y402400D02*
X2341577D01*
X2339038Y404939D01*
Y410018D01*
X2341577Y412557D01*
X2346656D01*
X2349195Y410018D01*
Y407478D01*
X2339038D01*
X2354273Y412557D02*
Y402400D01*
Y407478D01*
X2356812Y410018D01*
X2359352Y412557D01*
X2361891D01*
X2384743Y410018D02*
X2394900D01*
X2415214Y417635D02*
Y402400D01*
X2422831D01*
X2425370Y404939D01*
Y407478D01*
X2422831Y410018D01*
X2415214D01*
X2422831D01*
X2425370Y412557D01*
Y415096D01*
X2422831Y417635D01*
X2415214D01*
X2432988Y402400D02*
X2438066D01*
X2440605Y404939D01*
Y410018D01*
X2438066Y412557D01*
X2432988D01*
X2430449Y410018D01*
Y404939D01*
X2432988Y402400D01*
X2448223Y415096D02*
Y412557D01*
X2445684D01*
X2450762D01*
X2448223D01*
Y404939D01*
X2450762Y402400D01*
X2460919Y415096D02*
Y412557D01*
X2458380D01*
X2463458D01*
X2460919D01*
Y404939D01*
X2463458Y402400D01*
X2473615D02*
X2478693D01*
X2481232Y404939D01*
Y410018D01*
X2478693Y412557D01*
X2473615D01*
X2471075Y410018D01*
Y404939D01*
X2473615Y402400D01*
X2486310D02*
Y412557D01*
X2488850D01*
X2491389Y410018D01*
Y402400D01*
Y410018D01*
X2493928Y412557D01*
X2496467Y410018D01*
Y402400D01*
X2516781Y417635D02*
Y402400D01*
X2526937D01*
X2534555Y412557D02*
X2539633D01*
X2542173Y410018D01*
Y402400D01*
X2534555D01*
X2532016Y404939D01*
X2534555Y407478D01*
X2542173D01*
X2547251Y412557D02*
Y404939D01*
X2549790Y402400D01*
X2557408D01*
Y399861D01*
X2554868Y397322D01*
X2552329D01*
X2557408Y402400D02*
Y412557D01*
X2570103Y402400D02*
X2565025D01*
X2562486Y404939D01*
Y410018D01*
X2565025Y412557D01*
X2570103D01*
X2572643Y410018D01*
Y407478D01*
X2562486D01*
X2577721Y412557D02*
Y402400D01*
Y407478D01*
X2580260Y410018D01*
X2582799Y412557D01*
X2585338D01*
X2232393Y379535D02*
X2242549D01*
X2237471D01*
Y364300D01*
X2250167D02*
X2255245D01*
X2257784Y366839D01*
Y371917D01*
X2255245Y374457D01*
X2250167D01*
X2247628Y371917D01*
Y366839D01*
X2250167Y364300D01*
X2262863Y359222D02*
Y374457D01*
X2270480D01*
X2273020Y371917D01*
Y366839D01*
X2270480Y364300D01*
X2262863D01*
X2293333Y379535D02*
Y364300D01*
X2303490D01*
X2311107Y374457D02*
X2316186D01*
X2318725Y371917D01*
Y364300D01*
X2311107D01*
X2308568Y366839D01*
X2311107Y369378D01*
X2318725D01*
X2323803Y374457D02*
Y366839D01*
X2326342Y364300D01*
X2333960D01*
Y361761D01*
X2331421Y359222D01*
X2328882D01*
X2333960Y364300D02*
Y374457D01*
X2346656Y364300D02*
X2341577D01*
X2339038Y366839D01*
Y371917D01*
X2341577Y374457D01*
X2346656D01*
X2349195Y371917D01*
Y369378D01*
X2339038D01*
X2354273Y374457D02*
Y364300D01*
Y369378D01*
X2356812Y371917D01*
X2359352Y374457D01*
X2361891D01*
X2384743Y371917D02*
X2394900D01*
X2415214Y379535D02*
Y364300D01*
X2422831D01*
X2425370Y366839D01*
Y369378D01*
X2422831Y371917D01*
X2415214D01*
X2422831D01*
X2425370Y374457D01*
Y376996D01*
X2422831Y379535D01*
X2415214D01*
X2432988Y364300D02*
X2438066D01*
X2440605Y366839D01*
Y371917D01*
X2438066Y374457D01*
X2432988D01*
X2430449Y371917D01*
Y366839D01*
X2432988Y364300D01*
X2448223Y376996D02*
Y374457D01*
X2445684D01*
X2450762D01*
X2448223D01*
Y366839D01*
X2450762Y364300D01*
X2460919Y376996D02*
Y374457D01*
X2458380D01*
X2463458D01*
X2460919D01*
Y366839D01*
X2463458Y364300D01*
X2473615D02*
X2478693D01*
X2481232Y366839D01*
Y371917D01*
X2478693Y374457D01*
X2473615D01*
X2471075Y371917D01*
Y366839D01*
X2473615Y364300D01*
X2486310D02*
Y374457D01*
X2488850D01*
X2491389Y371917D01*
Y364300D01*
Y371917D01*
X2493928Y374457D01*
X2496467Y371917D01*
Y364300D01*
X2516781Y379535D02*
Y364300D01*
X2526937D01*
X2534555Y374457D02*
X2539633D01*
X2542173Y371917D01*
Y364300D01*
X2534555D01*
X2532016Y366839D01*
X2534555Y369378D01*
X2542173D01*
X2547251Y374457D02*
Y366839D01*
X2549790Y364300D01*
X2557408D01*
Y361761D01*
X2554868Y359222D01*
X2552329D01*
X2557408Y364300D02*
Y374457D01*
X2570103Y364300D02*
X2565025D01*
X2562486Y366839D01*
Y371917D01*
X2565025Y374457D01*
X2570103D01*
X2572643Y371917D01*
Y369378D01*
X2562486D01*
X2577721Y374457D02*
Y364300D01*
Y369378D01*
X2580260Y371917D01*
X2582799Y374457D01*
X2585338D01*
X2232393Y341435D02*
X2242549D01*
X2237471D01*
Y326200D01*
X2250167D02*
X2255245D01*
X2257784Y328739D01*
Y333817D01*
X2255245Y336357D01*
X2250167D01*
X2247628Y333817D01*
Y328739D01*
X2250167Y326200D01*
X2262863Y321122D02*
Y336357D01*
X2270480D01*
X2273020Y333817D01*
Y328739D01*
X2270480Y326200D01*
X2262863D01*
X2293333Y341435D02*
Y326200D01*
X2303490D01*
X2311107Y336357D02*
X2316186D01*
X2318725Y333817D01*
Y326200D01*
X2311107D01*
X2308568Y328739D01*
X2311107Y331278D01*
X2318725D01*
X2323803Y336357D02*
Y328739D01*
X2326342Y326200D01*
X2333960D01*
Y323661D01*
X2331421Y321122D01*
X2328882D01*
X2333960Y326200D02*
Y336357D01*
X2346656Y326200D02*
X2341577D01*
X2339038Y328739D01*
Y333817D01*
X2341577Y336357D01*
X2346656D01*
X2349195Y333817D01*
Y331278D01*
X2339038D01*
X2354273Y336357D02*
Y326200D01*
Y331278D01*
X2356812Y333817D01*
X2359352Y336357D01*
X2361891D01*
X2384743Y333817D02*
X2394900D01*
X2415214Y341435D02*
Y326200D01*
X2422831D01*
X2425370Y328739D01*
Y331278D01*
X2422831Y333817D01*
X2415214D01*
X2422831D01*
X2425370Y336357D01*
Y338896D01*
X2422831Y341435D01*
X2415214D01*
X2432988Y326200D02*
X2438066D01*
X2440605Y328739D01*
Y333817D01*
X2438066Y336357D01*
X2432988D01*
X2430449Y333817D01*
Y328739D01*
X2432988Y326200D01*
X2448223Y338896D02*
Y336357D01*
X2445684D01*
X2450762D01*
X2448223D01*
Y328739D01*
X2450762Y326200D01*
X2460919Y338896D02*
Y336357D01*
X2458380D01*
X2463458D01*
X2460919D01*
Y328739D01*
X2463458Y326200D01*
X2473615D02*
X2478693D01*
X2481232Y328739D01*
Y333817D01*
X2478693Y336357D01*
X2473615D01*
X2471075Y333817D01*
Y328739D01*
X2473615Y326200D01*
X2486310D02*
Y336357D01*
X2488850D01*
X2491389Y333817D01*
Y326200D01*
Y333817D01*
X2493928Y336357D01*
X2496467Y333817D01*
Y326200D01*
X2516781Y341435D02*
Y326200D01*
X2526937D01*
X2534555Y336357D02*
X2539633D01*
X2542173Y333817D01*
Y326200D01*
X2534555D01*
X2532016Y328739D01*
X2534555Y331278D01*
X2542173D01*
X2547251Y336357D02*
Y328739D01*
X2549790Y326200D01*
X2557408D01*
Y323661D01*
X2554868Y321122D01*
X2552329D01*
X2557408Y326200D02*
Y336357D01*
X2570103Y326200D02*
X2565025D01*
X2562486Y328739D01*
Y333817D01*
X2565025Y336357D01*
X2570103D01*
X2572643Y333817D01*
Y331278D01*
X2562486D01*
X2577721Y336357D02*
Y326200D01*
Y331278D01*
X2580260Y333817D01*
X2582799Y336357D01*
X2585338D01*
X2232393Y303335D02*
X2242549D01*
X2237471D01*
Y288100D01*
X2250167D02*
X2255245D01*
X2257784Y290639D01*
Y295718D01*
X2255245Y298257D01*
X2250167D01*
X2247628Y295718D01*
Y290639D01*
X2250167Y288100D01*
X2262863Y283022D02*
Y298257D01*
X2270480D01*
X2273020Y295718D01*
Y290639D01*
X2270480Y288100D01*
X2262863D01*
X2293333Y303335D02*
Y288100D01*
X2303490D01*
X2311107Y298257D02*
X2316186D01*
X2318725Y295718D01*
Y288100D01*
X2311107D01*
X2308568Y290639D01*
X2311107Y293178D01*
X2318725D01*
X2323803Y298257D02*
Y290639D01*
X2326342Y288100D01*
X2333960D01*
Y285561D01*
X2331421Y283022D01*
X2328882D01*
X2333960Y288100D02*
Y298257D01*
X2346656Y288100D02*
X2341577D01*
X2339038Y290639D01*
Y295718D01*
X2341577Y298257D01*
X2346656D01*
X2349195Y295718D01*
Y293178D01*
X2339038D01*
X2354273Y298257D02*
Y288100D01*
Y293178D01*
X2356812Y295718D01*
X2359352Y298257D01*
X2361891D01*
X2384743Y295718D02*
X2394900D01*
X2415214Y303335D02*
Y288100D01*
X2422831D01*
X2425370Y290639D01*
Y293178D01*
X2422831Y295718D01*
X2415214D01*
X2422831D01*
X2425370Y298257D01*
Y300796D01*
X2422831Y303335D01*
X2415214D01*
X2432988Y288100D02*
X2438066D01*
X2440605Y290639D01*
Y295718D01*
X2438066Y298257D01*
X2432988D01*
X2430449Y295718D01*
Y290639D01*
X2432988Y288100D01*
X2448223Y300796D02*
Y298257D01*
X2445684D01*
X2450762D01*
X2448223D01*
Y290639D01*
X2450762Y288100D01*
X2460919Y300796D02*
Y298257D01*
X2458380D01*
X2463458D01*
X2460919D01*
Y290639D01*
X2463458Y288100D01*
X2473615D02*
X2478693D01*
X2481232Y290639D01*
Y295718D01*
X2478693Y298257D01*
X2473615D01*
X2471075Y295718D01*
Y290639D01*
X2473615Y288100D01*
X2486310D02*
Y298257D01*
X2488850D01*
X2491389Y295718D01*
Y288100D01*
Y295718D01*
X2493928Y298257D01*
X2496467Y295718D01*
Y288100D01*
X2516781Y303335D02*
Y288100D01*
X2526937D01*
X2534555Y298257D02*
X2539633D01*
X2542173Y295718D01*
Y288100D01*
X2534555D01*
X2532016Y290639D01*
X2534555Y293178D01*
X2542173D01*
X2547251Y298257D02*
Y290639D01*
X2549790Y288100D01*
X2557408D01*
Y285561D01*
X2554868Y283022D01*
X2552329D01*
X2557408Y288100D02*
Y298257D01*
X2570103Y288100D02*
X2565025D01*
X2562486Y290639D01*
Y295718D01*
X2565025Y298257D01*
X2570103D01*
X2572643Y295718D01*
Y293178D01*
X2562486D01*
X2577721Y298257D02*
Y288100D01*
Y293178D01*
X2580260Y295718D01*
X2582799Y298257D01*
X2585338D01*
X2232393Y265235D02*
X2242549D01*
X2237471D01*
Y250000D01*
X2250167D02*
X2255245D01*
X2257784Y252539D01*
Y257617D01*
X2255245Y260157D01*
X2250167D01*
X2247628Y257617D01*
Y252539D01*
X2250167Y250000D01*
X2262863Y244922D02*
Y260157D01*
X2270480D01*
X2273020Y257617D01*
Y252539D01*
X2270480Y250000D01*
X2262863D01*
X2293333Y265235D02*
Y250000D01*
X2303490D01*
X2311107Y260157D02*
X2316186D01*
X2318725Y257617D01*
Y250000D01*
X2311107D01*
X2308568Y252539D01*
X2311107Y255078D01*
X2318725D01*
X2323803Y260157D02*
Y252539D01*
X2326342Y250000D01*
X2333960D01*
Y247461D01*
X2331421Y244922D01*
X2328882D01*
X2333960Y250000D02*
Y260157D01*
X2346656Y250000D02*
X2341577D01*
X2339038Y252539D01*
Y257617D01*
X2341577Y260157D01*
X2346656D01*
X2349195Y257617D01*
Y255078D01*
X2339038D01*
X2354273Y260157D02*
Y250000D01*
Y255078D01*
X2356812Y257617D01*
X2359352Y260157D01*
X2361891D01*
X2384743Y257617D02*
X2394900D01*
X2415214Y265235D02*
Y250000D01*
X2422831D01*
X2425370Y252539D01*
Y255078D01*
X2422831Y257617D01*
X2415214D01*
X2422831D01*
X2425370Y260157D01*
Y262696D01*
X2422831Y265235D01*
X2415214D01*
X2432988Y250000D02*
X2438066D01*
X2440605Y252539D01*
Y257617D01*
X2438066Y260157D01*
X2432988D01*
X2430449Y257617D01*
Y252539D01*
X2432988Y250000D01*
X2448223Y262696D02*
Y260157D01*
X2445684D01*
X2450762D01*
X2448223D01*
Y252539D01*
X2450762Y250000D01*
X2460919Y262696D02*
Y260157D01*
X2458380D01*
X2463458D01*
X2460919D01*
Y252539D01*
X2463458Y250000D01*
X2473615D02*
X2478693D01*
X2481232Y252539D01*
Y257617D01*
X2478693Y260157D01*
X2473615D01*
X2471075Y257617D01*
Y252539D01*
X2473615Y250000D01*
X2486310D02*
Y260157D01*
X2488850D01*
X2491389Y257617D01*
Y250000D01*
Y257617D01*
X2493928Y260157D01*
X2496467Y257617D01*
Y250000D01*
X2516781Y265235D02*
Y250000D01*
X2526937D01*
X2534555Y260157D02*
X2539633D01*
X2542173Y257617D01*
Y250000D01*
X2534555D01*
X2532016Y252539D01*
X2534555Y255078D01*
X2542173D01*
X2547251Y260157D02*
Y252539D01*
X2549790Y250000D01*
X2557408D01*
Y247461D01*
X2554868Y244922D01*
X2552329D01*
X2557408Y250000D02*
Y260157D01*
X2570103Y250000D02*
X2565025D01*
X2562486Y252539D01*
Y257617D01*
X2565025Y260157D01*
X2570103D01*
X2572643Y257617D01*
Y255078D01*
X2562486D01*
X2577721Y260157D02*
Y250000D01*
Y255078D01*
X2580260Y257617D01*
X2582799Y260157D01*
X2585338D01*
X2232393Y227135D02*
X2242549D01*
X2237471D01*
Y211900D01*
X2250167D02*
X2255245D01*
X2257784Y214439D01*
Y219517D01*
X2255245Y222057D01*
X2250167D01*
X2247628Y219517D01*
Y214439D01*
X2250167Y211900D01*
X2262863Y206822D02*
Y222057D01*
X2270480D01*
X2273020Y219517D01*
Y214439D01*
X2270480Y211900D01*
X2262863D01*
X2293333Y227135D02*
Y211900D01*
X2303490D01*
X2311107Y222057D02*
X2316186D01*
X2318725Y219517D01*
Y211900D01*
X2311107D01*
X2308568Y214439D01*
X2311107Y216978D01*
X2318725D01*
X2323803Y222057D02*
Y214439D01*
X2326342Y211900D01*
X2333960D01*
Y209361D01*
X2331421Y206822D01*
X2328882D01*
X2333960Y211900D02*
Y222057D01*
X2346656Y211900D02*
X2341577D01*
X2339038Y214439D01*
Y219517D01*
X2341577Y222057D01*
X2346656D01*
X2349195Y219517D01*
Y216978D01*
X2339038D01*
X2354273Y222057D02*
Y211900D01*
Y216978D01*
X2356812Y219517D01*
X2359352Y222057D01*
X2361891D01*
X2384743Y219517D02*
X2394900D01*
X2415214Y227135D02*
Y211900D01*
X2422831D01*
X2425370Y214439D01*
Y216978D01*
X2422831Y219517D01*
X2415214D01*
X2422831D01*
X2425370Y222057D01*
Y224596D01*
X2422831Y227135D01*
X2415214D01*
X2432988Y211900D02*
X2438066D01*
X2440605Y214439D01*
Y219517D01*
X2438066Y222057D01*
X2432988D01*
X2430449Y219517D01*
Y214439D01*
X2432988Y211900D01*
X2448223Y224596D02*
Y222057D01*
X2445684D01*
X2450762D01*
X2448223D01*
Y214439D01*
X2450762Y211900D01*
X2460919Y224596D02*
Y222057D01*
X2458380D01*
X2463458D01*
X2460919D01*
Y214439D01*
X2463458Y211900D01*
X2473615D02*
X2478693D01*
X2481232Y214439D01*
Y219517D01*
X2478693Y222057D01*
X2473615D01*
X2471075Y219517D01*
Y214439D01*
X2473615Y211900D01*
X2486310D02*
Y222057D01*
X2488850D01*
X2491389Y219517D01*
Y211900D01*
Y219517D01*
X2493928Y222057D01*
X2496467Y219517D01*
Y211900D01*
X2516781Y227135D02*
Y211900D01*
X2526937D01*
X2534555Y222057D02*
X2539633D01*
X2542173Y219517D01*
Y211900D01*
X2534555D01*
X2532016Y214439D01*
X2534555Y216978D01*
X2542173D01*
X2547251Y222057D02*
Y214439D01*
X2549790Y211900D01*
X2557408D01*
Y209361D01*
X2554868Y206822D01*
X2552329D01*
X2557408Y211900D02*
Y222057D01*
X2570103Y211900D02*
X2565025D01*
X2562486Y214439D01*
Y219517D01*
X2565025Y222057D01*
X2570103D01*
X2572643Y219517D01*
Y216978D01*
X2562486D01*
X2577721Y222057D02*
Y211900D01*
Y216978D01*
X2580260Y219517D01*
X2582799Y222057D01*
X2585338D01*
X2046007Y478600D02*
Y493835D01*
X2053625D01*
X2056164Y491296D01*
Y486217D01*
X2053625Y483678D01*
X2046007D01*
X2051085D02*
X2056164Y478600D01*
X2063781D02*
X2068860D01*
X2071399Y481139D01*
Y486217D01*
X2068860Y488757D01*
X2063781D01*
X2061242Y486217D01*
Y481139D01*
X2063781Y478600D01*
X2076477Y488757D02*
Y481139D01*
X2079016Y478600D01*
X2086634D01*
Y488757D01*
X2091712Y478600D02*
Y488757D01*
X2099330D01*
X2101869Y486217D01*
Y478600D01*
X2117104Y493835D02*
Y478600D01*
X2109487D01*
X2106947Y481139D01*
Y486217D01*
X2109487Y488757D01*
X2117104D01*
X2046007Y440500D02*
Y455735D01*
X2053625D01*
X2056164Y453196D01*
Y448117D01*
X2053625Y445578D01*
X2046007D01*
X2051085D02*
X2056164Y440500D01*
X2063781D02*
X2068860D01*
X2071399Y443039D01*
Y448117D01*
X2068860Y450657D01*
X2063781D01*
X2061242Y448117D01*
Y443039D01*
X2063781Y440500D01*
X2076477Y450657D02*
Y443039D01*
X2079016Y440500D01*
X2086634D01*
Y450657D01*
X2091712Y440500D02*
Y450657D01*
X2099330D01*
X2101869Y448117D01*
Y440500D01*
X2117104Y455735D02*
Y440500D01*
X2109487D01*
X2106947Y443039D01*
Y448117D01*
X2109487Y450657D01*
X2117104D01*
X2046007Y402400D02*
Y417635D01*
X2053625D01*
X2056164Y415096D01*
Y410018D01*
X2053625Y407478D01*
X2046007D01*
X2051085D02*
X2056164Y402400D01*
X2063781D02*
X2068860D01*
X2071399Y404939D01*
Y410018D01*
X2068860Y412557D01*
X2063781D01*
X2061242Y410018D01*
Y404939D01*
X2063781Y402400D01*
X2076477Y412557D02*
Y404939D01*
X2079016Y402400D01*
X2086634D01*
Y412557D01*
X2091712Y402400D02*
Y412557D01*
X2099330D01*
X2101869Y410018D01*
Y402400D01*
X2117104Y417635D02*
Y402400D01*
X2109487D01*
X2106947Y404939D01*
Y410018D01*
X2109487Y412557D01*
X2117104D01*
X2046007Y364300D02*
Y379535D01*
X2053625D01*
X2056164Y376996D01*
Y371917D01*
X2053625Y369378D01*
X2046007D01*
X2051085D02*
X2056164Y364300D01*
X2063781D02*
X2068860D01*
X2071399Y366839D01*
Y371917D01*
X2068860Y374457D01*
X2063781D01*
X2061242Y371917D01*
Y366839D01*
X2063781Y364300D01*
X2076477Y374457D02*
Y366839D01*
X2079016Y364300D01*
X2086634D01*
Y374457D01*
X2091712Y364300D02*
Y374457D01*
X2099330D01*
X2101869Y371917D01*
Y364300D01*
X2117104Y379535D02*
Y364300D01*
X2109487D01*
X2106947Y366839D01*
Y371917D01*
X2109487Y374457D01*
X2117104D01*
X2046007Y326200D02*
Y341435D01*
X2053625D01*
X2056164Y338896D01*
Y333817D01*
X2053625Y331278D01*
X2046007D01*
X2051085D02*
X2056164Y326200D01*
X2063781D02*
X2068860D01*
X2071399Y328739D01*
Y333817D01*
X2068860Y336357D01*
X2063781D01*
X2061242Y333817D01*
Y328739D01*
X2063781Y326200D01*
X2076477Y336357D02*
Y328739D01*
X2079016Y326200D01*
X2086634D01*
Y336357D01*
X2091712Y326200D02*
Y336357D01*
X2099330D01*
X2101869Y333817D01*
Y326200D01*
X2117104Y341435D02*
Y326200D01*
X2109487D01*
X2106947Y328739D01*
Y333817D01*
X2109487Y336357D01*
X2117104D01*
X2046007Y288100D02*
Y303335D01*
X2053625D01*
X2056164Y300796D01*
Y295718D01*
X2053625Y293178D01*
X2046007D01*
X2051085D02*
X2056164Y288100D01*
X2063781D02*
X2068860D01*
X2071399Y290639D01*
Y295718D01*
X2068860Y298257D01*
X2063781D01*
X2061242Y295718D01*
Y290639D01*
X2063781Y288100D01*
X2076477Y298257D02*
Y290639D01*
X2079016Y288100D01*
X2086634D01*
Y298257D01*
X2091712Y288100D02*
Y298257D01*
X2099330D01*
X2101869Y295718D01*
Y288100D01*
X2117104Y303335D02*
Y288100D01*
X2109487D01*
X2106947Y290639D01*
Y295718D01*
X2109487Y298257D01*
X2117104D01*
X2046007Y250000D02*
Y265235D01*
X2053625D01*
X2056164Y262696D01*
Y257617D01*
X2053625Y255078D01*
X2046007D01*
X2051085D02*
X2056164Y250000D01*
X2063781D02*
X2068860D01*
X2071399Y252539D01*
Y257617D01*
X2068860Y260157D01*
X2063781D01*
X2061242Y257617D01*
Y252539D01*
X2063781Y250000D01*
X2076477Y260157D02*
Y252539D01*
X2079016Y250000D01*
X2086634D01*
Y260157D01*
X2091712Y250000D02*
Y260157D01*
X2099330D01*
X2101869Y257617D01*
Y250000D01*
X2117104Y265235D02*
Y250000D01*
X2109487D01*
X2106947Y252539D01*
Y257617D01*
X2109487Y260157D01*
X2117104D01*
X2046007Y211900D02*
Y227135D01*
X2053625D01*
X2056164Y224596D01*
Y219517D01*
X2053625Y216978D01*
X2046007D01*
X2051085D02*
X2056164Y211900D01*
X2063781D02*
X2068860D01*
X2071399Y214439D01*
Y219517D01*
X2068860Y222057D01*
X2063781D01*
X2061242Y219517D01*
Y214439D01*
X2063781Y211900D01*
X2076477Y222057D02*
Y214439D01*
X2079016Y211900D01*
X2086634D01*
Y222057D01*
X2091712Y211900D02*
Y222057D01*
X2099330D01*
X2101869Y219517D01*
Y211900D01*
X2117104Y227135D02*
Y211900D01*
X2109487D01*
X2106947Y214439D01*
Y219517D01*
X2109487Y222057D01*
X2117104D01*
X1917514Y478600D02*
Y493835D01*
X1925132D01*
X1927671Y491296D01*
Y486217D01*
X1925132Y483678D01*
X1917514D01*
X1932750Y493835D02*
X1942906D01*
X1937828D01*
Y478600D01*
X1947985Y493835D02*
Y478600D01*
Y486217D01*
X1958141D01*
Y493835D01*
Y478600D01*
X1917514Y440500D02*
Y455735D01*
X1925132D01*
X1927671Y453196D01*
Y448117D01*
X1925132Y445578D01*
X1917514D01*
X1932750Y455735D02*
X1942906D01*
X1937828D01*
Y440500D01*
X1947985Y455735D02*
Y440500D01*
Y448117D01*
X1958141D01*
Y455735D01*
Y440500D01*
X1917514Y402400D02*
Y417635D01*
X1927671Y402400D01*
Y417635D01*
X1932750Y402400D02*
Y417635D01*
X1940367D01*
X1942906Y415096D01*
Y410018D01*
X1940367Y407478D01*
X1932750D01*
X1947985Y417635D02*
X1958141D01*
X1953063D01*
Y402400D01*
X1963220Y417635D02*
Y402400D01*
Y410018D01*
X1973376D01*
Y417635D01*
Y402400D01*
X1917514Y364300D02*
Y379535D01*
X1925132D01*
X1927671Y376996D01*
Y371917D01*
X1925132Y369378D01*
X1917514D01*
X1932750Y379535D02*
X1942906D01*
X1937828D01*
Y364300D01*
X1947985Y379535D02*
Y364300D01*
Y371917D01*
X1958141D01*
Y379535D01*
Y364300D01*
X1917514Y326200D02*
Y341435D01*
X1927671Y326200D01*
Y341435D01*
X1932750Y326200D02*
Y341435D01*
X1940367D01*
X1942906Y338896D01*
Y333817D01*
X1940367Y331278D01*
X1932750D01*
X1947985Y341435D02*
X1958141D01*
X1953063D01*
Y326200D01*
X1963220Y341435D02*
Y326200D01*
Y333817D01*
X1973376D01*
Y341435D01*
Y326200D01*
X1917514Y288100D02*
Y303335D01*
X1927671Y288100D01*
Y303335D01*
X1932750Y288100D02*
Y303335D01*
X1940367D01*
X1942906Y300796D01*
Y295718D01*
X1940367Y293178D01*
X1932750D01*
X1947985Y303335D02*
X1958141D01*
X1953063D01*
Y288100D01*
X1963220Y303335D02*
Y288100D01*
Y295718D01*
X1973376D01*
Y303335D01*
Y288100D01*
X1917514Y250000D02*
Y265235D01*
X1925132D01*
X1927671Y262696D01*
Y257617D01*
X1925132Y255078D01*
X1917514D01*
X1932750Y265235D02*
X1942906D01*
X1937828D01*
Y250000D01*
X1947985Y265235D02*
Y250000D01*
Y257617D01*
X1958141D01*
Y265235D01*
Y250000D01*
X1917514Y211900D02*
Y227135D01*
X1925132D01*
X1927671Y224596D01*
Y219517D01*
X1925132Y216978D01*
X1917514D01*
X1932750Y227135D02*
X1942906D01*
X1937828D01*
Y211900D01*
X1947985Y227135D02*
Y211900D01*
Y219517D01*
X1958141D01*
Y227135D01*
Y211900D01*
X1625500Y491296D02*
X1628039Y493835D01*
X1633118D01*
X1635657Y491296D01*
Y481139D01*
X1633118Y478600D01*
X1628039D01*
X1625500Y481139D01*
Y491296D01*
X1640735Y478600D02*
Y481139D01*
X1643274D01*
Y478600D01*
X1640735D01*
X1653431Y481139D02*
X1655970Y478600D01*
X1661048D01*
X1663588Y481139D01*
Y491296D01*
X1661048Y493835D01*
X1655970D01*
X1653431Y491296D01*
Y488757D01*
X1655970Y486217D01*
X1663588D01*
X1668666Y491296D02*
X1671205Y493835D01*
X1676284D01*
X1678823Y491296D01*
Y481139D01*
X1676284Y478600D01*
X1671205D01*
X1668666Y481139D01*
Y491296D01*
X1683901D02*
X1686440Y493835D01*
X1691519D01*
X1694058Y491296D01*
Y481139D01*
X1691519Y478600D01*
X1686440D01*
X1683901Y481139D01*
Y491296D01*
X1699136Y478600D02*
Y488757D01*
X1701675D01*
X1704214Y486217D01*
Y478600D01*
Y486217D01*
X1706754Y488757D01*
X1709293Y486217D01*
Y478600D01*
X1714371D02*
Y488757D01*
X1716910D01*
X1719450Y486217D01*
Y478600D01*
Y486217D01*
X1721989Y488757D01*
X1724528Y486217D01*
Y478600D01*
X1749920D02*
X1744841Y483678D01*
Y488757D01*
X1749920Y493835D01*
X1757537Y491296D02*
X1760076Y493835D01*
X1765155D01*
X1767694Y491296D01*
Y488757D01*
X1765155Y486217D01*
X1762616D01*
X1765155D01*
X1767694Y483678D01*
Y481139D01*
X1765155Y478600D01*
X1760076D01*
X1757537Y481139D01*
X1782929Y493835D02*
X1772772D01*
Y486217D01*
X1777851Y488757D01*
X1780390D01*
X1782929Y486217D01*
Y481139D01*
X1780390Y478600D01*
X1775311D01*
X1772772Y481139D01*
X1788007Y478600D02*
Y481139D01*
X1790547D01*
Y478600D01*
X1788007D01*
X1808321D02*
Y493835D01*
X1800703Y486217D01*
X1810860D01*
X1815938Y491296D02*
X1818478Y493835D01*
X1823556D01*
X1826095Y491296D01*
Y488757D01*
X1823556Y486217D01*
X1821017D01*
X1823556D01*
X1826095Y483678D01*
Y481139D01*
X1823556Y478600D01*
X1818478D01*
X1815938Y481139D01*
X1831174Y478600D02*
Y488757D01*
X1833713D01*
X1836252Y486217D01*
Y478600D01*
Y486217D01*
X1838791Y488757D01*
X1841330Y486217D01*
Y478600D01*
X1846409D02*
X1851487D01*
X1848948D01*
Y488757D01*
X1846409D01*
X1859104Y478600D02*
X1864183D01*
X1861644D01*
Y493835D01*
X1859104D01*
X1871800Y478600D02*
X1876879Y483678D01*
Y488757D01*
X1871800Y493835D01*
X1635657Y440500D02*
X1625500D01*
X1635657Y450657D01*
Y453196D01*
X1633118Y455735D01*
X1628039D01*
X1625500Y453196D01*
X1640735Y440500D02*
Y443039D01*
X1643274D01*
Y440500D01*
X1640735D01*
X1663588Y455735D02*
X1653431D01*
Y448117D01*
X1658509Y450657D01*
X1661048D01*
X1663588Y448117D01*
Y443039D01*
X1661048Y440500D01*
X1655970D01*
X1653431Y443039D01*
X1668666D02*
X1671205Y440500D01*
X1676284D01*
X1678823Y443039D01*
Y453196D01*
X1676284Y455735D01*
X1671205D01*
X1668666Y453196D01*
Y450657D01*
X1671205Y448117D01*
X1678823D01*
X1683901Y440500D02*
X1688979D01*
X1686440D01*
Y455735D01*
X1683901Y453196D01*
X1696597Y440500D02*
Y450657D01*
X1699136D01*
X1701675Y448117D01*
Y440500D01*
Y448117D01*
X1704214Y450657D01*
X1706754Y448117D01*
Y440500D01*
X1711832D02*
Y450657D01*
X1714371D01*
X1716910Y448117D01*
Y440500D01*
Y448117D01*
X1719450Y450657D01*
X1721989Y448117D01*
Y440500D01*
X1747381D02*
X1742302Y445578D01*
Y450657D01*
X1747381Y455735D01*
X1754998Y440500D02*
X1760076D01*
X1757537D01*
Y455735D01*
X1754998Y453196D01*
X1767694D02*
X1770233Y455735D01*
X1775311D01*
X1777851Y453196D01*
Y443039D01*
X1775311Y440500D01*
X1770233D01*
X1767694Y443039D01*
Y453196D01*
X1793086Y440500D02*
X1782929D01*
X1793086Y450657D01*
Y453196D01*
X1790547Y455735D01*
X1785468D01*
X1782929Y453196D01*
X1798164Y440500D02*
Y443039D01*
X1800703D01*
Y440500D01*
X1798164D01*
X1810860Y453196D02*
X1813399Y455735D01*
X1818477D01*
X1821017Y453196D01*
Y443039D01*
X1818477Y440500D01*
X1813399D01*
X1810860Y443039D01*
Y453196D01*
X1826095D02*
X1828634Y455735D01*
X1833713D01*
X1836252Y453196D01*
Y443039D01*
X1833713Y440500D01*
X1828634D01*
X1826095Y443039D01*
Y453196D01*
X1841330Y440500D02*
Y450657D01*
X1843869D01*
X1846409Y448117D01*
Y440500D01*
Y448117D01*
X1848948Y450657D01*
X1851487Y448117D01*
Y440500D01*
X1856565D02*
X1861644D01*
X1859104D01*
Y450657D01*
X1856565D01*
X1869261Y440500D02*
X1874339D01*
X1871800D01*
Y455735D01*
X1869261D01*
X1881957Y440500D02*
X1887035Y445578D01*
Y450657D01*
X1881957Y455735D01*
X1625500Y415096D02*
X1628039Y417635D01*
X1633118D01*
X1635657Y415096D01*
Y412557D01*
X1633118Y410018D01*
X1630578D01*
X1633118D01*
X1635657Y407478D01*
Y404939D01*
X1633118Y402400D01*
X1628039D01*
X1625500Y404939D01*
X1640735Y402400D02*
Y404939D01*
X1643274D01*
Y402400D01*
X1640735D01*
X1661048D02*
Y417635D01*
X1653431Y410018D01*
X1663588D01*
X1668666Y415096D02*
X1671205Y417635D01*
X1676284D01*
X1678823Y415096D01*
Y404939D01*
X1676284Y402400D01*
X1671205D01*
X1668666Y404939D01*
Y415096D01*
X1683901D02*
X1686440Y417635D01*
X1691519D01*
X1694058Y415096D01*
Y404939D01*
X1691519Y402400D01*
X1686440D01*
X1683901Y404939D01*
Y415096D01*
X1699136Y402400D02*
Y412557D01*
X1701675D01*
X1704214Y410018D01*
Y402400D01*
Y410018D01*
X1706754Y412557D01*
X1709293Y410018D01*
Y402400D01*
X1714371D02*
Y412557D01*
X1716910D01*
X1719450Y410018D01*
Y402400D01*
Y410018D01*
X1721989Y412557D01*
X1724528Y410018D01*
Y402400D01*
X1749920D02*
X1744841Y407478D01*
Y412557D01*
X1749920Y417635D01*
X1757537Y402400D02*
X1762616D01*
X1760076D01*
Y417635D01*
X1757537Y415096D01*
X1770233D02*
X1772772Y417635D01*
X1777851D01*
X1780390Y415096D01*
Y412557D01*
X1777851Y410018D01*
X1775311D01*
X1777851D01*
X1780390Y407478D01*
Y404939D01*
X1777851Y402400D01*
X1772772D01*
X1770233Y404939D01*
X1785468Y415096D02*
X1788007Y417635D01*
X1793086D01*
X1795625Y415096D01*
Y412557D01*
X1793086Y410018D01*
X1790547D01*
X1793086D01*
X1795625Y407478D01*
Y404939D01*
X1793086Y402400D01*
X1788007D01*
X1785468Y404939D01*
X1800703Y402400D02*
Y404939D01*
X1803242D01*
Y402400D01*
X1800703D01*
X1813399Y415096D02*
X1815938Y417635D01*
X1821017D01*
X1823556Y415096D01*
Y412557D01*
X1821017Y410018D01*
X1823556Y407478D01*
Y404939D01*
X1821017Y402400D01*
X1815938D01*
X1813399Y404939D01*
Y407478D01*
X1815938Y410018D01*
X1813399Y412557D01*
Y415096D01*
X1815938Y410018D02*
X1821017D01*
X1838791Y417635D02*
X1833713Y415096D01*
X1828634Y410018D01*
Y404939D01*
X1831174Y402400D01*
X1836252D01*
X1838791Y404939D01*
Y407478D01*
X1836252Y410018D01*
X1828634D01*
X1843869Y402400D02*
Y412557D01*
X1846409D01*
X1848948Y410018D01*
Y402400D01*
Y410018D01*
X1851487Y412557D01*
X1854026Y410018D01*
Y402400D01*
X1859104D02*
X1864183D01*
X1861644D01*
Y412557D01*
X1859104D01*
X1871800Y402400D02*
X1876879D01*
X1874339D01*
Y417635D01*
X1871800D01*
X1884496Y402400D02*
X1889574Y407478D01*
Y412557D01*
X1884496Y417635D01*
X1625500Y376996D02*
X1628039Y379535D01*
X1633118D01*
X1635657Y376996D01*
Y366839D01*
X1633118Y364300D01*
X1628039D01*
X1625500Y366839D01*
Y376996D01*
X1640735Y364300D02*
Y366839D01*
X1643274D01*
Y364300D01*
X1640735D01*
X1653431Y366839D02*
X1655970Y364300D01*
X1661048D01*
X1663588Y366839D01*
Y376996D01*
X1661048Y379535D01*
X1655970D01*
X1653431Y376996D01*
Y374457D01*
X1655970Y371917D01*
X1663588D01*
X1668666Y366839D02*
X1671205Y364300D01*
X1676284D01*
X1678823Y366839D01*
Y376996D01*
X1676284Y379535D01*
X1671205D01*
X1668666Y376996D01*
Y374457D01*
X1671205Y371917D01*
X1678823D01*
X1683901Y364300D02*
X1688979D01*
X1686440D01*
Y379535D01*
X1683901Y376996D01*
X1696597Y364300D02*
Y374457D01*
X1699136D01*
X1701675Y371917D01*
Y364300D01*
Y371917D01*
X1704214Y374457D01*
X1706754Y371917D01*
Y364300D01*
X1711832D02*
Y374457D01*
X1714371D01*
X1716910Y371917D01*
Y364300D01*
Y371917D01*
X1719450Y374457D01*
X1721989Y371917D01*
Y364300D01*
X1747381D02*
X1742302Y369378D01*
Y374457D01*
X1747381Y379535D01*
X1754998Y376996D02*
X1757537Y379535D01*
X1762616D01*
X1765155Y376996D01*
Y374457D01*
X1762616Y371917D01*
X1760076D01*
X1762616D01*
X1765155Y369378D01*
Y366839D01*
X1762616Y364300D01*
X1757537D01*
X1754998Y366839D01*
X1770233D02*
X1772772Y364300D01*
X1777851D01*
X1780390Y366839D01*
Y376996D01*
X1777851Y379535D01*
X1772772D01*
X1770233Y376996D01*
Y374457D01*
X1772772Y371917D01*
X1780390D01*
X1785468Y364300D02*
Y366839D01*
X1788007D01*
Y364300D01*
X1785468D01*
X1798164Y376996D02*
X1800703Y379535D01*
X1805782D01*
X1808321Y376996D01*
Y366839D01*
X1805782Y364300D01*
X1800703D01*
X1798164Y366839D01*
Y376996D01*
X1813399D02*
X1815938Y379535D01*
X1821017D01*
X1823556Y376996D01*
Y366839D01*
X1821017Y364300D01*
X1815938D01*
X1813399Y366839D01*
Y376996D01*
X1828634Y364300D02*
Y374457D01*
X1831174D01*
X1833713Y371917D01*
Y364300D01*
Y371917D01*
X1836252Y374457D01*
X1838791Y371917D01*
Y364300D01*
X1843869D02*
X1848948D01*
X1846409D01*
Y374457D01*
X1843869D01*
X1856565Y364300D02*
X1861644D01*
X1859104D01*
Y379535D01*
X1856565D01*
X1869261Y364300D02*
X1874339Y369378D01*
Y374457D01*
X1869261Y379535D01*
X1633118Y326200D02*
Y341435D01*
X1625500Y333817D01*
X1635657D01*
X1640735Y326200D02*
Y328739D01*
X1643274D01*
Y326200D01*
X1640735D01*
X1653431Y338896D02*
X1655970Y341435D01*
X1661048D01*
X1663588Y338896D01*
Y328739D01*
X1661048Y326200D01*
X1655970D01*
X1653431Y328739D01*
Y338896D01*
X1668666D02*
X1671205Y341435D01*
X1676284D01*
X1678823Y338896D01*
Y336357D01*
X1676284Y333817D01*
X1678823Y331278D01*
Y328739D01*
X1676284Y326200D01*
X1671205D01*
X1668666Y328739D01*
Y331278D01*
X1671205Y333817D01*
X1668666Y336357D01*
Y338896D01*
X1671205Y333817D02*
X1676284D01*
X1683901Y328739D02*
X1686440Y326200D01*
X1691519D01*
X1694058Y328739D01*
Y338896D01*
X1691519Y341435D01*
X1686440D01*
X1683901Y338896D01*
Y336357D01*
X1686440Y333817D01*
X1694058D01*
X1699136Y326200D02*
Y336357D01*
X1701675D01*
X1704214Y333817D01*
Y326200D01*
Y333817D01*
X1706754Y336357D01*
X1709293Y333817D01*
Y326200D01*
X1714371D02*
Y336357D01*
X1716910D01*
X1719450Y333817D01*
Y326200D01*
Y333817D01*
X1721989Y336357D01*
X1724528Y333817D01*
Y326200D01*
X1749920D02*
X1744841Y331278D01*
Y336357D01*
X1749920Y341435D01*
X1757537Y326200D02*
X1762616D01*
X1760076D01*
Y341435D01*
X1757537Y338896D01*
X1780390Y341435D02*
X1775311Y338896D01*
X1770233Y333817D01*
Y328739D01*
X1772772Y326200D01*
X1777851D01*
X1780390Y328739D01*
Y331278D01*
X1777851Y333817D01*
X1770233D01*
X1785468Y326200D02*
X1790547D01*
X1788007D01*
Y341435D01*
X1785468Y338896D01*
X1798164Y326200D02*
Y328739D01*
X1800703D01*
Y326200D01*
X1798164D01*
X1810860Y338896D02*
X1813399Y341435D01*
X1818477D01*
X1821017Y338896D01*
Y328739D01*
X1818477Y326200D01*
X1813399D01*
X1810860Y328739D01*
Y338896D01*
X1826095D02*
X1828634Y341435D01*
X1833713D01*
X1836252Y338896D01*
Y328739D01*
X1833713Y326200D01*
X1828634D01*
X1826095Y328739D01*
Y338896D01*
X1841330Y326200D02*
Y336357D01*
X1843869D01*
X1846409Y333817D01*
Y326200D01*
Y333817D01*
X1848948Y336357D01*
X1851487Y333817D01*
Y326200D01*
X1856565D02*
X1861644D01*
X1859104D01*
Y336357D01*
X1856565D01*
X1869261Y326200D02*
X1874339D01*
X1871800D01*
Y341435D01*
X1869261D01*
X1881957Y326200D02*
X1887035Y331278D01*
Y336357D01*
X1881957Y341435D01*
X1625500Y300796D02*
X1628039Y303335D01*
X1633118D01*
X1635657Y300796D01*
Y298257D01*
X1633118Y295718D01*
X1630578D01*
X1633118D01*
X1635657Y293178D01*
Y290639D01*
X1633118Y288100D01*
X1628039D01*
X1625500Y290639D01*
X1640735Y288100D02*
Y290639D01*
X1643274D01*
Y288100D01*
X1640735D01*
X1653431Y300796D02*
X1655970Y303335D01*
X1661048D01*
X1663588Y300796D01*
Y290639D01*
X1661048Y288100D01*
X1655970D01*
X1653431Y290639D01*
Y300796D01*
X1668666D02*
X1671205Y303335D01*
X1676284D01*
X1678823Y300796D01*
Y290639D01*
X1676284Y288100D01*
X1671205D01*
X1668666Y290639D01*
Y300796D01*
X1683901D02*
X1686440Y303335D01*
X1691519D01*
X1694058Y300796D01*
Y290639D01*
X1691519Y288100D01*
X1686440D01*
X1683901Y290639D01*
Y300796D01*
X1699136Y288100D02*
Y298257D01*
X1701675D01*
X1704214Y295718D01*
Y288100D01*
Y295718D01*
X1706754Y298257D01*
X1709293Y295718D01*
Y288100D01*
X1714371D02*
Y298257D01*
X1716910D01*
X1719450Y295718D01*
Y288100D01*
Y295718D01*
X1721989Y298257D01*
X1724528Y295718D01*
Y288100D01*
X1749920D02*
X1744841Y293178D01*
Y298257D01*
X1749920Y303335D01*
X1757537Y288100D02*
X1762616D01*
X1760076D01*
Y303335D01*
X1757537Y300796D01*
X1770233Y288100D02*
X1775311D01*
X1772772D01*
Y303335D01*
X1770233Y300796D01*
X1782929D02*
X1785468Y303335D01*
X1790547D01*
X1793086Y300796D01*
Y298257D01*
X1790547Y295718D01*
X1793086Y293178D01*
Y290639D01*
X1790547Y288100D01*
X1785468D01*
X1782929Y290639D01*
Y293178D01*
X1785468Y295718D01*
X1782929Y298257D01*
Y300796D01*
X1785468Y295718D02*
X1790547D01*
X1798164Y288100D02*
Y290639D01*
X1800703D01*
Y288100D01*
X1798164D01*
X1810860D02*
X1815938D01*
X1813399D01*
Y303335D01*
X1810860Y300796D01*
X1823556Y288100D02*
X1828634D01*
X1826095D01*
Y303335D01*
X1823556Y300796D01*
X1836252Y288100D02*
Y298257D01*
X1838791D01*
X1841330Y295718D01*
Y288100D01*
Y295718D01*
X1843869Y298257D01*
X1846409Y295718D01*
Y288100D01*
X1851487D02*
X1856565D01*
X1854026D01*
Y298257D01*
X1851487D01*
X1864183Y288100D02*
X1869261D01*
X1866722D01*
Y303335D01*
X1864183D01*
X1876879Y288100D02*
X1881957Y293178D01*
Y298257D01*
X1876879Y303335D01*
X1625500Y250000D02*
X1630578D01*
X1628039D01*
Y265235D01*
X1625500Y262696D01*
X1638196Y250000D02*
Y252539D01*
X1640735D01*
Y250000D01*
X1638196D01*
X1661048D02*
X1650892D01*
X1661048Y260157D01*
Y262696D01*
X1658509Y265235D01*
X1653431D01*
X1650892Y262696D01*
X1666127D02*
X1668666Y265235D01*
X1673744D01*
X1676284Y262696D01*
Y252539D01*
X1673744Y250000D01*
X1668666D01*
X1666127Y252539D01*
Y262696D01*
X1681362D02*
X1683901Y265235D01*
X1688979D01*
X1691519Y262696D01*
Y252539D01*
X1688979Y250000D01*
X1683901D01*
X1681362Y252539D01*
Y262696D01*
X1696597Y250000D02*
Y260157D01*
X1699136D01*
X1701675Y257617D01*
Y250000D01*
Y257617D01*
X1704214Y260157D01*
X1706754Y257617D01*
Y250000D01*
X1711832D02*
Y260157D01*
X1714371D01*
X1716910Y257617D01*
Y250000D01*
Y257617D01*
X1719450Y260157D01*
X1721989Y257617D01*
Y250000D01*
X1747381D02*
X1742302Y255078D01*
Y260157D01*
X1747381Y265235D01*
X1762616Y250000D02*
Y265235D01*
X1754998Y257617D01*
X1765155D01*
X1770233Y265235D02*
X1780390D01*
Y262696D01*
X1770233Y252539D01*
Y250000D01*
X1785468D02*
Y252539D01*
X1788007D01*
Y250000D01*
X1785468D01*
X1808321D02*
X1798164D01*
X1808321Y260157D01*
Y262696D01*
X1805782Y265235D01*
X1800703D01*
X1798164Y262696D01*
X1821017Y250000D02*
Y265235D01*
X1813399Y257617D01*
X1823556D01*
X1828634Y250000D02*
Y260157D01*
X1831174D01*
X1833713Y257617D01*
Y250000D01*
Y257617D01*
X1836252Y260157D01*
X1838791Y257617D01*
Y250000D01*
X1843869D02*
X1848948D01*
X1846409D01*
Y260157D01*
X1843869D01*
X1856565Y250000D02*
X1861644D01*
X1859104D01*
Y265235D01*
X1856565D01*
X1869261Y250000D02*
X1874339Y255078D01*
Y260157D01*
X1869261Y265235D01*
X1625500Y224596D02*
X1628039Y227135D01*
X1633118D01*
X1635657Y224596D01*
Y214439D01*
X1633118Y211900D01*
X1628039D01*
X1625500Y214439D01*
Y224596D01*
X1640735Y211900D02*
Y214439D01*
X1643274D01*
Y211900D01*
X1640735D01*
X1653431Y224596D02*
X1655970Y227135D01*
X1661048D01*
X1663588Y224596D01*
Y222057D01*
X1661048Y219517D01*
X1658509D01*
X1661048D01*
X1663588Y216978D01*
Y214439D01*
X1661048Y211900D01*
X1655970D01*
X1653431Y214439D01*
X1668666Y224596D02*
X1671205Y227135D01*
X1676284D01*
X1678823Y224596D01*
Y214439D01*
X1676284Y211900D01*
X1671205D01*
X1668666Y214439D01*
Y224596D01*
X1683901D02*
X1686440Y227135D01*
X1691519D01*
X1694058Y224596D01*
Y214439D01*
X1691519Y211900D01*
X1686440D01*
X1683901Y214439D01*
Y224596D01*
X1699136Y211900D02*
Y222057D01*
X1701675D01*
X1704214Y219517D01*
Y211900D01*
Y219517D01*
X1706754Y222057D01*
X1709293Y219517D01*
Y211900D01*
X1714371D02*
Y222057D01*
X1716910D01*
X1719450Y219517D01*
Y211900D01*
Y219517D01*
X1721989Y222057D01*
X1724528Y219517D01*
Y211900D01*
X1749920D02*
X1744841Y216978D01*
Y222057D01*
X1749920Y227135D01*
X1757537Y211900D02*
X1762616D01*
X1760076D01*
Y227135D01*
X1757537Y224596D01*
X1770233Y211900D02*
X1775311D01*
X1772772D01*
Y227135D01*
X1770233Y224596D01*
X1782929Y211900D02*
Y214439D01*
X1785468D01*
Y211900D01*
X1782929D01*
X1795625Y224596D02*
X1798164Y227135D01*
X1803242D01*
X1805782Y224596D01*
Y222057D01*
X1803242Y219517D01*
X1805782Y216978D01*
Y214439D01*
X1803242Y211900D01*
X1798164D01*
X1795625Y214439D01*
Y216978D01*
X1798164Y219517D01*
X1795625Y222057D01*
Y224596D01*
X1798164Y219517D02*
X1803242D01*
X1810860Y211900D02*
X1815938D01*
X1813399D01*
Y227135D01*
X1810860Y224596D01*
X1823556Y211900D02*
Y222057D01*
X1826095D01*
X1828634Y219517D01*
Y211900D01*
Y219517D01*
X1831173Y222057D01*
X1833713Y219517D01*
Y211900D01*
X1838791D02*
X1843869D01*
X1841330D01*
Y222057D01*
X1838791D01*
X1851487Y211900D02*
X1856565D01*
X1854026D01*
Y227135D01*
X1851487D01*
X1864183Y211900D02*
X1869261Y216978D01*
Y222057D01*
X1864183Y227135D01*
X1483297Y173800D02*
X1473140D01*
X1483297Y183957D01*
Y186496D01*
X1480758Y189035D01*
X1475679D01*
X1473140Y186496D01*
X1498532Y173800D02*
X1488375D01*
X1498532Y183957D01*
Y186496D01*
X1495993Y189035D01*
X1490914D01*
X1488375Y186496D01*
X1503610D02*
X1506150Y189035D01*
X1511228D01*
X1513767Y186496D01*
Y183957D01*
X1511228Y181418D01*
X1508689D01*
X1511228D01*
X1513767Y178878D01*
Y176339D01*
X1511228Y173800D01*
X1506150D01*
X1503610Y176339D01*
X1534081Y189035D02*
X1544237D01*
X1539159D01*
Y173800D01*
X1551855D02*
X1556933D01*
X1559472Y176339D01*
Y181418D01*
X1556933Y183957D01*
X1551855D01*
X1549316Y181418D01*
Y176339D01*
X1551855Y173800D01*
X1567090Y186496D02*
Y183957D01*
X1564551D01*
X1569629D01*
X1567090D01*
Y176339D01*
X1569629Y173800D01*
X1579786Y183957D02*
X1584864D01*
X1587403Y181418D01*
Y173800D01*
X1579786D01*
X1577247Y176339D01*
X1579786Y178878D01*
X1587403D01*
X1592482Y173800D02*
X1597560D01*
X1595021D01*
Y189035D01*
X1592482D01*
X1483297Y478600D02*
X1473140D01*
X1483297Y488757D01*
Y491296D01*
X1480758Y493835D01*
X1475679D01*
X1473140Y491296D01*
X1483297Y440500D02*
X1473140D01*
X1483297Y450657D01*
Y453196D01*
X1480758Y455735D01*
X1475679D01*
X1473140Y453196D01*
X1480758Y402400D02*
Y417635D01*
X1473140Y410018D01*
X1483297D01*
Y379535D02*
X1473140D01*
Y371917D01*
X1478219Y374457D01*
X1480758D01*
X1483297Y371917D01*
Y366839D01*
X1480758Y364300D01*
X1475679D01*
X1473140Y366839D01*
Y326200D02*
X1478219D01*
X1475679D01*
Y341435D01*
X1473140Y338896D01*
X1495993Y326200D02*
X1485836D01*
X1495993Y336357D01*
Y338896D01*
X1493454Y341435D01*
X1488375D01*
X1485836Y338896D01*
X1483297Y288100D02*
X1473140D01*
X1483297Y298257D01*
Y300796D01*
X1480758Y303335D01*
X1475679D01*
X1473140Y300796D01*
X1495993Y288100D02*
Y303335D01*
X1488375Y295718D01*
X1498532D01*
X1483297Y265235D02*
X1473140D01*
Y257617D01*
X1478219Y260157D01*
X1480758D01*
X1483297Y257617D01*
Y252539D01*
X1480758Y250000D01*
X1475679D01*
X1473140Y252539D01*
X1488375Y262696D02*
X1490914Y265235D01*
X1495993D01*
X1498532Y262696D01*
Y260157D01*
X1495993Y257617D01*
X1493454D01*
X1495993D01*
X1498532Y255078D01*
Y252539D01*
X1495993Y250000D01*
X1490914D01*
X1488375Y252539D01*
X1473140Y211900D02*
X1478219D01*
X1475679D01*
Y227135D01*
X1473140Y224596D01*
X1495993Y211900D02*
X1485836D01*
X1495993Y222057D01*
Y224596D01*
X1493454Y227135D01*
X1488375D01*
X1485836Y224596D01*
X1501071Y211900D02*
X1506150D01*
X1503610D01*
Y227135D01*
X1501071Y224596D01*
D54*
X1321788Y505270D02*
X3168372D01*
X1321788Y200470D02*
X3168372D01*
X1321788Y162370D02*
X3168372D01*
Y543370D01*
X1321788D02*
X3168372D01*
X1321788Y162370D02*
Y543370D01*
X2941103Y162370D02*
Y543370D01*
X2751670Y162370D02*
Y543370D01*
X2601848Y162370D02*
Y543370D01*
X2220963Y162370D02*
Y543370D01*
X2034577Y162370D02*
Y543370D01*
X1906084Y162370D02*
Y543370D01*
X1614070Y162370D02*
Y543370D01*
X1461710Y162370D02*
Y543370D01*
D55*
X2952533Y534982D02*
X2964721D01*
X2958627D01*
Y516700D01*
X2979956D02*
X2973862D01*
X2970815Y519747D01*
Y525841D01*
X2973862Y528888D01*
X2979956D01*
X2983003Y525841D01*
Y522794D01*
X2970815D01*
X2989097Y516700D02*
Y528888D01*
X2992144D01*
X2995191Y525841D01*
Y516700D01*
Y525841D01*
X2998238Y528888D01*
X3001285Y525841D01*
Y516700D01*
X3007379Y510606D02*
Y528888D01*
X3016520D01*
X3019567Y525841D01*
Y519747D01*
X3016520Y516700D01*
X3007379D01*
X3025661D02*
X3031755D01*
X3028708D01*
Y534982D01*
X3025661D01*
X3043943Y528888D02*
X3050037D01*
X3053084Y525841D01*
Y516700D01*
X3043943D01*
X3040896Y519747D01*
X3043943Y522794D01*
X3053084D01*
X3062225Y531935D02*
Y528888D01*
X3059178D01*
X3065272D01*
X3062225D01*
Y519747D01*
X3065272Y516700D01*
X3083554D02*
X3077460D01*
X3074413Y519747D01*
Y525841D01*
X3077460Y528888D01*
X3083554D01*
X3086601Y525841D01*
Y522794D01*
X3074413D01*
X2763100Y516700D02*
Y534982D01*
X2772241D01*
X2775288Y531935D01*
Y525841D01*
X2772241Y522794D01*
X2763100D01*
X2784429Y528888D02*
X2790523D01*
X2793570Y525841D01*
Y516700D01*
X2784429D01*
X2781382Y519747D01*
X2784429Y522794D01*
X2793570D01*
X2811852Y534982D02*
Y516700D01*
X2802711D01*
X2799664Y519747D01*
Y525841D01*
X2802711Y528888D01*
X2811852D01*
X2848416Y531935D02*
X2845369Y534982D01*
X2839276D01*
X2836228Y531935D01*
Y528888D01*
X2839276Y525841D01*
X2845369D01*
X2848416Y522794D01*
Y519747D01*
X2845369Y516700D01*
X2839276D01*
X2836228Y519747D01*
X2854510Y534982D02*
Y516700D01*
Y525841D01*
X2857557Y528888D01*
X2863651D01*
X2866699Y525841D01*
Y516700D01*
X2875840Y528888D02*
X2881934D01*
X2884980Y525841D01*
Y516700D01*
X2875840D01*
X2872793Y519747D01*
X2875840Y522794D01*
X2884980D01*
X2891075Y510606D02*
Y528888D01*
X2900216D01*
X2903263Y525841D01*
Y519747D01*
X2900216Y516700D01*
X2891075D01*
X2918498D02*
X2912404D01*
X2909357Y519747D01*
Y525841D01*
X2912404Y528888D01*
X2918498D01*
X2921545Y525841D01*
Y522794D01*
X2909357D01*
X2613279Y534982D02*
Y522794D01*
X2619373Y516700D01*
X2625467Y522794D01*
Y534982D01*
X2631561Y516700D02*
X2637655D01*
X2634608D01*
Y528888D01*
X2631561D01*
X2649843D02*
X2655937D01*
X2658984Y525841D01*
Y516700D01*
X2649843D01*
X2646796Y519747D01*
X2649843Y522794D01*
X2658984D01*
X2665078Y516700D02*
X2677266Y528888D01*
X2683360Y516700D02*
Y534982D01*
X2692501D01*
X2695548Y531935D01*
Y525841D01*
X2692501Y522794D01*
X2683360D01*
X2704689Y528888D02*
X2710783D01*
X2713830Y525841D01*
Y516700D01*
X2704689D01*
X2701642Y519747D01*
X2704689Y522794D01*
X2713830D01*
X2732112Y534982D02*
Y516700D01*
X2722971D01*
X2719924Y519747D01*
Y525841D01*
X2722971Y528888D01*
X2732112D01*
X2232393Y534982D02*
Y516700D01*
X2241534D01*
X2244581Y519747D01*
Y531935D01*
X2241534Y534982D01*
X2232393D01*
X2250675Y528888D02*
Y516700D01*
Y522794D01*
X2253722Y525841D01*
X2256769Y528888D01*
X2259816D01*
X2268957Y516700D02*
X2275051D01*
X2272004D01*
Y528888D01*
X2268957D01*
X2284192Y516700D02*
X2290286D01*
X2287239D01*
Y534982D01*
X2284192D01*
X2299427Y516700D02*
X2305521D01*
X2302474D01*
Y534982D01*
X2299427D01*
X2332944D02*
Y516700D01*
X2345132D01*
X2354273Y528888D02*
X2360367D01*
X2363414Y525841D01*
Y516700D01*
X2354273D01*
X2351226Y519747D01*
X2354273Y522794D01*
X2363414D01*
X2369508Y528888D02*
Y519747D01*
X2372555Y516700D01*
X2381696D01*
Y513653D01*
X2378649Y510606D01*
X2375602D01*
X2381696Y516700D02*
Y528888D01*
X2396931Y516700D02*
X2390837D01*
X2387790Y519747D01*
Y525841D01*
X2390837Y528888D01*
X2396931D01*
X2399978Y525841D01*
Y522794D01*
X2387790D01*
X2406073Y528888D02*
Y516700D01*
Y522794D01*
X2409120Y525841D01*
X2412166Y528888D01*
X2415213D01*
X2442637Y516700D02*
Y534982D01*
X2451778D01*
X2454825Y531935D01*
Y525841D01*
X2451778Y522794D01*
X2442637D01*
X2463966Y528888D02*
X2470060D01*
X2473107Y525841D01*
Y516700D01*
X2463966D01*
X2460919Y519747D01*
X2463966Y522794D01*
X2473107D01*
X2479201Y516700D02*
X2485295D01*
X2482248D01*
Y528888D01*
X2479201D01*
X2494436D02*
Y516700D01*
Y522794D01*
X2497483Y525841D01*
X2500530Y528888D01*
X2503577D01*
X2046007Y534982D02*
Y516700D01*
Y525841D01*
X2058195D01*
Y534982D01*
Y516700D01*
X2067336D02*
X2073430D01*
X2076477Y519747D01*
Y525841D01*
X2073430Y528888D01*
X2067336D01*
X2064289Y525841D01*
Y519747D01*
X2067336Y516700D01*
X2082571D02*
X2088665D01*
X2085618D01*
Y534982D01*
X2082571D01*
X2106947Y516700D02*
X2100853D01*
X2097806Y519747D01*
Y525841D01*
X2100853Y528888D01*
X2106947D01*
X2109994Y525841D01*
Y522794D01*
X2097806D01*
X2134370Y534982D02*
X2146558D01*
X2140464D01*
Y516700D01*
X2152652Y528888D02*
Y519747D01*
X2155699Y516700D01*
X2164841D01*
Y513653D01*
X2161794Y510606D01*
X2158746D01*
X2164841Y516700D02*
Y528888D01*
X2170934Y510606D02*
Y528888D01*
X2180076D01*
X2183123Y525841D01*
Y519747D01*
X2180076Y516700D01*
X2170934D01*
X2198358D02*
X2192264D01*
X2189217Y519747D01*
Y525841D01*
X2192264Y528888D01*
X2198358D01*
X2201405Y525841D01*
Y522794D01*
X2189217D01*
X1917514Y516700D02*
Y534982D01*
X1926656D01*
X1929703Y531935D01*
Y525841D01*
X1926656Y522794D01*
X1917514D01*
X1935797Y516700D02*
X1941891D01*
X1938844D01*
Y534982D01*
X1935797D01*
X1954079Y528888D02*
X1960173D01*
X1963220Y525841D01*
Y516700D01*
X1954079D01*
X1951032Y519747D01*
X1954079Y522794D01*
X1963220D01*
X1972361Y531935D02*
Y528888D01*
X1969314D01*
X1975408D01*
X1972361D01*
Y519747D01*
X1975408Y516700D01*
X1993690D02*
X1987596D01*
X1984549Y519747D01*
Y525841D01*
X1987596Y528888D01*
X1993690D01*
X1996737Y525841D01*
Y522794D01*
X1984549D01*
X2015019Y534982D02*
Y516700D01*
X2005878D01*
X2002831Y519747D01*
Y525841D01*
X2005878Y528888D01*
X2015019D01*
X1625500Y534982D02*
Y516700D01*
Y525841D01*
X1637688D01*
Y534982D01*
Y516700D01*
X1646829D02*
X1652923D01*
X1655970Y519747D01*
Y525841D01*
X1652923Y528888D01*
X1646829D01*
X1643782Y525841D01*
Y519747D01*
X1646829Y516700D01*
X1662064D02*
X1668158D01*
X1665111D01*
Y534982D01*
X1662064D01*
X1686440Y516700D02*
X1680346D01*
X1677299Y519747D01*
Y525841D01*
X1680346Y528888D01*
X1686440D01*
X1689487Y525841D01*
Y522794D01*
X1677299D01*
X1726051Y531935D02*
X1723004Y534982D01*
X1716910D01*
X1713863Y531935D01*
Y528888D01*
X1716910Y525841D01*
X1723004D01*
X1726051Y522794D01*
Y519747D01*
X1723004Y516700D01*
X1716910D01*
X1713863Y519747D01*
X1732146Y516700D02*
X1738239D01*
X1735193D01*
Y528888D01*
X1732146D01*
X1747381D02*
X1759569D01*
X1747381Y516700D01*
X1759569D01*
X1774804D02*
X1768710D01*
X1765663Y519747D01*
Y525841D01*
X1768710Y528888D01*
X1774804D01*
X1777851Y525841D01*
Y522794D01*
X1765663D01*
X1485328Y531935D02*
X1482281Y534982D01*
X1476187D01*
X1473140Y531935D01*
Y519747D01*
X1476187Y516700D01*
X1482281D01*
X1485328Y519747D01*
X1494469Y516700D02*
X1500563D01*
X1503610Y519747D01*
Y525841D01*
X1500563Y528888D01*
X1494469D01*
X1491422Y525841D01*
Y519747D01*
X1494469Y516700D01*
X1509704Y528888D02*
Y519747D01*
X1512751Y516700D01*
X1521893D01*
Y528888D01*
X1527986Y516700D02*
Y528888D01*
X1537128D01*
X1540175Y525841D01*
Y516700D01*
X1549316Y531935D02*
Y528888D01*
X1546269D01*
X1552363D01*
X1549316D01*
Y519747D01*
X1552363Y516700D01*
X1356836Y531935D02*
X1353789Y534982D01*
X1347695D01*
X1344648Y531935D01*
Y528888D01*
X1347695Y525841D01*
X1353789D01*
X1356836Y522794D01*
Y519747D01*
X1353789Y516700D01*
X1347695D01*
X1344648Y519747D01*
X1362930Y528888D02*
Y519747D01*
X1365977Y516700D01*
X1375118D01*
Y513653D01*
X1372071Y510606D01*
X1369024D01*
X1375118Y516700D02*
Y528888D01*
X1381212Y516700D02*
Y528888D01*
X1384259D01*
X1387306Y525841D01*
Y516700D01*
Y525841D01*
X1390353Y528888D01*
X1393400Y525841D01*
Y516700D01*
X1399494Y534982D02*
Y516700D01*
X1408635D01*
X1411682Y519747D01*
Y522794D01*
Y525841D01*
X1408635Y528888D01*
X1399494D01*
X1420823Y516700D02*
X1426917D01*
X1429964Y519747D01*
Y525841D01*
X1426917Y528888D01*
X1420823D01*
X1417776Y525841D01*
Y519747D01*
X1420823Y516700D01*
X1436058D02*
X1442152D01*
X1439105D01*
Y534982D01*
X1436058D01*
M02*
