G04*
G04 #@! TF.GenerationSoftware,Altium Limited,Altium Designer,26.5.0 (11)*
G04*
G04 Layer_Physical_Order=1*
G04 Layer_Color=255*
G04 Board_Origin=73230399|66045281*
%FSLAX44Y44*%
%MOMM*%
G71*
G04*
G04 #@! TF.SameCoordinates,D8E93972-0857-4CFD-BA1B-23267FE283D4*
G04*
G04*
G04 #@! TF.FilePolarity,Positive*
G04*
G01*
G75*
%ADD18R,1.3000X1.2000*%
%ADD19R,0.8000X0.9000*%
G04:AMPARAMS|DCode=20|XSize=1.5mm|YSize=1.22mm|CornerRadius=0.1525mm|HoleSize=0mm|Usage=FLASHONLY|Rotation=90.000|XOffset=0mm|YOffset=0mm|HoleType=Round|Shape=RoundedRectangle|*
%AMROUNDEDRECTD20*
21,1,1.5000,0.9150,0,0,90.0*
21,1,1.1950,1.2200,0,0,90.0*
1,1,0.3050,0.4575,0.5975*
1,1,0.3050,0.4575,-0.5975*
1,1,0.3050,-0.4575,-0.5975*
1,1,0.3050,-0.4575,0.5975*
%
%ADD20ROUNDEDRECTD20*%
%ADD21R,1.5000X2.0000*%
%ADD22R,1.2000X1.3000*%
%ADD32C,1.4986*%
%ADD34C,0.2540*%
%ADD35C,4.0894*%
%ADD36C,3.0000*%
%ADD37R,1.5080X2.0000*%
%ADD38C,3.0988*%
%ADD39C,1.4080*%
%ADD40C,0.6000*%
G36*
X958108Y842645D02*
X962108Y842645D01*
X962108Y842645D01*
X962108Y842645D01*
X965994Y842370D01*
X966843Y842303D01*
X971461Y841195D01*
X975849Y839377D01*
X979898Y836896D01*
X983509Y833811D01*
X986594Y830200D01*
X989075Y826151D01*
X990893Y821763D01*
X992001Y817145D01*
X992068Y816296D01*
X992343Y812410D01*
X992343Y812410D01*
X992343Y812409D01*
Y38010D01*
X992363Y37859D01*
X992001Y33259D01*
X990888Y28626D01*
X989064Y24223D01*
X986575Y20160D01*
X983480Y16537D01*
X979856Y13442D01*
X975793Y10952D01*
X971391Y9129D01*
X966757Y8016D01*
X962158Y7654D01*
X962007Y7674D01*
X310198D01*
Y27610D01*
X310198Y31290D01*
X310198Y35290D01*
Y53010D01*
X310198Y56690D01*
X310198Y60690D01*
Y78410D01*
X310198Y82090D01*
X310198Y86090D01*
Y103810D01*
X310198Y107490D01*
X310198Y111490D01*
Y129210D01*
X310198Y132890D01*
X310198D01*
Y133210D01*
X310198D01*
Y158290D01*
X310198D01*
Y158610D01*
X310198D01*
Y180010D01*
X310198Y183690D01*
X310198Y187690D01*
Y205410D01*
X310198Y209090D01*
X310198Y213090D01*
Y234490D01*
X310198D01*
Y234810D01*
X310198D01*
Y259890D01*
X310198D01*
Y260210D01*
X310198D01*
Y281610D01*
X310198Y285290D01*
X310198D01*
Y285610D01*
X310198D01*
Y307010D01*
X310198Y310690D01*
X310198D01*
Y311010D01*
X310198D01*
Y336090D01*
X310198D01*
Y336410D01*
X310198D01*
Y357810D01*
X310198Y361490D01*
X310198D01*
Y361810D01*
X310198D01*
Y383210D01*
X310198Y386890D01*
X310198D01*
Y387210D01*
X310846Y389649D01*
X314861Y390980D01*
X320950Y384891D01*
Y107665D01*
X321246Y106179D01*
X322088Y104918D01*
X358253Y68753D01*
X359513Y67911D01*
X361000Y67615D01*
X362554D01*
X364966Y63615D01*
X364960Y63602D01*
Y61398D01*
X365803Y59362D01*
X367362Y57803D01*
X369398Y56960D01*
X371602D01*
X373638Y57803D01*
X375197Y59362D01*
X376040Y61398D01*
Y63602D01*
X375197Y65638D01*
X373960Y66875D01*
X375447Y68362D01*
X376290Y70398D01*
Y72602D01*
X375447Y74638D01*
X373888Y76197D01*
X371852Y77040D01*
X369648D01*
X367612Y76197D01*
X366800Y75385D01*
X362609D01*
X328719Y109274D01*
Y386500D01*
X328424Y387986D01*
X327582Y389247D01*
X314332Y402497D01*
X313072Y403339D01*
X311585Y403634D01*
X310198D01*
Y412290D01*
X310198D01*
Y412610D01*
X310198D01*
Y437690D01*
X310198D01*
Y438010D01*
X310198D01*
Y463090D01*
X310198Y463090D01*
Y463310D01*
X310198D01*
X310198Y467090D01*
Y484810D01*
X310198Y488390D01*
X310198Y492390D01*
Y513890D01*
X277418D01*
Y492490D01*
X277418Y488810D01*
X277418Y484810D01*
Y475200D01*
X273722Y473669D01*
X268064Y479328D01*
X266804Y480170D01*
X265317Y480465D01*
X261988D01*
Y485041D01*
X261988Y485121D01*
Y489041D01*
X261988Y489121D01*
Y506121D01*
X256970D01*
Y519550D01*
X257782Y520362D01*
X258625Y522398D01*
Y524602D01*
X257782Y526638D01*
X256223Y528197D01*
X254187Y529040D01*
X251983D01*
X249947Y528197D01*
X248388Y526638D01*
X247545Y524602D01*
Y522398D01*
X248388Y520362D01*
X249200Y519550D01*
Y508366D01*
X245200Y506364D01*
X242488Y507120D01*
X240322Y507120D01*
X225488D01*
X225408Y507120D01*
X221488D01*
X221408Y507120D01*
X204408D01*
Y504749D01*
X203678Y503998D01*
X200408Y502406D01*
X199602Y502739D01*
X197398D01*
X195362Y501896D01*
X193803Y500338D01*
X192960Y498302D01*
Y496098D01*
X193803Y494061D01*
X195362Y492503D01*
X197398Y491660D01*
X199602D01*
X200408Y491993D01*
X203678Y490401D01*
X204408Y489650D01*
Y486327D01*
X204408Y484853D01*
X203678Y484102D01*
X200408Y482510D01*
X199602Y482844D01*
X197398D01*
X195362Y482000D01*
X193803Y480442D01*
X192960Y478406D01*
Y476202D01*
X193803Y474166D01*
X195362Y472607D01*
X197398Y471764D01*
X199602D01*
X200408Y472098D01*
X203678Y470506D01*
X204408Y469754D01*
X204408Y468247D01*
Y464957D01*
X203678Y464206D01*
X200408Y462614D01*
X199602Y462948D01*
X197398D01*
X195362Y462104D01*
X193803Y460546D01*
X192960Y458510D01*
Y456306D01*
X193803Y454270D01*
X195362Y452711D01*
X197398Y451868D01*
X199602D01*
X200408Y452202D01*
X203678Y450610D01*
X204408Y449859D01*
X204408Y447453D01*
Y443834D01*
X200448Y442137D01*
X198412Y442980D01*
X196208D01*
X194172Y442137D01*
X192613Y440578D01*
X191770Y438542D01*
Y436338D01*
X192613Y434302D01*
X194172Y432744D01*
X196208Y431900D01*
X198412D01*
X199534Y432365D01*
X204408D01*
Y427946D01*
X204408Y426660D01*
Y423299D01*
X203678Y422548D01*
X200408Y420956D01*
X199602Y421290D01*
X197398D01*
X195362Y420447D01*
X193803Y418888D01*
X192960Y416852D01*
Y414648D01*
X193803Y412612D01*
X195362Y411053D01*
X197398Y410210D01*
X199602D01*
X200408Y410544D01*
X203678Y408952D01*
X204408Y408201D01*
X204408Y403153D01*
X200408Y402927D01*
X199602Y403260D01*
X197398D01*
X195362Y402417D01*
X193803Y400859D01*
X192960Y398822D01*
Y396618D01*
X193803Y394582D01*
X195362Y393024D01*
X197398Y392180D01*
X199482D01*
X200297Y391366D01*
X201557Y390524D01*
X203044Y390228D01*
X204408D01*
X204408Y385471D01*
X201458Y382873D01*
X200677Y383009D01*
X199449Y383518D01*
X197245D01*
X195209Y382674D01*
X193650Y381116D01*
X192807Y379080D01*
Y376876D01*
X193650Y374840D01*
X195209Y373281D01*
X197245Y372438D01*
X198526D01*
X200391Y370573D01*
X201651Y369731D01*
X203138Y369435D01*
X204408Y368165D01*
X204408Y364280D01*
X204408Y360549D01*
X203678Y359798D01*
X200408Y358206D01*
X199602Y358540D01*
X197398D01*
X195362Y357697D01*
X193803Y356138D01*
X192960Y354102D01*
Y351898D01*
X193803Y349862D01*
X195362Y348303D01*
X197398Y347460D01*
X199602D01*
X200408Y347794D01*
X203678Y346202D01*
X204408Y345451D01*
X204408Y342129D01*
X204408Y338648D01*
X200536Y337190D01*
X198500Y338033D01*
X196296D01*
X194260Y337190D01*
X192701Y335631D01*
X191858Y333595D01*
Y331391D01*
X192701Y329355D01*
X194260Y327796D01*
X196296Y326953D01*
X198500D01*
X200536Y327796D01*
X204408Y326338D01*
X204408Y321336D01*
X204408Y317653D01*
X204023Y317202D01*
X200408Y315310D01*
X199852Y315540D01*
X197648D01*
X195612Y314697D01*
X194053Y313138D01*
X193210Y311102D01*
Y308898D01*
X194053Y306862D01*
X195612Y305303D01*
X197648Y304460D01*
X199852D01*
X200408Y304690D01*
X204023Y302798D01*
X204408Y302347D01*
Y299186D01*
X204408Y297899D01*
Y296403D01*
X204023Y295952D01*
X200408Y294060D01*
X199852Y294290D01*
X197648D01*
X195612Y293447D01*
X194053Y291888D01*
X193210Y289852D01*
Y287648D01*
X194053Y285612D01*
X195612Y284053D01*
X197648Y283210D01*
X199276D01*
X202742Y280575D01*
X202756Y280562D01*
X202752Y280513D01*
X198644Y278286D01*
X198500Y278346D01*
X196296D01*
X194260Y277502D01*
X192701Y275944D01*
X191858Y273908D01*
Y271703D01*
X192701Y269667D01*
X194260Y268109D01*
X196296Y267265D01*
X197444D01*
X198104Y266605D01*
X199365Y265763D01*
X200851Y265468D01*
X204408D01*
X204408Y257599D01*
X200408Y256669D01*
X200191Y256759D01*
X197987D01*
X195950Y255916D01*
X194392Y254357D01*
X193549Y252321D01*
Y250117D01*
X194392Y248081D01*
X195950Y246523D01*
X197987Y245679D01*
X200191D01*
X200233Y245697D01*
X200952Y245216D01*
X202439Y244920D01*
X204408D01*
X204408Y236805D01*
X204408Y234724D01*
X204046Y234296D01*
X200408Y232381D01*
X199871Y232604D01*
X197667D01*
X195631Y231760D01*
X194073Y230202D01*
X193229Y228166D01*
Y225962D01*
X194073Y223925D01*
X195631Y222367D01*
X197667Y221524D01*
X199871D01*
X200408Y221746D01*
X204046Y219832D01*
X204408Y219403D01*
Y216012D01*
X204408Y214725D01*
Y213276D01*
X200457Y212009D01*
X198421Y212853D01*
X196217D01*
X194181Y212009D01*
X192622Y210451D01*
X191779Y208414D01*
Y206211D01*
X192622Y204174D01*
X194181Y202616D01*
X196217Y201773D01*
X198421D01*
X200457Y202616D01*
X204408Y201349D01*
X204408Y195218D01*
X204408Y193932D01*
Y187126D01*
X203139Y186874D01*
X201879Y186032D01*
X199005Y183158D01*
X198647D01*
X196611Y182314D01*
X195052Y180756D01*
X194209Y178720D01*
Y176516D01*
X195052Y174480D01*
X195720Y173812D01*
X195757Y173571D01*
X195181Y170101D01*
X194853Y169453D01*
X194260Y169207D01*
X192701Y167649D01*
X191858Y165613D01*
Y163409D01*
X192701Y161372D01*
X194260Y159814D01*
X196296Y158971D01*
X198500D01*
X200536Y159814D01*
X204408Y158356D01*
X204408Y154988D01*
X204408Y151195D01*
X200536Y149737D01*
X198500Y150580D01*
X196296D01*
X194260Y149737D01*
X192701Y148178D01*
X191858Y146142D01*
Y143938D01*
X192701Y141902D01*
X194260Y140343D01*
X196296Y139500D01*
X198500D01*
X200536Y140343D01*
X204408Y138885D01*
X204408Y132838D01*
X204408Y131552D01*
Y130299D01*
X203678Y129548D01*
X200408Y127956D01*
X199602Y128290D01*
X197398D01*
X195362Y127447D01*
X193803Y125888D01*
X192960Y123852D01*
Y121648D01*
X193803Y119612D01*
X195362Y118053D01*
X197398Y117210D01*
X199602D01*
X200408Y117544D01*
X203678Y115952D01*
X204408Y115201D01*
Y112045D01*
X204408Y110049D01*
X203678Y109298D01*
X200408Y107706D01*
X199602Y108040D01*
X197398D01*
X195362Y107197D01*
X193803Y105638D01*
X192960Y103602D01*
Y101398D01*
X193803Y99362D01*
X195362Y97803D01*
X197398Y96960D01*
X199602D01*
X200408Y97294D01*
X203678Y95702D01*
X204408Y94951D01*
X204408Y91251D01*
X204408Y89549D01*
X203678Y88798D01*
X200408Y87206D01*
X199602Y87540D01*
X197398D01*
X195362Y86697D01*
X193803Y85138D01*
X192960Y83102D01*
Y80898D01*
X193803Y78862D01*
X195362Y77303D01*
X197398Y76460D01*
X199602D01*
X200408Y76794D01*
X203678Y75202D01*
X204408Y74451D01*
X204408Y70458D01*
X204408Y69171D01*
Y67041D01*
X203678Y66290D01*
X200408Y64698D01*
X199602Y65031D01*
X197398D01*
X195362Y64188D01*
X193803Y62630D01*
X192960Y60594D01*
Y58390D01*
X193803Y56353D01*
X195362Y54795D01*
X197398Y53952D01*
X199602D01*
X200408Y54285D01*
X204408Y52378D01*
X204408Y47145D01*
X203678Y46394D01*
X200408Y44802D01*
X199602Y45136D01*
X197398D01*
X195362Y44292D01*
X193803Y42734D01*
X192960Y40698D01*
Y38494D01*
X193803Y36458D01*
X195362Y34899D01*
X197398Y34056D01*
X199602D01*
X200408Y34390D01*
X203678Y32798D01*
X204408Y32046D01*
Y28871D01*
X204408Y27249D01*
X203678Y26498D01*
X200408Y24906D01*
X199602Y25240D01*
X197398D01*
X195362Y24396D01*
X193803Y22838D01*
X192960Y20802D01*
Y18598D01*
X193803Y16562D01*
X195362Y15003D01*
X197398Y14160D01*
X199602D01*
X202680Y11539D01*
X202690Y11502D01*
X199847Y7674D01*
X32329D01*
X32078Y7641D01*
X27484Y8094D01*
X22826Y9507D01*
X18532Y11802D01*
X14769Y14890D01*
X11681Y18653D01*
X9386Y22946D01*
X7973Y27605D01*
X7876Y28584D01*
X7553Y32450D01*
X7553Y36450D01*
X7553Y812450D01*
X7533Y812598D01*
X7894Y817178D01*
X9001Y821790D01*
X10816Y826172D01*
X13294Y830216D01*
X16375Y833823D01*
X19981Y836903D01*
X24025Y839381D01*
X28407Y841197D01*
X33019Y842304D01*
X33862Y842370D01*
X37748Y842645D01*
X37748Y842645D01*
X958108Y842645D01*
D02*
G37*
%LPC*%
G36*
X667924Y809385D02*
X383523D01*
X382037Y809089D01*
X380776Y808247D01*
X339978Y767449D01*
X339136Y766189D01*
X338997Y765491D01*
X337546Y764040D01*
X336398D01*
X334362Y763197D01*
X332803Y761638D01*
X331960Y759602D01*
Y757398D01*
X332803Y755362D01*
X334362Y753803D01*
X336398Y752960D01*
X338602D01*
X340638Y753803D01*
X342197Y755362D01*
X343040Y757398D01*
Y758546D01*
X345472Y760978D01*
X346314Y762238D01*
X346453Y762936D01*
X385132Y801615D01*
X666315D01*
X668604Y799326D01*
Y798178D01*
X669447Y796142D01*
X671006Y794583D01*
X673042Y793740D01*
X675246D01*
X677282Y794583D01*
X678841Y796142D01*
X679684Y798178D01*
Y800382D01*
X678841Y802418D01*
X677282Y803976D01*
X675246Y804820D01*
X674098D01*
X670671Y808247D01*
X669410Y809089D01*
X667924Y809385D01*
D02*
G37*
G36*
X846000Y825635D02*
X372369D01*
X370882Y825339D01*
X369622Y824497D01*
X326661Y781537D01*
X325513D01*
X323477Y780693D01*
X321918Y779135D01*
X321075Y777098D01*
Y774895D01*
X321918Y772858D01*
X323477Y771300D01*
X325513Y770457D01*
X327717D01*
X329753Y771300D01*
X331312Y772858D01*
X332155Y774895D01*
Y776043D01*
X373978Y817865D01*
X844391D01*
X863710Y798546D01*
Y797398D01*
X864553Y795362D01*
X866112Y793803D01*
X868148Y792960D01*
X870352D01*
X872388Y793803D01*
X873947Y795362D01*
X874790Y797398D01*
Y799602D01*
X873947Y801638D01*
X872388Y803197D01*
X870352Y804040D01*
X869204D01*
X848747Y824497D01*
X847487Y825339D01*
X846000Y825635D01*
D02*
G37*
G36*
X960788Y834575D02*
X956120Y834115D01*
X951632Y832754D01*
X947496Y830543D01*
X943870Y827568D01*
X940895Y823942D01*
X938684Y819806D01*
X937322Y815317D01*
X936863Y810650D01*
X937322Y805982D01*
X938684Y801494D01*
X940895Y797358D01*
X943870Y793732D01*
X947496Y790757D01*
X951632Y788546D01*
X956120Y787184D01*
X960788Y786725D01*
X965455Y787184D01*
X969944Y788546D01*
X974080Y790757D01*
X977706Y793732D01*
X980681Y797358D01*
X982892Y801494D01*
X984253Y805982D01*
X984713Y810650D01*
X984253Y815317D01*
X982892Y819806D01*
X980681Y823942D01*
X977706Y827568D01*
X974080Y830543D01*
X969944Y832754D01*
X965455Y834115D01*
X960788Y834575D01*
D02*
G37*
G36*
X39388D02*
X34720Y834115D01*
X30232Y832754D01*
X26096Y830543D01*
X22470Y827568D01*
X19495Y823942D01*
X17284Y819806D01*
X15922Y815317D01*
X15463Y810650D01*
X15922Y805982D01*
X17284Y801494D01*
X19495Y797358D01*
X22470Y793732D01*
X26096Y790757D01*
X30232Y788546D01*
X34720Y787184D01*
X39388Y786725D01*
X44055Y787184D01*
X48544Y788546D01*
X52680Y790757D01*
X56306Y793732D01*
X59281Y797358D01*
X61492Y801494D01*
X62853Y805982D01*
X63313Y810650D01*
X62853Y815317D01*
X61492Y819806D01*
X59281Y823942D01*
X56306Y827568D01*
X52680Y830543D01*
X48544Y832754D01*
X44055Y834115D01*
X39388Y834575D01*
D02*
G37*
G36*
X481852Y797290D02*
X479648D01*
X477612Y796447D01*
X476800Y795635D01*
X394000D01*
X392513Y795339D01*
X391253Y794497D01*
X350046Y753290D01*
X348898D01*
X346862Y752447D01*
X345303Y750888D01*
X344460Y748852D01*
Y746648D01*
X345303Y744612D01*
X346862Y743053D01*
X348898Y742210D01*
X351102D01*
X353138Y743053D01*
X354697Y744612D01*
X355540Y746648D01*
Y747796D01*
X395609Y787865D01*
X476800D01*
X477612Y787053D01*
X479648Y786210D01*
X481852D01*
X483888Y787053D01*
X485447Y788612D01*
X486290Y790648D01*
Y792852D01*
X485447Y794888D01*
X483888Y796447D01*
X481852Y797290D01*
D02*
G37*
G36*
X210518Y770408D02*
X207877D01*
X205325Y769724D01*
X203037Y768403D01*
X201169Y766535D01*
X199848Y764248D01*
X199165Y761696D01*
Y759054D01*
X199848Y756502D01*
X201169Y754215D01*
X203037Y752347D01*
X205325Y751026D01*
X207877Y750342D01*
X210518D01*
X213070Y751026D01*
X215358Y752347D01*
X217226Y754215D01*
X218547Y756502D01*
X219231Y759054D01*
Y761696D01*
X218547Y764248D01*
X217226Y766535D01*
X215358Y768403D01*
X213070Y769724D01*
X210518Y770408D01*
D02*
G37*
G36*
X872187Y779536D02*
X867940Y779118D01*
X863856Y777879D01*
X860093Y775867D01*
X856794Y773160D01*
X854086Y769861D01*
X852074Y766097D01*
X850836Y762013D01*
X850417Y757766D01*
X850836Y753519D01*
X851493Y751351D01*
X851235Y750563D01*
X848943Y747875D01*
X848535Y747672D01*
X845687Y747896D01*
X841131Y747537D01*
X836686Y746470D01*
X832463Y744721D01*
X828565Y742333D01*
X825090Y739364D01*
X822121Y735888D01*
X819733Y731991D01*
X817983Y727768D01*
X817788Y726952D01*
X813788Y727426D01*
Y733950D01*
X813590Y734941D01*
X813029Y735781D01*
X812189Y736342D01*
X811198Y736540D01*
X780698D01*
X779707Y736342D01*
X778867Y735781D01*
X778305Y734941D01*
X778108Y733950D01*
Y714387D01*
X760757D01*
Y697307D01*
X761647D01*
X764960Y694852D01*
Y692648D01*
X765803Y690612D01*
X767362Y689053D01*
X769398Y688210D01*
X771602D01*
X773638Y689053D01*
X775197Y690612D01*
X776040Y692648D01*
Y694852D01*
X778332Y696864D01*
X779171Y697211D01*
X779707Y697057D01*
X780698Y696860D01*
X811198D01*
X812189Y697057D01*
X813029Y697619D01*
X813590Y698459D01*
X813788Y699450D01*
Y710106D01*
X817788Y710580D01*
X817983Y709764D01*
X819733Y705541D01*
X822121Y701644D01*
X825090Y698168D01*
X828565Y695200D01*
X832463Y692811D01*
X836686Y691062D01*
X841131Y689995D01*
X845687Y689636D01*
X850244Y689995D01*
X854689Y691062D01*
X858912Y692811D01*
X862810Y695200D01*
X866285Y698168D01*
X869254Y701644D01*
X871642Y705541D01*
X873391Y709764D01*
X874459Y714209D01*
X874817Y718766D01*
X874459Y723323D01*
X873391Y727768D01*
X871642Y731991D01*
X871617Y732033D01*
X871741Y732898D01*
X873783Y736153D01*
X876435Y736414D01*
X880518Y737653D01*
X884282Y739665D01*
X887581Y742372D01*
X890289Y745671D01*
X892300Y749435D01*
X893539Y753519D01*
X893958Y757766D01*
X893539Y762013D01*
X892300Y766097D01*
X890289Y769861D01*
X887581Y773160D01*
X884282Y775867D01*
X880518Y777879D01*
X876435Y779118D01*
X872187Y779536D01*
D02*
G37*
G36*
X483387Y779256D02*
X479140Y778838D01*
X475056Y777599D01*
X471293Y775587D01*
X467994Y772880D01*
X465286Y769581D01*
X463274Y765817D01*
X462036Y761733D01*
X461617Y757486D01*
X462036Y753239D01*
X462693Y751071D01*
X462435Y750283D01*
X460143Y747595D01*
X459735Y747392D01*
X456887Y747616D01*
X452331Y747257D01*
X447886Y746190D01*
X443663Y744441D01*
X439765Y742053D01*
X436290Y739084D01*
X433321Y735608D01*
X430933Y731711D01*
X429183Y727488D01*
X429175Y727451D01*
X425175Y727925D01*
Y734000D01*
X424977Y734991D01*
X424416Y735831D01*
X423576Y736393D01*
X422585Y736590D01*
X392085D01*
X391094Y736393D01*
X390254Y735831D01*
X389692Y734991D01*
X389495Y734000D01*
Y713290D01*
X372795D01*
Y696210D01*
X372795D01*
X375917Y694117D01*
Y691913D01*
X376760Y689877D01*
X378319Y688319D01*
X380355Y687475D01*
X382559D01*
X384595Y688319D01*
X386153Y689877D01*
X386997Y691913D01*
Y694117D01*
X387593Y694477D01*
X390875Y696210D01*
X394585Y696910D01*
X422585D01*
X423576Y697107D01*
X424416Y697669D01*
X424977Y698509D01*
X425175Y699500D01*
Y709047D01*
X429175Y709521D01*
X429183Y709484D01*
X430933Y705261D01*
X433321Y701364D01*
X436290Y697888D01*
X439765Y694920D01*
X443663Y692531D01*
X447886Y690782D01*
X452331Y689715D01*
X456887Y689356D01*
X461444Y689715D01*
X465889Y690782D01*
X470112Y692531D01*
X474010Y694920D01*
X477485Y697888D01*
X480454Y701364D01*
X482842Y705261D01*
X484591Y709484D01*
X485659Y713929D01*
X486017Y718486D01*
X485659Y723043D01*
X484591Y727488D01*
X482842Y731711D01*
X482817Y731753D01*
X482941Y732618D01*
X484983Y735873D01*
X487635Y736134D01*
X491718Y737373D01*
X495482Y739385D01*
X498781Y742092D01*
X501489Y745391D01*
X503500Y749155D01*
X504739Y753239D01*
X505158Y757486D01*
X504739Y761733D01*
X503500Y765817D01*
X501489Y769581D01*
X498781Y772880D01*
X495482Y775587D01*
X491718Y777599D01*
X487635Y778838D01*
X483387Y779256D01*
D02*
G37*
G36*
X677490Y779684D02*
X673243Y779266D01*
X669159Y778027D01*
X665396Y776015D01*
X662096Y773308D01*
X659389Y770009D01*
X657377Y766245D01*
X656139Y762161D01*
X655720Y757914D01*
X656139Y753667D01*
X657133Y750390D01*
X656269Y748559D01*
X654342Y746777D01*
X650990Y747041D01*
X646590Y746694D01*
X642299Y745664D01*
X638221Y743975D01*
X634458Y741669D01*
X631102Y738803D01*
X628235Y735447D01*
X625929Y731683D01*
X624240Y727606D01*
X623210Y723314D01*
X623175Y722866D01*
X619175Y723023D01*
Y734000D01*
X618978Y734991D01*
X618416Y735831D01*
X617576Y736393D01*
X616585Y736590D01*
X586085D01*
X585094Y736393D01*
X584254Y735831D01*
X583692Y734991D01*
X583495Y734000D01*
Y715290D01*
X566545D01*
Y698210D01*
X567045D01*
X570503Y696106D01*
Y693902D01*
X571347Y691866D01*
X572905Y690307D01*
X574941Y689464D01*
X577145D01*
X579181Y690307D01*
X580740Y691866D01*
X581583Y693902D01*
Y695008D01*
X581596Y695021D01*
X584840Y696956D01*
X585279Y697071D01*
X586085Y696910D01*
X616585D01*
X617576Y697107D01*
X618416Y697669D01*
X618978Y698509D01*
X619175Y699500D01*
Y714806D01*
X623175Y714963D01*
X623210Y714514D01*
X624240Y710222D01*
X625929Y706145D01*
X628235Y702382D01*
X631102Y699025D01*
X634458Y696159D01*
X638221Y693853D01*
X642299Y692164D01*
X646590Y691134D01*
X650990Y690787D01*
X655390Y691134D01*
X659682Y692164D01*
X663760Y693853D01*
X667523Y696159D01*
X670879Y699025D01*
X673745Y702382D01*
X676051Y706145D01*
X677740Y710222D01*
X678771Y714514D01*
X679117Y718914D01*
X678771Y723314D01*
X677740Y727606D01*
X676051Y731683D01*
X675671Y732304D01*
X676904Y734906D01*
X677980Y736192D01*
X681738Y736562D01*
X685821Y737801D01*
X689585Y739813D01*
X692884Y742520D01*
X695592Y745819D01*
X697603Y749583D01*
X698842Y753667D01*
X699260Y757914D01*
X698842Y762161D01*
X697603Y766245D01*
X695592Y770009D01*
X692884Y773308D01*
X689585Y776015D01*
X685821Y778027D01*
X681738Y779266D01*
X677490Y779684D01*
D02*
G37*
G36*
X53270Y699578D02*
Y691270D01*
X61578D01*
X60927Y693698D01*
X59666Y695882D01*
X57882Y697666D01*
X55698Y698927D01*
X53270Y699578D01*
D02*
G37*
G36*
X50730D02*
X48302Y698927D01*
X46118Y697666D01*
X44334Y695882D01*
X43073Y693698D01*
X42422Y691270D01*
X50730D01*
Y699578D01*
D02*
G37*
G36*
X61578Y688730D02*
X53270D01*
Y680422D01*
X55698Y681073D01*
X57882Y682334D01*
X59666Y684118D01*
X60927Y686302D01*
X61578Y688730D01*
D02*
G37*
G36*
X50730D02*
X42422D01*
X43073Y686302D01*
X44334Y684118D01*
X46118Y682334D01*
X48302Y681073D01*
X50730Y680422D01*
Y688730D01*
D02*
G37*
G36*
X129261Y699580D02*
X126739D01*
X124302Y698927D01*
X122118Y697666D01*
X120334Y695882D01*
X119073Y693698D01*
X118420Y691261D01*
Y688739D01*
X119073Y686302D01*
X120334Y684118D01*
X122118Y682334D01*
X124302Y681073D01*
X126739Y680420D01*
X129261D01*
X131698Y681073D01*
X133882Y682334D01*
X135666Y684118D01*
X136927Y686302D01*
X137580Y688739D01*
Y691261D01*
X136927Y693698D01*
X135666Y695882D01*
X133882Y697666D01*
X131698Y698927D01*
X129261Y699580D01*
D02*
G37*
G36*
X702990Y715934D02*
X698743Y715516D01*
X694659Y714277D01*
X690895Y712265D01*
X687597Y709558D01*
X684889Y706259D01*
X682877Y702495D01*
X681638Y698411D01*
X681220Y694164D01*
X681638Y689917D01*
X682877Y685833D01*
X684889Y682069D01*
X687597Y678770D01*
X690895Y676063D01*
X694659Y674051D01*
X698743Y672812D01*
X702990Y672394D01*
X707237Y672812D01*
X711321Y674051D01*
X715085Y676063D01*
X718384Y678770D01*
X721092Y682069D01*
X723103Y685833D01*
X724342Y689917D01*
X724761Y694164D01*
X724342Y698411D01*
X723103Y702495D01*
X721092Y706259D01*
X718384Y709558D01*
X715085Y712265D01*
X711321Y714277D01*
X707237Y715516D01*
X702990Y715934D01*
D02*
G37*
G36*
X266856Y770533D02*
X266518Y770533D01*
X251611D01*
X250620Y770336D01*
X249779Y769775D01*
X249218Y768935D01*
X249021Y767944D01*
Y663340D01*
X68250D01*
X67259Y663143D01*
X66419Y662581D01*
X18669Y614831D01*
X18107Y613991D01*
X17910Y613000D01*
Y173750D01*
X18107Y172759D01*
X18669Y171919D01*
X19509Y171357D01*
X20500Y171160D01*
X56925D01*
X59749Y168327D01*
X59564Y111491D01*
X59564Y111489D01*
X59564Y111487D01*
X59663Y110987D01*
X59758Y110500D01*
X59759Y110498D01*
X59760Y110496D01*
X60039Y110076D01*
X60317Y109658D01*
X60318Y109657D01*
X60320Y109655D01*
X61449Y108522D01*
X61451Y108520D01*
X61452Y108519D01*
X61877Y108235D01*
X62288Y107959D01*
X62291Y107958D01*
X62292Y107957D01*
X62788Y107859D01*
X63279Y107760D01*
X63281Y107760D01*
X63283Y107760D01*
X83113D01*
X86998Y107483D01*
X86998Y103760D01*
Y86088D01*
X86998Y82403D01*
X86998Y78403D01*
Y60640D01*
X86998Y57008D01*
X86998Y53008D01*
Y31560D01*
X107078D01*
Y31610D01*
X119778D01*
Y53010D01*
X119778Y56690D01*
X119778Y60690D01*
Y78410D01*
X119778Y82090D01*
X119778Y86090D01*
Y103760D01*
X119778Y107490D01*
X123666Y107760D01*
X131250D01*
X132241Y107957D01*
X133081Y108519D01*
X133643Y109359D01*
X133840Y110350D01*
Y112910D01*
X149908D01*
X149988Y112910D01*
X153908D01*
X153988Y112910D01*
X170988D01*
Y113567D01*
X172794Y117149D01*
X174998D01*
X177034Y117992D01*
X178592Y119551D01*
X179436Y121587D01*
Y123791D01*
X178592Y125827D01*
X177034Y127386D01*
X174998Y128229D01*
X174488D01*
X170988Y131481D01*
Y133410D01*
X170988Y134990D01*
Y151490D01*
X170988D01*
Y154910D01*
X170988D01*
Y172990D01*
X170988D01*
X168687Y176037D01*
Y177705D01*
X167843Y179741D01*
X166285Y181300D01*
X164249Y182143D01*
X162045D01*
X160009Y181300D01*
X158450Y179741D01*
X157607Y177705D01*
Y175501D01*
X154318Y172990D01*
X153988D01*
X153908Y172990D01*
X149988D01*
X149908Y172990D01*
X147698D01*
X147448Y173040D01*
X133840D01*
Y177669D01*
X137840Y179326D01*
X138112Y179053D01*
X140148Y178210D01*
X142352D01*
X144388Y179053D01*
X145947Y180612D01*
X146790Y182648D01*
Y184852D01*
X146559Y185410D01*
X148449Y189023D01*
X148902Y189410D01*
X149908D01*
X149988Y189410D01*
X153908D01*
X153988Y189410D01*
X170988D01*
Y192055D01*
X172197Y192863D01*
X174401D01*
X176437Y193706D01*
X177995Y195265D01*
X178839Y197301D01*
Y199505D01*
X177995Y201541D01*
X176437Y203099D01*
X174401Y203943D01*
X170988Y207442D01*
Y210660D01*
X170988Y211490D01*
Y228740D01*
X170988D01*
Y231910D01*
X170988D01*
Y249990D01*
X169007D01*
X167781Y251825D01*
Y254029D01*
X166938Y256065D01*
X165379Y257624D01*
X165305Y257654D01*
X164275Y261698D01*
X166529Y265160D01*
X170238D01*
Y281013D01*
X170238Y283240D01*
X170155Y284536D01*
X172945Y287710D01*
X174352D01*
X176388Y288553D01*
X177947Y290112D01*
X178790Y292148D01*
Y294352D01*
X177947Y296388D01*
X176388Y297947D01*
X174352Y298790D01*
X172801D01*
X170385Y302060D01*
X171160Y305842D01*
X174488Y307776D01*
X174648Y307710D01*
X176852D01*
X178888Y308553D01*
X180447Y310112D01*
X181290Y312148D01*
Y314352D01*
X180447Y316388D01*
X178888Y317947D01*
X176852Y318790D01*
X174648D01*
X174488Y318724D01*
X170508Y321037D01*
X170488Y321067D01*
Y323240D01*
X153488D01*
X153408Y323240D01*
X149488D01*
X149408Y323240D01*
X133840D01*
Y333910D01*
X140738D01*
X141729Y334107D01*
X142570Y334669D01*
X143131Y335509D01*
X143328Y336500D01*
Y388054D01*
X143291Y388241D01*
X143300Y388432D01*
X143193Y388732D01*
X143131Y389045D01*
X143025Y389203D01*
X142961Y389383D01*
X142747Y389620D01*
X142570Y389885D01*
X142404Y391689D01*
X142720Y393275D01*
Y397980D01*
X134000D01*
Y399250D01*
X132730D01*
Y409370D01*
X129425D01*
X127839Y409054D01*
X126154Y408581D01*
X125837Y408793D01*
X125543Y409034D01*
X125421Y409071D01*
X125314Y409143D01*
X124941Y409217D01*
X124577Y409327D01*
X124449Y409315D01*
X124323Y409340D01*
X122000D01*
X120126Y411828D01*
X119778Y412765D01*
Y434010D01*
X119778Y437690D01*
X119778Y441690D01*
Y451365D01*
X122750D01*
X124237Y451661D01*
X125497Y452503D01*
X125856Y452862D01*
X128963Y450312D01*
X128411Y449487D01*
X128115Y448000D01*
Y440609D01*
X127839Y440554D01*
X126494Y439656D01*
X125596Y438311D01*
X125280Y436725D01*
Y424775D01*
X125596Y423189D01*
X126494Y421844D01*
X127839Y420946D01*
X129425Y420630D01*
X138575D01*
X140161Y420946D01*
X141506Y421844D01*
X142404Y423189D01*
X142720Y424775D01*
Y436725D01*
X142404Y438311D01*
X141506Y439656D01*
X140302Y440460D01*
X140239Y440762D01*
X141000Y444460D01*
X148040D01*
Y447262D01*
X150896D01*
X152383Y447557D01*
X153643Y448399D01*
X166892Y461648D01*
X167734Y462908D01*
X168029Y464395D01*
Y520855D01*
X167734Y522342D01*
X166892Y523602D01*
X118747Y571747D01*
X117487Y572589D01*
X116000Y572885D01*
X115200D01*
X114388Y573697D01*
X112352Y574540D01*
X110148D01*
X108112Y573697D01*
X106553Y572138D01*
X105710Y570102D01*
Y567898D01*
X106553Y565862D01*
X108112Y564303D01*
X110148Y563460D01*
X112352D01*
X114388Y564303D01*
X114796Y564711D01*
X160260Y519246D01*
Y509790D01*
X145875D01*
X145795Y509790D01*
X141875D01*
X141795Y509790D01*
X124795D01*
Y504635D01*
X119778D01*
Y513890D01*
X86998D01*
Y492490D01*
X86998Y488810D01*
X86998Y484810D01*
Y473057D01*
X85729Y472805D01*
X84469Y471963D01*
X63804Y451298D01*
X59830Y452981D01*
Y476440D01*
X39670D01*
Y476440D01*
X39617Y476440D01*
X39093Y576931D01*
X105573Y643410D01*
X879177D01*
X923410Y599177D01*
Y501753D01*
X919410Y501556D01*
X919359Y502073D01*
X918120Y506157D01*
X916109Y509921D01*
X913401Y513220D01*
X910102Y515927D01*
X906339Y517939D01*
X902255Y519178D01*
X898008Y519596D01*
X893760Y519178D01*
X889676Y517939D01*
X885913Y515927D01*
X882614Y513220D01*
X879906Y509921D01*
X877895Y506157D01*
X876656Y502073D01*
X876237Y497826D01*
X876656Y493579D01*
X877895Y489495D01*
X879906Y485731D01*
X882614Y482432D01*
X885913Y479725D01*
X889676Y477713D01*
X893760Y476474D01*
X898008Y476056D01*
X902255Y476474D01*
X906339Y477713D01*
X910102Y479725D01*
X913401Y482432D01*
X916109Y485731D01*
X918120Y489495D01*
X919359Y493579D01*
X919410Y494096D01*
X923410Y493899D01*
Y485823D01*
X905427Y467840D01*
X498500D01*
X497509Y467643D01*
X496669Y467081D01*
X496107Y466241D01*
X495910Y465250D01*
Y452500D01*
X496107Y451509D01*
X496669Y450669D01*
X497509Y450107D01*
X498500Y449910D01*
X908427D01*
X923410Y434927D01*
Y299837D01*
X919410Y299641D01*
X919039Y303407D01*
X917801Y307491D01*
X915789Y311255D01*
X913081Y314554D01*
X909782Y317261D01*
X906019Y319273D01*
X901935Y320512D01*
X897688Y320930D01*
X893440Y320512D01*
X889356Y319273D01*
X885593Y317261D01*
X882294Y314554D01*
X879586Y311255D01*
X877574Y307491D01*
X876336Y303407D01*
X875917Y299160D01*
X876336Y294913D01*
X877574Y290829D01*
X879586Y287065D01*
X882294Y283766D01*
X885593Y281059D01*
X889356Y279047D01*
X893440Y277808D01*
X897688Y277390D01*
X901935Y277808D01*
X906019Y279047D01*
X909782Y281059D01*
X913081Y283766D01*
X915789Y287065D01*
X917801Y290829D01*
X919039Y294913D01*
X919410Y298679D01*
X923410Y298482D01*
Y285823D01*
X904927Y267340D01*
X500500D01*
X499509Y267143D01*
X498669Y266581D01*
X498107Y265741D01*
X497910Y264750D01*
Y252250D01*
X498107Y251259D01*
X498669Y250419D01*
X499509Y249857D01*
X500500Y249660D01*
X911427D01*
X923410Y237677D01*
X923410Y107483D01*
X923175Y107226D01*
X919560Y108255D01*
X918987Y108576D01*
X917801Y112487D01*
X915789Y116251D01*
X913081Y119550D01*
X909782Y122257D01*
X906019Y124269D01*
X901935Y125508D01*
X897688Y125926D01*
X893440Y125508D01*
X889356Y124269D01*
X885593Y122257D01*
X882294Y119550D01*
X879586Y116251D01*
X877574Y112487D01*
X876336Y108403D01*
X875917Y104156D01*
X876336Y99909D01*
X877574Y95825D01*
X879586Y92061D01*
X882294Y88762D01*
X885593Y86055D01*
X889356Y84043D01*
X893440Y82804D01*
X897688Y82386D01*
X901935Y82804D01*
X906019Y84043D01*
X909782Y86055D01*
X912292Y82954D01*
X902177Y72840D01*
X499250D01*
X498259Y72643D01*
X497419Y72081D01*
X496857Y71241D01*
X496660Y70250D01*
Y58000D01*
X496857Y57009D01*
X497419Y56169D01*
X498259Y55607D01*
X499250Y55410D01*
X916000D01*
X916991Y55607D01*
X917831Y56169D01*
X950581Y88919D01*
X951143Y89759D01*
X951340Y90750D01*
Y614000D01*
X951143Y614991D01*
X950581Y615831D01*
X903831Y662581D01*
X902991Y663143D01*
X902000Y663340D01*
X269446D01*
Y678997D01*
X270083Y679449D01*
X275190Y678879D01*
X277702Y676367D01*
X280655Y674393D01*
X283937Y673034D01*
X287421Y672341D01*
X290974D01*
X294458Y673034D01*
X297740Y674393D01*
X300694Y676367D01*
X303206Y678879D01*
X305179Y681833D01*
X306539Y685115D01*
X307232Y688599D01*
Y692151D01*
X306539Y695635D01*
X305179Y698917D01*
X303206Y701871D01*
X300694Y704383D01*
X297740Y706357D01*
X294458Y707716D01*
X290974Y708409D01*
X287421D01*
X283937Y707716D01*
X280655Y706357D01*
X277702Y704383D01*
X275190Y701871D01*
X270083Y701301D01*
X269446Y701753D01*
X269446Y767606D01*
X269446Y767944D01*
X269446Y767944D01*
X269249Y768935D01*
X268687Y769775D01*
X267847Y770336D01*
X266856Y770533D01*
X266856Y770533D01*
D02*
G37*
G36*
X180974Y708409D02*
X177421D01*
X173937Y707716D01*
X170655Y706357D01*
X167702Y704383D01*
X165190Y701871D01*
X163216Y698917D01*
X161857Y695635D01*
X161164Y692151D01*
Y688599D01*
X161857Y685115D01*
X163216Y681833D01*
X165190Y678879D01*
X167702Y676367D01*
X170655Y674393D01*
X173937Y673034D01*
X177421Y672341D01*
X180974D01*
X184458Y673034D01*
X187740Y674393D01*
X190694Y676367D01*
X193206Y678879D01*
X195179Y681833D01*
X196539Y685115D01*
X197232Y688599D01*
Y692151D01*
X196539Y695635D01*
X195179Y698917D01*
X193206Y701871D01*
X190694Y704383D01*
X187740Y706357D01*
X184458Y707716D01*
X180974Y708409D01*
D02*
G37*
G36*
X897688Y715786D02*
X893440Y715368D01*
X889356Y714129D01*
X885593Y712117D01*
X882294Y709410D01*
X879586Y706111D01*
X877574Y702347D01*
X876336Y698263D01*
X875917Y694016D01*
X876336Y689769D01*
X877574Y685685D01*
X879586Y681921D01*
X882294Y678622D01*
X885593Y675915D01*
X889356Y673903D01*
X893440Y672664D01*
X897688Y672246D01*
X901935Y672664D01*
X906019Y673903D01*
X909782Y675915D01*
X913081Y678622D01*
X915789Y681921D01*
X917801Y685685D01*
X919039Y689769D01*
X919458Y694016D01*
X919039Y698263D01*
X917801Y702347D01*
X915789Y706111D01*
X913081Y709410D01*
X909782Y712117D01*
X906019Y714129D01*
X901935Y715368D01*
X897688Y715786D01*
D02*
G37*
G36*
X508887Y715506D02*
X504640Y715088D01*
X500556Y713849D01*
X496793Y711837D01*
X493494Y709130D01*
X490786Y705831D01*
X488774Y702067D01*
X487536Y697983D01*
X487117Y693736D01*
X487536Y689489D01*
X488774Y685405D01*
X490786Y681641D01*
X493494Y678342D01*
X496793Y675635D01*
X500556Y673623D01*
X504640Y672384D01*
X508887Y671966D01*
X513135Y672384D01*
X517219Y673623D01*
X520982Y675635D01*
X524281Y678342D01*
X526989Y681641D01*
X529001Y685405D01*
X530239Y689489D01*
X530658Y693736D01*
X530239Y697983D01*
X529001Y702067D01*
X526989Y705831D01*
X524281Y709130D01*
X520982Y711837D01*
X517219Y713849D01*
X513135Y715088D01*
X508887Y715506D01*
D02*
G37*
G36*
X260518Y625408D02*
X257877D01*
X255325Y624724D01*
X253037Y623403D01*
X251169Y621535D01*
X249848Y619248D01*
X249165Y616696D01*
Y614054D01*
X249848Y611502D01*
X251169Y609215D01*
X253037Y607347D01*
X255325Y606026D01*
X257877Y605342D01*
X260518D01*
X263070Y606026D01*
X265358Y607347D01*
X267226Y609215D01*
X268547Y611502D01*
X269231Y614054D01*
Y616696D01*
X268547Y619248D01*
X267226Y621535D01*
X265358Y623403D01*
X263070Y624724D01*
X260518Y625408D01*
D02*
G37*
G36*
X235518D02*
X232877D01*
X230325Y624724D01*
X228037Y623403D01*
X226169Y621535D01*
X224848Y619248D01*
X224165Y616696D01*
Y614054D01*
X224848Y611502D01*
X226169Y609215D01*
X228037Y607347D01*
X230325Y606026D01*
X232877Y605342D01*
X235518D01*
X238070Y606026D01*
X240358Y607347D01*
X242226Y609215D01*
X243547Y611502D01*
X244231Y614054D01*
Y616696D01*
X243547Y619248D01*
X242226Y621535D01*
X240358Y623403D01*
X238070Y624724D01*
X235518Y625408D01*
D02*
G37*
G36*
X210518D02*
X207877D01*
X205325Y624724D01*
X203037Y623403D01*
X201169Y621535D01*
X199848Y619248D01*
X199165Y616696D01*
Y614054D01*
X199848Y611502D01*
X201169Y609215D01*
X203037Y607347D01*
X205325Y606026D01*
X207877Y605342D01*
X210518D01*
X213070Y606026D01*
X215358Y607347D01*
X217226Y609215D01*
X218547Y611502D01*
X219231Y614054D01*
Y616696D01*
X218547Y619248D01*
X217226Y621535D01*
X215358Y623403D01*
X213070Y624724D01*
X210518Y625408D01*
D02*
G37*
G36*
X382710Y634126D02*
X380506D01*
X378470Y633282D01*
X376911Y631724D01*
X376068Y629688D01*
Y627484D01*
X376911Y625448D01*
X378470Y623889D01*
X380506Y623046D01*
X382710D01*
X384746Y623889D01*
X385558Y624701D01*
X836555D01*
X864210Y597046D01*
Y595898D01*
X865053Y593862D01*
X866612Y592303D01*
X868648Y591460D01*
X870852D01*
X872888Y592303D01*
X874447Y593862D01*
X875290Y595898D01*
Y598102D01*
X874447Y600138D01*
X872888Y601697D01*
X870852Y602540D01*
X869704D01*
X840911Y631333D01*
X839651Y632175D01*
X838164Y632470D01*
X385558D01*
X384746Y633282D01*
X382710Y634126D01*
D02*
G37*
G36*
X394374Y600696D02*
X392170D01*
X390134Y599853D01*
X388576Y598294D01*
X387732Y596258D01*
Y594054D01*
X388576Y592018D01*
X390134Y590459D01*
X392170Y589616D01*
X394374D01*
X396410Y590459D01*
X397223Y591271D01*
X477606D01*
X478730Y590148D01*
X480766Y589305D01*
X482970D01*
X485006Y590148D01*
X486564Y591707D01*
X487408Y593743D01*
Y595947D01*
X486564Y597983D01*
X485006Y599541D01*
X482970Y600385D01*
X480766D01*
X478730Y599541D01*
X478229Y599041D01*
X397223D01*
X396410Y599853D01*
X394374Y600696D01*
D02*
G37*
G36*
X389102Y617540D02*
X386898D01*
X384862Y616697D01*
X383303Y615138D01*
X382460Y613102D01*
Y610898D01*
X383303Y608862D01*
X384862Y607303D01*
X386898Y606460D01*
X389102D01*
X391138Y607303D01*
X391950Y608115D01*
X653641D01*
X667210Y594546D01*
Y593398D01*
X668053Y591362D01*
X669612Y589803D01*
X671648Y588960D01*
X673852D01*
X675888Y589803D01*
X677447Y591362D01*
X678290Y593398D01*
Y595602D01*
X677447Y597638D01*
X675888Y599197D01*
X673852Y600040D01*
X672704D01*
X657997Y614747D01*
X656737Y615589D01*
X655250Y615885D01*
X391950D01*
X391138Y616697D01*
X389102Y617540D01*
D02*
G37*
G36*
X872507Y583346D02*
X868260Y582928D01*
X864176Y581689D01*
X860413Y579677D01*
X857114Y576970D01*
X854406Y573671D01*
X852394Y569907D01*
X851156Y565823D01*
X850737Y561576D01*
X851156Y557329D01*
X851813Y555161D01*
X851555Y554373D01*
X849263Y551685D01*
X848855Y551482D01*
X846008Y551706D01*
X841451Y551347D01*
X837006Y550280D01*
X832783Y548531D01*
X828885Y546143D01*
X825410Y543174D01*
X822441Y539698D01*
X820053Y535801D01*
X818303Y531578D01*
X817538Y528388D01*
X813538Y528861D01*
Y536950D01*
X813341Y537941D01*
X812779Y538781D01*
X811939Y539342D01*
X810948Y539540D01*
X780448D01*
X779457Y539342D01*
X778617Y538781D01*
X778055Y537941D01*
X777858Y536950D01*
Y517540D01*
X760545D01*
Y500460D01*
X761649D01*
X764005Y496460D01*
X763960Y496352D01*
Y494148D01*
X764803Y492112D01*
X766362Y490553D01*
X768398Y489710D01*
X770602D01*
X772638Y490553D01*
X774197Y492112D01*
X775040Y494148D01*
Y496352D01*
X774995Y496460D01*
X775751Y497742D01*
X776546Y498495D01*
X779457Y500057D01*
X780448Y499860D01*
X780448Y499860D01*
X782376Y499860D01*
X810948D01*
X811939Y500057D01*
X812779Y500619D01*
X813341Y501459D01*
X813538Y502450D01*
Y516291D01*
X817538Y516764D01*
X818303Y513574D01*
X820053Y509351D01*
X822441Y505454D01*
X825410Y501978D01*
X828885Y499010D01*
X832783Y496621D01*
X837006Y494872D01*
X841451Y493805D01*
X846008Y493446D01*
X850564Y493805D01*
X855009Y494872D01*
X859232Y496621D01*
X863130Y499010D01*
X866605Y501978D01*
X869574Y505454D01*
X871962Y509351D01*
X873711Y513574D01*
X874779Y518019D01*
X875137Y522576D01*
X874779Y527133D01*
X873711Y531578D01*
X871962Y535801D01*
X871936Y535843D01*
X872061Y536708D01*
X874103Y539963D01*
X876755Y540224D01*
X880838Y541463D01*
X884602Y543475D01*
X887901Y546182D01*
X890609Y549481D01*
X892620Y553245D01*
X893859Y557329D01*
X894278Y561576D01*
X893859Y565823D01*
X892620Y569907D01*
X890609Y573671D01*
X887901Y576970D01*
X884602Y579677D01*
X880838Y581689D01*
X876755Y582928D01*
X872507Y583346D01*
D02*
G37*
G36*
X676756Y582433D02*
X672509Y582015D01*
X668425Y580776D01*
X664661Y578764D01*
X661362Y576057D01*
X658655Y572758D01*
X656643Y568994D01*
X655404Y564910D01*
X654986Y560663D01*
X655404Y556416D01*
X656062Y554248D01*
X655804Y553460D01*
X653512Y550772D01*
X653103Y550569D01*
X650256Y550793D01*
X645699Y550434D01*
X641254Y549367D01*
X637031Y547618D01*
X633134Y545229D01*
X629658Y542261D01*
X626689Y538785D01*
X624301Y534888D01*
X622552Y530664D01*
X622425Y530134D01*
X618425Y530608D01*
Y537000D01*
X618228Y537991D01*
X617666Y538831D01*
X616826Y539393D01*
X615835Y539590D01*
X585335D01*
X584344Y539393D01*
X583504Y538831D01*
X582942Y537991D01*
X582745Y537000D01*
Y518290D01*
X565795D01*
Y501210D01*
X566254D01*
X569710Y499102D01*
Y496898D01*
X570553Y494862D01*
X572112Y493303D01*
X574148Y492460D01*
X576352D01*
X578388Y493303D01*
X579947Y494862D01*
X580790Y496898D01*
Y498037D01*
X580892Y498137D01*
X584130Y499985D01*
X584486Y500079D01*
X585335Y499910D01*
X615835D01*
X616826Y500107D01*
X617666Y500669D01*
X618228Y501509D01*
X618425Y502500D01*
Y512718D01*
X622425Y513192D01*
X622552Y512661D01*
X624301Y508438D01*
X626689Y504541D01*
X629658Y501065D01*
X633134Y498096D01*
X637031Y495708D01*
X641254Y493959D01*
X645699Y492892D01*
X650256Y492533D01*
X654813Y492892D01*
X659258Y493959D01*
X663481Y495708D01*
X667378Y498096D01*
X670854Y501065D01*
X673822Y504541D01*
X676211Y508438D01*
X677960Y512661D01*
X679027Y517106D01*
X679386Y521663D01*
X679027Y526220D01*
X677960Y530664D01*
X676211Y534888D01*
X676185Y534930D01*
X676310Y535795D01*
X678352Y539050D01*
X681003Y539311D01*
X685087Y540550D01*
X688851Y542562D01*
X692150Y545269D01*
X694857Y548568D01*
X696869Y552332D01*
X698108Y556416D01*
X698526Y560663D01*
X698108Y564910D01*
X696869Y568994D01*
X694857Y572758D01*
X692150Y576057D01*
X688851Y578764D01*
X685087Y580776D01*
X681003Y582015D01*
X676756Y582433D01*
D02*
G37*
G36*
X484217Y581926D02*
X479970Y581508D01*
X475886Y580269D01*
X472123Y578257D01*
X468824Y575550D01*
X466116Y572251D01*
X464104Y568487D01*
X462865Y564403D01*
X462447Y560156D01*
X462865Y555909D01*
X463523Y553741D01*
X463265Y552953D01*
X460973Y550265D01*
X460565Y550062D01*
X457717Y550286D01*
X453161Y549927D01*
X448716Y548860D01*
X444493Y547111D01*
X440595Y544723D01*
X437119Y541754D01*
X434151Y538278D01*
X431763Y534381D01*
X430013Y530158D01*
X429788Y529218D01*
X425788Y529691D01*
Y536950D01*
X425591Y537941D01*
X425029Y538781D01*
X424189Y539342D01*
X423198Y539540D01*
X392698D01*
X391707Y539342D01*
X390867Y538781D01*
X390305Y537941D01*
X390108Y536950D01*
Y517790D01*
X373045D01*
Y500710D01*
X373045D01*
X376210Y498102D01*
Y495898D01*
X377053Y493862D01*
X378612Y492303D01*
X380648Y491460D01*
X382852D01*
X384888Y492303D01*
X386447Y493862D01*
X387290Y495898D01*
Y498102D01*
X387604Y498354D01*
X390867Y500619D01*
X391707Y500057D01*
X392698Y499860D01*
X423198D01*
X424189Y500057D01*
X425029Y500619D01*
X425591Y501459D01*
X425788Y502450D01*
Y512621D01*
X429788Y513094D01*
X430013Y512154D01*
X431763Y507931D01*
X434151Y504034D01*
X437119Y500558D01*
X440595Y497589D01*
X444493Y495201D01*
X448716Y493452D01*
X453161Y492385D01*
X457717Y492026D01*
X462274Y492385D01*
X466719Y493452D01*
X470942Y495201D01*
X474840Y497589D01*
X478315Y500558D01*
X481284Y504034D01*
X483672Y507931D01*
X485421Y512154D01*
X486488Y516599D01*
X486847Y521156D01*
X486488Y525713D01*
X485421Y530158D01*
X483672Y534381D01*
X483647Y534423D01*
X483771Y535288D01*
X485813Y538543D01*
X488465Y538804D01*
X492548Y540043D01*
X496312Y542055D01*
X499611Y544762D01*
X502319Y548061D01*
X504330Y551825D01*
X505569Y555909D01*
X505988Y560156D01*
X505569Y564403D01*
X504330Y568487D01*
X502319Y572251D01*
X499611Y575550D01*
X496312Y578257D01*
X492548Y580269D01*
X488465Y581508D01*
X484217Y581926D01*
D02*
G37*
G36*
X702256Y518683D02*
X698009Y518265D01*
X693925Y517026D01*
X690161Y515014D01*
X686862Y512307D01*
X684155Y509008D01*
X682143Y505244D01*
X680904Y501160D01*
X680486Y496913D01*
X680904Y492666D01*
X682143Y488582D01*
X684155Y484818D01*
X686862Y481519D01*
X690161Y478812D01*
X693925Y476800D01*
X698009Y475561D01*
X702256Y475143D01*
X706503Y475561D01*
X710587Y476800D01*
X714351Y478812D01*
X717650Y481519D01*
X720357Y484818D01*
X722369Y488582D01*
X723608Y492666D01*
X724026Y496913D01*
X723608Y501160D01*
X722369Y505244D01*
X720357Y509008D01*
X717650Y512307D01*
X714351Y515014D01*
X710587Y517026D01*
X706503Y518265D01*
X702256Y518683D01*
D02*
G37*
G36*
X509717Y518176D02*
X505470Y517758D01*
X501386Y516519D01*
X497623Y514507D01*
X494324Y511800D01*
X491616Y508501D01*
X489604Y504737D01*
X488366Y500653D01*
X487947Y496406D01*
X488366Y492159D01*
X489604Y488075D01*
X491616Y484311D01*
X494324Y481012D01*
X497623Y478305D01*
X501386Y476293D01*
X505470Y475054D01*
X509717Y474636D01*
X513965Y475054D01*
X518049Y476293D01*
X521812Y478305D01*
X525111Y481012D01*
X527819Y484311D01*
X529830Y488075D01*
X531069Y492159D01*
X531488Y496406D01*
X531069Y500653D01*
X529830Y504737D01*
X527819Y508501D01*
X525111Y511800D01*
X521812Y514507D01*
X518049Y516519D01*
X513965Y517758D01*
X509717Y518176D01*
D02*
G37*
G36*
X138575Y409370D02*
X135270D01*
Y400520D01*
X142720D01*
Y405225D01*
X142404Y406811D01*
X141506Y408156D01*
X140161Y409054D01*
X138575Y409370D01*
D02*
G37*
G36*
X841250Y430135D02*
X395006D01*
X393519Y429839D01*
X392259Y428997D01*
X390842Y427580D01*
X389694D01*
X387658Y426737D01*
X386099Y425178D01*
X385256Y423142D01*
Y420938D01*
X386099Y418902D01*
X387658Y417343D01*
X389694Y416500D01*
X391898D01*
X393934Y417343D01*
X395492Y418902D01*
X396336Y420938D01*
Y422086D01*
X396615Y422365D01*
X839641D01*
X862460Y399546D01*
Y398398D01*
X863303Y396362D01*
X864862Y394803D01*
X866898Y393960D01*
X869102D01*
X871138Y394803D01*
X872697Y396362D01*
X873540Y398398D01*
Y400602D01*
X872697Y402638D01*
X871138Y404197D01*
X869102Y405040D01*
X867954D01*
X843997Y428997D01*
X842737Y429839D01*
X841250Y430135D01*
D02*
G37*
G36*
X485365Y395369D02*
X483161D01*
X481125Y394526D01*
X480149Y393549D01*
X405036D01*
X404388Y394197D01*
X402352Y395040D01*
X400148D01*
X398112Y394197D01*
X396553Y392638D01*
X395710Y390602D01*
Y388398D01*
X396553Y386362D01*
X398112Y384803D01*
X400148Y383960D01*
X402352D01*
X404388Y384803D01*
X405365Y385780D01*
X473502D01*
X474504Y381780D01*
X472123Y380507D01*
X468824Y377800D01*
X466116Y374501D01*
X464104Y370737D01*
X462866Y366653D01*
X462447Y362406D01*
X462866Y358159D01*
X463523Y355991D01*
X463265Y355203D01*
X460973Y352515D01*
X460565Y352312D01*
X457717Y352536D01*
X453161Y352177D01*
X448716Y351110D01*
X444493Y349361D01*
X440595Y346973D01*
X437119Y344004D01*
X434151Y340528D01*
X431763Y336631D01*
X430013Y332408D01*
X429925Y332038D01*
X425925Y332512D01*
Y339750D01*
X425728Y340741D01*
X425166Y341581D01*
X424326Y342143D01*
X423335Y342340D01*
X392835D01*
X391844Y342143D01*
X391004Y341581D01*
X390442Y340741D01*
X390245Y339750D01*
Y320290D01*
X373545D01*
Y303210D01*
X374649D01*
X377210Y299352D01*
Y297148D01*
X378053Y295112D01*
X379612Y293553D01*
X381648Y292710D01*
X383852D01*
X385888Y293553D01*
X387447Y295112D01*
X388290Y297148D01*
Y299352D01*
X388868Y300222D01*
X391844Y302857D01*
X392835Y302660D01*
X423335D01*
X424326Y302857D01*
X425166Y303419D01*
X425728Y304259D01*
X425925Y305250D01*
Y314300D01*
X429925Y314774D01*
X430013Y314404D01*
X431763Y310181D01*
X434151Y306284D01*
X437119Y302808D01*
X440595Y299839D01*
X444493Y297451D01*
X448716Y295702D01*
X453161Y294635D01*
X457717Y294276D01*
X462274Y294635D01*
X466719Y295702D01*
X470942Y297451D01*
X474840Y299839D01*
X478315Y302808D01*
X481284Y306284D01*
X483672Y310181D01*
X485421Y314404D01*
X486489Y318849D01*
X486847Y323406D01*
X486489Y327963D01*
X485421Y332408D01*
X483672Y336631D01*
X483647Y336673D01*
X483771Y337538D01*
X485813Y340793D01*
X488465Y341054D01*
X492548Y342293D01*
X496312Y344305D01*
X499611Y347012D01*
X502319Y350311D01*
X504330Y354075D01*
X505569Y358159D01*
X505988Y362406D01*
X505569Y366653D01*
X504330Y370737D01*
X502319Y374501D01*
X499611Y377800D01*
X496312Y380507D01*
X492548Y382519D01*
X490934Y383009D01*
X490280Y384229D01*
X489318Y387555D01*
X489803Y388727D01*
Y390931D01*
X488960Y392967D01*
X487401Y394526D01*
X485365Y395369D01*
D02*
G37*
G36*
X660422Y416135D02*
X404750D01*
X403263Y415839D01*
X402003Y414997D01*
X399546Y412540D01*
X398398D01*
X396362Y411697D01*
X394803Y410138D01*
X393960Y408102D01*
Y405898D01*
X394803Y403862D01*
X396362Y402303D01*
X398398Y401460D01*
X400602D01*
X402638Y402303D01*
X404197Y403862D01*
X405040Y405898D01*
Y407046D01*
X406359Y408365D01*
X658812D01*
X668713Y398465D01*
Y397317D01*
X669556Y395281D01*
X671114Y393722D01*
X673151Y392879D01*
X675355D01*
X677391Y393722D01*
X678949Y395281D01*
X679793Y397317D01*
Y399521D01*
X678949Y401557D01*
X677391Y403116D01*
X675355Y403959D01*
X674206D01*
X663168Y414997D01*
X661908Y415839D01*
X660422Y416135D01*
D02*
G37*
G36*
X872187Y384680D02*
X867940Y384262D01*
X863856Y383023D01*
X860093Y381011D01*
X856794Y378304D01*
X854086Y375005D01*
X852074Y371241D01*
X850836Y367157D01*
X850417Y362910D01*
X850836Y358663D01*
X851493Y356495D01*
X851235Y355707D01*
X848943Y353019D01*
X848535Y352816D01*
X845687Y353040D01*
X841131Y352681D01*
X836686Y351614D01*
X832463Y349865D01*
X828565Y347476D01*
X825090Y344508D01*
X822121Y341032D01*
X819733Y337135D01*
X817983Y332911D01*
X817538Y331055D01*
X813538Y331528D01*
Y339700D01*
X813341Y340691D01*
X812779Y341531D01*
X811939Y342093D01*
X810948Y342290D01*
X780448D01*
X779457Y342093D01*
X778617Y341531D01*
X778055Y340691D01*
X777858Y339700D01*
Y321040D01*
X760545D01*
Y303960D01*
X760545D01*
X763760Y301757D01*
Y299553D01*
X764604Y297517D01*
X766162Y295958D01*
X768198Y295115D01*
X770402D01*
X772438Y295958D01*
X773997Y297517D01*
X774840Y299553D01*
Y301757D01*
X778222Y303960D01*
X778617Y303369D01*
X779457Y302807D01*
X780448Y302610D01*
X810948D01*
X811939Y302807D01*
X812779Y303369D01*
X813341Y304209D01*
X813538Y305200D01*
Y316292D01*
X817538Y316765D01*
X817983Y314908D01*
X819733Y310685D01*
X822121Y306788D01*
X825090Y303312D01*
X828565Y300343D01*
X832463Y297955D01*
X836686Y296206D01*
X841131Y295139D01*
X845687Y294780D01*
X850244Y295139D01*
X854689Y296206D01*
X858912Y297955D01*
X862810Y300343D01*
X866285Y303312D01*
X869254Y306788D01*
X871642Y310685D01*
X873391Y314908D01*
X874459Y319353D01*
X874817Y323910D01*
X874459Y328467D01*
X873391Y332911D01*
X871642Y337135D01*
X871617Y337177D01*
X871741Y338042D01*
X873783Y341297D01*
X876435Y341558D01*
X880518Y342797D01*
X884282Y344809D01*
X887581Y347516D01*
X890289Y350815D01*
X892300Y354579D01*
X893539Y358663D01*
X893958Y362910D01*
X893539Y367157D01*
X892300Y371241D01*
X890289Y375005D01*
X887581Y378304D01*
X884282Y381011D01*
X880518Y383023D01*
X876435Y384262D01*
X872187Y384680D01*
D02*
G37*
G36*
X677717Y384676D02*
X673470Y384258D01*
X669386Y383019D01*
X665623Y381007D01*
X662324Y378300D01*
X659616Y375001D01*
X657604Y371237D01*
X656366Y367153D01*
X655947Y362906D01*
X656366Y358659D01*
X657023Y356491D01*
X656765Y355703D01*
X654473Y353015D01*
X654065Y352812D01*
X651217Y353036D01*
X646661Y352677D01*
X642216Y351610D01*
X637993Y349861D01*
X634095Y347472D01*
X630620Y344504D01*
X627651Y341028D01*
X625263Y337131D01*
X623513Y332908D01*
X619538Y333482D01*
Y339700D01*
X619341Y340691D01*
X618779Y341531D01*
X617939Y342093D01*
X616948Y342290D01*
X586448D01*
X585457Y342093D01*
X584617Y341531D01*
X584055Y340691D01*
X583858Y339700D01*
Y321040D01*
X566545D01*
Y303960D01*
X566857D01*
X570210Y301602D01*
Y299398D01*
X571053Y297362D01*
X572612Y295803D01*
X574648Y294960D01*
X576852D01*
X578888Y295803D01*
X580447Y297362D01*
X581290Y299398D01*
Y301147D01*
X582972Y302446D01*
X584986Y303122D01*
X585457Y302807D01*
X586448Y302610D01*
X616948D01*
X617939Y302807D01*
X618779Y303369D01*
X619341Y304209D01*
X619538Y305200D01*
Y314330D01*
X623513Y314904D01*
X625263Y310681D01*
X627651Y306784D01*
X630620Y303308D01*
X634095Y300340D01*
X637993Y297951D01*
X642216Y296202D01*
X646661Y295135D01*
X651217Y294776D01*
X655774Y295135D01*
X660219Y296202D01*
X664442Y297951D01*
X668339Y300340D01*
X671815Y303308D01*
X674784Y306784D01*
X677172Y310681D01*
X678922Y314904D01*
X679989Y319349D01*
X680347Y323906D01*
X679989Y328463D01*
X678922Y332908D01*
X677172Y337131D01*
X677147Y337173D01*
X677271Y338038D01*
X679313Y341293D01*
X681965Y341554D01*
X686049Y342793D01*
X689812Y344805D01*
X693111Y347512D01*
X695819Y350811D01*
X697830Y354575D01*
X699069Y358659D01*
X699488Y362906D01*
X699069Y367153D01*
X697830Y371237D01*
X695819Y375001D01*
X693111Y378300D01*
X689812Y381007D01*
X686049Y383019D01*
X681965Y384258D01*
X677717Y384676D01*
D02*
G37*
G36*
X703217Y320906D02*
X698974Y320488D01*
X694894Y319250D01*
X691134Y317241D01*
X687838Y314536D01*
X685133Y311240D01*
X683123Y307479D01*
X681885Y303399D01*
X681467Y299156D01*
X681885Y294913D01*
X683123Y290833D01*
X685133Y287072D01*
X687838Y283776D01*
X691134Y281071D01*
X694894Y279062D01*
X698974Y277824D01*
X703217Y277406D01*
X707461Y277824D01*
X711541Y279062D01*
X715301Y281071D01*
X718597Y283776D01*
X721302Y287072D01*
X723312Y290833D01*
X724550Y294913D01*
X724967Y299156D01*
X724550Y303399D01*
X723312Y307479D01*
X721302Y311240D01*
X718597Y314536D01*
X715301Y317241D01*
X711541Y319250D01*
X707461Y320488D01*
X703217Y320906D01*
D02*
G37*
G36*
X509717Y320426D02*
X505470Y320008D01*
X501386Y318769D01*
X497623Y316757D01*
X494324Y314050D01*
X491616Y310751D01*
X489604Y306987D01*
X488366Y302903D01*
X487947Y298656D01*
X488366Y294409D01*
X489604Y290325D01*
X491616Y286561D01*
X494324Y283262D01*
X497623Y280555D01*
X501386Y278543D01*
X505470Y277304D01*
X509717Y276886D01*
X513965Y277304D01*
X518049Y278543D01*
X521812Y280555D01*
X525111Y283262D01*
X527819Y286561D01*
X529831Y290325D01*
X531069Y294409D01*
X531488Y298656D01*
X531069Y302903D01*
X529831Y306987D01*
X527819Y310751D01*
X525111Y314050D01*
X521812Y316757D01*
X518049Y318769D01*
X513965Y320008D01*
X509717Y320426D01*
D02*
G37*
G36*
X377102Y224868D02*
X374898D01*
X372862Y224025D01*
X371303Y222467D01*
X370460Y220430D01*
Y218227D01*
X371303Y216190D01*
X372862Y214632D01*
X374898Y213788D01*
X377102D01*
X379138Y214632D01*
X379950Y215444D01*
X661987D01*
X670458Y206974D01*
Y205826D01*
X671301Y203789D01*
X672859Y202231D01*
X674895Y201388D01*
X677099D01*
X679136Y202231D01*
X680694Y203789D01*
X681537Y205826D01*
Y208029D01*
X680694Y210066D01*
X679136Y211624D01*
X677099Y212467D01*
X675951D01*
X666343Y222075D01*
X665083Y222917D01*
X663596Y223213D01*
X379950D01*
X379138Y224025D01*
X377102Y224868D01*
D02*
G37*
G36*
X378102Y244540D02*
X375898D01*
X373862Y243697D01*
X372303Y242138D01*
X371460Y240102D01*
Y237898D01*
X372303Y235862D01*
X373862Y234303D01*
X375898Y233460D01*
X378102D01*
X380138Y234303D01*
X380950Y235115D01*
X829607D01*
X862635Y202087D01*
Y200939D01*
X863478Y198903D01*
X865037Y197344D01*
X867073Y196501D01*
X869277D01*
X871313Y197344D01*
X872872Y198903D01*
X873715Y200939D01*
Y203143D01*
X872872Y205179D01*
X871313Y206737D01*
X869277Y207581D01*
X868129D01*
X833963Y241747D01*
X832703Y242589D01*
X831216Y242885D01*
X380950D01*
X380138Y243697D01*
X378102Y244540D01*
D02*
G37*
G36*
X872187Y189676D02*
X867940Y189258D01*
X863856Y188019D01*
X860093Y186007D01*
X856794Y183300D01*
X854086Y180001D01*
X852074Y176237D01*
X850836Y172153D01*
X850417Y167906D01*
X850836Y163659D01*
X851493Y161491D01*
X851235Y160703D01*
X848943Y158015D01*
X848535Y157812D01*
X845687Y158036D01*
X841131Y157677D01*
X836686Y156610D01*
X832463Y154861D01*
X828565Y152472D01*
X825090Y149504D01*
X822121Y146028D01*
X819733Y142131D01*
X817983Y137908D01*
X817788Y137092D01*
X813788Y137566D01*
Y144450D01*
X813590Y145441D01*
X813029Y146281D01*
X812189Y146842D01*
X811198Y147040D01*
X780698D01*
X779707Y146842D01*
X778867Y146281D01*
X778305Y145441D01*
X778108Y144450D01*
Y125040D01*
X760795D01*
Y123766D01*
X757102Y121040D01*
X754898D01*
X752862Y120197D01*
X751303Y118638D01*
X750460Y116602D01*
Y114398D01*
X751303Y112362D01*
X752862Y110803D01*
X754898Y109960D01*
X757102D01*
X760795Y107960D01*
Y107960D01*
X778875D01*
X778875Y107960D01*
X779326Y107811D01*
X779707Y107557D01*
X780698Y107360D01*
X780698Y107360D01*
X782626Y107360D01*
X811198D01*
X812189Y107557D01*
X813029Y108119D01*
X813590Y108959D01*
X813788Y109950D01*
Y120246D01*
X817788Y120720D01*
X817983Y119904D01*
X819733Y115681D01*
X822121Y111784D01*
X825090Y108308D01*
X828565Y105339D01*
X832463Y102951D01*
X836686Y101202D01*
X841131Y100135D01*
X845687Y99776D01*
X850244Y100135D01*
X854689Y101202D01*
X858912Y102951D01*
X862810Y105339D01*
X866285Y108308D01*
X869254Y111784D01*
X871642Y115681D01*
X873391Y119904D01*
X874459Y124349D01*
X874817Y128906D01*
X874459Y133463D01*
X873391Y137908D01*
X871642Y142131D01*
X871617Y142173D01*
X871741Y143038D01*
X873783Y146293D01*
X876435Y146554D01*
X880518Y147793D01*
X884282Y149805D01*
X887581Y152512D01*
X890289Y155811D01*
X892300Y159575D01*
X893539Y163659D01*
X893958Y167906D01*
X893539Y172153D01*
X892300Y176237D01*
X890289Y180001D01*
X887581Y183300D01*
X884282Y186007D01*
X880518Y188019D01*
X876435Y189258D01*
X872187Y189676D01*
D02*
G37*
G36*
X677225Y189591D02*
X672978Y189173D01*
X668894Y187934D01*
X665130Y185922D01*
X661831Y183215D01*
X659124Y179916D01*
X657112Y176152D01*
X655873Y172068D01*
X655455Y167821D01*
X655873Y163574D01*
X656531Y161406D01*
X656273Y160618D01*
X653981Y157930D01*
X653572Y157727D01*
X650725Y157951D01*
X646168Y157592D01*
X641723Y156525D01*
X637500Y154776D01*
X633603Y152388D01*
X630127Y149419D01*
X627158Y145943D01*
X624770Y142046D01*
X623021Y137823D01*
X622925Y137423D01*
X618925Y137896D01*
Y144500D01*
X618727Y145491D01*
X618166Y146331D01*
X617326Y146893D01*
X616335Y147090D01*
X585835D01*
X584844Y146893D01*
X584004Y146331D01*
X583442Y145491D01*
X583245Y144500D01*
Y125290D01*
X566045D01*
Y108210D01*
X566711D01*
X569960Y105602D01*
Y103398D01*
X570803Y101362D01*
X572362Y99803D01*
X574398Y98960D01*
X576602D01*
X578638Y99803D01*
X580197Y101362D01*
X581040Y103398D01*
Y105602D01*
X583058Y107394D01*
X584422Y107889D01*
X584844Y107607D01*
X585835Y107410D01*
X616335D01*
X617326Y107607D01*
X618166Y108169D01*
X618727Y109009D01*
X618925Y110000D01*
Y119746D01*
X622925Y120220D01*
X623021Y119820D01*
X624770Y115597D01*
X627158Y111699D01*
X630127Y108223D01*
X633603Y105255D01*
X637500Y102866D01*
X641723Y101117D01*
X646168Y100050D01*
X650725Y99691D01*
X655282Y100050D01*
X659726Y101117D01*
X663949Y102866D01*
X667847Y105255D01*
X671323Y108223D01*
X674291Y111699D01*
X676680Y115597D01*
X678429Y119820D01*
X679496Y124264D01*
X679855Y128821D01*
X679496Y133378D01*
X678429Y137823D01*
X676680Y142046D01*
X676654Y142088D01*
X676778Y142953D01*
X678820Y146208D01*
X681472Y146469D01*
X685556Y147708D01*
X689320Y149720D01*
X692619Y152427D01*
X695326Y155726D01*
X697338Y159490D01*
X698577Y163574D01*
X698995Y167821D01*
X698577Y172068D01*
X697338Y176152D01*
X695326Y179916D01*
X692619Y183215D01*
X689320Y185922D01*
X685556Y187934D01*
X681472Y189173D01*
X677225Y189591D01*
D02*
G37*
G36*
X483543Y203044D02*
X481339D01*
X479303Y202200D01*
X478487Y201385D01*
X380544D01*
X379057Y201089D01*
X377797Y200247D01*
X365994Y188444D01*
X364846D01*
X362810Y187601D01*
X361251Y186042D01*
X360408Y184006D01*
Y181802D01*
X361251Y179766D01*
X362810Y178208D01*
X364846Y177364D01*
X367050D01*
X369086Y178208D01*
X370644Y179766D01*
X371488Y181802D01*
Y182950D01*
X382153Y193615D01*
X476427D01*
X478018Y192096D01*
X476944Y187590D01*
X475886Y187269D01*
X472123Y185257D01*
X468824Y182550D01*
X466116Y179251D01*
X464104Y175487D01*
X462865Y171403D01*
X462447Y167156D01*
X462865Y162909D01*
X463503Y160806D01*
X463367Y160264D01*
X460926Y157261D01*
X460563Y157081D01*
X457967Y157286D01*
X453410Y156927D01*
X448966Y155860D01*
X444743Y154111D01*
X440845Y151722D01*
X437369Y148754D01*
X434401Y145278D01*
X432013Y141381D01*
X430263Y137158D01*
X426288Y137732D01*
Y144450D01*
X426091Y145441D01*
X425529Y146281D01*
X424689Y146842D01*
X423698Y147040D01*
X393198D01*
X392207Y146842D01*
X391367Y146281D01*
X390805Y145441D01*
X390608Y144450D01*
Y125540D01*
X373545D01*
Y108460D01*
X378115D01*
Y104450D01*
X377303Y103638D01*
X376460Y101602D01*
Y99398D01*
X377303Y97362D01*
X378862Y95803D01*
X380898Y94960D01*
X383102D01*
X385138Y95803D01*
X386697Y97362D01*
X387540Y99398D01*
Y101602D01*
X386697Y103638D01*
X385885Y104450D01*
Y108460D01*
X391138D01*
X391367Y108119D01*
X392207Y107557D01*
X393198Y107360D01*
X423698D01*
X424689Y107557D01*
X425529Y108119D01*
X426091Y108959D01*
X426288Y109950D01*
Y118580D01*
X430263Y119154D01*
X432013Y114931D01*
X434401Y111034D01*
X437369Y107558D01*
X440845Y104590D01*
X444743Y102201D01*
X448966Y100452D01*
X453410Y99385D01*
X457967Y99026D01*
X462524Y99385D01*
X466969Y100452D01*
X471192Y102201D01*
X475089Y104590D01*
X478565Y107558D01*
X481534Y111034D01*
X483922Y114931D01*
X485672Y119154D01*
X486739Y123599D01*
X487097Y128156D01*
X486739Y132713D01*
X485672Y137158D01*
X483922Y141381D01*
X483894Y141426D01*
X483941Y141995D01*
X486049Y145566D01*
X488465Y145804D01*
X492548Y147043D01*
X496312Y149055D01*
X499611Y151762D01*
X502319Y155061D01*
X504330Y158825D01*
X505569Y162909D01*
X505988Y167156D01*
X505569Y171403D01*
X504330Y175487D01*
X502319Y179251D01*
X499611Y182550D01*
X496312Y185257D01*
X492548Y187269D01*
X488465Y188508D01*
X486193Y188732D01*
X485579Y192807D01*
X487137Y194366D01*
X487981Y196402D01*
Y198606D01*
X487137Y200642D01*
X485579Y202200D01*
X483543Y203044D01*
D02*
G37*
G36*
X702725Y125841D02*
X698478Y125423D01*
X694394Y124184D01*
X690630Y122172D01*
X687331Y119465D01*
X684623Y116166D01*
X682612Y112402D01*
X681373Y108318D01*
X680955Y104071D01*
X681373Y99824D01*
X682612Y95740D01*
X684623Y91976D01*
X687331Y88677D01*
X690630Y85970D01*
X694394Y83958D01*
X698478Y82719D01*
X702725Y82301D01*
X706972Y82719D01*
X711056Y83958D01*
X714820Y85970D01*
X718119Y88677D01*
X720826Y91976D01*
X722838Y95740D01*
X724077Y99824D01*
X724495Y104071D01*
X724077Y108318D01*
X722838Y112402D01*
X720826Y116166D01*
X718119Y119465D01*
X714820Y122172D01*
X711056Y124184D01*
X706972Y125423D01*
X702725Y125841D01*
D02*
G37*
G36*
X509717Y125176D02*
X505470Y124758D01*
X501386Y123519D01*
X497623Y121507D01*
X494324Y118800D01*
X491616Y115501D01*
X489604Y111737D01*
X488366Y107653D01*
X487947Y103406D01*
X488366Y99159D01*
X489604Y95075D01*
X491616Y91311D01*
X494324Y88012D01*
X497623Y85305D01*
X501386Y83293D01*
X505470Y82054D01*
X509717Y81636D01*
X513965Y82054D01*
X518049Y83293D01*
X521812Y85305D01*
X525111Y88012D01*
X527819Y91311D01*
X529830Y95075D01*
X531069Y99159D01*
X531488Y103406D01*
X531069Y107653D01*
X529830Y111737D01*
X527819Y115501D01*
X525111Y118800D01*
X521812Y121507D01*
X518049Y123519D01*
X513965Y124758D01*
X509717Y125176D01*
D02*
G37*
G36*
X960788Y63695D02*
X956120Y63235D01*
X951632Y61874D01*
X947496Y59663D01*
X943870Y56688D01*
X940895Y53062D01*
X938684Y48926D01*
X937322Y44437D01*
X936863Y39770D01*
X937322Y35102D01*
X938684Y30614D01*
X940895Y26478D01*
X943870Y22852D01*
X947496Y19877D01*
X951632Y17666D01*
X956120Y16304D01*
X960788Y15845D01*
X965455Y16304D01*
X969944Y17666D01*
X974080Y19877D01*
X977706Y22852D01*
X980681Y26478D01*
X982892Y30614D01*
X984253Y35102D01*
X984713Y39770D01*
X984253Y44437D01*
X982892Y48926D01*
X980681Y53062D01*
X977706Y56688D01*
X974080Y59663D01*
X969944Y61874D01*
X965455Y63235D01*
X960788Y63695D01*
D02*
G37*
G36*
X39388D02*
X34720Y63235D01*
X30232Y61874D01*
X26096Y59663D01*
X22470Y56688D01*
X19495Y53062D01*
X17284Y48926D01*
X15923Y44437D01*
X15463Y39770D01*
X15923Y35102D01*
X17284Y30614D01*
X19495Y26478D01*
X22470Y22852D01*
X26096Y19877D01*
X30232Y17666D01*
X34720Y16304D01*
X39388Y15845D01*
X44056Y16304D01*
X48544Y17666D01*
X52680Y19877D01*
X56306Y22852D01*
X59281Y26478D01*
X61492Y30614D01*
X62854Y35102D01*
X63313Y39770D01*
X62854Y44437D01*
X61492Y48926D01*
X59281Y53062D01*
X56306Y56688D01*
X52680Y59663D01*
X48544Y61874D01*
X44056Y63235D01*
X39388Y63695D01*
D02*
G37*
%LPD*%
G36*
X266856Y660750D02*
X902000D01*
X948750Y614000D01*
Y90750D01*
X916000Y58000D01*
X499250D01*
Y70250D01*
X903250D01*
X926000Y93000D01*
X926000Y238750D01*
X912500Y252250D01*
X500500D01*
Y264750D01*
X906000D01*
X926000Y284750D01*
Y436000D01*
X909500Y452500D01*
X498500D01*
Y465250D01*
X906500D01*
X926000Y484750D01*
Y600250D01*
X880250Y646000D01*
X104500D01*
X36498Y577998D01*
X38500Y193968D01*
X71238D01*
X79250Y185956D01*
Y130350D01*
X122000D01*
Y406750D01*
X124323D01*
X125338Y405513D01*
X125280Y405225D01*
Y393275D01*
X125596Y391689D01*
X126494Y390344D01*
X127839Y389446D01*
X129425Y389130D01*
X138575D01*
X139138Y389242D01*
X140738Y388054D01*
Y336500D01*
X131250D01*
Y247450D01*
X147448D01*
Y234450D01*
X131250D01*
Y170450D01*
X147448D01*
Y157450D01*
X131250D01*
Y110350D01*
X63283D01*
X62154Y111483D01*
X62357Y173750D01*
X20500D01*
Y613000D01*
X68250Y660750D01*
X251611D01*
Y767944D01*
X266856D01*
X266856Y660750D01*
D02*
G37*
D18*
X252948Y476581D02*
D03*
Y497581D02*
D03*
X382585Y138000D02*
D03*
Y117000D02*
D03*
X575085Y116750D02*
D03*
Y137750D02*
D03*
X769835Y137500D02*
D03*
Y116500D02*
D03*
X382585Y311750D02*
D03*
Y332750D02*
D03*
X574835Y530750D02*
D03*
Y509750D02*
D03*
X382085Y530250D02*
D03*
Y509250D02*
D03*
X769585Y333500D02*
D03*
Y312500D02*
D03*
X575585D02*
D03*
Y333500D02*
D03*
X769585Y530000D02*
D03*
Y509000D02*
D03*
X381835Y704750D02*
D03*
Y725750D02*
D03*
X575585Y727750D02*
D03*
Y706750D02*
D03*
X769797Y705847D02*
D03*
Y726847D02*
D03*
X252948Y41081D02*
D03*
Y20081D02*
D03*
Y61581D02*
D03*
Y82581D02*
D03*
Y124081D02*
D03*
Y103081D02*
D03*
Y144581D02*
D03*
Y165581D02*
D03*
Y207081D02*
D03*
Y186081D02*
D03*
Y227581D02*
D03*
Y248581D02*
D03*
Y290081D02*
D03*
Y269081D02*
D03*
Y310581D02*
D03*
Y331581D02*
D03*
Y373081D02*
D03*
Y352081D02*
D03*
Y393581D02*
D03*
Y414581D02*
D03*
Y456081D02*
D03*
Y435081D02*
D03*
D19*
X141500Y451500D02*
D03*
X132000Y471500D02*
D03*
X151000D02*
D03*
D20*
X134000Y430750D02*
D03*
Y399250D02*
D03*
D21*
X300158Y94950D02*
D03*
Y69550D02*
D03*
Y44150D02*
D03*
Y18750D02*
D03*
Y120350D02*
D03*
Y145750D02*
D03*
Y196550D02*
D03*
Y221950D02*
D03*
Y171150D02*
D03*
Y298150D02*
D03*
Y272750D02*
D03*
Y247350D02*
D03*
Y425150D02*
D03*
Y399750D02*
D03*
Y374350D02*
D03*
Y348950D02*
D03*
Y501350D02*
D03*
Y450550D02*
D03*
Y475850D02*
D03*
Y323550D02*
D03*
X97038Y44100D02*
D03*
Y69548D02*
D03*
Y94943D02*
D03*
Y18750D02*
D03*
Y120350D02*
D03*
Y145750D02*
D03*
Y298150D02*
D03*
Y323550D02*
D03*
Y348950D02*
D03*
Y374350D02*
D03*
Y272750D02*
D03*
Y247350D02*
D03*
Y501350D02*
D03*
Y399750D02*
D03*
Y425150D02*
D03*
Y450550D02*
D03*
Y475950D02*
D03*
Y221950D02*
D03*
Y196550D02*
D03*
Y171150D02*
D03*
D22*
X140698Y274200D02*
D03*
X161698D02*
D03*
X140448Y293950D02*
D03*
X161448D02*
D03*
X212948Y19831D02*
D03*
X233948D02*
D03*
X212948Y61418D02*
D03*
X233948D02*
D03*
Y103005D02*
D03*
X212948D02*
D03*
Y144592D02*
D03*
X233948D02*
D03*
Y186178D02*
D03*
X212948D02*
D03*
Y227765D02*
D03*
X233948D02*
D03*
Y269352D02*
D03*
X212948D02*
D03*
Y310939D02*
D03*
X233948D02*
D03*
Y352526D02*
D03*
X212948D02*
D03*
Y394113D02*
D03*
X233948D02*
D03*
Y435700D02*
D03*
X212948D02*
D03*
Y477287D02*
D03*
X233948D02*
D03*
X141448Y121950D02*
D03*
X162448D02*
D03*
Y198450D02*
D03*
X141448D02*
D03*
X154335Y500750D02*
D03*
X133335D02*
D03*
X212948Y40624D02*
D03*
X233948D02*
D03*
Y82211D02*
D03*
X212948D02*
D03*
X233948Y123798D02*
D03*
X212948D02*
D03*
Y165385D02*
D03*
X233948D02*
D03*
Y206972D02*
D03*
X212948D02*
D03*
X233948Y248559D02*
D03*
X212948D02*
D03*
Y290146D02*
D03*
X233948D02*
D03*
Y331733D02*
D03*
X212948D02*
D03*
X233948Y373320D02*
D03*
X212948D02*
D03*
Y414906D02*
D03*
X233948D02*
D03*
Y456493D02*
D03*
X212948D02*
D03*
Y498080D02*
D03*
X233948D02*
D03*
X162448Y163950D02*
D03*
X141448D02*
D03*
X162448Y142450D02*
D03*
X141448D02*
D03*
X162448Y240950D02*
D03*
X141448D02*
D03*
X162448Y219700D02*
D03*
X141448D02*
D03*
X161948Y314200D02*
D03*
X140948D02*
D03*
D32*
X209198Y615375D02*
D03*
X234198D02*
D03*
X259198D02*
D03*
X209198Y760375D02*
D03*
X259198D02*
D03*
D34*
X342725Y764702D02*
X383523Y805500D01*
X337500Y758500D02*
X342725Y763725D01*
Y764702D01*
X140698Y284131D02*
X141810Y285243D01*
Y292838D01*
X140698Y293950D02*
X141810Y292838D01*
Y275312D02*
Y284131D01*
X140698Y274200D02*
X141810Y275312D01*
X140698Y293950D02*
Y313950D01*
X212104Y415750D02*
X212948Y414906D01*
X198500Y415750D02*
X212104D01*
X199436Y436250D02*
X212398D01*
X197310Y437440D02*
X198246D01*
X199436Y436250D01*
X212398D02*
X212948Y435700D01*
X198500Y397720D02*
X199436D01*
X203044Y394113D01*
X212948D01*
X198480Y377978D02*
X203138Y373320D01*
X198347Y377978D02*
X198480D01*
X203138Y373320D02*
X212948D01*
X253448Y456081D02*
X264086Y466719D01*
Y467551D01*
X252948Y497581D02*
X253085Y497718D01*
Y523500D01*
X252948Y476581D02*
X265317D01*
X252948Y456081D02*
X253448D01*
X265317Y476581D02*
X275366Y466531D01*
Y388941D02*
Y466531D01*
X234654Y476581D02*
X252948D01*
X155250Y258750D02*
X161698Y265198D01*
Y274200D01*
X145000Y258750D02*
X155250D01*
X96700Y475108D02*
Y475950D01*
X87216Y469216D02*
X90808D01*
X54612Y443362D02*
X61362D01*
X90808Y469216D02*
X96700Y475108D01*
X61362Y443362D02*
X87216Y469216D01*
X49750Y438500D02*
X54612Y443362D01*
X96700Y475950D02*
X109698D01*
X49750Y413100D02*
X70600D01*
X82650Y425150D01*
X109698D01*
X49750Y387700D02*
X67950D01*
X80000Y399750D01*
X109698D01*
X49750Y362300D02*
X66550D01*
X78600Y374350D01*
X109698D01*
X49750Y336900D02*
X64900D01*
X76950Y348950D01*
X109698D01*
X49750Y311500D02*
X63000D01*
X76350Y298150D01*
X109698D01*
X49750Y260700D02*
X62050D01*
X75400Y247350D01*
X109698D01*
X49750Y235300D02*
X66950D01*
X80300Y221950D02*
X97038D01*
X66950Y235300D02*
X80300Y221950D01*
X97038D02*
X109698D01*
X49750Y209900D02*
X60800D01*
X90820Y179880D01*
X103428D01*
X109698Y173610D01*
Y171150D02*
Y173610D01*
X484165Y389664D02*
X484250Y389750D01*
X401250Y389500D02*
X401414Y389664D01*
X484165D01*
X660422Y412250D02*
X674172Y398500D01*
X399500Y407000D02*
X404750Y412250D01*
X660422D01*
X376000Y219328D02*
X663596D01*
X675997Y206928D01*
X377000Y239000D02*
X831216D01*
X868250Y201966D01*
X380544Y197500D02*
X482250D01*
X365948Y182904D02*
X380544Y197500D01*
X383523Y805500D02*
X667924D01*
X674144Y799280D01*
X326615Y775997D02*
X372369Y821750D01*
X846000D01*
X869250Y798500D01*
X350000Y747750D02*
X394000Y791750D01*
X480750D01*
X838164Y628586D02*
X869750Y597000D01*
X381608Y628586D02*
X838164D01*
X395006Y426250D02*
X841250D01*
X390796Y422040D02*
X395006Y426250D01*
X841250D02*
X868000Y399500D01*
X481844Y595156D02*
X482250Y594750D01*
X393272Y595156D02*
X481844D01*
X655250Y612000D02*
X672750Y594500D01*
X388000Y612000D02*
X655250D01*
X197319Y207313D02*
X212607D01*
X212948Y206972D01*
X164145Y464395D02*
Y520855D01*
X111250Y569000D02*
X116000D01*
X164145Y520855D01*
X233948Y310939D02*
Y331733D01*
Y310939D02*
X234306Y310581D01*
X252948D01*
X200025Y251219D02*
X202439Y248805D01*
X212701D01*
X199088Y251219D02*
X200025D01*
X212701Y248805D02*
X212948Y248559D01*
X768835Y115500D02*
X769835Y116500D01*
X756000Y115500D02*
X768835D01*
X575585Y312500D02*
X575750Y312335D01*
Y300500D02*
Y312335D01*
X575085Y116750D02*
X575500Y116335D01*
Y104500D02*
Y116335D01*
X361000Y71500D02*
X370750D01*
X324835Y107665D02*
Y386500D01*
Y107665D02*
X361000Y71500D01*
X574835Y509750D02*
X575250Y509335D01*
Y498000D02*
Y509335D01*
X769300Y312215D02*
X769585Y312500D01*
X769300Y300655D02*
Y312215D01*
X769500Y508915D02*
X769585Y509000D01*
X769500Y495250D02*
Y508915D01*
X769797Y705847D02*
X770500Y705143D01*
Y693750D02*
Y705143D01*
X575585Y706750D02*
X576043Y706292D01*
Y695004D02*
Y706292D01*
X381457Y704372D02*
X381835Y704750D01*
X381457Y693015D02*
Y704372D01*
X381750Y508915D02*
X382085Y509250D01*
X381750Y497000D02*
Y508915D01*
X382750Y298250D02*
Y311585D01*
X382585Y311750D02*
X382750Y311585D01*
X382000Y116415D02*
X382585Y117000D01*
X382000Y100500D02*
Y116415D01*
X253448Y414581D02*
X263233Y424366D01*
Y425034D01*
X252948Y414581D02*
X253448D01*
X275366Y388941D02*
X287498Y376810D01*
X270286Y384612D02*
Y427612D01*
Y384612D02*
X276148Y378750D01*
X262817Y435081D02*
X270286Y427612D01*
X172959Y122689D02*
X173896D01*
X171521Y121250D02*
X172959Y122689D01*
X163148Y121250D02*
X171521D01*
X162448Y121950D02*
X163148Y121250D01*
X161948Y314200D02*
X162898Y313250D01*
X175750D01*
X161448Y293950D02*
X162148Y293250D01*
X173250D01*
X122750Y455250D02*
X132000Y464500D01*
X109698Y450550D02*
X114398Y455250D01*
X122750D01*
X132000Y464500D02*
Y471500D01*
X212067Y497200D02*
X212948Y498080D01*
X198500Y497200D02*
X212067D01*
X212931Y477304D02*
X212948Y477287D01*
X198500Y477304D02*
X212931D01*
X212033Y457408D02*
X212948Y456493D01*
X198500Y457408D02*
X212033D01*
X212474Y353000D02*
X212948Y352526D01*
X198500Y353000D02*
X212474D01*
X212188Y332493D02*
X212948Y331733D01*
X197398Y332493D02*
X212188D01*
X212009Y310000D02*
X212948Y310939D01*
X198750Y310000D02*
X212009D01*
X211552Y288750D02*
X212948Y290146D01*
X198750Y288750D02*
X211552D01*
X197398Y272806D02*
X200851Y269352D01*
X212948D01*
X212246Y227064D02*
X212948Y227765D01*
X198769Y227064D02*
X212246D01*
X199749Y178408D02*
X204626Y183285D01*
X210054D02*
X212948Y186178D01*
X204626Y183285D02*
X210054D01*
X199749Y177618D02*
Y178408D01*
X212073Y164511D02*
X212948Y165385D01*
X197398Y164511D02*
X212073D01*
X212499Y145040D02*
X212948Y144592D01*
X197398Y145040D02*
X212499D01*
X162495Y198403D02*
X173298D01*
X162448Y198450D02*
X162495Y198403D01*
X162241Y226406D02*
Y252927D01*
Y226406D02*
X162448Y226200D01*
X141250Y183750D02*
Y198252D01*
X141448Y198450D02*
Y219700D01*
X141250Y198252D02*
X141448Y198450D01*
X162448Y163950D02*
X163000Y164502D01*
Y176750D01*
X162448Y142450D02*
Y163950D01*
X211900Y122750D02*
X212948Y123798D01*
X198500Y122750D02*
X211900D01*
X212443Y102500D02*
X212948Y103005D01*
X198500Y102500D02*
X212443D01*
X198500Y82000D02*
X212737D01*
X212948Y82211D01*
X211022Y59492D02*
X212948Y61418D01*
X198500Y59492D02*
X211022D01*
X211919Y39596D02*
X212948Y40624D01*
X198500Y39596D02*
X211919D01*
X212817Y19700D02*
X212948Y19831D01*
X198500Y19700D02*
X212817D01*
X674172Y398500D02*
X674250D01*
X141500Y451500D02*
X141854Y451146D01*
X150896D02*
X164145Y464395D01*
X141854Y451146D02*
X150896D01*
X135178Y451178D02*
X141178D01*
X141500Y451500D01*
X132000Y448000D02*
X135178Y451178D01*
X132000Y432750D02*
Y448000D01*
X152500Y498915D02*
X154335Y500750D01*
X151000Y471500D02*
X152500Y473000D01*
Y498915D01*
X132000Y432750D02*
X134000Y430750D01*
X109698Y501350D02*
X110298Y500750D01*
X133335D01*
X141448Y132200D02*
Y142450D01*
Y121950D02*
Y132200D01*
X140698Y313950D02*
X140948Y314200D01*
X162448Y219700D02*
Y226200D01*
X311585Y399750D02*
X324835Y386500D01*
X287498Y399750D02*
X300158D01*
X311585D01*
X261770Y248128D02*
X264638Y245260D01*
Y238950D02*
Y245260D01*
Y238950D02*
X265138Y238450D01*
X252948Y82581D02*
X253067Y82700D01*
X264698D01*
X253817Y41950D02*
X266198D01*
X252948Y41081D02*
X253817Y41950D01*
X233948Y477287D02*
Y498080D01*
Y477287D02*
X234654Y476581D01*
X287498Y374350D02*
Y376810D01*
X234567Y435081D02*
X252948D01*
X262817D01*
X276148Y362750D02*
Y378750D01*
X281218Y357680D02*
X281228D01*
X276148Y362750D02*
X281218Y357680D01*
X281228D02*
X287498Y351410D01*
Y348950D02*
Y351410D01*
X271068Y352580D02*
X275338Y348310D01*
Y312770D02*
Y348310D01*
X271068Y352580D02*
Y374790D01*
X233948Y435700D02*
Y456493D01*
Y435700D02*
X234567Y435081D01*
X261535Y394113D02*
X264618Y391030D01*
X233948Y394113D02*
X252948D01*
X264618Y381240D02*
Y391030D01*
X252948Y394113D02*
X261535D01*
X264618Y381240D02*
X271068Y374790D01*
X253420Y372608D02*
X263619D01*
X233948Y394113D02*
Y414906D01*
X275338Y312770D02*
X287498Y300610D01*
Y298150D02*
Y300610D01*
X270258Y310456D02*
Y344640D01*
X262817Y352081D02*
X270258Y344640D01*
X234393Y352081D02*
X262817D01*
X252948Y373081D02*
X253420Y372608D01*
X287498Y120350D02*
Y121242D01*
X277636Y127512D02*
X281228D01*
X287498Y121242D01*
X254901Y142628D02*
X262520D01*
X277636Y127512D01*
X253151Y185878D02*
X261770D01*
X265368Y174280D02*
Y182280D01*
X252948Y186081D02*
X253151Y185878D01*
X261770D02*
X265368Y182280D01*
X234046Y186081D02*
X252948D01*
X270391Y153757D02*
Y169257D01*
X265368Y174280D02*
X270391Y169257D01*
X253412Y165117D02*
X263581D01*
X252948Y165581D02*
X253412Y165117D01*
X270448Y177450D02*
Y218700D01*
Y177450D02*
X276748Y171150D01*
X287498D01*
X273508Y226890D02*
X277636Y222762D01*
X286686D01*
X273508Y226890D02*
Y243574D01*
X286686Y222762D02*
X287498Y221950D01*
X264928Y252154D02*
Y265970D01*
X261546Y269352D02*
X264928Y265970D01*
X270008Y255390D02*
Y301890D01*
Y255390D02*
X277136Y248262D01*
X264928Y252154D02*
X273508Y243574D01*
X252948Y269352D02*
X261546D01*
X253401Y248128D02*
X261770D01*
X252948Y248581D02*
X253401Y248128D01*
X277136Y248262D02*
X286586D01*
X287498Y247350D01*
X281168Y281480D02*
X281228D01*
X287498Y272750D02*
Y275210D01*
X275088Y287560D02*
Y305626D01*
X281228Y281480D02*
X287498Y275210D01*
X275088Y287560D02*
X281168Y281480D01*
X252948Y310581D02*
X253401Y310128D01*
X261770D01*
X270008Y301890D01*
X270258Y310456D02*
X275088Y305626D01*
X252948Y331581D02*
X263317D01*
X263448Y331450D01*
X233948Y352526D02*
Y373320D01*
Y352526D02*
X234393Y352081D01*
X263067Y290081D02*
X263198Y289950D01*
X252948Y290081D02*
X263067D01*
X261770Y227378D02*
X270448Y218700D01*
X253857Y206172D02*
X263638D01*
X233948Y269352D02*
X252948D01*
X233948D02*
Y290146D01*
X253151Y227378D02*
X261770D01*
X252948Y227581D02*
X253151Y227378D01*
X234132Y227581D02*
X252948D01*
X233948Y227765D02*
Y248559D01*
Y227765D02*
X234132Y227581D01*
X252948Y207081D02*
X253857Y206172D01*
X277636Y146512D02*
X286736D01*
X270391Y153757D02*
X277636Y146512D01*
X286736D02*
X287498Y145750D01*
X233948Y186178D02*
Y206972D01*
Y186178D02*
X234046Y186081D01*
X252948Y144581D02*
X254901Y142628D01*
X233948Y144592D02*
Y165385D01*
Y144592D02*
X233959Y144581D01*
X252948D01*
X253913Y123116D02*
X263680D01*
X252948Y124081D02*
X253913Y123116D01*
X233948Y103005D02*
Y123798D01*
Y103005D02*
X263643D01*
X271698Y94950D01*
X287498D01*
X277636Y46262D02*
X285386D01*
X287498Y44150D01*
X262317Y61581D02*
X277636Y46262D01*
X252948Y61581D02*
X262317D01*
X234111D02*
X252948D01*
X233948Y61418D02*
Y82211D01*
Y61418D02*
X234111Y61581D01*
X233948Y20081D02*
X286167D01*
X287498Y18750D01*
X233948Y20081D02*
Y40624D01*
Y20081D02*
X233948Y20081D01*
D35*
X650990Y718914D02*
D03*
X845687Y718766D02*
D03*
X457717Y128156D02*
D03*
X650725Y128821D02*
D03*
X845687Y128906D02*
D03*
X457717Y323406D02*
D03*
X651217Y323906D02*
D03*
X845687Y323910D02*
D03*
X457717Y521156D02*
D03*
X650256Y521663D02*
D03*
X846008Y522576D02*
D03*
X456887Y718486D02*
D03*
D36*
X677490Y757914D02*
D03*
X702990Y694164D02*
D03*
X897688Y694016D02*
D03*
X872187Y757766D02*
D03*
X509717Y103406D02*
D03*
X484217Y167156D02*
D03*
X702725Y104071D02*
D03*
X677225Y167821D02*
D03*
X872187Y167906D02*
D03*
X897688Y104156D02*
D03*
X484217Y362406D02*
D03*
X509717Y298656D02*
D03*
X703217Y299156D02*
D03*
X677717Y362906D02*
D03*
X897688Y299160D02*
D03*
X872187Y362910D02*
D03*
X484217Y560156D02*
D03*
X509717Y496406D02*
D03*
X676756Y560663D02*
D03*
X702256Y496913D02*
D03*
X872507Y561576D02*
D03*
X898008Y497826D02*
D03*
X508887Y693736D02*
D03*
X483387Y757486D02*
D03*
D37*
X109698Y18750D02*
D03*
Y44150D02*
D03*
Y69550D02*
D03*
Y120350D02*
D03*
Y94950D02*
D03*
Y323550D02*
D03*
Y298150D02*
D03*
Y450550D02*
D03*
Y348950D02*
D03*
Y399750D02*
D03*
Y425150D02*
D03*
Y374350D02*
D03*
Y475950D02*
D03*
Y501350D02*
D03*
Y196550D02*
D03*
Y221950D02*
D03*
Y272750D02*
D03*
Y247350D02*
D03*
Y145750D02*
D03*
Y171150D02*
D03*
X287498Y18750D02*
D03*
Y69550D02*
D03*
Y94950D02*
D03*
Y120350D02*
D03*
Y145750D02*
D03*
Y44150D02*
D03*
Y298150D02*
D03*
Y374350D02*
D03*
Y272750D02*
D03*
Y425150D02*
D03*
Y399750D02*
D03*
Y348950D02*
D03*
Y323550D02*
D03*
Y247350D02*
D03*
Y221950D02*
D03*
Y196550D02*
D03*
Y171150D02*
D03*
Y501350D02*
D03*
Y475950D02*
D03*
Y450550D02*
D03*
X49750Y463900D02*
D03*
Y438500D02*
D03*
Y413100D02*
D03*
Y362300D02*
D03*
Y387700D02*
D03*
Y184500D02*
D03*
Y286100D02*
D03*
Y260700D02*
D03*
Y209900D02*
D03*
Y235300D02*
D03*
Y336900D02*
D03*
Y311500D02*
D03*
Y159100D02*
D03*
D38*
X179198Y690375D02*
D03*
X289198D02*
D03*
D39*
X52000Y690000D02*
D03*
X128000D02*
D03*
D40*
X337500Y758500D02*
D03*
X141810Y284131D02*
D03*
X198500Y415750D02*
D03*
X197310Y437440D02*
D03*
X198500Y397720D02*
D03*
X198347Y377978D02*
D03*
X264086Y467551D02*
D03*
X253085Y523500D02*
D03*
X370500Y62500D02*
D03*
X401250Y389500D02*
D03*
X377000Y239000D02*
D03*
X376000Y219328D02*
D03*
X482441Y197504D02*
D03*
X365948Y182904D02*
D03*
X326615Y775997D02*
D03*
X350000Y747750D02*
D03*
X381608Y628586D02*
D03*
X484263Y389829D02*
D03*
X390796Y422040D02*
D03*
X399500Y407000D02*
D03*
X869250Y798500D02*
D03*
X674144Y799280D02*
D03*
X480750Y791750D02*
D03*
X481868Y594845D02*
D03*
X393272Y595156D02*
D03*
X388000Y612000D02*
D03*
X197319Y207313D02*
D03*
X199088Y251219D02*
D03*
X111250Y569000D02*
D03*
X788250Y168750D02*
D03*
X756000Y115500D02*
D03*
X594236Y363649D02*
D03*
X575750Y300500D02*
D03*
X593663Y168455D02*
D03*
X575500Y104500D02*
D03*
X370750Y71500D02*
D03*
X593302Y561071D02*
D03*
X575250Y498000D02*
D03*
X769300Y300655D02*
D03*
X788676Y362459D02*
D03*
X769500Y495250D02*
D03*
X788500Y561250D02*
D03*
X788928Y758788D02*
D03*
X770500Y693750D02*
D03*
X594358Y758354D02*
D03*
X576043Y695004D02*
D03*
X400186Y758923D02*
D03*
X381457Y693015D02*
D03*
X400864Y561597D02*
D03*
X381750Y497000D02*
D03*
X400274Y365196D02*
D03*
X382750Y298250D02*
D03*
X401250Y171500D02*
D03*
X382000Y100500D02*
D03*
X263233Y425034D02*
D03*
X145000Y258750D02*
D03*
X173896Y122689D02*
D03*
X175750Y313250D02*
D03*
X173250Y293250D02*
D03*
X173298Y198403D02*
D03*
X199749Y177618D02*
D03*
X162241Y252927D02*
D03*
X141250Y183750D02*
D03*
X163147Y176603D02*
D03*
X198500Y82000D02*
D03*
X905500Y67000D02*
D03*
X891250Y66750D02*
D03*
X709750D02*
D03*
X697500D02*
D03*
X517000Y66000D02*
D03*
X503800Y66286D02*
D03*
X868175Y202041D02*
D03*
X675997Y206928D02*
D03*
X869750Y597000D02*
D03*
X672750Y594500D02*
D03*
X868000Y399500D02*
D03*
X674253Y398419D02*
D03*
X141448Y132200D02*
D03*
X503948Y456450D02*
D03*
X265138Y238450D02*
D03*
X264698Y82700D02*
D03*
X266198Y41950D02*
D03*
X263619Y372608D02*
D03*
X263581Y165117D02*
D03*
X263448Y331450D02*
D03*
X263198Y289950D02*
D03*
X263638Y206172D02*
D03*
X263680Y123116D02*
D03*
X198769Y227064D02*
D03*
X198500Y353000D02*
D03*
Y497200D02*
D03*
Y477304D02*
D03*
Y457408D02*
D03*
X198750Y288750D02*
D03*
X197398Y272806D02*
D03*
X198750Y310000D02*
D03*
X197398Y332493D02*
D03*
Y164511D02*
D03*
Y145040D02*
D03*
X198500Y122750D02*
D03*
Y102500D02*
D03*
Y59492D02*
D03*
Y39596D02*
D03*
Y19700D02*
D03*
X905448Y650700D02*
D03*
X891698D02*
D03*
X710448D02*
D03*
X697448Y650950D02*
D03*
X515198Y649950D02*
D03*
X501948D02*
D03*
X904698Y456950D02*
D03*
X892448D02*
D03*
X708948Y455700D02*
D03*
X696597Y456001D02*
D03*
X516198Y456200D02*
D03*
Y257700D02*
D03*
X503698D02*
D03*
X696948Y258950D02*
D03*
X711448Y259200D02*
D03*
X891698Y258450D02*
D03*
X905948Y258700D02*
D03*
M02*
