G04*
G04 #@! TF.GenerationSoftware,Altium Limited,Altium Designer,26.5.0 (11)*
G04*
G04 Layer_Color=65535*
G04 Board_Origin=72964651|65651580*
%FSLAX44Y44*%
%MOMM*%
G71*
G04*
G04 #@! TF.SameCoordinates,0E16F24D-C74D-4210-9216-EA7F7333114A*
G04*
G04*
G04 #@! TF.FilePolarity,Positive*
G04*
G01*
G75*
%ADD10C,1.0000*%
%ADD11C,0.2000*%
%ADD12C,0.5080*%
%ADD13C,0.1270*%
%ADD14C,0.8000*%
%ADD15C,0.1524*%
%ADD16C,0.2650*%
%ADD17C,0.2648*%
D10*
X685740Y826414D02*
G03*
X685740Y826414I-1000J0D01*
G01*
X880437Y826266D02*
G03*
X880437Y826266I-1000J0D01*
G01*
X492467Y235656D02*
G03*
X492467Y235656I-1000J0D01*
G01*
X685475Y236321D02*
G03*
X685475Y236321I-1000J0D01*
G01*
X880437Y236406D02*
G03*
X880437Y236406I-1000J0D01*
G01*
X492467Y430906D02*
G03*
X492467Y430906I-1000J0D01*
G01*
X685967Y431406D02*
G03*
X685967Y431406I-1000J0D01*
G01*
X880437Y431410D02*
G03*
X880437Y431410I-1000J0D01*
G01*
X492467Y628656D02*
G03*
X492467Y628656I-1000J0D01*
G01*
X685006Y629163D02*
G03*
X685006Y629163I-1000J0D01*
G01*
X880758Y630076D02*
G03*
X880758Y630076I-1000J0D01*
G01*
X491637Y825986D02*
G03*
X491637Y825986I-1000J0D01*
G01*
X968757Y10069D02*
G03*
X1006698Y48010I0J37941D01*
G01*
X1006698Y822410D02*
G03*
X968858Y860250I-37839J1D01*
G01*
X44498Y860250D02*
G03*
X6698Y822450I-0J-37800D01*
G01*
X6698Y42450D02*
G03*
X39079Y10069I32381J0D01*
G01*
X277079D02*
X968757D01*
X1006698Y48010D02*
Y822410D01*
X44498Y860250D02*
X968858Y860250D01*
X6698Y822450D02*
X6698Y42450D01*
X39079Y10069D02*
X133518D01*
X277079D01*
D11*
X167250Y481500D02*
G03*
X167250Y481500I-1000J0D01*
G01*
X141500Y398000D02*
G03*
X141500Y398000I-1000J0D01*
G01*
X573740Y648164D02*
X591740D01*
X573740D02*
Y649164D01*
X721240Y648414D02*
X741240D01*
Y649164D01*
Y663664D01*
X613490Y766164D02*
X619240D01*
X573740Y649164D02*
Y658414D01*
X614490Y689164D02*
X619240D01*
X573740Y795164D02*
Y811886D01*
X573976D01*
Y811914D01*
X587990D01*
X741490Y792664D02*
Y812664D01*
X740740D02*
X741490D01*
X726240D02*
X740740D01*
X920938Y812516D02*
X935437D01*
X936187D01*
Y792516D02*
Y812516D01*
X768673Y811766D02*
X782687D01*
X768673Y811738D02*
Y811766D01*
X768437Y811738D02*
X768673D01*
X768437Y795016D02*
Y811738D01*
X809187Y689016D02*
X813937D01*
X768437Y649016D02*
Y658266D01*
X808187Y766016D02*
X813937D01*
X935937Y649016D02*
Y663516D01*
Y648266D02*
Y649016D01*
X915937Y648266D02*
X935937D01*
X768437Y648016D02*
Y649016D01*
Y648016D02*
X786437D01*
X132000Y457500D02*
X139000D01*
X132000D02*
Y471500D01*
X157500Y457500D02*
X164500D01*
Y471500D01*
X177198Y274700D02*
Y293700D01*
X138698Y274700D02*
X177198D01*
X138698D02*
Y293700D01*
X177198D01*
X176948Y294450D02*
Y313450D01*
X138448Y294450D02*
X176948D01*
X138448D02*
Y313450D01*
X176948D01*
X210948Y20331D02*
X249448D01*
Y39331D01*
X210948D02*
X249448D01*
X210948Y20331D02*
Y39331D01*
Y61918D02*
X249448D01*
Y80918D01*
X210948D02*
X249448D01*
X210948Y61918D02*
Y80918D01*
Y103505D02*
Y122505D01*
X249448D01*
Y103505D02*
Y122505D01*
X210948Y103505D02*
X249448D01*
X210948Y145091D02*
X249448D01*
Y164091D01*
X210948D02*
X249448D01*
X210948Y145091D02*
Y164091D01*
Y186678D02*
Y205678D01*
X249448D01*
Y186678D02*
Y205678D01*
X210948Y186678D02*
X249448D01*
X210948Y228265D02*
X249448D01*
Y247265D01*
X210948D02*
X249448D01*
X210948Y228265D02*
Y247265D01*
Y269852D02*
Y288852D01*
X249448D01*
Y269852D02*
Y288852D01*
X210948Y269852D02*
X249448D01*
X210948Y311439D02*
X249448D01*
Y330439D01*
X210948D02*
X249448D01*
X210948Y311439D02*
Y330439D01*
Y353026D02*
Y372026D01*
X249448D01*
Y353026D02*
Y372026D01*
X210948Y353026D02*
X249448D01*
X210948Y394613D02*
X249448D01*
Y413613D01*
X210948D02*
X249448D01*
X210948Y394613D02*
Y413613D01*
Y436200D02*
Y455200D01*
X249448D01*
Y436200D02*
Y455200D01*
X210948Y436200D02*
X249448D01*
X210948Y477787D02*
X249448D01*
Y496787D01*
X210948D02*
X249448D01*
X210948Y477787D02*
Y496787D01*
X379835Y118250D02*
X398835D01*
X379835D02*
Y156750D01*
X398835D01*
Y118250D02*
Y156750D01*
X591335Y118000D02*
Y156500D01*
X572335D02*
X591335D01*
X572335Y118000D02*
Y156500D01*
Y118000D02*
X591335D01*
X767085Y117750D02*
X786085D01*
X767085D02*
Y156250D01*
X786085D01*
Y117750D02*
Y156250D01*
X398835Y313000D02*
Y351500D01*
X379835D02*
X398835D01*
X379835Y313000D02*
Y351500D01*
Y313000D02*
X398835D01*
X572085Y511000D02*
X591085D01*
X572085D02*
Y549500D01*
X591085D01*
Y511000D02*
Y549500D01*
X379335Y510500D02*
X398335D01*
X379335D02*
Y549000D01*
X398335D01*
Y510500D02*
Y549000D01*
X766835Y313750D02*
X785835D01*
X766835D02*
Y352250D01*
X785835D01*
Y313750D02*
Y352250D01*
X591835Y313750D02*
Y352250D01*
X572835D02*
X591835D01*
X572835Y313750D02*
Y352250D01*
Y313750D02*
X591835D01*
X766835Y510250D02*
X785835D01*
X766835D02*
Y548750D01*
X785835D01*
Y510250D02*
Y548750D01*
X398085Y706000D02*
Y744500D01*
X379085D02*
X398085D01*
X379085Y706000D02*
Y744500D01*
Y706000D02*
X398085D01*
X572835Y708000D02*
X591835D01*
X572835D02*
Y746500D01*
X591835D01*
Y708000D02*
Y746500D01*
X786047Y707097D02*
Y745597D01*
X767047D02*
X786047D01*
X767047Y707097D02*
Y745597D01*
Y707097D02*
X786047D01*
X177948Y122450D02*
Y141450D01*
X139448Y122450D02*
X177948D01*
X139448D02*
Y141450D01*
X177948D01*
X139448Y217950D02*
X177948D01*
X139448Y198950D02*
Y217950D01*
Y198950D02*
X177948D01*
Y217950D01*
X131335Y501250D02*
Y520250D01*
X169835D01*
Y501250D02*
Y520250D01*
X131335Y501250D02*
X169835D01*
X210948Y41124D02*
X249448D01*
Y60124D01*
X210948D02*
X249448D01*
X210948Y41124D02*
Y60124D01*
Y82711D02*
Y101711D01*
X249448D01*
Y82711D02*
Y101711D01*
X210948Y82711D02*
X249448D01*
X210948Y143298D02*
X249448D01*
X210948Y124298D02*
Y143298D01*
Y124298D02*
X249448D01*
Y143298D01*
Y165885D02*
Y184885D01*
X210948Y165885D02*
X249448D01*
X210948D02*
Y184885D01*
X249448D01*
X210948Y226472D02*
X249448D01*
X210948Y207472D02*
Y226472D01*
Y207472D02*
X249448D01*
Y226472D01*
X210948Y249059D02*
Y268059D01*
X249448D01*
Y249059D02*
Y268059D01*
X210948Y249059D02*
X249448D01*
X210948Y290646D02*
X249448D01*
Y309646D01*
X210948D02*
X249448D01*
X210948Y290646D02*
Y309646D01*
Y332233D02*
Y351233D01*
X249448D01*
Y332233D02*
Y351233D01*
X210948Y332233D02*
X249448D01*
X210948Y392820D02*
X249448D01*
X210948Y373820D02*
Y392820D01*
Y373820D02*
X249448D01*
Y392820D01*
Y415406D02*
Y434406D01*
X210948Y415406D02*
X249448D01*
X210948D02*
Y434406D01*
X249448D01*
X210948Y475993D02*
X249448D01*
X210948Y456993D02*
Y475993D01*
Y456993D02*
X249448D01*
Y475993D01*
Y498580D02*
Y517580D01*
X210948Y498580D02*
X249448D01*
X210948D02*
Y517580D01*
X249448D01*
X532967Y221906D02*
X547467D01*
X548217D01*
Y201906D02*
Y221906D01*
X380703Y221156D02*
X394717D01*
X380703Y221128D02*
Y221156D01*
X380467Y221128D02*
X380703D01*
X380467Y204406D02*
Y221128D01*
X421217Y98406D02*
X425967D01*
X380467Y58406D02*
Y67656D01*
X420217Y175406D02*
X425967D01*
X547967Y58406D02*
Y72906D01*
Y57656D02*
Y58406D01*
X527967Y57656D02*
X547967D01*
X380467Y57406D02*
Y58406D01*
Y57406D02*
X398467D01*
X725975Y222571D02*
X740475D01*
X741225D01*
Y202571D02*
Y222571D01*
X573711Y221821D02*
X587725D01*
X573711Y221793D02*
Y221821D01*
X573475Y221793D02*
X573711D01*
X573475Y205071D02*
Y221793D01*
X614225Y99071D02*
X618975D01*
X573475Y59071D02*
Y68321D01*
X613225Y176071D02*
X618975D01*
X740975Y59071D02*
Y73571D01*
Y58321D02*
Y59071D01*
X720975Y58321D02*
X740975D01*
X573475Y58071D02*
Y59071D01*
Y58071D02*
X591475D01*
X768437Y58156D02*
X786437D01*
X768437D02*
Y59156D01*
X915937Y58406D02*
X935937D01*
Y59156D01*
Y73656D01*
X808187Y176156D02*
X813937D01*
X768437Y59156D02*
Y68406D01*
X809187Y99156D02*
X813937D01*
X768437Y205156D02*
Y221878D01*
X768673D01*
Y221906D01*
X782687D01*
X936187Y202656D02*
Y222656D01*
X935437D02*
X936187D01*
X920938D02*
X935437D01*
X380467Y252656D02*
X398467D01*
X380467D02*
Y253656D01*
X527967Y252906D02*
X547967D01*
Y253656D01*
Y268156D01*
X420217Y370656D02*
X425967D01*
X380467Y253656D02*
Y262906D01*
X421217Y293656D02*
X425967D01*
X380467Y399656D02*
Y416378D01*
X380703D01*
Y416406D01*
X394717D01*
X548217Y397156D02*
Y417156D01*
X547467D02*
X548217D01*
X532967D02*
X547467D01*
X726467Y417656D02*
X740967D01*
X741717D01*
Y397656D02*
Y417656D01*
X574203Y416906D02*
X588217D01*
X574203Y416878D02*
Y416906D01*
X573967Y416878D02*
X574203D01*
X573967Y400156D02*
Y416878D01*
X614717Y294156D02*
X619467D01*
X573967Y254156D02*
Y263406D01*
X613717Y371156D02*
X619467D01*
X741467Y254156D02*
Y268656D01*
Y253406D02*
Y254156D01*
X721467Y253406D02*
X741467D01*
X573967Y253156D02*
Y254156D01*
Y253156D02*
X591967D01*
X920938Y417660D02*
X935437D01*
X936187D01*
Y397660D02*
Y417660D01*
X768673Y416910D02*
X782687D01*
X768673Y416882D02*
Y416910D01*
X768437Y416882D02*
X768673D01*
X768437Y400160D02*
Y416882D01*
X809187Y294160D02*
X813937D01*
X768437Y254160D02*
Y263410D01*
X808187Y371160D02*
X813937D01*
X935937Y254160D02*
Y268660D01*
Y253410D02*
Y254160D01*
X915937Y253410D02*
X935937D01*
X768437Y253160D02*
Y254160D01*
Y253160D02*
X786437D01*
X380467Y450406D02*
X398467D01*
X380467D02*
Y451406D01*
X527967Y450656D02*
X547967D01*
Y451406D01*
Y465906D01*
X420217Y568406D02*
X425967D01*
X380467Y451406D02*
Y460656D01*
X421217Y491406D02*
X425967D01*
X380467Y597406D02*
Y614128D01*
X380703D01*
Y614156D01*
X394717D01*
X548217Y594906D02*
Y614906D01*
X547467D02*
X548217D01*
X532967D02*
X547467D01*
X573006Y450913D02*
X591006D01*
X573006D02*
Y451913D01*
X720506Y451163D02*
X740506D01*
Y451913D01*
Y466413D01*
X612756Y568913D02*
X618506D01*
X573006Y451913D02*
Y461163D01*
X613756Y491913D02*
X618506D01*
X573006Y597913D02*
Y614635D01*
X573242D01*
Y614663D01*
X587256D01*
X740756Y595413D02*
Y615413D01*
X740006D02*
X740756D01*
X725506D02*
X740006D01*
X768757Y451826D02*
X786758D01*
X768757D02*
Y452826D01*
X916257Y452076D02*
X936257D01*
Y452826D01*
Y467326D01*
X808508Y569826D02*
X814258D01*
X768757Y452826D02*
Y462076D01*
X809508Y492826D02*
X814258D01*
X768757Y598826D02*
Y615548D01*
X768993D01*
Y615576D01*
X783008D01*
X936507Y596326D02*
Y616326D01*
X935758D02*
X936507D01*
X921257D02*
X935758D01*
X532137Y812236D02*
X546637D01*
X547387D01*
Y792236D02*
Y812236D01*
X379873Y811486D02*
X393887D01*
X379873Y811458D02*
Y811486D01*
X379637Y811458D02*
X379873D01*
X379637Y794736D02*
Y811458D01*
X420387Y688736D02*
X425137D01*
X379637Y648736D02*
Y657986D01*
X419387Y765736D02*
X425137D01*
X547137Y648736D02*
Y663236D01*
Y647986D02*
Y648736D01*
X527137Y647986D02*
X547137D01*
X379637Y647736D02*
Y648736D01*
Y647736D02*
X397637D01*
X139448Y183450D02*
X177948D01*
X139448Y164450D02*
Y183450D01*
Y164450D02*
X177948D01*
Y183450D01*
X139448Y142950D02*
Y161950D01*
X177948D01*
Y142950D02*
Y161950D01*
X139448Y142950D02*
X177948D01*
X139448Y260450D02*
X177948D01*
X139448Y241450D02*
Y260450D01*
Y241450D02*
X177948D01*
Y260450D01*
X139448Y220200D02*
Y239200D01*
X177948D01*
Y220200D02*
Y239200D01*
X139448Y220200D02*
X177948D01*
X138948Y333700D02*
X177448D01*
X138948Y314700D02*
Y333700D01*
Y314700D02*
X177448D01*
Y333700D01*
X250198Y21331D02*
X269198D01*
X250198D02*
Y59831D01*
X269198D01*
Y21331D02*
Y59831D01*
Y62831D02*
Y101331D01*
X250198D02*
X269198D01*
X250198Y62831D02*
Y101331D01*
Y62831D02*
X269198D01*
X250198Y104331D02*
X269198D01*
X250198D02*
Y142831D01*
X269198D01*
Y104331D02*
Y142831D01*
Y145831D02*
Y184331D01*
X250198D02*
X269198D01*
X250198Y145831D02*
Y184331D01*
Y145831D02*
X269198D01*
X250198Y187331D02*
X269198D01*
X250198D02*
Y225831D01*
X269198D01*
Y187331D02*
Y225831D01*
Y228831D02*
Y267331D01*
X250198D02*
X269198D01*
X250198Y228831D02*
Y267331D01*
Y228831D02*
X269198D01*
X250198Y270331D02*
X269198D01*
X250198D02*
Y308831D01*
X269198D01*
Y270331D02*
Y308831D01*
Y311831D02*
Y350331D01*
X250198D02*
X269198D01*
X250198Y311831D02*
Y350331D01*
Y311831D02*
X269198D01*
X250198Y353331D02*
X269198D01*
X250198D02*
Y391831D01*
X269198D01*
Y353331D02*
Y391831D01*
Y394831D02*
Y433331D01*
X250198D02*
X269198D01*
X250198Y394831D02*
Y433331D01*
Y394831D02*
X269198D01*
X250198Y436331D02*
X269198D01*
X250198D02*
Y474831D01*
X269198D01*
Y436331D02*
Y474831D01*
Y477831D02*
Y516331D01*
X250198D02*
X269198D01*
X250198Y477831D02*
Y516331D01*
Y477831D02*
X269198D01*
D12*
X195258Y606625D02*
G03*
X195258Y606625I-3810J0D01*
G01*
D13*
X138335Y700380D02*
G03*
X138335Y700380I-60000J0D01*
G01*
X619240Y689164D02*
Y766164D01*
X813937Y689016D02*
Y766016D01*
X131750Y419500D02*
Y430500D01*
X149750Y419500D02*
Y430500D01*
X425967Y98406D02*
Y175406D01*
X618975Y99071D02*
Y176071D01*
X813937Y99156D02*
Y176156D01*
X425967Y293656D02*
Y370656D01*
X619467Y294156D02*
Y371156D01*
X813937Y294160D02*
Y371160D01*
X425967Y491406D02*
Y568406D01*
X618506Y491913D02*
Y568913D01*
X814258Y492826D02*
Y569826D01*
X425137Y688736D02*
Y765736D01*
D14*
X968757Y10069D02*
G03*
X1006698Y48010I0J37941D01*
G01*
X1006698Y822410D02*
G03*
X968858Y860250I-37839J1D01*
G01*
X44498Y860250D02*
G03*
X6698Y822450I-0J-37800D01*
G01*
X6698Y42450D02*
G03*
X39079Y10069I32381J0D01*
G01*
X277079D02*
X968757D01*
X1006698Y48010D02*
Y822410D01*
X44498Y860250D02*
X968858Y860250D01*
X6698Y822450D02*
X6698Y42450D01*
X39079Y10069D02*
X133518D01*
X277079D01*
D15*
X327098Y540350D02*
X327098Y6850D01*
X82848Y540350D02*
X327098D01*
X82848D02*
X82848Y6850D01*
X327098D01*
X156131Y624071D02*
X180206D01*
X275765D02*
Y682180D01*
X251693Y771645D02*
X275765D01*
X156131Y718570D02*
Y771645D01*
X251689Y624071D02*
X275765D01*
X156131Y771645D02*
X180202D01*
X201693D02*
X230202D01*
X156131Y624071D02*
Y682180D01*
X275765Y718570D02*
Y771645D01*
D16*
X31335Y719241D02*
X39817D01*
X35576Y723483D02*
Y715001D01*
D17*
X113335Y714999D02*
X121811D01*
M02*
