G04*
G04 #@! TF.GenerationSoftware,Altium Limited,Altium Designer,26.5.0 (11)*
G04*
G04 Layer_Color=8388736*
G04 Board_Origin=72964651|65651580*
%FSLAX44Y44*%
%MOMM*%
G71*
G04*
G04 #@! TF.SameCoordinates,0E16F24D-C74D-4210-9216-EA7F7333114A*
G04*
G04*
G04 #@! TF.FilePolarity,Negative*
G04*
G01*
G75*
%ADD23R,0.9600X1.0600*%
G04:AMPARAMS|DCode=24|XSize=1.7032mm|YSize=1.4232mm|CornerRadius=0.2541mm|HoleSize=0mm|Usage=FLASHONLY|Rotation=90.000|XOffset=0mm|YOffset=0mm|HoleType=Round|Shape=RoundedRectangle|*
%AMROUNDEDRECTD24*
21,1,1.7032,0.9150,0,0,90.0*
21,1,1.1950,1.4232,0,0,90.0*
1,1,0.5082,0.4575,0.5975*
1,1,0.5082,0.4575,-0.5975*
1,1,0.5082,-0.4575,-0.5975*
1,1,0.5082,-0.4575,0.5975*
%
%ADD24ROUNDEDRECTD24*%
%ADD25R,1.7000X2.2000*%
%ADD26R,1.4032X1.5032*%
%ADD27R,1.5032X1.4032*%
%ADD28C,4.2926*%
%ADD29C,3.2032*%
%ADD30R,1.7080X2.2000*%
%ADD31C,0.2032*%
%ADD32C,1.4986*%
%ADD33C,1.6112*%
D23*
X148250Y461500D02*
D03*
X138750Y481500D02*
D03*
X157750D02*
D03*
D24*
X140750Y440750D02*
D03*
Y409250D02*
D03*
D25*
X306908Y104950D02*
D03*
Y79550D02*
D03*
Y54150D02*
D03*
Y28750D02*
D03*
Y130350D02*
D03*
Y155750D02*
D03*
Y206550D02*
D03*
Y231950D02*
D03*
Y181150D02*
D03*
Y308150D02*
D03*
Y282750D02*
D03*
Y257350D02*
D03*
Y435150D02*
D03*
Y409750D02*
D03*
Y384350D02*
D03*
Y358950D02*
D03*
Y511350D02*
D03*
Y460550D02*
D03*
Y485850D02*
D03*
Y333550D02*
D03*
X103788Y54100D02*
D03*
Y79548D02*
D03*
Y104943D02*
D03*
Y28750D02*
D03*
Y130350D02*
D03*
Y155750D02*
D03*
Y308150D02*
D03*
Y333550D02*
D03*
Y358950D02*
D03*
Y384350D02*
D03*
Y282750D02*
D03*
Y257350D02*
D03*
Y511350D02*
D03*
Y409750D02*
D03*
Y435150D02*
D03*
Y460550D02*
D03*
Y485950D02*
D03*
Y231950D02*
D03*
Y206550D02*
D03*
Y181150D02*
D03*
D26*
X147448Y284200D02*
D03*
X168448D02*
D03*
X147198Y303950D02*
D03*
X168198D02*
D03*
X219698Y29831D02*
D03*
X240698D02*
D03*
X219698Y71418D02*
D03*
X240698D02*
D03*
Y113005D02*
D03*
X219698D02*
D03*
Y154592D02*
D03*
X240698D02*
D03*
Y196178D02*
D03*
X219698D02*
D03*
Y237765D02*
D03*
X240698D02*
D03*
Y279352D02*
D03*
X219698D02*
D03*
Y320939D02*
D03*
X240698D02*
D03*
Y362526D02*
D03*
X219698D02*
D03*
Y404113D02*
D03*
X240698D02*
D03*
Y445700D02*
D03*
X219698D02*
D03*
Y487287D02*
D03*
X240698D02*
D03*
X148198Y131950D02*
D03*
X169198D02*
D03*
Y208450D02*
D03*
X148198D02*
D03*
X161085Y510750D02*
D03*
X140085D02*
D03*
X219698Y50624D02*
D03*
X240698D02*
D03*
Y92211D02*
D03*
X219698D02*
D03*
X240698Y133798D02*
D03*
X219698D02*
D03*
Y175385D02*
D03*
X240698D02*
D03*
Y216972D02*
D03*
X219698D02*
D03*
X240698Y258559D02*
D03*
X219698D02*
D03*
Y300146D02*
D03*
X240698D02*
D03*
Y341733D02*
D03*
X219698D02*
D03*
X240698Y383320D02*
D03*
X219698D02*
D03*
Y424906D02*
D03*
X240698D02*
D03*
Y466493D02*
D03*
X219698D02*
D03*
Y508080D02*
D03*
X240698D02*
D03*
X169198Y173950D02*
D03*
X148198D02*
D03*
X169198Y152450D02*
D03*
X148198D02*
D03*
X169198Y250950D02*
D03*
X148198D02*
D03*
X169198Y229700D02*
D03*
X148198D02*
D03*
X168698Y324200D02*
D03*
X147698D02*
D03*
D27*
X389335Y148000D02*
D03*
Y127000D02*
D03*
X581835Y126750D02*
D03*
Y147750D02*
D03*
X776585Y147500D02*
D03*
Y126500D02*
D03*
X389335Y321750D02*
D03*
Y342750D02*
D03*
X581585Y540750D02*
D03*
Y519750D02*
D03*
X388835Y540250D02*
D03*
Y519250D02*
D03*
X776335Y343500D02*
D03*
Y322500D02*
D03*
X582335D02*
D03*
Y343500D02*
D03*
X776335Y540000D02*
D03*
Y519000D02*
D03*
X388585Y714750D02*
D03*
Y735750D02*
D03*
X582335Y737750D02*
D03*
Y716750D02*
D03*
X776547Y715847D02*
D03*
Y736847D02*
D03*
X259698Y51081D02*
D03*
Y30081D02*
D03*
Y71581D02*
D03*
Y92581D02*
D03*
Y134081D02*
D03*
Y113081D02*
D03*
Y154581D02*
D03*
Y175581D02*
D03*
Y217081D02*
D03*
Y196081D02*
D03*
Y237581D02*
D03*
Y258581D02*
D03*
Y300081D02*
D03*
Y279081D02*
D03*
Y320581D02*
D03*
Y341581D02*
D03*
Y383081D02*
D03*
Y362081D02*
D03*
Y403581D02*
D03*
Y424581D02*
D03*
Y466081D02*
D03*
Y445081D02*
D03*
Y486581D02*
D03*
Y507581D02*
D03*
D28*
X657740Y728914D02*
D03*
X852437Y728766D02*
D03*
X464467Y138156D02*
D03*
X657475Y138821D02*
D03*
X852437Y138906D02*
D03*
X464467Y333406D02*
D03*
X657967Y333906D02*
D03*
X852437Y333910D02*
D03*
X464467Y531156D02*
D03*
X657006Y531663D02*
D03*
X852757Y532576D02*
D03*
X463637Y728486D02*
D03*
D29*
X684240Y767914D02*
D03*
X709740Y704164D02*
D03*
X904437Y704016D02*
D03*
X878937Y767766D02*
D03*
X516467Y113406D02*
D03*
X490967Y177156D02*
D03*
X709475Y114071D02*
D03*
X683975Y177821D02*
D03*
X878937Y177906D02*
D03*
X904437Y114156D02*
D03*
X490967Y372406D02*
D03*
X516467Y308656D02*
D03*
X709967Y309156D02*
D03*
X684467Y372906D02*
D03*
X904437Y309160D02*
D03*
X878937Y372910D02*
D03*
X490967Y570156D02*
D03*
X516467Y506406D02*
D03*
X683506Y570663D02*
D03*
X709006Y506913D02*
D03*
X879257Y571576D02*
D03*
X904758Y507826D02*
D03*
X515637Y703736D02*
D03*
X490137Y767486D02*
D03*
D30*
X116448Y28750D02*
D03*
Y54150D02*
D03*
Y79550D02*
D03*
Y130350D02*
D03*
Y104950D02*
D03*
Y333550D02*
D03*
Y308150D02*
D03*
Y460550D02*
D03*
Y358950D02*
D03*
Y409750D02*
D03*
Y435150D02*
D03*
Y384350D02*
D03*
Y485950D02*
D03*
Y511350D02*
D03*
Y206550D02*
D03*
Y231950D02*
D03*
Y282750D02*
D03*
Y257350D02*
D03*
Y155750D02*
D03*
Y181150D02*
D03*
X294248Y28750D02*
D03*
Y79550D02*
D03*
Y104950D02*
D03*
Y130350D02*
D03*
Y155750D02*
D03*
Y54150D02*
D03*
Y308150D02*
D03*
Y384350D02*
D03*
Y282750D02*
D03*
Y435150D02*
D03*
Y409750D02*
D03*
Y358950D02*
D03*
Y333550D02*
D03*
Y257350D02*
D03*
Y231950D02*
D03*
Y206550D02*
D03*
Y181150D02*
D03*
Y511350D02*
D03*
Y485950D02*
D03*
Y460550D02*
D03*
X56500Y473900D02*
D03*
Y448500D02*
D03*
Y423100D02*
D03*
Y372300D02*
D03*
Y397700D02*
D03*
Y194500D02*
D03*
Y296100D02*
D03*
Y270700D02*
D03*
Y219900D02*
D03*
Y245300D02*
D03*
Y346900D02*
D03*
Y321500D02*
D03*
Y169100D02*
D03*
D31*
X967538Y49770D02*
D03*
Y820650D02*
D03*
X46138D02*
D03*
X46138Y49770D02*
D03*
D32*
X190948Y625375D02*
D03*
X215948D02*
D03*
X240948D02*
D03*
X190948Y770375D02*
D03*
X240948D02*
D03*
D33*
X40335Y700380D02*
D03*
X116335D02*
D03*
M02*
