G04*
G04 #@! TF.GenerationSoftware,Altium Limited,Altium Designer,26.5.0 (11)*
G04*
G04 Layer_Color=2752767*
G04 Board_Origin=72964651|65651580*
%FSLAX44Y44*%
%MOMM*%
G71*
G04*
G04 #@! TF.SameCoordinates,0E16F24D-C74D-4210-9216-EA7F7333114A*
G04*
G04*
G04 #@! TF.FilePolarity,Positive*
G04*
G01*
G75*
%ADD13C,0.1270*%
%ADD34C,0.2540*%
%ADD54C,0.3810*%
%ADD55C,0.4064*%
D13*
X469987Y728486D02*
G03*
X469987Y728486I-6350J0D01*
G01*
X859108Y532576D02*
G03*
X859108Y532576I-6350J0D01*
G01*
X663356Y531663D02*
G03*
X663356Y531663I-6350J0D01*
G01*
X470817Y531156D02*
G03*
X470817Y531156I-6350J0D01*
G01*
X858787Y333910D02*
G03*
X858787Y333910I-6350J0D01*
G01*
X664317Y333906D02*
G03*
X664317Y333906I-6350J0D01*
G01*
X470817Y333406D02*
G03*
X470817Y333406I-6350J0D01*
G01*
X858787Y138906D02*
G03*
X858787Y138906I-6350J0D01*
G01*
X663825Y138821D02*
G03*
X663825Y138821I-6350J0D01*
G01*
X470817Y138156D02*
G03*
X470817Y138156I-6350J0D01*
G01*
X858787Y728766D02*
G03*
X858787Y728766I-6350J0D01*
G01*
X664090Y728914D02*
G03*
X664090Y728914I-6350J0D01*
G01*
X909523Y265525D02*
X912698Y262350D01*
X906348Y265525D02*
X909523D01*
X906348D02*
X909523Y268700D01*
X906348Y271875D02*
X909523Y268700D01*
X906348Y271875D02*
X909523D01*
X912698Y275050D01*
X915873Y271875D01*
X919048D01*
X915873Y268700D02*
X919048Y271875D01*
X915873Y268700D02*
X919048Y265525D01*
X915873D02*
X919048D01*
X912698Y262350D02*
X915873Y265525D01*
X895273Y265275D02*
X898448Y262100D01*
X892098Y265275D02*
X895273D01*
X892098D02*
X895273Y268450D01*
X892098Y271625D02*
X895273Y268450D01*
X892098Y271625D02*
X895273D01*
X898448Y274800D01*
X901623Y271625D01*
X904798D01*
X901623Y268450D02*
X904798Y271625D01*
X901623Y268450D02*
X904798Y265275D01*
X901623D02*
X904798D01*
X898448Y262100D02*
X901623Y265275D01*
X715023Y266025D02*
X718198Y262850D01*
X711848Y266025D02*
X715023D01*
X711848D02*
X715023Y269200D01*
X711848Y272375D02*
X715023Y269200D01*
X711848Y272375D02*
X715023D01*
X718198Y275550D01*
X721373Y272375D01*
X724548D01*
X721373Y269200D02*
X724548Y272375D01*
X721373Y269200D02*
X724548Y266025D01*
X721373D02*
X724548D01*
X718198Y262850D02*
X721373Y266025D01*
X700523Y265775D02*
X703698Y262600D01*
X697348Y265775D02*
X700523D01*
X697348D02*
X700523Y268950D01*
X697348Y272125D02*
X700523Y268950D01*
X697348Y272125D02*
X700523D01*
X703698Y275300D01*
X706873Y272125D01*
X710048D01*
X706873Y268950D02*
X710048Y272125D01*
X706873Y268950D02*
X710048Y265775D01*
X706873D02*
X710048D01*
X703698Y262600D02*
X706873Y265775D01*
X507273Y264525D02*
X510448Y261350D01*
X504098Y264525D02*
X507273D01*
X504098D02*
X507273Y267700D01*
X504098Y270875D02*
X507273Y267700D01*
X504098Y270875D02*
X507273D01*
X510448Y274050D01*
X513623Y270875D01*
X516798D01*
X513623Y267700D02*
X516798Y270875D01*
X513623Y267700D02*
X516798Y264525D01*
X513623D02*
X516798D01*
X510448Y261350D02*
X513623Y264525D01*
X519773D02*
X522948Y261350D01*
X516598Y264525D02*
X519773D01*
X516598D02*
X519773Y267700D01*
X516598Y270875D02*
X519773Y267700D01*
X516598Y270875D02*
X519773D01*
X522948Y274050D01*
X526123Y270875D01*
X529298D01*
X526123Y267700D02*
X529298Y270875D01*
X526123Y267700D02*
X529298Y264525D01*
X526123D02*
X529298D01*
X522948Y261350D02*
X526123Y264525D01*
X519773Y463025D02*
X522948Y459850D01*
X516598Y463025D02*
X519773D01*
X516598D02*
X519773Y466200D01*
X516598Y469375D02*
X519773Y466200D01*
X516598Y469375D02*
X519773D01*
X522948Y472550D01*
X526123Y469375D01*
X529298D01*
X526123Y466200D02*
X529298Y469375D01*
X526123Y466200D02*
X529298Y463025D01*
X526123D02*
X529298D01*
X522948Y459850D02*
X526123Y463025D01*
X700172Y462826D02*
X703347Y459650D01*
X696997Y462826D02*
X700172D01*
X696997D02*
X700172Y466001D01*
X696997Y469175D02*
X700172Y466001D01*
X696997Y469175D02*
X700172D01*
X703347Y472351D01*
X706522Y469175D01*
X709697D01*
X706522Y466001D02*
X709697Y469175D01*
X706522Y466001D02*
X709697Y462826D01*
X706522D02*
X709697D01*
X703347Y459650D02*
X706522Y462826D01*
X712523Y462525D02*
X715698Y459350D01*
X709348Y462525D02*
X712523D01*
X709348D02*
X712523Y465700D01*
X709348Y468875D02*
X712523Y465700D01*
X709348Y468875D02*
X712523D01*
X715698Y472050D01*
X718873Y468875D01*
X722048D01*
X718873Y465700D02*
X722048Y468875D01*
X718873Y465700D02*
X722048Y462525D01*
X718873D02*
X722048D01*
X715698Y459350D02*
X718873Y462525D01*
X896023Y463775D02*
X899198Y460600D01*
X892848Y463775D02*
X896023D01*
X892848D02*
X896023Y466950D01*
X892848Y470125D02*
X896023Y466950D01*
X892848Y470125D02*
X896023D01*
X899198Y473300D01*
X902373Y470125D01*
X905548D01*
X902373Y466950D02*
X905548Y470125D01*
X902373Y466950D02*
X905548Y463775D01*
X902373D02*
X905548D01*
X899198Y460600D02*
X902373Y463775D01*
X908273D02*
X911448Y460600D01*
X905098Y463775D02*
X908273D01*
X905098D02*
X908273Y466950D01*
X905098Y470125D02*
X908273Y466950D01*
X905098Y470125D02*
X908273D01*
X911448Y473300D01*
X914623Y470125D01*
X917798D01*
X914623Y466950D02*
X917798Y470125D01*
X914623Y466950D02*
X917798Y463775D01*
X914623D02*
X917798D01*
X911448Y460600D02*
X914623Y463775D01*
X505523Y656775D02*
X508698Y653600D01*
X502348Y656775D02*
X505523D01*
X502348D02*
X505523Y659950D01*
X502348Y663125D02*
X505523Y659950D01*
X502348Y663125D02*
X505523D01*
X508698Y666300D01*
X511873Y663125D01*
X515048D01*
X511873Y659950D02*
X515048Y663125D01*
X511873Y659950D02*
X515048Y656775D01*
X511873D02*
X515048D01*
X508698Y653600D02*
X511873Y656775D01*
X518773D02*
X521948Y653600D01*
X515598Y656775D02*
X518773D01*
X515598D02*
X518773Y659950D01*
X515598Y663125D02*
X518773Y659950D01*
X515598Y663125D02*
X518773D01*
X521948Y666300D01*
X525123Y663125D01*
X528298D01*
X525123Y659950D02*
X528298Y663125D01*
X525123Y659950D02*
X528298Y656775D01*
X525123D02*
X528298D01*
X521948Y653600D02*
X525123Y656775D01*
X701023Y657775D02*
X704198Y654600D01*
X697848Y657775D02*
X701023D01*
X697848D02*
X701023Y660950D01*
X697848Y664125D02*
X701023Y660950D01*
X697848Y664125D02*
X701023D01*
X704198Y667300D01*
X707373Y664125D01*
X710548D01*
X707373Y660950D02*
X710548Y664125D01*
X707373Y660950D02*
X710548Y657775D01*
X707373D02*
X710548D01*
X704198Y654600D02*
X707373Y657775D01*
X714023Y657525D02*
X717198Y654350D01*
X710848Y657525D02*
X714023D01*
X710848D02*
X714023Y660700D01*
X710848Y663875D02*
X714023Y660700D01*
X710848Y663875D02*
X714023D01*
X717198Y667050D01*
X720373Y663875D01*
X723548D01*
X720373Y660700D02*
X723548Y663875D01*
X720373Y660700D02*
X723548Y657525D01*
X720373D02*
X723548D01*
X717198Y654350D02*
X720373Y657525D01*
X895273D02*
X898448Y654350D01*
X892098Y657525D02*
X895273D01*
X892098D02*
X895273Y660700D01*
X892098Y663875D02*
X895273Y660700D01*
X892098Y663875D02*
X895273D01*
X898448Y667050D01*
X901623Y663875D01*
X904798D01*
X901623Y660700D02*
X904798Y663875D01*
X901623Y660700D02*
X904798Y657525D01*
X901623D02*
X904798D01*
X898448Y654350D02*
X901623Y657525D01*
X909023D02*
X912198Y654350D01*
X905848Y657525D02*
X909023D01*
X905848D02*
X909023Y660700D01*
X905848Y663875D02*
X909023Y660700D01*
X905848Y663875D02*
X909023D01*
X912198Y667050D01*
X915373Y663875D01*
X918548D01*
X915373Y660700D02*
X918548Y663875D01*
X915373Y660700D02*
X918548Y657525D01*
X915373D02*
X918548D01*
X912198Y654350D02*
X915373Y657525D01*
X202075Y26525D02*
X205250Y23350D01*
X198900Y26525D02*
X202075D01*
X198900D02*
X202075Y29700D01*
X198900Y32875D02*
X202075Y29700D01*
X198900Y32875D02*
X202075D01*
X205250Y36050D01*
X208425Y32875D01*
X211600D01*
X208425Y29700D02*
X211600Y32875D01*
X208425Y29700D02*
X211600Y26525D01*
X208425D02*
X211600D01*
X205250Y23350D02*
X208425Y26525D01*
X202075Y46421D02*
X205250Y43246D01*
X198900Y46421D02*
X202075D01*
X198900D02*
X202075Y49596D01*
X198900Y52771D02*
X202075Y49596D01*
X198900Y52771D02*
X202075D01*
X205250Y55946D01*
X208425Y52771D01*
X211600D01*
X208425Y49596D02*
X211600Y52771D01*
X208425Y49596D02*
X211600Y46421D01*
X208425D02*
X211600D01*
X205250Y43246D02*
X208425Y46421D01*
X202075Y66316D02*
X205250Y63141D01*
X198900Y66316D02*
X202075D01*
X198900D02*
X202075Y69492D01*
X198900Y72667D02*
X202075Y69492D01*
X198900Y72667D02*
X202075D01*
X205250Y75841D01*
X208425Y72667D01*
X211600D01*
X208425Y69492D02*
X211600Y72667D01*
X208425Y69492D02*
X211600Y66316D01*
X208425D02*
X211600D01*
X205250Y63141D02*
X208425Y66316D01*
X202075Y109325D02*
X205250Y106150D01*
X198900Y109325D02*
X202075D01*
X198900D02*
X202075Y112500D01*
X198900Y115675D02*
X202075Y112500D01*
X198900Y115675D02*
X202075D01*
X205250Y118850D01*
X208425Y115675D01*
X211600D01*
X208425Y112500D02*
X211600Y115675D01*
X208425Y112500D02*
X211600Y109325D01*
X208425D02*
X211600D01*
X205250Y106150D02*
X208425Y109325D01*
X202075Y129575D02*
X205250Y126400D01*
X198900Y129575D02*
X202075D01*
X198900D02*
X202075Y132750D01*
X198900Y135925D02*
X202075Y132750D01*
X198900Y135925D02*
X202075D01*
X205250Y139100D01*
X208425Y135925D01*
X211600D01*
X208425Y132750D02*
X211600Y135925D01*
X208425Y132750D02*
X211600Y129575D01*
X208425D02*
X211600D01*
X205250Y126400D02*
X208425Y129575D01*
X200973Y151865D02*
X204148Y148690D01*
X197798Y151865D02*
X200973D01*
X197798D02*
X200973Y155040D01*
X197798Y158215D02*
X200973Y155040D01*
X197798Y158215D02*
X200973D01*
X204148Y161390D01*
X207323Y158215D01*
X210498D01*
X207323Y155040D02*
X210498Y158215D01*
X207323Y155040D02*
X210498Y151865D01*
X207323D02*
X210498D01*
X204148Y148690D02*
X207323Y151865D01*
X200973Y171336D02*
X204148Y168161D01*
X197798Y171336D02*
X200973D01*
X197798D02*
X200973Y174511D01*
X197798Y177686D02*
X200973Y174511D01*
X197798Y177686D02*
X200973D01*
X204148Y180861D01*
X207323Y177686D01*
X210498D01*
X207323Y174511D02*
X210498Y177686D01*
X207323Y174511D02*
X210498Y171336D01*
X207323D02*
X210498D01*
X204148Y168161D02*
X207323Y171336D01*
X200973Y339318D02*
X204148Y336143D01*
X197798Y339318D02*
X200973D01*
X197798D02*
X200973Y342493D01*
X197798Y345668D02*
X200973Y342493D01*
X197798Y345668D02*
X200973D01*
X204148Y348843D01*
X207323Y345668D01*
X210498D01*
X207323Y342493D02*
X210498Y345668D01*
X207323Y342493D02*
X210498Y339318D01*
X207323D02*
X210498D01*
X204148Y336143D02*
X207323Y339318D01*
X202075Y404545D02*
X205250Y401370D01*
X198900Y404545D02*
X202075D01*
X198900D02*
X202075Y407720D01*
X198900Y410895D02*
X202075Y407720D01*
X198900Y410895D02*
X202075D01*
X205250Y414070D01*
X208425Y410895D01*
X211600D01*
X208425Y407720D02*
X211600Y410895D01*
X208425Y407720D02*
X211600Y404545D01*
X208425D02*
X211600D01*
X205250Y401370D02*
X208425Y404545D01*
X202075Y424441D02*
X205250Y421266D01*
X198900Y424441D02*
X202075D01*
X198900D02*
X202075Y427616D01*
X198900Y430791D02*
X202075Y427616D01*
X198900Y430791D02*
X202075D01*
X205250Y433966D01*
X208425Y430791D01*
X211600D01*
X208425Y427616D02*
X211600Y430791D01*
X208425Y427616D02*
X211600Y424441D01*
X208425D02*
X211600D01*
X205250Y421266D02*
X208425Y424441D01*
X202325Y316825D02*
X205500Y313650D01*
X199150Y316825D02*
X202325D01*
X199150D02*
X202325Y320000D01*
X199150Y323175D02*
X202325Y320000D01*
X199150Y323175D02*
X202325D01*
X205500Y326350D01*
X208675Y323175D01*
X211850D01*
X208675Y320000D02*
X211850Y323175D01*
X208675Y320000D02*
X211850Y316825D01*
X208675D02*
X211850D01*
X205500Y313650D02*
X208675Y316825D01*
X200973Y279631D02*
X204148Y276455D01*
X197798Y279631D02*
X200973D01*
X197798D02*
X200973Y282806D01*
X197798Y285980D02*
X200973Y282806D01*
X197798Y285980D02*
X200973D01*
X204148Y289156D01*
X207323Y285980D01*
X210498D01*
X207323Y282806D02*
X210498Y285980D01*
X207323Y282806D02*
X210498Y279631D01*
X207323D02*
X210498D01*
X204148Y276455D02*
X207323Y279631D01*
X202325Y295575D02*
X205500Y292400D01*
X199150Y295575D02*
X202325D01*
X199150D02*
X202325Y298750D01*
X199150Y301925D02*
X202325Y298750D01*
X199150Y301925D02*
X202325D01*
X205500Y305100D01*
X208675Y301925D01*
X211850D01*
X208675Y298750D02*
X211850Y301925D01*
X208675Y298750D02*
X211850Y295575D01*
X208675D02*
X211850D01*
X205500Y292400D02*
X208675Y295575D01*
X202075Y464233D02*
X205250Y461058D01*
X198900Y464233D02*
X202075D01*
X198900D02*
X202075Y467408D01*
X198900Y470583D02*
X202075Y467408D01*
X198900Y470583D02*
X202075D01*
X205250Y473758D01*
X208425Y470583D01*
X211600D01*
X208425Y467408D02*
X211600Y470583D01*
X208425Y467408D02*
X211600Y464233D01*
X208425D02*
X211600D01*
X205250Y461058D02*
X208425Y464233D01*
X202075Y484129D02*
X205250Y480954D01*
X198900Y484129D02*
X202075D01*
X198900D02*
X202075Y487304D01*
X198900Y490479D02*
X202075Y487304D01*
X198900Y490479D02*
X202075D01*
X205250Y493654D01*
X208425Y490479D01*
X211600D01*
X208425Y487304D02*
X211600Y490479D01*
X208425Y487304D02*
X211600Y484129D01*
X208425D02*
X211600D01*
X205250Y480954D02*
X208425Y484129D01*
X202075Y504025D02*
X205250Y500849D01*
X198900Y504025D02*
X202075D01*
X198900D02*
X202075Y507200D01*
X198900Y510374D02*
X202075Y507200D01*
X198900Y510374D02*
X202075D01*
X205250Y513549D01*
X208425Y510374D01*
X211600D01*
X208425Y507200D02*
X211600Y510374D01*
X208425Y507200D02*
X211600Y504025D01*
X208425D02*
X211600D01*
X205250Y500849D02*
X208425Y504025D01*
X202075Y359825D02*
X205250Y356650D01*
X198900Y359825D02*
X202075D01*
X198900D02*
X202075Y363000D01*
X198900Y366175D02*
X202075Y363000D01*
X198900Y366175D02*
X202075D01*
X205250Y369350D01*
X208425Y366175D01*
X211600D01*
X208425Y363000D02*
X211600Y366175D01*
X208425Y363000D02*
X211600Y359825D01*
X208425D02*
X211600D01*
X205250Y356650D02*
X208425Y359825D01*
X202075Y384650D02*
X205250Y381475D01*
X198900Y384650D02*
X202075D01*
X198900D02*
X202075Y387825D01*
X198900Y391000D02*
X202075Y387825D01*
X198900Y391000D02*
X202075D01*
X205250Y394175D01*
X208425Y391000D01*
X211600D01*
X208425Y387825D02*
X211600Y391000D01*
X208425Y387825D02*
X211600Y384650D01*
X208425D02*
X211600D01*
X205250Y381475D02*
X208425Y384650D01*
X202344Y233889D02*
X205519Y230714D01*
X199169Y233889D02*
X202344D01*
X199169D02*
X202344Y237064D01*
X199169Y240239D02*
X202344Y237064D01*
X199169Y240239D02*
X202344D01*
X205519Y243414D01*
X208694Y240239D01*
X211869D01*
X208694Y237064D02*
X211869Y240239D01*
X208694Y237064D02*
X211869Y233889D01*
X208694D02*
X211869D01*
X205519Y230714D02*
X208694Y233889D01*
X267255Y129941D02*
X270430Y126766D01*
X264080Y129941D02*
X267255D01*
X264080D02*
X267255Y133116D01*
X264080Y136291D02*
X267255Y133116D01*
X264080Y136291D02*
X267255D01*
X270430Y139466D01*
X273605Y136291D01*
X276780D01*
X273605Y133116D02*
X276780Y136291D01*
X273605Y133116D02*
X276780Y129941D01*
X273605D02*
X276780D01*
X270430Y126766D02*
X273605Y129941D01*
X267213Y212997D02*
X270388Y209822D01*
X264038Y212997D02*
X267213D01*
X264038D02*
X267213Y216172D01*
X264038Y219347D02*
X267213Y216172D01*
X264038Y219347D02*
X267213D01*
X270388Y222522D01*
X273563Y219347D01*
X276738D01*
X273563Y216172D02*
X276738Y219347D01*
X273563Y216172D02*
X276738Y212997D01*
X273563D02*
X276738D01*
X270388Y209822D02*
X273563Y212997D01*
X266773Y296775D02*
X269948Y293600D01*
X263598Y296775D02*
X266773D01*
X263598D02*
X266773Y299950D01*
X263598Y303125D02*
X266773Y299950D01*
X263598Y303125D02*
X266773D01*
X269948Y306300D01*
X273123Y303125D01*
X276298D01*
X273123Y299950D02*
X276298Y303125D01*
X273123Y299950D02*
X276298Y296775D01*
X273123D02*
X276298D01*
X269948Y293600D02*
X273123Y296775D01*
X267023Y338275D02*
X270198Y335100D01*
X263848Y338275D02*
X267023D01*
X263848D02*
X267023Y341450D01*
X263848Y344625D02*
X267023Y341450D01*
X263848Y344625D02*
X267023D01*
X270198Y347800D01*
X273373Y344625D01*
X276548D01*
X273373Y341450D02*
X276548Y344625D01*
X273373Y341450D02*
X276548Y338275D01*
X273373D02*
X276548D01*
X270198Y335100D02*
X273373Y338275D01*
X267156Y171942D02*
X270331Y168767D01*
X263981Y171942D02*
X267156D01*
X263981D02*
X267156Y175117D01*
X263981Y178292D02*
X267156Y175117D01*
X263981Y178292D02*
X267156D01*
X270331Y181467D01*
X273506Y178292D01*
X276681D01*
X273506Y175117D02*
X276681Y178292D01*
X273506Y175117D02*
X276681Y171942D01*
X273506D02*
X276681D01*
X270331Y168767D02*
X273506Y171942D01*
X267194Y379433D02*
X270369Y376258D01*
X264019Y379433D02*
X267194D01*
X264019D02*
X267194Y382608D01*
X264019Y385783D02*
X267194Y382608D01*
X264019Y385783D02*
X267194D01*
X270369Y388958D01*
X273544Y385783D01*
X276719D01*
X273544Y382608D02*
X276719Y385783D01*
X273544Y382608D02*
X276719Y379433D01*
X273544D02*
X276719D01*
X270369Y376258D02*
X273544Y379433D01*
X269773Y48775D02*
X272948Y45600D01*
X266598Y48775D02*
X269773D01*
X266598D02*
X269773Y51950D01*
X266598Y55125D02*
X269773Y51950D01*
X266598Y55125D02*
X269773D01*
X272948Y58300D01*
X276123Y55125D01*
X279298D01*
X276123Y51950D02*
X279298Y55125D01*
X276123Y51950D02*
X279298Y48775D01*
X276123D02*
X279298D01*
X272948Y45600D02*
X276123Y48775D01*
X268273Y89525D02*
X271448Y86350D01*
X265098Y89525D02*
X268273D01*
X265098D02*
X268273Y92700D01*
X265098Y95875D02*
X268273Y92700D01*
X265098Y95875D02*
X268273D01*
X271448Y99050D01*
X274623Y95875D01*
X277798D01*
X274623Y92700D02*
X277798Y95875D01*
X274623Y92700D02*
X277798Y89525D01*
X274623D02*
X277798D01*
X271448Y86350D02*
X274623Y89525D01*
X268713Y245275D02*
X271888Y242100D01*
X265538Y245275D02*
X268713D01*
X265538D02*
X268713Y248450D01*
X265538Y251625D02*
X268713Y248450D01*
X265538Y251625D02*
X268713D01*
X271888Y254800D01*
X275063Y251625D01*
X278238D01*
X275063Y248450D02*
X278238Y251625D01*
X275063Y248450D02*
X278238Y245275D01*
X275063D02*
X278238D01*
X271888Y242100D02*
X275063Y245275D01*
X507523Y463275D02*
X510698Y460100D01*
X504348Y463275D02*
X507523D01*
X504348D02*
X507523Y466450D01*
X504348Y469625D02*
X507523Y466450D01*
X504348Y469625D02*
X507523D01*
X510698Y472800D01*
X513873Y469625D01*
X517048D01*
X513873Y466450D02*
X517048Y469625D01*
X513873Y466450D02*
X517048Y463275D01*
X513873D02*
X517048D01*
X510698Y460100D02*
X513873Y463275D01*
X256660Y530325D02*
X259835Y527150D01*
X253485Y530325D02*
X256660D01*
X253485D02*
X256660Y533500D01*
X253485Y536675D02*
X256660Y533500D01*
X253485Y536675D02*
X256660D01*
X259835Y539850D01*
X263010Y536675D01*
X266185D01*
X263010Y533500D02*
X266185Y536675D01*
X263010Y533500D02*
X266185Y530325D01*
X263010D02*
X266185D01*
X259835Y527150D02*
X263010Y530325D01*
X145023Y139025D02*
X148198Y135850D01*
X141848Y139025D02*
X145023D01*
X141848D02*
X145023Y142200D01*
X141848Y145375D02*
X145023Y142200D01*
X141848Y145375D02*
X145023D01*
X148198Y148550D01*
X151373Y145375D01*
X154548D01*
X151373Y142200D02*
X154548Y145375D01*
X151373Y142200D02*
X154548Y139025D01*
X151373D02*
X154548D01*
X148198Y135850D02*
X151373Y139025D01*
X144273Y290956D02*
X147448Y287781D01*
X141098Y290956D02*
X144273D01*
X141098D02*
X144273Y294131D01*
X141098Y297306D02*
X144273Y294131D01*
X141098Y297306D02*
X144273D01*
X147448Y300481D01*
X150623Y297306D01*
X153798D01*
X150623Y294131D02*
X153798Y297306D01*
X150623Y294131D02*
X153798Y290956D01*
X150623D02*
X153798D01*
X147448Y287781D02*
X150623Y290956D01*
X677828Y405244D02*
X681003Y402069D01*
X674653Y405244D02*
X677828D01*
X674653D02*
X677828Y408419D01*
X674653Y411594D02*
X677828Y408419D01*
X674653Y411594D02*
X677828D01*
X681003Y414769D01*
X684178Y411594D01*
X687353D01*
X684178Y408419D02*
X687353Y411594D01*
X684178Y408419D02*
X687353Y405244D01*
X684178D02*
X687353D01*
X681003Y402069D02*
X684178Y405244D01*
X871575Y406325D02*
X874750Y403150D01*
X868400Y406325D02*
X871575D01*
X868400D02*
X871575Y409500D01*
X868400Y412675D02*
X871575Y409500D01*
X868400Y412675D02*
X871575D01*
X874750Y415850D01*
X877925Y412675D01*
X881100D01*
X877925Y409500D02*
X881100Y412675D01*
X877925Y409500D02*
X881100Y406325D01*
X877925D02*
X881100D01*
X874750Y403150D02*
X877925Y406325D01*
X676325Y601325D02*
X679500Y598150D01*
X673150Y601325D02*
X676325D01*
X673150D02*
X676325Y604500D01*
X673150Y607675D02*
X676325Y604500D01*
X673150Y607675D02*
X676325D01*
X679500Y610850D01*
X682675Y607675D01*
X685850D01*
X682675Y604500D02*
X685850Y607675D01*
X682675Y604500D02*
X685850Y601325D01*
X682675D02*
X685850D01*
X679500Y598150D02*
X682675Y601325D01*
X873325Y603825D02*
X876500Y600650D01*
X870150Y603825D02*
X873325D01*
X870150D02*
X873325Y607000D01*
X870150Y610175D02*
X873325Y607000D01*
X870150Y610175D02*
X873325D01*
X876500Y613350D01*
X879675Y610175D01*
X882850D01*
X879675Y607000D02*
X882850Y610175D01*
X879675Y607000D02*
X882850Y603825D01*
X879675D02*
X882850D01*
X876500Y600650D02*
X879675Y603825D01*
X679573Y213752D02*
X682747Y210578D01*
X676397Y213752D02*
X679573D01*
X676397D02*
X679573Y216928D01*
X676397Y220103D02*
X679573Y216928D01*
X676397Y220103D02*
X679573D01*
X682747Y223277D01*
X685922Y220103D01*
X689098D01*
X685922Y216928D02*
X689098Y220103D01*
X685922Y216928D02*
X689098Y213752D01*
X685922D02*
X689098D01*
X682747Y210578D02*
X685922Y213752D01*
X871750Y208866D02*
X874925Y205691D01*
X868575Y208866D02*
X871750D01*
X868575D02*
X871750Y212041D01*
X868575Y215216D02*
X871750Y212041D01*
X868575Y215216D02*
X871750D01*
X874925Y218391D01*
X878100Y215216D01*
X881275D01*
X878100Y212041D02*
X881275Y215216D01*
X878100Y212041D02*
X881275Y208866D01*
X878100D02*
X881275D01*
X874925Y205691D02*
X878100Y208866D01*
X507375Y73111D02*
X510550Y69936D01*
X504200Y73111D02*
X507375D01*
X504200D02*
X507375Y76286D01*
X504200Y79461D02*
X507375Y76286D01*
X504200Y79461D02*
X507375D01*
X510550Y82636D01*
X513725Y79461D01*
X516900D01*
X513725Y76286D02*
X516900Y79461D01*
X513725Y76286D02*
X516900Y73111D01*
X513725D02*
X516900D01*
X510550Y69936D02*
X513725Y73111D01*
X520575Y72825D02*
X523750Y69650D01*
X517400Y72825D02*
X520575D01*
X517400D02*
X520575Y76000D01*
X517400Y79175D02*
X520575Y76000D01*
X517400Y79175D02*
X520575D01*
X523750Y82350D01*
X526925Y79175D01*
X530100D01*
X526925Y76000D02*
X530100Y79175D01*
X526925Y76000D02*
X530100Y72825D01*
X526925D02*
X530100D01*
X523750Y69650D02*
X526925Y72825D01*
X701075Y73575D02*
X704250Y70400D01*
X697900Y73575D02*
X701075D01*
X697900D02*
X701075Y76750D01*
X697900Y79925D02*
X701075Y76750D01*
X697900Y79925D02*
X701075D01*
X704250Y83100D01*
X707425Y79925D01*
X710600D01*
X707425Y76750D02*
X710600Y79925D01*
X707425Y76750D02*
X710600Y73575D01*
X707425D02*
X710600D01*
X704250Y70400D02*
X707425Y73575D01*
X713325D02*
X716500Y70400D01*
X710150Y73575D02*
X713325D01*
X710150D02*
X713325Y76750D01*
X710150Y79925D02*
X713325Y76750D01*
X710150Y79925D02*
X713325D01*
X716500Y83100D01*
X719675Y79925D01*
X722850D01*
X719675Y76750D02*
X722850Y79925D01*
X719675Y76750D02*
X722850Y73575D01*
X719675D02*
X722850D01*
X716500Y70400D02*
X719675Y73575D01*
X894825D02*
X898000Y70400D01*
X891650Y73575D02*
X894825D01*
X891650D02*
X894825Y76750D01*
X891650Y79925D02*
X894825Y76750D01*
X891650Y79925D02*
X894825D01*
X898000Y83100D01*
X901175Y79925D01*
X904350D01*
X901175Y76750D02*
X904350Y79925D01*
X901175Y76750D02*
X904350Y73575D01*
X901175D02*
X904350D01*
X898000Y70400D02*
X901175Y73575D01*
X909075Y73825D02*
X912250Y70650D01*
X905900Y73825D02*
X909075D01*
X905900D02*
X909075Y77000D01*
X905900Y80175D02*
X909075Y77000D01*
X905900Y80175D02*
X909075D01*
X912250Y83350D01*
X915425Y80175D01*
X918600D01*
X915425Y77000D02*
X918600Y80175D01*
X915425Y77000D02*
X918600Y73825D01*
X915425D02*
X918600D01*
X912250Y70650D02*
X915425Y73825D01*
X202075Y88825D02*
X205250Y85650D01*
X198900Y88825D02*
X202075D01*
X198900D02*
X202075Y92000D01*
X198900Y95175D02*
X202075Y92000D01*
X198900Y95175D02*
X202075D01*
X205250Y98350D01*
X208425Y95175D01*
X211600D01*
X208425Y92000D02*
X211600Y95175D01*
X208425Y92000D02*
X211600Y88825D01*
X208425D02*
X211600D01*
X205250Y85650D02*
X208425Y88825D01*
X166722Y183428D02*
X169897Y180253D01*
X163547Y183428D02*
X166722D01*
X163547D02*
X166722Y186603D01*
X163547Y189778D02*
X166722Y186603D01*
X163547Y189778D02*
X166722D01*
X169897Y192953D01*
X173072Y189778D01*
X176247D01*
X173072Y186603D02*
X176247Y189778D01*
X173072Y186603D02*
X176247Y183428D01*
X173072D02*
X176247D01*
X169897Y180253D02*
X173072Y183428D01*
X144825Y190575D02*
X148000Y187400D01*
X141650Y190575D02*
X144825D01*
X141650D02*
X144825Y193750D01*
X141650Y196925D02*
X144825Y193750D01*
X141650Y196925D02*
X144825D01*
X148000Y200100D01*
X151175Y196925D01*
X154350D01*
X151175Y193750D02*
X154350Y196925D01*
X151175Y193750D02*
X154350Y190575D01*
X151175D02*
X154350D01*
X148000Y187400D02*
X151175Y190575D01*
X165816Y259752D02*
X168991Y256577D01*
X162641Y259752D02*
X165816D01*
X162641D02*
X165816Y262927D01*
X162641Y266102D02*
X165816Y262927D01*
X162641Y266102D02*
X165816D01*
X168991Y269277D01*
X172166Y266102D01*
X175341D01*
X172166Y262927D02*
X175341Y266102D01*
X172166Y262927D02*
X175341Y259752D01*
X172166D02*
X175341D01*
X168991Y256577D02*
X172166Y259752D01*
X203324Y184443D02*
X206499Y181268D01*
X200149Y184443D02*
X203324D01*
X200149D02*
X203324Y187618D01*
X200149Y190793D02*
X203324Y187618D01*
X200149Y190793D02*
X203324D01*
X206499Y193968D01*
X209674Y190793D01*
X212849D01*
X209674Y187618D02*
X212849Y190793D01*
X209674Y187618D02*
X212849Y184443D01*
X209674D02*
X212849D01*
X206499Y181268D02*
X209674Y184443D01*
X176873Y205228D02*
X180049Y202053D01*
X173699Y205228D02*
X176873D01*
X173699D02*
X176873Y208403D01*
X173699Y211578D02*
X176873Y208403D01*
X173699Y211578D02*
X176873D01*
X180049Y214753D01*
X183223Y211578D01*
X186399D01*
X183223Y208403D02*
X186399Y211578D01*
X183223Y208403D02*
X186399Y205228D01*
X183223D02*
X186399D01*
X180049Y202053D02*
X183223Y205228D01*
X176825Y300075D02*
X180000Y296900D01*
X173650Y300075D02*
X176825D01*
X173650D02*
X176825Y303250D01*
X173650Y306425D02*
X176825Y303250D01*
X173650Y306425D02*
X176825D01*
X180000Y309600D01*
X183175Y306425D01*
X186350D01*
X183175Y303250D02*
X186350Y306425D01*
X183175Y303250D02*
X186350Y300075D01*
X183175D02*
X186350D01*
X180000Y296900D02*
X183175Y300075D01*
X179325Y320075D02*
X182500Y316900D01*
X176150Y320075D02*
X179325D01*
X176150D02*
X179325Y323250D01*
X176150Y326425D02*
X179325Y323250D01*
X176150Y326425D02*
X179325D01*
X182500Y329600D01*
X185675Y326425D01*
X188850D01*
X185675Y323250D02*
X188850Y326425D01*
X185675Y323250D02*
X188850Y320075D01*
X185675D02*
X188850D01*
X182500Y316900D02*
X185675Y320075D01*
X177471Y129514D02*
X180646Y126339D01*
X174296Y129514D02*
X177471D01*
X174296D02*
X177471Y132689D01*
X174296Y135864D02*
X177471Y132689D01*
X174296Y135864D02*
X177471D01*
X180646Y139039D01*
X183821Y135864D01*
X186996D01*
X183821Y132689D02*
X186996Y135864D01*
X183821Y132689D02*
X186996Y129514D01*
X183821D02*
X186996D01*
X180646Y126339D02*
X183821Y129514D01*
X148575Y265575D02*
X151750Y262400D01*
X145400Y265575D02*
X148575D01*
X145400D02*
X148575Y268750D01*
X145400Y271925D02*
X148575Y268750D01*
X145400Y271925D02*
X148575D01*
X151750Y275100D01*
X154925Y271925D01*
X158100D01*
X154925Y268750D02*
X158100Y271925D01*
X154925Y268750D02*
X158100Y265575D01*
X154925D02*
X158100D01*
X151750Y262400D02*
X154925Y265575D01*
X266808Y431859D02*
X269983Y428684D01*
X263633Y431859D02*
X266808D01*
X263633D02*
X266808Y435034D01*
X263633Y438209D02*
X266808Y435034D01*
X263633Y438209D02*
X266808D01*
X269983Y441384D01*
X273158Y438209D01*
X276333D01*
X273158Y435034D02*
X276333Y438209D01*
X273158Y435034D02*
X276333Y431859D01*
X273158D02*
X276333D01*
X269983Y428684D02*
X273158Y431859D01*
X385575Y107325D02*
X388750Y104150D01*
X382400Y107325D02*
X385575D01*
X382400D02*
X385575Y110500D01*
X382400Y113675D02*
X385575Y110500D01*
X382400Y113675D02*
X385575D01*
X388750Y116850D01*
X391925Y113675D01*
X395100D01*
X391925Y110500D02*
X395100Y113675D01*
X391925Y110500D02*
X395100Y107325D01*
X391925D02*
X395100D01*
X388750Y104150D02*
X391925Y107325D01*
X404825Y178325D02*
X408000Y175150D01*
X401650Y178325D02*
X404825D01*
X401650D02*
X404825Y181500D01*
X401650Y184675D02*
X404825Y181500D01*
X401650Y184675D02*
X404825D01*
X408000Y187850D01*
X411175Y184675D01*
X414350D01*
X411175Y181500D02*
X414350Y184675D01*
X411175Y181500D02*
X414350Y178325D01*
X411175D02*
X414350D01*
X408000Y175150D02*
X411175Y178325D01*
X386325Y305075D02*
X389500Y301900D01*
X383150Y305075D02*
X386325D01*
X383150D02*
X386325Y308250D01*
X383150Y311425D02*
X386325Y308250D01*
X383150Y311425D02*
X386325D01*
X389500Y314600D01*
X392675Y311425D01*
X395850D01*
X392675Y308250D02*
X395850Y311425D01*
X392675Y308250D02*
X395850Y305075D01*
X392675D02*
X395850D01*
X389500Y301900D02*
X392675Y305075D01*
X403849Y372021D02*
X407024Y368846D01*
X400674Y372021D02*
X403849D01*
X400674D02*
X403849Y375196D01*
X400674Y378371D02*
X403849Y375196D01*
X400674Y378371D02*
X403849D01*
X407024Y381546D01*
X410199Y378371D01*
X413374D01*
X410199Y375196D02*
X413374Y378371D01*
X410199Y375196D02*
X413374Y372021D01*
X410199D02*
X413374D01*
X407024Y368846D02*
X410199Y372021D01*
X385325Y503825D02*
X388500Y500650D01*
X382150Y503825D02*
X385325D01*
X382150D02*
X385325Y507000D01*
X382150Y510175D02*
X385325Y507000D01*
X382150Y510175D02*
X385325D01*
X388500Y513350D01*
X391675Y510175D01*
X394850D01*
X391675Y507000D02*
X394850Y510175D01*
X391675Y507000D02*
X394850Y503825D01*
X391675D02*
X394850D01*
X388500Y500650D02*
X391675Y503825D01*
X404439Y568422D02*
X407614Y565247D01*
X401264Y568422D02*
X404439D01*
X401264D02*
X404439Y571597D01*
X401264Y574772D02*
X404439Y571597D01*
X401264Y574772D02*
X404439D01*
X407614Y577947D01*
X410789Y574772D01*
X413964D01*
X410789Y571597D02*
X413964Y574772D01*
X410789Y571597D02*
X413964Y568422D01*
X410789D02*
X413964D01*
X407614Y565247D02*
X410789Y568422D01*
X385032Y699840D02*
X388207Y696665D01*
X381857Y699840D02*
X385032D01*
X381857D02*
X385032Y703015D01*
X381857Y706190D02*
X385032Y703015D01*
X381857Y706190D02*
X385032D01*
X388207Y709365D01*
X391382Y706190D01*
X394557D01*
X391382Y703015D02*
X394557Y706190D01*
X391382Y703015D02*
X394557Y699840D01*
X391382D02*
X394557D01*
X388207Y696665D02*
X391382Y699840D01*
X403761Y765748D02*
X406936Y762573D01*
X400586Y765748D02*
X403761D01*
X400586D02*
X403761Y768923D01*
X400586Y772098D02*
X403761Y768923D01*
X400586Y772098D02*
X403761D01*
X406936Y775273D01*
X410111Y772098D01*
X413286D01*
X410111Y768923D02*
X413286Y772098D01*
X410111Y768923D02*
X413286Y765748D01*
X410111D02*
X413286D01*
X406936Y762573D02*
X410111Y765748D01*
X579618Y701829D02*
X582793Y698654D01*
X576443Y701829D02*
X579618D01*
X576443D02*
X579618Y705004D01*
X576443Y708179D02*
X579618Y705004D01*
X576443Y708179D02*
X579618D01*
X582793Y711354D01*
X585968Y708179D01*
X589143D01*
X585968Y705004D02*
X589143Y708179D01*
X585968Y705004D02*
X589143Y701829D01*
X585968D02*
X589143D01*
X582793Y698654D02*
X585968Y701829D01*
X597933Y765179D02*
X601108Y762004D01*
X594758Y765179D02*
X597933D01*
X594758D02*
X597933Y768354D01*
X594758Y771529D02*
X597933Y768354D01*
X594758Y771529D02*
X597933D01*
X601108Y774704D01*
X604283Y771529D01*
X607458D01*
X604283Y768354D02*
X607458Y771529D01*
X604283Y768354D02*
X607458Y765179D01*
X604283D02*
X607458D01*
X601108Y762004D02*
X604283Y765179D01*
X774075Y700575D02*
X777250Y697400D01*
X770900Y700575D02*
X774075D01*
X770900D02*
X774075Y703750D01*
X770900Y706925D02*
X774075Y703750D01*
X770900Y706925D02*
X774075D01*
X777250Y710100D01*
X780425Y706925D01*
X783600D01*
X780425Y703750D02*
X783600Y706925D01*
X780425Y703750D02*
X783600Y700575D01*
X780425D02*
X783600D01*
X777250Y697400D02*
X780425Y700575D01*
X792503Y765613D02*
X795678Y762438D01*
X789328Y765613D02*
X792503D01*
X789328D02*
X792503Y768788D01*
X789328Y771963D02*
X792503Y768788D01*
X789328Y771963D02*
X792503D01*
X795678Y775138D01*
X798853Y771963D01*
X802028D01*
X798853Y768788D02*
X802028Y771963D01*
X798853Y768788D02*
X802028Y765613D01*
X798853D02*
X802028D01*
X795678Y762438D02*
X798853Y765613D01*
X792075Y568075D02*
X795250Y564900D01*
X788900Y568075D02*
X792075D01*
X788900D02*
X792075Y571250D01*
X788900Y574425D02*
X792075Y571250D01*
X788900Y574425D02*
X792075D01*
X795250Y577600D01*
X798425Y574425D01*
X801600D01*
X798425Y571250D02*
X801600Y574425D01*
X798425Y571250D02*
X801600Y568075D01*
X798425D02*
X801600D01*
X795250Y564900D02*
X798425Y568075D01*
X773075Y502075D02*
X776250Y498900D01*
X769900Y502075D02*
X773075D01*
X769900D02*
X773075Y505250D01*
X769900Y508425D02*
X773075Y505250D01*
X769900Y508425D02*
X773075D01*
X776250Y511600D01*
X779425Y508425D01*
X782600D01*
X779425Y505250D02*
X782600Y508425D01*
X779425Y505250D02*
X782600Y502075D01*
X779425D02*
X782600D01*
X776250Y498900D02*
X779425Y502075D01*
X792251Y369284D02*
X795426Y366109D01*
X789076Y369284D02*
X792251D01*
X789076D02*
X792251Y372459D01*
X789076Y375634D02*
X792251Y372459D01*
X789076Y375634D02*
X792251D01*
X795426Y378809D01*
X798601Y375634D01*
X801776D01*
X798601Y372459D02*
X801776Y375634D01*
X798601Y372459D02*
X801776Y369284D01*
X798601D02*
X801776D01*
X795426Y366109D02*
X798601Y369284D01*
X772875Y307480D02*
X776050Y304305D01*
X769700Y307480D02*
X772875D01*
X769700D02*
X772875Y310655D01*
X769700Y313830D02*
X772875Y310655D01*
X769700Y313830D02*
X772875D01*
X776050Y317005D01*
X779225Y313830D01*
X782400D01*
X779225Y310655D02*
X782400Y313830D01*
X779225Y310655D02*
X782400Y307480D01*
X779225D02*
X782400D01*
X776050Y304305D02*
X779225Y307480D01*
X578825Y504825D02*
X582000Y501650D01*
X575650Y504825D02*
X578825D01*
X575650D02*
X578825Y508000D01*
X575650Y511175D02*
X578825Y508000D01*
X575650Y511175D02*
X578825D01*
X582000Y514350D01*
X585175Y511175D01*
X588350D01*
X585175Y508000D02*
X588350Y511175D01*
X585175Y508000D02*
X588350Y504825D01*
X585175D02*
X588350D01*
X582000Y501650D02*
X585175Y504825D01*
X596877Y567896D02*
X600052Y564721D01*
X593702Y567896D02*
X596877D01*
X593702D02*
X596877Y571071D01*
X593702Y574246D02*
X596877Y571071D01*
X593702Y574246D02*
X596877D01*
X600052Y577421D01*
X603227Y574246D01*
X606402D01*
X603227Y571071D02*
X606402Y574246D01*
X603227Y571071D02*
X606402Y567896D01*
X603227D02*
X606402D01*
X600052Y564721D02*
X603227Y567896D01*
X374325Y78325D02*
X377500Y75150D01*
X371150Y78325D02*
X374325D01*
X371150D02*
X374325Y81500D01*
X371150Y84675D02*
X374325Y81500D01*
X371150Y84675D02*
X374325D01*
X377500Y87850D01*
X380675Y84675D01*
X383850D01*
X380675Y81500D02*
X383850Y84675D01*
X380675Y81500D02*
X383850Y78325D01*
X380675D02*
X383850D01*
X377500Y75150D02*
X380675Y78325D01*
X579075Y111325D02*
X582250Y108150D01*
X575900Y111325D02*
X579075D01*
X575900D02*
X579075Y114500D01*
X575900Y117675D02*
X579075Y114500D01*
X575900Y117675D02*
X579075D01*
X582250Y120850D01*
X585425Y117675D01*
X588600D01*
X585425Y114500D02*
X588600Y117675D01*
X585425Y114500D02*
X588600Y111325D01*
X585425D02*
X588600D01*
X582250Y108150D02*
X585425Y111325D01*
X597238Y175280D02*
X600413Y172105D01*
X594063Y175280D02*
X597238D01*
X594063D02*
X597238Y178455D01*
X594063Y181630D02*
X597238Y178455D01*
X594063Y181630D02*
X597238D01*
X600413Y184805D01*
X603588Y181630D01*
X606763D01*
X603588Y178455D02*
X606763Y181630D01*
X603588Y178455D02*
X606763Y175280D01*
X603588D02*
X606763D01*
X600413Y172105D02*
X603588Y175280D01*
X579325Y307325D02*
X582500Y304150D01*
X576150Y307325D02*
X579325D01*
X576150D02*
X579325Y310500D01*
X576150Y313675D02*
X579325Y310500D01*
X576150Y313675D02*
X579325D01*
X582500Y316850D01*
X585675Y313675D01*
X588850D01*
X585675Y310500D02*
X588850Y313675D01*
X585675Y310500D02*
X588850Y307325D01*
X585675D02*
X588850D01*
X582500Y304150D02*
X585675Y307325D01*
X597811Y370474D02*
X600986Y367299D01*
X594636Y370474D02*
X597811D01*
X594636D02*
X597811Y373649D01*
X594636Y376824D02*
X597811Y373649D01*
X594636Y376824D02*
X597811D01*
X600986Y379999D01*
X604161Y376824D01*
X607336D01*
X604161Y373649D02*
X607336Y376824D01*
X604161Y373649D02*
X607336Y370474D01*
X604161D02*
X607336D01*
X600986Y367299D02*
X604161Y370474D01*
X759575Y122325D02*
X762750Y119150D01*
X756400Y122325D02*
X759575D01*
X756400D02*
X759575Y125500D01*
X756400Y128675D02*
X759575Y125500D01*
X756400Y128675D02*
X759575D01*
X762750Y131850D01*
X765925Y128675D01*
X769100D01*
X765925Y125500D02*
X769100Y128675D01*
X765925Y125500D02*
X769100Y122325D01*
X765925D02*
X769100D01*
X762750Y119150D02*
X765925Y122325D01*
X791825Y175575D02*
X795000Y172400D01*
X788650Y175575D02*
X791825D01*
X788650D02*
X791825Y178750D01*
X788650Y181925D02*
X791825Y178750D01*
X788650Y181925D02*
X791825D01*
X795000Y185100D01*
X798175Y181925D01*
X801350D01*
X798175Y178750D02*
X801350Y181925D01*
X798175Y178750D02*
X801350Y175575D01*
X798175D02*
X801350D01*
X795000Y172400D02*
X798175Y175575D01*
X114825Y575825D02*
X118000Y572650D01*
X111650Y575825D02*
X114825D01*
X111650D02*
X114825Y579000D01*
X111650Y582175D02*
X114825Y579000D01*
X111650Y582175D02*
X114825D01*
X118000Y585350D01*
X121175Y582175D01*
X124350D01*
X121175Y579000D02*
X124350Y582175D01*
X121175Y579000D02*
X124350Y575825D01*
X121175D02*
X124350D01*
X118000Y572650D02*
X121175Y575825D01*
X202663Y258044D02*
X205839Y254869D01*
X199489Y258044D02*
X202663D01*
X199489D02*
X202663Y261219D01*
X199489Y264394D02*
X202663Y261219D01*
X199489Y264394D02*
X202663D01*
X205839Y267569D01*
X209014Y264394D01*
X212188D01*
X209014Y261219D02*
X212188Y264394D01*
X209014Y261219D02*
X212188Y258044D01*
X209014D02*
X212188D01*
X205839Y254869D02*
X209014Y258044D01*
X200894Y214138D02*
X204069Y210963D01*
X197719Y214138D02*
X200894D01*
X197719D02*
X200894Y217313D01*
X197719Y220488D02*
X200894Y217313D01*
X197719Y220488D02*
X200894D01*
X204069Y223663D01*
X207244Y220488D01*
X210419D01*
X207244Y217313D02*
X210419Y220488D01*
X207244Y217313D02*
X210419Y214138D01*
X207244D02*
X210419D01*
X204069Y210963D02*
X207244Y214138D01*
X267661Y474376D02*
X270836Y471201D01*
X264486Y474376D02*
X267661D01*
X264486D02*
X267661Y477551D01*
X264486Y480726D02*
X267661Y477551D01*
X264486Y480726D02*
X267661D01*
X270836Y483901D01*
X274011Y480726D01*
X277186D01*
X274011Y477551D02*
X277186Y480726D01*
X274011Y477551D02*
X277186Y474376D01*
X274011D02*
X277186D01*
X270836Y471201D02*
X274011Y474376D01*
X391575Y618825D02*
X394750Y615650D01*
X388400Y618825D02*
X391575D01*
X388400D02*
X391575Y622000D01*
X388400Y625175D02*
X391575Y622000D01*
X388400Y625175D02*
X391575D01*
X394750Y628350D01*
X397925Y625175D01*
X401100D01*
X397925Y622000D02*
X401100Y625175D01*
X397925Y622000D02*
X401100Y618825D01*
X397925D02*
X401100D01*
X394750Y615650D02*
X397925Y618825D01*
X396847Y601981D02*
X400022Y598806D01*
X393672Y601981D02*
X396847D01*
X393672D02*
X396847Y605156D01*
X393672Y608331D02*
X396847Y605156D01*
X393672Y608331D02*
X396847D01*
X400022Y611506D01*
X403197Y608331D01*
X406372D01*
X403197Y605156D02*
X406372Y608331D01*
X403197Y605156D02*
X406372Y601981D01*
X403197D02*
X406372D01*
X400022Y598806D02*
X403197Y601981D01*
X485443Y601670D02*
X488618Y598495D01*
X482268Y601670D02*
X485443D01*
X482268D02*
X485443Y604845D01*
X482268Y608020D02*
X485443Y604845D01*
X482268Y608020D02*
X485443D01*
X488618Y611195D01*
X491793Y608020D01*
X494968D01*
X491793Y604845D02*
X494968Y608020D01*
X491793Y604845D02*
X494968Y601670D01*
X491793D02*
X494968D01*
X488618Y598495D02*
X491793Y601670D01*
X340093Y765320D02*
X343268Y762145D01*
X336918Y765320D02*
X340093D01*
X336918D02*
X340093Y768495D01*
X336918Y771670D02*
X340093Y768495D01*
X336918Y771670D02*
X340093D01*
X343268Y774845D01*
X346443Y771670D01*
X349618D01*
X346443Y768495D02*
X349618Y771670D01*
X346443Y768495D02*
X349618Y765320D01*
X346443D02*
X349618D01*
X343268Y762145D02*
X346443Y765320D01*
X484325Y798575D02*
X487500Y795400D01*
X481150Y798575D02*
X484325D01*
X481150D02*
X484325Y801750D01*
X481150Y804925D02*
X484325Y801750D01*
X481150Y804925D02*
X484325D01*
X487500Y808100D01*
X490675Y804925D01*
X493850D01*
X490675Y801750D02*
X493850Y804925D01*
X490675Y801750D02*
X493850Y798575D01*
X490675D02*
X493850D01*
X487500Y795400D02*
X490675Y798575D01*
X677719Y806105D02*
X680894Y802930D01*
X674544Y806105D02*
X677719D01*
X674544D02*
X677719Y809280D01*
X674544Y812455D02*
X677719Y809280D01*
X674544Y812455D02*
X677719D01*
X680894Y815630D01*
X684069Y812455D01*
X687244D01*
X684069Y809280D02*
X687244Y812455D01*
X684069Y809280D02*
X687244Y806105D01*
X684069D02*
X687244D01*
X680894Y802930D02*
X684069Y806105D01*
X872825Y805325D02*
X876000Y802150D01*
X869650Y805325D02*
X872825D01*
X869650D02*
X872825Y808500D01*
X869650Y811675D02*
X872825Y808500D01*
X869650Y811675D02*
X872825D01*
X876000Y814850D01*
X879175Y811675D01*
X882350D01*
X879175Y808500D02*
X882350Y811675D01*
X879175Y808500D02*
X882350Y805325D01*
X879175D02*
X882350D01*
X876000Y802150D02*
X879175Y805325D01*
X403075Y413825D02*
X406250Y410650D01*
X399900Y413825D02*
X403075D01*
X399900D02*
X403075Y417000D01*
X399900Y420175D02*
X403075Y417000D01*
X399900Y420175D02*
X403075D01*
X406250Y423350D01*
X409425Y420175D01*
X412600D01*
X409425Y417000D02*
X412600Y420175D01*
X409425Y417000D02*
X412600Y413825D01*
X409425D02*
X412600D01*
X406250Y410650D02*
X409425Y413825D01*
X394371Y428865D02*
X397546Y425690D01*
X391196Y428865D02*
X394371D01*
X391196D02*
X394371Y432040D01*
X391196Y435215D02*
X394371Y432040D01*
X391196Y435215D02*
X394371D01*
X397546Y438390D01*
X400721Y435215D01*
X403896D01*
X400721Y432040D02*
X403896Y435215D01*
X400721Y432040D02*
X403896Y428865D01*
X400721D02*
X403896D01*
X397546Y425690D02*
X400721Y428865D01*
X487838Y396654D02*
X491013Y393479D01*
X484663Y396654D02*
X487838D01*
X484663D02*
X487838Y399829D01*
X484663Y403004D02*
X487838Y399829D01*
X484663Y403004D02*
X487838D01*
X491013Y406179D01*
X494188Y403004D01*
X497363D01*
X494188Y399829D02*
X497363Y403004D01*
X494188Y399829D02*
X497363Y396654D01*
X494188D02*
X497363D01*
X491013Y393479D02*
X494188Y396654D01*
X385183Y635411D02*
X388358Y632236D01*
X382008Y635411D02*
X385183D01*
X382008D02*
X385183Y638586D01*
X382008Y641761D02*
X385183Y638586D01*
X382008Y641761D02*
X385183D01*
X388358Y644936D01*
X391533Y641761D01*
X394708D01*
X391533Y638586D02*
X394708Y641761D01*
X391533Y638586D02*
X394708Y635411D01*
X391533D02*
X394708D01*
X388358Y632236D02*
X391533Y635411D01*
X353575Y754575D02*
X356750Y751400D01*
X350400Y754575D02*
X353575D01*
X350400D02*
X353575Y757750D01*
X350400Y760925D02*
X353575Y757750D01*
X350400Y760925D02*
X353575D01*
X356750Y764100D01*
X359925Y760925D01*
X363100D01*
X359925Y757750D02*
X363100Y760925D01*
X359925Y757750D02*
X363100Y754575D01*
X359925D02*
X363100D01*
X356750Y751400D02*
X359925Y754575D01*
X330190Y782822D02*
X333365Y779647D01*
X327015Y782822D02*
X330190D01*
X327015D02*
X330190Y785997D01*
X327015Y789172D02*
X330190Y785997D01*
X327015Y789172D02*
X330190D01*
X333365Y792347D01*
X336540Y789172D01*
X339715D01*
X336540Y785997D02*
X339715Y789172D01*
X336540Y785997D02*
X339715Y782822D01*
X336540D02*
X339715D01*
X333365Y779647D02*
X336540Y782822D01*
X369523Y189729D02*
X372698Y186554D01*
X366348Y189729D02*
X369523D01*
X366348D02*
X369523Y192904D01*
X366348Y196079D02*
X369523Y192904D01*
X366348Y196079D02*
X369523D01*
X372698Y199254D01*
X375873Y196079D01*
X379048D01*
X375873Y192904D02*
X379048Y196079D01*
X375873Y192904D02*
X379048Y189729D01*
X375873D02*
X379048D01*
X372698Y186554D02*
X375873Y189729D01*
X486016Y204329D02*
X489191Y201154D01*
X482841Y204329D02*
X486016D01*
X482841D02*
X486016Y207504D01*
X482841Y210679D02*
X486016Y207504D01*
X482841Y210679D02*
X486016D01*
X489191Y213854D01*
X492366Y210679D01*
X495541D01*
X492366Y207504D02*
X495541Y210679D01*
X492366Y207504D02*
X495541Y204329D01*
X492366D02*
X495541D01*
X489191Y201154D02*
X492366Y204329D01*
X379575Y226153D02*
X382750Y222978D01*
X376400Y226153D02*
X379575D01*
X376400D02*
X379575Y229328D01*
X376400Y232503D02*
X379575Y229328D01*
X376400Y232503D02*
X379575D01*
X382750Y235678D01*
X385925Y232503D01*
X389100D01*
X385925Y229328D02*
X389100Y232503D01*
X385925Y229328D02*
X389100Y226153D01*
X385925D02*
X389100D01*
X382750Y222978D02*
X385925Y226153D01*
X380575Y245825D02*
X383750Y242650D01*
X377400Y245825D02*
X380575D01*
X377400D02*
X380575Y249000D01*
X377400Y252175D02*
X380575Y249000D01*
X377400Y252175D02*
X380575D01*
X383750Y255350D01*
X386925Y252175D01*
X390100D01*
X386925Y249000D02*
X390100Y252175D01*
X386925Y249000D02*
X390100Y245825D01*
X386925D02*
X390100D01*
X383750Y242650D02*
X386925Y245825D01*
X404825Y396325D02*
X408000Y393150D01*
X401650Y396325D02*
X404825D01*
X401650D02*
X404825Y399500D01*
X401650Y402675D02*
X404825Y399500D01*
X401650Y402675D02*
X404825D01*
X408000Y405850D01*
X411175Y402675D01*
X414350D01*
X411175Y399500D02*
X414350Y402675D01*
X411175Y399500D02*
X414350Y396325D01*
X411175D02*
X414350D01*
X408000Y393150D02*
X411175Y396325D01*
X202075Y443075D02*
X205250Y439900D01*
X198900Y443075D02*
X202075D01*
X198900D02*
X202075Y446250D01*
X198900Y449425D02*
X202075Y446250D01*
X198900Y449425D02*
X202075D01*
X205250Y452600D01*
X208425Y449425D01*
X211600D01*
X208425Y446250D02*
X211600Y449425D01*
X208425Y446250D02*
X211600Y443075D01*
X208425D02*
X211600D01*
X205250Y439900D02*
X208425Y443075D01*
X374075Y69325D02*
X377250Y66150D01*
X370900Y69325D02*
X374075D01*
X370900D02*
X374075Y72500D01*
X370900Y75675D02*
X374075Y72500D01*
X370900Y75675D02*
X374075D01*
X377250Y78850D01*
X380425Y75675D01*
X383600D01*
X380425Y72500D02*
X383600Y75675D01*
X380425Y72500D02*
X383600Y69325D01*
X380425D02*
X383600D01*
X377250Y66150D02*
X380425Y69325D01*
X483787Y761136D02*
X496487D01*
Y773836D01*
X483787D02*
X496487D01*
X483787Y761136D02*
Y773836D01*
X509287Y697386D02*
X521987D01*
Y710086D01*
X509287D02*
X521987D01*
X509287Y697386D02*
Y710086D01*
X898408Y501476D02*
X911107D01*
Y514176D01*
X898408D02*
X911107D01*
X898408Y501476D02*
Y514176D01*
X872907Y565226D02*
X885607D01*
Y577926D01*
X872907D02*
X885607D01*
X872907Y565226D02*
Y577926D01*
X702656Y500563D02*
X715356D01*
Y513263D01*
X702656D02*
X715356D01*
X702656Y500563D02*
Y513263D01*
X677156Y564313D02*
X689856D01*
Y577013D01*
X677156D02*
X689856D01*
X677156Y564313D02*
Y577013D01*
X510117Y500056D02*
X522817D01*
Y512756D01*
X510117D02*
X522817D01*
X510117Y500056D02*
Y512756D01*
X484617Y563806D02*
X497317D01*
Y576506D01*
X484617D02*
X497317D01*
X484617Y563806D02*
Y576506D01*
X872587Y366560D02*
X885287D01*
Y379260D01*
X872587D02*
X885287D01*
X872587Y366560D02*
Y379260D01*
X898087Y302810D02*
X910788D01*
Y315510D01*
X898087D02*
X910788D01*
X898087Y302810D02*
Y315510D01*
X678117Y366556D02*
X690817D01*
Y379256D01*
X678117D02*
X690817D01*
X678117Y366556D02*
Y379256D01*
X703617Y302806D02*
X716317D01*
Y315506D01*
X703617D02*
X716317D01*
X703617Y302806D02*
Y315506D01*
X510117Y302306D02*
X522817D01*
Y315006D01*
X510117D02*
X522817D01*
X510117Y302306D02*
Y315006D01*
X484617Y366056D02*
X497317D01*
Y378756D01*
X484617D02*
X497317D01*
X484617Y366056D02*
Y378756D01*
X898087Y107806D02*
X910788D01*
Y120506D01*
X898087D02*
X910788D01*
X898087Y107806D02*
Y120506D01*
X872587Y171556D02*
X885287D01*
Y184256D01*
X872587D02*
X885287D01*
X872587Y171556D02*
Y184256D01*
X677625Y171471D02*
X690325D01*
Y184171D01*
X677625D02*
X690325D01*
X677625Y171471D02*
Y184171D01*
X703125Y107721D02*
X715825D01*
Y120421D01*
X703125D02*
X715825D01*
X703125Y107721D02*
Y120421D01*
X484617Y170806D02*
X497317D01*
Y183506D01*
X484617D02*
X497317D01*
X484617Y170806D02*
Y183506D01*
X510117Y107056D02*
X522817D01*
Y119756D01*
X510117D02*
X522817D01*
X510117Y107056D02*
Y119756D01*
X50150Y162750D02*
Y165925D01*
X53325Y169100D01*
X50150Y172275D02*
X53325Y169100D01*
X50150Y172275D02*
Y175450D01*
X53325D01*
X56500Y172275D01*
X59675Y175450D01*
X62850D01*
Y172275D02*
Y175450D01*
X59675Y169100D02*
X62850Y172275D01*
X59675Y169100D02*
X62850Y165925D01*
Y162750D02*
Y165925D01*
X59675Y162750D02*
X62850D01*
X56500Y165925D02*
X59675Y162750D01*
X53325D02*
X56500Y165925D01*
X50150Y162750D02*
X53325D01*
X50150Y315150D02*
Y318325D01*
X53325Y321500D01*
X50150Y324675D02*
X53325Y321500D01*
X50150Y324675D02*
Y327850D01*
X53325D01*
X56500Y324675D01*
X59675Y327850D01*
X62850D01*
Y324675D02*
Y327850D01*
X59675Y321500D02*
X62850Y324675D01*
X59675Y321500D02*
X62850Y318325D01*
Y315150D02*
Y318325D01*
X59675Y315150D02*
X62850D01*
X56500Y318325D02*
X59675Y315150D01*
X53325D02*
X56500Y318325D01*
X50150Y315150D02*
X53325D01*
X50150Y340550D02*
Y343725D01*
X53325Y346900D01*
X50150Y350075D02*
X53325Y346900D01*
X50150Y350075D02*
Y353250D01*
X53325D01*
X56500Y350075D01*
X59675Y353250D01*
X62850D01*
Y350075D02*
Y353250D01*
X59675Y346900D02*
X62850Y350075D01*
X59675Y346900D02*
X62850Y343725D01*
Y340550D02*
Y343725D01*
X59675Y340550D02*
X62850D01*
X56500Y343725D02*
X59675Y340550D01*
X53325D02*
X56500Y343725D01*
X50150Y340550D02*
X53325D01*
X50150Y238950D02*
Y242125D01*
X53325Y245300D01*
X50150Y248475D02*
X53325Y245300D01*
X50150Y248475D02*
Y251650D01*
X53325D01*
X56500Y248475D01*
X59675Y251650D01*
X62850D01*
Y248475D02*
Y251650D01*
X59675Y245300D02*
X62850Y248475D01*
X59675Y245300D02*
X62850Y242125D01*
Y238950D02*
Y242125D01*
X59675Y238950D02*
X62850D01*
X56500Y242125D02*
X59675Y238950D01*
X53325D02*
X56500Y242125D01*
X50150Y238950D02*
X53325D01*
X50150Y213550D02*
Y216725D01*
X53325Y219900D01*
X50150Y223075D02*
X53325Y219900D01*
X50150Y223075D02*
Y226250D01*
X53325D01*
X56500Y223075D01*
X59675Y226250D01*
X62850D01*
Y223075D02*
Y226250D01*
X59675Y219900D02*
X62850Y223075D01*
X59675Y219900D02*
X62850Y216725D01*
Y213550D02*
Y216725D01*
X59675Y213550D02*
X62850D01*
X56500Y216725D02*
X59675Y213550D01*
X53325D02*
X56500Y216725D01*
X50150Y213550D02*
X53325D01*
X50150Y264350D02*
Y267525D01*
X53325Y270700D01*
X50150Y273875D02*
X53325Y270700D01*
X50150Y273875D02*
Y277050D01*
X53325D01*
X56500Y273875D01*
X59675Y277050D01*
X62850D01*
Y273875D02*
Y277050D01*
X59675Y270700D02*
X62850Y273875D01*
X59675Y270700D02*
X62850Y267525D01*
Y264350D02*
Y267525D01*
X59675Y264350D02*
X62850D01*
X56500Y267525D02*
X59675Y264350D01*
X53325D02*
X56500Y267525D01*
X50150Y264350D02*
X53325D01*
X50150Y289750D02*
Y292925D01*
X53325Y296100D01*
X50150Y299275D02*
X53325Y296100D01*
X50150Y299275D02*
Y302450D01*
X53325D01*
X56500Y299275D01*
X59675Y302450D01*
X62850D01*
Y299275D02*
Y302450D01*
X59675Y296100D02*
X62850Y299275D01*
X59675Y296100D02*
X62850Y292925D01*
Y289750D02*
Y292925D01*
X59675Y289750D02*
X62850D01*
X56500Y292925D02*
X59675Y289750D01*
X53325D02*
X56500Y292925D01*
X50150Y289750D02*
X53325D01*
X50150Y188150D02*
Y191325D01*
X53325Y194500D01*
X50150Y197675D02*
X53325Y194500D01*
X50150Y197675D02*
Y200850D01*
X53325D01*
X56500Y197675D01*
X59675Y200850D01*
X62850D01*
Y197675D02*
Y200850D01*
X59675Y194500D02*
X62850Y197675D01*
X59675Y194500D02*
X62850Y191325D01*
Y188150D02*
Y191325D01*
X59675Y188150D02*
X62850D01*
X56500Y191325D02*
X59675Y188150D01*
X53325D02*
X56500Y191325D01*
X50150Y188150D02*
X53325D01*
X50150Y391350D02*
Y394525D01*
X53325Y397700D01*
X50150Y400875D02*
X53325Y397700D01*
X50150Y400875D02*
Y404050D01*
X53325D01*
X56500Y400875D01*
X59675Y404050D01*
X62850D01*
Y400875D02*
Y404050D01*
X59675Y397700D02*
X62850Y400875D01*
X59675Y397700D02*
X62850Y394525D01*
Y391350D02*
Y394525D01*
X59675Y391350D02*
X62850D01*
X56500Y394525D02*
X59675Y391350D01*
X53325D02*
X56500Y394525D01*
X50150Y391350D02*
X53325D01*
X50150Y365950D02*
Y369125D01*
X53325Y372300D01*
X50150Y375475D02*
X53325Y372300D01*
X50150Y375475D02*
Y378650D01*
X53325D01*
X56500Y375475D01*
X59675Y378650D01*
X62850D01*
Y375475D02*
Y378650D01*
X59675Y372300D02*
X62850Y375475D01*
X59675Y372300D02*
X62850Y369125D01*
Y365950D02*
Y369125D01*
X59675Y365950D02*
X62850D01*
X56500Y369125D02*
X59675Y365950D01*
X53325D02*
X56500Y369125D01*
X50150Y365950D02*
X53325D01*
X50150Y416750D02*
Y419925D01*
X53325Y423100D01*
X50150Y426275D02*
X53325Y423100D01*
X50150Y426275D02*
Y429450D01*
X53325D01*
X56500Y426275D01*
X59675Y429450D01*
X62850D01*
Y426275D02*
Y429450D01*
X59675Y423100D02*
X62850Y426275D01*
X59675Y423100D02*
X62850Y419925D01*
Y416750D02*
Y419925D01*
X59675Y416750D02*
X62850D01*
X56500Y419925D02*
X59675Y416750D01*
X53325D02*
X56500Y419925D01*
X50150Y416750D02*
X53325D01*
X50150Y442150D02*
Y445325D01*
X53325Y448500D01*
X50150Y451675D02*
X53325Y448500D01*
X50150Y451675D02*
Y454850D01*
X53325D01*
X56500Y451675D01*
X59675Y454850D01*
X62850D01*
Y451675D02*
Y454850D01*
X59675Y448500D02*
X62850Y451675D01*
X59675Y448500D02*
X62850Y445325D01*
Y442150D02*
Y445325D01*
X59675Y442150D02*
X62850D01*
X56500Y445325D02*
X59675Y442150D01*
X53325D02*
X56500Y445325D01*
X50150Y442150D02*
X53325D01*
X50150Y467550D02*
Y470725D01*
X53325Y473900D01*
X50150Y477075D02*
X53325Y473900D01*
X50150Y477075D02*
Y480250D01*
X53325D01*
X56500Y477075D01*
X59675Y480250D01*
X62850D01*
Y477075D02*
Y480250D01*
X59675Y473900D02*
X62850Y477075D01*
X59675Y473900D02*
X62850Y470725D01*
Y467550D02*
Y470725D01*
X59675Y467550D02*
X62850D01*
X56500Y470725D02*
X59675Y467550D01*
X53325D02*
X56500Y470725D01*
X50150Y467550D02*
X53325D01*
X109985Y697205D02*
X113160D01*
X109985D02*
Y703555D01*
X113160D01*
Y706730D01*
X119510D01*
Y703555D02*
Y706730D01*
Y703555D02*
X122685D01*
Y697205D02*
Y703555D01*
X119510Y697205D02*
X122685D01*
X119510Y694030D02*
Y697205D01*
X113160Y694030D02*
X119510D01*
X113160D02*
Y697205D01*
X33985D02*
X37160D01*
X33985D02*
Y703555D01*
X37160D01*
Y706730D01*
X43510D01*
Y703555D02*
Y706730D01*
Y703555D02*
X46685D01*
Y697205D02*
Y703555D01*
X43510Y697205D02*
X46685D01*
X43510Y694030D02*
Y697205D01*
X37160Y694030D02*
X43510D01*
X37160D02*
Y697205D01*
X270948Y694025D02*
X277298Y706725D01*
X264598D02*
X277298D01*
X264598D02*
X270948Y694025D01*
X160948D02*
X167298Y706725D01*
X154598D02*
X167298D01*
X154598D02*
X160948Y694025D01*
X234598Y770375D02*
X240948Y764025D01*
X247298Y770375D01*
X240948Y776725D02*
X247298Y770375D01*
X234598D02*
X240948Y776725D01*
X184598Y770375D02*
X190948Y764025D01*
X197298Y770375D01*
X190948Y776725D02*
X197298Y770375D01*
X184598D02*
X190948Y776725D01*
X234598Y625375D02*
X240948Y619025D01*
X247298Y625375D01*
X240948Y631725D02*
X247298Y625375D01*
X234598D02*
X240948Y631725D01*
X209598Y625375D02*
X215948Y619025D01*
X222298Y625375D01*
X215948Y631725D02*
X222298Y625375D01*
X209598D02*
X215948Y631725D01*
X184598Y625375D02*
X190948Y619025D01*
X197298Y625375D01*
X190948Y631725D02*
X197298Y625375D01*
X184598D02*
X190948Y631725D01*
X39788Y43420D02*
X46138Y46595D01*
X52488Y43420D01*
X49313Y49770D02*
X52488Y43420D01*
X49313Y49770D02*
X52488Y56120D01*
X46138Y52945D02*
X52488Y56120D01*
X39788D02*
X46138Y52945D01*
X39788Y56120D02*
X42963Y49770D01*
X39788Y43420D02*
X42963Y49770D01*
X39788Y814300D02*
X46138Y817475D01*
X52488Y814300D01*
X49313Y820650D02*
X52488Y814300D01*
X49313Y820650D02*
X52488Y827000D01*
X46138Y823825D02*
X52488Y827000D01*
X39788D02*
X46138Y823825D01*
X39788Y827000D02*
X42963Y820650D01*
X39788Y814300D02*
X42963Y820650D01*
X961188Y814300D02*
X967538Y817475D01*
X973888Y814300D01*
X970713Y820650D02*
X973888Y814300D01*
X970713Y820650D02*
X973888Y827000D01*
X967538Y823825D02*
X973888Y827000D01*
X961188D02*
X967538Y823825D01*
X961188Y827000D02*
X964363Y820650D01*
X961188Y814300D02*
X964363Y820650D01*
X961188Y43420D02*
X967538Y46595D01*
X973888Y43420D01*
X970713Y49770D02*
X973888Y43420D01*
X970713Y49770D02*
X973888Y56120D01*
X967538Y52945D02*
X973888Y56120D01*
X961188D02*
X967538Y52945D01*
X961188Y56120D02*
X964363Y49770D01*
X961188Y43420D02*
X964363Y49770D01*
X287898Y454200D02*
Y457375D01*
X291073Y460550D01*
X287898Y463725D02*
X291073Y460550D01*
X287898Y463725D02*
Y466900D01*
X291073D01*
X294248Y463725D01*
X297423Y466900D01*
X300598D01*
Y463725D02*
Y466900D01*
X297423Y460550D02*
X300598Y463725D01*
X297423Y460550D02*
X300598Y457375D01*
Y454200D02*
Y457375D01*
X297423Y454200D02*
X300598D01*
X294248Y457375D02*
X297423Y454200D01*
X291073D02*
X294248Y457375D01*
X287898Y454200D02*
X291073D01*
X287898Y479600D02*
Y482775D01*
X291073Y485950D01*
X287898Y489125D02*
X291073Y485950D01*
X287898Y489125D02*
Y492300D01*
X291073D01*
X294248Y489125D01*
X297423Y492300D01*
X300598D01*
Y489125D02*
Y492300D01*
X297423Y485950D02*
X300598Y489125D01*
X297423Y485950D02*
X300598Y482775D01*
Y479600D02*
Y482775D01*
X297423Y479600D02*
X300598D01*
X294248Y482775D02*
X297423Y479600D01*
X291073D02*
X294248Y482775D01*
X287898Y479600D02*
X291073D01*
X287898Y505000D02*
Y508175D01*
X291073Y511350D01*
X287898Y514525D02*
X291073Y511350D01*
X287898Y514525D02*
Y517700D01*
X291073D01*
X294248Y514525D01*
X297423Y517700D01*
X300598D01*
Y514525D02*
Y517700D01*
X297423Y511350D02*
X300598Y514525D01*
X297423Y511350D02*
X300598Y508175D01*
Y505000D02*
Y508175D01*
X297423Y505000D02*
X300598D01*
X294248Y508175D02*
X297423Y505000D01*
X291073D02*
X294248Y508175D01*
X287898Y505000D02*
X291073D01*
X287898Y174800D02*
Y177975D01*
X291073Y181150D01*
X287898Y184325D02*
X291073Y181150D01*
X287898Y184325D02*
Y187500D01*
X291073D01*
X294248Y184325D01*
X297423Y187500D01*
X300598D01*
Y184325D02*
Y187500D01*
X297423Y181150D02*
X300598Y184325D01*
X297423Y181150D02*
X300598Y177975D01*
Y174800D02*
Y177975D01*
X297423Y174800D02*
X300598D01*
X294248Y177975D02*
X297423Y174800D01*
X291073D02*
X294248Y177975D01*
X287898Y174800D02*
X291073D01*
X287898Y200200D02*
Y203375D01*
X291073Y206550D01*
X287898Y209725D02*
X291073Y206550D01*
X287898Y209725D02*
Y212900D01*
X291073D01*
X294248Y209725D01*
X297423Y212900D01*
X300598D01*
Y209725D02*
Y212900D01*
X297423Y206550D02*
X300598Y209725D01*
X297423Y206550D02*
X300598Y203375D01*
Y200200D02*
Y203375D01*
X297423Y200200D02*
X300598D01*
X294248Y203375D02*
X297423Y200200D01*
X291073D02*
X294248Y203375D01*
X287898Y200200D02*
X291073D01*
X287898Y225600D02*
Y228775D01*
X291073Y231950D01*
X287898Y235125D02*
X291073Y231950D01*
X287898Y235125D02*
Y238300D01*
X291073D01*
X294248Y235125D01*
X297423Y238300D01*
X300598D01*
Y235125D02*
Y238300D01*
X297423Y231950D02*
X300598Y235125D01*
X297423Y231950D02*
X300598Y228775D01*
Y225600D02*
Y228775D01*
X297423Y225600D02*
X300598D01*
X294248Y228775D02*
X297423Y225600D01*
X291073D02*
X294248Y228775D01*
X287898Y225600D02*
X291073D01*
X287898Y251000D02*
Y254175D01*
X291073Y257350D01*
X287898Y260525D02*
X291073Y257350D01*
X287898Y260525D02*
Y263700D01*
X291073D01*
X294248Y260525D01*
X297423Y263700D01*
X300598D01*
Y260525D02*
Y263700D01*
X297423Y257350D02*
X300598Y260525D01*
X297423Y257350D02*
X300598Y254175D01*
Y251000D02*
Y254175D01*
X297423Y251000D02*
X300598D01*
X294248Y254175D02*
X297423Y251000D01*
X291073D02*
X294248Y254175D01*
X287898Y251000D02*
X291073D01*
X287898Y327200D02*
Y330375D01*
X291073Y333550D01*
X287898Y336725D02*
X291073Y333550D01*
X287898Y336725D02*
Y339900D01*
X291073D01*
X294248Y336725D01*
X297423Y339900D01*
X300598D01*
Y336725D02*
Y339900D01*
X297423Y333550D02*
X300598Y336725D01*
X297423Y333550D02*
X300598Y330375D01*
Y327200D02*
Y330375D01*
X297423Y327200D02*
X300598D01*
X294248Y330375D02*
X297423Y327200D01*
X291073D02*
X294248Y330375D01*
X287898Y327200D02*
X291073D01*
X287898Y352600D02*
Y355775D01*
X291073Y358950D01*
X287898Y362125D02*
X291073Y358950D01*
X287898Y362125D02*
Y365300D01*
X291073D01*
X294248Y362125D01*
X297423Y365300D01*
X300598D01*
Y362125D02*
Y365300D01*
X297423Y358950D02*
X300598Y362125D01*
X297423Y358950D02*
X300598Y355775D01*
Y352600D02*
Y355775D01*
X297423Y352600D02*
X300598D01*
X294248Y355775D02*
X297423Y352600D01*
X291073D02*
X294248Y355775D01*
X287898Y352600D02*
X291073D01*
X287898Y403400D02*
Y406575D01*
X291073Y409750D01*
X287898Y412925D02*
X291073Y409750D01*
X287898Y412925D02*
Y416100D01*
X291073D01*
X294248Y412925D01*
X297423Y416100D01*
X300598D01*
Y412925D02*
Y416100D01*
X297423Y409750D02*
X300598Y412925D01*
X297423Y409750D02*
X300598Y406575D01*
Y403400D02*
Y406575D01*
X297423Y403400D02*
X300598D01*
X294248Y406575D02*
X297423Y403400D01*
X291073D02*
X294248Y406575D01*
X287898Y403400D02*
X291073D01*
X287898Y428800D02*
Y431975D01*
X291073Y435150D01*
X287898Y438325D02*
X291073Y435150D01*
X287898Y438325D02*
Y441500D01*
X291073D01*
X294248Y438325D01*
X297423Y441500D01*
X300598D01*
Y438325D02*
Y441500D01*
X297423Y435150D02*
X300598Y438325D01*
X297423Y435150D02*
X300598Y431975D01*
Y428800D02*
Y431975D01*
X297423Y428800D02*
X300598D01*
X294248Y431975D02*
X297423Y428800D01*
X291073D02*
X294248Y431975D01*
X287898Y428800D02*
X291073D01*
X287898Y276400D02*
Y279575D01*
X291073Y282750D01*
X287898Y285925D02*
X291073Y282750D01*
X287898Y285925D02*
Y289100D01*
X291073D01*
X294248Y285925D01*
X297423Y289100D01*
X300598D01*
Y285925D02*
Y289100D01*
X297423Y282750D02*
X300598Y285925D01*
X297423Y282750D02*
X300598Y279575D01*
Y276400D02*
Y279575D01*
X297423Y276400D02*
X300598D01*
X294248Y279575D02*
X297423Y276400D01*
X291073D02*
X294248Y279575D01*
X287898Y276400D02*
X291073D01*
X287898Y378000D02*
Y381175D01*
X291073Y384350D01*
X287898Y387525D02*
X291073Y384350D01*
X287898Y387525D02*
Y390700D01*
X291073D01*
X294248Y387525D01*
X297423Y390700D01*
X300598D01*
Y387525D02*
Y390700D01*
X297423Y384350D02*
X300598Y387525D01*
X297423Y384350D02*
X300598Y381175D01*
Y378000D02*
Y381175D01*
X297423Y378000D02*
X300598D01*
X294248Y381175D02*
X297423Y378000D01*
X291073D02*
X294248Y381175D01*
X287898Y378000D02*
X291073D01*
X287898Y301800D02*
Y304975D01*
X291073Y308150D01*
X287898Y311325D02*
X291073Y308150D01*
X287898Y311325D02*
Y314500D01*
X291073D01*
X294248Y311325D01*
X297423Y314500D01*
X300598D01*
Y311325D02*
Y314500D01*
X297423Y308150D02*
X300598Y311325D01*
X297423Y308150D02*
X300598Y304975D01*
Y301800D02*
Y304975D01*
X297423Y301800D02*
X300598D01*
X294248Y304975D02*
X297423Y301800D01*
X291073D02*
X294248Y304975D01*
X287898Y301800D02*
X291073D01*
X287898Y47800D02*
Y50975D01*
X291073Y54150D01*
X287898Y57325D02*
X291073Y54150D01*
X287898Y57325D02*
Y60500D01*
X291073D01*
X294248Y57325D01*
X297423Y60500D01*
X300598D01*
Y57325D02*
Y60500D01*
X297423Y54150D02*
X300598Y57325D01*
X297423Y54150D02*
X300598Y50975D01*
Y47800D02*
Y50975D01*
X297423Y47800D02*
X300598D01*
X294248Y50975D02*
X297423Y47800D01*
X291073D02*
X294248Y50975D01*
X287898Y47800D02*
X291073D01*
X287898Y149400D02*
Y152575D01*
X291073Y155750D01*
X287898Y158925D02*
X291073Y155750D01*
X287898Y158925D02*
Y162100D01*
X291073D01*
X294248Y158925D01*
X297423Y162100D01*
X300598D01*
Y158925D02*
Y162100D01*
X297423Y155750D02*
X300598Y158925D01*
X297423Y155750D02*
X300598Y152575D01*
Y149400D02*
Y152575D01*
X297423Y149400D02*
X300598D01*
X294248Y152575D02*
X297423Y149400D01*
X291073D02*
X294248Y152575D01*
X287898Y149400D02*
X291073D01*
X287898Y124000D02*
Y127175D01*
X291073Y130350D01*
X287898Y133525D02*
X291073Y130350D01*
X287898Y133525D02*
Y136700D01*
X291073D01*
X294248Y133525D01*
X297423Y136700D01*
X300598D01*
Y133525D02*
Y136700D01*
X297423Y130350D02*
X300598Y133525D01*
X297423Y130350D02*
X300598Y127175D01*
Y124000D02*
Y127175D01*
X297423Y124000D02*
X300598D01*
X294248Y127175D02*
X297423Y124000D01*
X291073D02*
X294248Y127175D01*
X287898Y124000D02*
X291073D01*
X287898Y98600D02*
Y101775D01*
X291073Y104950D01*
X287898Y108125D02*
X291073Y104950D01*
X287898Y108125D02*
Y111300D01*
X291073D01*
X294248Y108125D01*
X297423Y111300D01*
X300598D01*
Y108125D02*
Y111300D01*
X297423Y104950D02*
X300598Y108125D01*
X297423Y104950D02*
X300598Y101775D01*
Y98600D02*
Y101775D01*
X297423Y98600D02*
X300598D01*
X294248Y101775D02*
X297423Y98600D01*
X291073D02*
X294248Y101775D01*
X287898Y98600D02*
X291073D01*
X287898Y73200D02*
Y76375D01*
X291073Y79550D01*
X287898Y82725D02*
X291073Y79550D01*
X287898Y82725D02*
Y85900D01*
X291073D01*
X294248Y82725D01*
X297423Y85900D01*
X300598D01*
Y82725D02*
Y85900D01*
X297423Y79550D02*
X300598Y82725D01*
X297423Y79550D02*
X300598Y76375D01*
Y73200D02*
Y76375D01*
X297423Y73200D02*
X300598D01*
X294248Y76375D02*
X297423Y73200D01*
X291073D02*
X294248Y76375D01*
X287898Y73200D02*
X291073D01*
X287898Y22400D02*
Y25575D01*
X291073Y28750D01*
X287898Y31925D02*
X291073Y28750D01*
X287898Y31925D02*
Y35100D01*
X291073D01*
X294248Y31925D01*
X297423Y35100D01*
X300598D01*
Y31925D02*
Y35100D01*
X297423Y28750D02*
X300598Y31925D01*
X297423Y28750D02*
X300598Y25575D01*
Y22400D02*
Y25575D01*
X297423Y22400D02*
X300598D01*
X294248Y25575D02*
X297423Y22400D01*
X291073D02*
X294248Y25575D01*
X287898Y22400D02*
X291073D01*
X110098Y174800D02*
Y177975D01*
X113273Y181150D01*
X110098Y184325D02*
X113273Y181150D01*
X110098Y184325D02*
Y187500D01*
X113273D01*
X116448Y184325D01*
X119623Y187500D01*
X122798D01*
Y184325D02*
Y187500D01*
X119623Y181150D02*
X122798Y184325D01*
X119623Y181150D02*
X122798Y177975D01*
Y174800D02*
Y177975D01*
X119623Y174800D02*
X122798D01*
X116448Y177975D02*
X119623Y174800D01*
X113273D02*
X116448Y177975D01*
X110098Y174800D02*
X113273D01*
X110098Y149400D02*
Y152575D01*
X113273Y155750D01*
X110098Y158925D02*
X113273Y155750D01*
X110098Y158925D02*
Y162100D01*
X113273D01*
X116448Y158925D01*
X119623Y162100D01*
X122798D01*
Y158925D02*
Y162100D01*
X119623Y155750D02*
X122798Y158925D01*
X119623Y155750D02*
X122798Y152575D01*
Y149400D02*
Y152575D01*
X119623Y149400D02*
X122798D01*
X116448Y152575D02*
X119623Y149400D01*
X113273D02*
X116448Y152575D01*
X110098Y149400D02*
X113273D01*
X110098Y251000D02*
Y254175D01*
X113273Y257350D01*
X110098Y260525D02*
X113273Y257350D01*
X110098Y260525D02*
Y263700D01*
X113273D01*
X116448Y260525D01*
X119623Y263700D01*
X122798D01*
Y260525D02*
Y263700D01*
X119623Y257350D02*
X122798Y260525D01*
X119623Y257350D02*
X122798Y254175D01*
Y251000D02*
Y254175D01*
X119623Y251000D02*
X122798D01*
X116448Y254175D02*
X119623Y251000D01*
X113273D02*
X116448Y254175D01*
X110098Y251000D02*
X113273D01*
X110098Y276400D02*
Y279575D01*
X113273Y282750D01*
X110098Y285925D02*
X113273Y282750D01*
X110098Y285925D02*
Y289100D01*
X113273D01*
X116448Y285925D01*
X119623Y289100D01*
X122798D01*
Y285925D02*
Y289100D01*
X119623Y282750D02*
X122798Y285925D01*
X119623Y282750D02*
X122798Y279575D01*
Y276400D02*
Y279575D01*
X119623Y276400D02*
X122798D01*
X116448Y279575D02*
X119623Y276400D01*
X113273D02*
X116448Y279575D01*
X110098Y276400D02*
X113273D01*
X110098Y225600D02*
Y228775D01*
X113273Y231950D01*
X110098Y235125D02*
X113273Y231950D01*
X110098Y235125D02*
Y238300D01*
X113273D01*
X116448Y235125D01*
X119623Y238300D01*
X122798D01*
Y235125D02*
Y238300D01*
X119623Y231950D02*
X122798Y235125D01*
X119623Y231950D02*
X122798Y228775D01*
Y225600D02*
Y228775D01*
X119623Y225600D02*
X122798D01*
X116448Y228775D02*
X119623Y225600D01*
X113273D02*
X116448Y228775D01*
X110098Y225600D02*
X113273D01*
X110098Y200200D02*
Y203375D01*
X113273Y206550D01*
X110098Y209725D02*
X113273Y206550D01*
X110098Y209725D02*
Y212900D01*
X113273D01*
X116448Y209725D01*
X119623Y212900D01*
X122798D01*
Y209725D02*
Y212900D01*
X119623Y206550D02*
X122798Y209725D01*
X119623Y206550D02*
X122798Y203375D01*
Y200200D02*
Y203375D01*
X119623Y200200D02*
X122798D01*
X116448Y203375D02*
X119623Y200200D01*
X113273D02*
X116448Y203375D01*
X110098Y200200D02*
X113273D01*
X110098Y505000D02*
Y508175D01*
X113273Y511350D01*
X110098Y514525D02*
X113273Y511350D01*
X110098Y514525D02*
Y517700D01*
X113273D01*
X116448Y514525D01*
X119623Y517700D01*
X122798D01*
Y514525D02*
Y517700D01*
X119623Y511350D02*
X122798Y514525D01*
X119623Y511350D02*
X122798Y508175D01*
Y505000D02*
Y508175D01*
X119623Y505000D02*
X122798D01*
X116448Y508175D02*
X119623Y505000D01*
X113273D02*
X116448Y508175D01*
X110098Y505000D02*
X113273D01*
X110098Y479600D02*
Y482775D01*
X113273Y485950D01*
X110098Y489125D02*
X113273Y485950D01*
X110098Y489125D02*
Y492300D01*
X113273D01*
X116448Y489125D01*
X119623Y492300D01*
X122798D01*
Y489125D02*
Y492300D01*
X119623Y485950D02*
X122798Y489125D01*
X119623Y485950D02*
X122798Y482775D01*
Y479600D02*
Y482775D01*
X119623Y479600D02*
X122798D01*
X116448Y482775D02*
X119623Y479600D01*
X113273D02*
X116448Y482775D01*
X110098Y479600D02*
X113273D01*
X110098Y378000D02*
Y381175D01*
X113273Y384350D01*
X110098Y387525D02*
X113273Y384350D01*
X110098Y387525D02*
Y390700D01*
X113273D01*
X116448Y387525D01*
X119623Y390700D01*
X122798D01*
Y387525D02*
Y390700D01*
X119623Y384350D02*
X122798Y387525D01*
X119623Y384350D02*
X122798Y381175D01*
Y378000D02*
Y381175D01*
X119623Y378000D02*
X122798D01*
X116448Y381175D02*
X119623Y378000D01*
X113273D02*
X116448Y381175D01*
X110098Y378000D02*
X113273D01*
X110098Y428800D02*
Y431975D01*
X113273Y435150D01*
X110098Y438325D02*
X113273Y435150D01*
X110098Y438325D02*
Y441500D01*
X113273D01*
X116448Y438325D01*
X119623Y441500D01*
X122798D01*
Y438325D02*
Y441500D01*
X119623Y435150D02*
X122798Y438325D01*
X119623Y435150D02*
X122798Y431975D01*
Y428800D02*
Y431975D01*
X119623Y428800D02*
X122798D01*
X116448Y431975D02*
X119623Y428800D01*
X113273D02*
X116448Y431975D01*
X110098Y428800D02*
X113273D01*
X110098Y403400D02*
Y406575D01*
X113273Y409750D01*
X110098Y412925D02*
X113273Y409750D01*
X110098Y412925D02*
Y416100D01*
X113273D01*
X116448Y412925D01*
X119623Y416100D01*
X122798D01*
Y412925D02*
Y416100D01*
X119623Y409750D02*
X122798Y412925D01*
X119623Y409750D02*
X122798Y406575D01*
Y403400D02*
Y406575D01*
X119623Y403400D02*
X122798D01*
X116448Y406575D02*
X119623Y403400D01*
X113273D02*
X116448Y406575D01*
X110098Y403400D02*
X113273D01*
X110098Y352600D02*
Y355775D01*
X113273Y358950D01*
X110098Y362125D02*
X113273Y358950D01*
X110098Y362125D02*
Y365300D01*
X113273D01*
X116448Y362125D01*
X119623Y365300D01*
X122798D01*
Y362125D02*
Y365300D01*
X119623Y358950D02*
X122798Y362125D01*
X119623Y358950D02*
X122798Y355775D01*
Y352600D02*
Y355775D01*
X119623Y352600D02*
X122798D01*
X116448Y355775D02*
X119623Y352600D01*
X113273D02*
X116448Y355775D01*
X110098Y352600D02*
X113273D01*
X110098Y454200D02*
Y457375D01*
X113273Y460550D01*
X110098Y463725D02*
X113273Y460550D01*
X110098Y463725D02*
Y466900D01*
X113273D01*
X116448Y463725D01*
X119623Y466900D01*
X122798D01*
Y463725D02*
Y466900D01*
X119623Y460550D02*
X122798Y463725D01*
X119623Y460550D02*
X122798Y457375D01*
Y454200D02*
Y457375D01*
X119623Y454200D02*
X122798D01*
X116448Y457375D02*
X119623Y454200D01*
X113273D02*
X116448Y457375D01*
X110098Y454200D02*
X113273D01*
X110098Y301800D02*
Y304975D01*
X113273Y308150D01*
X110098Y311325D02*
X113273Y308150D01*
X110098Y311325D02*
Y314500D01*
X113273D01*
X116448Y311325D01*
X119623Y314500D01*
X122798D01*
Y311325D02*
Y314500D01*
X119623Y308150D02*
X122798Y311325D01*
X119623Y308150D02*
X122798Y304975D01*
Y301800D02*
Y304975D01*
X119623Y301800D02*
X122798D01*
X116448Y304975D02*
X119623Y301800D01*
X113273D02*
X116448Y304975D01*
X110098Y301800D02*
X113273D01*
X110098Y327200D02*
Y330375D01*
X113273Y333550D01*
X110098Y336725D02*
X113273Y333550D01*
X110098Y336725D02*
Y339900D01*
X113273D01*
X116448Y336725D01*
X119623Y339900D01*
X122798D01*
Y336725D02*
Y339900D01*
X119623Y333550D02*
X122798Y336725D01*
X119623Y333550D02*
X122798Y330375D01*
Y327200D02*
Y330375D01*
X119623Y327200D02*
X122798D01*
X116448Y330375D02*
X119623Y327200D01*
X113273D02*
X116448Y330375D01*
X110098Y327200D02*
X113273D01*
X110098Y98600D02*
Y101775D01*
X113273Y104950D01*
X110098Y108125D02*
X113273Y104950D01*
X110098Y108125D02*
Y111300D01*
X113273D01*
X116448Y108125D01*
X119623Y111300D01*
X122798D01*
Y108125D02*
Y111300D01*
X119623Y104950D02*
X122798Y108125D01*
X119623Y104950D02*
X122798Y101775D01*
Y98600D02*
Y101775D01*
X119623Y98600D02*
X122798D01*
X116448Y101775D02*
X119623Y98600D01*
X113273D02*
X116448Y101775D01*
X110098Y98600D02*
X113273D01*
X110098Y124000D02*
Y127175D01*
X113273Y130350D01*
X110098Y133525D02*
X113273Y130350D01*
X110098Y133525D02*
Y136700D01*
X113273D01*
X116448Y133525D01*
X119623Y136700D01*
X122798D01*
Y133525D02*
Y136700D01*
X119623Y130350D02*
X122798Y133525D01*
X119623Y130350D02*
X122798Y127175D01*
Y124000D02*
Y127175D01*
X119623Y124000D02*
X122798D01*
X116448Y127175D02*
X119623Y124000D01*
X113273D02*
X116448Y127175D01*
X110098Y124000D02*
X113273D01*
X110098Y73200D02*
Y76375D01*
X113273Y79550D01*
X110098Y82725D02*
X113273Y79550D01*
X110098Y82725D02*
Y85900D01*
X113273D01*
X116448Y82725D01*
X119623Y85900D01*
X122798D01*
Y82725D02*
Y85900D01*
X119623Y79550D02*
X122798Y82725D01*
X119623Y79550D02*
X122798Y76375D01*
Y73200D02*
Y76375D01*
X119623Y73200D02*
X122798D01*
X116448Y76375D02*
X119623Y73200D01*
X113273D02*
X116448Y76375D01*
X110098Y73200D02*
X113273D01*
X110098Y47800D02*
Y50975D01*
X113273Y54150D01*
X110098Y57325D02*
X113273Y54150D01*
X110098Y57325D02*
Y60500D01*
X113273D01*
X116448Y57325D01*
X119623Y60500D01*
X122798D01*
Y57325D02*
Y60500D01*
X119623Y54150D02*
X122798Y57325D01*
X119623Y54150D02*
X122798Y50975D01*
Y47800D02*
Y50975D01*
X119623Y47800D02*
X122798D01*
X116448Y50975D02*
X119623Y47800D01*
X113273D02*
X116448Y50975D01*
X110098Y47800D02*
X113273D01*
X110098Y22400D02*
Y25575D01*
X113273Y28750D01*
X110098Y31925D02*
X113273Y28750D01*
X110098Y31925D02*
Y35100D01*
X113273D01*
X116448Y31925D01*
X119623Y35100D01*
X122798D01*
Y31925D02*
Y35100D01*
X119623Y28750D02*
X122798Y31925D01*
X119623Y28750D02*
X122798Y25575D01*
Y22400D02*
Y25575D01*
X119623Y22400D02*
X122798D01*
X116448Y25575D02*
X119623Y22400D01*
X113273D02*
X116448Y25575D01*
X110098Y22400D02*
X113273D01*
X872587Y761416D02*
X885287D01*
Y774116D01*
X872587D02*
X885287D01*
X872587Y761416D02*
Y774116D01*
X898087Y697666D02*
X910788D01*
Y710366D01*
X898087D02*
X910788D01*
X898087Y697666D02*
Y710366D01*
X703390Y697814D02*
X716090D01*
Y710514D01*
X703390D02*
X716090D01*
X703390Y697814D02*
Y710514D01*
X677890Y761564D02*
X690590D01*
Y774264D01*
X677890D02*
X690590D01*
X677890Y761564D02*
Y774264D01*
D34*
X1360658Y344667D02*
G03*
X1360658Y344667I-8467J0D01*
G01*
X1343725Y492833D02*
X1347958D01*
X1343725D02*
Y501300D01*
X1347958D01*
Y505533D01*
X1356425D01*
Y501300D02*
Y505533D01*
Y501300D02*
X1360658D01*
Y492833D02*
Y501300D01*
X1356425Y492833D02*
X1360658D01*
X1356425Y488600D02*
Y492833D01*
X1347958Y488600D02*
X1356425D01*
X1347958D02*
Y492833D01*
X1352192Y450500D02*
X1360658Y467433D01*
X1343725D02*
X1360658D01*
X1343725D02*
X1352192Y450500D01*
X1343725Y412400D02*
X1352192Y416633D01*
X1360658Y412400D01*
X1356425Y420867D02*
X1360658Y412400D01*
X1356425Y420867D02*
X1360658Y429333D01*
X1352192Y425100D02*
X1360658Y429333D01*
X1343725D02*
X1352192Y425100D01*
X1343725Y429333D02*
X1347958Y420867D01*
X1343725Y412400D02*
X1347958Y420867D01*
X1343725Y382767D02*
X1352192Y374300D01*
X1360658Y382767D01*
X1352192Y391233D02*
X1360658Y382767D01*
X1343725D02*
X1352192Y391233D01*
X1343725Y298100D02*
X1360658D01*
Y315033D01*
X1343725D02*
X1360658D01*
X1343725Y298100D02*
Y315033D01*
Y260000D02*
Y264233D01*
X1347958Y268467D01*
X1343725Y272700D02*
X1347958Y268467D01*
X1343725Y272700D02*
Y276933D01*
X1347958D01*
X1352192Y272700D01*
X1356425Y276933D01*
X1360658D01*
Y272700D02*
Y276933D01*
X1356425Y268467D02*
X1360658Y272700D01*
X1356425Y268467D02*
X1360658Y264233D01*
Y260000D02*
Y264233D01*
X1356425Y260000D02*
X1360658D01*
X1352192Y264233D02*
X1356425Y260000D01*
X1347958D02*
X1352192Y264233D01*
X1343725Y260000D02*
X1347958D01*
Y226133D02*
X1352192Y221900D01*
X1343725Y226133D02*
X1347958D01*
X1343725D02*
X1347958Y230367D01*
X1343725Y234600D02*
X1347958Y230367D01*
X1343725Y234600D02*
X1347958D01*
X1352192Y238833D01*
X1356425Y234600D01*
X1360658D01*
X1356425Y230367D02*
X1360658Y234600D01*
X1356425Y230367D02*
X1360658Y226133D01*
X1356425D02*
X1360658D01*
X1352192Y221900D02*
X1356425Y226133D01*
X2969439Y498757D02*
X2961822D01*
X2959283Y496217D01*
Y491139D01*
X2961822Y488600D01*
X2969439D01*
X2974518D02*
X2979596D01*
X2977057D01*
Y503835D01*
X2974518Y501296D01*
X2994831Y488600D02*
Y503835D01*
X2987214Y496217D01*
X2997371D01*
X3002449Y488600D02*
X3007527D01*
X3004988D01*
Y503835D01*
X3002449Y501296D01*
X3015145Y503835D02*
Y488600D01*
Y496217D01*
X3017684Y498757D01*
X3022762D01*
X3025302Y496217D01*
Y488600D01*
X3030380Y491139D02*
X3032919Y488600D01*
X3037997D01*
X3040536Y491139D01*
Y501296D01*
X3037997Y503835D01*
X3032919D01*
X3030380Y501296D01*
Y498757D01*
X3032919Y496217D01*
X3040536D01*
X3045615Y501296D02*
X3048154Y503835D01*
X3053232D01*
X3055771Y501296D01*
Y491139D01*
X3053232Y488600D01*
X3048154D01*
X3045615Y491139D01*
Y501296D01*
X2969439Y460657D02*
X2961822D01*
X2959283Y458117D01*
Y453039D01*
X2961822Y450500D01*
X2969439D01*
X2974518Y463196D02*
X2977057Y465735D01*
X2982135D01*
X2984675Y463196D01*
Y460657D01*
X2982135Y458117D01*
X2979596D01*
X2982135D01*
X2984675Y455578D01*
Y453039D01*
X2982135Y450500D01*
X2977057D01*
X2974518Y453039D01*
X2989753Y450500D02*
X2994831D01*
X2992292D01*
Y465735D01*
X2989753Y463196D01*
X3002449D02*
X3004988Y465735D01*
X3010066D01*
X3012606Y463196D01*
Y453039D01*
X3010066Y450500D01*
X3004988D01*
X3002449Y453039D01*
Y463196D01*
X3017684Y465735D02*
Y450500D01*
Y458117D01*
X3020223Y460657D01*
X3025302D01*
X3027841Y458117D01*
Y450500D01*
X3043076D02*
X3032919D01*
X3043076Y460657D01*
Y463196D01*
X3040536Y465735D01*
X3035458D01*
X3032919Y463196D01*
X3058311Y465735D02*
X3048154D01*
Y458117D01*
X3053232Y460657D01*
X3055771D01*
X3058311Y458117D01*
Y453039D01*
X3055771Y450500D01*
X3050693D01*
X3048154Y453039D01*
X3063389D02*
X3065928Y450500D01*
X3071006D01*
X3073546Y453039D01*
Y463196D01*
X3071006Y465735D01*
X3065928D01*
X3063389Y463196D01*
Y460657D01*
X3065928Y458117D01*
X3073546D01*
X3078624Y450500D02*
Y460657D01*
X3081163D01*
X3083702Y458117D01*
Y450500D01*
Y458117D01*
X3086242Y460657D01*
X3088781Y458117D01*
Y450500D01*
X3093859Y458117D02*
X3104016D01*
X3109094Y450500D02*
X3114173D01*
X3111634D01*
Y465735D01*
X3109094Y463196D01*
X3121790Y445422D02*
Y460657D01*
X3129408D01*
X3131947Y458117D01*
Y453039D01*
X3129408Y450500D01*
X3121790D01*
X3137025Y463196D02*
X3139565Y465735D01*
X3144643D01*
X3147182Y463196D01*
Y453039D01*
X3144643Y450500D01*
X3139565D01*
X3137025Y453039D01*
Y463196D01*
X2969439Y422557D02*
X2961822D01*
X2959283Y420018D01*
Y414939D01*
X2961822Y412400D01*
X2969439D01*
X2974518Y425096D02*
X2977057Y427635D01*
X2982135D01*
X2984675Y425096D01*
Y414939D01*
X2982135Y412400D01*
X2977057D01*
X2974518Y414939D01*
Y425096D01*
X2989753Y427635D02*
Y412400D01*
Y420018D01*
X2992292Y422557D01*
X2997371D01*
X2999910Y420018D01*
Y412400D01*
X3004988D02*
Y422557D01*
X3012606D01*
X3015145Y420018D01*
Y412400D01*
X3020223Y425096D02*
X3022762Y427635D01*
X3027841D01*
X3030380Y425096D01*
Y422557D01*
X3027841Y420018D01*
X3025302D01*
X3027841D01*
X3030380Y417478D01*
Y414939D01*
X3027841Y412400D01*
X3022762D01*
X3020223Y414939D01*
X3043076Y412400D02*
Y427635D01*
X3035458Y420018D01*
X3045615D01*
X3050693Y425096D02*
X3053232Y427635D01*
X3058311D01*
X3060850Y425096D01*
Y414939D01*
X3058311Y412400D01*
X3053232D01*
X3050693Y414939D01*
Y425096D01*
X2964361Y374300D02*
X2959283Y379378D01*
Y384457D01*
X2964361Y389535D01*
X2971979Y374300D02*
Y389535D01*
X2977057Y384457D01*
X2982135Y389535D01*
Y374300D01*
X2987214D02*
X2992292D01*
X2989753D01*
Y384457D01*
X2987214D01*
X2999910D02*
X3010066Y374300D01*
X3004988Y379378D01*
X3010066Y384457D01*
X2999910Y374300D01*
X3022762D02*
X3017684D01*
X3015145Y376839D01*
Y381917D01*
X3017684Y384457D01*
X3022762D01*
X3025302Y381917D01*
Y379378D01*
X3015145D01*
X3040536Y389535D02*
Y374300D01*
X3032919D01*
X3030380Y376839D01*
Y381917D01*
X3032919Y384457D01*
X3040536D01*
X3045615Y374300D02*
X3050693Y379378D01*
Y384457D01*
X3045615Y389535D01*
X2969439Y346357D02*
X2961822D01*
X2959283Y343817D01*
Y338739D01*
X2961822Y336200D01*
X2969439D01*
X2982135D02*
Y351435D01*
X2974518Y343817D01*
X2984675D01*
X2989753Y348896D02*
X2992292Y351435D01*
X2997371D01*
X2999910Y348896D01*
Y338739D01*
X2997371Y336200D01*
X2992292D01*
X2989753Y338739D01*
Y348896D01*
X3004988Y338739D02*
X3007527Y336200D01*
X3012606D01*
X3015145Y338739D01*
Y348896D01*
X3012606Y351435D01*
X3007527D01*
X3004988Y348896D01*
Y346357D01*
X3007527Y343817D01*
X3015145D01*
X3020223Y351435D02*
Y336200D01*
Y343817D01*
X3022762Y346357D01*
X3027841D01*
X3030380Y343817D01*
Y336200D01*
X3035458D02*
Y346357D01*
X3043076D01*
X3045615Y343817D01*
Y336200D01*
X3058311D02*
Y351435D01*
X3050693Y343817D01*
X3060850D01*
X3065928Y348896D02*
X3068467Y351435D01*
X3073546D01*
X3076085Y348896D01*
Y338739D01*
X3073546Y336200D01*
X3068467D01*
X3065928Y338739D01*
Y348896D01*
X3081163Y338739D02*
X3083702Y336200D01*
X3088781D01*
X3091320Y338739D01*
Y348896D01*
X3088781Y351435D01*
X3083702D01*
X3081163Y348896D01*
Y346357D01*
X3083702Y343817D01*
X3091320D01*
X2969439Y308257D02*
X2961822D01*
X2959283Y305718D01*
Y300639D01*
X2961822Y298100D01*
X2969439D01*
X2974518Y310796D02*
X2977057Y313335D01*
X2982135D01*
X2984675Y310796D01*
Y308257D01*
X2982135Y305718D01*
X2979596D01*
X2982135D01*
X2984675Y303178D01*
Y300639D01*
X2982135Y298100D01*
X2977057D01*
X2974518Y300639D01*
X2989753Y310796D02*
X2992292Y313335D01*
X2997371D01*
X2999910Y310796D01*
Y300639D01*
X2997371Y298100D01*
X2992292D01*
X2989753Y300639D01*
Y310796D01*
X3004988D02*
X3007527Y313335D01*
X3012606D01*
X3015145Y310796D01*
Y300639D01*
X3012606Y298100D01*
X3007527D01*
X3004988Y300639D01*
Y310796D01*
X3020223Y313335D02*
Y298100D01*
Y305718D01*
X3022762Y308257D01*
X3027841D01*
X3030380Y305718D01*
Y298100D01*
X3035458D02*
Y308257D01*
X3043076D01*
X3045615Y305718D01*
Y298100D01*
X3050693Y310796D02*
X3053232Y313335D01*
X3058311D01*
X3060850Y310796D01*
Y308257D01*
X3058311Y305718D01*
X3055771D01*
X3058311D01*
X3060850Y303178D01*
Y300639D01*
X3058311Y298100D01*
X3053232D01*
X3050693Y300639D01*
X3065928Y310796D02*
X3068467Y313335D01*
X3073546D01*
X3076085Y310796D01*
Y300639D01*
X3073546Y298100D01*
X3068467D01*
X3065928Y300639D01*
Y310796D01*
X3081163D02*
X3083702Y313335D01*
X3088781D01*
X3091320Y310796D01*
Y300639D01*
X3088781Y298100D01*
X3083702D01*
X3081163Y300639D01*
Y310796D01*
X2964361Y260000D02*
X2959283Y265078D01*
Y270157D01*
X2964361Y275235D01*
X2971979Y260000D02*
Y275235D01*
X2977057Y270157D01*
X2982135Y275235D01*
Y260000D01*
X2987214D02*
X2992292D01*
X2989753D01*
Y270157D01*
X2987214D01*
X2999910D02*
X3010066Y260000D01*
X3004988Y265078D01*
X3010066Y270157D01*
X2999910Y260000D01*
X3022762D02*
X3017684D01*
X3015145Y262539D01*
Y267617D01*
X3017684Y270157D01*
X3022762D01*
X3025302Y267617D01*
Y265078D01*
X3015145D01*
X3040536Y275235D02*
Y260000D01*
X3032919D01*
X3030380Y262539D01*
Y267617D01*
X3032919Y270157D01*
X3040536D01*
X3045615Y260000D02*
X3050693Y265078D01*
Y270157D01*
X3045615Y275235D01*
X2964361Y221900D02*
X2959283Y226978D01*
Y232057D01*
X2964361Y237135D01*
X2971979Y221900D02*
Y237135D01*
X2977057Y232057D01*
X2982135Y237135D01*
Y221900D01*
X2987214D02*
X2992292D01*
X2989753D01*
Y232057D01*
X2987214D01*
X2999910D02*
X3010066Y221900D01*
X3004988Y226978D01*
X3010066Y232057D01*
X2999910Y221900D01*
X3022762D02*
X3017684D01*
X3015145Y224439D01*
Y229517D01*
X3017684Y232057D01*
X3022762D01*
X3025302Y229517D01*
Y226978D01*
X3015145D01*
X3040536Y237135D02*
Y221900D01*
X3032919D01*
X3030380Y224439D01*
Y229517D01*
X3032919Y232057D01*
X3040536D01*
X3045615Y221900D02*
X3050693Y226978D01*
Y232057D01*
X3045615Y237135D01*
X2769850Y488600D02*
Y503835D01*
X2777468D01*
X2780007Y501296D01*
Y496217D01*
X2777468Y493678D01*
X2769850D01*
X2774928D02*
X2780007Y488600D01*
X2787624D02*
X2792703D01*
X2795242Y491139D01*
Y496217D01*
X2792703Y498757D01*
X2787624D01*
X2785085Y496217D01*
Y491139D01*
X2787624Y488600D01*
X2800320Y498757D02*
Y491139D01*
X2802859Y488600D01*
X2810477D01*
Y498757D01*
X2815555Y488600D02*
Y498757D01*
X2823173D01*
X2825712Y496217D01*
Y488600D01*
X2840947Y503835D02*
Y488600D01*
X2833329D01*
X2830790Y491139D01*
Y496217D01*
X2833329Y498757D01*
X2840947D01*
X2853643Y488600D02*
X2848564D01*
X2846025Y491139D01*
Y496217D01*
X2848564Y498757D01*
X2853643D01*
X2856182Y496217D01*
Y493678D01*
X2846025D01*
X2871417Y503835D02*
Y488600D01*
X2863800D01*
X2861260Y491139D01*
Y496217D01*
X2863800Y498757D01*
X2871417D01*
X2769850Y450500D02*
Y465735D01*
X2777468D01*
X2780007Y463196D01*
Y458117D01*
X2777468Y455578D01*
X2769850D01*
X2774928D02*
X2780007Y450500D01*
X2787624D02*
X2792703D01*
X2795242Y453039D01*
Y458117D01*
X2792703Y460657D01*
X2787624D01*
X2785085Y458117D01*
Y453039D01*
X2787624Y450500D01*
X2800320Y460657D02*
Y453039D01*
X2802859Y450500D01*
X2810477D01*
Y460657D01*
X2815555Y450500D02*
Y460657D01*
X2823173D01*
X2825712Y458117D01*
Y450500D01*
X2840947Y465735D02*
Y450500D01*
X2833329D01*
X2830790Y453039D01*
Y458117D01*
X2833329Y460657D01*
X2840947D01*
X2853643Y450500D02*
X2848564D01*
X2846025Y453039D01*
Y458117D01*
X2848564Y460657D01*
X2853643D01*
X2856182Y458117D01*
Y455578D01*
X2846025D01*
X2871417Y465735D02*
Y450500D01*
X2863800D01*
X2861260Y453039D01*
Y458117D01*
X2863800Y460657D01*
X2871417D01*
X2769850Y412400D02*
Y427635D01*
X2777468D01*
X2780007Y425096D01*
Y420018D01*
X2777468Y417478D01*
X2769850D01*
X2774928D02*
X2780007Y412400D01*
X2787624D02*
X2792703D01*
X2795242Y414939D01*
Y420018D01*
X2792703Y422557D01*
X2787624D01*
X2785085Y420018D01*
Y414939D01*
X2787624Y412400D01*
X2800320Y422557D02*
Y414939D01*
X2802859Y412400D01*
X2810477D01*
Y422557D01*
X2815555Y412400D02*
Y422557D01*
X2823173D01*
X2825712Y420018D01*
Y412400D01*
X2840947Y427635D02*
Y412400D01*
X2833329D01*
X2830790Y414939D01*
Y420018D01*
X2833329Y422557D01*
X2840947D01*
X2853643Y412400D02*
X2848564D01*
X2846025Y414939D01*
Y420018D01*
X2848564Y422557D01*
X2853643D01*
X2856182Y420018D01*
Y417478D01*
X2846025D01*
X2871417Y427635D02*
Y412400D01*
X2863800D01*
X2861260Y414939D01*
Y420018D01*
X2863800Y422557D01*
X2871417D01*
X2769850Y374300D02*
Y389535D01*
X2777468D01*
X2780007Y386996D01*
Y381917D01*
X2777468Y379378D01*
X2769850D01*
X2774928D02*
X2780007Y374300D01*
X2787624D02*
X2792703D01*
X2795242Y376839D01*
Y381917D01*
X2792703Y384457D01*
X2787624D01*
X2785085Y381917D01*
Y376839D01*
X2787624Y374300D01*
X2800320Y384457D02*
Y376839D01*
X2802859Y374300D01*
X2810477D01*
Y384457D01*
X2815555Y374300D02*
Y384457D01*
X2823173D01*
X2825712Y381917D01*
Y374300D01*
X2840947Y389535D02*
Y374300D01*
X2833329D01*
X2830790Y376839D01*
Y381917D01*
X2833329Y384457D01*
X2840947D01*
X2853643Y374300D02*
X2848564D01*
X2846025Y376839D01*
Y381917D01*
X2848564Y384457D01*
X2853643D01*
X2856182Y381917D01*
Y379378D01*
X2846025D01*
X2871417Y389535D02*
Y374300D01*
X2863800D01*
X2861260Y376839D01*
Y381917D01*
X2863800Y384457D01*
X2871417D01*
X2769850Y336200D02*
Y351435D01*
X2777468D01*
X2780007Y348896D01*
Y343817D01*
X2777468Y341278D01*
X2769850D01*
X2774928D02*
X2780007Y336200D01*
X2787624D02*
X2792703D01*
X2795242Y338739D01*
Y343817D01*
X2792703Y346357D01*
X2787624D01*
X2785085Y343817D01*
Y338739D01*
X2787624Y336200D01*
X2800320Y346357D02*
Y338739D01*
X2802859Y336200D01*
X2810477D01*
Y346357D01*
X2815555Y336200D02*
Y346357D01*
X2823173D01*
X2825712Y343817D01*
Y336200D01*
X2840947Y351435D02*
Y336200D01*
X2833329D01*
X2830790Y338739D01*
Y343817D01*
X2833329Y346357D01*
X2840947D01*
X2853643Y336200D02*
X2848564D01*
X2846025Y338739D01*
Y343817D01*
X2848564Y346357D01*
X2853643D01*
X2856182Y343817D01*
Y341278D01*
X2846025D01*
X2871417Y351435D02*
Y336200D01*
X2863800D01*
X2861260Y338739D01*
Y343817D01*
X2863800Y346357D01*
X2871417D01*
X2769850Y298100D02*
Y313335D01*
X2777468D01*
X2780007Y310796D01*
Y305718D01*
X2777468Y303178D01*
X2769850D01*
X2774928D02*
X2780007Y298100D01*
X2787624D02*
X2792703D01*
X2795242Y300639D01*
Y305718D01*
X2792703Y308257D01*
X2787624D01*
X2785085Y305718D01*
Y300639D01*
X2787624Y298100D01*
X2800320Y308257D02*
Y300639D01*
X2802859Y298100D01*
X2810477D01*
Y308257D01*
X2815555Y298100D02*
Y308257D01*
X2823173D01*
X2825712Y305718D01*
Y298100D01*
X2840947Y313335D02*
Y298100D01*
X2833329D01*
X2830790Y300639D01*
Y305718D01*
X2833329Y308257D01*
X2840947D01*
X2853643Y298100D02*
X2848564D01*
X2846025Y300639D01*
Y305718D01*
X2848564Y308257D01*
X2853643D01*
X2856182Y305718D01*
Y303178D01*
X2846025D01*
X2871417Y313335D02*
Y298100D01*
X2863800D01*
X2861260Y300639D01*
Y305718D01*
X2863800Y308257D01*
X2871417D01*
X2769850Y260000D02*
Y275235D01*
X2777468D01*
X2780007Y272696D01*
Y267617D01*
X2777468Y265078D01*
X2769850D01*
X2774928D02*
X2780007Y260000D01*
X2787624D02*
X2792703D01*
X2795242Y262539D01*
Y267617D01*
X2792703Y270157D01*
X2787624D01*
X2785085Y267617D01*
Y262539D01*
X2787624Y260000D01*
X2800320Y270157D02*
Y262539D01*
X2802859Y260000D01*
X2810477D01*
Y270157D01*
X2815555Y260000D02*
Y270157D01*
X2823173D01*
X2825712Y267617D01*
Y260000D01*
X2840947Y275235D02*
Y260000D01*
X2833329D01*
X2830790Y262539D01*
Y267617D01*
X2833329Y270157D01*
X2840947D01*
X2853643Y260000D02*
X2848564D01*
X2846025Y262539D01*
Y267617D01*
X2848564Y270157D01*
X2853643D01*
X2856182Y267617D01*
Y265078D01*
X2846025D01*
X2871417Y275235D02*
Y260000D01*
X2863800D01*
X2861260Y262539D01*
Y267617D01*
X2863800Y270157D01*
X2871417D01*
X2769850Y221900D02*
Y237135D01*
X2777468D01*
X2780007Y234596D01*
Y229517D01*
X2777468Y226978D01*
X2769850D01*
X2774928D02*
X2780007Y221900D01*
X2787624D02*
X2792703D01*
X2795242Y224439D01*
Y229517D01*
X2792703Y232057D01*
X2787624D01*
X2785085Y229517D01*
Y224439D01*
X2787624Y221900D01*
X2800320Y232057D02*
Y224439D01*
X2802859Y221900D01*
X2810477D01*
Y232057D01*
X2815555Y221900D02*
Y232057D01*
X2823173D01*
X2825712Y229517D01*
Y221900D01*
X2840947Y237135D02*
Y221900D01*
X2833329D01*
X2830790Y224439D01*
Y229517D01*
X2833329Y232057D01*
X2840947D01*
X2853643Y221900D02*
X2848564D01*
X2846025Y224439D01*
Y229517D01*
X2848564Y232057D01*
X2853643D01*
X2856182Y229517D01*
Y226978D01*
X2846025D01*
X2871417Y237135D02*
Y221900D01*
X2863800D01*
X2861260Y224439D01*
Y229517D01*
X2863800Y232057D01*
X2871417D01*
X2620028Y488600D02*
Y503835D01*
X2627646D01*
X2630185Y501296D01*
Y496217D01*
X2627646Y493678D01*
X2620028D01*
X2637803Y498757D02*
X2642881D01*
X2645420Y496217D01*
Y488600D01*
X2637803D01*
X2635264Y491139D01*
X2637803Y493678D01*
X2645420D01*
X2660656Y503835D02*
Y488600D01*
X2653038D01*
X2650499Y491139D01*
Y496217D01*
X2653038Y498757D01*
X2660656D01*
X2620028Y450500D02*
Y465735D01*
X2627646D01*
X2630185Y463196D01*
Y458117D01*
X2627646Y455578D01*
X2620028D01*
X2637803Y460657D02*
X2642881D01*
X2645420Y458117D01*
Y450500D01*
X2637803D01*
X2635264Y453039D01*
X2637803Y455578D01*
X2645420D01*
X2660656Y465735D02*
Y450500D01*
X2653038D01*
X2650499Y453039D01*
Y458117D01*
X2653038Y460657D01*
X2660656D01*
X2620028Y412400D02*
Y427635D01*
X2627646D01*
X2630185Y425096D01*
Y420018D01*
X2627646Y417478D01*
X2620028D01*
X2637803Y422557D02*
X2642881D01*
X2645420Y420018D01*
Y412400D01*
X2637803D01*
X2635264Y414939D01*
X2637803Y417478D01*
X2645420D01*
X2660656Y427635D02*
Y412400D01*
X2653038D01*
X2650499Y414939D01*
Y420018D01*
X2653038Y422557D01*
X2660656D01*
X2620028Y374300D02*
Y389535D01*
X2627646D01*
X2630185Y386996D01*
Y381917D01*
X2627646Y379378D01*
X2620028D01*
X2637803Y384457D02*
X2642881D01*
X2645420Y381917D01*
Y374300D01*
X2637803D01*
X2635264Y376839D01*
X2637803Y379378D01*
X2645420D01*
X2660656Y389535D02*
Y374300D01*
X2653038D01*
X2650499Y376839D01*
Y381917D01*
X2653038Y384457D01*
X2660656D01*
X2620028Y336200D02*
Y351435D01*
X2627646D01*
X2630185Y348896D01*
Y343817D01*
X2627646Y341278D01*
X2620028D01*
X2637803Y346357D02*
X2642881D01*
X2645420Y343817D01*
Y336200D01*
X2637803D01*
X2635264Y338739D01*
X2637803Y341278D01*
X2645420D01*
X2660656Y351435D02*
Y336200D01*
X2653038D01*
X2650499Y338739D01*
Y343817D01*
X2653038Y346357D01*
X2660656D01*
X2620028Y298100D02*
Y313335D01*
X2627646D01*
X2630185Y310796D01*
Y305718D01*
X2627646Y303178D01*
X2620028D01*
X2637803Y308257D02*
X2642881D01*
X2645420Y305718D01*
Y298100D01*
X2637803D01*
X2635264Y300639D01*
X2637803Y303178D01*
X2645420D01*
X2660656Y313335D02*
Y298100D01*
X2653038D01*
X2650499Y300639D01*
Y305718D01*
X2653038Y308257D01*
X2660656D01*
X2620028Y260000D02*
Y275235D01*
X2627646D01*
X2630185Y272696D01*
Y267617D01*
X2627646Y265078D01*
X2620028D01*
X2637803Y270157D02*
X2642881D01*
X2645420Y267617D01*
Y260000D01*
X2637803D01*
X2635264Y262539D01*
X2637803Y265078D01*
X2645420D01*
X2660656Y275235D02*
Y260000D01*
X2653038D01*
X2650499Y262539D01*
Y267617D01*
X2653038Y270157D01*
X2660656D01*
X2620028Y237135D02*
Y226978D01*
X2625107Y221900D01*
X2630185Y226978D01*
Y237135D01*
X2635264Y221900D02*
X2640342D01*
X2637803D01*
Y232057D01*
X2635264D01*
X2650499D02*
X2655577D01*
X2658116Y229517D01*
Y221900D01*
X2650499D01*
X2647960Y224439D01*
X2650499Y226978D01*
X2658116D01*
X2239143Y503835D02*
X2249299D01*
X2244221D01*
Y488600D01*
X2256917D02*
X2261995D01*
X2264534Y491139D01*
Y496217D01*
X2261995Y498757D01*
X2256917D01*
X2254378Y496217D01*
Y491139D01*
X2256917Y488600D01*
X2269613Y483522D02*
Y498757D01*
X2277230D01*
X2279770Y496217D01*
Y491139D01*
X2277230Y488600D01*
X2269613D01*
X2300083Y503835D02*
Y488600D01*
X2310240D01*
X2317857Y498757D02*
X2322936D01*
X2325475Y496217D01*
Y488600D01*
X2317857D01*
X2315318Y491139D01*
X2317857Y493678D01*
X2325475D01*
X2330553Y498757D02*
Y491139D01*
X2333092Y488600D01*
X2340710D01*
Y486061D01*
X2338171Y483522D01*
X2335632D01*
X2340710Y488600D02*
Y498757D01*
X2353406Y488600D02*
X2348327D01*
X2345788Y491139D01*
Y496217D01*
X2348327Y498757D01*
X2353406D01*
X2355945Y496217D01*
Y493678D01*
X2345788D01*
X2361023Y498757D02*
Y488600D01*
Y493678D01*
X2363562Y496217D01*
X2366102Y498757D01*
X2368641D01*
X2391493Y496217D02*
X2401650D01*
X2421964Y503835D02*
Y488600D01*
X2429581D01*
X2432120Y491139D01*
Y493678D01*
X2429581Y496217D01*
X2421964D01*
X2429581D01*
X2432120Y498757D01*
Y501296D01*
X2429581Y503835D01*
X2421964D01*
X2439738Y488600D02*
X2444816D01*
X2447355Y491139D01*
Y496217D01*
X2444816Y498757D01*
X2439738D01*
X2437199Y496217D01*
Y491139D01*
X2439738Y488600D01*
X2454973Y501296D02*
Y498757D01*
X2452434D01*
X2457512D01*
X2454973D01*
Y491139D01*
X2457512Y488600D01*
X2467669Y501296D02*
Y498757D01*
X2465130D01*
X2470208D01*
X2467669D01*
Y491139D01*
X2470208Y488600D01*
X2480365D02*
X2485443D01*
X2487982Y491139D01*
Y496217D01*
X2485443Y498757D01*
X2480365D01*
X2477825Y496217D01*
Y491139D01*
X2480365Y488600D01*
X2493060D02*
Y498757D01*
X2495600D01*
X2498139Y496217D01*
Y488600D01*
Y496217D01*
X2500678Y498757D01*
X2503217Y496217D01*
Y488600D01*
X2523531Y503835D02*
Y488600D01*
X2533687D01*
X2541305Y498757D02*
X2546383D01*
X2548922Y496217D01*
Y488600D01*
X2541305D01*
X2538766Y491139D01*
X2541305Y493678D01*
X2548922D01*
X2554001Y498757D02*
Y491139D01*
X2556540Y488600D01*
X2564158D01*
Y486061D01*
X2561618Y483522D01*
X2559079D01*
X2564158Y488600D02*
Y498757D01*
X2576853Y488600D02*
X2571775D01*
X2569236Y491139D01*
Y496217D01*
X2571775Y498757D01*
X2576853D01*
X2579393Y496217D01*
Y493678D01*
X2569236D01*
X2584471Y498757D02*
Y488600D01*
Y493678D01*
X2587010Y496217D01*
X2589549Y498757D01*
X2592089D01*
X2239143Y465735D02*
X2249299D01*
X2244221D01*
Y450500D01*
X2256917D02*
X2261995D01*
X2264534Y453039D01*
Y458117D01*
X2261995Y460657D01*
X2256917D01*
X2254378Y458117D01*
Y453039D01*
X2256917Y450500D01*
X2269613Y445422D02*
Y460657D01*
X2277230D01*
X2279770Y458117D01*
Y453039D01*
X2277230Y450500D01*
X2269613D01*
X2300083Y465735D02*
Y450500D01*
X2310240D01*
X2317857Y460657D02*
X2322936D01*
X2325475Y458117D01*
Y450500D01*
X2317857D01*
X2315318Y453039D01*
X2317857Y455578D01*
X2325475D01*
X2330553Y460657D02*
Y453039D01*
X2333092Y450500D01*
X2340710D01*
Y447961D01*
X2338171Y445422D01*
X2335632D01*
X2340710Y450500D02*
Y460657D01*
X2353406Y450500D02*
X2348327D01*
X2345788Y453039D01*
Y458117D01*
X2348327Y460657D01*
X2353406D01*
X2355945Y458117D01*
Y455578D01*
X2345788D01*
X2361023Y460657D02*
Y450500D01*
Y455578D01*
X2363562Y458117D01*
X2366102Y460657D01*
X2368641D01*
X2391493Y458117D02*
X2401650D01*
X2421964Y465735D02*
Y450500D01*
X2429581D01*
X2432120Y453039D01*
Y455578D01*
X2429581Y458117D01*
X2421964D01*
X2429581D01*
X2432120Y460657D01*
Y463196D01*
X2429581Y465735D01*
X2421964D01*
X2439738Y450500D02*
X2444816D01*
X2447355Y453039D01*
Y458117D01*
X2444816Y460657D01*
X2439738D01*
X2437199Y458117D01*
Y453039D01*
X2439738Y450500D01*
X2454973Y463196D02*
Y460657D01*
X2452434D01*
X2457512D01*
X2454973D01*
Y453039D01*
X2457512Y450500D01*
X2467669Y463196D02*
Y460657D01*
X2465130D01*
X2470208D01*
X2467669D01*
Y453039D01*
X2470208Y450500D01*
X2480365D02*
X2485443D01*
X2487982Y453039D01*
Y458117D01*
X2485443Y460657D01*
X2480365D01*
X2477825Y458117D01*
Y453039D01*
X2480365Y450500D01*
X2493060D02*
Y460657D01*
X2495600D01*
X2498139Y458117D01*
Y450500D01*
Y458117D01*
X2500678Y460657D01*
X2503217Y458117D01*
Y450500D01*
X2523531Y465735D02*
Y450500D01*
X2533687D01*
X2541305Y460657D02*
X2546383D01*
X2548922Y458117D01*
Y450500D01*
X2541305D01*
X2538766Y453039D01*
X2541305Y455578D01*
X2548922D01*
X2554001Y460657D02*
Y453039D01*
X2556540Y450500D01*
X2564158D01*
Y447961D01*
X2561618Y445422D01*
X2559079D01*
X2564158Y450500D02*
Y460657D01*
X2576853Y450500D02*
X2571775D01*
X2569236Y453039D01*
Y458117D01*
X2571775Y460657D01*
X2576853D01*
X2579393Y458117D01*
Y455578D01*
X2569236D01*
X2584471Y460657D02*
Y450500D01*
Y455578D01*
X2587010Y458117D01*
X2589549Y460657D01*
X2592089D01*
X2239143Y427635D02*
X2249299D01*
X2244221D01*
Y412400D01*
X2256917D02*
X2261995D01*
X2264534Y414939D01*
Y420018D01*
X2261995Y422557D01*
X2256917D01*
X2254378Y420018D01*
Y414939D01*
X2256917Y412400D01*
X2269613Y407322D02*
Y422557D01*
X2277230D01*
X2279770Y420018D01*
Y414939D01*
X2277230Y412400D01*
X2269613D01*
X2300083Y427635D02*
Y412400D01*
X2310240D01*
X2317857Y422557D02*
X2322936D01*
X2325475Y420018D01*
Y412400D01*
X2317857D01*
X2315318Y414939D01*
X2317857Y417478D01*
X2325475D01*
X2330553Y422557D02*
Y414939D01*
X2333092Y412400D01*
X2340710D01*
Y409861D01*
X2338171Y407322D01*
X2335632D01*
X2340710Y412400D02*
Y422557D01*
X2353406Y412400D02*
X2348327D01*
X2345788Y414939D01*
Y420018D01*
X2348327Y422557D01*
X2353406D01*
X2355945Y420018D01*
Y417478D01*
X2345788D01*
X2361023Y422557D02*
Y412400D01*
Y417478D01*
X2363562Y420018D01*
X2366102Y422557D01*
X2368641D01*
X2391493Y420018D02*
X2401650D01*
X2421964Y427635D02*
Y412400D01*
X2429581D01*
X2432120Y414939D01*
Y417478D01*
X2429581Y420018D01*
X2421964D01*
X2429581D01*
X2432120Y422557D01*
Y425096D01*
X2429581Y427635D01*
X2421964D01*
X2439738Y412400D02*
X2444816D01*
X2447355Y414939D01*
Y420018D01*
X2444816Y422557D01*
X2439738D01*
X2437199Y420018D01*
Y414939D01*
X2439738Y412400D01*
X2454973Y425096D02*
Y422557D01*
X2452434D01*
X2457512D01*
X2454973D01*
Y414939D01*
X2457512Y412400D01*
X2467669Y425096D02*
Y422557D01*
X2465130D01*
X2470208D01*
X2467669D01*
Y414939D01*
X2470208Y412400D01*
X2480365D02*
X2485443D01*
X2487982Y414939D01*
Y420018D01*
X2485443Y422557D01*
X2480365D01*
X2477825Y420018D01*
Y414939D01*
X2480365Y412400D01*
X2493060D02*
Y422557D01*
X2495600D01*
X2498139Y420018D01*
Y412400D01*
Y420018D01*
X2500678Y422557D01*
X2503217Y420018D01*
Y412400D01*
X2523531Y427635D02*
Y412400D01*
X2533687D01*
X2541305Y422557D02*
X2546383D01*
X2548922Y420018D01*
Y412400D01*
X2541305D01*
X2538766Y414939D01*
X2541305Y417478D01*
X2548922D01*
X2554001Y422557D02*
Y414939D01*
X2556540Y412400D01*
X2564158D01*
Y409861D01*
X2561618Y407322D01*
X2559079D01*
X2564158Y412400D02*
Y422557D01*
X2576853Y412400D02*
X2571775D01*
X2569236Y414939D01*
Y420018D01*
X2571775Y422557D01*
X2576853D01*
X2579393Y420018D01*
Y417478D01*
X2569236D01*
X2584471Y422557D02*
Y412400D01*
Y417478D01*
X2587010Y420018D01*
X2589549Y422557D01*
X2592089D01*
X2239143Y389535D02*
X2249299D01*
X2244221D01*
Y374300D01*
X2256917D02*
X2261995D01*
X2264534Y376839D01*
Y381917D01*
X2261995Y384457D01*
X2256917D01*
X2254378Y381917D01*
Y376839D01*
X2256917Y374300D01*
X2269613Y369222D02*
Y384457D01*
X2277230D01*
X2279770Y381917D01*
Y376839D01*
X2277230Y374300D01*
X2269613D01*
X2300083Y389535D02*
Y374300D01*
X2310240D01*
X2317857Y384457D02*
X2322936D01*
X2325475Y381917D01*
Y374300D01*
X2317857D01*
X2315318Y376839D01*
X2317857Y379378D01*
X2325475D01*
X2330553Y384457D02*
Y376839D01*
X2333092Y374300D01*
X2340710D01*
Y371761D01*
X2338171Y369222D01*
X2335632D01*
X2340710Y374300D02*
Y384457D01*
X2353406Y374300D02*
X2348327D01*
X2345788Y376839D01*
Y381917D01*
X2348327Y384457D01*
X2353406D01*
X2355945Y381917D01*
Y379378D01*
X2345788D01*
X2361023Y384457D02*
Y374300D01*
Y379378D01*
X2363562Y381917D01*
X2366102Y384457D01*
X2368641D01*
X2391493Y381917D02*
X2401650D01*
X2421964Y389535D02*
Y374300D01*
X2429581D01*
X2432120Y376839D01*
Y379378D01*
X2429581Y381917D01*
X2421964D01*
X2429581D01*
X2432120Y384457D01*
Y386996D01*
X2429581Y389535D01*
X2421964D01*
X2439738Y374300D02*
X2444816D01*
X2447355Y376839D01*
Y381917D01*
X2444816Y384457D01*
X2439738D01*
X2437199Y381917D01*
Y376839D01*
X2439738Y374300D01*
X2454973Y386996D02*
Y384457D01*
X2452434D01*
X2457512D01*
X2454973D01*
Y376839D01*
X2457512Y374300D01*
X2467669Y386996D02*
Y384457D01*
X2465130D01*
X2470208D01*
X2467669D01*
Y376839D01*
X2470208Y374300D01*
X2480365D02*
X2485443D01*
X2487982Y376839D01*
Y381917D01*
X2485443Y384457D01*
X2480365D01*
X2477825Y381917D01*
Y376839D01*
X2480365Y374300D01*
X2493060D02*
Y384457D01*
X2495600D01*
X2498139Y381917D01*
Y374300D01*
Y381917D01*
X2500678Y384457D01*
X2503217Y381917D01*
Y374300D01*
X2523531Y389535D02*
Y374300D01*
X2533687D01*
X2541305Y384457D02*
X2546383D01*
X2548922Y381917D01*
Y374300D01*
X2541305D01*
X2538766Y376839D01*
X2541305Y379378D01*
X2548922D01*
X2554001Y384457D02*
Y376839D01*
X2556540Y374300D01*
X2564158D01*
Y371761D01*
X2561618Y369222D01*
X2559079D01*
X2564158Y374300D02*
Y384457D01*
X2576853Y374300D02*
X2571775D01*
X2569236Y376839D01*
Y381917D01*
X2571775Y384457D01*
X2576853D01*
X2579393Y381917D01*
Y379378D01*
X2569236D01*
X2584471Y384457D02*
Y374300D01*
Y379378D01*
X2587010Y381917D01*
X2589549Y384457D01*
X2592089D01*
X2239143Y351435D02*
X2249299D01*
X2244221D01*
Y336200D01*
X2256917D02*
X2261995D01*
X2264534Y338739D01*
Y343817D01*
X2261995Y346357D01*
X2256917D01*
X2254378Y343817D01*
Y338739D01*
X2256917Y336200D01*
X2269613Y331122D02*
Y346357D01*
X2277230D01*
X2279770Y343817D01*
Y338739D01*
X2277230Y336200D01*
X2269613D01*
X2300083Y351435D02*
Y336200D01*
X2310240D01*
X2317857Y346357D02*
X2322936D01*
X2325475Y343817D01*
Y336200D01*
X2317857D01*
X2315318Y338739D01*
X2317857Y341278D01*
X2325475D01*
X2330553Y346357D02*
Y338739D01*
X2333092Y336200D01*
X2340710D01*
Y333661D01*
X2338171Y331122D01*
X2335632D01*
X2340710Y336200D02*
Y346357D01*
X2353406Y336200D02*
X2348327D01*
X2345788Y338739D01*
Y343817D01*
X2348327Y346357D01*
X2353406D01*
X2355945Y343817D01*
Y341278D01*
X2345788D01*
X2361023Y346357D02*
Y336200D01*
Y341278D01*
X2363562Y343817D01*
X2366102Y346357D01*
X2368641D01*
X2391493Y343817D02*
X2401650D01*
X2421964Y351435D02*
Y336200D01*
X2429581D01*
X2432120Y338739D01*
Y341278D01*
X2429581Y343817D01*
X2421964D01*
X2429581D01*
X2432120Y346357D01*
Y348896D01*
X2429581Y351435D01*
X2421964D01*
X2439738Y336200D02*
X2444816D01*
X2447355Y338739D01*
Y343817D01*
X2444816Y346357D01*
X2439738D01*
X2437199Y343817D01*
Y338739D01*
X2439738Y336200D01*
X2454973Y348896D02*
Y346357D01*
X2452434D01*
X2457512D01*
X2454973D01*
Y338739D01*
X2457512Y336200D01*
X2467669Y348896D02*
Y346357D01*
X2465130D01*
X2470208D01*
X2467669D01*
Y338739D01*
X2470208Y336200D01*
X2480365D02*
X2485443D01*
X2487982Y338739D01*
Y343817D01*
X2485443Y346357D01*
X2480365D01*
X2477825Y343817D01*
Y338739D01*
X2480365Y336200D01*
X2493060D02*
Y346357D01*
X2495600D01*
X2498139Y343817D01*
Y336200D01*
Y343817D01*
X2500678Y346357D01*
X2503217Y343817D01*
Y336200D01*
X2523531Y351435D02*
Y336200D01*
X2533687D01*
X2541305Y346357D02*
X2546383D01*
X2548922Y343817D01*
Y336200D01*
X2541305D01*
X2538766Y338739D01*
X2541305Y341278D01*
X2548922D01*
X2554001Y346357D02*
Y338739D01*
X2556540Y336200D01*
X2564158D01*
Y333661D01*
X2561618Y331122D01*
X2559079D01*
X2564158Y336200D02*
Y346357D01*
X2576853Y336200D02*
X2571775D01*
X2569236Y338739D01*
Y343817D01*
X2571775Y346357D01*
X2576853D01*
X2579393Y343817D01*
Y341278D01*
X2569236D01*
X2584471Y346357D02*
Y336200D01*
Y341278D01*
X2587010Y343817D01*
X2589549Y346357D01*
X2592089D01*
X2239143Y313335D02*
X2249299D01*
X2244221D01*
Y298100D01*
X2256917D02*
X2261995D01*
X2264534Y300639D01*
Y305718D01*
X2261995Y308257D01*
X2256917D01*
X2254378Y305718D01*
Y300639D01*
X2256917Y298100D01*
X2269613Y293022D02*
Y308257D01*
X2277230D01*
X2279770Y305718D01*
Y300639D01*
X2277230Y298100D01*
X2269613D01*
X2300083Y313335D02*
Y298100D01*
X2310240D01*
X2317857Y308257D02*
X2322936D01*
X2325475Y305718D01*
Y298100D01*
X2317857D01*
X2315318Y300639D01*
X2317857Y303178D01*
X2325475D01*
X2330553Y308257D02*
Y300639D01*
X2333092Y298100D01*
X2340710D01*
Y295561D01*
X2338171Y293022D01*
X2335632D01*
X2340710Y298100D02*
Y308257D01*
X2353406Y298100D02*
X2348327D01*
X2345788Y300639D01*
Y305718D01*
X2348327Y308257D01*
X2353406D01*
X2355945Y305718D01*
Y303178D01*
X2345788D01*
X2361023Y308257D02*
Y298100D01*
Y303178D01*
X2363562Y305718D01*
X2366102Y308257D01*
X2368641D01*
X2391493Y305718D02*
X2401650D01*
X2421964Y313335D02*
Y298100D01*
X2429581D01*
X2432120Y300639D01*
Y303178D01*
X2429581Y305718D01*
X2421964D01*
X2429581D01*
X2432120Y308257D01*
Y310796D01*
X2429581Y313335D01*
X2421964D01*
X2439738Y298100D02*
X2444816D01*
X2447355Y300639D01*
Y305718D01*
X2444816Y308257D01*
X2439738D01*
X2437199Y305718D01*
Y300639D01*
X2439738Y298100D01*
X2454973Y310796D02*
Y308257D01*
X2452434D01*
X2457512D01*
X2454973D01*
Y300639D01*
X2457512Y298100D01*
X2467669Y310796D02*
Y308257D01*
X2465130D01*
X2470208D01*
X2467669D01*
Y300639D01*
X2470208Y298100D01*
X2480365D02*
X2485443D01*
X2487982Y300639D01*
Y305718D01*
X2485443Y308257D01*
X2480365D01*
X2477825Y305718D01*
Y300639D01*
X2480365Y298100D01*
X2493060D02*
Y308257D01*
X2495600D01*
X2498139Y305718D01*
Y298100D01*
Y305718D01*
X2500678Y308257D01*
X2503217Y305718D01*
Y298100D01*
X2523531Y313335D02*
Y298100D01*
X2533687D01*
X2541305Y308257D02*
X2546383D01*
X2548922Y305718D01*
Y298100D01*
X2541305D01*
X2538766Y300639D01*
X2541305Y303178D01*
X2548922D01*
X2554001Y308257D02*
Y300639D01*
X2556540Y298100D01*
X2564158D01*
Y295561D01*
X2561618Y293022D01*
X2559079D01*
X2564158Y298100D02*
Y308257D01*
X2576853Y298100D02*
X2571775D01*
X2569236Y300639D01*
Y305718D01*
X2571775Y308257D01*
X2576853D01*
X2579393Y305718D01*
Y303178D01*
X2569236D01*
X2584471Y308257D02*
Y298100D01*
Y303178D01*
X2587010Y305718D01*
X2589549Y308257D01*
X2592089D01*
X2239143Y275235D02*
X2249299D01*
X2244221D01*
Y260000D01*
X2256917D02*
X2261995D01*
X2264534Y262539D01*
Y267617D01*
X2261995Y270157D01*
X2256917D01*
X2254378Y267617D01*
Y262539D01*
X2256917Y260000D01*
X2269613Y254922D02*
Y270157D01*
X2277230D01*
X2279770Y267617D01*
Y262539D01*
X2277230Y260000D01*
X2269613D01*
X2300083Y275235D02*
Y260000D01*
X2310240D01*
X2317857Y270157D02*
X2322936D01*
X2325475Y267617D01*
Y260000D01*
X2317857D01*
X2315318Y262539D01*
X2317857Y265078D01*
X2325475D01*
X2330553Y270157D02*
Y262539D01*
X2333092Y260000D01*
X2340710D01*
Y257461D01*
X2338171Y254922D01*
X2335632D01*
X2340710Y260000D02*
Y270157D01*
X2353406Y260000D02*
X2348327D01*
X2345788Y262539D01*
Y267617D01*
X2348327Y270157D01*
X2353406D01*
X2355945Y267617D01*
Y265078D01*
X2345788D01*
X2361023Y270157D02*
Y260000D01*
Y265078D01*
X2363562Y267617D01*
X2366102Y270157D01*
X2368641D01*
X2391493Y267617D02*
X2401650D01*
X2421964Y275235D02*
Y260000D01*
X2429581D01*
X2432120Y262539D01*
Y265078D01*
X2429581Y267617D01*
X2421964D01*
X2429581D01*
X2432120Y270157D01*
Y272696D01*
X2429581Y275235D01*
X2421964D01*
X2439738Y260000D02*
X2444816D01*
X2447355Y262539D01*
Y267617D01*
X2444816Y270157D01*
X2439738D01*
X2437199Y267617D01*
Y262539D01*
X2439738Y260000D01*
X2454973Y272696D02*
Y270157D01*
X2452434D01*
X2457512D01*
X2454973D01*
Y262539D01*
X2457512Y260000D01*
X2467669Y272696D02*
Y270157D01*
X2465130D01*
X2470208D01*
X2467669D01*
Y262539D01*
X2470208Y260000D01*
X2480365D02*
X2485443D01*
X2487982Y262539D01*
Y267617D01*
X2485443Y270157D01*
X2480365D01*
X2477825Y267617D01*
Y262539D01*
X2480365Y260000D01*
X2493060D02*
Y270157D01*
X2495600D01*
X2498139Y267617D01*
Y260000D01*
Y267617D01*
X2500678Y270157D01*
X2503217Y267617D01*
Y260000D01*
X2523531Y275235D02*
Y260000D01*
X2533687D01*
X2541305Y270157D02*
X2546383D01*
X2548922Y267617D01*
Y260000D01*
X2541305D01*
X2538766Y262539D01*
X2541305Y265078D01*
X2548922D01*
X2554001Y270157D02*
Y262539D01*
X2556540Y260000D01*
X2564158D01*
Y257461D01*
X2561618Y254922D01*
X2559079D01*
X2564158Y260000D02*
Y270157D01*
X2576853Y260000D02*
X2571775D01*
X2569236Y262539D01*
Y267617D01*
X2571775Y270157D01*
X2576853D01*
X2579393Y267617D01*
Y265078D01*
X2569236D01*
X2584471Y270157D02*
Y260000D01*
Y265078D01*
X2587010Y267617D01*
X2589549Y270157D01*
X2592089D01*
X2239143Y237135D02*
X2249299D01*
X2244221D01*
Y221900D01*
X2256917D02*
X2261995D01*
X2264534Y224439D01*
Y229517D01*
X2261995Y232057D01*
X2256917D01*
X2254378Y229517D01*
Y224439D01*
X2256917Y221900D01*
X2269613Y216822D02*
Y232057D01*
X2277230D01*
X2279770Y229517D01*
Y224439D01*
X2277230Y221900D01*
X2269613D01*
X2300083Y237135D02*
Y221900D01*
X2310240D01*
X2317857Y232057D02*
X2322936D01*
X2325475Y229517D01*
Y221900D01*
X2317857D01*
X2315318Y224439D01*
X2317857Y226978D01*
X2325475D01*
X2330553Y232057D02*
Y224439D01*
X2333092Y221900D01*
X2340710D01*
Y219361D01*
X2338171Y216822D01*
X2335632D01*
X2340710Y221900D02*
Y232057D01*
X2353406Y221900D02*
X2348327D01*
X2345788Y224439D01*
Y229517D01*
X2348327Y232057D01*
X2353406D01*
X2355945Y229517D01*
Y226978D01*
X2345788D01*
X2361023Y232057D02*
Y221900D01*
Y226978D01*
X2363562Y229517D01*
X2366102Y232057D01*
X2368641D01*
X2391493Y229517D02*
X2401650D01*
X2421964Y237135D02*
Y221900D01*
X2429581D01*
X2432120Y224439D01*
Y226978D01*
X2429581Y229517D01*
X2421964D01*
X2429581D01*
X2432120Y232057D01*
Y234596D01*
X2429581Y237135D01*
X2421964D01*
X2439738Y221900D02*
X2444816D01*
X2447355Y224439D01*
Y229517D01*
X2444816Y232057D01*
X2439738D01*
X2437199Y229517D01*
Y224439D01*
X2439738Y221900D01*
X2454973Y234596D02*
Y232057D01*
X2452434D01*
X2457512D01*
X2454973D01*
Y224439D01*
X2457512Y221900D01*
X2467669Y234596D02*
Y232057D01*
X2465130D01*
X2470208D01*
X2467669D01*
Y224439D01*
X2470208Y221900D01*
X2480365D02*
X2485443D01*
X2487982Y224439D01*
Y229517D01*
X2485443Y232057D01*
X2480365D01*
X2477825Y229517D01*
Y224439D01*
X2480365Y221900D01*
X2493060D02*
Y232057D01*
X2495600D01*
X2498139Y229517D01*
Y221900D01*
Y229517D01*
X2500678Y232057D01*
X2503217Y229517D01*
Y221900D01*
X2523531Y237135D02*
Y221900D01*
X2533687D01*
X2541305Y232057D02*
X2546383D01*
X2548922Y229517D01*
Y221900D01*
X2541305D01*
X2538766Y224439D01*
X2541305Y226978D01*
X2548922D01*
X2554001Y232057D02*
Y224439D01*
X2556540Y221900D01*
X2564158D01*
Y219361D01*
X2561618Y216822D01*
X2559079D01*
X2564158Y221900D02*
Y232057D01*
X2576853Y221900D02*
X2571775D01*
X2569236Y224439D01*
Y229517D01*
X2571775Y232057D01*
X2576853D01*
X2579393Y229517D01*
Y226978D01*
X2569236D01*
X2584471Y232057D02*
Y221900D01*
Y226978D01*
X2587010Y229517D01*
X2589549Y232057D01*
X2592089D01*
X2052757Y488600D02*
Y503835D01*
X2060374D01*
X2062914Y501296D01*
Y496217D01*
X2060374Y493678D01*
X2052757D01*
X2057835D02*
X2062914Y488600D01*
X2070531D02*
X2075610D01*
X2078149Y491139D01*
Y496217D01*
X2075610Y498757D01*
X2070531D01*
X2067992Y496217D01*
Y491139D01*
X2070531Y488600D01*
X2083227Y498757D02*
Y491139D01*
X2085766Y488600D01*
X2093384D01*
Y498757D01*
X2098462Y488600D02*
Y498757D01*
X2106080D01*
X2108619Y496217D01*
Y488600D01*
X2123854Y503835D02*
Y488600D01*
X2116237D01*
X2113697Y491139D01*
Y496217D01*
X2116237Y498757D01*
X2123854D01*
X2052757Y450500D02*
Y465735D01*
X2060374D01*
X2062914Y463196D01*
Y458117D01*
X2060374Y455578D01*
X2052757D01*
X2057835D02*
X2062914Y450500D01*
X2070531D02*
X2075610D01*
X2078149Y453039D01*
Y458117D01*
X2075610Y460657D01*
X2070531D01*
X2067992Y458117D01*
Y453039D01*
X2070531Y450500D01*
X2083227Y460657D02*
Y453039D01*
X2085766Y450500D01*
X2093384D01*
Y460657D01*
X2098462Y450500D02*
Y460657D01*
X2106080D01*
X2108619Y458117D01*
Y450500D01*
X2123854Y465735D02*
Y450500D01*
X2116237D01*
X2113697Y453039D01*
Y458117D01*
X2116237Y460657D01*
X2123854D01*
X2052757Y412400D02*
Y427635D01*
X2060374D01*
X2062914Y425096D01*
Y420018D01*
X2060374Y417478D01*
X2052757D01*
X2057835D02*
X2062914Y412400D01*
X2070531D02*
X2075610D01*
X2078149Y414939D01*
Y420018D01*
X2075610Y422557D01*
X2070531D01*
X2067992Y420018D01*
Y414939D01*
X2070531Y412400D01*
X2083227Y422557D02*
Y414939D01*
X2085766Y412400D01*
X2093384D01*
Y422557D01*
X2098462Y412400D02*
Y422557D01*
X2106080D01*
X2108619Y420018D01*
Y412400D01*
X2123854Y427635D02*
Y412400D01*
X2116237D01*
X2113697Y414939D01*
Y420018D01*
X2116237Y422557D01*
X2123854D01*
X2052757Y374300D02*
Y389535D01*
X2060374D01*
X2062914Y386996D01*
Y381917D01*
X2060374Y379378D01*
X2052757D01*
X2057835D02*
X2062914Y374300D01*
X2070531D02*
X2075610D01*
X2078149Y376839D01*
Y381917D01*
X2075610Y384457D01*
X2070531D01*
X2067992Y381917D01*
Y376839D01*
X2070531Y374300D01*
X2083227Y384457D02*
Y376839D01*
X2085766Y374300D01*
X2093384D01*
Y384457D01*
X2098462Y374300D02*
Y384457D01*
X2106080D01*
X2108619Y381917D01*
Y374300D01*
X2123854Y389535D02*
Y374300D01*
X2116237D01*
X2113697Y376839D01*
Y381917D01*
X2116237Y384457D01*
X2123854D01*
X2052757Y336200D02*
Y351435D01*
X2060374D01*
X2062914Y348896D01*
Y343817D01*
X2060374Y341278D01*
X2052757D01*
X2057835D02*
X2062914Y336200D01*
X2070531D02*
X2075610D01*
X2078149Y338739D01*
Y343817D01*
X2075610Y346357D01*
X2070531D01*
X2067992Y343817D01*
Y338739D01*
X2070531Y336200D01*
X2083227Y346357D02*
Y338739D01*
X2085766Y336200D01*
X2093384D01*
Y346357D01*
X2098462Y336200D02*
Y346357D01*
X2106080D01*
X2108619Y343817D01*
Y336200D01*
X2123854Y351435D02*
Y336200D01*
X2116237D01*
X2113697Y338739D01*
Y343817D01*
X2116237Y346357D01*
X2123854D01*
X2052757Y298100D02*
Y313335D01*
X2060374D01*
X2062914Y310796D01*
Y305718D01*
X2060374Y303178D01*
X2052757D01*
X2057835D02*
X2062914Y298100D01*
X2070531D02*
X2075610D01*
X2078149Y300639D01*
Y305718D01*
X2075610Y308257D01*
X2070531D01*
X2067992Y305718D01*
Y300639D01*
X2070531Y298100D01*
X2083227Y308257D02*
Y300639D01*
X2085766Y298100D01*
X2093384D01*
Y308257D01*
X2098462Y298100D02*
Y308257D01*
X2106080D01*
X2108619Y305718D01*
Y298100D01*
X2123854Y313335D02*
Y298100D01*
X2116237D01*
X2113697Y300639D01*
Y305718D01*
X2116237Y308257D01*
X2123854D01*
X2052757Y260000D02*
Y275235D01*
X2060374D01*
X2062914Y272696D01*
Y267617D01*
X2060374Y265078D01*
X2052757D01*
X2057835D02*
X2062914Y260000D01*
X2070531D02*
X2075610D01*
X2078149Y262539D01*
Y267617D01*
X2075610Y270157D01*
X2070531D01*
X2067992Y267617D01*
Y262539D01*
X2070531Y260000D01*
X2083227Y270157D02*
Y262539D01*
X2085766Y260000D01*
X2093384D01*
Y270157D01*
X2098462Y260000D02*
Y270157D01*
X2106080D01*
X2108619Y267617D01*
Y260000D01*
X2123854Y275235D02*
Y260000D01*
X2116237D01*
X2113697Y262539D01*
Y267617D01*
X2116237Y270157D01*
X2123854D01*
X2052757Y221900D02*
Y237135D01*
X2060374D01*
X2062914Y234596D01*
Y229517D01*
X2060374Y226978D01*
X2052757D01*
X2057835D02*
X2062914Y221900D01*
X2070531D02*
X2075610D01*
X2078149Y224439D01*
Y229517D01*
X2075610Y232057D01*
X2070531D01*
X2067992Y229517D01*
Y224439D01*
X2070531Y221900D01*
X2083227Y232057D02*
Y224439D01*
X2085766Y221900D01*
X2093384D01*
Y232057D01*
X2098462Y221900D02*
Y232057D01*
X2106080D01*
X2108619Y229517D01*
Y221900D01*
X2123854Y237135D02*
Y221900D01*
X2116237D01*
X2113697Y224439D01*
Y229517D01*
X2116237Y232057D01*
X2123854D01*
X1924265Y488600D02*
Y503835D01*
X1931882D01*
X1934421Y501296D01*
Y496217D01*
X1931882Y493678D01*
X1924265D01*
X1939500Y503835D02*
X1949656D01*
X1944578D01*
Y488600D01*
X1954735Y503835D02*
Y488600D01*
Y496217D01*
X1964891D01*
Y503835D01*
Y488600D01*
X1924265Y450500D02*
Y465735D01*
X1931882D01*
X1934421Y463196D01*
Y458117D01*
X1931882Y455578D01*
X1924265D01*
X1939500Y465735D02*
X1949656D01*
X1944578D01*
Y450500D01*
X1954735Y465735D02*
Y450500D01*
Y458117D01*
X1964891D01*
Y465735D01*
Y450500D01*
X1924265Y412400D02*
Y427635D01*
X1934421Y412400D01*
Y427635D01*
X1939500Y412400D02*
Y427635D01*
X1947117D01*
X1949656Y425096D01*
Y420018D01*
X1947117Y417478D01*
X1939500D01*
X1954735Y427635D02*
X1964891D01*
X1959813D01*
Y412400D01*
X1969970Y427635D02*
Y412400D01*
Y420018D01*
X1980126D01*
Y427635D01*
Y412400D01*
X1924265Y374300D02*
Y389535D01*
X1931882D01*
X1934421Y386996D01*
Y381917D01*
X1931882Y379378D01*
X1924265D01*
X1939500Y389535D02*
X1949656D01*
X1944578D01*
Y374300D01*
X1954735Y389535D02*
Y374300D01*
Y381917D01*
X1964891D01*
Y389535D01*
Y374300D01*
X1924265Y336200D02*
Y351435D01*
X1934421Y336200D01*
Y351435D01*
X1939500Y336200D02*
Y351435D01*
X1947117D01*
X1949656Y348896D01*
Y343817D01*
X1947117Y341278D01*
X1939500D01*
X1954735Y351435D02*
X1964891D01*
X1959813D01*
Y336200D01*
X1969970Y351435D02*
Y336200D01*
Y343817D01*
X1980126D01*
Y351435D01*
Y336200D01*
X1924265Y298100D02*
Y313335D01*
X1934421Y298100D01*
Y313335D01*
X1939500Y298100D02*
Y313335D01*
X1947117D01*
X1949656Y310796D01*
Y305718D01*
X1947117Y303178D01*
X1939500D01*
X1954735Y313335D02*
X1964891D01*
X1959813D01*
Y298100D01*
X1969970Y313335D02*
Y298100D01*
Y305718D01*
X1980126D01*
Y313335D01*
Y298100D01*
X1924265Y260000D02*
Y275235D01*
X1931882D01*
X1934421Y272696D01*
Y267617D01*
X1931882Y265078D01*
X1924265D01*
X1939500Y275235D02*
X1949656D01*
X1944578D01*
Y260000D01*
X1954735Y275235D02*
Y260000D01*
Y267617D01*
X1964891D01*
Y275235D01*
Y260000D01*
X1924265Y221900D02*
Y237135D01*
X1931882D01*
X1934421Y234596D01*
Y229517D01*
X1931882Y226978D01*
X1924265D01*
X1939500Y237135D02*
X1949656D01*
X1944578D01*
Y221900D01*
X1954735Y237135D02*
Y221900D01*
Y229517D01*
X1964891D01*
Y237135D01*
Y221900D01*
X1632250Y501296D02*
X1634789Y503835D01*
X1639868D01*
X1642407Y501296D01*
Y491139D01*
X1639868Y488600D01*
X1634789D01*
X1632250Y491139D01*
Y501296D01*
X1647485Y488600D02*
Y491139D01*
X1650024D01*
Y488600D01*
X1647485D01*
X1660181Y491139D02*
X1662720Y488600D01*
X1667798D01*
X1670338Y491139D01*
Y501296D01*
X1667798Y503835D01*
X1662720D01*
X1660181Y501296D01*
Y498757D01*
X1662720Y496217D01*
X1670338D01*
X1675416Y501296D02*
X1677955Y503835D01*
X1683034D01*
X1685573Y501296D01*
Y491139D01*
X1683034Y488600D01*
X1677955D01*
X1675416Y491139D01*
Y501296D01*
X1690651D02*
X1693190Y503835D01*
X1698269D01*
X1700808Y501296D01*
Y491139D01*
X1698269Y488600D01*
X1693190D01*
X1690651Y491139D01*
Y501296D01*
X1705886Y488600D02*
Y498757D01*
X1708425D01*
X1710965Y496217D01*
Y488600D01*
Y496217D01*
X1713504Y498757D01*
X1716043Y496217D01*
Y488600D01*
X1721121D02*
Y498757D01*
X1723660D01*
X1726200Y496217D01*
Y488600D01*
Y496217D01*
X1728739Y498757D01*
X1731278Y496217D01*
Y488600D01*
X1756670D02*
X1751591Y493678D01*
Y498757D01*
X1756670Y503835D01*
X1764287Y501296D02*
X1766826Y503835D01*
X1771905D01*
X1774444Y501296D01*
Y498757D01*
X1771905Y496217D01*
X1769366D01*
X1771905D01*
X1774444Y493678D01*
Y491139D01*
X1771905Y488600D01*
X1766826D01*
X1764287Y491139D01*
X1789679Y503835D02*
X1779522D01*
Y496217D01*
X1784601Y498757D01*
X1787140D01*
X1789679Y496217D01*
Y491139D01*
X1787140Y488600D01*
X1782061D01*
X1779522Y491139D01*
X1794757Y488600D02*
Y491139D01*
X1797297D01*
Y488600D01*
X1794757D01*
X1815071D02*
Y503835D01*
X1807453Y496217D01*
X1817610D01*
X1822688Y501296D02*
X1825228Y503835D01*
X1830306D01*
X1832845Y501296D01*
Y498757D01*
X1830306Y496217D01*
X1827767D01*
X1830306D01*
X1832845Y493678D01*
Y491139D01*
X1830306Y488600D01*
X1825228D01*
X1822688Y491139D01*
X1837923Y488600D02*
Y498757D01*
X1840463D01*
X1843002Y496217D01*
Y488600D01*
Y496217D01*
X1845541Y498757D01*
X1848080Y496217D01*
Y488600D01*
X1853159D02*
X1858237D01*
X1855698D01*
Y498757D01*
X1853159D01*
X1865854Y488600D02*
X1870933D01*
X1868394D01*
Y503835D01*
X1865854D01*
X1878550Y488600D02*
X1883629Y493678D01*
Y498757D01*
X1878550Y503835D01*
X1642407Y450500D02*
X1632250D01*
X1642407Y460657D01*
Y463196D01*
X1639868Y465735D01*
X1634789D01*
X1632250Y463196D01*
X1647485Y450500D02*
Y453039D01*
X1650024D01*
Y450500D01*
X1647485D01*
X1670338Y465735D02*
X1660181D01*
Y458117D01*
X1665259Y460657D01*
X1667798D01*
X1670338Y458117D01*
Y453039D01*
X1667798Y450500D01*
X1662720D01*
X1660181Y453039D01*
X1675416D02*
X1677955Y450500D01*
X1683034D01*
X1685573Y453039D01*
Y463196D01*
X1683034Y465735D01*
X1677955D01*
X1675416Y463196D01*
Y460657D01*
X1677955Y458117D01*
X1685573D01*
X1690651Y450500D02*
X1695730D01*
X1693190D01*
Y465735D01*
X1690651Y463196D01*
X1703347Y450500D02*
Y460657D01*
X1705886D01*
X1708425Y458117D01*
Y450500D01*
Y458117D01*
X1710965Y460657D01*
X1713504Y458117D01*
Y450500D01*
X1718582D02*
Y460657D01*
X1721121D01*
X1723660Y458117D01*
Y450500D01*
Y458117D01*
X1726200Y460657D01*
X1728739Y458117D01*
Y450500D01*
X1754131D02*
X1749052Y455578D01*
Y460657D01*
X1754131Y465735D01*
X1761748Y450500D02*
X1766826D01*
X1764287D01*
Y465735D01*
X1761748Y463196D01*
X1774444D02*
X1776983Y465735D01*
X1782061D01*
X1784601Y463196D01*
Y453039D01*
X1782061Y450500D01*
X1776983D01*
X1774444Y453039D01*
Y463196D01*
X1799836Y450500D02*
X1789679D01*
X1799836Y460657D01*
Y463196D01*
X1797297Y465735D01*
X1792218D01*
X1789679Y463196D01*
X1804914Y450500D02*
Y453039D01*
X1807453D01*
Y450500D01*
X1804914D01*
X1817610Y463196D02*
X1820149Y465735D01*
X1825228D01*
X1827767Y463196D01*
Y453039D01*
X1825228Y450500D01*
X1820149D01*
X1817610Y453039D01*
Y463196D01*
X1832845D02*
X1835384Y465735D01*
X1840463D01*
X1843002Y463196D01*
Y453039D01*
X1840463Y450500D01*
X1835384D01*
X1832845Y453039D01*
Y463196D01*
X1848080Y450500D02*
Y460657D01*
X1850619D01*
X1853159Y458117D01*
Y450500D01*
Y458117D01*
X1855698Y460657D01*
X1858237Y458117D01*
Y450500D01*
X1863315D02*
X1868394D01*
X1865854D01*
Y460657D01*
X1863315D01*
X1876011Y450500D02*
X1881089D01*
X1878550D01*
Y465735D01*
X1876011D01*
X1888707Y450500D02*
X1893785Y455578D01*
Y460657D01*
X1888707Y465735D01*
X1632250Y425096D02*
X1634789Y427635D01*
X1639868D01*
X1642407Y425096D01*
Y422557D01*
X1639868Y420018D01*
X1637328D01*
X1639868D01*
X1642407Y417478D01*
Y414939D01*
X1639868Y412400D01*
X1634789D01*
X1632250Y414939D01*
X1647485Y412400D02*
Y414939D01*
X1650024D01*
Y412400D01*
X1647485D01*
X1667798D02*
Y427635D01*
X1660181Y420018D01*
X1670338D01*
X1675416Y425096D02*
X1677955Y427635D01*
X1683034D01*
X1685573Y425096D01*
Y414939D01*
X1683034Y412400D01*
X1677955D01*
X1675416Y414939D01*
Y425096D01*
X1690651D02*
X1693190Y427635D01*
X1698269D01*
X1700808Y425096D01*
Y414939D01*
X1698269Y412400D01*
X1693190D01*
X1690651Y414939D01*
Y425096D01*
X1705886Y412400D02*
Y422557D01*
X1708425D01*
X1710965Y420018D01*
Y412400D01*
Y420018D01*
X1713504Y422557D01*
X1716043Y420018D01*
Y412400D01*
X1721121D02*
Y422557D01*
X1723660D01*
X1726200Y420018D01*
Y412400D01*
Y420018D01*
X1728739Y422557D01*
X1731278Y420018D01*
Y412400D01*
X1756670D02*
X1751591Y417478D01*
Y422557D01*
X1756670Y427635D01*
X1764287Y412400D02*
X1769366D01*
X1766826D01*
Y427635D01*
X1764287Y425096D01*
X1776983D02*
X1779522Y427635D01*
X1784601D01*
X1787140Y425096D01*
Y422557D01*
X1784601Y420018D01*
X1782061D01*
X1784601D01*
X1787140Y417478D01*
Y414939D01*
X1784601Y412400D01*
X1779522D01*
X1776983Y414939D01*
X1792218Y425096D02*
X1794757Y427635D01*
X1799836D01*
X1802375Y425096D01*
Y422557D01*
X1799836Y420018D01*
X1797297D01*
X1799836D01*
X1802375Y417478D01*
Y414939D01*
X1799836Y412400D01*
X1794757D01*
X1792218Y414939D01*
X1807453Y412400D02*
Y414939D01*
X1809993D01*
Y412400D01*
X1807453D01*
X1820149Y425096D02*
X1822688Y427635D01*
X1827767D01*
X1830306Y425096D01*
Y422557D01*
X1827767Y420018D01*
X1830306Y417478D01*
Y414939D01*
X1827767Y412400D01*
X1822688D01*
X1820149Y414939D01*
Y417478D01*
X1822688Y420018D01*
X1820149Y422557D01*
Y425096D01*
X1822688Y420018D02*
X1827767D01*
X1845541Y427635D02*
X1840463Y425096D01*
X1835384Y420018D01*
Y414939D01*
X1837923Y412400D01*
X1843002D01*
X1845541Y414939D01*
Y417478D01*
X1843002Y420018D01*
X1835384D01*
X1850619Y412400D02*
Y422557D01*
X1853159D01*
X1855698Y420018D01*
Y412400D01*
Y420018D01*
X1858237Y422557D01*
X1860776Y420018D01*
Y412400D01*
X1865854D02*
X1870933D01*
X1868394D01*
Y422557D01*
X1865854D01*
X1878550Y412400D02*
X1883629D01*
X1881089D01*
Y427635D01*
X1878550D01*
X1891246Y412400D02*
X1896324Y417478D01*
Y422557D01*
X1891246Y427635D01*
X1632250Y386996D02*
X1634789Y389535D01*
X1639868D01*
X1642407Y386996D01*
Y376839D01*
X1639868Y374300D01*
X1634789D01*
X1632250Y376839D01*
Y386996D01*
X1647485Y374300D02*
Y376839D01*
X1650024D01*
Y374300D01*
X1647485D01*
X1660181Y376839D02*
X1662720Y374300D01*
X1667798D01*
X1670338Y376839D01*
Y386996D01*
X1667798Y389535D01*
X1662720D01*
X1660181Y386996D01*
Y384457D01*
X1662720Y381917D01*
X1670338D01*
X1675416Y376839D02*
X1677955Y374300D01*
X1683034D01*
X1685573Y376839D01*
Y386996D01*
X1683034Y389535D01*
X1677955D01*
X1675416Y386996D01*
Y384457D01*
X1677955Y381917D01*
X1685573D01*
X1690651Y374300D02*
X1695730D01*
X1693190D01*
Y389535D01*
X1690651Y386996D01*
X1703347Y374300D02*
Y384457D01*
X1705886D01*
X1708425Y381917D01*
Y374300D01*
Y381917D01*
X1710965Y384457D01*
X1713504Y381917D01*
Y374300D01*
X1718582D02*
Y384457D01*
X1721121D01*
X1723660Y381917D01*
Y374300D01*
Y381917D01*
X1726200Y384457D01*
X1728739Y381917D01*
Y374300D01*
X1754131D02*
X1749052Y379378D01*
Y384457D01*
X1754131Y389535D01*
X1761748Y386996D02*
X1764287Y389535D01*
X1769366D01*
X1771905Y386996D01*
Y384457D01*
X1769366Y381917D01*
X1766826D01*
X1769366D01*
X1771905Y379378D01*
Y376839D01*
X1769366Y374300D01*
X1764287D01*
X1761748Y376839D01*
X1776983D02*
X1779522Y374300D01*
X1784601D01*
X1787140Y376839D01*
Y386996D01*
X1784601Y389535D01*
X1779522D01*
X1776983Y386996D01*
Y384457D01*
X1779522Y381917D01*
X1787140D01*
X1792218Y374300D02*
Y376839D01*
X1794757D01*
Y374300D01*
X1792218D01*
X1804914Y386996D02*
X1807453Y389535D01*
X1812532D01*
X1815071Y386996D01*
Y376839D01*
X1812532Y374300D01*
X1807453D01*
X1804914Y376839D01*
Y386996D01*
X1820149D02*
X1822688Y389535D01*
X1827767D01*
X1830306Y386996D01*
Y376839D01*
X1827767Y374300D01*
X1822688D01*
X1820149Y376839D01*
Y386996D01*
X1835384Y374300D02*
Y384457D01*
X1837923D01*
X1840463Y381917D01*
Y374300D01*
Y381917D01*
X1843002Y384457D01*
X1845541Y381917D01*
Y374300D01*
X1850619D02*
X1855698D01*
X1853159D01*
Y384457D01*
X1850619D01*
X1863315Y374300D02*
X1868394D01*
X1865854D01*
Y389535D01*
X1863315D01*
X1876011Y374300D02*
X1881089Y379378D01*
Y384457D01*
X1876011Y389535D01*
X1639868Y336200D02*
Y351435D01*
X1632250Y343817D01*
X1642407D01*
X1647485Y336200D02*
Y338739D01*
X1650024D01*
Y336200D01*
X1647485D01*
X1660181Y348896D02*
X1662720Y351435D01*
X1667798D01*
X1670338Y348896D01*
Y338739D01*
X1667798Y336200D01*
X1662720D01*
X1660181Y338739D01*
Y348896D01*
X1675416D02*
X1677955Y351435D01*
X1683034D01*
X1685573Y348896D01*
Y346357D01*
X1683034Y343817D01*
X1685573Y341278D01*
Y338739D01*
X1683034Y336200D01*
X1677955D01*
X1675416Y338739D01*
Y341278D01*
X1677955Y343817D01*
X1675416Y346357D01*
Y348896D01*
X1677955Y343817D02*
X1683034D01*
X1690651Y338739D02*
X1693190Y336200D01*
X1698269D01*
X1700808Y338739D01*
Y348896D01*
X1698269Y351435D01*
X1693190D01*
X1690651Y348896D01*
Y346357D01*
X1693190Y343817D01*
X1700808D01*
X1705886Y336200D02*
Y346357D01*
X1708425D01*
X1710965Y343817D01*
Y336200D01*
Y343817D01*
X1713504Y346357D01*
X1716043Y343817D01*
Y336200D01*
X1721121D02*
Y346357D01*
X1723660D01*
X1726200Y343817D01*
Y336200D01*
Y343817D01*
X1728739Y346357D01*
X1731278Y343817D01*
Y336200D01*
X1756670D02*
X1751591Y341278D01*
Y346357D01*
X1756670Y351435D01*
X1764287Y336200D02*
X1769366D01*
X1766826D01*
Y351435D01*
X1764287Y348896D01*
X1787140Y351435D02*
X1782061Y348896D01*
X1776983Y343817D01*
Y338739D01*
X1779522Y336200D01*
X1784601D01*
X1787140Y338739D01*
Y341278D01*
X1784601Y343817D01*
X1776983D01*
X1792218Y336200D02*
X1797297D01*
X1794757D01*
Y351435D01*
X1792218Y348896D01*
X1804914Y336200D02*
Y338739D01*
X1807453D01*
Y336200D01*
X1804914D01*
X1817610Y348896D02*
X1820149Y351435D01*
X1825228D01*
X1827767Y348896D01*
Y338739D01*
X1825228Y336200D01*
X1820149D01*
X1817610Y338739D01*
Y348896D01*
X1832845D02*
X1835384Y351435D01*
X1840463D01*
X1843002Y348896D01*
Y338739D01*
X1840463Y336200D01*
X1835384D01*
X1832845Y338739D01*
Y348896D01*
X1848080Y336200D02*
Y346357D01*
X1850619D01*
X1853159Y343817D01*
Y336200D01*
Y343817D01*
X1855698Y346357D01*
X1858237Y343817D01*
Y336200D01*
X1863315D02*
X1868394D01*
X1865854D01*
Y346357D01*
X1863315D01*
X1876011Y336200D02*
X1881089D01*
X1878550D01*
Y351435D01*
X1876011D01*
X1888707Y336200D02*
X1893785Y341278D01*
Y346357D01*
X1888707Y351435D01*
X1632250Y310796D02*
X1634789Y313335D01*
X1639868D01*
X1642407Y310796D01*
Y308257D01*
X1639868Y305718D01*
X1637328D01*
X1639868D01*
X1642407Y303178D01*
Y300639D01*
X1639868Y298100D01*
X1634789D01*
X1632250Y300639D01*
X1647485Y298100D02*
Y300639D01*
X1650024D01*
Y298100D01*
X1647485D01*
X1660181Y310796D02*
X1662720Y313335D01*
X1667798D01*
X1670338Y310796D01*
Y300639D01*
X1667798Y298100D01*
X1662720D01*
X1660181Y300639D01*
Y310796D01*
X1675416D02*
X1677955Y313335D01*
X1683034D01*
X1685573Y310796D01*
Y300639D01*
X1683034Y298100D01*
X1677955D01*
X1675416Y300639D01*
Y310796D01*
X1690651D02*
X1693190Y313335D01*
X1698269D01*
X1700808Y310796D01*
Y300639D01*
X1698269Y298100D01*
X1693190D01*
X1690651Y300639D01*
Y310796D01*
X1705886Y298100D02*
Y308257D01*
X1708425D01*
X1710965Y305718D01*
Y298100D01*
Y305718D01*
X1713504Y308257D01*
X1716043Y305718D01*
Y298100D01*
X1721121D02*
Y308257D01*
X1723660D01*
X1726200Y305718D01*
Y298100D01*
Y305718D01*
X1728739Y308257D01*
X1731278Y305718D01*
Y298100D01*
X1756670D02*
X1751591Y303178D01*
Y308257D01*
X1756670Y313335D01*
X1764287Y298100D02*
X1769366D01*
X1766826D01*
Y313335D01*
X1764287Y310796D01*
X1776983Y298100D02*
X1782061D01*
X1779522D01*
Y313335D01*
X1776983Y310796D01*
X1789679D02*
X1792218Y313335D01*
X1797297D01*
X1799836Y310796D01*
Y308257D01*
X1797297Y305718D01*
X1799836Y303178D01*
Y300639D01*
X1797297Y298100D01*
X1792218D01*
X1789679Y300639D01*
Y303178D01*
X1792218Y305718D01*
X1789679Y308257D01*
Y310796D01*
X1792218Y305718D02*
X1797297D01*
X1804914Y298100D02*
Y300639D01*
X1807453D01*
Y298100D01*
X1804914D01*
X1817610D02*
X1822688D01*
X1820149D01*
Y313335D01*
X1817610Y310796D01*
X1830306Y298100D02*
X1835384D01*
X1832845D01*
Y313335D01*
X1830306Y310796D01*
X1843002Y298100D02*
Y308257D01*
X1845541D01*
X1848080Y305718D01*
Y298100D01*
Y305718D01*
X1850619Y308257D01*
X1853159Y305718D01*
Y298100D01*
X1858237D02*
X1863315D01*
X1860776D01*
Y308257D01*
X1858237D01*
X1870933Y298100D02*
X1876011D01*
X1873472D01*
Y313335D01*
X1870933D01*
X1883629Y298100D02*
X1888707Y303178D01*
Y308257D01*
X1883629Y313335D01*
X1632250Y260000D02*
X1637328D01*
X1634789D01*
Y275235D01*
X1632250Y272696D01*
X1644946Y260000D02*
Y262539D01*
X1647485D01*
Y260000D01*
X1644946D01*
X1667798D02*
X1657642D01*
X1667798Y270157D01*
Y272696D01*
X1665259Y275235D01*
X1660181D01*
X1657642Y272696D01*
X1672877D02*
X1675416Y275235D01*
X1680494D01*
X1683034Y272696D01*
Y262539D01*
X1680494Y260000D01*
X1675416D01*
X1672877Y262539D01*
Y272696D01*
X1688112D02*
X1690651Y275235D01*
X1695730D01*
X1698269Y272696D01*
Y262539D01*
X1695730Y260000D01*
X1690651D01*
X1688112Y262539D01*
Y272696D01*
X1703347Y260000D02*
Y270157D01*
X1705886D01*
X1708425Y267617D01*
Y260000D01*
Y267617D01*
X1710965Y270157D01*
X1713504Y267617D01*
Y260000D01*
X1718582D02*
Y270157D01*
X1721121D01*
X1723660Y267617D01*
Y260000D01*
Y267617D01*
X1726200Y270157D01*
X1728739Y267617D01*
Y260000D01*
X1754131D02*
X1749052Y265078D01*
Y270157D01*
X1754131Y275235D01*
X1769366Y260000D02*
Y275235D01*
X1761748Y267617D01*
X1771905D01*
X1776983Y275235D02*
X1787140D01*
Y272696D01*
X1776983Y262539D01*
Y260000D01*
X1792218D02*
Y262539D01*
X1794757D01*
Y260000D01*
X1792218D01*
X1815071D02*
X1804914D01*
X1815071Y270157D01*
Y272696D01*
X1812532Y275235D01*
X1807453D01*
X1804914Y272696D01*
X1827767Y260000D02*
Y275235D01*
X1820149Y267617D01*
X1830306D01*
X1835384Y260000D02*
Y270157D01*
X1837923D01*
X1840463Y267617D01*
Y260000D01*
Y267617D01*
X1843002Y270157D01*
X1845541Y267617D01*
Y260000D01*
X1850619D02*
X1855698D01*
X1853159D01*
Y270157D01*
X1850619D01*
X1863315Y260000D02*
X1868394D01*
X1865854D01*
Y275235D01*
X1863315D01*
X1876011Y260000D02*
X1881089Y265078D01*
Y270157D01*
X1876011Y275235D01*
X1632250Y234596D02*
X1634789Y237135D01*
X1639868D01*
X1642407Y234596D01*
Y224439D01*
X1639868Y221900D01*
X1634789D01*
X1632250Y224439D01*
Y234596D01*
X1647485Y221900D02*
Y224439D01*
X1650024D01*
Y221900D01*
X1647485D01*
X1660181Y234596D02*
X1662720Y237135D01*
X1667798D01*
X1670338Y234596D01*
Y232057D01*
X1667798Y229517D01*
X1665259D01*
X1667798D01*
X1670338Y226978D01*
Y224439D01*
X1667798Y221900D01*
X1662720D01*
X1660181Y224439D01*
X1675416Y234596D02*
X1677955Y237135D01*
X1683034D01*
X1685573Y234596D01*
Y224439D01*
X1683034Y221900D01*
X1677955D01*
X1675416Y224439D01*
Y234596D01*
X1690651D02*
X1693190Y237135D01*
X1698269D01*
X1700808Y234596D01*
Y224439D01*
X1698269Y221900D01*
X1693190D01*
X1690651Y224439D01*
Y234596D01*
X1705886Y221900D02*
Y232057D01*
X1708425D01*
X1710965Y229517D01*
Y221900D01*
Y229517D01*
X1713504Y232057D01*
X1716043Y229517D01*
Y221900D01*
X1721121D02*
Y232057D01*
X1723660D01*
X1726200Y229517D01*
Y221900D01*
Y229517D01*
X1728739Y232057D01*
X1731278Y229517D01*
Y221900D01*
X1756670D02*
X1751591Y226978D01*
Y232057D01*
X1756670Y237135D01*
X1764287Y221900D02*
X1769366D01*
X1766826D01*
Y237135D01*
X1764287Y234596D01*
X1776983Y221900D02*
X1782061D01*
X1779522D01*
Y237135D01*
X1776983Y234596D01*
X1789679Y221900D02*
Y224439D01*
X1792218D01*
Y221900D01*
X1789679D01*
X1802375Y234596D02*
X1804914Y237135D01*
X1809993D01*
X1812532Y234596D01*
Y232057D01*
X1809993Y229517D01*
X1812532Y226978D01*
Y224439D01*
X1809993Y221900D01*
X1804914D01*
X1802375Y224439D01*
Y226978D01*
X1804914Y229517D01*
X1802375Y232057D01*
Y234596D01*
X1804914Y229517D02*
X1809993D01*
X1817610Y221900D02*
X1822688D01*
X1820149D01*
Y237135D01*
X1817610Y234596D01*
X1830306Y221900D02*
Y232057D01*
X1832845D01*
X1835384Y229517D01*
Y221900D01*
Y229517D01*
X1837923Y232057D01*
X1840463Y229517D01*
Y221900D01*
X1845541D02*
X1850619D01*
X1848080D01*
Y232057D01*
X1845541D01*
X1858237Y221900D02*
X1863315D01*
X1860776D01*
Y237135D01*
X1858237D01*
X1870933Y221900D02*
X1876011Y226978D01*
Y232057D01*
X1870933Y237135D01*
X1490047Y183800D02*
X1479890D01*
X1490047Y193957D01*
Y196496D01*
X1487508Y199035D01*
X1482429D01*
X1479890Y196496D01*
X1505282Y183800D02*
X1495125D01*
X1505282Y193957D01*
Y196496D01*
X1502743Y199035D01*
X1497664D01*
X1495125Y196496D01*
X1510360D02*
X1512900Y199035D01*
X1517978D01*
X1520517Y196496D01*
Y193957D01*
X1517978Y191418D01*
X1515439D01*
X1517978D01*
X1520517Y188878D01*
Y186339D01*
X1517978Y183800D01*
X1512900D01*
X1510360Y186339D01*
X1540831Y199035D02*
X1550987D01*
X1545909D01*
Y183800D01*
X1558605D02*
X1563683D01*
X1566222Y186339D01*
Y191418D01*
X1563683Y193957D01*
X1558605D01*
X1556066Y191418D01*
Y186339D01*
X1558605Y183800D01*
X1573840Y196496D02*
Y193957D01*
X1571301D01*
X1576379D01*
X1573840D01*
Y186339D01*
X1576379Y183800D01*
X1586536Y193957D02*
X1591614D01*
X1594153Y191418D01*
Y183800D01*
X1586536D01*
X1583997Y186339D01*
X1586536Y188878D01*
X1594153D01*
X1599232Y183800D02*
X1604310D01*
X1601771D01*
Y199035D01*
X1599232D01*
X1490047Y488600D02*
X1479890D01*
X1490047Y498757D01*
Y501296D01*
X1487508Y503835D01*
X1482429D01*
X1479890Y501296D01*
X1490047Y450500D02*
X1479890D01*
X1490047Y460657D01*
Y463196D01*
X1487508Y465735D01*
X1482429D01*
X1479890Y463196D01*
X1487508Y412400D02*
Y427635D01*
X1479890Y420018D01*
X1490047D01*
Y389535D02*
X1479890D01*
Y381917D01*
X1484969Y384457D01*
X1487508D01*
X1490047Y381917D01*
Y376839D01*
X1487508Y374300D01*
X1482429D01*
X1479890Y376839D01*
Y336200D02*
X1484969D01*
X1482429D01*
Y351435D01*
X1479890Y348896D01*
X1502743Y336200D02*
X1492586D01*
X1502743Y346357D01*
Y348896D01*
X1500204Y351435D01*
X1495125D01*
X1492586Y348896D01*
X1490047Y298100D02*
X1479890D01*
X1490047Y308257D01*
Y310796D01*
X1487508Y313335D01*
X1482429D01*
X1479890Y310796D01*
X1502743Y298100D02*
Y313335D01*
X1495125Y305718D01*
X1505282D01*
X1490047Y275235D02*
X1479890D01*
Y267617D01*
X1484969Y270157D01*
X1487508D01*
X1490047Y267617D01*
Y262539D01*
X1487508Y260000D01*
X1482429D01*
X1479890Y262539D01*
X1495125Y272696D02*
X1497664Y275235D01*
X1502743D01*
X1505282Y272696D01*
Y270157D01*
X1502743Y267617D01*
X1500204D01*
X1502743D01*
X1505282Y265078D01*
Y262539D01*
X1502743Y260000D01*
X1497664D01*
X1495125Y262539D01*
X1479890Y221900D02*
X1484969D01*
X1482429D01*
Y237135D01*
X1479890Y234596D01*
X1502743Y221900D02*
X1492586D01*
X1502743Y232057D01*
Y234596D01*
X1500204Y237135D01*
X1495125D01*
X1492586Y234596D01*
X1507821Y221900D02*
X1512900D01*
X1510360D01*
Y237135D01*
X1507821Y234596D01*
D54*
X1328538Y515270D02*
X3175122D01*
X1328538Y210470D02*
X3175122D01*
X1328538Y172370D02*
X3175122D01*
Y553370D01*
X1328538D02*
X3175122D01*
X1328538Y172370D02*
Y553370D01*
X2947853Y172370D02*
Y553370D01*
X2758420Y172370D02*
Y553370D01*
X2608599Y172370D02*
Y553370D01*
X2227713Y172370D02*
Y553370D01*
X2041327Y172370D02*
Y553370D01*
X1912834Y172370D02*
Y553370D01*
X1620820Y172370D02*
Y553370D01*
X1468460Y172370D02*
Y553370D01*
D55*
X2959283Y544982D02*
X2971471D01*
X2965377D01*
Y526700D01*
X2986706D02*
X2980612D01*
X2977565Y529747D01*
Y535841D01*
X2980612Y538888D01*
X2986706D01*
X2989753Y535841D01*
Y532794D01*
X2977565D01*
X2995847Y526700D02*
Y538888D01*
X2998894D01*
X3001941Y535841D01*
Y526700D01*
Y535841D01*
X3004988Y538888D01*
X3008035Y535841D01*
Y526700D01*
X3014129Y520606D02*
Y538888D01*
X3023270D01*
X3026317Y535841D01*
Y529747D01*
X3023270Y526700D01*
X3014129D01*
X3032411D02*
X3038505D01*
X3035458D01*
Y544982D01*
X3032411D01*
X3050693Y538888D02*
X3056787D01*
X3059834Y535841D01*
Y526700D01*
X3050693D01*
X3047646Y529747D01*
X3050693Y532794D01*
X3059834D01*
X3068975Y541935D02*
Y538888D01*
X3065928D01*
X3072022D01*
X3068975D01*
Y529747D01*
X3072022Y526700D01*
X3090304D02*
X3084210D01*
X3081163Y529747D01*
Y535841D01*
X3084210Y538888D01*
X3090304D01*
X3093351Y535841D01*
Y532794D01*
X3081163D01*
X2769850Y526700D02*
Y544982D01*
X2778991D01*
X2782038Y541935D01*
Y535841D01*
X2778991Y532794D01*
X2769850D01*
X2791179Y538888D02*
X2797273D01*
X2800320Y535841D01*
Y526700D01*
X2791179D01*
X2788132Y529747D01*
X2791179Y532794D01*
X2800320D01*
X2818602Y544982D02*
Y526700D01*
X2809461D01*
X2806414Y529747D01*
Y535841D01*
X2809461Y538888D01*
X2818602D01*
X2855167Y541935D02*
X2852119Y544982D01*
X2846025D01*
X2842979Y541935D01*
Y538888D01*
X2846025Y535841D01*
X2852119D01*
X2855167Y532794D01*
Y529747D01*
X2852119Y526700D01*
X2846025D01*
X2842979Y529747D01*
X2861260Y544982D02*
Y526700D01*
Y535841D01*
X2864308Y538888D01*
X2870402D01*
X2873448Y535841D01*
Y526700D01*
X2882590Y538888D02*
X2888683D01*
X2891731Y535841D01*
Y526700D01*
X2882590D01*
X2879543Y529747D01*
X2882590Y532794D01*
X2891731D01*
X2897825Y520606D02*
Y538888D01*
X2906966D01*
X2910013Y535841D01*
Y529747D01*
X2906966Y526700D01*
X2897825D01*
X2925248D02*
X2919154D01*
X2916107Y529747D01*
Y535841D01*
X2919154Y538888D01*
X2925248D01*
X2928295Y535841D01*
Y532794D01*
X2916107D01*
X2620028Y544982D02*
Y532794D01*
X2626122Y526700D01*
X2632216Y532794D01*
Y544982D01*
X2638311Y526700D02*
X2644405D01*
X2641358D01*
Y538888D01*
X2638311D01*
X2656593D02*
X2662687D01*
X2665734Y535841D01*
Y526700D01*
X2656593D01*
X2653546Y529747D01*
X2656593Y532794D01*
X2665734D01*
X2671828Y526700D02*
X2684016Y538888D01*
X2690110Y526700D02*
Y544982D01*
X2699251D01*
X2702298Y541935D01*
Y535841D01*
X2699251Y532794D01*
X2690110D01*
X2711439Y538888D02*
X2717533D01*
X2720580Y535841D01*
Y526700D01*
X2711439D01*
X2708392Y529747D01*
X2711439Y532794D01*
X2720580D01*
X2738862Y544982D02*
Y526700D01*
X2729721D01*
X2726674Y529747D01*
Y535841D01*
X2729721Y538888D01*
X2738862D01*
X2239143Y544982D02*
Y526700D01*
X2248284D01*
X2251331Y529747D01*
Y541935D01*
X2248284Y544982D01*
X2239143D01*
X2257425Y538888D02*
Y526700D01*
Y532794D01*
X2260472Y535841D01*
X2263519Y538888D01*
X2266566D01*
X2275707Y526700D02*
X2281801D01*
X2278754D01*
Y538888D01*
X2275707D01*
X2290942Y526700D02*
X2297036D01*
X2293989D01*
Y544982D01*
X2290942D01*
X2306177Y526700D02*
X2312271D01*
X2309224D01*
Y544982D01*
X2306177D01*
X2339694D02*
Y526700D01*
X2351882D01*
X2361023Y538888D02*
X2367117D01*
X2370164Y535841D01*
Y526700D01*
X2361023D01*
X2357976Y529747D01*
X2361023Y532794D01*
X2370164D01*
X2376258Y538888D02*
Y529747D01*
X2379305Y526700D01*
X2388446D01*
Y523653D01*
X2385399Y520606D01*
X2382352D01*
X2388446Y526700D02*
Y538888D01*
X2403681Y526700D02*
X2397587D01*
X2394540Y529747D01*
Y535841D01*
X2397587Y538888D01*
X2403681D01*
X2406729Y535841D01*
Y532794D01*
X2394540D01*
X2412823Y538888D02*
Y526700D01*
Y532794D01*
X2415869Y535841D01*
X2418916Y538888D01*
X2421964D01*
X2449387Y526700D02*
Y544982D01*
X2458528D01*
X2461575Y541935D01*
Y535841D01*
X2458528Y532794D01*
X2449387D01*
X2470716Y538888D02*
X2476810D01*
X2479857Y535841D01*
Y526700D01*
X2470716D01*
X2467669Y529747D01*
X2470716Y532794D01*
X2479857D01*
X2485951Y526700D02*
X2492045D01*
X2488998D01*
Y538888D01*
X2485951D01*
X2501186D02*
Y526700D01*
Y532794D01*
X2504233Y535841D01*
X2507280Y538888D01*
X2510327D01*
X2052757Y544982D02*
Y526700D01*
Y535841D01*
X2064945D01*
Y544982D01*
Y526700D01*
X2074086D02*
X2080180D01*
X2083227Y529747D01*
Y535841D01*
X2080180Y538888D01*
X2074086D01*
X2071039Y535841D01*
Y529747D01*
X2074086Y526700D01*
X2089321D02*
X2095415D01*
X2092368D01*
Y544982D01*
X2089321D01*
X2113697Y526700D02*
X2107603D01*
X2104556Y529747D01*
Y535841D01*
X2107603Y538888D01*
X2113697D01*
X2116744Y535841D01*
Y532794D01*
X2104556D01*
X2141120Y544982D02*
X2153308D01*
X2147214D01*
Y526700D01*
X2159402Y538888D02*
Y529747D01*
X2162449Y526700D01*
X2171591D01*
Y523653D01*
X2168544Y520606D01*
X2165497D01*
X2171591Y526700D02*
Y538888D01*
X2177684Y520606D02*
Y538888D01*
X2186826D01*
X2189873Y535841D01*
Y529747D01*
X2186826Y526700D01*
X2177684D01*
X2205108D02*
X2199014D01*
X2195967Y529747D01*
Y535841D01*
X2199014Y538888D01*
X2205108D01*
X2208155Y535841D01*
Y532794D01*
X2195967D01*
X1924265Y526700D02*
Y544982D01*
X1933406D01*
X1936453Y541935D01*
Y535841D01*
X1933406Y532794D01*
X1924265D01*
X1942547Y526700D02*
X1948641D01*
X1945594D01*
Y544982D01*
X1942547D01*
X1960829Y538888D02*
X1966923D01*
X1969970Y535841D01*
Y526700D01*
X1960829D01*
X1957782Y529747D01*
X1960829Y532794D01*
X1969970D01*
X1979111Y541935D02*
Y538888D01*
X1976064D01*
X1982158D01*
X1979111D01*
Y529747D01*
X1982158Y526700D01*
X2000440D02*
X1994346D01*
X1991299Y529747D01*
Y535841D01*
X1994346Y538888D01*
X2000440D01*
X2003487Y535841D01*
Y532794D01*
X1991299D01*
X2021769Y544982D02*
Y526700D01*
X2012628D01*
X2009581Y529747D01*
Y535841D01*
X2012628Y538888D01*
X2021769D01*
X1632250Y544982D02*
Y526700D01*
Y535841D01*
X1644438D01*
Y544982D01*
Y526700D01*
X1653579D02*
X1659673D01*
X1662720Y529747D01*
Y535841D01*
X1659673Y538888D01*
X1653579D01*
X1650532Y535841D01*
Y529747D01*
X1653579Y526700D01*
X1668814D02*
X1674908D01*
X1671861D01*
Y544982D01*
X1668814D01*
X1693190Y526700D02*
X1687096D01*
X1684049Y529747D01*
Y535841D01*
X1687096Y538888D01*
X1693190D01*
X1696237Y535841D01*
Y532794D01*
X1684049D01*
X1732802Y541935D02*
X1729754Y544982D01*
X1723660D01*
X1720613Y541935D01*
Y538888D01*
X1723660Y535841D01*
X1729754D01*
X1732802Y532794D01*
Y529747D01*
X1729754Y526700D01*
X1723660D01*
X1720613Y529747D01*
X1738896Y526700D02*
X1744989D01*
X1741942D01*
Y538888D01*
X1738896D01*
X1754131D02*
X1766319D01*
X1754131Y526700D01*
X1766319D01*
X1781554D02*
X1775460D01*
X1772413Y529747D01*
Y535841D01*
X1775460Y538888D01*
X1781554D01*
X1784601Y535841D01*
Y532794D01*
X1772413D01*
X1492078Y541935D02*
X1489031Y544982D01*
X1482937D01*
X1479890Y541935D01*
Y529747D01*
X1482937Y526700D01*
X1489031D01*
X1492078Y529747D01*
X1501219Y526700D02*
X1507313D01*
X1510360Y529747D01*
Y535841D01*
X1507313Y538888D01*
X1501219D01*
X1498172Y535841D01*
Y529747D01*
X1501219Y526700D01*
X1516454Y538888D02*
Y529747D01*
X1519501Y526700D01*
X1528642D01*
Y538888D01*
X1534736Y526700D02*
Y538888D01*
X1543878D01*
X1546925Y535841D01*
Y526700D01*
X1556066Y541935D02*
Y538888D01*
X1553019D01*
X1559113D01*
X1556066D01*
Y529747D01*
X1559113Y526700D01*
X1363586Y541935D02*
X1360539Y544982D01*
X1354445D01*
X1351398Y541935D01*
Y538888D01*
X1354445Y535841D01*
X1360539D01*
X1363586Y532794D01*
Y529747D01*
X1360539Y526700D01*
X1354445D01*
X1351398Y529747D01*
X1369680Y538888D02*
Y529747D01*
X1372727Y526700D01*
X1381868D01*
Y523653D01*
X1378821Y520606D01*
X1375774D01*
X1381868Y526700D02*
Y538888D01*
X1387962Y526700D02*
Y538888D01*
X1391009D01*
X1394056Y535841D01*
Y526700D01*
Y535841D01*
X1397103Y538888D01*
X1400150Y535841D01*
Y526700D01*
X1406244Y544982D02*
Y526700D01*
X1415385D01*
X1418432Y529747D01*
Y532794D01*
Y535841D01*
X1415385Y538888D01*
X1406244D01*
X1427573Y526700D02*
X1433667D01*
X1436714Y529747D01*
Y535841D01*
X1433667Y538888D01*
X1427573D01*
X1424526Y535841D01*
Y529747D01*
X1427573Y526700D01*
X1442808D02*
X1448902D01*
X1445855D01*
Y544982D01*
X1442808D01*
M02*
