G04*
G04 #@! TF.GenerationSoftware,Altium Limited,Altium Designer,26.5.0 (11)*
G04*
G04 Layer_Physical_Order=2*
G04 Layer_Color=16711680*
G04 Board_Origin=73230399|66045281*
%FSLAX44Y44*%
%MOMM*%
G71*
G04*
G04 #@! TF.SameCoordinates,D8E93972-0857-4CFD-BA1B-23267FE283D4*
G04*
G04*
G04 #@! TF.FilePolarity,Positive*
G04*
G01*
G75*
%ADD32C,1.4986*%
%ADD34C,0.2540*%
%ADD35C,4.0894*%
%ADD36C,3.0000*%
%ADD38C,3.0988*%
%ADD39C,1.4080*%
%ADD40C,0.6000*%
%ADD41R,0.8200X1.8000*%
%ADD42R,2.5000X2.5500*%
%ADD43C,0.1800*%
%ADD44R,1.5080X1.5080*%
G36*
X959568Y842686D02*
X962108Y842686D01*
X962108Y842686D01*
X962108Y842686D01*
X964612Y842599D01*
X964749Y842593D01*
X967370Y842248D01*
X969950Y841676D01*
X972471Y840881D01*
X974913Y839870D01*
X977258Y838649D01*
X979487Y837229D01*
X981584Y835620D01*
X983532Y833835D01*
X985318Y831886D01*
X986927Y829789D01*
X988347Y827560D01*
X989568Y825215D01*
X990579Y822773D01*
X991374Y820252D01*
X991946Y817672D01*
X992291Y815051D01*
X992297Y814914D01*
X992384Y812410D01*
X992384Y812410D01*
X992384Y812408D01*
Y38010D01*
X992399Y37828D01*
X992291Y35360D01*
X991945Y32731D01*
X991371Y30142D01*
X990573Y27612D01*
X989558Y25162D01*
X988334Y22810D01*
X986909Y20573D01*
X985294Y18469D01*
X983503Y16514D01*
X981547Y14722D01*
X979444Y13108D01*
X977207Y11683D01*
X974854Y10458D01*
X972404Y9443D01*
X969875Y8646D01*
X967286Y8072D01*
X964656Y7726D01*
X962189Y7618D01*
X962007Y7632D01*
X299688D01*
X297578Y8670D01*
X297578Y10172D01*
Y28830D01*
X277418D01*
Y10172D01*
X277418Y8670D01*
X275308Y7632D01*
X121888D01*
X119778Y8670D01*
X119778Y10172D01*
Y28830D01*
X99618D01*
Y10172D01*
X99618Y8670D01*
X97508Y7632D01*
X32329D01*
X32147Y7618D01*
X29894Y7729D01*
X27483Y8086D01*
X25118Y8679D01*
X22823Y9500D01*
X20619Y10542D01*
X18528Y11795D01*
X16570Y13248D01*
X14764Y14885D01*
X13127Y16691D01*
X11674Y18649D01*
X10421Y20740D01*
X9379Y22944D01*
X8558Y25239D01*
X7965Y27603D01*
X7617Y29954D01*
X7511Y32450D01*
X7511Y34989D01*
X7511Y812450D01*
X7497Y812630D01*
X7604Y815087D01*
X7948Y817704D01*
X8520Y820281D01*
X9314Y822799D01*
X10324Y825238D01*
X11543Y827579D01*
X12961Y829806D01*
X14568Y831900D01*
X16351Y833846D01*
X18298Y835629D01*
X20392Y837236D01*
X22618Y838655D01*
X24960Y839874D01*
X27399Y840884D01*
X29916Y841678D01*
X32493Y842249D01*
X35111Y842594D01*
X35244Y842599D01*
X37748Y842686D01*
Y842686D01*
X37749Y842687D01*
X959568Y842686D01*
D02*
G37*
%LPC*%
G36*
X960788Y834489D02*
X958451Y834374D01*
X956137Y834031D01*
X953868Y833462D01*
X951665Y832674D01*
X949550Y831674D01*
X947544Y830471D01*
X945665Y829078D01*
X943931Y827506D01*
X942360Y825773D01*
X940967Y823894D01*
X939764Y821887D01*
X938764Y819773D01*
X937976Y817570D01*
X937407Y815301D01*
X937064Y812987D01*
X936949Y810650D01*
X937064Y808313D01*
X937407Y805999D01*
X937976Y803730D01*
X938764Y801527D01*
X939764Y799412D01*
X940967Y797406D01*
X942360Y795527D01*
X943931Y793793D01*
X945665Y792222D01*
X947544Y790829D01*
X949550Y789626D01*
X951665Y788626D01*
X953868Y787838D01*
X956137Y787269D01*
X958451Y786926D01*
X960788Y786811D01*
X963124Y786926D01*
X965439Y787269D01*
X967708Y787838D01*
X969911Y788626D01*
X972025Y789626D01*
X974032Y790829D01*
X975911Y792222D01*
X977644Y793793D01*
X979215Y795527D01*
X980609Y797406D01*
X981812Y799412D01*
X982812Y801527D01*
X983600Y803730D01*
X984168Y805999D01*
X984512Y808313D01*
X984627Y810650D01*
X984512Y812987D01*
X984168Y815301D01*
X983600Y817570D01*
X982812Y819773D01*
X981812Y821887D01*
X980609Y823894D01*
X979215Y825773D01*
X977644Y827506D01*
X975911Y829078D01*
X974032Y830471D01*
X972025Y831674D01*
X969911Y832674D01*
X967708Y833462D01*
X965439Y834031D01*
X963124Y834374D01*
X960788Y834489D01*
D02*
G37*
G36*
X39388D02*
X37051Y834374D01*
X34737Y834031D01*
X32468Y833462D01*
X30265Y832674D01*
X28150Y831674D01*
X26144Y830471D01*
X24265Y829078D01*
X22531Y827506D01*
X20960Y825773D01*
X19567Y823894D01*
X18364Y821887D01*
X17364Y819773D01*
X16576Y817570D01*
X16007Y815301D01*
X15664Y812987D01*
X15549Y810650D01*
X15664Y808313D01*
X16007Y805999D01*
X16576Y803730D01*
X17364Y801527D01*
X18364Y799412D01*
X19567Y797406D01*
X20960Y795527D01*
X22531Y793793D01*
X24265Y792222D01*
X26144Y790829D01*
X28150Y789626D01*
X30265Y788626D01*
X32468Y787838D01*
X34737Y787269D01*
X37051Y786926D01*
X39388Y786811D01*
X41725Y786926D01*
X44039Y787269D01*
X46308Y787838D01*
X48510Y788626D01*
X50625Y789626D01*
X52632Y790829D01*
X54511Y792222D01*
X56244Y793793D01*
X57815Y795527D01*
X59209Y797406D01*
X60412Y799412D01*
X61412Y801527D01*
X62200Y803730D01*
X62769Y805999D01*
X63112Y808313D01*
X63227Y810650D01*
X63112Y812987D01*
X62769Y815301D01*
X62200Y817570D01*
X61412Y819773D01*
X60412Y821887D01*
X59209Y823894D01*
X57815Y825773D01*
X56244Y827506D01*
X54511Y829078D01*
X52632Y830471D01*
X50625Y831674D01*
X48510Y832674D01*
X46308Y833462D01*
X44039Y834031D01*
X41725Y834374D01*
X39388Y834489D01*
D02*
G37*
G36*
X259855Y770408D02*
X258540D01*
X257236Y770236D01*
X255966Y769896D01*
X254751Y769393D01*
X253612Y768735D01*
X252568Y767934D01*
X251638Y767004D01*
X250837Y765961D01*
X250180Y764822D01*
X249677Y763607D01*
X249336Y762337D01*
X249165Y761033D01*
Y759717D01*
X249336Y758413D01*
X249677Y757143D01*
X250180Y755928D01*
X250837Y754789D01*
X251638Y753746D01*
X252568Y752816D01*
X253612Y752015D01*
X254751Y751357D01*
X255966Y750854D01*
X257236Y750514D01*
X258540Y750342D01*
X259855D01*
X261159Y750514D01*
X262430Y750854D01*
X263645Y751357D01*
X264784Y752015D01*
X265827Y752816D01*
X266757Y753746D01*
X267558Y754789D01*
X268215Y755928D01*
X268718Y757143D01*
X269059Y758413D01*
X269231Y759717D01*
Y761033D01*
X269059Y762337D01*
X268718Y763607D01*
X268215Y764822D01*
X267558Y765961D01*
X266757Y767004D01*
X265827Y767934D01*
X264784Y768735D01*
X263645Y769393D01*
X262430Y769896D01*
X261159Y770236D01*
X259855Y770408D01*
D02*
G37*
G36*
X886727Y808056D02*
X856647D01*
Y777476D01*
X858130D01*
X858969Y774936D01*
X858427Y774534D01*
X856849Y773104D01*
X855420Y771527D01*
X854152Y769817D01*
X853057Y767991D01*
X852147Y766067D01*
X851430Y764063D01*
X850913Y761998D01*
X850600Y759892D01*
X850496Y757766D01*
X850600Y755640D01*
X850913Y753534D01*
X851430Y751469D01*
X852063Y749699D01*
X851464Y748503D01*
X850290Y747451D01*
X848221Y747723D01*
X845687Y747834D01*
X843154Y747723D01*
X840640Y747392D01*
X838164Y746843D01*
X835746Y746081D01*
X833403Y745110D01*
X831154Y743939D01*
X829015Y742577D01*
X827003Y741033D01*
X825134Y739320D01*
X823420Y737450D01*
X821877Y735439D01*
X820514Y733300D01*
X819343Y731051D01*
X818373Y728708D01*
X817610Y726289D01*
X817061Y723814D01*
X816730Y721299D01*
X816620Y718766D01*
X816730Y716233D01*
X817061Y713718D01*
X817610Y711243D01*
X818373Y708824D01*
X819343Y706481D01*
X820514Y704232D01*
X821877Y702094D01*
X823420Y700082D01*
X825134Y698212D01*
X827003Y696499D01*
X829015Y694955D01*
X831154Y693593D01*
X833403Y692422D01*
X835746Y691451D01*
X838164Y690689D01*
X840640Y690140D01*
X843154Y689809D01*
X845687Y689698D01*
X848221Y689809D01*
X850735Y690140D01*
X853211Y690689D01*
X855629Y691451D01*
X857972Y692422D01*
X860221Y693593D01*
X862360Y694955D01*
X864372Y696499D01*
X866241Y698212D01*
X867955Y700082D01*
X869498Y702094D01*
X870861Y704232D01*
X872032Y706481D01*
X873002Y708824D01*
X873765Y711243D01*
X874314Y713718D01*
X874644Y716233D01*
X874755Y718766D01*
X874644Y721299D01*
X874314Y723814D01*
X873765Y726289D01*
X873002Y728708D01*
X872032Y731051D01*
X870861Y733300D01*
X870666Y733606D01*
X872102Y736079D01*
X872187Y736075D01*
X874314Y736179D01*
X876419Y736491D01*
X878484Y737009D01*
X880488Y737726D01*
X882413Y738636D01*
X884239Y739730D01*
X885948Y740998D01*
X887526Y742428D01*
X888955Y744005D01*
X890223Y745715D01*
X891318Y747541D01*
X892228Y749465D01*
X892945Y751469D01*
X893462Y753534D01*
X893774Y755640D01*
X893879Y757766D01*
X893774Y759892D01*
X893462Y761998D01*
X892945Y764063D01*
X892228Y766067D01*
X891318Y767991D01*
X890223Y769817D01*
X888955Y771527D01*
X887526Y773104D01*
X885948Y774534D01*
X885406Y774936D01*
X886245Y777476D01*
X886727D01*
Y808056D01*
D02*
G37*
G36*
X692030Y808204D02*
X661950D01*
Y777624D01*
X663433D01*
X664272Y775084D01*
X663729Y774682D01*
X662152Y773252D01*
X660723Y771675D01*
X659455Y769965D01*
X658360Y768139D01*
X657450Y766215D01*
X656733Y764211D01*
X656216Y762146D01*
X655903Y760040D01*
X655799Y757914D01*
X655903Y755788D01*
X656216Y753682D01*
X656733Y751617D01*
X657450Y749613D01*
X657877Y748710D01*
X656232Y746524D01*
X656166Y746488D01*
X655864Y746554D01*
X653437Y746874D01*
X650990Y746981D01*
X648544Y746874D01*
X646117Y746554D01*
X643726Y746024D01*
X641391Y745288D01*
X639129Y744351D01*
X636957Y743221D01*
X634892Y741905D01*
X632949Y740414D01*
X631144Y738760D01*
X629490Y736955D01*
X627999Y735013D01*
X627060Y733538D01*
X624537Y734185D01*
X624520Y734195D01*
Y738450D01*
X624402Y739348D01*
X624055Y740184D01*
X623504Y740903D01*
X618453Y745953D01*
X617735Y746505D01*
X616898Y746852D01*
X616000Y746970D01*
X615475D01*
Y755040D01*
X602195D01*
Y755040D01*
X600475D01*
X599852Y757580D01*
X599898Y757808D01*
Y758899D01*
X599685Y759970D01*
X599267Y760978D01*
X598661Y761885D01*
X597889Y762657D01*
X596982Y763263D01*
X595974Y763681D01*
X594903Y763894D01*
X593812D01*
X592742Y763681D01*
X591733Y763263D01*
X590826Y762657D01*
X590054Y761885D01*
X589448Y760978D01*
X589030Y759970D01*
X588818Y758899D01*
Y757808D01*
X588863Y757580D01*
X588532Y757026D01*
X587195Y755040D01*
X587195Y755040D01*
X587195Y755040D01*
Y736562D01*
X586085D01*
X585422Y736475D01*
X584804Y736219D01*
X584273Y735811D01*
X583866Y735281D01*
X583610Y734663D01*
X583523Y734000D01*
Y699500D01*
X583610Y698837D01*
X583866Y698219D01*
X584273Y697688D01*
X584804Y697281D01*
X585422Y697025D01*
X586085Y696938D01*
X587195D01*
Y678460D01*
X590006D01*
Y643665D01*
X590080Y642918D01*
X590298Y642200D01*
X590652Y641538D01*
X591128Y640958D01*
X604256Y627829D01*
Y558040D01*
X601445D01*
Y558040D01*
X599725D01*
X598842Y560525D01*
Y561617D01*
X598629Y562687D01*
X598211Y563695D01*
X597605Y564603D01*
X596833Y565374D01*
X595926Y565980D01*
X594918Y566398D01*
X593847Y566611D01*
X592756D01*
X591686Y566398D01*
X590678Y565980D01*
X589770Y565374D01*
X588999Y564603D01*
X588392Y563695D01*
X587975Y562687D01*
X587762Y561617D01*
Y560525D01*
X586445Y558040D01*
X586445D01*
Y539562D01*
X585335D01*
X584672Y539475D01*
X584054Y539219D01*
X583523Y538811D01*
X583116Y538281D01*
X582860Y537663D01*
X582773Y537000D01*
Y502500D01*
X582860Y501837D01*
X583116Y501219D01*
X583523Y500688D01*
X584054Y500281D01*
X584672Y500025D01*
X585335Y499938D01*
X586445D01*
Y481460D01*
X589256D01*
Y462915D01*
X589330Y462168D01*
X589548Y461450D01*
X589902Y460788D01*
X590378Y460208D01*
X605369Y445216D01*
Y360740D01*
X602558D01*
Y360740D01*
X600838D01*
X599776Y363103D01*
Y364194D01*
X599563Y365265D01*
X599146Y366273D01*
X598539Y367180D01*
X597768Y367952D01*
X596860Y368558D01*
X595852Y368976D01*
X594782Y369189D01*
X593690D01*
X592620Y368976D01*
X591612Y368558D01*
X590704Y367952D01*
X589933Y367180D01*
X589327Y366273D01*
X588909Y365265D01*
X588696Y364194D01*
Y363103D01*
X587558Y360740D01*
X587558D01*
Y342262D01*
X586448D01*
X585785Y342174D01*
X585167Y341918D01*
X584636Y341511D01*
X584229Y340981D01*
X583973Y340363D01*
X583886Y339700D01*
Y305200D01*
X583973Y304537D01*
X584229Y303919D01*
X584636Y303388D01*
X585167Y302981D01*
X585785Y302725D01*
X586448Y302638D01*
X587558D01*
Y284160D01*
X590172D01*
Y251750D01*
X590245Y251003D01*
X590463Y250285D01*
X590817Y249623D01*
X591293Y249043D01*
X605196Y235139D01*
Y165540D01*
X601945D01*
Y165540D01*
X600225D01*
X599203Y167910D01*
Y169001D01*
X598990Y170071D01*
X598573Y171079D01*
X597966Y171987D01*
X597195Y172758D01*
X596287Y173365D01*
X595279Y173782D01*
X594209Y173995D01*
X593118D01*
X592047Y173782D01*
X591039Y173365D01*
X590132Y172758D01*
X589360Y171987D01*
X588754Y171079D01*
X588336Y170071D01*
X588123Y169001D01*
Y167910D01*
X586945Y165540D01*
X586945D01*
Y147062D01*
X585835D01*
X585172Y146975D01*
X584554Y146719D01*
X584023Y146312D01*
X583616Y145781D01*
X583360Y145163D01*
X583273Y144500D01*
Y110000D01*
X583360Y109337D01*
X583616Y108719D01*
X584023Y108188D01*
X584554Y107781D01*
X585172Y107525D01*
X585835Y107438D01*
X586945D01*
Y88960D01*
X586945D01*
X587756Y86420D01*
X583914Y82578D01*
X561086D01*
X542328Y101336D01*
Y179287D01*
X542255Y180034D01*
X542037Y180752D01*
X541683Y181414D01*
X541207Y181994D01*
X490611Y232591D01*
Y283785D01*
X492345Y284608D01*
X493151Y284674D01*
X494379Y283318D01*
X495956Y281888D01*
X497510Y280736D01*
X497532Y280420D01*
X496384Y278196D01*
X495427D01*
Y247616D01*
X525507D01*
Y278196D01*
X523051D01*
X521903Y280420D01*
X521925Y280736D01*
X523478Y281888D01*
X525056Y283318D01*
X526485Y284895D01*
X527753Y286605D01*
X528848Y288431D01*
X529758Y290355D01*
X530475Y292359D01*
X530992Y294424D01*
X531305Y296530D01*
X531409Y298656D01*
X531305Y300782D01*
X530992Y302888D01*
X530475Y304953D01*
X529758Y306957D01*
X528848Y308881D01*
X527753Y310707D01*
X526485Y312417D01*
X525056Y313994D01*
X523478Y315424D01*
X521769Y316692D01*
X519943Y317786D01*
X518018Y318696D01*
X516014Y319414D01*
X513949Y319931D01*
X511844Y320243D01*
X509717Y320348D01*
X507591Y320243D01*
X506223Y320040D01*
X505020Y322141D01*
X504970Y322379D01*
X515207Y332617D01*
X515683Y333197D01*
X516037Y333859D01*
X516255Y334577D01*
X516328Y335324D01*
Y427985D01*
X516255Y428732D01*
X516037Y429450D01*
X515683Y430112D01*
X515207Y430692D01*
X502880Y443019D01*
X503852Y445366D01*
X525507D01*
Y475946D01*
X523051D01*
X521903Y478170D01*
X521925Y478486D01*
X523478Y479638D01*
X525056Y481068D01*
X526485Y482645D01*
X527753Y484355D01*
X528848Y486181D01*
X529758Y488105D01*
X530475Y490109D01*
X530992Y492174D01*
X531304Y494280D01*
X531409Y496406D01*
X531304Y498532D01*
X530992Y500638D01*
X530475Y502703D01*
X529758Y504707D01*
X528848Y506631D01*
X527753Y508457D01*
X526485Y510167D01*
X525056Y511744D01*
X523478Y513174D01*
X521769Y514442D01*
X519943Y515536D01*
X518018Y516446D01*
X516014Y517164D01*
X513949Y517681D01*
X511844Y517993D01*
X509717Y518097D01*
X507591Y517993D01*
X506223Y517790D01*
X505020Y519891D01*
X504970Y520130D01*
X509860Y525019D01*
X510336Y525600D01*
X510690Y526261D01*
X510908Y526980D01*
X510981Y527727D01*
Y625356D01*
X510908Y626103D01*
X510690Y626821D01*
X510336Y627483D01*
X509860Y628063D01*
X497574Y640349D01*
X498545Y642696D01*
X524677D01*
Y673276D01*
X522221D01*
X521073Y675500D01*
X521095Y675816D01*
X522648Y676968D01*
X524226Y678398D01*
X525655Y679975D01*
X526923Y681685D01*
X528018Y683511D01*
X528928Y685435D01*
X529645Y687439D01*
X530162Y689504D01*
X530475Y691610D01*
X530579Y693736D01*
X530475Y695862D01*
X530162Y697968D01*
X529645Y700033D01*
X528928Y702037D01*
X528018Y703961D01*
X526923Y705787D01*
X525655Y707497D01*
X524226Y709074D01*
X522648Y710504D01*
X520939Y711772D01*
X519113Y712866D01*
X517188Y713776D01*
X515184Y714493D01*
X513119Y715011D01*
X511014Y715323D01*
X508887Y715427D01*
X506761Y715323D01*
X504656Y715011D01*
X502591Y714493D01*
X500587Y713776D01*
X498662Y712866D01*
X496836Y711772D01*
X495126Y710504D01*
X493549Y709074D01*
X492120Y707497D01*
X490852Y705787D01*
X489757Y703961D01*
X488847Y702037D01*
X488130Y700033D01*
X487613Y697968D01*
X487300Y695862D01*
X487196Y693736D01*
X487300Y691610D01*
X487613Y689504D01*
X488130Y687439D01*
X488847Y685435D01*
X489757Y683511D01*
X490852Y681685D01*
X492120Y679975D01*
X493549Y678398D01*
X495126Y676968D01*
X496680Y675816D01*
X496702Y675500D01*
X495554Y673276D01*
X494597D01*
Y646644D01*
X492251Y645672D01*
X450330Y687593D01*
X451602Y689913D01*
X451840Y689860D01*
X454354Y689529D01*
X456887Y689418D01*
X459421Y689529D01*
X461935Y689860D01*
X464411Y690409D01*
X466829Y691171D01*
X469172Y692142D01*
X471421Y693313D01*
X473560Y694675D01*
X475572Y696219D01*
X477441Y697932D01*
X479155Y699802D01*
X480698Y701814D01*
X482061Y703952D01*
X483232Y706201D01*
X484202Y708544D01*
X484965Y710963D01*
X485513Y713438D01*
X485844Y715953D01*
X485955Y718486D01*
X485844Y721020D01*
X485513Y723534D01*
X484965Y726009D01*
X484202Y728428D01*
X483232Y730771D01*
X482061Y733020D01*
X481866Y733326D01*
X483302Y735799D01*
X483387Y735795D01*
X485514Y735899D01*
X487619Y736211D01*
X489684Y736729D01*
X491688Y737446D01*
X493613Y738356D01*
X495439Y739450D01*
X497148Y740718D01*
X498726Y742148D01*
X500155Y743725D01*
X501423Y745435D01*
X502518Y747261D01*
X503428Y749185D01*
X504145Y751189D01*
X504662Y753254D01*
X504975Y755360D01*
X505079Y757486D01*
X504975Y759612D01*
X504662Y761718D01*
X504145Y763783D01*
X503428Y765787D01*
X502518Y767711D01*
X501423Y769537D01*
X500155Y771247D01*
X498726Y772824D01*
X497148Y774254D01*
X496606Y774656D01*
X497445Y777196D01*
X497927D01*
Y807776D01*
X467847D01*
Y777196D01*
X469330D01*
X470169Y774656D01*
X469627Y774254D01*
X468049Y772824D01*
X466620Y771247D01*
X465352Y769537D01*
X464257Y767711D01*
X463347Y765787D01*
X462630Y763783D01*
X462113Y761718D01*
X461800Y759612D01*
X461696Y757486D01*
X461800Y755360D01*
X462113Y753254D01*
X462630Y751189D01*
X463263Y749419D01*
X462664Y748223D01*
X461490Y747171D01*
X459421Y747443D01*
X456887Y747554D01*
X454354Y747443D01*
X451840Y747112D01*
X449364Y746563D01*
X446946Y745801D01*
X444603Y744830D01*
X442354Y743659D01*
X440215Y742297D01*
X438203Y740753D01*
X436334Y739040D01*
X434620Y737170D01*
X433077Y735159D01*
X432946Y734953D01*
X430406Y735694D01*
Y738673D01*
X430332Y739419D01*
X430115Y740138D01*
X429761Y740800D01*
X429285Y741380D01*
X424457Y746207D01*
X423877Y746683D01*
X423215Y747037D01*
X422497Y747255D01*
X421750Y747328D01*
X421475D01*
Y755040D01*
X408195D01*
Y755040D01*
X406475D01*
X405764Y756716D01*
X405568Y757580D01*
X405726Y758377D01*
Y759469D01*
X405513Y760539D01*
X405096Y761547D01*
X404489Y762455D01*
X403718Y763226D01*
X402810Y763832D01*
X401802Y764250D01*
X400732Y764463D01*
X399641D01*
X398570Y764250D01*
X397562Y763832D01*
X396655Y763226D01*
X395883Y762455D01*
X395277Y761547D01*
X394859Y760539D01*
X394646Y759469D01*
Y758377D01*
X394805Y757580D01*
X394689Y757073D01*
X393234Y755064D01*
X393195Y755040D01*
Y736562D01*
X392085D01*
X391422Y736475D01*
X390804Y736219D01*
X390273Y735811D01*
X389866Y735281D01*
X389610Y734663D01*
X389523Y734000D01*
Y699500D01*
X389610Y698837D01*
X389866Y698219D01*
X390273Y697688D01*
X390804Y697281D01*
X391422Y697025D01*
X392085Y696938D01*
X393195D01*
Y678460D01*
X396006D01*
Y672250D01*
X396080Y671503D01*
X396298Y670785D01*
X396652Y670123D01*
X397128Y669543D01*
X411619Y655051D01*
Y557990D01*
X408808D01*
Y557990D01*
X407088D01*
X406300Y560530D01*
X406404Y561052D01*
Y562143D01*
X406191Y563213D01*
X405773Y564221D01*
X405167Y565129D01*
X404395Y565900D01*
X403488Y566507D01*
X402480Y566924D01*
X401409Y567137D01*
X400318D01*
X399248Y566924D01*
X398240Y566507D01*
X397332Y565900D01*
X396561Y565129D01*
X395954Y564221D01*
X395537Y563213D01*
X395324Y562143D01*
Y561052D01*
X395428Y560530D01*
X395130Y559982D01*
X393808Y557990D01*
X393808Y557990D01*
X393808Y557990D01*
Y539512D01*
X392698D01*
X392035Y539425D01*
X391417Y539169D01*
X390886Y538761D01*
X390479Y538231D01*
X390223Y537613D01*
X390136Y536950D01*
Y502450D01*
X390223Y501787D01*
X390479Y501169D01*
X390886Y500638D01*
X391417Y500231D01*
X392035Y499975D01*
X392698Y499888D01*
X393808D01*
Y481410D01*
X396530D01*
Y477750D01*
X396648Y476852D01*
X396995Y476015D01*
X397547Y475297D01*
X412115Y460728D01*
Y360790D01*
X408945D01*
Y360790D01*
X407225D01*
X405785Y362733D01*
X405498Y363330D01*
X405601Y363580D01*
X405814Y364651D01*
Y365742D01*
X405601Y366812D01*
X405184Y367821D01*
X404577Y368728D01*
X403806Y369500D01*
X402898Y370106D01*
X401890Y370523D01*
X400820Y370736D01*
X399729D01*
X398658Y370523D01*
X397650Y370106D01*
X396743Y369500D01*
X395971Y368728D01*
X395365Y367821D01*
X394947Y366812D01*
X394734Y365742D01*
Y364651D01*
X394947Y363580D01*
X395051Y363330D01*
X393945Y360790D01*
X393945D01*
Y342312D01*
X392835D01*
X392172Y342225D01*
X391554Y341969D01*
X391023Y341562D01*
X390616Y341031D01*
X390360Y340413D01*
X390273Y339750D01*
Y305250D01*
X390360Y304587D01*
X390616Y303969D01*
X391023Y303438D01*
X391554Y303031D01*
X392172Y302775D01*
X392835Y302688D01*
X393945D01*
Y284210D01*
X396671D01*
Y279500D01*
X396745Y278753D01*
X396963Y278035D01*
X397317Y277373D01*
X397793Y276793D01*
X412119Y262466D01*
Y165490D01*
X409308D01*
Y165490D01*
X407588D01*
X405785Y167269D01*
X405673Y167605D01*
X405594Y168030D01*
X406160Y168876D01*
X406577Y169884D01*
X406790Y170954D01*
Y172046D01*
X406577Y173116D01*
X406160Y174124D01*
X405553Y175032D01*
X404781Y175803D01*
X403874Y176409D01*
X402866Y176827D01*
X401796Y177040D01*
X400704D01*
X399634Y176827D01*
X398626Y176409D01*
X397719Y175803D01*
X396947Y175032D01*
X396340Y174124D01*
X395923Y173116D01*
X395710Y172046D01*
Y170954D01*
X395923Y169884D01*
X396340Y168876D01*
X396906Y168030D01*
X396827Y167605D01*
X396127Y165490D01*
X394308D01*
Y147012D01*
X393198D01*
X392535Y146924D01*
X391917Y146669D01*
X391386Y146261D01*
X390979Y145731D01*
X390723Y145113D01*
X390636Y144450D01*
Y109950D01*
X390723Y109287D01*
X390979Y108669D01*
X391386Y108138D01*
X391917Y107731D01*
X392535Y107475D01*
X393198Y107388D01*
X394308D01*
Y88910D01*
X394308D01*
X394875Y87540D01*
X382664Y75328D01*
X374756D01*
X374282Y75803D01*
X373374Y76410D01*
X372366Y76827D01*
X371296Y77040D01*
X370204D01*
X369134Y76827D01*
X368126Y76410D01*
X367219Y75803D01*
X366447Y75031D01*
X365840Y74124D01*
X365423Y73116D01*
X365210Y72046D01*
Y70954D01*
X365423Y69884D01*
X365840Y68876D01*
X366447Y67969D01*
X367219Y67197D01*
X368126Y66590D01*
X369134Y66173D01*
X370204Y65960D01*
X371296D01*
X372366Y66173D01*
X373374Y66590D01*
X374282Y67197D01*
X374756Y67672D01*
X384250D01*
X384997Y67745D01*
X385715Y67963D01*
X386377Y68317D01*
X386957Y68793D01*
X403655Y85491D01*
X404131Y86071D01*
X404485Y86733D01*
X404703Y87451D01*
X404776Y88198D01*
Y88910D01*
X407588D01*
Y88910D01*
X409308D01*
Y88910D01*
X414678D01*
Y100450D01*
X415948D01*
Y101720D01*
X422588D01*
Y107388D01*
X423698D01*
X424361Y107475D01*
X424979Y107731D01*
X425509Y108138D01*
X425917Y108669D01*
X426172Y109287D01*
X426260Y109950D01*
Y144450D01*
X426172Y145113D01*
X425917Y145731D01*
X425509Y146261D01*
X424979Y146669D01*
X424361Y146924D01*
X423698Y147012D01*
X422588D01*
Y165490D01*
X419776D01*
Y264052D01*
X419703Y264799D01*
X419485Y265517D01*
X419131Y266179D01*
X418655Y266759D01*
X404328Y281086D01*
Y284210D01*
X407225D01*
Y284210D01*
X408945D01*
Y284210D01*
X414315D01*
Y295750D01*
X415585D01*
Y297020D01*
X422225D01*
Y302688D01*
X423335D01*
X423998Y302775D01*
X424616Y303031D01*
X425146Y303438D01*
X425554Y303969D01*
X425810Y304587D01*
X425897Y305250D01*
Y339750D01*
X425810Y340413D01*
X425554Y341031D01*
X425146Y341562D01*
X424616Y341969D01*
X423998Y342225D01*
X423335Y342312D01*
X422225D01*
Y360790D01*
X419055D01*
Y462165D01*
X418936Y463063D01*
X418590Y463900D01*
X418038Y464618D01*
X403787Y478870D01*
X404236Y481410D01*
X407088D01*
Y481410D01*
X408808D01*
Y481410D01*
X414178D01*
Y492950D01*
X415448D01*
Y494220D01*
X422088D01*
Y499888D01*
X423198D01*
X423861Y499975D01*
X424479Y500231D01*
X425009Y500638D01*
X425417Y501169D01*
X425672Y501787D01*
X425760Y502450D01*
Y536950D01*
X425672Y537613D01*
X425417Y538231D01*
X425009Y538761D01*
X424479Y539169D01*
X423861Y539425D01*
X423198Y539512D01*
X422088D01*
Y557990D01*
X419276D01*
Y656637D01*
X419203Y657384D01*
X418985Y658102D01*
X418631Y658764D01*
X418155Y659344D01*
X403663Y673836D01*
Y678460D01*
X406475D01*
Y678460D01*
X408195D01*
Y678460D01*
X413565D01*
Y690000D01*
X414835D01*
Y691270D01*
X421475D01*
Y696938D01*
X422585D01*
X423248Y697025D01*
X423866Y697281D01*
X424396Y697688D01*
X424804Y698219D01*
X424944Y698558D01*
X426280Y699171D01*
X427570Y699525D01*
X503324Y623770D01*
Y575027D01*
X501590Y574204D01*
X500784Y574139D01*
X499556Y575494D01*
X497978Y576924D01*
X497436Y577326D01*
X498275Y579866D01*
X498757D01*
Y610446D01*
X468677D01*
Y579866D01*
X470160D01*
X470999Y577326D01*
X470457Y576924D01*
X468879Y575494D01*
X467450Y573917D01*
X466182Y572207D01*
X465087Y570381D01*
X464177Y568457D01*
X463460Y566453D01*
X462943Y564388D01*
X462630Y562282D01*
X462526Y560156D01*
X462630Y558030D01*
X462943Y555924D01*
X463460Y553859D01*
X464093Y552089D01*
X463494Y550893D01*
X462320Y549841D01*
X460251Y550113D01*
X457717Y550224D01*
X455184Y550113D01*
X452670Y549782D01*
X450194Y549233D01*
X447776Y548471D01*
X445433Y547500D01*
X443184Y546329D01*
X441045Y544967D01*
X439033Y543423D01*
X437164Y541710D01*
X435450Y539840D01*
X433907Y537828D01*
X432544Y535690D01*
X431373Y533441D01*
X430403Y531098D01*
X429640Y528679D01*
X429091Y526203D01*
X428760Y523689D01*
X428650Y521156D01*
X428760Y518623D01*
X429091Y516109D01*
X429640Y513633D01*
X430403Y511214D01*
X431373Y508871D01*
X432544Y506622D01*
X433907Y504483D01*
X435450Y502472D01*
X437164Y500602D01*
X439033Y498889D01*
X441045Y497345D01*
X443184Y495983D01*
X445433Y494812D01*
X447776Y493841D01*
X450194Y493079D01*
X452670Y492530D01*
X455184Y492199D01*
X457717Y492088D01*
X460251Y492199D01*
X462765Y492530D01*
X465241Y493079D01*
X467659Y493841D01*
X470002Y494812D01*
X472251Y495983D01*
X474390Y497345D01*
X476402Y498889D01*
X478271Y500602D01*
X479985Y502472D01*
X480414Y503031D01*
X482954Y502169D01*
Y453703D01*
X483027Y452956D01*
X483245Y452238D01*
X483599Y451576D01*
X484075Y450996D01*
X508672Y426399D01*
Y336909D01*
X488610Y316848D01*
X486291Y318121D01*
X486343Y318358D01*
X486674Y320873D01*
X486785Y323406D01*
X486674Y325939D01*
X486343Y328453D01*
X485795Y330929D01*
X485032Y333348D01*
X484062Y335690D01*
X482891Y337940D01*
X482696Y338246D01*
X484132Y340719D01*
X484217Y340714D01*
X486344Y340819D01*
X488449Y341131D01*
X490514Y341649D01*
X492518Y342366D01*
X494443Y343276D01*
X496269Y344370D01*
X497978Y345638D01*
X499556Y347068D01*
X500985Y348645D01*
X502253Y350355D01*
X503348Y352181D01*
X504258Y354105D01*
X504975Y356109D01*
X505492Y358174D01*
X505804Y360280D01*
X505909Y362406D01*
X505804Y364532D01*
X505492Y366638D01*
X504975Y368703D01*
X504258Y370707D01*
X503348Y372631D01*
X502253Y374457D01*
X500985Y376167D01*
X499556Y377744D01*
X497978Y379174D01*
X497436Y379576D01*
X498275Y382116D01*
X498757D01*
Y412696D01*
X468677D01*
Y382116D01*
X470160D01*
X470999Y379576D01*
X470457Y379174D01*
X468879Y377744D01*
X467450Y376167D01*
X466182Y374457D01*
X465087Y372631D01*
X464177Y370707D01*
X463460Y368703D01*
X462943Y366638D01*
X462630Y364532D01*
X462526Y362406D01*
X462630Y360280D01*
X462943Y358174D01*
X463460Y356109D01*
X464093Y354339D01*
X463494Y353143D01*
X462320Y352091D01*
X460251Y352363D01*
X457717Y352474D01*
X455184Y352363D01*
X452670Y352032D01*
X450194Y351483D01*
X447776Y350721D01*
X445433Y349750D01*
X443184Y348579D01*
X441045Y347217D01*
X439033Y345673D01*
X437164Y343960D01*
X435450Y342090D01*
X433907Y340079D01*
X432544Y337940D01*
X431373Y335690D01*
X430403Y333348D01*
X429640Y330929D01*
X429091Y328453D01*
X428760Y325939D01*
X428650Y323406D01*
X428760Y320873D01*
X429091Y318358D01*
X429640Y315883D01*
X430403Y313464D01*
X431373Y311122D01*
X432544Y308872D01*
X433907Y306733D01*
X435450Y304722D01*
X437164Y302852D01*
X439033Y301139D01*
X441045Y299595D01*
X443184Y298233D01*
X445433Y297062D01*
X447776Y296091D01*
X450194Y295329D01*
X452670Y294780D01*
X455184Y294449D01*
X457717Y294338D01*
X460251Y294449D01*
X462765Y294780D01*
X465241Y295329D01*
X467659Y296091D01*
X470002Y297062D01*
X472251Y298233D01*
X474390Y299595D01*
X476402Y301139D01*
X478271Y302852D01*
X479985Y304722D01*
X480414Y305281D01*
X482954Y304419D01*
Y231005D01*
X483027Y230258D01*
X483245Y229540D01*
X483599Y228878D01*
X484075Y228298D01*
X492580Y219793D01*
X491608Y217446D01*
X468677D01*
Y186866D01*
X470160D01*
X470999Y184326D01*
X470457Y183924D01*
X468879Y182494D01*
X467450Y180917D01*
X466182Y179207D01*
X465087Y177381D01*
X464177Y175457D01*
X463460Y173453D01*
X462943Y171388D01*
X462630Y169282D01*
X462526Y167156D01*
X462630Y165030D01*
X462943Y162924D01*
X463460Y160859D01*
X464072Y159149D01*
X463685Y158284D01*
X462303Y156876D01*
X460501Y157113D01*
X457967Y157224D01*
X455434Y157113D01*
X452920Y156782D01*
X450444Y156233D01*
X448026Y155471D01*
X445683Y154500D01*
X443434Y153329D01*
X441295Y151967D01*
X439283Y150423D01*
X437413Y148710D01*
X435700Y146840D01*
X434157Y144829D01*
X432794Y142690D01*
X431623Y140441D01*
X430653Y138098D01*
X429890Y135679D01*
X429341Y133203D01*
X429010Y130689D01*
X428900Y128156D01*
X429010Y125623D01*
X429341Y123108D01*
X429890Y120633D01*
X430653Y118214D01*
X431623Y115871D01*
X432794Y113622D01*
X434157Y111483D01*
X435700Y109472D01*
X437413Y107602D01*
X439283Y105889D01*
X441295Y104345D01*
X443434Y102983D01*
X445683Y101812D01*
X448026Y100841D01*
X450444Y100079D01*
X452920Y99530D01*
X455434Y99199D01*
X457967Y99088D01*
X460501Y99199D01*
X463015Y99530D01*
X465491Y100079D01*
X467909Y100841D01*
X470252Y101812D01*
X472501Y102983D01*
X474640Y104345D01*
X476652Y105889D01*
X478521Y107602D01*
X480234Y109472D01*
X481778Y111483D01*
X483141Y113622D01*
X484312Y115871D01*
X485282Y118214D01*
X486045Y120633D01*
X486594Y123108D01*
X486925Y125623D01*
X487035Y128156D01*
X486925Y130689D01*
X486594Y133203D01*
X486045Y135679D01*
X485282Y138098D01*
X484312Y140441D01*
X483141Y142690D01*
X482954Y142984D01*
X484031Y145099D01*
X484380Y145472D01*
X486343Y145569D01*
X488449Y145881D01*
X490514Y146398D01*
X492518Y147116D01*
X494443Y148026D01*
X496269Y149120D01*
X497978Y150388D01*
X499556Y151818D01*
X500985Y153395D01*
X502253Y155105D01*
X503348Y156931D01*
X504258Y158855D01*
X504975Y160859D01*
X505492Y162924D01*
X505804Y165030D01*
X505909Y167156D01*
X505804Y169282D01*
X505492Y171388D01*
X504975Y173453D01*
X504258Y175457D01*
X503348Y177381D01*
X502253Y179207D01*
X500985Y180917D01*
X499556Y182494D01*
X497978Y183924D01*
X497436Y184326D01*
X498275Y186866D01*
X498757D01*
Y210297D01*
X501104Y211269D01*
X534672Y177701D01*
Y99750D01*
X534745Y99003D01*
X534963Y98285D01*
X535317Y97623D01*
X535793Y97043D01*
X556793Y76043D01*
X557373Y75567D01*
X558035Y75213D01*
X558753Y74995D01*
X559500Y74922D01*
X585500D01*
X586247Y74995D01*
X586965Y75213D01*
X587627Y75567D01*
X588207Y76043D01*
X596292Y84128D01*
X596768Y84708D01*
X597122Y85370D01*
X597340Y86088D01*
X597413Y86835D01*
Y88960D01*
X600225D01*
Y88960D01*
X601945D01*
Y88960D01*
X607315D01*
Y100500D01*
X608585D01*
Y101770D01*
X615225D01*
Y107438D01*
X616335D01*
X616998Y107525D01*
X617616Y107781D01*
X618146Y108188D01*
X618554Y108719D01*
X618810Y109337D01*
X618897Y110000D01*
Y144500D01*
X618810Y145163D01*
X618554Y145781D01*
X618146Y146312D01*
X617616Y146719D01*
X616998Y146975D01*
X616335Y147062D01*
X615225D01*
Y165540D01*
X612853D01*
Y236725D01*
X612780Y237472D01*
X612562Y238190D01*
X612208Y238852D01*
X611732Y239432D01*
X597828Y253336D01*
Y284160D01*
X600838D01*
Y284160D01*
X602558D01*
Y284160D01*
X607928D01*
Y295700D01*
X609198D01*
Y296970D01*
X615838D01*
Y302638D01*
X616948D01*
X617611Y302725D01*
X618229Y302981D01*
X618759Y303388D01*
X619167Y303919D01*
X619422Y304537D01*
X619510Y305200D01*
Y339700D01*
X619422Y340363D01*
X619167Y340981D01*
X618759Y341511D01*
X618229Y341918D01*
X617611Y342174D01*
X616948Y342262D01*
X615838D01*
Y360740D01*
X613026D01*
Y446802D01*
X612953Y447549D01*
X612735Y448267D01*
X612381Y448929D01*
X611905Y449509D01*
X596913Y464501D01*
Y481460D01*
X599725D01*
Y481460D01*
X601445D01*
Y481460D01*
X606815D01*
Y493000D01*
X608085D01*
Y494270D01*
X614725D01*
Y499938D01*
X615835D01*
X616498Y500025D01*
X617116Y500281D01*
X617646Y500688D01*
X618054Y501219D01*
X618310Y501837D01*
X618397Y502500D01*
Y537000D01*
X618310Y537663D01*
X618054Y538281D01*
X617646Y538811D01*
X617116Y539219D01*
X616498Y539475D01*
X615835Y539562D01*
X614725D01*
Y558040D01*
X611913D01*
Y629415D01*
X611840Y630162D01*
X611622Y630880D01*
X611268Y631542D01*
X610792Y632122D01*
X597663Y645251D01*
Y678460D01*
X600475D01*
Y678460D01*
X602195D01*
Y678460D01*
X607565D01*
Y690000D01*
X608835D01*
Y691270D01*
X615475D01*
Y694783D01*
X617872Y695633D01*
X618046Y695215D01*
X618597Y694496D01*
X695852Y617242D01*
Y575549D01*
X694165Y574734D01*
X693312Y574658D01*
X692094Y576001D01*
X690517Y577431D01*
X689975Y577833D01*
X690814Y580373D01*
X691296D01*
Y610953D01*
X661216D01*
Y580373D01*
X662698D01*
X663538Y577833D01*
X662995Y577431D01*
X661418Y576001D01*
X659988Y574424D01*
X658720Y572714D01*
X657626Y570888D01*
X656716Y568964D01*
X655999Y566960D01*
X655481Y564895D01*
X655169Y562789D01*
X655065Y560663D01*
X655169Y558537D01*
X655481Y556431D01*
X655999Y554366D01*
X656632Y552596D01*
X656032Y551400D01*
X654859Y550348D01*
X652789Y550620D01*
X650256Y550731D01*
X647723Y550620D01*
X645209Y550289D01*
X642733Y549740D01*
X640314Y548978D01*
X637971Y548007D01*
X635722Y546836D01*
X633583Y545474D01*
X631572Y543930D01*
X629702Y542217D01*
X627989Y540347D01*
X626445Y538335D01*
X625083Y536197D01*
X623912Y533947D01*
X622941Y531605D01*
X622179Y529186D01*
X621630Y526711D01*
X621299Y524196D01*
X621188Y521663D01*
X621299Y519129D01*
X621630Y516615D01*
X622179Y514140D01*
X622941Y511721D01*
X623912Y509378D01*
X625083Y507129D01*
X626445Y504990D01*
X627989Y502979D01*
X629702Y501109D01*
X631572Y499396D01*
X633583Y497852D01*
X635722Y496490D01*
X637971Y495319D01*
X640314Y494348D01*
X642733Y493586D01*
X645209Y493037D01*
X647723Y492706D01*
X650256Y492595D01*
X652789Y492706D01*
X655304Y493037D01*
X657779Y493586D01*
X660198Y494348D01*
X661490Y494884D01*
X664030Y493490D01*
Y457500D01*
X664148Y456602D01*
X664495Y455765D01*
X665046Y455047D01*
X705780Y414313D01*
Y341034D01*
X682115Y317369D01*
X679795Y318641D01*
X679844Y318858D01*
X680174Y321372D01*
X680285Y323906D01*
X680174Y326439D01*
X679844Y328954D01*
X679295Y331429D01*
X678532Y333848D01*
X677562Y336190D01*
X676391Y338440D01*
X676196Y338746D01*
X677632Y341219D01*
X677717Y341214D01*
X679844Y341319D01*
X681949Y341631D01*
X684014Y342149D01*
X686018Y342866D01*
X687943Y343776D01*
X689769Y344870D01*
X691478Y346138D01*
X693056Y347568D01*
X694485Y349145D01*
X695753Y350855D01*
X696848Y352681D01*
X697758Y354605D01*
X698475Y356609D01*
X698992Y358674D01*
X699304Y360780D01*
X699409Y362906D01*
X699304Y365032D01*
X698992Y367138D01*
X698475Y369203D01*
X697758Y371207D01*
X696848Y373131D01*
X695753Y374957D01*
X694485Y376667D01*
X693056Y378244D01*
X691478Y379674D01*
X690936Y380076D01*
X691775Y382616D01*
X692257D01*
Y413196D01*
X662177D01*
Y382616D01*
X663660D01*
X664499Y380076D01*
X663957Y379674D01*
X662379Y378244D01*
X660950Y376667D01*
X659682Y374957D01*
X658587Y373131D01*
X657677Y371207D01*
X656960Y369203D01*
X656443Y367138D01*
X656130Y365032D01*
X656026Y362906D01*
X656130Y360780D01*
X656443Y358674D01*
X656960Y356609D01*
X657593Y354839D01*
X656994Y353643D01*
X655820Y352591D01*
X653751Y352863D01*
X651217Y352974D01*
X648684Y352863D01*
X646170Y352532D01*
X643694Y351983D01*
X641276Y351221D01*
X638933Y350250D01*
X636684Y349079D01*
X634545Y347717D01*
X632533Y346173D01*
X630663Y344460D01*
X628950Y342590D01*
X627407Y340578D01*
X626044Y338440D01*
X624873Y336190D01*
X623903Y333848D01*
X623140Y331429D01*
X622591Y328954D01*
X622260Y326439D01*
X622150Y323906D01*
X622260Y321372D01*
X622591Y318858D01*
X623140Y316383D01*
X623903Y313964D01*
X624873Y311621D01*
X626044Y309372D01*
X627407Y307233D01*
X628950Y305222D01*
X630663Y303352D01*
X632533Y301639D01*
X634545Y300095D01*
X636684Y298733D01*
X638933Y297562D01*
X641276Y296591D01*
X643694Y295829D01*
X646170Y295280D01*
X648684Y294949D01*
X651217Y294838D01*
X653751Y294949D01*
X656265Y295280D01*
X658741Y295829D01*
X661159Y296591D01*
X661240Y296625D01*
X663780Y294928D01*
Y266250D01*
X663898Y265352D01*
X664245Y264515D01*
X664797Y263797D01*
X696320Y232273D01*
Y182707D01*
X694634Y181892D01*
X693780Y181816D01*
X692563Y183159D01*
X690986Y184589D01*
X690443Y184991D01*
X691282Y187531D01*
X691765D01*
Y218111D01*
X661685D01*
Y187531D01*
X663167D01*
X664006Y184991D01*
X663464Y184589D01*
X661887Y183159D01*
X660457Y181582D01*
X659189Y179872D01*
X658095Y178046D01*
X657184Y176122D01*
X656467Y174118D01*
X655950Y172053D01*
X655638Y169947D01*
X655533Y167821D01*
X655638Y165695D01*
X655950Y163589D01*
X656467Y161525D01*
X657101Y159754D01*
X656501Y158558D01*
X655327Y157506D01*
X653258Y157778D01*
X650725Y157889D01*
X648191Y157778D01*
X645677Y157447D01*
X643202Y156898D01*
X640783Y156136D01*
X638440Y155166D01*
X636191Y153995D01*
X634052Y152632D01*
X632040Y151088D01*
X630171Y149375D01*
X628458Y147506D01*
X626914Y145494D01*
X625551Y143355D01*
X624380Y141106D01*
X623410Y138763D01*
X622648Y136344D01*
X622099Y133869D01*
X621768Y131355D01*
X621657Y128821D01*
X621768Y126288D01*
X622099Y123774D01*
X622648Y121298D01*
X623410Y118879D01*
X624380Y116537D01*
X625551Y114287D01*
X626914Y112149D01*
X628458Y110137D01*
X630171Y108267D01*
X632040Y106554D01*
X634052Y105010D01*
X636191Y103648D01*
X638440Y102477D01*
X640783Y101507D01*
X643202Y100744D01*
X645677Y100195D01*
X648191Y99864D01*
X650725Y99754D01*
X653258Y99864D01*
X655772Y100195D01*
X658248Y100744D01*
X660667Y101507D01*
X663009Y102477D01*
X665259Y103648D01*
X667397Y105010D01*
X669409Y106554D01*
X671279Y108267D01*
X672992Y110137D01*
X674536Y112149D01*
X675898Y114287D01*
X677069Y116537D01*
X678039Y118879D01*
X678802Y121298D01*
X679351Y123774D01*
X679682Y126288D01*
X679792Y128821D01*
X679682Y131355D01*
X679351Y133869D01*
X678802Y136344D01*
X678039Y138763D01*
X677069Y141106D01*
X675898Y143355D01*
X675703Y143661D01*
X677139Y146134D01*
X677225Y146130D01*
X679351Y146234D01*
X681457Y146546D01*
X683521Y147064D01*
X685526Y147781D01*
X687450Y148691D01*
X689276Y149785D01*
X690986Y151053D01*
X692563Y152483D01*
X693780Y153826D01*
X694634Y153750D01*
X696320Y152935D01*
Y147710D01*
X696439Y146812D01*
X696785Y145975D01*
X697337Y145257D01*
X745435Y97158D01*
X746154Y96606D01*
X746991Y96260D01*
X747889Y96141D01*
X747889Y96142D01*
X781808D01*
Y88910D01*
X795088D01*
Y88910D01*
X796808D01*
Y88910D01*
X802178D01*
Y100450D01*
X803448D01*
Y101720D01*
X810088D01*
Y107388D01*
X811198D01*
X811861Y107475D01*
X812479Y107731D01*
X813009Y108138D01*
X813417Y108669D01*
X813672Y109287D01*
X813760Y109950D01*
Y144450D01*
X813672Y145113D01*
X813417Y145731D01*
X813009Y146261D01*
X812479Y146669D01*
X811861Y146924D01*
X811198Y147012D01*
X810088D01*
Y165490D01*
X807276D01*
Y255552D01*
X807203Y256299D01*
X806985Y257017D01*
X806631Y257679D01*
X806155Y258259D01*
X792026Y272388D01*
Y284160D01*
X794838D01*
Y284160D01*
X796558D01*
Y284160D01*
X801928D01*
Y295700D01*
X803198D01*
Y296970D01*
X809838D01*
Y302638D01*
X810948D01*
X811611Y302725D01*
X812229Y302981D01*
X812759Y303388D01*
X813167Y303919D01*
X813422Y304537D01*
X813510Y305200D01*
Y339700D01*
X813422Y340363D01*
X813167Y340981D01*
X812759Y341511D01*
X812229Y341918D01*
X811611Y342174D01*
X810948Y342262D01*
X809838D01*
Y360740D01*
X806668D01*
Y381302D01*
X806549Y382200D01*
X806203Y383037D01*
X805651Y383756D01*
X791667Y397739D01*
Y481410D01*
X794838D01*
Y481410D01*
X796558D01*
Y481410D01*
X801928D01*
Y492950D01*
X803198D01*
Y494220D01*
X809838D01*
Y499888D01*
X810948D01*
X811611Y499975D01*
X812229Y500231D01*
X812759Y500638D01*
X813167Y501169D01*
X813422Y501787D01*
X813510Y502450D01*
Y536950D01*
X813422Y537613D01*
X813167Y538231D01*
X812759Y538761D01*
X812229Y539169D01*
X811611Y539425D01*
X810948Y539512D01*
X809838D01*
Y557990D01*
X806668D01*
Y634802D01*
X806549Y635700D01*
X806203Y636537D01*
X805651Y637256D01*
X791917Y650989D01*
Y678410D01*
X795088D01*
Y678410D01*
X796808D01*
Y678410D01*
X802178D01*
Y689950D01*
X803448D01*
Y691220D01*
X810088D01*
Y696888D01*
X811198D01*
X811861Y696975D01*
X812479Y697231D01*
X813009Y697638D01*
X813417Y698169D01*
X813672Y698787D01*
X813760Y699450D01*
Y733950D01*
X813672Y734613D01*
X813417Y735231D01*
X813009Y735761D01*
X812479Y736169D01*
X811861Y736424D01*
X811198Y736512D01*
X810088D01*
Y754990D01*
X796808D01*
Y754990D01*
X795088D01*
X794326Y757530D01*
X794468Y758242D01*
Y759333D01*
X794255Y760404D01*
X793837Y761412D01*
X793231Y762319D01*
X792459Y763091D01*
X791552Y763697D01*
X790544Y764115D01*
X789473Y764328D01*
X788382D01*
X787312Y764115D01*
X786304Y763697D01*
X785396Y763091D01*
X784625Y762319D01*
X784018Y761412D01*
X783601Y760404D01*
X783388Y759333D01*
Y758242D01*
X783530Y757530D01*
X783187Y756649D01*
X781884Y755003D01*
X781859Y754990D01*
X781808D01*
Y736512D01*
X780698D01*
X780035Y736424D01*
X779417Y736169D01*
X778886Y735761D01*
X778479Y735231D01*
X778223Y734613D01*
X778136Y733950D01*
Y699450D01*
X778223Y698787D01*
X778479Y698169D01*
X778886Y697638D01*
X779417Y697231D01*
X780035Y696975D01*
X780698Y696888D01*
X781808D01*
Y678410D01*
X784978D01*
Y649552D01*
X785096Y648654D01*
X785443Y647817D01*
X785994Y647099D01*
X799728Y633365D01*
Y557990D01*
X796558D01*
Y557990D01*
X794838D01*
X794005Y560530D01*
X794040Y560704D01*
Y561796D01*
X793827Y562866D01*
X793410Y563874D01*
X792803Y564781D01*
X792031Y565553D01*
X791124Y566160D01*
X790116Y566577D01*
X789046Y566790D01*
X787954D01*
X786884Y566577D01*
X785876Y566160D01*
X784968Y565553D01*
X784197Y564781D01*
X783590Y563874D01*
X783173Y562866D01*
X782960Y561796D01*
Y560704D01*
X782995Y560530D01*
X781558Y557990D01*
X781558D01*
Y539512D01*
X780448D01*
X779785Y539425D01*
X779167Y539169D01*
X778636Y538761D01*
X778229Y538231D01*
X777973Y537613D01*
X777886Y536950D01*
Y502450D01*
X777973Y501787D01*
X778229Y501169D01*
X778636Y500638D01*
X779167Y500231D01*
X779785Y499975D01*
X780448Y499888D01*
X781558D01*
Y481410D01*
X784728D01*
Y396302D01*
X784846Y395404D01*
X785193Y394567D01*
X785744Y393849D01*
X799728Y379865D01*
Y360740D01*
X796558D01*
Y360740D01*
X796270D01*
X794216Y363004D01*
X794003Y364075D01*
X793585Y365083D01*
X792979Y365990D01*
X792207Y366762D01*
X791300Y367368D01*
X790292Y367786D01*
X789222Y367999D01*
X788130D01*
X787060Y367786D01*
X786052Y367368D01*
X785144Y366762D01*
X784373Y365990D01*
X783766Y365083D01*
X783349Y364075D01*
X783136Y363004D01*
Y361913D01*
X781558Y360740D01*
X781558D01*
Y342262D01*
X780448D01*
X779785Y342174D01*
X779167Y341918D01*
X778636Y341511D01*
X778229Y340981D01*
X777973Y340363D01*
X777886Y339700D01*
Y305200D01*
X777973Y304537D01*
X778229Y303919D01*
X778636Y303388D01*
X779167Y302981D01*
X779785Y302725D01*
X780448Y302638D01*
X781558D01*
Y284160D01*
X784369D01*
Y270802D01*
X784443Y270055D01*
X784661Y269337D01*
X785015Y268675D01*
X785491Y268095D01*
X799619Y253966D01*
Y165490D01*
X796808D01*
Y165490D01*
X795088D01*
X793755Y168030D01*
X793790Y168204D01*
Y169296D01*
X793577Y170366D01*
X793159Y171374D01*
X792553Y172281D01*
X791781Y173053D01*
X790874Y173659D01*
X789866Y174077D01*
X788796Y174290D01*
X787704D01*
X786634Y174077D01*
X785626Y173659D01*
X784718Y173053D01*
X783947Y172281D01*
X783341Y171374D01*
X782923Y170366D01*
X782710Y169296D01*
Y168204D01*
X782745Y168030D01*
X781808Y165490D01*
X781808D01*
Y147012D01*
X780698D01*
X780035Y146924D01*
X779417Y146669D01*
X778886Y146261D01*
X778479Y145731D01*
X778223Y145113D01*
X778136Y144450D01*
Y109950D01*
X778223Y109287D01*
X778479Y108669D01*
X778886Y108138D01*
X779417Y107731D01*
X780035Y107475D01*
X780698Y107388D01*
X781808D01*
Y103081D01*
X749326D01*
X703260Y149147D01*
Y233710D01*
X703141Y234608D01*
X702795Y235445D01*
X702243Y236164D01*
X692638Y245769D01*
X693610Y248116D01*
X719007D01*
Y278696D01*
X716316D01*
X715364Y280920D01*
X715391Y281236D01*
X716966Y282404D01*
X718541Y283832D01*
X719970Y285408D01*
X721237Y287116D01*
X722330Y288940D01*
X723239Y290863D01*
X723956Y292865D01*
X724473Y294928D01*
X724784Y297032D01*
X724889Y299156D01*
X724784Y301280D01*
X724473Y303384D01*
X723956Y305447D01*
X723239Y307449D01*
X722330Y309372D01*
X721237Y311196D01*
X719970Y312904D01*
X718541Y314480D01*
X716966Y315908D01*
X715257Y317175D01*
X713433Y318269D01*
X711511Y319178D01*
X709508Y319894D01*
X707445Y320411D01*
X705342Y320723D01*
X703217Y320827D01*
X701093Y320723D01*
X698990Y320411D01*
X698420Y320268D01*
X697121Y322561D01*
X711703Y337144D01*
X712255Y337862D01*
X712601Y338699D01*
X712720Y339597D01*
Y415750D01*
X712601Y416648D01*
X712255Y417485D01*
X711703Y418204D01*
X670970Y458937D01*
Y495128D01*
X678823Y502981D01*
X681116Y501682D01*
X680981Y501145D01*
X680669Y499039D01*
X680565Y496913D01*
X680669Y494787D01*
X680981Y492681D01*
X681499Y490616D01*
X682216Y488612D01*
X683126Y486688D01*
X684220Y484862D01*
X685488Y483152D01*
X686918Y481575D01*
X688495Y480145D01*
X690049Y478993D01*
X690071Y478677D01*
X688923Y476453D01*
X687966D01*
Y445873D01*
X718046D01*
Y476453D01*
X715589D01*
X714441Y478677D01*
X714463Y478993D01*
X716017Y480145D01*
X717594Y481575D01*
X719024Y483152D01*
X720292Y484862D01*
X721386Y486688D01*
X722296Y488612D01*
X723014Y490616D01*
X723531Y492681D01*
X723843Y494787D01*
X723948Y496913D01*
X723843Y499039D01*
X723531Y501145D01*
X723014Y503210D01*
X722296Y505214D01*
X721386Y507138D01*
X720292Y508964D01*
X719024Y510674D01*
X717594Y512251D01*
X716017Y513681D01*
X714307Y514949D01*
X712481Y516043D01*
X710557Y516953D01*
X708553Y517670D01*
X706488Y518188D01*
X704382Y518500D01*
X702256Y518604D01*
X700130Y518500D01*
X698024Y518188D01*
X697487Y518053D01*
X696188Y520346D01*
X701775Y525933D01*
X702326Y526652D01*
X702673Y527489D01*
X702791Y528387D01*
Y618679D01*
X702673Y619577D01*
X702326Y620414D01*
X701775Y621132D01*
X624520Y698387D01*
Y703633D01*
X624537Y703643D01*
X627060Y704290D01*
X627999Y702816D01*
X629490Y700873D01*
X631144Y699068D01*
X632949Y697414D01*
X634892Y695923D01*
X636957Y694608D01*
X639129Y693477D01*
X641391Y692540D01*
X643726Y691804D01*
X646117Y691274D01*
X648544Y690954D01*
X650990Y690847D01*
X653437Y690954D01*
X655864Y691274D01*
X658255Y691804D01*
X660590Y692540D01*
X662852Y693477D01*
X665024Y694608D01*
X667089Y695923D01*
X669031Y697414D01*
X670836Y699068D01*
X672491Y700873D01*
X673981Y702816D01*
X675297Y704881D01*
X676428Y707053D01*
X677365Y709315D01*
X678101Y711650D01*
X678631Y714040D01*
X678950Y716468D01*
X679057Y718914D01*
X678950Y721360D01*
X678631Y723788D01*
X678101Y726178D01*
X677365Y728513D01*
X676428Y730776D01*
X675297Y732947D01*
X674719Y733855D01*
X674911Y734593D01*
X676181Y736287D01*
X677490Y736223D01*
X679616Y736327D01*
X681722Y736639D01*
X683787Y737157D01*
X685791Y737874D01*
X687716Y738784D01*
X689541Y739878D01*
X691251Y741146D01*
X692829Y742576D01*
X694258Y744153D01*
X695526Y745863D01*
X696620Y747689D01*
X697531Y749613D01*
X698248Y751617D01*
X698765Y753682D01*
X699077Y755788D01*
X699182Y757914D01*
X699077Y760040D01*
X698765Y762146D01*
X698248Y764211D01*
X697531Y766215D01*
X696620Y768139D01*
X695526Y769965D01*
X694258Y771675D01*
X692829Y773252D01*
X691251Y774682D01*
X690709Y775084D01*
X691548Y777624D01*
X692030D01*
Y808204D01*
D02*
G37*
G36*
X327161Y781537D02*
X326069D01*
X324999Y781324D01*
X323991Y780906D01*
X323084Y780300D01*
X322312Y779528D01*
X321706Y778621D01*
X321288Y777613D01*
X321075Y776542D01*
Y775451D01*
X321288Y774381D01*
X321296Y774361D01*
X321245Y774192D01*
X321172Y773445D01*
Y696586D01*
X309426Y684840D01*
X308999Y684928D01*
X307005Y687349D01*
X307232Y689362D01*
Y691388D01*
X307005Y693401D01*
X306554Y695375D01*
X305885Y697287D01*
X305006Y699112D01*
X303929Y700827D01*
X302666Y702411D01*
X301233Y703843D01*
X299650Y705106D01*
X297935Y706184D01*
X296110Y707063D01*
X294198Y707731D01*
X292223Y708182D01*
X290210Y708409D01*
X288185D01*
X286172Y708182D01*
X284197Y707731D01*
X282285Y707063D01*
X280460Y706184D01*
X278745Y705106D01*
X277162Y703843D01*
X275730Y702411D01*
X274467Y700827D01*
X273389Y699112D01*
X272510Y697287D01*
X271841Y695375D01*
X271390Y693401D01*
X271164Y691388D01*
Y689362D01*
X271390Y687349D01*
X271841Y685375D01*
X272510Y683463D01*
X273389Y681638D01*
X274467Y679923D01*
X275730Y678339D01*
X277162Y676907D01*
X278745Y675644D01*
X280460Y674566D01*
X282285Y673688D01*
X284197Y673018D01*
X286172Y672568D01*
X288185Y672341D01*
X290210D01*
X292223Y672568D01*
X294645Y670574D01*
X294733Y670147D01*
X287293Y662707D01*
X286817Y662127D01*
X286463Y661465D01*
X286245Y660747D01*
X286172Y660000D01*
Y581586D01*
X250378Y545792D01*
X249902Y545212D01*
X249548Y544550D01*
X249330Y543832D01*
X249256Y543085D01*
Y527506D01*
X248782Y527032D01*
X248175Y526124D01*
X247758Y525116D01*
X247545Y524046D01*
Y522954D01*
X247758Y521884D01*
X248175Y520876D01*
X248782Y519968D01*
X249553Y519197D01*
X250461Y518591D01*
X251469Y518173D01*
X252539Y517960D01*
X253631D01*
X254701Y518173D01*
X255709Y518591D01*
X256616Y519197D01*
X257388Y519968D01*
X257994Y520876D01*
X258412Y521884D01*
X258625Y522954D01*
Y524046D01*
X258412Y525116D01*
X257994Y526124D01*
X257388Y527032D01*
X256913Y527506D01*
Y541499D01*
X292707Y577293D01*
X293183Y577873D01*
X293537Y578535D01*
X293755Y579253D01*
X293828Y580000D01*
Y658414D01*
X327707Y692293D01*
X328183Y692873D01*
X328537Y693535D01*
X328755Y694253D01*
X328829Y695000D01*
Y770917D01*
X329239Y771087D01*
X330147Y771693D01*
X330918Y772465D01*
X331525Y773372D01*
X331942Y774381D01*
X332155Y775451D01*
Y776542D01*
X331942Y777613D01*
X331525Y778621D01*
X330918Y779528D01*
X330147Y780300D01*
X329239Y780906D01*
X328231Y781324D01*
X327161Y781537D01*
D02*
G37*
G36*
X128754Y699580D02*
X127246D01*
X125757Y699344D01*
X124323Y698878D01*
X122979Y698194D01*
X121759Y697307D01*
X120693Y696241D01*
X119806Y695021D01*
X119122Y693677D01*
X118656Y692243D01*
X118420Y690754D01*
Y689246D01*
X118656Y687757D01*
X119069Y686484D01*
X108543Y675957D01*
X108067Y675377D01*
X107713Y674715D01*
X107495Y673997D01*
X107422Y673250D01*
Y573006D01*
X106947Y572532D01*
X106341Y571624D01*
X105923Y570616D01*
X105710Y569546D01*
Y568454D01*
X105923Y567384D01*
X106341Y566376D01*
X106947Y565468D01*
X107718Y564697D01*
X108626Y564090D01*
X109634Y563673D01*
X110704Y563460D01*
X111796D01*
X112866Y563673D01*
X113874Y564090D01*
X114782Y564697D01*
X115553Y565468D01*
X116159Y566376D01*
X116577Y567384D01*
X116790Y568454D01*
Y569546D01*
X116577Y570616D01*
X116159Y571624D01*
X115553Y572532D01*
X115078Y573006D01*
Y671664D01*
X124484Y681069D01*
X125757Y680656D01*
X127246Y680420D01*
X128754D01*
X130243Y680656D01*
X131677Y681122D01*
X133021Y681806D01*
X134241Y682693D01*
X135307Y683759D01*
X136194Y684979D01*
X136878Y686323D01*
X137344Y687757D01*
X137580Y689246D01*
Y690754D01*
X137344Y692243D01*
X136878Y693677D01*
X136194Y695021D01*
X135307Y696241D01*
X134241Y697307D01*
X133021Y698194D01*
X131677Y698878D01*
X130243Y699344D01*
X128754Y699580D01*
D02*
G37*
G36*
X52754D02*
X51246D01*
X49757Y699344D01*
X48323Y698878D01*
X46979Y698194D01*
X45759Y697307D01*
X44693Y696241D01*
X43807Y695021D01*
X43122Y693677D01*
X42656Y692243D01*
X42420Y690754D01*
Y689246D01*
X42656Y687757D01*
X43122Y686323D01*
X43807Y684979D01*
X44693Y683759D01*
X45759Y682693D01*
X46979Y681806D01*
X48323Y681122D01*
X49757Y680656D01*
X51246Y680420D01*
X52754D01*
X54243Y680656D01*
X55677Y681122D01*
X57021Y681806D01*
X58241Y682693D01*
X59307Y683759D01*
X60194Y684979D01*
X60878Y686323D01*
X61344Y687757D01*
X61580Y689246D01*
Y690754D01*
X61344Y692243D01*
X60878Y693677D01*
X60194Y695021D01*
X59307Y696241D01*
X58241Y697307D01*
X57021Y698194D01*
X55677Y698878D01*
X54243Y699344D01*
X52754Y699580D01*
D02*
G37*
G36*
X615475Y688730D02*
X610105D01*
Y678460D01*
X615475D01*
Y688730D01*
D02*
G37*
G36*
X421475Y688730D02*
X416105D01*
Y678460D01*
X421475D01*
Y688730D01*
D02*
G37*
G36*
X810088Y688680D02*
X804718D01*
Y678410D01*
X810088D01*
Y688680D01*
D02*
G37*
G36*
X180210Y708409D02*
X178185D01*
X176172Y708182D01*
X174197Y707731D01*
X172285Y707063D01*
X170460Y706184D01*
X168745Y705106D01*
X167162Y703843D01*
X165730Y702411D01*
X164467Y700827D01*
X163389Y699112D01*
X162510Y697287D01*
X161841Y695375D01*
X161390Y693401D01*
X161164Y691388D01*
Y689362D01*
X161390Y687349D01*
X161841Y685375D01*
X162510Y683463D01*
X163389Y681638D01*
X164467Y679923D01*
X165730Y678339D01*
X167162Y676907D01*
X168745Y675644D01*
X170460Y674566D01*
X172285Y673688D01*
X174197Y673018D01*
X176172Y672568D01*
X178185Y672341D01*
X180210D01*
X182223Y672568D01*
X184198Y673018D01*
X186110Y673688D01*
X187935Y674566D01*
X189650Y675644D01*
X191234Y676907D01*
X192666Y678339D01*
X193929Y679923D01*
X195006Y681638D01*
X195885Y683463D01*
X196554Y685375D01*
X197005Y687349D01*
X197232Y689362D01*
Y691388D01*
X197005Y693401D01*
X196554Y695375D01*
X195885Y697287D01*
X195006Y699112D01*
X193929Y700827D01*
X192666Y702411D01*
X191234Y703843D01*
X189650Y705106D01*
X187935Y706184D01*
X186110Y707063D01*
X184198Y707731D01*
X182223Y708182D01*
X180210Y708409D01*
D02*
G37*
G36*
X702990Y715856D02*
X700864Y715751D01*
X698759Y715439D01*
X696694Y714921D01*
X694689Y714204D01*
X692765Y713294D01*
X690939Y712200D01*
X689230Y710932D01*
X687652Y709502D01*
X686223Y707925D01*
X684955Y706215D01*
X683860Y704389D01*
X682950Y702465D01*
X682233Y700461D01*
X681716Y698396D01*
X681403Y696290D01*
X681299Y694164D01*
X681403Y692038D01*
X681716Y689932D01*
X682233Y687867D01*
X682950Y685863D01*
X683860Y683939D01*
X684955Y682113D01*
X686223Y680403D01*
X687652Y678826D01*
X689230Y677396D01*
X690783Y676244D01*
X690805Y675928D01*
X689657Y673704D01*
X688700D01*
Y643124D01*
X718780D01*
Y673704D01*
X716324D01*
X715176Y675928D01*
X715198Y676244D01*
X716751Y677396D01*
X718329Y678826D01*
X719758Y680403D01*
X721026Y682113D01*
X722121Y683939D01*
X723031Y685863D01*
X723748Y687867D01*
X724265Y689932D01*
X724577Y692038D01*
X724682Y694164D01*
X724577Y696290D01*
X724265Y698396D01*
X723748Y700461D01*
X723031Y702465D01*
X722121Y704389D01*
X721026Y706215D01*
X719758Y707925D01*
X718329Y709502D01*
X716751Y710932D01*
X715042Y712200D01*
X713216Y713294D01*
X711291Y714204D01*
X709287Y714921D01*
X707222Y715439D01*
X705117Y715751D01*
X702990Y715856D01*
D02*
G37*
G36*
X897688Y715707D02*
X895561Y715603D01*
X893456Y715291D01*
X891391Y714773D01*
X889387Y714056D01*
X887462Y713146D01*
X885636Y712052D01*
X883926Y710784D01*
X882349Y709354D01*
X880920Y707777D01*
X879652Y706067D01*
X878557Y704241D01*
X877647Y702317D01*
X876930Y700313D01*
X876413Y698248D01*
X876100Y696142D01*
X875996Y694016D01*
X876100Y691890D01*
X876413Y689784D01*
X876930Y687719D01*
X877647Y685715D01*
X878557Y683791D01*
X879652Y681965D01*
X880920Y680255D01*
X882349Y678678D01*
X883926Y677248D01*
X885480Y676096D01*
X885502Y675780D01*
X884354Y673556D01*
X883397D01*
Y642976D01*
X913477D01*
Y673556D01*
X911021D01*
X909873Y675780D01*
X909895Y676096D01*
X911448Y677248D01*
X913026Y678678D01*
X914455Y680255D01*
X915723Y681965D01*
X916818Y683791D01*
X917728Y685715D01*
X918445Y687719D01*
X918962Y689784D01*
X919275Y691890D01*
X919379Y694016D01*
X919275Y696142D01*
X918962Y698248D01*
X918445Y700313D01*
X917728Y702317D01*
X916818Y704241D01*
X915723Y706067D01*
X914455Y707777D01*
X913026Y709354D01*
X911448Y710784D01*
X909739Y712052D01*
X907913Y713146D01*
X905988Y714056D01*
X903984Y714773D01*
X901919Y715291D01*
X899814Y715603D01*
X897688Y715707D01*
D02*
G37*
G36*
X235468Y625327D02*
Y616645D01*
X244150D01*
X244059Y617337D01*
X243718Y618607D01*
X243215Y619822D01*
X242558Y620961D01*
X241757Y622004D01*
X240827Y622934D01*
X239784Y623735D01*
X238645Y624393D01*
X237430Y624896D01*
X236159Y625236D01*
X235468Y625327D01*
D02*
G37*
G36*
X232928D02*
X232236Y625236D01*
X230966Y624896D01*
X229751Y624393D01*
X228612Y623735D01*
X227568Y622934D01*
X226638Y622004D01*
X225837Y620961D01*
X225180Y619822D01*
X224677Y618607D01*
X224336Y617337D01*
X224245Y616645D01*
X232928D01*
Y625327D01*
D02*
G37*
G36*
X244150Y614105D02*
X235468D01*
Y605423D01*
X236159Y605514D01*
X237430Y605854D01*
X238645Y606357D01*
X239784Y607015D01*
X240827Y607816D01*
X241757Y608746D01*
X242558Y609789D01*
X243215Y610928D01*
X243718Y612143D01*
X244059Y613414D01*
X244150Y614105D01*
D02*
G37*
G36*
X232928D02*
X224245D01*
X224336Y613414D01*
X224677Y612143D01*
X225180Y610928D01*
X225837Y609789D01*
X226638Y608746D01*
X227568Y607816D01*
X228612Y607015D01*
X229751Y606357D01*
X230966Y605854D01*
X232236Y605514D01*
X232928Y605423D01*
Y614105D01*
D02*
G37*
G36*
X887048Y611866D02*
X856967D01*
Y581286D01*
X858450D01*
X859289Y578746D01*
X858746Y578344D01*
X857169Y576914D01*
X855740Y575337D01*
X854472Y573627D01*
X853377Y571801D01*
X852467Y569877D01*
X851750Y567873D01*
X851233Y565808D01*
X850920Y563702D01*
X850816Y561576D01*
X850920Y559450D01*
X851233Y557344D01*
X851750Y555279D01*
X852383Y553509D01*
X851784Y552313D01*
X850610Y551261D01*
X848541Y551533D01*
X846008Y551644D01*
X843474Y551533D01*
X840960Y551202D01*
X838484Y550653D01*
X836066Y549891D01*
X833723Y548920D01*
X831474Y547749D01*
X829335Y546387D01*
X827323Y544843D01*
X825453Y543130D01*
X823740Y541260D01*
X822197Y539249D01*
X820834Y537110D01*
X819663Y534861D01*
X818693Y532518D01*
X817930Y530099D01*
X817381Y527624D01*
X817050Y525109D01*
X816940Y522576D01*
X817050Y520043D01*
X817381Y517528D01*
X817930Y515053D01*
X818693Y512634D01*
X819663Y510291D01*
X820834Y508042D01*
X822197Y505904D01*
X823740Y503892D01*
X825453Y502022D01*
X827323Y500309D01*
X829335Y498765D01*
X831474Y497403D01*
X833723Y496232D01*
X836066Y495261D01*
X838484Y494499D01*
X840960Y493950D01*
X843474Y493619D01*
X846008Y493508D01*
X848541Y493619D01*
X851055Y493950D01*
X853531Y494499D01*
X855949Y495261D01*
X858292Y496232D01*
X860541Y497403D01*
X862680Y498765D01*
X864692Y500309D01*
X866561Y502022D01*
X868275Y503892D01*
X869818Y505904D01*
X871181Y508042D01*
X872352Y510291D01*
X873322Y512634D01*
X874085Y515053D01*
X874633Y517528D01*
X874965Y520043D01*
X875075Y522576D01*
X874965Y525109D01*
X874633Y527624D01*
X874085Y530099D01*
X873322Y532518D01*
X872352Y534861D01*
X871181Y537110D01*
X870986Y537416D01*
X872422Y539889D01*
X872507Y539884D01*
X874634Y539989D01*
X876739Y540301D01*
X878804Y540819D01*
X880808Y541536D01*
X882733Y542446D01*
X884559Y543540D01*
X886268Y544808D01*
X887846Y546238D01*
X889275Y547815D01*
X890543Y549525D01*
X891638Y551351D01*
X892548Y553275D01*
X893265Y555279D01*
X893782Y557344D01*
X894094Y559450D01*
X894199Y561576D01*
X894094Y563702D01*
X893782Y565808D01*
X893265Y567873D01*
X892548Y569877D01*
X891638Y571801D01*
X890543Y573627D01*
X889275Y575337D01*
X887846Y576914D01*
X886268Y578344D01*
X885726Y578746D01*
X886565Y581286D01*
X887048D01*
Y611866D01*
D02*
G37*
G36*
X119778Y511430D02*
X99618D01*
Y491270D01*
X119778D01*
Y511430D01*
D02*
G37*
G36*
X614725Y491730D02*
X609355D01*
Y481460D01*
X614725D01*
Y491730D01*
D02*
G37*
G36*
X809838Y491680D02*
X804468D01*
Y481410D01*
X809838D01*
Y491680D01*
D02*
G37*
G36*
X422088Y491680D02*
X416718D01*
Y481410D01*
X422088D01*
Y491680D01*
D02*
G37*
G36*
X119778Y486030D02*
X99618D01*
Y465870D01*
X119778D01*
Y486030D01*
D02*
G37*
G36*
X48480Y473980D02*
X39670D01*
Y465170D01*
X48480D01*
Y473980D01*
D02*
G37*
G36*
Y462630D02*
X39670D01*
Y453820D01*
X48480D01*
Y462630D01*
D02*
G37*
G36*
X119778Y460630D02*
X110968D01*
Y451820D01*
X119778D01*
Y460630D01*
D02*
G37*
G36*
X338046Y764040D02*
X336954D01*
X335884Y763827D01*
X334876Y763410D01*
X333969Y762803D01*
X333197Y762031D01*
X332590Y761124D01*
X332173Y760116D01*
X331960Y759046D01*
Y757954D01*
X332173Y756884D01*
X332590Y755876D01*
X333197Y754968D01*
X333672Y754494D01*
Y684086D01*
X299793Y650207D01*
X299317Y649627D01*
X298963Y648965D01*
X298745Y648247D01*
X298672Y647500D01*
Y513517D01*
X297578Y511430D01*
X277418D01*
Y505178D01*
X272100D01*
X271353Y505105D01*
X270635Y504887D01*
X269973Y504533D01*
X269393Y504057D01*
X139103Y373767D01*
X138627Y373187D01*
X138273Y372525D01*
X138055Y371807D01*
X137982Y371060D01*
Y288137D01*
X137507Y287663D01*
X136901Y286755D01*
X136483Y285747D01*
X136270Y284677D01*
Y283585D01*
X136483Y282515D01*
X136901Y281507D01*
X137507Y280599D01*
X138279Y279828D01*
X139186Y279222D01*
X140194Y278804D01*
X141264Y278591D01*
X142356D01*
X143426Y278804D01*
X144434Y279222D01*
X145342Y279828D01*
X146113Y280599D01*
X146720Y281507D01*
X147137Y282515D01*
X147350Y283585D01*
Y284677D01*
X147137Y285747D01*
X146720Y286755D01*
X146113Y287663D01*
X145638Y288137D01*
Y369474D01*
X273686Y497521D01*
X277418D01*
Y493828D01*
X276250D01*
X275503Y493755D01*
X274785Y493537D01*
X274123Y493183D01*
X273543Y492707D01*
X261379Y480543D01*
X260903Y479963D01*
X260549Y479301D01*
X260331Y478583D01*
X260257Y477836D01*
Y471557D01*
X259783Y471082D01*
X259176Y470175D01*
X258759Y469166D01*
X258546Y468096D01*
Y467005D01*
X258759Y465935D01*
X259176Y464926D01*
X259783Y464019D01*
X260554Y463247D01*
X261012Y460689D01*
X260883Y460131D01*
X223878Y423126D01*
X223402Y422546D01*
X223048Y421884D01*
X222830Y421166D01*
X222756Y420419D01*
Y270671D01*
X141376Y189290D01*
X140704D01*
X139634Y189077D01*
X138626Y188659D01*
X137718Y188053D01*
X136947Y187281D01*
X136341Y186374D01*
X135923Y185366D01*
X135710Y184296D01*
Y183204D01*
X135923Y182134D01*
X136341Y181126D01*
X136947Y180219D01*
X137718Y179447D01*
X138626Y178841D01*
X139634Y178423D01*
X140704Y178210D01*
X141796D01*
X142866Y178423D01*
X143874Y178841D01*
X144782Y179447D01*
X145553Y180219D01*
X146159Y181126D01*
X146577Y182134D01*
X146790Y183204D01*
Y183876D01*
X229292Y266378D01*
X229768Y266958D01*
X230122Y267620D01*
X230340Y268338D01*
X230413Y269085D01*
Y418833D01*
X257058Y445478D01*
X259405Y444506D01*
Y429040D01*
X258930Y428565D01*
X258324Y427658D01*
X257906Y426650D01*
X257693Y425579D01*
Y424488D01*
X257906Y423418D01*
X258324Y422410D01*
X258930Y421502D01*
X259702Y420731D01*
X260609Y420124D01*
X261617Y419707D01*
X262687Y419494D01*
X263779D01*
X264849Y419707D01*
X265857Y420124D01*
X266765Y420731D01*
X267536Y421502D01*
X268143Y422410D01*
X268560Y423418D01*
X268773Y424488D01*
Y425579D01*
X268560Y426650D01*
X268143Y427658D01*
X267536Y428565D01*
X267062Y429040D01*
Y448297D01*
X275071Y456307D01*
X277418Y455335D01*
Y451820D01*
X287498D01*
X297578D01*
Y460218D01*
X297973Y460543D01*
X317707Y480277D01*
X318183Y480857D01*
X318537Y481519D01*
X318755Y482237D01*
X318828Y482984D01*
Y628414D01*
X352707Y662293D01*
X353183Y662873D01*
X353537Y663535D01*
X353755Y664253D01*
X353828Y665000D01*
Y743744D01*
X354303Y744219D01*
X354910Y745126D01*
X355327Y746134D01*
X355540Y747204D01*
Y748296D01*
X355327Y749366D01*
X354910Y750374D01*
X354303Y751282D01*
X353531Y752053D01*
X352624Y752660D01*
X351616Y753077D01*
X350546Y753290D01*
X349454D01*
X348384Y753077D01*
X347376Y752660D01*
X346468Y752053D01*
X345697Y751282D01*
X345090Y750374D01*
X344673Y749366D01*
X344460Y748296D01*
Y747204D01*
X344673Y746134D01*
X345090Y745126D01*
X345697Y744219D01*
X346171Y743744D01*
Y666586D01*
X312293Y632707D01*
X311817Y632127D01*
X311463Y631465D01*
X311245Y630747D01*
X311172Y630000D01*
Y484570D01*
X299925Y473323D01*
X297578Y474295D01*
Y486030D01*
X298800Y486463D01*
X299462Y486817D01*
X300042Y487293D01*
X305207Y492458D01*
X305683Y493038D01*
X306037Y493700D01*
X306255Y494418D01*
X306328Y495165D01*
Y645914D01*
X340207Y679793D01*
X340683Y680373D01*
X341037Y681035D01*
X341255Y681753D01*
X341329Y682500D01*
Y754494D01*
X341803Y754968D01*
X342410Y755876D01*
X342827Y756884D01*
X343040Y757954D01*
Y759046D01*
X342827Y760116D01*
X342410Y761124D01*
X341803Y762031D01*
X341032Y762803D01*
X340124Y763410D01*
X339116Y763827D01*
X338046Y764040D01*
D02*
G37*
G36*
X108428Y460630D02*
X99618D01*
Y451820D01*
X108428D01*
Y460630D01*
D02*
G37*
G36*
X898008Y519518D02*
X895881Y519413D01*
X893776Y519101D01*
X891711Y518583D01*
X889706Y517866D01*
X887782Y516956D01*
X885956Y515862D01*
X884247Y514594D01*
X882669Y513164D01*
X881240Y511587D01*
X879972Y509877D01*
X878877Y508051D01*
X877967Y506127D01*
X877250Y504123D01*
X876733Y502058D01*
X876420Y499952D01*
X876316Y497826D01*
X876420Y495700D01*
X876733Y493594D01*
X877250Y491529D01*
X877967Y489525D01*
X878877Y487601D01*
X879972Y485775D01*
X881240Y484065D01*
X882669Y482488D01*
X884247Y481058D01*
X885800Y479906D01*
X885822Y479590D01*
X884674Y477366D01*
X883717D01*
Y446786D01*
X913798D01*
Y477366D01*
X911341D01*
X910193Y479590D01*
X910215Y479906D01*
X911768Y481058D01*
X913346Y482488D01*
X914775Y484065D01*
X916043Y485775D01*
X917138Y487601D01*
X918048Y489525D01*
X918765Y491529D01*
X919282Y493594D01*
X919594Y495700D01*
X919699Y497826D01*
X919594Y499952D01*
X919282Y502058D01*
X918765Y504123D01*
X918048Y506127D01*
X917138Y508051D01*
X916043Y509877D01*
X914775Y511587D01*
X913346Y513164D01*
X911768Y514594D01*
X910059Y515862D01*
X908233Y516956D01*
X906308Y517866D01*
X904304Y518583D01*
X902239Y519101D01*
X900134Y519413D01*
X898008Y519518D01*
D02*
G37*
G36*
X297578Y449280D02*
X288768D01*
Y440470D01*
X297578D01*
Y449280D01*
D02*
G37*
G36*
X286228D02*
X277418D01*
Y440470D01*
X286228D01*
Y449280D01*
D02*
G37*
G36*
X119778D02*
X110968D01*
Y440470D01*
X119778D01*
Y449280D01*
D02*
G37*
G36*
X108428D02*
X99618D01*
Y440470D01*
X108428D01*
Y449280D01*
D02*
G37*
G36*
X119778Y435230D02*
X99618D01*
Y415070D01*
X119778D01*
Y435230D01*
D02*
G37*
G36*
X382154Y634126D02*
X381062D01*
X379992Y633913D01*
X378984Y633495D01*
X378077Y632889D01*
X377305Y632117D01*
X376699Y631210D01*
X376281Y630202D01*
X376068Y629131D01*
Y628460D01*
X324383Y576775D01*
X323907Y576195D01*
X323553Y575533D01*
X323335Y574814D01*
X323262Y574068D01*
Y420460D01*
X299925Y397123D01*
X297578Y398095D01*
Y409830D01*
X280911D01*
X279939Y412177D01*
X282832Y415070D01*
X297578D01*
Y435230D01*
X277418D01*
Y420484D01*
X240293Y383359D01*
X239817Y382779D01*
X239463Y382117D01*
X239245Y381399D01*
X239172Y380652D01*
Y232086D01*
X144146Y137060D01*
X144072Y137109D01*
X143064Y137527D01*
X141994Y137740D01*
X140902D01*
X139832Y137527D01*
X138824Y137109D01*
X137916Y136503D01*
X137145Y135731D01*
X136538Y134824D01*
X136121Y133816D01*
X135908Y132746D01*
Y131654D01*
X136121Y130584D01*
X136538Y129576D01*
X137145Y128668D01*
X137916Y127897D01*
X138824Y127290D01*
X139832Y126873D01*
X140902Y126660D01*
X141994D01*
X143064Y126873D01*
X144072Y127290D01*
X144979Y127897D01*
X145751Y128668D01*
X146032Y129088D01*
X146096Y129094D01*
X146814Y129312D01*
X147476Y129666D01*
X148056Y130142D01*
X245707Y227793D01*
X246183Y228373D01*
X246537Y229035D01*
X246755Y229753D01*
X246828Y230500D01*
Y379066D01*
X275071Y407309D01*
X277418Y406337D01*
Y391655D01*
X277283Y391583D01*
X276703Y391107D01*
X263745Y378148D01*
X263073D01*
X262003Y377935D01*
X260994Y377518D01*
X260087Y376912D01*
X259315Y376140D01*
X258709Y375233D01*
X258292Y374224D01*
X258079Y373154D01*
Y372063D01*
X258292Y370993D01*
X258709Y369984D01*
X259315Y369077D01*
X260087Y368305D01*
X260994Y367699D01*
X262003Y367281D01*
X263073Y367068D01*
X264164D01*
X265235Y367281D01*
X266243Y367699D01*
X267150Y368305D01*
X267922Y369077D01*
X268528Y369984D01*
X268946Y370993D01*
X269159Y372063D01*
Y372734D01*
X275071Y378647D01*
X277418Y377675D01*
Y364270D01*
X276253Y363483D01*
X275673Y363007D01*
X260741Y348075D01*
X260265Y347495D01*
X259911Y346833D01*
X259693Y346115D01*
X259619Y345368D01*
Y335456D01*
X259145Y334981D01*
X258538Y334074D01*
X258121Y333066D01*
X257908Y331996D01*
Y330904D01*
X258121Y329834D01*
X258538Y328826D01*
X259145Y327918D01*
X259916Y327147D01*
X260824Y326540D01*
X260958Y326485D01*
X261689Y324245D01*
X261637Y323572D01*
X260491Y322425D01*
X260015Y321845D01*
X259661Y321183D01*
X259443Y320465D01*
X259369Y319718D01*
Y293956D01*
X258895Y293481D01*
X258288Y292574D01*
X257871Y291566D01*
X257658Y290495D01*
Y289404D01*
X257871Y288334D01*
X258288Y287326D01*
X258895Y286418D01*
X259666Y285647D01*
X260574Y285040D01*
X261582Y284623D01*
X262652Y284410D01*
X263743D01*
X264814Y284623D01*
X265822Y285040D01*
X266729Y285647D01*
X267501Y286418D01*
X268107Y287326D01*
X268525Y288334D01*
X268738Y289404D01*
Y290495D01*
X268525Y291566D01*
X268107Y292574D01*
X267501Y293481D01*
X267026Y293956D01*
Y318132D01*
X275071Y326177D01*
X277418Y325205D01*
Y324820D01*
X287498D01*
X297578D01*
Y332169D01*
X297607Y332193D01*
X342707Y377293D01*
X343183Y377873D01*
X343537Y378535D01*
X343755Y379253D01*
X343828Y380000D01*
Y540298D01*
X393147Y589616D01*
X393818D01*
X394888Y589829D01*
X395897Y590247D01*
X396804Y590853D01*
X397576Y591624D01*
X398182Y592532D01*
X398600Y593540D01*
X398812Y594610D01*
Y595702D01*
X398600Y596772D01*
X398182Y597780D01*
X397576Y598688D01*
X396804Y599459D01*
X395897Y600065D01*
X394888Y600483D01*
X393818Y600696D01*
X392727D01*
X391656Y600483D01*
X390648Y600065D01*
X389741Y599459D01*
X388969Y598688D01*
X388363Y597780D01*
X387945Y596772D01*
X387732Y595702D01*
Y595030D01*
X338538Y545836D01*
X335998Y546888D01*
Y554584D01*
X387874Y606460D01*
X388546D01*
X389616Y606673D01*
X390624Y607090D01*
X391531Y607697D01*
X392303Y608469D01*
X392910Y609376D01*
X393327Y610384D01*
X393540Y611454D01*
Y612546D01*
X393327Y613616D01*
X392910Y614624D01*
X392303Y615532D01*
X391531Y616303D01*
X390624Y616909D01*
X389616Y617327D01*
X388546Y617540D01*
X387454D01*
X386384Y617327D01*
X385376Y616909D01*
X384468Y616303D01*
X383697Y615532D01*
X383091Y614624D01*
X382673Y613616D01*
X382460Y612546D01*
Y611874D01*
X333265Y562679D01*
X330918Y563651D01*
Y572482D01*
X381482Y623046D01*
X382154D01*
X383224Y623259D01*
X384232Y623676D01*
X385140Y624282D01*
X385911Y625054D01*
X386517Y625961D01*
X386935Y626970D01*
X387148Y628040D01*
Y629131D01*
X386935Y630202D01*
X386517Y631210D01*
X385911Y632117D01*
X385140Y632889D01*
X384232Y633495D01*
X383224Y633913D01*
X382154Y634126D01*
D02*
G37*
G36*
X119778Y409830D02*
X99618D01*
Y389670D01*
X119778D01*
Y409830D01*
D02*
G37*
G36*
Y384430D02*
X99618D01*
Y364270D01*
X119778D01*
Y384430D01*
D02*
G37*
G36*
X886727Y413200D02*
X856647D01*
Y382620D01*
X858130D01*
X858969Y380080D01*
X858427Y379678D01*
X856849Y378248D01*
X855420Y376671D01*
X854152Y374961D01*
X853057Y373135D01*
X852147Y371211D01*
X851430Y369207D01*
X850913Y367142D01*
X850600Y365036D01*
X850496Y362910D01*
X850600Y360784D01*
X850913Y358678D01*
X851430Y356613D01*
X852063Y354843D01*
X851464Y353647D01*
X850290Y352594D01*
X848221Y352867D01*
X845687Y352977D01*
X843154Y352867D01*
X840640Y352536D01*
X838164Y351987D01*
X835746Y351225D01*
X833403Y350254D01*
X831154Y349083D01*
X829015Y347721D01*
X827003Y346177D01*
X825134Y344464D01*
X823420Y342594D01*
X821877Y340582D01*
X820514Y338444D01*
X819343Y336194D01*
X818373Y333852D01*
X817610Y331433D01*
X817061Y328957D01*
X816730Y326443D01*
X816620Y323910D01*
X816730Y321376D01*
X817061Y318862D01*
X817610Y316387D01*
X818373Y313968D01*
X819343Y311625D01*
X820514Y309376D01*
X821877Y307237D01*
X823420Y305226D01*
X825134Y303356D01*
X827003Y301643D01*
X829015Y300099D01*
X831154Y298736D01*
X833403Y297566D01*
X835746Y296595D01*
X838164Y295833D01*
X840640Y295284D01*
X843154Y294953D01*
X845687Y294842D01*
X848221Y294953D01*
X850735Y295284D01*
X853211Y295833D01*
X855629Y296595D01*
X857972Y297566D01*
X860221Y298736D01*
X862360Y300099D01*
X864372Y301643D01*
X866241Y303356D01*
X867955Y305226D01*
X869498Y307237D01*
X870861Y309376D01*
X872032Y311625D01*
X873002Y313968D01*
X873765Y316387D01*
X874314Y318862D01*
X874644Y321376D01*
X874755Y323910D01*
X874644Y326443D01*
X874314Y328957D01*
X873765Y331433D01*
X873002Y333852D01*
X872032Y336194D01*
X870861Y338444D01*
X870666Y338750D01*
X872102Y341223D01*
X872187Y341218D01*
X874314Y341323D01*
X876419Y341635D01*
X878484Y342152D01*
X880488Y342869D01*
X882413Y343780D01*
X884239Y344874D01*
X885948Y346142D01*
X887526Y347572D01*
X888955Y349149D01*
X890223Y350859D01*
X891318Y352685D01*
X892228Y354609D01*
X892945Y356613D01*
X893462Y358678D01*
X893774Y360784D01*
X893879Y362910D01*
X893774Y365036D01*
X893462Y367142D01*
X892945Y369207D01*
X892228Y371211D01*
X891318Y373135D01*
X890223Y374961D01*
X888955Y376671D01*
X887526Y378248D01*
X885948Y379678D01*
X885406Y380080D01*
X886245Y382620D01*
X886727D01*
Y413200D01*
D02*
G37*
G36*
X297578Y322280D02*
X288768D01*
Y313470D01*
X297578D01*
Y322280D01*
D02*
G37*
G36*
X286228D02*
X277418D01*
Y313470D01*
X286228D01*
Y322280D01*
D02*
G37*
G36*
X119778D02*
X110968D01*
Y313470D01*
X119778D01*
Y322280D01*
D02*
G37*
G36*
X108428D02*
X99618D01*
Y313470D01*
X108428D01*
Y322280D01*
D02*
G37*
G36*
X297578Y308230D02*
X277418D01*
Y288070D01*
X297578D01*
Y308230D01*
D02*
G37*
G36*
X119778D02*
X99618D01*
Y288070D01*
X119778D01*
Y308230D01*
D02*
G37*
G36*
X48480Y296180D02*
X39670D01*
Y287370D01*
X48480D01*
Y296180D01*
D02*
G37*
G36*
X422225Y294480D02*
X416855D01*
Y284210D01*
X422225D01*
Y294480D01*
D02*
G37*
G36*
X809838Y294430D02*
X804468D01*
Y284160D01*
X809838D01*
Y294430D01*
D02*
G37*
G36*
X615838Y294430D02*
X610468D01*
Y284160D01*
X615838D01*
Y294430D01*
D02*
G37*
G36*
X48480Y284830D02*
X39670D01*
Y276020D01*
X48480D01*
Y284830D01*
D02*
G37*
G36*
X391341Y427580D02*
X390250D01*
X389180Y427367D01*
X388172Y426950D01*
X387264Y426343D01*
X386492Y425572D01*
X385886Y424664D01*
X385468Y423656D01*
X385256Y422586D01*
Y421914D01*
X347793Y384451D01*
X347317Y383871D01*
X346963Y383209D01*
X346745Y382491D01*
X346671Y381744D01*
Y296588D01*
X313612Y263528D01*
X297578D01*
Y282830D01*
X277418D01*
Y262971D01*
X277253Y262883D01*
X276673Y262407D01*
X262431Y248165D01*
X261955Y247585D01*
X261601Y246923D01*
X261383Y246205D01*
X261309Y245458D01*
Y242456D01*
X260835Y241981D01*
X260228Y241074D01*
X259811Y240066D01*
X259598Y238995D01*
Y237904D01*
X259811Y236834D01*
X260228Y235826D01*
X260835Y234918D01*
X261606Y234147D01*
X262514Y233540D01*
X263522Y233123D01*
X264592Y232910D01*
X265683D01*
X266754Y233123D01*
X267762Y233540D01*
X268669Y234147D01*
X269441Y234918D01*
X270047Y235826D01*
X270465Y236834D01*
X270678Y237904D01*
Y238995D01*
X270465Y240066D01*
X270047Y241074D01*
X269441Y241981D01*
X268966Y242456D01*
Y243872D01*
X275071Y249977D01*
X277418Y249005D01*
Y237270D01*
X276253Y236483D01*
X275673Y236007D01*
X260931Y221265D01*
X260455Y220685D01*
X260101Y220023D01*
X259883Y219305D01*
X259809Y218558D01*
Y210178D01*
X259335Y209703D01*
X258728Y208796D01*
X258311Y207787D01*
X258098Y206717D01*
Y205626D01*
X258311Y204556D01*
X258728Y203547D01*
X259335Y202640D01*
X260106Y201868D01*
X260858Y201366D01*
X261033Y201170D01*
X261541Y198695D01*
X261473Y198389D01*
X260874Y197790D01*
X260398Y197210D01*
X260044Y196548D01*
X259826Y195830D01*
X259753Y195083D01*
Y169123D01*
X259278Y168648D01*
X258671Y167741D01*
X258254Y166733D01*
X258041Y165662D01*
Y164571D01*
X258254Y163501D01*
X258671Y162493D01*
X259278Y161585D01*
X260049Y160814D01*
X260957Y160207D01*
X261965Y159790D01*
X263035Y159577D01*
X264126D01*
X265197Y159790D01*
X266205Y160207D01*
X267112Y160814D01*
X267884Y161585D01*
X268490Y162493D01*
X268908Y163501D01*
X269121Y164571D01*
Y165662D01*
X268908Y166733D01*
X268490Y167741D01*
X267884Y168648D01*
X267409Y169123D01*
Y193497D01*
X275071Y201159D01*
X277418Y200187D01*
Y197820D01*
X287498D01*
X297578D01*
Y205422D01*
X318248D01*
X318995Y205495D01*
X319713Y205713D01*
X320375Y206067D01*
X320955Y206543D01*
X366207Y251795D01*
X366683Y252375D01*
X367037Y253037D01*
X367255Y253755D01*
X367328Y254502D01*
Y350164D01*
X401124Y383960D01*
X401796D01*
X402866Y384173D01*
X403874Y384590D01*
X404781Y385197D01*
X405553Y385969D01*
X406160Y386876D01*
X406577Y387884D01*
X406790Y388954D01*
Y390046D01*
X406577Y391116D01*
X406160Y392124D01*
X405553Y393032D01*
X404781Y393803D01*
X403874Y394409D01*
X402866Y394827D01*
X401796Y395040D01*
X400704D01*
X399634Y394827D01*
X398626Y394409D01*
X397719Y393803D01*
X396947Y393032D01*
X396340Y392124D01*
X395923Y391116D01*
X395710Y390046D01*
Y389374D01*
X363675Y357339D01*
X361328Y358311D01*
Y363414D01*
X399374Y401460D01*
X400046D01*
X401116Y401673D01*
X402124Y402090D01*
X403032Y402697D01*
X403803Y403469D01*
X404409Y404376D01*
X404827Y405384D01*
X405040Y406454D01*
Y407546D01*
X404827Y408616D01*
X404409Y409624D01*
X403803Y410532D01*
X403032Y411303D01*
X402124Y411909D01*
X401116Y412327D01*
X400046Y412540D01*
X398954D01*
X397884Y412327D01*
X396876Y411909D01*
X395968Y411303D01*
X395197Y410532D01*
X394590Y409624D01*
X394173Y408616D01*
X393960Y407546D01*
Y406874D01*
X356868Y369783D01*
X354328Y370835D01*
Y380159D01*
X390670Y416500D01*
X391341D01*
X392412Y416713D01*
X393420Y417131D01*
X394327Y417737D01*
X395099Y418508D01*
X395705Y419416D01*
X396123Y420424D01*
X396336Y421494D01*
Y422586D01*
X396123Y423656D01*
X395705Y424664D01*
X395099Y425572D01*
X394327Y426343D01*
X393420Y426950D01*
X392412Y427367D01*
X391341Y427580D01*
D02*
G37*
G36*
X119778Y282830D02*
X99618D01*
Y262670D01*
X119778D01*
Y282830D01*
D02*
G37*
G36*
X209855Y770408D02*
X208540D01*
X207236Y770236D01*
X205966Y769896D01*
X204751Y769393D01*
X203612Y768735D01*
X202568Y767934D01*
X201638Y767004D01*
X200837Y765961D01*
X200180Y764822D01*
X199677Y763607D01*
X199336Y762337D01*
X199165Y761033D01*
Y759717D01*
X199336Y758413D01*
X199677Y757143D01*
X200180Y755928D01*
X200837Y754789D01*
X201638Y753746D01*
X202568Y752816D01*
X203612Y752015D01*
X204751Y751357D01*
X205369Y751101D01*
Y715684D01*
X205443Y714937D01*
X205661Y714219D01*
X206014Y713557D01*
X206490Y712977D01*
X273672Y645796D01*
Y594086D01*
X205754Y526168D01*
X101340D01*
X100593Y526095D01*
X99875Y525877D01*
X99213Y525523D01*
X98633Y525047D01*
X86793Y513207D01*
X86317Y512627D01*
X85963Y511965D01*
X85745Y511247D01*
X85672Y510500D01*
Y345304D01*
X85745Y344557D01*
X85963Y343839D01*
X86317Y343177D01*
X86793Y342597D01*
X97097Y332293D01*
X97677Y331817D01*
X98339Y331463D01*
X99058Y331245D01*
X99618Y331190D01*
Y324820D01*
X109698D01*
X120231D01*
X122134Y325650D01*
X123672Y324406D01*
Y276250D01*
X123745Y275503D01*
X123963Y274785D01*
X124317Y274123D01*
X124793Y273543D01*
X139460Y258876D01*
Y258204D01*
X139673Y257134D01*
X140091Y256126D01*
X140697Y255219D01*
X141468Y254447D01*
X142376Y253841D01*
X143384Y253423D01*
X144454Y253210D01*
X145546D01*
X146616Y253423D01*
X147624Y253841D01*
X148532Y254447D01*
X149303Y255219D01*
X149909Y256126D01*
X150327Y257134D01*
X150540Y258204D01*
Y259296D01*
X150327Y260366D01*
X149909Y261374D01*
X149303Y262281D01*
X148532Y263053D01*
X147624Y263659D01*
X146616Y264077D01*
X145546Y264290D01*
X144874D01*
X131328Y277836D01*
Y326216D01*
X131255Y326963D01*
X131037Y327681D01*
X130683Y328343D01*
X130207Y328923D01*
X121423Y337707D01*
X120843Y338183D01*
X119778Y338870D01*
Y359030D01*
X99618D01*
Y343919D01*
X97271Y342947D01*
X93328Y346890D01*
Y508914D01*
X102926Y518512D01*
X207340D01*
X208087Y518585D01*
X208805Y518803D01*
X209467Y519157D01*
X210047Y519633D01*
X280207Y589793D01*
X280683Y590373D01*
X281037Y591035D01*
X281255Y591753D01*
X281328Y592500D01*
Y647381D01*
X281255Y648128D01*
X281037Y648846D01*
X280683Y649508D01*
X280207Y650088D01*
X213026Y717270D01*
Y751101D01*
X213645Y751357D01*
X214784Y752015D01*
X215827Y752816D01*
X216757Y753746D01*
X217558Y754789D01*
X218215Y755928D01*
X218718Y757143D01*
X219059Y758413D01*
X219231Y759717D01*
Y761033D01*
X219059Y762337D01*
X218718Y763607D01*
X218215Y764822D01*
X217558Y765961D01*
X216757Y767004D01*
X215827Y767934D01*
X214784Y768735D01*
X213645Y769393D01*
X212430Y769896D01*
X211159Y770236D01*
X209855Y770408D01*
D02*
G37*
G36*
X897688Y320851D02*
X895561Y320747D01*
X893456Y320435D01*
X891391Y319917D01*
X889387Y319200D01*
X887462Y318290D01*
X885636Y317196D01*
X883926Y315928D01*
X882349Y314498D01*
X880920Y312921D01*
X879652Y311211D01*
X878557Y309385D01*
X877647Y307461D01*
X876930Y305457D01*
X876413Y303392D01*
X876100Y301286D01*
X875996Y299160D01*
X876100Y297034D01*
X876413Y294928D01*
X876930Y292863D01*
X877647Y290859D01*
X878557Y288935D01*
X879652Y287109D01*
X880920Y285399D01*
X882349Y283822D01*
X883926Y282392D01*
X885480Y281240D01*
X885502Y280924D01*
X884354Y278700D01*
X883397D01*
Y248120D01*
X913477D01*
Y278700D01*
X911021D01*
X909873Y280924D01*
X909895Y281240D01*
X911448Y282392D01*
X913026Y283822D01*
X914455Y285399D01*
X915723Y287109D01*
X916818Y288935D01*
X917728Y290859D01*
X918445Y292863D01*
X918962Y294928D01*
X919275Y297034D01*
X919379Y299160D01*
X919275Y301286D01*
X918962Y303392D01*
X918445Y305457D01*
X917728Y307461D01*
X916818Y309385D01*
X915723Y311211D01*
X914455Y312921D01*
X913026Y314498D01*
X911448Y315928D01*
X909739Y317196D01*
X907913Y318290D01*
X905988Y319200D01*
X903984Y319917D01*
X901919Y320435D01*
X899814Y320747D01*
X897688Y320851D01*
D02*
G37*
G36*
X259855Y625408D02*
X258540D01*
X257236Y625236D01*
X255966Y624896D01*
X255079Y624529D01*
X254727Y624422D01*
X254065Y624068D01*
X253773Y623828D01*
X253612Y623735D01*
X252568Y622934D01*
X251638Y622004D01*
X250837Y620961D01*
X250180Y619822D01*
X249677Y618607D01*
X249336Y617337D01*
X249165Y616033D01*
Y614717D01*
X249336Y613414D01*
X249677Y612143D01*
X250180Y610928D01*
X250837Y609789D01*
X251638Y608746D01*
X252485Y607899D01*
X183664Y539078D01*
X93000D01*
X92253Y539005D01*
X91535Y538787D01*
X90873Y538433D01*
X90293Y537957D01*
X71043Y518707D01*
X70567Y518127D01*
X70213Y517465D01*
X69995Y516747D01*
X69922Y516000D01*
Y262830D01*
X69995Y262083D01*
X70213Y261364D01*
X70567Y260703D01*
X71043Y260123D01*
X97681Y233485D01*
X97873Y233293D01*
X98633Y232501D01*
X99380Y231196D01*
X99618Y230055D01*
Y211870D01*
X119778D01*
Y229631D01*
X119778Y232030D01*
X122259Y232171D01*
X145314D01*
X146061Y232245D01*
X146779Y232463D01*
X147441Y232817D01*
X148021Y233293D01*
X162115Y247387D01*
X162787D01*
X163857Y247600D01*
X164865Y248018D01*
X165773Y248624D01*
X166544Y249396D01*
X167151Y250303D01*
X167568Y251311D01*
X167781Y252381D01*
Y253473D01*
X167568Y254543D01*
X167151Y255551D01*
X166544Y256459D01*
X165773Y257230D01*
X164865Y257836D01*
X163857Y258254D01*
X162787Y258467D01*
X161696D01*
X160625Y258254D01*
X159617Y257836D01*
X158710Y257230D01*
X157938Y256459D01*
X157332Y255551D01*
X156914Y254543D01*
X156701Y253473D01*
Y252801D01*
X143728Y239828D01*
X119778D01*
Y257430D01*
X99618D01*
Y245695D01*
X97271Y244723D01*
X77578Y264415D01*
Y514414D01*
X94586Y531422D01*
X185250D01*
X185997Y531495D01*
X186715Y531713D01*
X187377Y532067D01*
X187957Y532543D01*
X259541Y604127D01*
X260017Y604707D01*
X260371Y605369D01*
X260384Y605412D01*
X261159Y605514D01*
X262430Y605854D01*
X263645Y606357D01*
X264784Y607015D01*
X265827Y607816D01*
X266757Y608746D01*
X267558Y609789D01*
X268215Y610928D01*
X268718Y612143D01*
X269059Y613414D01*
X269231Y614717D01*
Y616033D01*
X269059Y617337D01*
X268718Y618607D01*
X268215Y619822D01*
X267558Y620961D01*
X266757Y622004D01*
X265827Y622934D01*
X264784Y623735D01*
X263645Y624393D01*
X262430Y624896D01*
X261159Y625236D01*
X259855Y625408D01*
D02*
G37*
G36*
X119778Y206630D02*
X110968D01*
Y197820D01*
X119778D01*
Y206630D01*
D02*
G37*
G36*
X108428D02*
X99618D01*
Y197820D01*
X108428D01*
Y206630D01*
D02*
G37*
G36*
X297578Y195280D02*
X288768D01*
Y186470D01*
X297578D01*
Y195280D01*
D02*
G37*
G36*
X286228D02*
X277418D01*
Y186470D01*
X286228D01*
Y195280D01*
D02*
G37*
G36*
X119778D02*
X110968D01*
Y186470D01*
X119778D01*
Y195280D01*
D02*
G37*
G36*
X108428D02*
X99618D01*
Y186470D01*
X108428D01*
Y195280D01*
D02*
G37*
G36*
X297578Y181230D02*
X277418D01*
Y161070D01*
X297578D01*
Y181230D01*
D02*
G37*
G36*
X886727Y218196D02*
X856647D01*
Y187616D01*
X858130D01*
X858969Y185076D01*
X858427Y184674D01*
X856849Y183244D01*
X855420Y181667D01*
X854152Y179957D01*
X853057Y178131D01*
X852147Y176207D01*
X851430Y174203D01*
X850913Y172138D01*
X850600Y170032D01*
X850496Y167906D01*
X850600Y165780D01*
X850913Y163674D01*
X851430Y161609D01*
X852063Y159839D01*
X851464Y158643D01*
X850290Y157591D01*
X848221Y157863D01*
X845687Y157974D01*
X843154Y157863D01*
X840640Y157532D01*
X838164Y156983D01*
X835746Y156221D01*
X833403Y155250D01*
X831154Y154079D01*
X829015Y152717D01*
X827003Y151173D01*
X825134Y149460D01*
X823420Y147590D01*
X821877Y145579D01*
X820514Y143440D01*
X819343Y141191D01*
X818373Y138848D01*
X817610Y136429D01*
X817061Y133954D01*
X816730Y131440D01*
X816620Y128906D01*
X816730Y126373D01*
X817061Y123858D01*
X817610Y121383D01*
X818373Y118964D01*
X819343Y116622D01*
X820514Y114372D01*
X821877Y112233D01*
X823420Y110222D01*
X825134Y108352D01*
X827003Y106639D01*
X829015Y105095D01*
X831154Y103733D01*
X833403Y102562D01*
X835746Y101591D01*
X838164Y100829D01*
X840640Y100280D01*
X843154Y99949D01*
X845687Y99838D01*
X848221Y99949D01*
X850735Y100280D01*
X853211Y100829D01*
X855629Y101591D01*
X857972Y102562D01*
X860221Y103733D01*
X862360Y105095D01*
X864372Y106639D01*
X866241Y108352D01*
X867955Y110222D01*
X869498Y112233D01*
X870861Y114372D01*
X872032Y116622D01*
X873002Y118964D01*
X873765Y121383D01*
X874314Y123858D01*
X874644Y126373D01*
X874755Y128906D01*
X874644Y131440D01*
X874314Y133954D01*
X873765Y136429D01*
X873002Y138848D01*
X872032Y141191D01*
X870861Y143440D01*
X870666Y143746D01*
X872102Y146219D01*
X872187Y146215D01*
X874314Y146319D01*
X876419Y146631D01*
X878484Y147149D01*
X880488Y147866D01*
X882413Y148776D01*
X884239Y149870D01*
X885948Y151138D01*
X887526Y152568D01*
X888955Y154145D01*
X890223Y155855D01*
X891318Y157681D01*
X892228Y159605D01*
X892945Y161609D01*
X893462Y163674D01*
X893774Y165780D01*
X893879Y167906D01*
X893774Y170032D01*
X893462Y172138D01*
X892945Y174203D01*
X892228Y176207D01*
X891318Y178131D01*
X890223Y179957D01*
X888955Y181667D01*
X887526Y183244D01*
X885948Y184674D01*
X885406Y185076D01*
X886245Y187616D01*
X886727D01*
Y218196D01*
D02*
G37*
G36*
X59830Y169180D02*
X39670D01*
Y149020D01*
X59830D01*
Y169180D01*
D02*
G37*
G36*
X209198Y627771D02*
X208451Y627697D01*
X207733Y627479D01*
X207071Y627126D01*
X206490Y626649D01*
X206014Y626069D01*
X205661Y625407D01*
X205443Y624689D01*
X205442Y624679D01*
X204751Y624393D01*
X203612Y623735D01*
X202568Y622934D01*
X201638Y622004D01*
X200837Y620961D01*
X200180Y619822D01*
X199677Y618607D01*
X199336Y617337D01*
X199165Y616033D01*
Y614717D01*
X199336Y613414D01*
X199677Y612143D01*
X200180Y610928D01*
X200837Y609789D01*
X201638Y608746D01*
X202568Y607816D01*
X203612Y607015D01*
X204751Y606357D01*
X205369Y606101D01*
Y588033D01*
X167914Y550578D01*
X86500D01*
X85753Y550505D01*
X85035Y550287D01*
X84373Y549933D01*
X83793Y549457D01*
X59293Y524957D01*
X58817Y524377D01*
X58463Y523715D01*
X58245Y522997D01*
X58172Y522250D01*
Y473980D01*
X51020D01*
Y463900D01*
Y453820D01*
X58172D01*
Y448580D01*
X39670D01*
Y428420D01*
X58172D01*
Y423180D01*
X39670D01*
Y403020D01*
X58172D01*
Y397780D01*
X39670D01*
Y377620D01*
X58172D01*
Y372380D01*
X39670D01*
Y352220D01*
X58172D01*
Y346980D01*
X39670D01*
Y326820D01*
X58172D01*
Y321580D01*
X39670D01*
Y301420D01*
X58172D01*
Y296180D01*
X51020D01*
Y286100D01*
Y276020D01*
X58172D01*
Y270780D01*
X39670D01*
Y250620D01*
X58172D01*
Y245380D01*
X39670D01*
Y225220D01*
X58172D01*
Y219980D01*
X39670D01*
Y199820D01*
X58172D01*
Y194750D01*
X58018Y194580D01*
X39670D01*
Y174420D01*
X59830D01*
Y188187D01*
X62177Y189159D01*
X94243Y157093D01*
X94823Y156617D01*
X95485Y156263D01*
X96203Y156045D01*
X96950Y155971D01*
X97136D01*
X99618Y155830D01*
X99618Y153431D01*
Y135670D01*
X119778D01*
Y153431D01*
X119778Y155830D01*
X122259Y155971D01*
X146344D01*
X147091Y156045D01*
X147809Y156263D01*
X148471Y156617D01*
X149051Y157093D01*
X163021Y171063D01*
X163692D01*
X164763Y171276D01*
X165771Y171694D01*
X166678Y172300D01*
X167450Y173072D01*
X168056Y173979D01*
X168474Y174987D01*
X168687Y176057D01*
Y177149D01*
X168474Y178219D01*
X168056Y179227D01*
X167450Y180135D01*
X166678Y180906D01*
X165771Y181513D01*
X164763Y181930D01*
X163692Y182143D01*
X162601D01*
X161531Y181930D01*
X160523Y181513D01*
X159615Y180906D01*
X158844Y180135D01*
X158237Y179227D01*
X157820Y178219D01*
X157607Y177149D01*
Y176477D01*
X144758Y163628D01*
X119778D01*
Y181230D01*
X99618D01*
Y166138D01*
X97078Y165086D01*
X65828Y196336D01*
Y520664D01*
X88086Y542922D01*
X169500D01*
X170247Y542995D01*
X170965Y543213D01*
X171627Y543567D01*
X172207Y544043D01*
X211905Y583741D01*
X212381Y584321D01*
X212735Y584982D01*
X212952Y585701D01*
X213026Y586448D01*
Y606101D01*
X213645Y606357D01*
X214784Y607015D01*
X215827Y607816D01*
X216757Y608746D01*
X217558Y609789D01*
X218215Y610928D01*
X218718Y612143D01*
X219059Y613414D01*
X219231Y614717D01*
Y616033D01*
X219059Y617337D01*
X218718Y618607D01*
X218215Y619822D01*
X217558Y620961D01*
X216757Y622004D01*
X215827Y622934D01*
X214784Y623735D01*
X213645Y624393D01*
X212953Y624679D01*
X212952Y624689D01*
X212735Y625407D01*
X212381Y626069D01*
X211905Y626649D01*
X211325Y627126D01*
X210663Y627479D01*
X209944Y627697D01*
X209198Y627771D01*
D02*
G37*
G36*
X377546Y244540D02*
X376454D01*
X375384Y244327D01*
X374376Y243909D01*
X373469Y243303D01*
X372697Y242532D01*
X372090Y241624D01*
X371673Y240616D01*
X371460Y239546D01*
Y238874D01*
X326293Y193707D01*
X325817Y193127D01*
X325463Y192465D01*
X325245Y191747D01*
X325172Y191000D01*
Y149588D01*
X311112Y135528D01*
X300059D01*
X297578Y135670D01*
X297578Y138068D01*
Y155830D01*
X277418D01*
Y138068D01*
X277418Y135670D01*
X274937Y135528D01*
X272264D01*
X271517Y135455D01*
X270799Y135237D01*
X270137Y134883D01*
X269557Y134407D01*
X263806Y128656D01*
X263134D01*
X262064Y128443D01*
X261056Y128025D01*
X260148Y127419D01*
X259377Y126647D01*
X258770Y125740D01*
X258353Y124732D01*
X258140Y123661D01*
Y122570D01*
X258353Y121500D01*
X258770Y120492D01*
X259377Y119584D01*
X260148Y118813D01*
X261056Y118206D01*
X262064Y117789D01*
X263134Y117576D01*
X264226D01*
X265296Y117789D01*
X266304Y118206D01*
X267211Y118813D01*
X267983Y119584D01*
X268589Y120492D01*
X269007Y121500D01*
X269220Y122570D01*
Y123242D01*
X273850Y127871D01*
X277418D01*
Y112245D01*
X277180Y111104D01*
X276433Y109799D01*
X275672Y109007D01*
X275480Y108815D01*
X261991Y95325D01*
X261515Y94745D01*
X261161Y94083D01*
X260943Y93365D01*
X260869Y92618D01*
Y86706D01*
X260395Y86231D01*
X259788Y85324D01*
X259371Y84316D01*
X259158Y83245D01*
Y82154D01*
X259371Y81084D01*
X259788Y80076D01*
X260395Y79168D01*
X261166Y78397D01*
X262074Y77790D01*
X263082Y77373D01*
X264152Y77160D01*
X265204Y74620D01*
X263491Y72907D01*
X263015Y72327D01*
X262661Y71665D01*
X262443Y70947D01*
X262369Y70200D01*
Y45956D01*
X261895Y45481D01*
X261288Y44574D01*
X260871Y43566D01*
X260658Y42495D01*
Y41404D01*
X260871Y40334D01*
X261288Y39326D01*
X261895Y38418D01*
X262666Y37647D01*
X263574Y37040D01*
X264582Y36623D01*
X265652Y36410D01*
X266744D01*
X267814Y36623D01*
X268822Y37040D01*
X269729Y37647D01*
X270501Y38418D01*
X271107Y39326D01*
X271525Y40334D01*
X271738Y41404D01*
Y42495D01*
X271525Y43566D01*
X271107Y44574D01*
X270501Y45481D01*
X270026Y45956D01*
Y68614D01*
X275071Y73659D01*
X277418Y72687D01*
Y70820D01*
X287498D01*
X297578D01*
Y79630D01*
X300059Y79771D01*
X339598D01*
X340345Y79845D01*
X341063Y80063D01*
X341725Y80417D01*
X342305Y80893D01*
X368655Y107243D01*
X369131Y107823D01*
X369485Y108485D01*
X369703Y109203D01*
X369776Y109950D01*
Y178898D01*
X370251Y179373D01*
X370857Y180280D01*
X371275Y181288D01*
X371488Y182358D01*
Y183450D01*
X371275Y184520D01*
X370857Y185528D01*
X370251Y186436D01*
X369479Y187207D01*
X368572Y187814D01*
X367564Y188231D01*
X366493Y188444D01*
X365402D01*
X364332Y188231D01*
X363324Y187814D01*
X362416Y187207D01*
X361645Y186436D01*
X361038Y185528D01*
X360621Y184520D01*
X360408Y183450D01*
Y182358D01*
X360621Y181288D01*
X361038Y180280D01*
X361645Y179373D01*
X362119Y178898D01*
Y111536D01*
X338012Y87428D01*
X297578D01*
Y102471D01*
X324548D01*
X325295Y102545D01*
X326013Y102763D01*
X326675Y103117D01*
X327255Y103593D01*
X351707Y128045D01*
X352183Y128625D01*
X352537Y129287D01*
X352755Y130005D01*
X352828Y130752D01*
Y190743D01*
X375874Y213788D01*
X376546D01*
X377616Y214001D01*
X378624Y214419D01*
X379532Y215025D01*
X380303Y215797D01*
X380910Y216704D01*
X381327Y217712D01*
X381540Y218783D01*
Y219874D01*
X381327Y220944D01*
X380910Y221953D01*
X380303Y222860D01*
X379532Y223632D01*
X378624Y224238D01*
X377616Y224655D01*
X376546Y224868D01*
X375454D01*
X374384Y224655D01*
X373376Y224238D01*
X372468Y223632D01*
X371697Y222860D01*
X371091Y221953D01*
X370673Y220944D01*
X370460Y219874D01*
Y219203D01*
X346293Y195035D01*
X345817Y194455D01*
X345463Y193794D01*
X345245Y193075D01*
X345172Y192328D01*
Y132338D01*
X322962Y110128D01*
X300059D01*
X297578Y110270D01*
X297578Y112668D01*
Y127871D01*
X312698D01*
X313445Y127945D01*
X314163Y128163D01*
X314825Y128517D01*
X315405Y128993D01*
X331707Y145295D01*
X332183Y145875D01*
X332537Y146537D01*
X332755Y147255D01*
X332828Y148002D01*
Y189414D01*
X376874Y233460D01*
X377546D01*
X378616Y233673D01*
X379624Y234090D01*
X380532Y234697D01*
X381303Y235469D01*
X381909Y236376D01*
X382327Y237384D01*
X382540Y238454D01*
Y239546D01*
X382327Y240616D01*
X381909Y241624D01*
X381303Y242532D01*
X380532Y243303D01*
X379624Y243909D01*
X378616Y244327D01*
X377546Y244540D01*
D02*
G37*
G36*
X119778Y130430D02*
X99618D01*
Y110270D01*
X119778D01*
Y130430D01*
D02*
G37*
G36*
X615225Y99230D02*
X609855D01*
Y88960D01*
X615225D01*
Y99230D01*
D02*
G37*
G36*
X810088Y99180D02*
X804718D01*
Y88910D01*
X810088D01*
Y99180D01*
D02*
G37*
G36*
X422588D02*
X417218D01*
Y88910D01*
X422588D01*
Y99180D01*
D02*
G37*
G36*
X119778Y105030D02*
X99618D01*
Y84870D01*
X119778D01*
Y105030D01*
D02*
G37*
G36*
Y79630D02*
X110968D01*
Y70820D01*
X119778D01*
Y79630D01*
D02*
G37*
G36*
X108428D02*
X99618D01*
Y70820D01*
X108428D01*
Y79630D01*
D02*
G37*
G36*
X297578Y68280D02*
X288768D01*
Y59470D01*
X297578D01*
Y68280D01*
D02*
G37*
G36*
X286228D02*
X277418D01*
Y59470D01*
X286228D01*
Y68280D01*
D02*
G37*
G36*
X119778D02*
X110968D01*
Y59470D01*
X119778D01*
Y68280D01*
D02*
G37*
G36*
X108428D02*
X99618D01*
Y59470D01*
X108428D01*
Y68280D01*
D02*
G37*
G36*
X897688Y125848D02*
X895561Y125743D01*
X893456Y125431D01*
X891391Y124914D01*
X889387Y124196D01*
X887462Y123286D01*
X885636Y122192D01*
X883926Y120924D01*
X882349Y119494D01*
X880920Y117917D01*
X879652Y116207D01*
X878557Y114381D01*
X877647Y112457D01*
X876930Y110453D01*
X876413Y108388D01*
X876100Y106282D01*
X875996Y104156D01*
X876100Y102030D01*
X876413Y99924D01*
X876930Y97859D01*
X877647Y95855D01*
X878557Y93931D01*
X879652Y92105D01*
X880920Y90395D01*
X882349Y88818D01*
X883926Y87388D01*
X885480Y86236D01*
X885502Y85920D01*
X884354Y83696D01*
X883397D01*
Y53116D01*
X913477D01*
Y83696D01*
X911021D01*
X909873Y85920D01*
X909895Y86236D01*
X911448Y87388D01*
X913026Y88818D01*
X914455Y90395D01*
X915723Y92105D01*
X916818Y93931D01*
X917728Y95855D01*
X918445Y97859D01*
X918962Y99924D01*
X919275Y102030D01*
X919379Y104156D01*
X919275Y106282D01*
X918962Y108388D01*
X918445Y110453D01*
X917728Y112457D01*
X916818Y114381D01*
X915723Y116207D01*
X914455Y117917D01*
X913026Y119494D01*
X911448Y120924D01*
X909739Y122192D01*
X907913Y123286D01*
X905988Y124196D01*
X903984Y124914D01*
X901919Y125431D01*
X899814Y125743D01*
X897688Y125848D01*
D02*
G37*
G36*
X702725Y125763D02*
X700599Y125658D01*
X698493Y125346D01*
X696428Y124829D01*
X694424Y124111D01*
X692499Y123201D01*
X690674Y122107D01*
X688964Y120839D01*
X687387Y119409D01*
X685957Y117832D01*
X684689Y116122D01*
X683595Y114297D01*
X682684Y112372D01*
X681967Y110368D01*
X681450Y108303D01*
X681138Y106197D01*
X681033Y104071D01*
X681138Y101945D01*
X681450Y99839D01*
X681967Y97774D01*
X682684Y95770D01*
X683595Y93846D01*
X684689Y92020D01*
X685957Y90310D01*
X687387Y88733D01*
X688964Y87303D01*
X690518Y86151D01*
X690539Y85836D01*
X689391Y83611D01*
X688435D01*
Y53031D01*
X718515D01*
Y83611D01*
X716058D01*
X714910Y85836D01*
X714932Y86151D01*
X716486Y87303D01*
X718063Y88733D01*
X719492Y90310D01*
X720761Y92020D01*
X721855Y93846D01*
X722765Y95770D01*
X723482Y97774D01*
X723999Y99839D01*
X724312Y101945D01*
X724416Y104071D01*
X724312Y106197D01*
X723999Y108303D01*
X723482Y110368D01*
X722765Y112372D01*
X721855Y114297D01*
X720761Y116122D01*
X719492Y117832D01*
X718063Y119409D01*
X716486Y120839D01*
X714776Y122107D01*
X712950Y123201D01*
X711026Y124111D01*
X709022Y124829D01*
X706957Y125346D01*
X704851Y125658D01*
X702725Y125763D01*
D02*
G37*
G36*
X509717Y125098D02*
X507591Y124993D01*
X505486Y124681D01*
X503421Y124163D01*
X501416Y123446D01*
X499492Y122536D01*
X497666Y121442D01*
X495956Y120174D01*
X494379Y118744D01*
X492950Y117167D01*
X491682Y115457D01*
X490587Y113631D01*
X489677Y111707D01*
X488960Y109703D01*
X488443Y107638D01*
X488130Y105532D01*
X488026Y103406D01*
X488130Y101280D01*
X488443Y99174D01*
X488960Y97109D01*
X489677Y95105D01*
X490587Y93181D01*
X491682Y91355D01*
X492950Y89645D01*
X494379Y88068D01*
X495956Y86638D01*
X497510Y85486D01*
X497532Y85170D01*
X496384Y82946D01*
X495427D01*
Y52366D01*
X525507D01*
Y82946D01*
X523051D01*
X521903Y85170D01*
X521925Y85486D01*
X523478Y86638D01*
X525056Y88068D01*
X526485Y89645D01*
X527753Y91355D01*
X528848Y93181D01*
X529758Y95105D01*
X530475Y97109D01*
X530992Y99174D01*
X531304Y101280D01*
X531409Y103406D01*
X531304Y105532D01*
X530992Y107638D01*
X530475Y109703D01*
X529758Y111707D01*
X528848Y113631D01*
X527753Y115457D01*
X526485Y117167D01*
X525056Y118744D01*
X523478Y120174D01*
X521769Y121442D01*
X519943Y122536D01*
X518018Y123446D01*
X516014Y124163D01*
X513949Y124681D01*
X511844Y124993D01*
X509717Y125098D01*
D02*
G37*
G36*
X297578Y54230D02*
X277418D01*
Y34070D01*
X297578D01*
Y54230D01*
D02*
G37*
G36*
X119778D02*
X99618D01*
Y34070D01*
X119778D01*
Y54230D01*
D02*
G37*
G36*
X960788Y63609D02*
X958451Y63494D01*
X956137Y63151D01*
X953868Y62582D01*
X951665Y61794D01*
X949550Y60794D01*
X947544Y59591D01*
X945665Y58197D01*
X943931Y56626D01*
X942360Y54893D01*
X940967Y53014D01*
X939764Y51007D01*
X938764Y48893D01*
X937976Y46690D01*
X937407Y44421D01*
X937064Y42106D01*
X936949Y39770D01*
X937064Y37433D01*
X937407Y35119D01*
X937976Y32850D01*
X938764Y30647D01*
X939764Y28532D01*
X940967Y26526D01*
X942360Y24647D01*
X943931Y22913D01*
X945665Y21342D01*
X947544Y19949D01*
X949550Y18746D01*
X951665Y17746D01*
X953868Y16958D01*
X956137Y16389D01*
X958451Y16046D01*
X960788Y15931D01*
X963124Y16046D01*
X965439Y16389D01*
X967708Y16958D01*
X969911Y17746D01*
X972025Y18746D01*
X974032Y19949D01*
X975911Y21342D01*
X977644Y22913D01*
X979215Y24647D01*
X980609Y26526D01*
X981812Y28532D01*
X982812Y30647D01*
X983600Y32850D01*
X984168Y35119D01*
X984512Y37433D01*
X984627Y39770D01*
X984512Y42106D01*
X984168Y44421D01*
X983600Y46690D01*
X982812Y48893D01*
X981812Y51007D01*
X980609Y53014D01*
X979215Y54893D01*
X977644Y56626D01*
X975911Y58197D01*
X974032Y59591D01*
X972025Y60794D01*
X969911Y61794D01*
X967708Y62582D01*
X965439Y63151D01*
X963124Y63494D01*
X960788Y63609D01*
D02*
G37*
G36*
X39388D02*
X37051Y63494D01*
X34737Y63151D01*
X32468Y62582D01*
X30265Y61794D01*
X28151Y60794D01*
X26144Y59591D01*
X24265Y58197D01*
X22532Y56626D01*
X20961Y54893D01*
X19567Y53014D01*
X18364Y51007D01*
X17364Y48893D01*
X16576Y46690D01*
X16007Y44421D01*
X15664Y42106D01*
X15549Y39770D01*
X15664Y37433D01*
X16007Y35119D01*
X16576Y32850D01*
X17364Y30647D01*
X18364Y28532D01*
X19567Y26526D01*
X20961Y24647D01*
X22532Y22913D01*
X24265Y21342D01*
X26144Y19949D01*
X28151Y18746D01*
X30265Y17746D01*
X32468Y16958D01*
X34737Y16389D01*
X37051Y16046D01*
X39388Y15931D01*
X41725Y16046D01*
X44039Y16389D01*
X46308Y16958D01*
X48511Y17746D01*
X50626Y18746D01*
X52632Y19949D01*
X54511Y21342D01*
X56245Y22913D01*
X57816Y24647D01*
X59209Y26526D01*
X60412Y28532D01*
X61412Y30647D01*
X62200Y32850D01*
X62769Y35119D01*
X63112Y37433D01*
X63227Y39770D01*
X63112Y42106D01*
X62769Y44421D01*
X62200Y46690D01*
X61412Y48893D01*
X60412Y51007D01*
X59209Y53014D01*
X57816Y54893D01*
X56245Y56626D01*
X54511Y58197D01*
X52632Y59591D01*
X50626Y60794D01*
X48511Y61794D01*
X46308Y62582D01*
X44039Y63151D01*
X41725Y63494D01*
X39388Y63609D01*
D02*
G37*
%LPD*%
D32*
X209198Y615375D02*
D03*
X234198D02*
D03*
X259198D02*
D03*
X209198Y760375D02*
D03*
X259198D02*
D03*
D34*
X337500Y682500D02*
Y758500D01*
X302500Y647500D02*
X337500Y682500D01*
X141810Y284131D02*
Y371060D01*
X272100Y501350D01*
X111250Y673250D02*
X128000Y690000D01*
X111250Y569000D02*
Y673250D01*
X118716Y335000D02*
X127500Y326216D01*
Y276250D02*
Y326216D01*
X89500Y345304D02*
Y510500D01*
Y345304D02*
X99804Y335000D01*
X118716D01*
X127500Y276250D02*
X145000Y258750D01*
X207340Y522340D02*
X277500Y592500D01*
X209198Y715684D02*
X277500Y647381D01*
Y592500D02*
Y647381D01*
X340000Y380000D02*
Y541884D01*
X393272Y595156D01*
X294900Y334900D02*
X340000Y380000D01*
X278380Y334900D02*
X294900D01*
X297335Y490000D02*
X302500Y495165D01*
Y647500D01*
X290000Y660000D02*
X325000Y695000D01*
X290000Y580000D02*
Y660000D01*
X253085Y543085D02*
X290000Y580000D01*
X253085Y523500D02*
Y543085D01*
X325000Y773445D02*
X326615Y775060D01*
Y775997D01*
X325000Y695000D02*
Y773445D01*
X315000Y630000D02*
X350000Y665000D01*
X315000Y482984D02*
Y630000D01*
X295266Y463250D02*
X315000Y482984D01*
X101340Y522340D02*
X207340D01*
X169500Y546750D02*
X209198Y586448D01*
Y623942D01*
X185250Y535250D02*
X256834Y606834D01*
Y613011D02*
X259198Y615375D01*
X93000Y535250D02*
X185250D01*
X256834Y606834D02*
Y613011D01*
X256385Y612384D02*
Y620693D01*
X256192Y620885D02*
X256385Y620693D01*
X209198Y715684D02*
Y760375D01*
X350000Y665000D02*
Y747750D01*
X272100Y501350D02*
X287498D01*
X264086Y477836D02*
X276250Y490000D01*
X263233Y449883D02*
X276600Y463250D01*
X264086Y467551D02*
Y477836D01*
X226585Y420419D02*
X275846Y469680D01*
X226585Y269085D02*
Y420419D01*
X276600Y463250D02*
X295266D01*
X263233Y425034D02*
Y449883D01*
X275846Y469680D02*
X281228D01*
X329438Y69550D02*
X336488Y62500D01*
X287498Y69550D02*
X329438D01*
X336488Y62500D02*
X370500D01*
X62000Y194750D02*
X96950Y159800D01*
X62000Y194750D02*
Y522250D01*
X96950Y159800D02*
X146344D01*
X363500Y351750D02*
X401250Y389500D01*
X363500Y254502D02*
Y351750D01*
X538500Y99750D02*
Y179287D01*
X486782Y231005D02*
X538500Y179287D01*
X486782Y231005D02*
Y309606D01*
X512500Y335324D01*
Y427985D01*
X486782Y453703D02*
X512500Y427985D01*
X486782Y453703D02*
Y507356D01*
X507153Y527727D01*
Y625356D01*
X415448Y546450D02*
Y656637D01*
X399835Y672250D02*
X415448Y656637D01*
X400500Y279500D02*
X415948Y264052D01*
Y153950D02*
Y264052D01*
X329000Y191000D02*
X377000Y239000D01*
X329000Y148002D02*
Y191000D01*
X349000Y130752D02*
Y192328D01*
X376000Y219328D01*
X312698Y131700D02*
X329000Y148002D01*
X324548Y106300D02*
X349000Y130752D01*
X327090Y574068D02*
X381608Y628586D01*
X327090Y418874D02*
Y574068D01*
X332170Y556170D02*
X388000Y612000D01*
X299298Y360300D02*
X332170Y393172D01*
Y556170D01*
X296616Y388400D02*
X327090Y418874D01*
X350500Y295002D02*
Y381744D01*
X390796Y422040D01*
X315198Y259700D02*
X350500Y295002D01*
X357500Y365000D02*
X399500Y407000D01*
X308548Y233300D02*
X357500Y282252D01*
Y365000D01*
X318248Y209250D02*
X363500Y254502D01*
X277748Y209250D02*
X318248D01*
X263581Y195083D02*
X277748Y209250D01*
X263581Y165117D02*
Y195083D01*
X276250Y490000D02*
X297335D01*
X281228Y469680D02*
X287498Y475950D01*
X559500Y78750D02*
X585500D01*
X593585Y86835D01*
Y100500D01*
X538500Y99750D02*
X559500Y78750D01*
X426577Y705931D02*
X507153Y625356D01*
X141250Y183750D02*
X226585Y269085D01*
X73750Y516000D02*
X93000Y535250D01*
X89500Y510500D02*
X101340Y522340D01*
X73750Y262830D02*
Y516000D01*
X62000Y522250D02*
X86500Y546750D01*
X169500D01*
X73750Y262830D02*
X100580Y236000D01*
X788250Y154148D02*
Y168750D01*
Y154148D02*
X788448Y153950D01*
X594236Y349238D02*
Y363649D01*
X594198Y349200D02*
X594236Y349238D01*
X593585Y154000D02*
X593663Y154078D01*
Y168455D01*
X384250Y71500D02*
X400948Y88198D01*
X370750Y71500D02*
X384250D01*
X400500Y295665D02*
X400585Y295750D01*
X400500Y279500D02*
Y295665D01*
X593085Y546500D02*
X593302Y546717D01*
Y561071D01*
X788676Y349678D02*
Y362459D01*
X788198Y349200D02*
X788676Y349678D01*
X788500Y546752D02*
Y561250D01*
X788198Y546450D02*
X788500Y546752D01*
X788448Y743450D02*
X788928Y743930D01*
Y758788D01*
X593835Y743500D02*
X594358Y744023D01*
Y758354D01*
X399835Y743500D02*
X400186Y743851D01*
Y758923D01*
X400864Y546866D02*
Y561597D01*
X400448Y546450D02*
X400864Y546866D01*
X400274Y349561D02*
X400585Y349250D01*
X400274Y349561D02*
Y365196D01*
X400948Y153950D02*
X401250Y154252D01*
Y171500D01*
X400948Y88198D02*
Y100450D01*
X142097Y132849D02*
X145349D01*
X243000Y230500D02*
Y380652D01*
X141448Y132200D02*
X142097Y132849D01*
X145349D02*
X243000Y230500D01*
X146344Y159800D02*
X163147Y176603D01*
X100580Y236000D02*
X145314D01*
X162241Y252927D01*
X243000Y380652D02*
X287498Y425150D01*
X788198Y270802D02*
Y295700D01*
Y270802D02*
X803448Y255552D01*
Y153950D02*
Y255552D01*
X594000Y251750D02*
X609025Y236725D01*
Y154123D02*
Y236725D01*
X594000Y251750D02*
Y295502D01*
X593835Y643665D02*
Y690000D01*
Y643665D02*
X608085Y629415D01*
Y546500D02*
Y629415D01*
X593085Y462915D02*
Y493000D01*
Y462915D02*
X609198Y446802D01*
Y349200D02*
Y446802D01*
X414835Y743500D02*
X421750D01*
X426577Y705931D02*
Y738673D01*
X421750Y743500D02*
X426577Y738673D01*
X594000Y295502D02*
X594198Y295700D01*
X399835Y672250D02*
Y690000D01*
X609025Y154123D02*
X609198Y153950D01*
X279410Y388400D02*
X296616D01*
X263619Y372608D02*
X279410Y388400D01*
X278380Y360300D02*
X299298D01*
X263448Y345368D02*
X278380Y360300D01*
X263448Y331450D02*
Y345368D01*
X263198Y319718D02*
X278380Y334900D01*
X263198Y289950D02*
Y319718D01*
X279380Y259700D02*
X315198D01*
X265138Y245458D02*
X279380Y259700D01*
X265138Y238450D02*
Y245458D01*
X263638Y218558D02*
X278380Y233300D01*
X263638Y206172D02*
Y218558D01*
X278380Y233300D02*
X308548D01*
X278380Y106300D02*
X324548D01*
X339598Y83600D02*
X365948Y109950D01*
Y182904D01*
X272264Y131700D02*
X312698D01*
X263680Y123116D02*
X272264Y131700D01*
X264698Y92618D02*
X278380Y106300D01*
X264698Y82700D02*
Y92618D01*
X279598Y83600D02*
X339598D01*
X266198Y70200D02*
X279598Y83600D01*
X266198Y41950D02*
Y70200D01*
D35*
X650990Y718914D02*
D03*
X845687Y718766D02*
D03*
X457717Y128156D02*
D03*
X650725Y128821D02*
D03*
X845687Y128906D02*
D03*
X457717Y323406D02*
D03*
X651217Y323906D02*
D03*
X845687Y323910D02*
D03*
X457717Y521156D02*
D03*
X650256Y521663D02*
D03*
X846008Y522576D02*
D03*
X456887Y718486D02*
D03*
D36*
X677490Y757914D02*
D03*
X702990Y694164D02*
D03*
X897688Y694016D02*
D03*
X872187Y757766D02*
D03*
X509717Y103406D02*
D03*
X484217Y167156D02*
D03*
X702725Y104071D02*
D03*
X677225Y167821D02*
D03*
X872187Y167906D02*
D03*
X897688Y104156D02*
D03*
X484217Y362406D02*
D03*
X509717Y298656D02*
D03*
X703217Y299156D02*
D03*
X677717Y362906D02*
D03*
X897688Y299160D02*
D03*
X872187Y362910D02*
D03*
X484217Y560156D02*
D03*
X509717Y496406D02*
D03*
X676756Y560663D02*
D03*
X702256Y496913D02*
D03*
X872507Y561576D02*
D03*
X898008Y497826D02*
D03*
X508887Y693736D02*
D03*
X483387Y757486D02*
D03*
D38*
X179198Y690375D02*
D03*
X289198D02*
D03*
D39*
X52000Y690000D02*
D03*
X128000D02*
D03*
D40*
X337500Y758500D02*
D03*
X141810Y284131D02*
D03*
X198500Y415750D02*
D03*
X197310Y437440D02*
D03*
X198500Y397720D02*
D03*
X198347Y377978D02*
D03*
X264086Y467551D02*
D03*
X253085Y523500D02*
D03*
X370500Y62500D02*
D03*
X401250Y389500D02*
D03*
X377000Y239000D02*
D03*
X376000Y219328D02*
D03*
X482441Y197504D02*
D03*
X365948Y182904D02*
D03*
X326615Y775997D02*
D03*
X350000Y747750D02*
D03*
X381608Y628586D02*
D03*
X484263Y389829D02*
D03*
X390796Y422040D02*
D03*
X399500Y407000D02*
D03*
X869250Y798500D02*
D03*
X674144Y799280D02*
D03*
X480750Y791750D02*
D03*
X481868Y594845D02*
D03*
X393272Y595156D02*
D03*
X388000Y612000D02*
D03*
X197319Y207313D02*
D03*
X199088Y251219D02*
D03*
X111250Y569000D02*
D03*
X788250Y168750D02*
D03*
X756000Y115500D02*
D03*
X594236Y363649D02*
D03*
X575750Y300500D02*
D03*
X593663Y168455D02*
D03*
X575500Y104500D02*
D03*
X370750Y71500D02*
D03*
X593302Y561071D02*
D03*
X575250Y498000D02*
D03*
X769300Y300655D02*
D03*
X788676Y362459D02*
D03*
X769500Y495250D02*
D03*
X788500Y561250D02*
D03*
X788928Y758788D02*
D03*
X770500Y693750D02*
D03*
X594358Y758354D02*
D03*
X576043Y695004D02*
D03*
X400186Y758923D02*
D03*
X381457Y693015D02*
D03*
X400864Y561597D02*
D03*
X381750Y497000D02*
D03*
X400274Y365196D02*
D03*
X382750Y298250D02*
D03*
X401250Y171500D02*
D03*
X382000Y100500D02*
D03*
X263233Y425034D02*
D03*
X145000Y258750D02*
D03*
X173896Y122689D02*
D03*
X175750Y313250D02*
D03*
X173250Y293250D02*
D03*
X173298Y198403D02*
D03*
X199749Y177618D02*
D03*
X162241Y252927D02*
D03*
X141250Y183750D02*
D03*
X163147Y176603D02*
D03*
X198500Y82000D02*
D03*
X905500Y67000D02*
D03*
X891250Y66750D02*
D03*
X709750D02*
D03*
X697500D02*
D03*
X517000Y66000D02*
D03*
X503800Y66286D02*
D03*
X868175Y202041D02*
D03*
X675997Y206928D02*
D03*
X869750Y597000D02*
D03*
X672750Y594500D02*
D03*
X868000Y399500D02*
D03*
X674253Y398419D02*
D03*
X141448Y132200D02*
D03*
X503948Y456450D02*
D03*
X265138Y238450D02*
D03*
X264698Y82700D02*
D03*
X266198Y41950D02*
D03*
X263619Y372608D02*
D03*
X263581Y165117D02*
D03*
X263448Y331450D02*
D03*
X263198Y289950D02*
D03*
X263638Y206172D02*
D03*
X263680Y123116D02*
D03*
X198769Y227064D02*
D03*
X198500Y353000D02*
D03*
Y497200D02*
D03*
Y477304D02*
D03*
Y457408D02*
D03*
X198750Y288750D02*
D03*
X197398Y272806D02*
D03*
X198750Y310000D02*
D03*
X197398Y332493D02*
D03*
Y164511D02*
D03*
Y145040D02*
D03*
X198500Y122750D02*
D03*
Y102500D02*
D03*
Y59492D02*
D03*
Y39596D02*
D03*
Y19700D02*
D03*
X905448Y650700D02*
D03*
X891698D02*
D03*
X710448D02*
D03*
X697448Y650950D02*
D03*
X515198Y649950D02*
D03*
X501948D02*
D03*
X904698Y456950D02*
D03*
X892448D02*
D03*
X708948Y455700D02*
D03*
X696597Y456001D02*
D03*
X516198Y456200D02*
D03*
Y257700D02*
D03*
X503698D02*
D03*
X696948Y258950D02*
D03*
X711448Y259200D02*
D03*
X891698Y258450D02*
D03*
X905948Y258700D02*
D03*
D41*
X608585Y100500D02*
D03*
X593585D02*
D03*
Y154000D02*
D03*
X608585D02*
D03*
X803448Y153950D02*
D03*
X788448D02*
D03*
Y100450D02*
D03*
X803448D02*
D03*
X803198Y295700D02*
D03*
X788198D02*
D03*
Y349200D02*
D03*
X803198D02*
D03*
X609198D02*
D03*
X594198D02*
D03*
Y295700D02*
D03*
X609198D02*
D03*
X415585Y349250D02*
D03*
X400585D02*
D03*
Y295750D02*
D03*
X415585D02*
D03*
X415448Y492950D02*
D03*
X400448D02*
D03*
Y546450D02*
D03*
X415448D02*
D03*
X608085Y493000D02*
D03*
X593085D02*
D03*
Y546500D02*
D03*
X608085D02*
D03*
X415948Y100450D02*
D03*
X400948D02*
D03*
Y153950D02*
D03*
X415948D02*
D03*
X414835Y743500D02*
D03*
X399835D02*
D03*
Y690000D02*
D03*
X414835D02*
D03*
X608835Y743500D02*
D03*
X593835D02*
D03*
Y690000D02*
D03*
X608835D02*
D03*
X803198Y546450D02*
D03*
X788198D02*
D03*
Y492950D02*
D03*
X803198D02*
D03*
X803448Y689950D02*
D03*
X788448D02*
D03*
Y743450D02*
D03*
X803448D02*
D03*
D42*
X676990Y792914D02*
D03*
X703740Y658414D02*
D03*
X871687Y792766D02*
D03*
X898437Y658266D02*
D03*
X483717Y202156D02*
D03*
X510467Y67656D02*
D03*
X676725Y202821D02*
D03*
X703475Y68321D02*
D03*
X871687Y202906D02*
D03*
X898437Y68406D02*
D03*
X483717Y397406D02*
D03*
X510467Y262906D02*
D03*
X677217Y397906D02*
D03*
X703967Y263406D02*
D03*
X871687Y397910D02*
D03*
X898437Y263410D02*
D03*
X510467Y460656D02*
D03*
X483717Y595156D02*
D03*
X676256Y595663D02*
D03*
X703006Y461163D02*
D03*
X872008Y596576D02*
D03*
X898757Y462076D02*
D03*
X482887Y792486D02*
D03*
X509637Y657986D02*
D03*
D43*
X667250Y266250D02*
X699790Y233710D01*
Y147710D02*
Y233710D01*
Y147710D02*
X747889Y99611D01*
Y99611D02*
X787609D01*
X667250Y266250D02*
Y297597D01*
X709250Y339597D01*
Y415750D01*
X667500Y457500D02*
Y496565D01*
Y457500D02*
X709250Y415750D01*
X621050Y696950D02*
X699321Y618679D01*
Y528387D02*
Y618679D01*
X621050Y696950D02*
Y738450D01*
X667500Y496565D02*
X699321Y528387D01*
X400000Y477750D02*
X415585Y462165D01*
Y349250D02*
Y462165D01*
X787609Y99611D02*
X788448Y100450D01*
X400000Y492502D02*
X400448Y492950D01*
X400000Y477750D02*
Y492502D01*
X788198Y396302D02*
Y492950D01*
X803198Y349200D02*
Y381302D01*
X788198Y396302D02*
X803198Y381302D01*
X788448Y649552D02*
X803198Y634802D01*
X788448Y649552D02*
Y689950D01*
X803198Y546450D02*
Y634802D01*
X616000Y743500D02*
X621050Y738450D01*
X608835Y743500D02*
X616000D01*
D44*
X109698Y18750D02*
D03*
Y44150D02*
D03*
Y69550D02*
D03*
Y120350D02*
D03*
Y94950D02*
D03*
Y323550D02*
D03*
Y298150D02*
D03*
Y450550D02*
D03*
Y348950D02*
D03*
Y399750D02*
D03*
Y425150D02*
D03*
Y374350D02*
D03*
Y475950D02*
D03*
Y501350D02*
D03*
Y196550D02*
D03*
Y221950D02*
D03*
Y272750D02*
D03*
Y247350D02*
D03*
Y145750D02*
D03*
Y171150D02*
D03*
X287498Y18750D02*
D03*
Y69550D02*
D03*
Y94950D02*
D03*
Y120350D02*
D03*
Y145750D02*
D03*
Y44150D02*
D03*
Y298150D02*
D03*
Y374350D02*
D03*
Y272750D02*
D03*
Y425150D02*
D03*
Y399750D02*
D03*
Y348950D02*
D03*
Y323550D02*
D03*
Y247350D02*
D03*
Y221950D02*
D03*
Y196550D02*
D03*
Y171150D02*
D03*
Y501350D02*
D03*
Y475950D02*
D03*
Y450550D02*
D03*
X49750Y463900D02*
D03*
Y438500D02*
D03*
Y413100D02*
D03*
Y362300D02*
D03*
Y387700D02*
D03*
Y184500D02*
D03*
Y286100D02*
D03*
Y260700D02*
D03*
Y209900D02*
D03*
Y235300D02*
D03*
Y336900D02*
D03*
Y311500D02*
D03*
Y159100D02*
D03*
M02*
