G04*
G04 #@! TF.GenerationSoftware,Altium Limited,Altium Designer,26.5.0 (11)*
G04*
G04 Layer_Color=16711935*
G04 Board_Origin=72964651|65651580*
%FSLAX44Y44*%
%MOMM*%
G71*
G04*
G04 #@! TF.SameCoordinates,0E16F24D-C74D-4210-9216-EA7F7333114A*
G04*
G04*
G04 #@! TF.FilePolarity,Negative*
G04*
G01*
G75*
%ADD28C,4.2926*%
%ADD29C,3.2032*%
%ADD31C,0.2032*%
%ADD32C,1.4986*%
%ADD33C,1.6112*%
%ADD45R,2.7032X2.7532*%
%ADD46R,1.0240X2.0040*%
%ADD47R,1.7080X1.7080*%
%ADD48C,0.5032*%
%ADD49C,0.8032*%
D28*
X657740Y728914D02*
D03*
X852437Y728766D02*
D03*
X464467Y138156D02*
D03*
X657475Y138821D02*
D03*
X852437Y138906D02*
D03*
X464467Y333406D02*
D03*
X657967Y333906D02*
D03*
X852437Y333910D02*
D03*
X464467Y531156D02*
D03*
X657006Y531663D02*
D03*
X852757Y532576D02*
D03*
X463637Y728486D02*
D03*
D29*
X684240Y767914D02*
D03*
X709740Y704164D02*
D03*
X904437Y704016D02*
D03*
X878937Y767766D02*
D03*
X516467Y113406D02*
D03*
X490967Y177156D02*
D03*
X709475Y114071D02*
D03*
X683975Y177821D02*
D03*
X878937Y177906D02*
D03*
X904437Y114156D02*
D03*
X490967Y372406D02*
D03*
X516467Y308656D02*
D03*
X709967Y309156D02*
D03*
X684467Y372906D02*
D03*
X904437Y309160D02*
D03*
X878937Y372910D02*
D03*
X490967Y570156D02*
D03*
X516467Y506406D02*
D03*
X683506Y570663D02*
D03*
X709006Y506913D02*
D03*
X879257Y571576D02*
D03*
X904758Y507826D02*
D03*
X515637Y703736D02*
D03*
X490137Y767486D02*
D03*
D31*
X967538Y49770D02*
D03*
Y820650D02*
D03*
X46138D02*
D03*
X46138Y49770D02*
D03*
D32*
X190948Y625375D02*
D03*
X215948D02*
D03*
X240948D02*
D03*
X190948Y770375D02*
D03*
X240948D02*
D03*
D33*
X40335Y700380D02*
D03*
X116335D02*
D03*
D45*
X683740Y802914D02*
D03*
X710490Y668414D02*
D03*
X878437Y802766D02*
D03*
X905187Y668266D02*
D03*
X490467Y212156D02*
D03*
X517217Y77656D02*
D03*
X683475Y212821D02*
D03*
X710225Y78321D02*
D03*
X878437Y212906D02*
D03*
X905187Y78406D02*
D03*
X490467Y407406D02*
D03*
X517217Y272906D02*
D03*
X683967Y407906D02*
D03*
X710717Y273406D02*
D03*
X878437Y407910D02*
D03*
X905187Y273410D02*
D03*
X517217Y470656D02*
D03*
X490467Y605156D02*
D03*
X683006Y605663D02*
D03*
X709756Y471163D02*
D03*
X878757Y606576D02*
D03*
X905508Y472076D02*
D03*
X489637Y802486D02*
D03*
X516387Y667986D02*
D03*
D46*
X810198Y163950D02*
D03*
X795198D02*
D03*
Y110450D02*
D03*
X810198D02*
D03*
X422698D02*
D03*
X407698D02*
D03*
Y163950D02*
D03*
X422698D02*
D03*
X422335Y359250D02*
D03*
X407335D02*
D03*
Y305750D02*
D03*
X422335D02*
D03*
X422198Y502950D02*
D03*
X407198D02*
D03*
Y556450D02*
D03*
X422198D02*
D03*
X421585Y753500D02*
D03*
X406585D02*
D03*
Y700000D02*
D03*
X421585D02*
D03*
X615335Y110500D02*
D03*
X600335D02*
D03*
Y164000D02*
D03*
X615335D02*
D03*
X615948Y359200D02*
D03*
X600948D02*
D03*
Y305700D02*
D03*
X615948D02*
D03*
X614835Y503000D02*
D03*
X599835D02*
D03*
Y556500D02*
D03*
X614835D02*
D03*
X615585Y753500D02*
D03*
X600585D02*
D03*
Y700000D02*
D03*
X615585D02*
D03*
X809948Y305700D02*
D03*
X794948D02*
D03*
Y359200D02*
D03*
X809948D02*
D03*
Y556450D02*
D03*
X794948D02*
D03*
Y502950D02*
D03*
X809948D02*
D03*
X810198Y699950D02*
D03*
X795198D02*
D03*
Y753450D02*
D03*
X810198D02*
D03*
D47*
X116448Y28750D02*
D03*
Y54150D02*
D03*
Y79550D02*
D03*
Y130350D02*
D03*
Y104950D02*
D03*
Y333550D02*
D03*
Y308150D02*
D03*
Y460550D02*
D03*
Y358950D02*
D03*
Y409750D02*
D03*
Y435150D02*
D03*
Y384350D02*
D03*
Y485950D02*
D03*
Y511350D02*
D03*
Y206550D02*
D03*
Y231950D02*
D03*
Y282750D02*
D03*
Y257350D02*
D03*
Y155750D02*
D03*
Y181150D02*
D03*
X294248Y28750D02*
D03*
Y79550D02*
D03*
Y104950D02*
D03*
Y130350D02*
D03*
Y155750D02*
D03*
Y54150D02*
D03*
Y308150D02*
D03*
Y384350D02*
D03*
Y282750D02*
D03*
Y435150D02*
D03*
Y409750D02*
D03*
Y358950D02*
D03*
Y333550D02*
D03*
Y257350D02*
D03*
Y231950D02*
D03*
Y206550D02*
D03*
Y181150D02*
D03*
Y511350D02*
D03*
Y485950D02*
D03*
Y460550D02*
D03*
X56500Y473900D02*
D03*
Y448500D02*
D03*
Y423100D02*
D03*
Y372300D02*
D03*
Y397700D02*
D03*
Y194500D02*
D03*
Y296100D02*
D03*
Y270700D02*
D03*
Y219900D02*
D03*
Y245300D02*
D03*
Y346900D02*
D03*
Y321500D02*
D03*
Y169100D02*
D03*
D48*
X489191Y207504D02*
D03*
X491013Y399829D02*
D03*
X876000Y808500D02*
D03*
X680894Y809280D02*
D03*
X487500Y801750D02*
D03*
X488618Y604845D02*
D03*
X912250Y77000D02*
D03*
X898000Y76750D02*
D03*
X716500D02*
D03*
X704250D02*
D03*
X523750Y76000D02*
D03*
X510550Y76286D02*
D03*
X874925Y212041D02*
D03*
X682747Y216928D02*
D03*
X876500Y607000D02*
D03*
X679500Y604500D02*
D03*
X874750Y409500D02*
D03*
X681003Y408419D02*
D03*
X510698Y466450D02*
D03*
X911448Y466950D02*
D03*
X899198D02*
D03*
X715698Y465700D02*
D03*
X703347Y466001D02*
D03*
X522948Y466200D02*
D03*
Y267700D02*
D03*
X510448D02*
D03*
X703698Y268950D02*
D03*
X718198Y269200D02*
D03*
X898448Y268450D02*
D03*
X912698Y268700D02*
D03*
D49*
X912198Y660700D02*
D03*
X898448D02*
D03*
X717198D02*
D03*
X704198Y660950D02*
D03*
X521948Y659950D02*
D03*
X508698D02*
D03*
M02*
