G04*
G04 #@! TF.GenerationSoftware,Altium Limited,Altium Designer,26.5.0 (11)*
G04*
G04 Layer_Color=65535*
G04 Board_Origin=73230399|66045281*
%FSLAX44Y44*%
%MOMM*%
G71*
G04*
G04 #@! TF.SameCoordinates,D8E93972-0857-4CFD-BA1B-23267FE283D4*
G04*
G04*
G04 #@! TF.FilePolarity,Positive*
G04*
G01*
G75*
%ADD10C,1.0000*%
%ADD11C,0.2000*%
%ADD12C,0.5080*%
%ADD13C,0.1270*%
%ADD14C,0.8000*%
%ADD15C,0.1524*%
%ADD16C,0.2650*%
%ADD17C,0.2648*%
D10*
X678990Y816414D02*
G03*
X678990Y816414I-1000J0D01*
G01*
X873688Y816266D02*
G03*
X873688Y816266I-1000J0D01*
G01*
X485717Y225656D02*
G03*
X485717Y225656I-1000J0D01*
G01*
X678725Y226321D02*
G03*
X678725Y226321I-1000J0D01*
G01*
X873688Y226406D02*
G03*
X873688Y226406I-1000J0D01*
G01*
X485717Y420906D02*
G03*
X485717Y420906I-1000J0D01*
G01*
X679217Y421406D02*
G03*
X679217Y421406I-1000J0D01*
G01*
X873688Y421410D02*
G03*
X873688Y421410I-1000J0D01*
G01*
X485717Y618656D02*
G03*
X485717Y618656I-1000J0D01*
G01*
X678256Y619163D02*
G03*
X678256Y619163I-1000J0D01*
G01*
X874007Y620076D02*
G03*
X874007Y620076I-1000J0D01*
G01*
X484887Y815986D02*
G03*
X484887Y815986I-1000J0D01*
G01*
X962007Y69D02*
G03*
X999948Y38010I0J37941D01*
G01*
X999948Y812410D02*
G03*
X962108Y850250I-37839J1D01*
G01*
X37748Y850250D02*
G03*
X-52Y812450I-0J-37800D01*
G01*
X-52Y32450D02*
G03*
X32329Y69I32381J0D01*
G01*
X270329D02*
X962007D01*
X999948Y38010D02*
Y812410D01*
X37748Y850250D02*
X962108Y850250D01*
X-52Y812450D02*
X-52Y32450D01*
X32329Y69D02*
X126768D01*
X270329D01*
D11*
X160500Y471500D02*
G03*
X160500Y471500I-1000J0D01*
G01*
X134750Y388000D02*
G03*
X134750Y388000I-1000J0D01*
G01*
X262448Y467831D02*
Y506331D01*
X243448D02*
X262448D01*
X243448Y467831D02*
Y506331D01*
Y467831D02*
X262448D01*
X566990Y638164D02*
X584990D01*
X566990D02*
Y639164D01*
X714490Y638414D02*
X734490D01*
Y639164D01*
Y653664D01*
X606740Y756164D02*
X612490D01*
X566990Y639164D02*
Y648414D01*
X607740Y679164D02*
X612490D01*
X566990Y785164D02*
Y801886D01*
X567226D01*
Y801914D01*
X581240D01*
X734740Y782664D02*
Y802664D01*
X733990D02*
X734740D01*
X719490D02*
X733990D01*
X914187Y802516D02*
X928687D01*
X929437D01*
Y782516D02*
Y802516D01*
X761923Y801766D02*
X775937D01*
X761923Y801738D02*
Y801766D01*
X761687Y801738D02*
X761923D01*
X761687Y785016D02*
Y801738D01*
X802438Y679016D02*
X807187D01*
X761687Y639016D02*
Y648266D01*
X801437Y756016D02*
X807187D01*
X929187Y639016D02*
Y653516D01*
Y638266D02*
Y639016D01*
X909187Y638266D02*
X929187D01*
X761687Y638016D02*
Y639016D01*
Y638016D02*
X779687D01*
X125250Y447500D02*
X132250D01*
X125250D02*
Y461500D01*
X150750Y447500D02*
X157750D01*
Y461500D01*
X170448Y264700D02*
Y283700D01*
X131948Y264700D02*
X170448D01*
X131948D02*
Y283700D01*
X170448D01*
X170198Y284450D02*
Y303450D01*
X131698Y284450D02*
X170198D01*
X131698D02*
Y303450D01*
X170198D01*
X204198Y10331D02*
X242698D01*
Y29331D01*
X204198D02*
X242698D01*
X204198Y10331D02*
Y29331D01*
Y51918D02*
X242698D01*
Y70918D01*
X204198D02*
X242698D01*
X204198Y51918D02*
Y70918D01*
Y93505D02*
Y112505D01*
X242698D01*
Y93505D02*
Y112505D01*
X204198Y93505D02*
X242698D01*
X204198Y135091D02*
X242698D01*
Y154092D01*
X204198D02*
X242698D01*
X204198Y135091D02*
Y154092D01*
Y176678D02*
Y195678D01*
X242698D01*
Y176678D02*
Y195678D01*
X204198Y176678D02*
X242698D01*
X204198Y218265D02*
X242698D01*
Y237265D01*
X204198D02*
X242698D01*
X204198Y218265D02*
Y237265D01*
Y259852D02*
Y278852D01*
X242698D01*
Y259852D02*
Y278852D01*
X204198Y259852D02*
X242698D01*
X204198Y301439D02*
X242698D01*
Y320439D01*
X204198D02*
X242698D01*
X204198Y301439D02*
Y320439D01*
Y343026D02*
Y362026D01*
X242698D01*
Y343026D02*
Y362026D01*
X204198Y343026D02*
X242698D01*
X204198Y384613D02*
X242698D01*
Y403613D01*
X204198D02*
X242698D01*
X204198Y384613D02*
Y403613D01*
Y426200D02*
Y445200D01*
X242698D01*
Y426200D02*
Y445200D01*
X204198Y426200D02*
X242698D01*
X204198Y467787D02*
X242698D01*
Y486787D01*
X204198D02*
X242698D01*
X204198Y467787D02*
Y486787D01*
X373085Y108250D02*
X392085D01*
X373085D02*
Y146750D01*
X392085D01*
Y108250D02*
Y146750D01*
X584585Y108000D02*
Y146500D01*
X565585D02*
X584585D01*
X565585Y108000D02*
Y146500D01*
Y108000D02*
X584585D01*
X760335Y107750D02*
X779335D01*
X760335D02*
Y146250D01*
X779335D01*
Y107750D02*
Y146250D01*
X392085Y303000D02*
Y341500D01*
X373085D02*
X392085D01*
X373085Y303000D02*
Y341500D01*
Y303000D02*
X392085D01*
X565335Y501000D02*
X584335D01*
X565335D02*
Y539500D01*
X584335D01*
Y501000D02*
Y539500D01*
X372585Y500500D02*
X391585D01*
X372585D02*
Y539000D01*
X391585D01*
Y500500D02*
Y539000D01*
X760085Y303750D02*
X779085D01*
X760085D02*
Y342250D01*
X779085D01*
Y303750D02*
Y342250D01*
X585085Y303750D02*
Y342250D01*
X566085D02*
X585085D01*
X566085Y303750D02*
Y342250D01*
Y303750D02*
X585085D01*
X760085Y500250D02*
X779085D01*
X760085D02*
Y538750D01*
X779085D01*
Y500250D02*
Y538750D01*
X391335Y696000D02*
Y734500D01*
X372335D02*
X391335D01*
X372335Y696000D02*
Y734500D01*
Y696000D02*
X391335D01*
X566085Y698000D02*
X585085D01*
X566085D02*
Y736500D01*
X585085D01*
Y698000D02*
Y736500D01*
X779297Y697097D02*
Y735597D01*
X760297D02*
X779297D01*
X760297Y697097D02*
Y735597D01*
Y697097D02*
X779297D01*
X171198Y112450D02*
Y131450D01*
X132698Y112450D02*
X171198D01*
X132698D02*
Y131450D01*
X171198D01*
X132698Y207950D02*
X171198D01*
X132698Y188950D02*
Y207950D01*
Y188950D02*
X171198D01*
Y207950D01*
X124585Y491250D02*
Y510250D01*
X163085D01*
Y491250D02*
Y510250D01*
X124585Y491250D02*
X163085D01*
X204198Y31124D02*
X242698D01*
Y50124D01*
X204198D02*
X242698D01*
X204198Y31124D02*
Y50124D01*
Y72711D02*
Y91711D01*
X242698D01*
Y72711D02*
Y91711D01*
X204198Y72711D02*
X242698D01*
X204198Y133298D02*
X242698D01*
X204198Y114298D02*
Y133298D01*
Y114298D02*
X242698D01*
Y133298D01*
Y155885D02*
Y174885D01*
X204198Y155885D02*
X242698D01*
X204198D02*
Y174885D01*
X242698D01*
X204198Y216472D02*
X242698D01*
X204198Y197472D02*
Y216472D01*
Y197472D02*
X242698D01*
Y216472D01*
X204198Y239059D02*
Y258059D01*
X242698D01*
Y239059D02*
Y258059D01*
X204198Y239059D02*
X242698D01*
X204198Y280646D02*
X242698D01*
Y299646D01*
X204198D02*
X242698D01*
X204198Y280646D02*
Y299646D01*
Y322233D02*
Y341233D01*
X242698D01*
Y322233D02*
Y341233D01*
X204198Y322233D02*
X242698D01*
X204198Y382820D02*
X242698D01*
X204198Y363820D02*
Y382820D01*
Y363820D02*
X242698D01*
Y382820D01*
Y405406D02*
Y424406D01*
X204198Y405406D02*
X242698D01*
X204198D02*
Y424406D01*
X242698D01*
X204198Y465993D02*
X242698D01*
X204198Y446993D02*
Y465993D01*
Y446993D02*
X242698D01*
Y465993D01*
Y488580D02*
Y507580D01*
X204198Y488580D02*
X242698D01*
X204198D02*
Y507580D01*
X242698D01*
X526217Y211906D02*
X540717D01*
X541467D01*
Y191906D02*
Y211906D01*
X373953Y211156D02*
X387967D01*
X373953Y211128D02*
Y211156D01*
X373717Y211128D02*
X373953D01*
X373717Y194406D02*
Y211128D01*
X414467Y88406D02*
X419217D01*
X373717Y48406D02*
Y57656D01*
X413467Y165406D02*
X419217D01*
X541217Y48406D02*
Y62906D01*
Y47656D02*
Y48406D01*
X521217Y47656D02*
X541217D01*
X373717Y47406D02*
Y48406D01*
Y47406D02*
X391717D01*
X719225Y212571D02*
X733725D01*
X734475D01*
Y192571D02*
Y212571D01*
X566961Y211821D02*
X580975D01*
X566961Y211793D02*
Y211821D01*
X566725Y211793D02*
X566961D01*
X566725Y195071D02*
Y211793D01*
X607475Y89071D02*
X612225D01*
X566725Y49071D02*
Y58321D01*
X606475Y166071D02*
X612225D01*
X734225Y49071D02*
Y63571D01*
Y48321D02*
Y49071D01*
X714225Y48321D02*
X734225D01*
X566725Y48071D02*
Y49071D01*
Y48071D02*
X584725D01*
X761687Y48156D02*
X779687D01*
X761687D02*
Y49156D01*
X909187Y48406D02*
X929187D01*
Y49156D01*
Y63656D01*
X801437Y166156D02*
X807187D01*
X761687Y49156D02*
Y58406D01*
X802438Y89156D02*
X807187D01*
X761687Y195156D02*
Y211878D01*
X761923D01*
Y211906D01*
X775937D01*
X929437Y192656D02*
Y212656D01*
X928687D02*
X929437D01*
X914187D02*
X928687D01*
X373717Y242656D02*
X391717D01*
X373717D02*
Y243656D01*
X521217Y242906D02*
X541217D01*
Y243656D01*
Y258156D01*
X413467Y360656D02*
X419217D01*
X373717Y243656D02*
Y252906D01*
X414467Y283656D02*
X419217D01*
X373717Y389656D02*
Y406378D01*
X373953D01*
Y406406D01*
X387967D01*
X541467Y387156D02*
Y407156D01*
X540717D02*
X541467D01*
X526217D02*
X540717D01*
X719717Y407656D02*
X734217D01*
X734967D01*
Y387656D02*
Y407656D01*
X567453Y406906D02*
X581467D01*
X567453Y406878D02*
Y406906D01*
X567217Y406878D02*
X567453D01*
X567217Y390156D02*
Y406878D01*
X607967Y284156D02*
X612717D01*
X567217Y244156D02*
Y253406D01*
X606967Y361156D02*
X612717D01*
X734717Y244156D02*
Y258656D01*
Y243406D02*
Y244156D01*
X714717Y243406D02*
X734717D01*
X567217Y243156D02*
Y244156D01*
Y243156D02*
X585217D01*
X914187Y407660D02*
X928687D01*
X929437D01*
Y387660D02*
Y407660D01*
X761923Y406910D02*
X775937D01*
X761923Y406882D02*
Y406910D01*
X761687Y406882D02*
X761923D01*
X761687Y390160D02*
Y406882D01*
X802438Y284160D02*
X807187D01*
X761687Y244160D02*
Y253410D01*
X801437Y361160D02*
X807187D01*
X929187Y244160D02*
Y258660D01*
Y243410D02*
Y244160D01*
X909187Y243410D02*
X929187D01*
X761687Y243160D02*
Y244160D01*
Y243160D02*
X779687D01*
X373717Y440406D02*
X391717D01*
X373717D02*
Y441406D01*
X521217Y440656D02*
X541217D01*
Y441406D01*
Y455906D01*
X413467Y558406D02*
X419217D01*
X373717Y441406D02*
Y450656D01*
X414467Y481406D02*
X419217D01*
X373717Y587406D02*
Y604128D01*
X373953D01*
Y604156D01*
X387967D01*
X541467Y584906D02*
Y604906D01*
X540717D02*
X541467D01*
X526217D02*
X540717D01*
X566256Y440913D02*
X584256D01*
X566256D02*
Y441913D01*
X713756Y441163D02*
X733756D01*
Y441913D01*
Y456413D01*
X606006Y558913D02*
X611756D01*
X566256Y441913D02*
Y451163D01*
X607006Y481913D02*
X611756D01*
X566256Y587913D02*
Y604635D01*
X566492D01*
Y604663D01*
X580506D01*
X734006Y585413D02*
Y605413D01*
X733256D02*
X734006D01*
X718756D02*
X733256D01*
X762007Y441826D02*
X780007D01*
X762007D02*
Y442826D01*
X909508Y442076D02*
X929508D01*
Y442826D01*
Y457326D01*
X801758Y559826D02*
X807507D01*
X762007Y442826D02*
Y452076D01*
X802757Y482826D02*
X807507D01*
X762007Y588826D02*
Y605548D01*
X762243D01*
Y605576D01*
X776257D01*
X929757Y586326D02*
Y606326D01*
X929007D02*
X929757D01*
X914508D02*
X929007D01*
X525387Y802236D02*
X539887D01*
X540637D01*
Y782236D02*
Y802236D01*
X373123Y801486D02*
X387137D01*
X373123Y801458D02*
Y801486D01*
X372887Y801458D02*
X373123D01*
X372887Y784736D02*
Y801458D01*
X413638Y678736D02*
X418387D01*
X372887Y638736D02*
Y647986D01*
X412637Y755736D02*
X418387D01*
X540387Y638736D02*
Y653236D01*
Y637986D02*
Y638736D01*
X520387Y637986D02*
X540387D01*
X372887Y637736D02*
Y638736D01*
Y637736D02*
X390887D01*
X132698Y173450D02*
X171198D01*
X132698Y154450D02*
Y173450D01*
Y154450D02*
X171198D01*
Y173450D01*
X132698Y132950D02*
Y151950D01*
X171198D01*
Y132950D02*
Y151950D01*
X132698Y132950D02*
X171198D01*
X132698Y250450D02*
X171198D01*
X132698Y231450D02*
Y250450D01*
Y231450D02*
X171198D01*
Y250450D01*
X132698Y210200D02*
Y229200D01*
X171198D01*
Y210200D02*
Y229200D01*
X132698Y210200D02*
X171198D01*
X132198Y323700D02*
X170698D01*
X132198Y304700D02*
Y323700D01*
Y304700D02*
X170698D01*
Y323700D01*
X243448Y11331D02*
X262448D01*
X243448D02*
Y49831D01*
X262448D01*
Y11331D02*
Y49831D01*
Y52831D02*
Y91331D01*
X243448D02*
X262448D01*
X243448Y52831D02*
Y91331D01*
Y52831D02*
X262448D01*
X243448Y94331D02*
X262448D01*
X243448D02*
Y132831D01*
X262448D01*
Y94331D02*
Y132831D01*
Y135831D02*
Y174331D01*
X243448D02*
X262448D01*
X243448Y135831D02*
Y174331D01*
Y135831D02*
X262448D01*
X243448Y177331D02*
X262448D01*
X243448D02*
Y215831D01*
X262448D01*
Y177331D02*
Y215831D01*
Y218831D02*
Y257331D01*
X243448D02*
X262448D01*
X243448Y218831D02*
Y257331D01*
Y218831D02*
X262448D01*
X243448Y260331D02*
X262448D01*
X243448D02*
Y298831D01*
X262448D01*
Y260331D02*
Y298831D01*
Y301831D02*
Y340331D01*
X243448D02*
X262448D01*
X243448Y301831D02*
Y340331D01*
Y301831D02*
X262448D01*
X243448Y343331D02*
X262448D01*
X243448D02*
Y381831D01*
X262448D01*
Y343331D02*
Y381831D01*
Y384831D02*
Y423331D01*
X243448D02*
X262448D01*
X243448Y384831D02*
Y423331D01*
Y384831D02*
X262448D01*
X243448Y426331D02*
X262448D01*
X243448D02*
Y464831D01*
X262448D01*
Y426331D02*
Y464831D01*
D12*
X213508Y596625D02*
G03*
X213508Y596625I-3810J0D01*
G01*
D13*
X150000Y690000D02*
G03*
X150000Y690000I-60000J0D01*
G01*
X612490Y679164D02*
Y756164D01*
X807187Y679016D02*
Y756016D01*
X125000Y409500D02*
Y420500D01*
X143000Y409500D02*
Y420500D01*
X419217Y88406D02*
Y165406D01*
X612225Y89071D02*
Y166071D01*
X807187Y89156D02*
Y166156D01*
X419217Y283656D02*
Y360656D01*
X612717Y284156D02*
Y361156D01*
X807187Y284160D02*
Y361160D01*
X419217Y481406D02*
Y558406D01*
X611756Y481913D02*
Y558913D01*
X807507Y482826D02*
Y559826D01*
X418387Y678736D02*
Y755736D01*
D14*
X962007Y69D02*
G03*
X999948Y38010I0J37941D01*
G01*
X999948Y812410D02*
G03*
X962108Y850250I-37839J1D01*
G01*
X37748Y850250D02*
G03*
X-52Y812450I-0J-37800D01*
G01*
X-52Y32450D02*
G03*
X32329Y69I32381J0D01*
G01*
X270329D02*
X962007D01*
X999948Y38010D02*
Y812410D01*
X37748Y850250D02*
X962108Y850250D01*
X-52Y812450D02*
X-52Y32450D01*
X32329Y69D02*
X126768D01*
X270329D01*
D15*
X320348Y530350D02*
X320348Y-3150D01*
X76098Y530350D02*
X320348D01*
X76098D02*
X76098Y-3150D01*
X320348D01*
X174381Y614071D02*
X198456D01*
X294015D02*
Y672180D01*
X269943Y761645D02*
X294015D01*
X174381Y708570D02*
Y761645D01*
X269939Y614071D02*
X294015D01*
X174381Y761645D02*
X198452D01*
X219943D02*
X248452D01*
X174381Y614071D02*
Y672180D01*
X294015Y708570D02*
Y761645D01*
D16*
X43000Y708861D02*
X51482D01*
X47241Y713102D02*
Y704621D01*
D17*
X125000Y704619D02*
X133476D01*
M02*
