G04*
G04 #@! TF.GenerationSoftware,Altium Limited,Altium Designer,26.5.0 (11)*
G04*
G04 Layer_Color=128*
G04 Board_Origin=73230399|66045281*
%FSLAX44Y44*%
%MOMM*%
G71*
G04*
G04 #@! TF.SameCoordinates,D8E93972-0857-4CFD-BA1B-23267FE283D4*
G04*
G04*
G04 #@! TF.FilePolarity,Positive*
G04*
G01*
G75*
%ADD13C,0.1270*%
D13*
X630543Y718914D02*
X671437D01*
X650990Y698467D02*
Y739361D01*
X662490Y757914D02*
X692490D01*
X677490Y742914D02*
Y772914D01*
X687990Y694164D02*
X717990D01*
X702990Y679164D02*
Y709164D01*
X882688Y694016D02*
X912688D01*
X897688Y679016D02*
Y709016D01*
X857187Y757766D02*
X887187D01*
X872187Y742766D02*
Y772766D01*
X825240Y718766D02*
X866134D01*
X845687Y698319D02*
Y739213D01*
X103698Y18750D02*
X115698D01*
X109698Y12750D02*
Y24750D01*
X103698Y44150D02*
X115698D01*
X109698Y38150D02*
Y50150D01*
X103698Y69550D02*
X115698D01*
X109698Y63550D02*
Y75550D01*
X103698Y120350D02*
X115698D01*
X109698Y114350D02*
Y126350D01*
X103698Y94950D02*
X115698D01*
X109698Y88950D02*
Y100950D01*
X103698Y323550D02*
X115698D01*
X109698Y317550D02*
Y329550D01*
X103698Y298150D02*
X115698D01*
X109698Y292150D02*
Y304150D01*
X103698Y450550D02*
X115698D01*
X109698Y444550D02*
Y456550D01*
X103698Y348950D02*
X115698D01*
X109698Y342950D02*
Y354950D01*
X103698Y399750D02*
X115698D01*
X109698Y393750D02*
Y405750D01*
X103698Y425150D02*
X115698D01*
X109698Y419150D02*
Y431150D01*
X103698Y374350D02*
X115698D01*
X109698Y368350D02*
Y380350D01*
X103698Y475950D02*
X115698D01*
X109698Y469950D02*
Y481950D01*
X103698Y501350D02*
X115698D01*
X109698Y495350D02*
Y507350D01*
X103698Y196550D02*
X115698D01*
X109698Y190550D02*
Y202550D01*
X103698Y221950D02*
X115698D01*
X109698Y215950D02*
Y227950D01*
X103698Y272750D02*
X115698D01*
X109698Y266750D02*
Y278750D01*
X103698Y247350D02*
X115698D01*
X109698Y241350D02*
Y253350D01*
X103698Y145750D02*
X115698D01*
X109698Y139750D02*
Y151750D01*
X103698Y171150D02*
X115698D01*
X109698Y165150D02*
Y177150D01*
X281498Y18750D02*
X293498D01*
X287498Y12750D02*
Y24750D01*
X281498Y69550D02*
X293498D01*
X287498Y63550D02*
Y75550D01*
X281498Y94950D02*
X293498D01*
X287498Y88950D02*
Y100950D01*
X281498Y120350D02*
X293498D01*
X287498Y114350D02*
Y126350D01*
X281498Y145750D02*
X293498D01*
X287498Y139750D02*
Y151750D01*
X281498Y44150D02*
X293498D01*
X287498Y38150D02*
Y50150D01*
X281498Y298150D02*
X293498D01*
X287498Y292150D02*
Y304150D01*
X281498Y374350D02*
X293498D01*
X287498Y368350D02*
Y380350D01*
X281498Y272750D02*
X293498D01*
X287498Y266750D02*
Y278750D01*
X281498Y425150D02*
X293498D01*
X287498Y419150D02*
Y431150D01*
X281498Y399750D02*
X293498D01*
X287498Y393750D02*
Y405750D01*
X281498Y348950D02*
X293498D01*
X287498Y342950D02*
Y354950D01*
X281498Y323550D02*
X293498D01*
X287498Y317550D02*
Y329550D01*
X281498Y247350D02*
X293498D01*
X287498Y241350D02*
Y253350D01*
X281498Y221950D02*
X293498D01*
X287498Y215950D02*
Y227950D01*
X281498Y196550D02*
X293498D01*
X287498Y190550D02*
Y202550D01*
X281498Y171150D02*
X293498D01*
X287498Y165150D02*
Y177150D01*
X281498Y501350D02*
X293498D01*
X287498Y495350D02*
Y507350D01*
X281498Y475950D02*
X293498D01*
X287498Y469950D02*
Y481950D01*
X281498Y450550D02*
X293498D01*
X287498Y444550D02*
Y456550D01*
X943788Y39770D02*
X977788D01*
X960788Y22770D02*
Y56770D01*
X943788Y810650D02*
X977788D01*
X960788Y793650D02*
Y827650D01*
X22388Y810650D02*
X56388D01*
X39388Y793650D02*
Y827650D01*
X22388Y39770D02*
X56388D01*
X39388Y22770D02*
Y56770D01*
X204245Y615375D02*
X214151D01*
X209198Y610422D02*
Y620328D01*
X229245Y615375D02*
X239151D01*
X234198Y610422D02*
Y620328D01*
X254245Y615375D02*
X264151D01*
X259198Y610422D02*
Y620328D01*
X204245Y760375D02*
X214151D01*
X209198Y755422D02*
Y765328D01*
X254245Y760375D02*
X264151D01*
X259198Y755422D02*
Y765328D01*
X166244Y690375D02*
X192152D01*
X179198Y677421D02*
Y703329D01*
X276244Y690375D02*
X302152D01*
X289198Y677421D02*
Y703329D01*
X47500Y690000D02*
X56500D01*
X52000Y685500D02*
Y694500D01*
X123500Y690000D02*
X132500D01*
X128000Y685500D02*
Y694500D01*
X43750Y463900D02*
X55750D01*
X49750Y457900D02*
Y469900D01*
X43750Y438500D02*
X55750D01*
X49750Y432500D02*
Y444500D01*
X43750Y413100D02*
X55750D01*
X49750Y407100D02*
Y419100D01*
X43750Y362300D02*
X55750D01*
X49750Y356300D02*
Y368300D01*
X43750Y387700D02*
X55750D01*
X49750Y381700D02*
Y393700D01*
X43750Y184500D02*
X55750D01*
X49750Y178500D02*
Y190500D01*
X43750Y286100D02*
X55750D01*
X49750Y280100D02*
Y292100D01*
X43750Y260700D02*
X55750D01*
X49750Y254700D02*
Y266700D01*
X43750Y209900D02*
X55750D01*
X49750Y203900D02*
Y215900D01*
X43750Y235300D02*
X55750D01*
X49750Y229300D02*
Y241300D01*
X43750Y336900D02*
X55750D01*
X49750Y330900D02*
Y342900D01*
X43750Y311500D02*
X55750D01*
X49750Y305500D02*
Y317500D01*
X43750Y159100D02*
X55750D01*
X49750Y153100D02*
Y165100D01*
X494717Y103406D02*
X524717D01*
X509717Y88406D02*
Y118406D01*
X469217Y167156D02*
X499217D01*
X484217Y152156D02*
Y182156D01*
X437270Y128156D02*
X478164D01*
X457717Y107709D02*
Y148603D01*
X687725Y104071D02*
X717725D01*
X702725Y89071D02*
Y119071D01*
X662225Y167821D02*
X692225D01*
X677225Y152821D02*
Y182821D01*
X630278Y128821D02*
X671172D01*
X650725Y108374D02*
Y149268D01*
X825240Y128906D02*
X866134D01*
X845687Y108459D02*
Y149353D01*
X857187Y167906D02*
X887187D01*
X872187Y152906D02*
Y182906D01*
X882688Y104156D02*
X912688D01*
X897688Y89156D02*
Y119156D01*
X437270Y323406D02*
X478164D01*
X457717Y302959D02*
Y343853D01*
X469217Y362406D02*
X499217D01*
X484217Y347406D02*
Y377406D01*
X494717Y298656D02*
X524717D01*
X509717Y283656D02*
Y313656D01*
X688217Y299156D02*
X718217D01*
X703217Y284156D02*
Y314156D01*
X662717Y362906D02*
X692717D01*
X677717Y347906D02*
Y377906D01*
X630770Y323906D02*
X671664D01*
X651217Y303459D02*
Y344353D01*
X882688Y299160D02*
X912688D01*
X897688Y284160D02*
Y314160D01*
X857187Y362910D02*
X887187D01*
X872187Y347910D02*
Y377910D01*
X825240Y323910D02*
X866134D01*
X845687Y303463D02*
Y344357D01*
X437270Y521156D02*
X478164D01*
X457717Y500709D02*
Y541603D01*
X469217Y560156D02*
X499217D01*
X484217Y545156D02*
Y575156D01*
X494717Y496406D02*
X524717D01*
X509717Y481406D02*
Y511406D01*
X629809Y521663D02*
X670703D01*
X650256Y501216D02*
Y542110D01*
X661756Y560663D02*
X691756D01*
X676756Y545663D02*
Y575663D01*
X687256Y496913D02*
X717256D01*
X702256Y481913D02*
Y511913D01*
X825561Y522576D02*
X866454D01*
X846008Y502129D02*
Y543023D01*
X857507Y561576D02*
X887507D01*
X872507Y546576D02*
Y576576D01*
X883008Y497826D02*
X913008D01*
X898008Y482826D02*
Y512826D01*
X493887Y693736D02*
X523887D01*
X508887Y678736D02*
Y708736D01*
X468387Y757486D02*
X498387D01*
X483387Y742486D02*
Y772486D01*
X436440Y718486D02*
X477334D01*
X456887Y698039D02*
Y738933D01*
X336000Y758500D02*
X339000D01*
X337500Y757000D02*
Y760000D01*
X140310Y284131D02*
X143310D01*
X141810Y282631D02*
Y285631D01*
X197000Y415750D02*
X200000D01*
X198500Y414250D02*
Y417250D01*
X195810Y437440D02*
X198810D01*
X197310Y435940D02*
Y438940D01*
X197000Y397720D02*
X200000D01*
X198500Y396220D02*
Y399220D01*
X196847Y377978D02*
X199847D01*
X198347Y376478D02*
Y379478D01*
X262586Y467551D02*
X265586D01*
X264086Y466051D02*
Y469051D01*
X251585Y523500D02*
X254585D01*
X253085Y522000D02*
Y525000D01*
X369000Y62500D02*
X372000D01*
X370500Y61000D02*
Y64000D01*
X399750Y389500D02*
X402750D01*
X401250Y388000D02*
Y391000D01*
X375500Y239000D02*
X378500D01*
X377000Y237500D02*
Y240500D01*
X374500Y219328D02*
X377500D01*
X376000Y217828D02*
Y220828D01*
X480941Y197504D02*
X483941D01*
X482441Y196004D02*
Y199004D01*
X364448Y182904D02*
X367448D01*
X365948Y181404D02*
Y184404D01*
X325115Y775997D02*
X328115D01*
X326615Y774497D02*
Y777497D01*
X348500Y747750D02*
X351500D01*
X350000Y746250D02*
Y749250D01*
X380108Y628586D02*
X383108D01*
X381608Y627086D02*
Y630086D01*
X482763Y389829D02*
X485763D01*
X484263Y388329D02*
Y391329D01*
X389296Y422040D02*
X392296D01*
X390796Y420540D02*
Y423540D01*
X398000Y407000D02*
X401000D01*
X399500Y405500D02*
Y408500D01*
X867750Y798500D02*
X870750D01*
X869250Y797000D02*
Y800000D01*
X672644Y799280D02*
X675644D01*
X674144Y797780D02*
Y800780D01*
X479250Y791750D02*
X482250D01*
X480750Y790250D02*
Y793250D01*
X480368Y594845D02*
X483368D01*
X481868Y593345D02*
Y596345D01*
X391772Y595156D02*
X394772D01*
X393272Y593656D02*
Y596656D01*
X386500Y612000D02*
X389500D01*
X388000Y610500D02*
Y613500D01*
X195819Y207313D02*
X198819D01*
X197319Y205813D02*
Y208813D01*
X197589Y251219D02*
X200588D01*
X199088Y249719D02*
Y252719D01*
X109750Y569000D02*
X112750D01*
X111250Y567500D02*
Y570500D01*
X786750Y168750D02*
X789750D01*
X788250Y167250D02*
Y170250D01*
X754500Y115500D02*
X757500D01*
X756000Y114000D02*
Y117000D01*
X592736Y363649D02*
X595736D01*
X594236Y362149D02*
Y365149D01*
X574250Y300500D02*
X577250D01*
X575750Y299000D02*
Y302000D01*
X592163Y168455D02*
X595163D01*
X593663Y166955D02*
Y169955D01*
X574000Y104500D02*
X577000D01*
X575500Y103000D02*
Y106000D01*
X369250Y71500D02*
X372250D01*
X370750Y70000D02*
Y73000D01*
X591802Y561071D02*
X594802D01*
X593302Y559571D02*
Y562571D01*
X573750Y498000D02*
X576750D01*
X575250Y496500D02*
Y499500D01*
X767800Y300655D02*
X770800D01*
X769300Y299155D02*
Y302155D01*
X787176Y362459D02*
X790176D01*
X788676Y360959D02*
Y363959D01*
X768000Y495250D02*
X771000D01*
X769500Y493750D02*
Y496750D01*
X787000Y561250D02*
X790000D01*
X788500Y559750D02*
Y562750D01*
X787428Y758788D02*
X790428D01*
X788928Y757288D02*
Y760288D01*
X769000Y693750D02*
X772000D01*
X770500Y692250D02*
Y695250D01*
X592858Y758354D02*
X595858D01*
X594358Y756854D02*
Y759854D01*
X574543Y695004D02*
X577543D01*
X576043Y693504D02*
Y696504D01*
X398686Y758923D02*
X401686D01*
X400186Y757423D02*
Y760423D01*
X379957Y693015D02*
X382957D01*
X381457Y691515D02*
Y694515D01*
X399364Y561597D02*
X402364D01*
X400864Y560097D02*
Y563097D01*
X380250Y497000D02*
X383250D01*
X381750Y495500D02*
Y498500D01*
X398774Y365196D02*
X401774D01*
X400274Y363696D02*
Y366696D01*
X381250Y298250D02*
X384250D01*
X382750Y296750D02*
Y299750D01*
X399750Y171500D02*
X402750D01*
X401250Y170000D02*
Y173000D01*
X380500Y100500D02*
X383500D01*
X382000Y99000D02*
Y102000D01*
X261733Y425034D02*
X264733D01*
X263233Y423534D02*
Y426534D01*
X143500Y258750D02*
X146500D01*
X145000Y257250D02*
Y260250D01*
X172396Y122689D02*
X175396D01*
X173896Y121189D02*
Y124189D01*
X174250Y313250D02*
X177250D01*
X175750Y311750D02*
Y314750D01*
X171750Y293250D02*
X174750D01*
X173250Y291750D02*
Y294750D01*
X171798Y198403D02*
X174799D01*
X173298Y196903D02*
Y199903D01*
X198249Y177618D02*
X201249D01*
X199749Y176118D02*
Y179118D01*
X160741Y252927D02*
X163741D01*
X162241Y251427D02*
Y254427D01*
X139750Y183750D02*
X142750D01*
X141250Y182250D02*
Y185250D01*
X161647Y176603D02*
X164647D01*
X163147Y175103D02*
Y178103D01*
X197000Y82000D02*
X200000D01*
X198500Y80500D02*
Y83500D01*
X904000Y67000D02*
X907000D01*
X905500Y65500D02*
Y68500D01*
X889750Y66750D02*
X892750D01*
X891250Y65250D02*
Y68250D01*
X708250Y66750D02*
X711250D01*
X709750Y65250D02*
Y68250D01*
X696000Y66750D02*
X699000D01*
X697500Y65250D02*
Y68250D01*
X515500Y66000D02*
X518500D01*
X517000Y64500D02*
Y67500D01*
X502300Y66286D02*
X505300D01*
X503800Y64786D02*
Y67786D01*
X866675Y202041D02*
X869675D01*
X868175Y200541D02*
Y203541D01*
X674498Y206928D02*
X677497D01*
X675997Y205427D02*
Y208428D01*
X868250Y597000D02*
X871250D01*
X869750Y595500D02*
Y598500D01*
X671250Y594500D02*
X674250D01*
X672750Y593000D02*
Y596000D01*
X866500Y399500D02*
X869500D01*
X868000Y398000D02*
Y401000D01*
X672753Y398419D02*
X675753D01*
X674253Y396919D02*
Y399919D01*
X139948Y132200D02*
X142948D01*
X141448Y130700D02*
Y133700D01*
X502448Y456450D02*
X505448D01*
X503948Y454950D02*
Y457950D01*
X263638Y238450D02*
X266638D01*
X265138Y236950D02*
Y239950D01*
X263198Y82700D02*
X266198D01*
X264698Y81200D02*
Y84200D01*
Y41950D02*
X267698D01*
X266198Y40450D02*
Y43450D01*
X262119Y372608D02*
X265119D01*
X263619Y371108D02*
Y374108D01*
X262081Y165117D02*
X265081D01*
X263581Y163617D02*
Y166617D01*
X261948Y331450D02*
X264948D01*
X263448Y329950D02*
Y332950D01*
X261698Y289950D02*
X264698D01*
X263198Y288450D02*
Y291450D01*
X262138Y206172D02*
X265138D01*
X263638Y204672D02*
Y207672D01*
X262180Y123116D02*
X265180D01*
X263680Y121616D02*
Y124616D01*
X197269Y227064D02*
X200269D01*
X198769Y225564D02*
Y228564D01*
X197000Y353000D02*
X200000D01*
X198500Y351500D02*
Y354500D01*
X197000Y497200D02*
X200000D01*
X198500Y495700D02*
Y498699D01*
X197000Y477304D02*
X200000D01*
X198500Y475804D02*
Y478804D01*
X197000Y457408D02*
X200000D01*
X198500Y455908D02*
Y458908D01*
X197250Y288750D02*
X200250D01*
X198750Y287250D02*
Y290250D01*
X195898Y272806D02*
X198898D01*
X197398Y271306D02*
Y274305D01*
X197250Y310000D02*
X200250D01*
X198750Y308500D02*
Y311500D01*
X195898Y332493D02*
X198898D01*
X197398Y330993D02*
Y333993D01*
X195898Y164511D02*
X198898D01*
X197398Y163011D02*
Y166011D01*
X195898Y145040D02*
X198898D01*
X197398Y143540D02*
Y146540D01*
X197000Y122750D02*
X200000D01*
X198500Y121250D02*
Y124250D01*
X197000Y102500D02*
X200000D01*
X198500Y101000D02*
Y104000D01*
X197000Y59492D02*
X200000D01*
X198500Y57991D02*
Y60992D01*
X197000Y39596D02*
X200000D01*
X198500Y38096D02*
Y41096D01*
X197000Y19700D02*
X200000D01*
X198500Y18200D02*
Y21200D01*
X903948Y650700D02*
X906948D01*
X905448Y649200D02*
Y652200D01*
X890198Y650700D02*
X893198D01*
X891698Y649200D02*
Y652200D01*
X708948Y650700D02*
X711948D01*
X710448Y649200D02*
Y652200D01*
X695948Y650950D02*
X698948D01*
X697448Y649450D02*
Y652450D01*
X513698Y649950D02*
X516698D01*
X515198Y648450D02*
Y651450D01*
X500448Y649950D02*
X503448D01*
X501948Y648450D02*
Y651450D01*
X903198Y456950D02*
X906198D01*
X904698Y455450D02*
Y458450D01*
X890948Y456950D02*
X893948D01*
X892448Y455450D02*
Y458450D01*
X707448Y455700D02*
X710448D01*
X708948Y454200D02*
Y457200D01*
X695097Y456001D02*
X698097D01*
X696597Y454501D02*
Y457500D01*
X514698Y456200D02*
X517698D01*
X516198Y454700D02*
Y457700D01*
X514698Y257700D02*
X517698D01*
X516198Y256200D02*
Y259200D01*
X502198Y257700D02*
X505198D01*
X503698Y256200D02*
Y259200D01*
X695448Y258950D02*
X698448D01*
X696948Y257450D02*
Y260450D01*
X709948Y259200D02*
X712948D01*
X711448Y257700D02*
Y260700D01*
X890198Y258450D02*
X893198D01*
X891698Y256950D02*
Y259950D01*
X904448Y258700D02*
X907448D01*
X905948Y257200D02*
Y260200D01*
M02*
