G04*
G04 #@! TF.GenerationSoftware,Altium Limited,Altium Designer,26.5.0 (11)*
G04*
G04 Layer_Color=8421504*
G04 Board_Origin=72964651|65651580*
%FSLAX44Y44*%
%MOMM*%
G71*
G04*
G04 #@! TF.SameCoordinates,0E16F24D-C74D-4210-9216-EA7F7333114A*
G04*
G04*
G04 #@! TF.FilePolarity,Positive*
G04*
G01*
G75*
%ADD18R,0.8000X0.9000*%
G04:AMPARAMS|DCode=19|XSize=1.5mm|YSize=1.22mm|CornerRadius=0.1525mm|HoleSize=0mm|Usage=FLASHONLY|Rotation=90.000|XOffset=0mm|YOffset=0mm|HoleType=Round|Shape=RoundedRectangle|*
%AMROUNDEDRECTD19*
21,1,1.5000,0.9150,0,0,90.0*
21,1,1.1950,1.2200,0,0,90.0*
1,1,0.3050,0.4575,0.5975*
1,1,0.3050,0.4575,-0.5975*
1,1,0.3050,-0.4575,-0.5975*
1,1,0.3050,-0.4575,0.5975*
%
%ADD19ROUNDEDRECTD19*%
%ADD20R,1.5000X2.0000*%
%ADD21R,1.2000X1.3000*%
%ADD22R,1.3000X1.2000*%
D18*
X148250Y461500D02*
D03*
X138750Y481500D02*
D03*
X157750D02*
D03*
D19*
X140750Y440750D02*
D03*
Y409250D02*
D03*
D20*
X306908Y104950D02*
D03*
Y79550D02*
D03*
Y54150D02*
D03*
Y28750D02*
D03*
Y130350D02*
D03*
Y155750D02*
D03*
Y206550D02*
D03*
Y231950D02*
D03*
Y181150D02*
D03*
Y308150D02*
D03*
Y282750D02*
D03*
Y257350D02*
D03*
Y435150D02*
D03*
Y409750D02*
D03*
Y384350D02*
D03*
Y358950D02*
D03*
Y511350D02*
D03*
Y460550D02*
D03*
Y485850D02*
D03*
Y333550D02*
D03*
X103788Y54100D02*
D03*
Y79548D02*
D03*
Y104943D02*
D03*
Y28750D02*
D03*
Y130350D02*
D03*
Y155750D02*
D03*
Y308150D02*
D03*
Y333550D02*
D03*
Y358950D02*
D03*
Y384350D02*
D03*
Y282750D02*
D03*
Y257350D02*
D03*
Y511350D02*
D03*
Y409750D02*
D03*
Y435150D02*
D03*
Y460550D02*
D03*
Y485950D02*
D03*
Y231950D02*
D03*
Y206550D02*
D03*
Y181150D02*
D03*
D21*
X147448Y284200D02*
D03*
X168448D02*
D03*
X147198Y303950D02*
D03*
X168198D02*
D03*
X219698Y29831D02*
D03*
X240698D02*
D03*
X219698Y71418D02*
D03*
X240698D02*
D03*
Y113005D02*
D03*
X219698D02*
D03*
Y154592D02*
D03*
X240698D02*
D03*
Y196178D02*
D03*
X219698D02*
D03*
Y237765D02*
D03*
X240698D02*
D03*
Y279352D02*
D03*
X219698D02*
D03*
Y320939D02*
D03*
X240698D02*
D03*
Y362526D02*
D03*
X219698D02*
D03*
Y404113D02*
D03*
X240698D02*
D03*
Y445700D02*
D03*
X219698D02*
D03*
Y487287D02*
D03*
X240698D02*
D03*
X148198Y131950D02*
D03*
X169198D02*
D03*
Y208450D02*
D03*
X148198D02*
D03*
X161085Y510750D02*
D03*
X140085D02*
D03*
X219698Y50624D02*
D03*
X240698D02*
D03*
Y92211D02*
D03*
X219698D02*
D03*
X240698Y133798D02*
D03*
X219698D02*
D03*
Y175385D02*
D03*
X240698D02*
D03*
Y216972D02*
D03*
X219698D02*
D03*
X240698Y258559D02*
D03*
X219698D02*
D03*
Y300146D02*
D03*
X240698D02*
D03*
Y341733D02*
D03*
X219698D02*
D03*
X240698Y383320D02*
D03*
X219698D02*
D03*
Y424906D02*
D03*
X240698D02*
D03*
Y466493D02*
D03*
X219698D02*
D03*
Y508080D02*
D03*
X240698D02*
D03*
X169198Y173950D02*
D03*
X148198D02*
D03*
X169198Y152450D02*
D03*
X148198D02*
D03*
X169198Y250950D02*
D03*
X148198D02*
D03*
X169198Y229700D02*
D03*
X148198D02*
D03*
X168698Y324200D02*
D03*
X147698D02*
D03*
D22*
X389335Y148000D02*
D03*
Y127000D02*
D03*
X581835Y126750D02*
D03*
Y147750D02*
D03*
X776585Y147500D02*
D03*
Y126500D02*
D03*
X389335Y321750D02*
D03*
Y342750D02*
D03*
X581585Y540750D02*
D03*
Y519750D02*
D03*
X388835Y540250D02*
D03*
Y519250D02*
D03*
X776335Y343500D02*
D03*
Y322500D02*
D03*
X582335D02*
D03*
Y343500D02*
D03*
X776335Y540000D02*
D03*
Y519000D02*
D03*
X388585Y714750D02*
D03*
Y735750D02*
D03*
X582335Y737750D02*
D03*
Y716750D02*
D03*
X776547Y715847D02*
D03*
Y736847D02*
D03*
X259698Y51081D02*
D03*
Y30081D02*
D03*
Y71581D02*
D03*
Y92581D02*
D03*
Y134081D02*
D03*
Y113081D02*
D03*
Y154581D02*
D03*
Y175581D02*
D03*
Y217081D02*
D03*
Y196081D02*
D03*
Y237581D02*
D03*
Y258581D02*
D03*
Y300081D02*
D03*
Y279081D02*
D03*
Y320581D02*
D03*
Y341581D02*
D03*
Y383081D02*
D03*
Y362081D02*
D03*
Y403581D02*
D03*
Y424581D02*
D03*
Y466081D02*
D03*
Y445081D02*
D03*
Y486581D02*
D03*
Y507581D02*
D03*
M02*
