G04*
G04 #@! TF.GenerationSoftware,Altium Limited,Altium Designer,26.5.0 (11)*
G04*
G04 Layer_Color=128*
G04 Board_Origin=73230399|66045281*
%FSLAX44Y44*%
%MOMM*%
G71*
G04*
G04 #@! TF.SameCoordinates,D8E93972-0857-4CFD-BA1B-23267FE283D4*
G04*
G04*
G04 #@! TF.FilePolarity,Positive*
G04*
G01*
G75*
%ADD41R,0.8200X1.8000*%
%ADD42R,2.5000X2.5500*%
D41*
X608585Y100500D02*
D03*
X593585D02*
D03*
Y154000D02*
D03*
X608585D02*
D03*
X803448Y153950D02*
D03*
X788448D02*
D03*
Y100450D02*
D03*
X803448D02*
D03*
X803198Y295700D02*
D03*
X788198D02*
D03*
Y349200D02*
D03*
X803198D02*
D03*
X609198D02*
D03*
X594198D02*
D03*
Y295700D02*
D03*
X609198D02*
D03*
X415585Y349250D02*
D03*
X400585D02*
D03*
Y295750D02*
D03*
X415585D02*
D03*
X415448Y492950D02*
D03*
X400448D02*
D03*
Y546450D02*
D03*
X415448D02*
D03*
X608085Y493000D02*
D03*
X593085D02*
D03*
Y546500D02*
D03*
X608085D02*
D03*
X415948Y100450D02*
D03*
X400948D02*
D03*
Y153950D02*
D03*
X415948D02*
D03*
X414835Y743500D02*
D03*
X399835D02*
D03*
Y690000D02*
D03*
X414835D02*
D03*
X608835Y743500D02*
D03*
X593835D02*
D03*
Y690000D02*
D03*
X608835D02*
D03*
X803198Y546450D02*
D03*
X788198D02*
D03*
Y492950D02*
D03*
X803198D02*
D03*
X803448Y689950D02*
D03*
X788448D02*
D03*
Y743450D02*
D03*
X803448D02*
D03*
D42*
X676990Y792914D02*
D03*
X703740Y658414D02*
D03*
X871687Y792766D02*
D03*
X898437Y658266D02*
D03*
X483717Y202156D02*
D03*
X510467Y67656D02*
D03*
X676725Y202821D02*
D03*
X703475Y68321D02*
D03*
X871687Y202906D02*
D03*
X898437Y68406D02*
D03*
X483717Y397406D02*
D03*
X510467Y262906D02*
D03*
X677217Y397906D02*
D03*
X703967Y263406D02*
D03*
X871687Y397910D02*
D03*
X898437Y263410D02*
D03*
X510467Y460656D02*
D03*
X483717Y595156D02*
D03*
X676256Y595663D02*
D03*
X703006Y461163D02*
D03*
X872008Y596576D02*
D03*
X898757Y462076D02*
D03*
X482887Y792486D02*
D03*
X509637Y657986D02*
D03*
M02*
