G04*
G04 #@! TF.GenerationSoftware,Altium Limited,Altium Designer,26.5.0 (11)*
G04*
G04 Layer_Color=128*
G04 Board_Origin=72964651|65651580*
%FSLAX44Y44*%
%MOMM*%
G71*
G04*
G04 #@! TF.SameCoordinates,0E16F24D-C74D-4210-9216-EA7F7333114A*
G04*
G04*
G04 #@! TF.FilePolarity,Positive*
G04*
G01*
G75*
%ADD41R,2.5000X2.5500*%
%ADD42R,0.8200X1.8000*%
D41*
X683740Y802914D02*
D03*
X710490Y668414D02*
D03*
X878437Y802766D02*
D03*
X905187Y668266D02*
D03*
X490467Y212156D02*
D03*
X517217Y77656D02*
D03*
X683475Y212821D02*
D03*
X710225Y78321D02*
D03*
X878437Y212906D02*
D03*
X905187Y78406D02*
D03*
X490467Y407406D02*
D03*
X517217Y272906D02*
D03*
X683967Y407906D02*
D03*
X710717Y273406D02*
D03*
X878437Y407910D02*
D03*
X905187Y273410D02*
D03*
X517217Y470656D02*
D03*
X490467Y605156D02*
D03*
X683006Y605663D02*
D03*
X709756Y471163D02*
D03*
X878757Y606576D02*
D03*
X905508Y472076D02*
D03*
X489637Y802486D02*
D03*
X516387Y667986D02*
D03*
D42*
X810198Y163950D02*
D03*
X795198D02*
D03*
Y110450D02*
D03*
X810198D02*
D03*
X422698D02*
D03*
X407698D02*
D03*
Y163950D02*
D03*
X422698D02*
D03*
X422335Y359250D02*
D03*
X407335D02*
D03*
Y305750D02*
D03*
X422335D02*
D03*
X422198Y502950D02*
D03*
X407198D02*
D03*
Y556450D02*
D03*
X422198D02*
D03*
X421585Y753500D02*
D03*
X406585D02*
D03*
Y700000D02*
D03*
X421585D02*
D03*
X615335Y110500D02*
D03*
X600335D02*
D03*
Y164000D02*
D03*
X615335D02*
D03*
X615948Y359200D02*
D03*
X600948D02*
D03*
Y305700D02*
D03*
X615948D02*
D03*
X614835Y503000D02*
D03*
X599835D02*
D03*
Y556500D02*
D03*
X614835D02*
D03*
X615585Y753500D02*
D03*
X600585D02*
D03*
Y700000D02*
D03*
X615585D02*
D03*
X809948Y305700D02*
D03*
X794948D02*
D03*
Y359200D02*
D03*
X809948D02*
D03*
Y556450D02*
D03*
X794948D02*
D03*
Y502950D02*
D03*
X809948D02*
D03*
X810198Y699950D02*
D03*
X795198D02*
D03*
Y753450D02*
D03*
X810198D02*
D03*
M02*
